<svg width="189" height="238" viewBox="0 0 189 238" fill="none" xmlns="http://www.w3.org/2000/svg">
<ellipse cx="116.997" cy="198.962" rx="23.8317" ry="10.3993" fill="#ABACAB"/>
<mask id="path-2-inside-1_34019_307" fill="white">
<path fill-rule="evenodd" clip-rule="evenodd" d="M79.8471 142.112C79.7603 142.01 79.6751 141.907 79.5903 141.803L79.5861 141.798C75.2029 136.395 74.2355 128.803 77.787 121.646C83.1605 110.816 96.8589 105.055 108.357 108.789C115.957 111.257 120.706 117.258 121.502 124.169L121.502 124.176C121.518 124.309 121.532 124.442 121.544 124.575L132.83 197.25C130.413 201.118 119.782 201.118 117.365 197.25L79.8471 142.112Z"/>
</mask>
<path fill-rule="evenodd" clip-rule="evenodd" d="M79.8471 142.112C79.7603 142.01 79.6751 141.907 79.5903 141.803L79.5861 141.798C75.2029 136.395 74.2355 128.803 77.787 121.646C83.1605 110.816 96.8589 105.055 108.357 108.789C115.957 111.257 120.706 117.258 121.502 124.169L121.502 124.176C121.518 124.309 121.532 124.442 121.544 124.575L132.83 197.25C130.413 201.118 119.782 201.118 117.365 197.25L79.8471 142.112Z" fill="white"/>
<path d="M79.8471 142.112L80.6739 141.549L80.6432 141.504L80.6078 141.462L79.8471 142.112ZM79.5903 141.803L80.3664 141.172L80.3593 141.163L79.5903 141.803ZM79.5861 141.798L78.8095 142.428L78.817 142.437L79.5861 141.798ZM77.787 121.646L78.6828 122.09L78.6828 122.09L77.787 121.646ZM108.357 108.789L108.049 109.74L108.049 109.74L108.357 108.789ZM121.502 124.169L122.497 124.067L122.495 124.055L121.502 124.169ZM121.502 124.176L120.508 124.278L120.509 124.288L121.502 124.176ZM121.544 124.575L120.548 124.665L120.551 124.697L120.555 124.729L121.544 124.575ZM117.365 197.25L118.213 196.72L118.202 196.704L118.191 196.687L117.365 197.25ZM132.83 197.25L133.678 197.78L133.876 197.465L133.819 197.097L132.83 197.25ZM80.6078 141.462C80.5271 141.368 80.4471 141.271 80.3663 141.172L78.8143 142.433C78.903 142.543 78.9934 142.652 79.0864 142.761L80.6078 141.462ZM80.3593 141.163L80.3551 141.158L78.817 142.437L78.8213 142.442L80.3593 141.163ZM80.3626 141.167C76.237 136.083 75.2974 128.913 78.6828 122.09L76.8912 121.201C73.1736 128.694 74.1687 136.708 78.8095 142.428L80.3626 141.167ZM78.6828 122.09C83.8359 111.705 97.0216 106.159 108.049 109.74L108.666 107.838C96.6961 103.951 82.4852 109.927 76.8912 121.201L78.6828 122.09ZM108.049 109.74C115.293 112.092 119.76 117.779 120.508 124.284L122.495 124.055C121.653 116.737 116.621 110.421 108.666 107.838L108.049 109.74ZM120.507 124.272L120.508 124.278L122.497 124.073L122.497 124.067L120.507 124.272ZM120.509 124.288C120.523 124.417 120.537 124.542 120.548 124.665L122.54 124.486C122.527 124.342 122.512 124.201 122.496 124.063L120.509 124.288ZM118.191 196.687L80.6739 141.549L79.0203 142.674L116.538 197.813L118.191 196.687ZM120.555 124.729L131.842 197.404L133.819 197.097L122.532 124.422L120.555 124.729ZM131.982 196.72C131.547 197.417 130.669 198.037 129.402 198.483C128.154 198.922 126.638 199.151 125.098 199.151C123.557 199.151 122.041 198.921 120.793 198.482C119.526 198.037 118.648 197.417 118.213 196.72L116.517 197.78C117.29 199.017 118.647 199.848 120.129 200.369C121.63 200.897 123.376 201.151 125.098 201.151C126.819 201.151 128.565 200.897 130.066 200.369C131.548 199.848 132.905 199.017 133.678 197.78L131.982 196.72Z" fill="black" mask="url(#path-2-inside-1_34019_307)"/>
<path fill-rule="evenodd" clip-rule="evenodd" d="M52.3428 105.227C65.343 88.1935 93.1635 76.4931 114.431 79.1152C135.697 81.7374 142.409 97.6953 129.409 114.729C116.408 131.763 88.5875 143.463 67.3207 140.841C46.0536 138.219 39.3423 122.261 52.3428 105.227Z" fill="#FF4D4D" stroke="#262725" stroke-linecap="round" stroke-linejoin="round"/>
<path d="M52.8064 140.889L52.7674 140.906L49.7378 133.702C53.4653 137.778 59.4506 140.588 67.3547 141.563C78.0954 142.887 90.4562 140.594 101.754 135.843C113.051 131.091 123.335 123.861 129.901 115.258L129.504 114.954L129.901 115.258C134.732 108.927 136.91 102.684 136.604 97.169L139.634 104.373L139.595 104.389L139.821 104.862C142.836 111.174 141.489 119.505 134.822 128.241C128.387 136.673 118.261 143.81 107.082 148.511C95.9019 153.213 83.7189 155.459 73.1927 154.161C62.2857 152.815 55.3884 147.951 52.9864 141.382L52.8064 140.889Z" fill="#FF0D0D" stroke="black"/>
<path fill-rule="evenodd" clip-rule="evenodd" d="M57.4034 59.4271C61.5658 53.9918 70.4627 50.2501 77.2586 51.0767C80.658 51.4901 82.8921 52.9687 83.7551 55.0237L108.631 93.6745C111.263 97.0474 110.935 101.928 107.092 106.992C100.704 115.412 87.0037 121.174 76.518 119.851C71.3958 119.205 67.9819 116.987 66.5742 113.906C66.2716 113.243 66.0617 112.541 65.9475 111.806L65.9422 111.808L55.678 66.8268L55.6788 66.8265C54.8162 64.773 55.3227 62.144 57.4034 59.4271Z" fill="#D90000"/>
<path d="M77.2586 51.0767L77.1983 51.573L77.1983 51.5731L77.2586 51.0767ZM57.4034 59.4271L57.8003 59.7311L57.8003 59.7311L57.4034 59.4271ZM83.7551 55.0237L83.2941 55.2173L83.311 55.2576L83.3346 55.2943L83.7551 55.0237ZM108.631 93.6745L108.211 93.9451L108.223 93.9642L108.237 93.982L108.631 93.6745ZM107.092 106.992L106.694 106.69L106.694 106.69L107.092 106.992ZM76.518 119.851L76.5806 119.355L76.5806 119.355L76.518 119.851ZM66.5742 113.906L67.029 113.698L66.5742 113.906ZM65.9475 111.806L66.4416 111.729L66.3434 111.097L65.7537 111.345L65.9475 111.806ZM65.9422 111.808L65.4547 111.919L65.5872 112.5L66.136 112.269L65.9422 111.808ZM55.678 66.8268L55.4842 66.3659L55.0972 66.5287L55.1906 66.938L55.678 66.8268ZM55.6788 66.8265L55.8726 67.2874L56.3333 67.0936L56.1398 66.6328L55.6788 66.8265ZM77.319 50.5804C73.814 50.154 69.8022 50.9066 66.1496 52.4428C62.4969 53.979 59.1531 56.3199 57.0064 59.1231L57.8003 59.7311C59.816 57.099 63.0018 54.8515 66.5373 53.3646C70.0727 51.8777 73.9073 51.1727 77.1983 51.573L77.319 50.5804ZM84.2161 54.8301C83.2585 52.55 80.8216 51.0063 77.319 50.5804L77.1983 51.5731C80.4945 51.9739 82.5256 53.3874 83.2941 55.2173L84.2161 54.8301ZM83.3346 55.2943L108.211 93.9451L109.052 93.4039L84.1755 54.7531L83.3346 55.2943ZM107.49 107.295C111.411 102.127 111.849 96.9856 109.025 93.3669L108.237 93.982C110.677 97.1092 110.459 101.728 106.694 106.69L107.49 107.295ZM76.4554 120.347C81.8059 121.022 87.9417 119.888 93.5353 117.536C99.1289 115.184 104.23 111.591 107.49 107.295L106.694 106.69C103.565 110.814 98.6225 114.312 93.1476 116.614C87.6728 118.917 81.7158 120.003 76.5806 119.355L76.4554 120.347ZM66.1195 114.113C67.6241 117.407 71.2308 119.688 76.4554 120.347L76.5806 119.355C71.5608 118.722 68.3398 116.567 67.029 113.698L66.1195 114.113ZM65.4534 111.883C65.5745 112.662 65.7975 113.409 66.1195 114.113L67.029 113.698C66.7458 113.078 66.5489 112.42 66.4416 111.729L65.4534 111.883ZM65.7537 111.345L65.7484 111.347L66.136 112.269L66.1413 112.267L65.7537 111.345ZM66.4297 111.697L56.1655 66.7156L55.1906 66.938L65.4547 111.919L66.4297 111.697ZM55.8719 67.2877L55.8726 67.2874L55.485 66.3656L55.4842 66.3659L55.8719 67.2877ZM57.0064 59.1231C54.8626 61.9224 54.2608 64.7418 55.2178 67.0201L56.1398 66.6328C55.3717 64.8042 55.7828 62.3655 57.8003 59.7311L57.0064 59.1231Z" fill="black"/>
<path fill-rule="evenodd" clip-rule="evenodd" d="M92.124 57.7695C83.7951 68.7671 65.9221 76.2839 52.2363 74.5448C38.5508 72.8056 34.2018 62.4647 42.5306 51.467C50.8597 40.4692 68.7327 32.9524 82.4182 34.6916C96.1038 36.4308 100.453 46.7718 92.124 57.7695Z" fill="white"/>
<path fill-rule="evenodd" clip-rule="evenodd" d="M92.124 57.7695C83.7951 68.7671 65.9222 76.2839 52.2363 74.5448C38.5508 72.8056 34.2018 62.4647 42.5306 51.467C50.8597 40.4692 68.7327 32.9524 82.4182 34.6916C96.1038 36.4308 100.453 46.7718 92.124 57.7695Z" stroke="#262725" stroke-width="2" stroke-linecap="round" stroke-linejoin="round"/>
<path fill-rule="evenodd" clip-rule="evenodd" d="M32.4061 39.3627C42.5315 26.0364 64.2343 16.9089 80.8409 18.9927C97.4473 21.0766 102.709 33.5876 92.5836 46.9139C82.458 60.2404 60.7552 69.3678 44.1488 67.2839C27.5422 65.2001 22.2805 52.6891 32.4061 39.3627Z" fill="#FF4D4D"/>
<path fill-rule="evenodd" clip-rule="evenodd" d="M32.4061 39.3627C42.5315 26.0364 64.2343 16.9089 80.8409 18.9927C97.4473 21.0766 102.709 33.5876 92.5836 46.9139C82.458 60.2404 60.7552 69.3678 44.1488 67.2839C27.5422 65.2001 22.2805 52.6891 32.4061 39.3627Z" stroke="#262725" stroke-width="2" stroke-linecap="round" stroke-linejoin="round"/>
<path fill-rule="evenodd" clip-rule="evenodd" d="M101.019 38.9221L101.006 38.9275C103.471 44.0954 102.37 50.8172 97.139 57.748C87.0371 71.1309 65.3343 80.2584 48.7042 78.118C40.0914 77.0096 34.5173 73.095 32.548 67.7186L32.5351 67.724L28.2516 57.5389C30.3927 62.6299 35.8753 66.3155 44.1905 67.3856C60.8206 69.526 82.5235 60.3985 92.6254 47.0156C97.676 40.3243 98.8765 33.828 96.7354 28.737L101.019 38.9221Z" stroke="#262725" stroke-width="2" stroke-linecap="round" stroke-linejoin="round"/>
<path fill-rule="evenodd" clip-rule="evenodd" d="M101.019 38.9221L101.006 38.9275C103.471 44.0954 102.37 50.8172 97.139 57.748C87.0371 71.1309 65.3343 80.2584 48.7042 78.118C40.0914 77.0096 34.5173 73.095 32.548 67.7186L32.5351 67.724L28.2516 57.5389C30.3927 62.6299 35.8753 66.3155 44.1905 67.3856C60.8206 69.526 82.5235 60.3985 92.6254 47.0156C97.676 40.3243 98.8765 33.828 96.7354 28.737L101.019 38.9221Z" fill="#FF0D0D"/>
</svg>
