<svg width="187" height="226" viewBox="0 0 187 226" fill="none" xmlns="http://www.w3.org/2000/svg">
<path fill-rule="evenodd" clip-rule="evenodd" d="M6.16095 170.469C7.92958 184.759 21.0748 194.898 35.4974 193.096C49.9199 191.294 60.1934 178.23 58.4248 163.94C56.6562 149.65 43.511 139.512 29.0884 141.313C14.6659 143.115 4.39238 156.179 6.16095 170.469Z" fill="#262725"/>
<path fill-rule="evenodd" clip-rule="evenodd" d="M79.2085 117.002L39.2654 146.037C37.599 147.265 36.7301 149.618 37.0578 152.799C37.7092 159.123 42.8464 166.337 48.5225 168.898C51.3027 170.153 53.6995 170.061 55.346 168.896L95.4589 139.736C93.8111 140.969 91.373 141.092 88.536 139.812C82.8599 137.25 77.7229 130.035 77.0713 123.711C76.7485 120.576 77.5878 118.245 79.2085 117.002Z" fill="white"/>
<path fill-rule="evenodd" clip-rule="evenodd" d="M79.2085 117.002L39.2654 146.037C37.599 147.265 36.7301 149.618 37.0578 152.799C37.7092 159.123 42.8464 166.337 48.5225 168.898C51.3027 170.153 53.6995 170.061 55.346 168.896L95.4589 139.736C93.8111 140.969 91.373 141.092 88.536 139.812C82.8599 137.25 77.7229 130.035 77.0713 123.711C76.7485 120.576 77.5878 118.245 79.2085 117.002Z" stroke="#262725" stroke-width="2" stroke-linecap="round" stroke-linejoin="round"/>
<path fill-rule="evenodd" clip-rule="evenodd" d="M77.0805 123.683C77.7319 130.005 82.8675 137.218 88.5419 139.778C94.2164 142.339 98.2948 139.285 97.6433 132.963C96.9922 126.641 91.8564 119.429 86.1819 116.868C80.5074 114.307 76.4293 117.36 77.0805 123.683Z" fill="#262725"/>
<path fill-rule="evenodd" clip-rule="evenodd" d="M77.0805 123.683C77.7319 130.005 82.8675 137.218 88.5419 139.778C94.2164 142.339 98.2948 139.285 97.6433 132.963C96.9922 126.641 91.8564 119.429 86.1819 116.868C80.5074 114.307 76.4293 117.36 77.0805 123.683Z" stroke="#262725" stroke-width="2" stroke-linecap="round" stroke-linejoin="round"/>
<path fill-rule="evenodd" clip-rule="evenodd" d="M120.522 219.154C134.557 222.75 148.838 214.24 152.393 200.162C155.948 186.084 147.44 171.735 133.405 168.139C119.37 164.543 105.089 173.053 101.534 187.131C97.9784 201.209 106.487 215.558 120.522 219.154Z" fill="#262725"/>
<path fill-rule="evenodd" clip-rule="evenodd" d="M94.497 126.45L108.342 179.784C108.936 182.015 111.011 183.877 114.42 184.831C121.197 186.728 130.696 184.326 135.619 179.469C138.03 177.09 138.899 174.562 138.361 172.376L124.456 118.816C125.063 121.03 124.209 123.614 121.749 126.041C116.826 130.898 107.327 133.3 100.549 131.403C97.1894 130.462 95.1253 128.641 94.497 126.45Z" fill="white"/>
<path fill-rule="evenodd" clip-rule="evenodd" d="M94.497 126.45L108.342 179.784C108.936 182.015 111.011 183.877 114.42 184.831C121.197 186.728 130.696 184.326 135.619 179.469C138.03 177.09 138.899 174.562 138.361 172.376L124.456 118.816C125.063 121.03 124.209 123.614 121.749 126.041C116.826 130.898 107.327 133.3 100.549 131.403C97.1894 130.462 95.1253 128.641 94.497 126.45Z" stroke="#262725" stroke-width="2" stroke-linecap="round" stroke-linejoin="round"/>
<path fill-rule="evenodd" clip-rule="evenodd" d="M100.574 131.41C107.352 133.307 116.854 130.905 121.777 126.047C126.701 121.19 125.194 115.705 118.415 113.807C111.636 111.909 102.135 114.312 97.2116 119.17C92.288 124.027 93.7944 129.512 100.574 131.41Z" fill="#262725"/>
<path fill-rule="evenodd" clip-rule="evenodd" d="M100.574 131.41C107.352 133.307 116.854 130.905 121.777 126.047C126.701 121.19 125.194 115.705 118.415 113.807C111.636 111.909 102.135 114.312 97.2116 119.17C92.288 124.027 93.7944 129.512 100.574 131.41Z" stroke="#262725" stroke-width="2" stroke-linecap="round" stroke-linejoin="round"/>
<path fill-rule="evenodd" clip-rule="evenodd" d="M176.606 152.983C182.343 148.254 183.183 139.739 178.481 133.98C173.779 128.222 165.304 127.385 159.567 132.115C153.831 136.844 152.991 145.359 157.693 151.118C162.395 156.876 170.87 157.713 176.606 152.983Z" fill="#262725"/>
<path fill-rule="evenodd" clip-rule="evenodd" d="M130.624 135.596L156.726 146.066C157.823 146.498 159.217 146.203 160.644 145.078C163.482 142.842 165.381 138.169 164.883 134.65C164.638 132.926 163.864 131.796 162.804 131.355L136.591 120.84C137.684 121.262 138.486 122.402 138.735 124.161C139.233 127.681 137.334 132.354 134.496 134.59C133.089 135.698 131.715 136.001 130.624 135.596Z" fill="white"/>
<path fill-rule="evenodd" clip-rule="evenodd" d="M130.624 135.596L156.726 146.066C157.823 146.498 159.217 146.203 160.644 145.078C163.482 142.842 165.381 138.169 164.883 134.65C164.638 132.926 163.864 131.796 162.804 131.355L136.591 120.84C137.684 121.262 138.486 122.402 138.735 124.161C139.233 127.681 137.334 132.354 134.496 134.59C133.089 135.698 131.715 136.001 130.624 135.596Z" stroke="#262725" stroke-width="2" stroke-linecap="round" stroke-linejoin="round"/>
<path fill-rule="evenodd" clip-rule="evenodd" d="M134.498 134.583C137.336 132.347 139.235 127.674 138.737 124.153C138.238 120.633 135.529 119.591 132.691 121.827C129.853 124.064 127.953 128.737 128.452 132.257C128.95 135.778 131.659 136.82 134.498 134.583Z" fill="#262725"/>
<path fill-rule="evenodd" clip-rule="evenodd" d="M134.498 134.583C137.336 132.347 139.235 127.674 138.737 124.153C138.238 120.633 135.529 119.591 132.691 121.827C129.853 124.064 127.953 128.737 128.452 132.257C128.95 135.778 131.659 136.82 134.498 134.583Z" stroke="#262725" stroke-width="2" stroke-linecap="round" stroke-linejoin="round"/>
<path d="M60.4811 117.159C60.4811 140.209 79.106 158.919 102.041 158.919C124.976 158.919 143.601 140.209 143.601 117.159C143.601 94.1092 124.976 75.3993 102.041 75.3993C79.106 75.3993 60.4811 94.1091 60.4811 117.159Z" fill="#6033ED" stroke="black"/>
<path fill-rule="evenodd" clip-rule="evenodd" d="M127.863 41.0126L103.052 84.352C102.024 86.1754 102.19 88.7038 103.795 91.4969C106.986 97.0498 114.665 101.558 120.932 101.558C124.001 101.558 126.166 100.477 127.202 98.7198L152.118 55.195C151.109 57.015 148.918 58.1415 145.786 58.1415C139.519 58.1415 131.84 53.6323 128.649 48.0794C127.067 45.3263 126.883 42.8307 127.863 41.0126Z" fill="white"/>
<path fill-rule="evenodd" clip-rule="evenodd" d="M127.863 41.0126L103.052 84.352C102.024 86.1754 102.19 88.7038 103.795 91.4969C106.986 97.0498 114.665 101.558 120.932 101.558C124.001 101.558 126.166 100.477 127.202 98.7198L152.118 55.195C151.109 57.015 148.918 58.1415 145.786 58.1415C139.519 58.1415 131.84 53.6323 128.649 48.0794C127.067 45.3263 126.883 42.8307 127.863 41.0126Z" stroke="#262725" stroke-width="2" stroke-linecap="round" stroke-linejoin="round"/>
<path fill-rule="evenodd" clip-rule="evenodd" d="M128.649 48.0795C131.84 53.6324 139.519 58.1415 145.786 58.1415C152.053 58.1415 154.55 53.6324 151.359 48.0795C148.168 42.5259 140.489 38.0174 134.222 38.0174C127.955 38.0174 125.458 42.5259 128.649 48.0795Z" fill="#262725"/>
<path fill-rule="evenodd" clip-rule="evenodd" d="M128.649 48.0795C131.84 53.6324 139.519 58.1415 145.786 58.1415C152.053 58.1415 154.55 53.6324 151.359 48.0795C148.168 42.5259 140.489 38.0174 134.222 38.0174C127.955 38.0174 125.458 42.5259 128.649 48.0795Z" stroke="#262725" stroke-width="2" stroke-linecap="round" stroke-linejoin="round"/>
<path fill-rule="evenodd" clip-rule="evenodd" d="M117.674 31.5475C117.674 48.5903 131.444 62.4266 148.406 62.4266C165.368 62.4266 179.138 48.5903 179.138 31.5475C179.138 14.5053 165.368 0.669067 148.406 0.669067C131.444 0.669067 117.674 14.5053 117.674 31.5475Z" fill="#262725"/>
<path fill-rule="evenodd" clip-rule="evenodd" d="M46.8392 78.3084L72.0115 101.831C73.073 102.811 74.7917 103.095 76.9109 102.451C81.124 101.17 85.3336 96.6987 86.3055 92.473C86.7816 90.4032 86.3934 88.7738 85.3773 87.8001L60.0972 64.1772C61.1593 65.1431 61.5739 66.7967 61.0881 68.9087C60.1163 73.1344 55.9061 77.6052 51.693 78.8864C49.6043 79.5214 47.9046 79.2543 46.8392 78.3084Z" fill="white"/>
<path fill-rule="evenodd" clip-rule="evenodd" d="M46.8392 78.3084L72.0115 101.831C73.073 102.811 74.7917 103.095 76.9109 102.451C81.124 101.17 85.3336 96.6987 86.3055 92.473C86.7816 90.4032 86.3934 88.7738 85.3773 87.8001L60.0972 64.1772C61.1593 65.1431 61.5739 66.7967 61.0881 68.9087C60.1163 73.1344 55.9061 77.6052 51.693 78.8864C49.6043 79.5214 47.9046 79.2543 46.8392 78.3084Z" stroke="#262725" stroke-width="2" stroke-linecap="round" stroke-linejoin="round"/>
<path fill-rule="evenodd" clip-rule="evenodd" d="M51.7197 78.8959C55.9347 77.6142 60.1467 73.1414 61.119 68.9139C62.0913 64.6864 59.4581 62.2947 55.2432 63.5765C51.0278 64.8582 46.8162 69.331 45.8439 73.5585C44.8716 77.786 47.5043 80.1776 51.7197 78.8959Z" fill="#262725"/>
<path fill-rule="evenodd" clip-rule="evenodd" d="M51.7197 78.8959C55.9347 77.6142 60.1467 73.1414 61.119 68.9139C62.0913 64.6864 59.4581 62.2947 55.2432 63.5765C51.0278 64.8582 46.8162 69.331 45.8439 73.5585C44.8716 77.786 47.5043 80.1776 51.7197 78.8959Z" stroke="#262725" stroke-width="2" stroke-linecap="round" stroke-linejoin="round"/>
<path fill-rule="evenodd" clip-rule="evenodd" d="M38.9577 83.7202C50.3666 86.3871 61.769 79.2609 64.4049 67.8166C67.0409 56.3723 59.9187 44.9157 48.5098 42.2488C37.1013 39.5819 25.699 46.7082 23.063 58.1525C20.427 69.5967 27.5493 81.0533 38.9577 83.7202Z" fill="#262725"/>
</svg>
