<svg width="187" height="201" viewBox="0 0 187 201" fill="none" xmlns="http://www.w3.org/2000/svg">
<path opacity="0.3" fill-rule="evenodd" clip-rule="evenodd" d="M0.00170898 150.363C0.00170898 163.106 8.76928 175.326 24.3758 184.337C56.8526 203.087 109.586 203.087 142.063 184.337C157.67 175.326 166.437 163.106 166.437 150.363H124.829C124.829 156.734 120.445 162.845 112.642 167.35C96.4032 176.725 70.0359 176.725 53.7975 167.35C45.9944 162.845 41.6108 156.734 41.6108 150.363H0.00170898Z" fill="#262725"/>
<path fill-rule="evenodd" clip-rule="evenodd" d="M24.1474 69.7913V135.279L63.4644 143.141C65.5249 139.707 68.9083 136.587 73.3596 134.017C83.0976 128.395 97.0223 125.919 110.551 127.403L118.321 103.803V38.3157C91.263 35.3463 63.4131 40.2988 43.938 51.5428C35.035 56.6831 28.2681 62.9226 24.1474 69.7913Z" fill="white"/>
<path fill-rule="evenodd" clip-rule="evenodd" d="M24.1474 69.7913V135.279L63.4644 143.141C65.5249 139.707 68.9083 136.587 73.3596 134.017C83.0976 128.395 97.0223 125.919 110.551 127.403L118.321 103.803V38.3157C91.263 35.3463 63.4131 40.2988 43.938 51.5428C35.035 56.6831 28.2681 62.9226 24.1474 69.7913Z" stroke="#262725" stroke-width="2" stroke-linecap="round" stroke-linejoin="round"/>
<path fill-rule="evenodd" clip-rule="evenodd" d="M118.321 38.3157C91.263 35.3463 63.4131 40.2988 43.938 51.5428C35.035 56.6831 28.2681 62.9226 24.1474 69.7913L63.4644 77.6538C65.5249 74.2195 68.9083 71.0997 73.3596 68.5298C83.0976 62.9077 97.0223 60.4313 110.551 61.9162L118.321 38.3157Z" fill="white"/>
<path fill-rule="evenodd" clip-rule="evenodd" d="M118.321 38.3157C91.263 35.3463 63.4131 40.2988 43.938 51.5428C35.035 56.6831 28.2681 62.9226 24.1474 69.7913L63.4644 77.6538C65.5249 74.2195 68.9083 71.0997 73.3596 68.5298C83.0976 62.9077 97.0223 60.4313 110.551 61.9162L118.321 38.3157Z" stroke="#262725" stroke-width="2" stroke-linecap="round" stroke-linejoin="round"/>
<path fill-rule="evenodd" clip-rule="evenodd" d="M24.1474 135.278V69.7905L63.4644 77.653V143.14L24.1474 135.278Z" fill="#039600"/>
<path fill-rule="evenodd" clip-rule="evenodd" d="M24.1474 135.278V69.7905L63.4644 77.653V143.14L24.1474 135.278Z" stroke="#262725" stroke-width="2" stroke-linecap="round" stroke-linejoin="round"/>
<path fill-rule="evenodd" clip-rule="evenodd" d="M118.325 103.803V38.3153L110.555 61.9158V127.403L118.325 103.803Z" fill="white"/>
<path fill-rule="evenodd" clip-rule="evenodd" d="M118.325 103.803V38.3153L110.555 61.9158V127.403L118.325 103.803Z" stroke="#262725" stroke-width="2" stroke-linecap="round" stroke-linejoin="round"/>
<path fill-rule="evenodd" clip-rule="evenodd" d="M182.584 96.477C178.646 88.7917 171.442 81.7974 161.627 76.1304C151.811 70.4634 139.697 66.304 126.385 64.031L102.783 110.104L182.584 96.477Z" fill="white"/>
<path fill-rule="evenodd" clip-rule="evenodd" d="M182.584 96.477C178.646 88.7917 171.442 81.7974 161.627 76.1304C151.811 70.4634 139.697 66.304 126.385 64.031L102.783 110.104L182.584 96.477Z" stroke="#262725" stroke-width="2" stroke-linecap="round" stroke-linejoin="round"/>
<path fill-rule="evenodd" clip-rule="evenodd" d="M182.583 137.73V96.477L102.771 110.11L102.782 151.357L182.583 137.73Z" fill="#00D42F"/>
<path fill-rule="evenodd" clip-rule="evenodd" d="M182.583 137.73V96.477L102.771 110.11L102.782 151.357L182.583 137.73Z" stroke="#262725" stroke-width="2" stroke-linecap="round" stroke-linejoin="round"/>
<path fill-rule="evenodd" clip-rule="evenodd" d="M19.5644 125.712C19.5644 138.454 28.3319 150.675 43.9384 159.685C76.4153 178.436 129.149 178.436 161.626 159.685C177.232 150.675 186 138.454 186 125.712H144.391C144.391 132.083 140.007 138.193 132.204 142.699C115.966 152.074 89.5985 152.074 73.3601 142.699C65.5571 138.193 61.1735 132.083 61.1735 125.712H19.5644Z" fill="white"/>
<path fill-rule="evenodd" clip-rule="evenodd" d="M19.5644 125.712C19.5644 138.454 28.3319 150.675 43.9384 159.685C76.4153 178.436 129.149 178.436 161.626 159.685C177.232 150.675 186 138.454 186 125.712H144.391C144.391 132.083 140.007 138.193 132.204 142.699C115.966 152.074 89.5985 152.074 73.3601 142.699C65.5571 138.193 61.1735 132.083 61.1735 125.712H19.5644Z" stroke="#262725" stroke-width="2" stroke-linecap="round" stroke-linejoin="round"/>
<path opacity="0.3" fill-rule="evenodd" clip-rule="evenodd" d="M36.8223 130.805L23.8734 138.281L36.8223 145.757L41.909 145.476C41.909 145.476 44.6883 140.778 49.7707 138.281L36.8223 130.805Z" fill="#262725"/>
<path opacity="0.3" fill-rule="evenodd" clip-rule="evenodd" d="M54.6123 145.748L41.6635 153.224L54.6123 160.7L59.6991 160.419C59.6991 160.419 62.4784 155.721 67.5608 153.224L54.6123 145.748Z" fill="#262725"/>
<path opacity="0.3" fill-rule="evenodd" clip-rule="evenodd" d="M79.3412 152.881L66.3923 160.357L79.3412 167.833L84.4279 167.552C84.4279 167.552 87.2076 162.853 92.2896 160.357L79.3412 152.881Z" fill="#262725"/>
<path fill-rule="evenodd" clip-rule="evenodd" d="M185.983 150.304H185.952C186.554 163.042 178.445 175.892 161.622 185.604C129.141 204.357 76.4005 204.357 43.9193 185.604C27.0975 175.892 18.9876 163.042 19.5898 150.304H19.5585V125.696C19.5585 137.997 27.6789 150.297 43.9193 159.674C76.4005 178.427 129.141 178.427 161.622 159.674C177.863 150.297 185.983 137.997 185.983 125.696V150.304Z" fill="#8FFC22"/>
<path fill-rule="evenodd" clip-rule="evenodd" d="M185.983 150.304H185.952C186.554 163.042 178.445 175.892 161.622 185.604C129.141 204.357 76.4005 204.357 43.9193 185.604C27.0975 175.892 18.9876 163.042 19.5898 150.304H19.5585V125.696C19.5585 137.997 27.6789 150.297 43.9193 159.674C76.4005 178.427 129.141 178.427 161.622 159.674C177.863 150.297 185.983 137.997 185.983 125.696V150.304Z" stroke="#262725" stroke-width="2" stroke-linecap="round" stroke-linejoin="round"/>
<path fill-rule="evenodd" clip-rule="evenodd" d="M41.9068 114.859L28.9579 122.335V138L41.9068 145.476L54.8553 138V122.335L41.9068 114.859Z" fill="#039600"/>
<path fill-rule="evenodd" clip-rule="evenodd" d="M41.9068 114.859L28.9579 122.335V138L41.9068 145.476L54.8553 138V122.335L41.9068 114.859Z" stroke="#262725" stroke-width="2" stroke-linecap="round" stroke-linejoin="round"/>
<path fill-rule="evenodd" clip-rule="evenodd" d="M54.8568 122.334L41.9083 129.81V145.475L54.8568 137.999V122.334Z" fill="white"/>
<path fill-rule="evenodd" clip-rule="evenodd" d="M54.8568 122.334L41.9083 129.81V145.475L54.8568 137.999V122.334Z" stroke="#262725" stroke-width="2" stroke-linecap="round" stroke-linejoin="round"/>
<path fill-rule="evenodd" clip-rule="evenodd" d="M41.9068 114.859L28.9579 122.335L41.9068 129.811L54.8553 122.335L41.9068 114.859Z" fill="white"/>
<path fill-rule="evenodd" clip-rule="evenodd" d="M41.9068 114.859L28.9579 122.335L41.9068 129.811L54.8553 122.335L41.9068 114.859Z" stroke="#262725" stroke-width="2" stroke-linecap="round" stroke-linejoin="round"/>
<path fill-rule="evenodd" clip-rule="evenodd" d="M59.7668 115.14L46.818 122.616V153.023L59.7668 160.499L72.7153 153.023V122.616L59.7668 115.14Z" fill="#00D52F"/>
<path fill-rule="evenodd" clip-rule="evenodd" d="M59.7668 115.14L46.818 122.616V153.023L59.7668 160.499L72.7153 153.023V122.616L59.7668 115.14Z" stroke="#262725" stroke-width="2" stroke-linecap="round" stroke-linejoin="round"/>
<path fill-rule="evenodd" clip-rule="evenodd" d="M72.7168 122.615L59.7684 130.091V160.498L72.7168 153.022V122.615Z" fill="white"/>
<path fill-rule="evenodd" clip-rule="evenodd" d="M72.7168 122.615L59.7684 130.091V160.498L72.7168 153.022V122.615Z" stroke="#262725" stroke-width="2" stroke-linecap="round" stroke-linejoin="round"/>
<path fill-rule="evenodd" clip-rule="evenodd" d="M59.7668 115.14L46.818 122.616L59.7668 130.092L72.7153 122.616L59.7668 115.14Z" fill="white"/>
<path fill-rule="evenodd" clip-rule="evenodd" d="M59.7668 115.14L46.818 122.616L59.7668 130.092L72.7153 122.616L59.7668 115.14Z" stroke="#262725" stroke-width="2" stroke-linecap="round" stroke-linejoin="round"/>
<path fill-rule="evenodd" clip-rule="evenodd" d="M84.332 100.958L71.3835 108.434V160.104L84.332 167.58L97.2808 160.104V108.434L84.332 100.958Z" fill="#8FFC22"/>
<path fill-rule="evenodd" clip-rule="evenodd" d="M84.332 100.958L71.3835 108.434V160.104L84.332 167.58L97.2808 160.104V108.434L84.332 100.958Z" stroke="#262725" stroke-width="2" stroke-linecap="round" stroke-linejoin="round"/>
<path fill-rule="evenodd" clip-rule="evenodd" d="M97.277 108.435L84.3281 115.911V167.581L97.277 160.105V108.435Z" fill="white"/>
<path fill-rule="evenodd" clip-rule="evenodd" d="M97.277 108.435L84.3281 115.911V167.581L97.277 160.105V108.435Z" stroke="#262725" stroke-width="2" stroke-linecap="round" stroke-linejoin="round"/>
<path fill-rule="evenodd" clip-rule="evenodd" d="M84.332 100.958L71.3835 108.434L84.332 115.91L97.2808 108.434L84.332 100.958Z" fill="white"/>
<path fill-rule="evenodd" clip-rule="evenodd" d="M84.332 100.958L71.3835 108.434L84.332 115.91L97.2808 108.434L84.332 100.958Z" stroke="#262725" stroke-width="2" stroke-linecap="round" stroke-linejoin="round"/>
<path fill-rule="evenodd" clip-rule="evenodd" d="M86.6175 44.782C91.1161 42.185 98.4207 42.185 102.919 44.782C107.418 47.3794 107.418 51.5967 102.919 54.194C98.4207 56.791 91.1161 56.791 86.6175 54.194C82.1189 51.5967 82.1189 47.3794 86.6175 44.782Z" fill="#262725"/>
<path fill-rule="evenodd" clip-rule="evenodd" d="M94.764 1.44952C103.761 1.44952 111.066 8.75408 111.066 17.7509C111.066 26.7482 103.761 34.0528 94.764 34.0528C85.7668 34.0528 78.4622 26.7482 78.4622 17.7509C78.4622 8.75408 85.7668 1.44952 94.764 1.44952Z" fill="#8FFC22"/>
<path fill-rule="evenodd" clip-rule="evenodd" d="M94.764 1.44952C103.761 1.44952 111.066 8.75408 111.066 17.7509C111.066 26.7482 103.761 34.0528 94.764 34.0528C85.7668 34.0528 78.4622 26.7482 78.4622 17.7509C78.4622 8.75408 85.7668 1.44952 94.764 1.44952Z" stroke="#262725" stroke-width="2" stroke-linecap="round" stroke-linejoin="round"/>
</svg>
