<svg width="523" height="524" viewBox="0 0 523 524" fill="none" xmlns="http://www.w3.org/2000/svg">
<g clip-path="url(#clip0_33800_5679)">
<path d="M232.451 380.334C235.46 378.15 238.624 376.188 241.919 374.465L242.801 375.892C242.903 376.061 243.062 376.188 243.249 376.25C243.436 376.311 243.639 376.303 243.821 376.227L257.195 370.518C258.436 360.702 261.539 345.469 261.58 345.237C260.508 341.981 259.792 339.189 258.862 336.044C251.809 341.33 238.803 351.249 232.197 357.082C232.057 357.245 231.971 357.448 231.952 357.662C231.933 357.876 231.981 358.091 232.09 358.276C232.09 358.276 232.38 358.738 232.776 359.411C229.026 360.519 217.635 363.295 215.691 366.655C215.444 367.364 215.448 368.137 215.702 368.844C216.363 371.674 224.145 392.875 228.241 398.57C230.373 401.557 232.685 400.478 233.397 396.804C233.892 391.441 233.629 386.035 232.617 380.745C232.539 380.483 232.485 380.521 232.451 380.334ZM224.797 362.975C227.197 362.046 227.975 361.86 233.21 360.137C235.219 363.446 239.356 370.246 241.479 373.718C238.085 375.321 234.815 377.175 231.696 379.264C228.981 374.02 226.675 368.574 224.797 362.975Z" fill="#262725"/>
<path d="M360.505 130.973C360.801 130.119 359.887 129.402 359.134 128.857C360.207 126.816 361.5 124.897 362.989 123.136C365.649 120.659 367.896 117.774 369.648 114.59C370.36 113.217 371.646 110.447 370.539 109.371C369.431 108.296 368.117 108.597 366.584 109.861C367.108 108.839 367.456 107.735 367.614 106.597C367.713 104.857 366.007 103.981 363.47 106.003C364.023 104.019 363.747 102.194 361.722 101.872C360.088 101.609 358.474 103.862 357.58 105.289C355.819 108.066 354.25 110.962 352.886 113.955C350.829 111.669 347.907 109.201 345.673 110.914C343.439 112.627 346.676 116.383 348.664 118.361L345.023 122.879C344.221 122.71 343.388 122.767 342.616 123.043C337.677 125.468 319.163 150.717 316.744 151.432C314.889 151.981 284.642 147.112 260.654 150.215C260.569 150.091 260.451 149.993 260.313 149.933C260.175 149.873 260.023 149.853 259.874 149.876C255.678 150.375 251.538 151.269 247.509 152.545C247.389 152.59 247.28 152.66 247.189 152.751C247.099 152.842 247.029 152.952 246.986 153.073L245.292 153.574C244.406 152.06 241.799 148.731 240.846 147.434C241.865 145.839 243.582 144.674 244.003 142.467C244.768 138.382 242.864 132.236 241.191 128.434C242.957 126.026 242.195 123.226 240.83 120.539C240.288 119.449 238.894 117.033 237.736 116.674C237.084 116.472 236.042 117.175 235.162 117.83C233.494 115.823 233.804 116.872 233.933 115.825C233.994 115.342 233.968 114.853 233.857 114.379C235.02 114.386 236.606 111.593 235.006 108.997C234.305 108.105 233.525 107.279 232.675 106.529C232.755 105.76 233.115 104.754 230.475 102.795C229.399 102.156 228.156 101.851 226.906 101.921L225.979 102.195C225.023 101.421 223.83 101 222.6 101.001C220.764 101.071 219.029 101.86 217.769 103.197C217.455 103.619 217.252 104.118 216.932 104.519C215.857 104.235 214.724 104.252 213.658 104.567C212.591 104.882 211.632 105.484 210.884 106.307C210.412 106.675 210.019 107.133 209.729 107.656C209.439 108.179 209.258 108.755 209.196 109.35C208.107 109.301 207.021 109.48 206.005 109.874C204.989 110.269 204.067 110.871 203.297 111.642C200.372 114.56 198.707 118.508 198.656 122.639C198.792 123.219 198.961 123.791 199.163 124.352L198.941 124.418C195.785 124.869 194.057 133.185 198.793 137.857C199.352 138.415 200.001 138.903 200.659 139.498C202.546 141.132 202.22 141.886 205.831 143.493C206.892 143.969 207.015 143.866 207.671 144.155C208.326 144.444 208.059 144.281 208.695 145.321C209.056 145.937 209.537 146.476 210.108 146.905C210.679 147.335 211.329 147.647 212.022 147.823C212.819 149.732 214.207 151.335 215.983 152.396C216.549 152.746 217.166 153.008 217.812 153.17C217.985 153.21 218.165 153.21 218.338 153.169C220.051 156.74 222.24 161.398 223.177 163.379L221.668 164.878C219.6 166.516 217.642 168.289 215.806 170.185C215.668 170.355 215.599 170.571 215.612 170.79C213.809 172.551 212.108 174.216 211.162 175.241C197.962 189.47 171.008 265.513 171.391 268.512C171.388 268.692 171.44 268.868 171.54 269.017C172.499 269.863 173.572 270.572 174.728 271.121C174.598 271.718 174.402 272.298 174.143 272.851C170.892 276.684 166.006 282.404 163.797 286.872C163.629 287.142 163.535 287.451 163.523 287.769C163.512 288.087 163.583 288.402 163.731 288.684C163.878 288.966 164.097 289.204 164.365 289.376C164.632 289.548 164.94 289.646 165.258 289.663C165.922 289.685 166.005 289.595 169.299 286.275C168.499 287.543 167.955 288.955 167.7 290.431C167.765 291.618 168.964 291.965 170.175 291.388C170.834 290.989 171.426 290.488 171.928 289.905C171.731 290.574 171.731 291.285 171.929 291.954C172.127 292.623 172.514 293.221 173.043 293.675C175.81 295.619 178.726 286.053 180.924 283.255C182.476 284.352 184.998 287.246 187.175 285.638C189.06 284.225 185.364 280.254 185.166 278.843C185.754 277.813 186.415 276.826 187.144 275.891C189.04 276.584 191.06 276.876 193.075 276.746C196.401 275.762 220.758 230.457 222.57 226.874C224.258 236.065 230.788 275.724 233.996 282.865C235.455 286.095 243.683 284.188 247.143 283.362C253.269 307.859 263.421 344.715 263.353 345.152C261.414 358.243 260.892 361.818 260.129 365.836C258.711 373.052 251.781 400.181 251.778 405.882C251.801 406.775 251.876 407.103 253.196 408.379C251.406 411.879 249.853 415.495 248.548 419.203C248.035 421.546 258.349 438.93 263.683 444.587C264.89 445.853 266.82 447.781 268.475 447.226C273.462 445.554 268.089 427.456 266.451 422.437C266.404 422.281 266.302 422.148 266.165 422.061C266.675 420.428 267.285 418.827 267.992 417.268C268.763 417.52 269.553 417.711 270.354 417.841C271.129 417.941 271.74 417.19 272.167 416.56C277.319 409.292 300.187 353.465 301.654 329.88C302.309 319.12 303.036 304.303 301.553 294.394C300.588 288.137 298.86 282.021 296.41 276.183C296.384 276.098 296.394 276.006 296.437 275.927C296.479 275.849 296.551 275.791 296.637 275.765C296.723 275.74 296.815 275.75 296.893 275.792C296.971 275.835 297.03 275.907 297.055 275.993C299.859 281.763 301.882 287.882 303.07 294.186C305.483 307.833 303.197 338.435 300.625 350.201C305.161 347.895 314.347 343.074 318.647 340.268C332.96 330.84 343.261 312.294 339.798 295.911C337.979 288.248 335.744 280.69 333.104 273.27C329.889 262.899 325.473 252.94 319.945 243.596C323.533 240.013 326.64 236.135 327.171 233.26C328.313 227.112 312.024 198.495 307.9 190.331C316.789 188.733 331.953 186.113 337.208 178.749C343.171 170.146 354.832 147.449 360.505 130.973ZM265.035 421.65C260.756 420.526 254.131 416.806 252.155 412.94C252.672 411.647 253.252 410.423 253.737 409.096C257.702 412.458 262.199 415.136 267.043 417.023C266.282 418.524 265.612 420.069 265.035 421.65ZM349.738 118.657C349.823 118.559 349.867 118.433 349.861 118.305C349.856 118.176 349.801 118.054 349.709 117.964C348.616 116.862 345.134 112.871 346.45 111.912C347.202 111.339 348.103 111.643 348.936 112.163C350.249 113.092 351.395 114.235 352.326 115.546C352.399 115.653 352.499 115.739 352.616 115.794C352.734 115.849 352.864 115.871 352.993 115.858C353.122 115.844 353.244 115.796 353.348 115.718C353.452 115.64 353.532 115.536 353.581 115.416C354.936 112.582 358.145 106.086 360.401 103.928C362.107 102.284 363.163 104.076 359.559 110.053C358.68 111.253 357.863 112.498 357.11 113.781C357.076 113.877 357.073 113.981 357.102 114.079C357.131 114.177 357.19 114.263 357.271 114.325C357.426 114.849 358.022 115.309 358.587 114.55C359.884 112.493 361.316 110.524 362.873 108.656C363.655 107.66 364.675 106.876 365.838 106.376C365.782 108.41 361.647 115.114 361.33 115.821C361.218 116.004 361.181 116.224 361.229 116.433C361.277 116.643 361.405 116.825 361.586 116.941C361.767 117.057 361.986 117.098 362.196 117.054C362.406 117.01 362.591 116.885 362.71 116.707C364.519 114.593 367.429 110.05 368.929 110.154C370.428 110.259 367.525 115.195 366.779 116.38C362.478 123.111 363.016 119.444 358.337 128.238C354.48 125.908 350.316 124.128 345.966 122.951L349.738 118.657ZM290.651 240.989C289.486 238.308 288.174 235.429 286.726 232.459L287.253 231.053C289.753 224.68 288.525 216.076 286.228 209.718C291.181 218.535 295.643 227.323 299.684 236.169L290.651 240.989ZM240.26 180.822C233.766 178.357 223.181 173.923 216.815 170.632L223.687 164.215C233.137 168.942 241.835 175.044 249.496 182.322C261.449 194.262 271.699 207.794 279.955 222.535L239.181 190.37L240.63 181.48C240.645 181.345 240.617 181.209 240.55 181.092C240.484 180.974 240.383 180.879 240.26 180.822ZM247.129 153.929C247.316 154.115 249.583 156.668 253.232 161.223C253.298 161.445 254.405 166.598 254.748 168.426C251.873 168.167 249.046 167.529 246.338 166.528C246.263 164.643 245.904 156.089 245.515 154.253L247.129 153.929ZM246.374 177.698C246.408 177.294 246.406 176.768 246.401 176.156L247.96 176.462C248.875 176.74 248.12 175.297 250.117 179.53C250.337 180.276 250.783 181.043 251.092 181.938C249.67 180.539 247.99 179.084 246.395 177.692L246.374 177.698ZM244.745 176.339C239.338 172.062 233.521 168.333 227.378 165.206L244.509 167.31C244.335 168.874 244.746 173.378 244.765 176.333L244.745 176.339ZM263.742 183.569C260.098 178.661 256.728 172.971 255.485 171.585C255.381 171.068 255.232 170.562 255.038 170.072C255.361 170.095 255.687 170.072 256.004 170.006C256.2 169.951 256.368 169.827 256.479 169.657C256.59 169.487 256.636 169.283 256.608 169.082C256.573 168.369 255.839 164.925 255.659 164.167C265.902 177.24 275.285 190.965 283.747 205.256C265.19 184.39 269.019 190.888 263.762 183.563L263.742 183.569ZM291.795 217.126C280.683 196.449 264.473 171.36 249.259 153.716C252.635 152.72 256.086 151.993 259.578 151.542C265.822 166.358 264.235 166.257 265.563 166.522C266.891 166.787 274.629 167.524 275.783 167.644C276.141 169.226 290.719 213.191 291.815 217.12L291.795 217.126ZM237.311 118.203C239.04 120.186 240.164 122.623 240.549 125.225C240.573 125.91 240.407 126.587 240.068 127.183C239.73 127.778 239.233 128.268 238.633 128.597C238.033 128.927 237.353 129.084 236.669 129.05C235.985 129.016 235.324 128.793 234.759 128.406C233.198 126.664 231.844 124.747 230.724 122.693C231.06 121.827 236.449 118.699 237.311 118.203ZM215.531 146.566C214.695 146.449 213.854 146.376 213.01 146.347C212.432 146.288 211.876 146.097 211.383 145.789C210.89 145.481 210.475 145.064 210.168 144.571C209.861 144.077 209.671 143.52 209.613 142.942C209.555 142.364 209.63 141.78 209.833 141.236C210.787 139.792 211.954 139.512 213.473 140.795C214.502 141.828 214.512 141.935 214.85 141.966C214.948 141.979 215.048 141.97 215.142 141.941C215.237 141.912 215.324 141.863 215.398 141.798C215.472 141.732 215.531 141.652 215.572 141.562C215.612 141.471 215.633 141.374 215.632 141.275C215.558 139.924 215.219 138.602 214.635 137.382C213.982 136.063 212.117 129.905 212.098 129.692C212.778 129.828 213.483 129.779 214.138 129.549C217.746 128.329 217.917 126.239 218.916 124.278C220.637 123.944 221.218 124.649 222.827 123.121C223.565 122.354 224.194 121.489 224.698 120.551C225.347 120.617 225.991 120.735 226.621 120.903C228.002 121.127 229.417 120.902 230.66 120.263C231.903 119.623 232.909 118.601 233.529 117.348C233.876 117.706 234.202 118.07 234.515 118.46C232.832 119.582 231.348 120.977 230.123 122.586C229.905 123.111 231.089 125.26 231.371 125.769C229.745 126.481 228.266 127.491 227.011 128.746C226.399 127.787 225.155 126.028 223.946 125.794C223.602 125.791 223.265 125.89 222.978 126.08C221.247 126.899 215.313 130.78 214.843 132.081C214.378 133.03 218.039 138.217 218.924 138.986C222.303 141.889 228.788 138.832 228.818 134.263C228.716 132.763 228.285 131.303 227.554 129.989C228.139 129.816 229.708 128.672 229.892 128.552C232.207 131.266 232.664 131.328 235.272 134.218C235.104 134.465 234.83 134.875 234.588 135.166C233.436 136.537 233.086 136.465 233.286 136.844C233.333 136.917 233.405 136.971 233.489 136.994C233.573 137.018 233.662 137.01 233.741 136.973C234.551 136.602 235.31 136.127 235.998 135.56C236.417 135.245 236.703 134.785 236.8 134.27C236.989 132.833 232.451 128.979 230.798 127.911C231.04 127.84 231.486 127.27 231.843 126.923C233.076 129.014 233.983 130.675 236.423 130.918C237.122 130.97 237.825 130.879 238.489 130.653C239.153 130.427 239.764 130.068 240.286 129.6C241.658 133.053 243.303 138.837 242.539 142.483C242.155 144.372 240.203 145.629 239.231 147.385C238.941 147.888 239.364 148.355 239.678 148.897C243.758 154.466 243.793 154.433 243.91 155.276C244.306 158.798 244.454 162.344 244.351 165.888C243.782 165.815 237.228 164.486 224.864 163.45C223.847 161.274 218.418 149.659 217.172 147.594C216.98 146.796 216.825 146.644 215.501 146.466L215.531 146.566ZM227.211 134.168C227.216 136.556 224.452 138.404 222.095 138.443C219.739 138.482 219.27 137.415 217.467 135.098C216.689 134.239 216.041 133.271 215.543 132.225C215.994 131.302 222.831 127.658 223.697 127.249C225.613 129.049 226.844 131.459 227.181 134.067L227.211 134.168ZM184.112 278.541C183.567 279.514 185.316 281.649 186.104 283.718C186.157 283.9 186.39 284.686 186.287 284.782C185.285 285.473 183.762 284.104 182.839 283.28C181.916 282.457 180.886 281.271 180.005 281.926C178.269 283.47 175.428 291.062 173.784 292.25C172.332 290.75 176.138 284.122 176.236 283.786C176.275 283.633 176.272 283.473 176.227 283.322C176.182 283.171 176.096 283.035 175.979 282.93C175.861 282.824 175.718 282.753 175.563 282.723C175.408 282.694 175.248 282.707 175.1 282.762C174.737 282.87 174.591 283.264 174.175 283.935C172.954 286.118 171.403 288.1 169.577 289.811C170.861 287.006 172.319 284.283 173.941 281.658C174.017 281.514 174.052 281.352 174.043 281.189C174.043 281.189 173.304 280.246 172.603 280.914C171.624 281.905 166.91 286.872 165.366 288.249C165.077 288.16 165.146 287.876 165.175 287.604C166.987 283.276 171.985 277.194 175.023 273.38C175.335 272.784 175.553 272.143 175.667 271.48C179.049 273.164 182.551 274.598 186.143 275.77C185.402 276.645 184.723 277.571 184.112 278.541ZM236.446 282.996C235.919 282.844 235.519 282.678 235.351 282.333C231.81 274.435 224.197 225.998 223.554 224.194C223.522 224.086 223.469 223.986 223.398 223.899C223.327 223.812 223.239 223.74 223.14 223.688C223.04 223.636 222.932 223.604 222.82 223.594C222.708 223.584 222.595 223.597 222.489 223.632C221.46 223.936 223.275 223.399 204.862 255.59C203.64 257.684 194.357 273.89 192.444 275.354C189.415 276.009 175.637 270.414 172.993 268.148C174.403 260.014 199.679 189.05 211.756 175.767C212.682 174.747 214.302 173.107 216.085 171.352C217.021 171.826 217.996 172.22 218.998 172.529C224.987 175.582 233.132 179.18 239.3 181.873L237.708 190.653C237.68 190.771 237.683 190.895 237.718 191.012C237.752 191.128 237.817 191.234 237.905 191.318C282.439 226.93 281.826 226.563 282.027 226.504C287.097 236.277 291.448 246.406 295.045 256.812C295.885 259.655 295.814 259.413 295.875 259.175C295.937 258.938 295.917 259.316 295.917 259.316C292.612 266.081 245.792 285.318 236.446 282.996ZM328.146 183.248C319.389 187.219 308.506 188.376 306.486 188.886C303.788 183.839 300.074 179.406 295.577 175.866C295.51 175.815 295.425 175.791 295.341 175.8C295.257 175.809 295.179 175.849 295.123 175.912C295.067 175.976 295.037 176.058 295.039 176.143C295.041 176.228 295.075 176.309 295.134 176.369C297.007 178.403 303.953 187.508 305.66 189.722C305.643 190.779 326.57 226.926 325.458 232.955C324.48 238.396 312.394 248.459 307.901 251.651C303.594 240.72 298.678 230.038 293.178 219.655C292.147 213.646 281.054 179.393 277.019 166.708C276.967 166.562 276.875 166.434 276.754 166.338C276.632 166.242 276.486 166.182 276.332 166.166L266.153 165.032C264.696 160.253 262.978 155.557 261.008 150.966C284.765 148.194 314.916 153.332 317.12 152.703C320.305 151.761 338.609 126.617 343.293 124.443C345.37 123.456 357.139 128.856 358.895 130.792C353.285 146.964 341.677 169.47 335.689 177.839C333.678 180.257 331.081 182.119 328.146 183.248Z" fill="#262725"/>
<path d="M223.942 130.75C223.879 130.623 223.792 130.509 223.684 130.416C223.577 130.324 223.453 130.253 223.318 130.209C223.183 130.164 223.041 130.147 222.899 130.158C222.758 130.17 222.62 130.209 222.494 130.274C222.368 130.339 222.256 130.428 222.165 130.537C222.073 130.645 222.005 130.771 221.962 130.906C221.92 131.042 221.905 131.184 221.918 131.325C221.932 131.467 221.973 131.604 222.04 131.729C223.039 133.626 223.257 134.066 224.144 133.803C224.312 133.754 224.465 133.664 224.589 133.541C224.713 133.418 224.805 133.266 224.855 133.099C224.906 132.931 224.914 132.754 224.879 132.583C224.844 132.411 224.766 132.252 224.654 132.118C224.498 131.813 224.036 130.919 223.942 130.75ZM234.058 142.272C235.482 142.268 236.547 141.273 236.411 140.962C236.276 140.652 236.364 140.801 234.393 140.66C233.072 140.569 231.297 139.384 230.904 139.763C230.512 140.142 231.599 141.223 231.832 141.418C232.457 141.944 233.241 142.245 234.058 142.272ZM265.269 112.216C265.901 124.065 266.743 134.033 266.975 136.003C267.002 136.882 267.213 137.746 267.594 138.539C269.336 140.501 284.475 140.914 285.967 139.508C287.459 138.102 288.981 126.493 291.154 114.341C294.433 113.484 297.613 112.286 300.642 110.768C303.828 109.154 306.8 107.148 309.488 104.798C315.373 99.6377 318.85 83.9644 317.855 76.8923C316.437 69.3141 312.689 62.3674 307.134 57.0205C281.546 32.6876 236.597 63.1443 250.263 94.5323C253.618 101.647 258.796 107.748 265.269 112.216ZM284.667 132.591C284.763 132.914 284.388 132.981 282.651 133.188C279.144 133.763 275.561 133.685 272.082 132.958C270.444 132.61 270.014 132.562 270.053 132.177C270.093 131.793 270.431 131.824 272.788 131.785C272.989 131.726 279.835 131.894 281.814 131.988C284.443 132.351 284.584 132.309 284.667 132.591ZM274.606 99.8968C276.792 99.3719 278.806 98.2932 280.454 96.7645C282.506 97.1034 284.604 97.0557 286.639 96.6239C285.117 103.936 282.046 118.831 281.855 126.342L272.609 126.511C273.159 120.955 274.181 108.025 274.565 99.9087L274.606 99.8968ZM273.405 98.4321C271.833 98.6497 270.233 98.3456 268.85 97.5664C267.467 96.7873 266.378 95.576 265.75 94.1185C263.993 90.2532 265.238 84.9741 269.445 84.8921C272.082 84.8361 272.956 86.6822 273.254 89.2468C273.416 91.1283 273.423 95.9714 273.341 98.3634L273.405 98.4321ZM277.458 91.972C277.284 90.5891 277.406 89.1848 277.819 87.8533C277.992 87.1427 278.362 86.495 278.885 85.9837C279.408 85.4725 280.064 85.1182 280.779 84.9612C282.402 84.9636 283.881 87.5954 283.176 89.7332C282.458 91.6512 281.379 93.4139 279.998 94.9261C279.319 94.7577 278.708 94.3855 278.247 93.8595C277.786 93.3335 277.496 92.679 277.418 91.9839L277.458 91.972ZM251.354 71.8257C257.173 58.2883 272.893 48.9485 286.494 49.7938C293.841 50.1112 300.822 53.0882 306.137 58.1704C311.422 63.2585 314.992 69.865 316.352 77.0736C317.279 83.6179 313.993 98.7522 308.575 103.489C303.616 107.799 297.736 110.917 291.386 112.606C290.701 112.808 289.975 113.023 289.856 113.584C289.382 116.355 288.587 121.676 287.75 126.703C286.063 126.427 284.357 126.286 282.649 126.283C283.008 118.898 286.5 103.571 288.125 96.1626C291.241 95.5243 294.14 94.0931 296.542 92.0074C297.176 91.3908 297.62 90.6064 297.823 89.7462C298.026 88.886 297.98 87.9857 297.689 87.151C297.399 86.3162 296.876 85.5817 296.183 85.0335C295.489 84.4854 294.654 84.1464 293.775 84.0563C290.197 83.448 288.479 87.9459 287.758 91.5134C287.553 92.451 287.329 93.5476 287.081 94.7831C285.418 95.1581 283.712 95.3011 282.011 95.208C283.225 93.6771 284.199 91.9697 284.898 90.1448C285.252 88.9921 285.238 87.7582 284.861 86.6133C284.483 85.4684 283.759 84.4689 282.789 83.7529C282.053 83.2788 281.17 83.0893 280.304 83.2201C279.439 83.3509 278.651 83.7929 278.088 84.4632C276.933 85.7483 276.173 87.3395 275.9 89.0459C275.626 90.7522 275.851 92.5012 276.548 94.0828C277.041 94.9458 277.789 95.6358 278.689 96.0587C277.528 96.9974 276.19 97.6915 274.754 98.0991C274.857 95.4817 274.897 90.7999 274.722 88.9445C274.641 87.881 274.384 86.8382 273.963 85.8585C273.549 85.0328 272.905 84.3442 272.109 83.8755C271.313 83.4069 270.399 83.1781 269.476 83.2168C264.166 83.2743 262.161 89.7646 264.363 94.6164C265.098 96.3709 266.379 97.8418 268.016 98.8109C269.653 99.7801 271.559 100.196 273.451 99.9969C273.017 108.018 272.448 120.924 271.91 126.52L267.135 126.682C265.757 111.568 266.201 111.809 265.744 111.747C259.437 107.261 254.447 101.165 251.295 94.0954C249.741 90.5873 248.943 86.7912 248.953 82.9543C248.963 79.1174 249.781 75.3256 251.354 71.8257ZM288.488 94.4987C289.142 91.5209 290.307 85.0816 293.454 85.6418C294.068 85.7006 294.654 85.9259 295.149 86.2934C295.644 86.6609 296.029 87.1567 296.263 87.7271C297.272 91.2874 291.933 93.5457 288.407 94.5225L288.488 94.4987ZM368.293 80.5701C370.3 78.4228 373.025 77.0866 375.952 76.8146C379.005 75.9708 382.266 76.3274 385.065 77.8112C387.864 79.295 389.99 81.7935 391.005 84.7944C388.865 84.2746 386.612 84.5074 384.623 85.4537C379.694 87.3935 373.892 92.0907 376.221 96.7074C378.139 100.525 383.301 98.4069 387.011 96.1259C390.722 93.845 393.343 90.9214 393.019 86.7859C398.973 88.9058 401.97 94.8159 403.978 100.865C404.004 100.951 404.062 101.023 404.14 101.065C404.219 101.108 404.311 101.118 404.396 101.092C404.482 101.067 404.554 101.009 404.596 100.93C404.639 100.852 404.649 100.76 404.623 100.674C402.744 93.798 399.535 87.4682 392.8 85.2284C392.34 83.461 391.526 81.8053 390.407 80.3617C389.288 78.918 387.888 77.7164 386.292 76.8295C384.695 75.9427 382.935 75.3891 381.119 75.2022C379.302 75.0153 377.466 75.1991 375.723 75.7424C372.803 76.1613 370.122 77.5899 368.147 79.7801C367.508 80.3636 368.012 80.8066 368.293 80.5701ZM390.954 89.5889C389.558 93.2463 383.565 96.7063 380.433 97.0846C379.27 97.231 378.226 97.0355 377.644 95.9579C375.726 92.1403 382.032 87.8861 386.143 86.517C387.796 85.8873 389.611 85.8208 391.305 86.328C391.464 87.4272 391.343 88.5488 390.954 89.5889ZM352.09 59.7321C353.461 56.433 350.638 52.2251 344.604 53.9874C342.265 54.6789 341.84 57.3917 342.675 59.6222C344.641 64.9382 350.702 62.9707 352.09 59.7321ZM344.056 59.1041C343.663 57.7735 343.775 55.8549 345.172 55.4637C348.418 54.5039 350.357 55.5749 350.852 57.2483C351.898 61.0825 345.547 65.109 344.056 59.1041ZM410.812 287.914C390.998 286.078 392.901 322.763 387.128 356.479C387.403 357.743 387.811 358.974 388.346 360.152C389.258 363.237 395.64 383.559 398.12 385.347C398.878 386.131 400.64 384.602 401.414 383.737C407.989 376.375 413.889 368.438 419.044 360.02C419.084 359.934 419.105 359.841 419.107 359.746C419.11 359.651 419.092 359.557 419.056 359.469C421.227 353.017 427.052 321.04 426.334 306.081C425.792 295.499 421.258 288.838 410.812 287.914ZM424.713 311.647C414.866 313.236 404.808 312.953 395.066 310.81C397.143 300.484 399.959 288.58 410.709 289.567C422.672 290.656 425.055 299.531 424.695 311.586L424.713 311.647ZM406.665 373.985C405.892 373.649 405.084 373.403 404.255 373.25C401.121 372.671 397.884 373.299 395.194 375.009C394.283 372.669 388.52 357.404 388.478 357.263C405.212 358.322 399.846 357.3 417.005 360.316C415.874 362.273 411.188 368.153 406.653 373.945L406.665 373.985ZM399.816 312.563C402.1 313.056 404.407 313.435 406.729 313.698C404.254 322.323 402.414 331.118 401.223 340.012C399.929 348.09 400.038 348.014 398.873 356.755C396.666 356.706 394.472 356.697 392.277 356.688C393.172 351.71 399.285 315.438 399.804 312.523L399.816 312.563ZM399.719 356.724C402.796 343.033 405.148 326.443 407.613 313.722C409.879 313.972 412.098 314.062 414.293 314.07C413.82 316.402 412.281 322.689 411.913 324.486C411.546 326.283 408.088 345.063 407.873 346.486C407.542 348.776 406.665 355.152 406.409 357.179C404.084 356.88 401.906 356.779 399.627 356.707L399.719 356.724ZM407.212 357.227C407.781 354.625 410.063 343.734 410.33 342.34C410.723 340.184 414.903 315.468 415.118 314.045C417.128 314.021 419.215 313.886 420.537 313.759C419.828 324.93 414.943 347.487 413.944 358.196C409.974 357.594 409.068 357.423 407.12 357.21L407.212 357.227ZM395.018 311.461L399.222 312.41C395.612 326.945 393.095 341.73 391.693 356.642L388.394 356.608C392.728 328.186 392.307 324.759 394.925 311.444L395.018 311.461ZM418.072 358.883L414.598 358.331C415.977 350.908 421.365 331.316 421.264 313.697C422.452 313.565 423.615 313.419 424.725 313.244C423.632 328.6 421.377 343.851 417.979 358.866L418.072 358.883ZM358.776 390.644C359.383 389.741 359.691 388.67 359.657 387.583C359.623 386.496 359.248 385.447 358.585 384.584C357.998 383.23 356.969 382.116 355.665 381.425C354.361 380.734 352.86 380.508 351.41 380.783C349.961 381.059 348.648 381.82 347.688 382.941C346.729 384.062 346.179 385.476 346.131 386.951C343.055 386.041 339.728 385.095 336.546 384.194C337.769 380.917 344.048 380.354 345.303 382.372C345.343 382.452 345.413 382.512 345.497 382.541C345.581 382.569 345.672 382.564 345.753 382.526C345.833 382.488 345.895 382.42 345.926 382.337C345.957 382.254 345.954 382.162 345.918 382.081C344.579 378.662 336.672 378.764 334.951 383.767C331.879 382.943 328.081 381.962 324.944 381.289C326.667 378.587 332.182 378.184 333.366 380.114C333.414 380.178 333.483 380.223 333.561 380.241C333.639 380.258 333.72 380.248 333.791 380.211C333.862 380.174 333.917 380.114 333.947 380.04C333.977 379.966 333.98 379.884 333.956 379.808C332.728 376.62 325.324 376.419 323.321 380.914C321.824 380.574 320.298 380.379 318.764 380.332C318.477 380.301 318.188 380.355 317.931 380.485C317.674 380.616 317.46 380.818 317.315 381.067C314.092 388.926 301.771 410.503 294.394 414.767C294.203 414.856 294.039 414.994 293.919 415.166C293.798 415.339 293.725 415.54 293.707 415.75C293.689 415.96 293.727 416.171 293.816 416.362C293.906 416.552 294.044 416.716 294.217 416.836C296.484 418.091 298.926 419.002 301.461 419.539C300.041 422.151 299.005 424.431 298.224 426.087C297.81 426.911 301.135 439.345 302.464 441.912C302.621 442.155 302.861 442.334 303.139 442.414C306.192 443.397 343.098 447.875 345.884 444.99C347.747 443.058 366.239 407.357 366.412 406.385C366.664 404.864 363.819 396.059 362.73 392.522C362.253 391.501 359.917 390.942 358.776 390.644ZM302.136 436.353L300.806 431.857C310.366 433.415 331.951 435.977 339.888 436.13C341.922 436.186 342.059 436.058 342.872 435.248C347.367 430.06 360.422 402.215 363.015 397.787L364.273 402.041C356.611 416.168 343.775 440.747 343.11 439.759C341.078 440.228 304.108 436.646 302.136 436.353ZM356.263 383.999C357.349 385.006 358.15 386.281 358.585 387.697C358.711 388.151 358.732 388.628 358.644 389.091C358.557 389.554 358.364 389.991 358.081 390.367C356.053 389.739 352.228 388.59 347.71 387.251C348.577 382.544 353.176 381.119 356.183 384.023L356.263 383.999ZM295.563 415.978C303.401 410.898 315.061 390.35 318.53 381.914C319.959 381.891 321.385 382.036 322.779 382.345C321.872 386.692 325.245 390.167 325.839 389.355C326.167 388.908 325.365 389.013 324.66 387.073C324.181 385.645 324.085 384.117 324.379 382.64C327.591 383.269 331.417 384.198 334.65 384.974C334.071 389.245 337.21 392.373 337.755 391.62C338.3 390.867 337.307 391.292 336.602 389.352C336.17 388.071 336.037 386.708 336.213 385.367C339.551 386.2 342.967 387.075 346.111 387.921C345.998 389.047 346.157 390.184 346.574 391.235C346.992 392.287 347.656 393.223 348.511 393.964C348.548 393.991 348.589 394.01 348.633 394.02C348.677 394.031 348.723 394.033 348.768 394.026C348.813 394.018 348.855 394.003 348.894 393.979C348.933 393.955 348.966 393.924 348.993 393.888C349.019 393.851 349.039 393.809 349.049 393.765C349.06 393.721 349.061 393.676 349.054 393.631C349.047 393.586 349.031 393.543 349.008 393.505C348.984 393.466 348.953 393.433 348.916 393.406C348.317 392.712 347.88 391.893 347.638 391.009C347.395 390.125 347.353 389.198 347.515 388.296C353.059 389.769 357.558 391.048 358.96 391.488C358.798 391.756 343.302 416.683 337.79 424.363C332.729 424.522 304.454 419.575 295.563 415.978ZM299.65 426.981C309.975 428.313 333.487 431.533 338.533 431.028C339.407 430.945 339.748 430.91 340.951 429.195C346.073 421.827 361.153 392.528 361.426 392.71C361.454 392.768 361.472 392.829 361.48 392.892L362.672 396.924C359.243 401.862 342.005 435.504 341.232 434.373C339.216 434.969 302.502 431.29 300.608 431.038C300.318 430.204 299.831 427.892 299.65 426.981ZM344.578 443.907C342.901 445.653 308.506 442.252 303.642 440.928C303.108 439.689 302.652 438.418 302.276 437.122C312.394 438.866 341.286 442.118 343.615 441.32C347.009 440.119 363.271 405.473 364.438 403.045C364.763 404.069 364.965 405.127 365.042 406.199C364.896 406.965 345.688 442.768 344.578 443.907ZM143.94 379.649C144.719 381.764 145.374 383.609 145.893 385.363C145.972 385.631 146.154 385.856 146.399 385.989C146.644 386.122 146.932 386.152 147.199 386.073C147.466 385.994 147.691 385.812 147.824 385.567C147.958 385.322 147.988 385.034 147.909 384.767C147.355 382.892 146.705 381.067 145.914 378.911C145.817 378.649 145.619 378.437 145.365 378.321C145.11 378.205 144.82 378.195 144.559 378.293C144.297 378.39 144.084 378.588 143.968 378.842C143.852 379.097 143.842 379.387 143.94 379.649ZM439.181 248.394C439.052 248.441 438.933 248.513 438.832 248.606C438.731 248.699 438.649 248.812 438.592 248.937C438.535 249.062 438.504 249.197 438.5 249.335C438.496 249.472 438.52 249.609 438.57 249.737C439.239 251.556 439.95 253.516 440.523 255.452C440.602 255.719 440.784 255.944 441.029 256.077C441.274 256.21 441.561 256.241 441.829 256.162C442.096 256.083 442.321 255.901 442.454 255.656C442.587 255.411 442.618 255.123 442.539 254.856C441.943 252.839 441.225 250.859 440.524 249.006C440.477 248.876 440.406 248.758 440.312 248.656C440.219 248.555 440.107 248.474 439.982 248.417C439.856 248.36 439.721 248.329 439.584 248.325C439.446 248.321 439.309 248.344 439.181 248.394ZM137.234 376.172C137.501 376.093 137.726 375.911 137.859 375.666C137.993 375.421 138.023 375.134 137.944 374.866C137.865 374.599 137.683 374.374 137.438 374.241C137.193 374.108 136.905 374.077 136.638 374.156C134.198 374.878 132.216 375.661 130.188 376.217C129.918 376.296 129.691 376.478 129.555 376.724C129.418 376.969 129.383 377.258 129.458 377.529C129.537 377.796 129.719 378.021 129.964 378.154C130.209 378.288 130.496 378.318 130.764 378.239C132.852 377.665 135.107 376.911 137.234 376.172ZM431.167 244.275C428.747 244.99 426.753 245.733 424.723 246.355C424.455 246.434 424.23 246.616 424.097 246.861C423.964 247.106 423.934 247.394 424.013 247.662C424.092 247.929 424.274 248.154 424.519 248.287C424.764 248.42 425.051 248.451 425.319 248.372C427.496 247.728 429.754 247.06 431.884 246.255C432.141 246.156 432.349 245.96 432.464 245.709C432.578 245.458 432.59 245.173 432.496 244.913C432.402 244.654 432.21 244.442 431.962 244.323C431.713 244.203 431.428 244.186 431.167 244.275ZM138.227 362.33C138.897 364.149 139.608 366.109 140.18 368.045C140.264 368.309 140.447 368.53 140.69 368.663C140.934 368.795 141.219 368.828 141.486 368.755C141.754 368.675 141.979 368.493 142.112 368.248C142.245 368.004 142.275 367.716 142.196 367.448C141.6 365.432 140.883 363.452 140.202 361.593C140.104 361.331 139.906 361.119 139.652 361.002C139.398 360.887 139.108 360.876 138.846 360.974C138.584 361.072 138.372 361.27 138.256 361.524C138.14 361.778 138.13 362.068 138.227 362.33ZM436.826 237.537C436.23 235.521 435.513 233.54 434.811 231.687C434.713 231.425 434.516 231.213 434.261 231.097C434.007 230.981 433.717 230.971 433.455 231.069C433.194 231.166 432.981 231.364 432.865 231.618C432.749 231.873 432.739 232.163 432.837 232.424C433.506 234.243 434.217 236.204 434.79 238.139C434.869 238.406 435.051 238.631 435.296 238.765C435.541 238.898 435.828 238.928 436.096 238.849C436.365 238.769 436.592 238.587 436.729 238.342C436.865 238.097 436.9 237.808 436.826 237.537ZM156.713 370.128C156.844 370.084 156.964 370.014 157.068 369.923C157.172 369.832 157.257 369.721 157.318 369.597C157.379 369.473 157.415 369.338 157.424 369.2C157.433 369.062 157.415 368.924 157.37 368.793C157.272 368.536 157.08 368.324 156.832 368.202C156.585 368.08 156.3 368.057 156.036 368.136C153.626 368.958 151.614 369.64 149.566 370.202C149.298 370.281 149.073 370.463 148.94 370.708C148.807 370.953 148.777 371.241 148.856 371.508C148.935 371.776 149.117 372.001 149.362 372.134C149.607 372.267 149.894 372.297 150.162 372.218C152.331 371.621 154.565 370.872 156.713 370.128ZM450.646 238.23C448.659 238.927 446.439 239.649 444.201 240.311C444.067 240.345 443.94 240.406 443.83 240.49C443.719 240.574 443.627 240.679 443.558 240.8C443.489 240.921 443.445 241.054 443.43 241.192C443.414 241.33 443.426 241.47 443.465 241.603C443.545 241.872 443.727 242.099 443.972 242.236C444.217 242.372 444.507 242.407 444.777 242.333C447.076 241.653 448.931 241.105 451.322 240.222C451.453 240.178 451.574 240.108 451.678 240.017C451.782 239.926 451.867 239.815 451.928 239.691C451.989 239.568 452.025 239.433 452.034 239.295C452.043 239.157 452.025 239.019 451.98 238.888C451.878 238.633 451.685 238.425 451.439 238.304C451.192 238.182 450.91 238.156 450.646 238.23ZM92.7195 324.09C93.0412 324.214 147.403 298.976 149.402 296.763C149.508 296.624 149.577 296.461 149.603 296.288C149.628 296.116 149.61 295.94 149.549 295.776C148.78 293.176 138.153 269.768 134.72 264.162C134.298 263.476 133.876 262.79 133.335 262.665C129.701 261.722 78.3757 288.035 75.7497 291.092C75.6771 291.17 75.6218 291.262 75.5874 291.363C75.553 291.464 75.5403 291.571 75.55 291.677C75.5859 294.319 90.6078 323.399 92.7195 324.09ZM76.9229 291.797C80.2752 288.899 126.939 265.279 132.792 264.316C135.207 267.439 146.518 292.2 147.881 295.919C145.323 297.574 93.2889 323.198 93.0992 323.298C92.9095 323.398 92.9609 323.646 92.1619 322.501C88.814 317.703 78.1694 296.383 76.9229 291.797Z" fill="#262725"/>
<path d="M154.368 297.245C154.417 297.009 154.398 296.764 154.312 296.538C153.364 293.333 138.246 259.108 135.772 256.748C135.582 256.576 135.35 256.458 135.1 256.405C134.849 256.352 134.589 256.366 134.346 256.446C127.348 257.617 73.6631 285.592 70.6822 289.301C70.2653 289.819 70.6142 290.703 70.9608 291.653C72.8512 296.86 88.8898 330.045 90.8463 329.247C91.0681 329.182 90.9398 329.044 90.7315 330.268C89.5 337.67 89.6605 360.16 91.0154 364.297C91.534 366.051 92.6109 368.21 94.3089 367.577C106.295 362.366 164.421 334.656 180.894 325.861C181.538 325.517 181.796 324.761 181.472 323.739C180.759 322.087 179.749 320.58 178.491 319.293C174.667 315.403 159.058 300.134 154.368 297.245ZM90.7825 328.587C88.6138 327.036 72.5564 294.009 71.8613 290.027C75.6172 286.417 128.613 258.931 134.762 258.077C137.687 262.035 151.332 292.837 152.733 296.611C146.323 301.181 99.2694 323.775 90.7825 328.587ZM91.8484 328.929C93.4168 328.005 148.242 301.293 153.113 298.34C156.789 300.169 176.662 319.483 178.093 321.208C167.117 326.646 101.861 358.416 92.2129 362.935C90.5478 356.784 90.5049 333.58 91.8484 328.929Z" fill="#262725"/>
<path d="M105.611 347.595C107.287 346.814 143.181 331.334 155.55 323.709C155.626 323.663 155.681 323.588 155.703 323.502C155.725 323.415 155.711 323.323 155.665 323.247C155.619 323.17 155.545 323.115 155.458 323.093C155.372 323.072 155.28 323.085 155.204 323.131C152.723 324.457 121.776 338.277 105.386 346.982C105.335 346.987 105.286 347.004 105.243 347.032C105.2 347.059 105.163 347.096 105.136 347.139C105.11 347.182 105.093 347.231 105.088 347.282C105.083 347.333 105.089 347.384 105.107 347.432C105.124 347.48 105.153 347.523 105.189 347.559C105.226 347.594 105.271 347.621 105.319 347.636C105.368 347.652 105.419 347.656 105.47 347.649C105.52 347.642 105.569 347.623 105.611 347.595ZM91.3297 199.273C91.0795 201.196 90.9642 203.135 90.9845 205.075C91.0394 205.371 91.2037 205.635 91.4447 205.816C94.3871 208.278 122.211 225.636 128.632 227.333C129.515 227.576 130.497 227.636 130.845 226.81C133.344 220.721 137.377 215.382 142.552 211.313C146.826 208.212 151.551 205.787 156.562 204.123C160.487 202.568 161.073 201.956 161.844 198.856C162.648 194.838 164.153 190.994 166.292 187.5C169.049 183.149 172.363 179.176 176.149 175.684C176.315 175.512 176.419 175.289 176.444 175.051C176.469 174.814 176.414 174.574 176.287 174.371C175.093 172.839 173.707 171.466 172.163 170.285C172.818 169.829 173.559 169.369 173.344 168.643C172.748 166.627 147.644 146.382 141.347 143.026C140.693 142.671 139.771 142.22 139.118 142.457C129.204 146.002 122.199 158.422 118.97 168.409C112.386 170.093 108 170.754 101.505 176.072C96.9242 179.844 93.1721 184.521 90.4832 189.811C90.0632 190.615 87.238 196.185 87.2788 196.546C87.3197 196.907 87.4407 196.871 91.3297 199.273ZM171.807 174.863C163.823 178.78 160.529 187.362 158.825 196.131C158.072 200.037 158.281 200.15 156.414 200.659C153.117 201.434 149.899 202.517 146.804 203.895C144.546 204.946 142.395 206.214 140.381 207.679C135.797 211.008 131.647 218.549 129.798 223.787C129.757 223.896 129.695 223.994 129.614 224.077C129.533 224.159 129.435 224.224 129.328 224.266C129.22 224.308 129.105 224.327 128.99 224.322C128.874 224.316 128.761 224.286 128.658 224.234C120.109 219.417 105.011 210.99 97.1695 205.899C96.7978 205.68 97.1505 205.093 97.5281 205.332C102.491 208.25 115.084 215.028 128.633 222.444C130.832 216.905 134.666 209.852 139.488 206.365C142.114 204.45 144.968 202.869 147.985 201.66C150.825 200.58 153.744 199.717 156.715 199.079C157.499 197.356 158.784 180.051 171.618 174.371C171.665 174.388 171.708 174.416 171.744 174.452C171.779 174.488 171.806 174.532 171.822 174.579C171.838 174.627 171.844 174.678 171.838 174.728C171.831 174.778 171.814 174.827 171.787 174.869L171.807 174.863ZM139.58 144.096C144.447 145.727 168.041 165.168 171.436 168.79C168.075 171.062 164.953 173.667 162.116 176.567C159.376 179.13 157.242 182.273 155.871 185.766C154.499 189.259 153.923 193.014 154.186 196.757C143.467 187.123 129.534 177.146 120 169.595C120.326 169.214 126.607 148.787 139.58 144.096ZM102.276 177.05C108.758 171.911 113.034 171.392 119.2 169.854C128.3 178.388 143.471 189.731 153.448 197.151C146.38 197.541 139.711 200.552 134.745 205.597C131.773 208.668 128.849 214.794 127.055 218.591C122.266 216.631 92.8937 199.446 88.1128 196.475C91.7889 188.592 95.5007 182.386 102.252 176.97L102.276 177.05ZM80.5407 239.229C79.939 239.026 79.2915 239.003 78.6768 239.161C78.0621 239.32 77.5065 239.653 77.0776 240.121C76.7477 240.403 76.4766 240.747 76.2798 241.133C76.0829 241.52 75.964 241.942 75.9301 242.374C75.8961 242.807 75.9476 243.241 76.0818 243.654C76.2159 244.067 76.4299 244.449 76.7117 244.779C76.9935 245.108 77.3375 245.379 77.724 245.576C78.1106 245.773 78.5321 245.892 78.9646 245.926C79.3971 245.96 79.832 245.908 80.2446 245.774C80.6571 245.64 81.0392 245.426 81.369 245.144C81.9367 244.832 82.3962 244.355 82.6864 243.776C82.9766 243.196 83.0839 242.543 82.994 241.901C82.9042 241.259 82.6214 240.66 82.1833 240.183C81.7452 239.706 81.1723 239.373 80.5407 239.229ZM80.4023 243.654C79.1222 244.515 78.1443 244.322 77.5989 243.738C76.5305 242.497 76.6871 240.061 78.9746 240.086C80.6074 240.196 82.5301 242.324 80.4321 243.755L80.4023 243.654ZM155.781 116.659C156.717 117.676 159.308 116.427 160.384 115.693C160.949 115.306 161.287 114.965 161.169 114.342C160.903 112.777 157.23 99.6124 156.169 98.5449C156.059 98.4327 155.918 98.3555 155.764 98.323C155.61 98.2905 155.45 98.3041 155.304 98.3623C153.151 98.9923 151.103 99.9376 149.227 101.167C148.55 101.916 154.662 115.543 155.781 116.659ZM149.794 101.526C151.577 100.709 153.435 100.064 155.341 99.6009C155.903 101.057 159.402 114.076 159.441 114.283C158.68 114.84 157.803 115.219 156.875 115.393C156.597 114.971 155.986 113.792 155.218 112.309C153.219 108.814 151.408 105.215 149.794 101.526ZM73.5538 222.791C73.7765 222.833 74.006 222.821 74.2234 222.757C74.4407 222.693 74.6396 222.578 74.8038 222.421C75.4406 221.711 75.8508 220.826 75.9818 219.881C75.9937 219.732 75.9668 219.583 75.9038 219.448C75.8408 219.313 75.7438 219.197 75.6224 219.11C74.3149 218.247 60.132 209.133 59.0683 210.281C57.7873 211.775 56.623 213.365 55.5858 215.037C55.544 215.105 55.5169 215.181 55.5062 215.259C55.4955 215.338 55.5014 215.418 55.5235 215.494C55.7932 216.555 70.3049 222.48 73.5538 222.791ZM59.4652 210.733C61.2529 211.367 68.0247 216.029 74.225 220.093C74.1193 220.463 73.9569 220.814 73.7436 221.135C67.9962 219.47 62.37 217.413 56.905 214.976C57.6592 213.504 58.5147 212.087 59.4652 210.733ZM77.9877 156.893C76.1183 148.939 79.6016 143.963 84.0854 141.629C84.2011 146.988 86.3305 153.374 91.474 152.752C93.9259 152.443 94.7174 150.894 95.9937 148.982C101.443 140.794 93.808 136.474 85.768 139.312C86.3444 130.065 91.3716 121.19 100.641 118.208C100.726 118.183 100.798 118.125 100.841 118.046C100.883 117.968 100.893 117.876 100.868 117.79C100.843 117.705 100.784 117.633 100.706 117.59C100.628 117.548 100.535 117.538 100.45 117.563C90.3097 120.342 84.5325 129.943 84.0901 139.939C78.9813 142.458 74.8309 148.07 77.3068 156.963C77.3091 157.009 77.3209 157.055 77.3414 157.096C77.3619 157.138 77.3907 157.175 77.4259 157.205C77.4612 157.236 77.5023 157.258 77.5466 157.272C77.591 157.286 77.6377 157.291 77.6839 157.286C77.7302 157.281 77.775 157.267 77.8156 157.245C77.8562 157.222 77.8918 157.192 77.9202 157.155C77.9486 157.118 77.9692 157.076 77.9808 157.031C77.9924 156.986 77.9948 156.939 77.9877 156.893ZM85.7276 140.88C88.6719 139.79 93.4219 139.394 95.4565 141.752C96.6211 143.096 96.4818 145.22 94.6018 148.056C94.1242 148.937 93.5206 149.743 92.8102 150.449C90.1675 152.634 85.718 149.894 85.7276 140.88ZM175.803 424.313C173.701 424.367 171.631 424.841 169.715 425.707C167.799 426.573 166.075 427.814 164.646 429.356C163.216 430.898 162.11 432.711 161.391 434.687C160.673 436.663 160.356 438.763 160.462 440.863C160.77 445.2 162.788 449.236 166.073 452.085C169.357 454.933 173.639 456.36 177.975 456.052C182.312 455.744 186.348 453.725 189.197 450.441C192.045 447.156 193.472 442.875 193.164 438.538C192.966 436.461 192.358 434.444 191.377 432.603C190.396 430.762 189.06 429.133 187.446 427.81C185.832 426.488 183.972 425.498 181.974 424.898C179.976 424.298 177.879 424.099 175.803 424.313ZM186.892 438.902C187.037 442.367 185.937 445.77 183.791 448.496C181.646 451.221 178.596 453.089 175.193 453.761C171.802 453.472 168.621 451.996 166.21 449.594C163.799 447.191 162.313 444.014 162.013 440.624C161.79 437.096 162.845 433.606 164.983 430.792C167.122 427.978 170.202 426.027 173.661 425.297C177.106 425.658 180.314 427.222 182.719 429.715C185.125 432.208 186.574 435.47 186.811 438.926L186.892 438.902Z" fill="#262725"/>
<path d="M204.357 422.118C202.423 422.032 200.498 422.442 198.768 423.31C197.497 421.798 196.075 420.418 194.525 419.194C195.484 417.617 198.095 413.249 196.769 411.953C192.593 409.175 187.993 407.092 183.15 405.785C181.156 405.333 179.091 405.28 177.076 405.63C175.839 406.193 174.259 412.119 173.907 413.451C173.464 413.582 171.742 413.543 171.603 413.519C171.174 412.067 169.201 406.95 167.711 406.733C166.086 406.627 164.455 406.705 162.847 406.965C161.35 407.167 149.165 413.335 148.73 415.349C148.451 416.703 151.208 420.689 151.995 421.794C151.084 422.714 150.239 423.696 149.466 424.734C147.873 426.761 148.4 426.54 147.989 426.486C147.489 426.406 146.978 426.409 146.479 426.494C144.589 426.026 142.595 426.228 140.838 427.066C139.162 428.219 137.732 439.472 137.783 442.241C137.743 442.955 137.886 443.668 138.198 444.311C139.075 445.499 142.617 445.613 144.093 445.637C144.487 448.342 145.266 450.976 146.406 453.46C144.775 454.468 141.407 456.648 142.145 458.403C142.884 460.158 151.142 470.738 153.378 471.108C154.626 471.39 155.92 471.408 157.176 471.162C158.432 470.915 159.623 470.408 160.671 469.675C161.23 469.154 161.754 468.596 162.239 468.005C163.224 468.372 164.232 468.666 165.254 468.934C165.088 470.671 164.722 474.55 165.63 475.991C166.097 476.752 166.839 476.818 167.868 476.886C170.703 477.056 185.471 476.285 187.46 475.303C188.21 474.949 188.389 473.997 188.399 473.14C188.318 471.217 188.04 469.309 187.57 467.443C188.575 467.035 189.559 466.576 190.517 466.068C191.464 466.979 192.553 467.731 193.74 468.293C194.983 468.715 195.743 468.096 196.692 467.004C197.471 467.563 198.616 468.321 199.553 468.153C201.908 467.742 208.701 456.087 209.132 453.987C209.491 452.236 205.749 450.405 204.087 449.603C204.874 447.05 205.3 444.4 205.354 441.73C206.873 441.519 208.369 441.165 209.821 440.672C210.486 440.476 211.181 440.007 211.278 439.299C211.68 436.133 208.175 425.615 206.509 423.17C206.156 422.419 205.094 422.164 204.357 422.118ZM205.389 423.83C206.85 426.248 209.998 436.082 209.747 438.94C208.055 439.628 206.272 440.066 204.454 440.242C204.261 440.265 204.084 440.36 203.957 440.507C203.83 440.654 203.763 440.843 203.768 441.037C203.771 444 203.286 446.944 202.332 449.749C202.261 449.937 202.265 450.146 202.344 450.331C202.424 450.516 202.572 450.663 202.757 450.741C204.503 451.444 206.109 452.454 207.498 453.724C206.978 455.676 201.23 465.224 199.231 466.473C198.908 466.568 197.664 465.621 197.347 465.364C196.271 464.465 195.253 463.499 194.299 462.472C194.16 462.322 193.97 462.23 193.766 462.213C193.563 462.196 193.36 462.256 193.198 462.381C188.001 466.307 185.402 465.673 185.831 467.124C186.476 469.297 186.761 471.561 186.672 473.825C181.782 474.711 176.808 475.049 171.843 474.834C171.425 472.617 171.406 470.343 171.787 468.12C171.993 466.59 169.687 467.689 163.812 464.427C163.626 464.336 163.413 464.317 163.215 464.376C163.017 464.434 162.849 464.566 162.743 464.743C161.216 466.992 159.072 469.38 158.47 469.273C157.293 469.073 149.378 459.728 148.451 457.634C149.59 456.211 151.015 455.043 152.634 454.205C152.801 454.1 152.925 453.936 152.982 453.746C153.038 453.556 153.024 453.352 152.942 453.172C151.603 450.463 150.74 447.544 150.39 444.543C150.369 444.358 150.279 444.188 150.137 444.067C149.996 443.946 149.814 443.883 149.628 443.891C147.99 443.942 146.352 443.786 144.754 443.425C144.215 443.233 144.262 443.242 144.201 442.887C144.114 437.795 144.89 432.725 146.497 427.892C147.497 427.267 151.078 428.554 152.313 429.022C152.448 429.093 152.606 429.109 152.753 429.066C152.9 429.022 153.024 428.923 153.099 428.79C153.741 427.555 154.476 426.371 155.296 425.246C157.675 422.022 158.591 422.08 158.09 421.351C156.565 419.602 155.399 417.571 154.656 415.372C154.892 415.02 155.186 414.711 155.526 414.458C157.188 413.157 158.943 411.979 160.776 410.932C162.967 409.561 165.303 408.436 167.742 407.579C168.219 407.635 169.145 409.357 169.413 409.891C171.351 413.703 171.091 414.678 171.694 414.566C177.607 413.432 179.247 414.679 179.441 413.854C179.981 411.568 180.739 409.34 181.705 407.199C182.003 406.651 181.923 406.455 183.408 406.805C187.936 408.163 192.233 410.196 196.153 412.837C196.611 413.271 194.813 416.829 193.38 419.028C192.888 419.809 193.913 419.791 196.624 422.585C199.336 425.379 199.207 426.425 200.074 425.95C201.736 424.993 203.525 424.279 205.389 423.83ZM435.392 172.629C430.655 172.152 425.877 172.29 421.175 173.039C417.714 173.493 413.668 174.119 410.256 174.667C412.098 169.256 418.123 155.153 418.879 151.926C419.102 151.049 417.945 150.251 417.135 149.811C412.518 147.098 405.327 147.69 399.887 148.422C396.76 148.82 383.847 150.972 382.029 152.606C379.846 154.566 369.402 188.348 370.107 192.809C370.322 193.535 370.647 193.746 371.43 193.799C374.716 194.011 388.583 191.753 391.776 191.576C389.83 199.825 378.959 228.975 378.2 232.86C378.027 233.832 378.438 234.259 378.99 234.271C381.017 234.455 383.056 234.482 385.087 234.353C385.879 234.361 387.179 232.902 389.081 230.805C397.636 221.479 433.557 178.805 435.858 173.982C435.926 173.864 435.968 173.734 435.981 173.598C435.994 173.463 435.978 173.327 435.934 173.199C435.89 173.07 435.819 172.953 435.725 172.855C435.631 172.756 435.518 172.679 435.392 172.629ZM399.219 209.632C385.427 226.01 380.618 231.027 380.458 231.228C381.974 226.198 392.181 197.617 393.461 191.122C393.48 190.998 393.471 190.871 393.435 190.751C393.399 190.631 393.337 190.521 393.253 190.428C393.168 190.335 393.065 190.262 392.949 190.215C392.833 190.167 392.708 190.146 392.583 190.153C390.352 190.024 375.21 192.791 371.378 192.586C370.713 188.705 380.638 154.946 382.522 153.161C384.406 151.377 406.675 147.577 411.559 149.267C410.664 154.026 403.251 171.959 402.352 175.887C402.171 176.685 402.247 177.386 403.047 177.347C403.846 177.308 423.453 173.922 427.986 174.051C424.191 179.755 403.744 204.173 399.195 209.552L399.219 209.632ZM233.439 124.609C233.493 124.791 233.68 124.977 234.328 126.057C234.482 126.287 234.72 126.448 234.99 126.507C235.261 126.566 235.544 126.518 235.78 126.373C236.015 126.222 236.18 125.984 236.239 125.712C236.298 125.439 236.247 125.154 236.096 124.92C235.662 124.193 235.284 123.582 235.068 123.295C234.885 123.108 234.639 122.996 234.378 122.981C234.117 122.966 233.86 123.048 233.656 123.213C233.453 123.377 233.318 123.611 233.278 123.869C233.238 124.127 233.295 124.391 233.439 124.609Z" fill="#262725"/>
</g>
<defs>
<clipPath id="clip0_33800_5679">
<rect width="420.478" height="420.478" fill="white" transform="translate(0.293335 119.905) rotate(-16.472)"/>
</clipPath>
</defs>
</svg>
