<svg width="255" height="256" viewBox="0 0 255 256" fill="none" xmlns="http://www.w3.org/2000/svg">
<path fill-rule="evenodd" clip-rule="evenodd" d="M148.142 239.617C150.947 236.901 160.293 226.867 163.315 224.521C163.407 224.422 163.532 224.358 163.667 224.343C163.802 224.327 163.938 224.359 164.051 224.434C164.164 224.509 164.247 224.621 164.285 224.752C164.323 224.882 164.313 225.021 164.258 225.145C162.754 227.861 149.634 240.19 148.869 240.917C148.346 241.567 146.102 244.27 145.49 244.831C145.509 245.339 145.376 245.841 145.108 246.273C144.84 246.704 144.449 247.046 143.986 247.254C142.343 247.811 140.734 248.463 139.166 249.205C138.937 249.409 138.669 249.205 138.733 248.988C139.519 248.003 140.178 246.924 140.696 245.775C140.808 245.015 141.194 244.322 141.781 243.826C142.368 243.331 143.116 243.067 143.884 243.085C143.973 242.919 147.352 240.139 148.142 239.617ZM143.846 243.289C143.157 243.329 142.505 243.614 142.009 244.094C141.513 244.574 141.205 245.215 141.143 245.902C140.855 246.767 140.424 247.578 139.868 248.299C143.093 246.961 144.19 247.152 144.891 246.068C145.113 245.708 145.252 245.303 145.299 244.882C144.407 244.64 143.782 243.136 143.846 243.289ZM147.887 240.088C146.893 240.994 145.86 241.963 144.343 243.276C144.566 243.719 144.899 244.097 145.312 244.372L148.64 240.815C148.346 240.626 148.094 240.379 147.9 240.088H147.887ZM142.214 225.069C143.667 224.113 163.391 211.133 163.583 211.771C163.774 212.408 144.228 227.198 144.062 227.3C143.234 228.244 137.687 234.223 136.961 234.478C136.036 234.444 135.159 234.056 134.513 233.395C133.626 232.488 132.97 231.382 132.6 230.169C132.358 229.302 141.423 225.4 142.214 225.069ZM133.225 230.743C133.476 231.551 133.93 232.281 134.544 232.864C135.158 233.447 135.911 233.862 136.731 234.07C135.813 233.203 133.875 231.355 133.225 230.743ZM137.05 227.797C135.65 228.465 134.307 229.245 133.034 230.131C133.199 230.679 133.034 230.131 134.309 231.189C135.343 232.001 136.25 232.963 136.999 234.045C137.636 233.573 140.225 230.998 140.072 231.138C139.116 229.967 138.094 228.852 137.012 227.797H137.05ZM142.265 225.247C140.161 226.229 138.758 226.918 137.165 227.695C138.429 228.503 139.455 229.635 140.135 230.972C140.9 230.207 143.501 227.568 143.884 227.147C143.514 226.79 142.545 225.681 142.226 225.273L142.265 225.247ZM173.158 210.674C173.808 204.962 174.764 197.86 175.542 197.822C176.32 197.784 175.478 204.962 174.675 210.712C177.225 210.929 180.26 212.332 179.775 214.754C179.798 215.186 179.742 215.618 179.609 216.029C180.884 224.686 179.75 226.471 179.839 226.331C179.096 227.225 178.167 227.947 177.116 228.444C176.066 228.942 174.919 229.204 173.757 229.213C172.59 229.219 171.435 228.976 170.369 228.501C169.302 228.027 168.35 227.33 167.573 226.459C166.515 224.865 167.191 218.133 167.395 216.259C167.282 215.864 167.218 215.457 167.204 215.047C167.05 214.377 167.137 213.674 167.449 213.061C167.761 212.448 168.279 211.964 168.912 211.694C170.216 210.995 171.678 210.644 173.158 210.674ZM179.367 221.869C178.36 223.934 175.542 224.584 173.272 224.584C173.242 225.196 173.174 225.805 173.069 226.408C172.967 226.892 172.852 227.313 172.354 227.3C171.637 227.155 171.005 226.734 170.595 226.127C170.264 225.63 170.34 225.375 170.761 224.278C170.208 224.134 169.694 223.871 169.254 223.508C168.813 223.145 168.457 222.69 168.211 222.175C168.216 223.314 168.331 224.449 168.555 225.566C168.824 226.073 169.208 226.51 169.677 226.841C172.559 229.187 176.052 228.524 178.972 226.012C179.099 225.069 179.278 223.22 179.367 221.869ZM167.663 216.769C167.573 218.311 167.229 224.827 168.096 226.102C168.763 226.877 169.607 227.481 170.557 227.861C169.561 227.375 168.751 226.579 168.249 225.592C168.03 224.226 167.957 222.841 168.032 221.461C167.952 221.074 167.966 220.673 168.075 220.293C168.184 219.914 168.384 219.566 168.657 219.28C169.562 218.235 169.779 218.834 168.95 218.26C168.408 217.895 167.965 217.399 167.663 216.82V216.769ZM171.092 224.291C170.938 224.704 170.822 225.131 170.748 225.566C170.748 226 171.896 226.969 172.406 226.918C172.584 226.918 172.635 226.65 172.699 226.331C172.812 225.754 172.888 225.171 172.928 224.584C172.309 224.572 171.693 224.491 171.092 224.342V224.291ZM179.456 216.463C179.018 217.271 178.348 217.928 177.531 218.35C178.997 218.809 179.966 219.79 179.571 221.282C179.571 222.085 179.571 222.876 179.494 223.59C179.367 226.255 179.278 226.14 179.405 225.949C180.005 223.679 179.699 218.911 179.456 216.514V216.463ZM177.314 218.464C176.122 219.042 174.814 219.342 173.489 219.344C173.491 220.106 173.392 220.865 173.196 221.601C173.248 222.45 173.248 223.302 173.196 224.151C174.793 224.205 176.372 223.803 177.748 222.991C179.775 221.716 180.094 219.408 177.314 218.515V218.464ZM172.049 221.652C171.972 221.83 171.334 223.603 171.22 223.921C171.792 224.061 172.378 224.133 172.967 224.138C172.967 223.513 173.094 222.315 173.081 221.69C172.741 221.765 172.39 221.769 172.049 221.703V221.652ZM169.664 218.694C167.216 220.377 168.249 223.054 170.939 223.87C171.25 223.105 171.582 222.348 171.934 221.601C171.969 220.84 172.054 220.082 172.189 219.331C171.317 219.265 170.463 219.049 169.664 218.694ZM172.304 219.344L172.189 221.41C172.406 221.41 173.107 221.512 173.03 221.41C172.954 221.308 173.196 220.211 173.285 219.37C172.954 219.395 172.622 219.382 172.304 219.357V219.344ZM179.24 215.965C176.97 218.809 170.111 218.847 167.765 215.965C168.012 216.604 168.42 217.169 168.95 217.604C169.479 218.04 170.111 218.332 170.786 218.452C173.693 219.242 178.067 218.605 179.24 215.978V215.965ZM174.484 212.038C174.101 214.678 173.77 216.82 173.655 217.521C175.58 217.521 178.156 216.82 179.048 215.264C178.768 213.275 176.498 212.242 174.484 212.051V212.038ZM173.005 212.038C171.952 212.09 170.933 212.424 170.053 213.005C169.174 213.586 168.467 214.393 168.007 215.341C168.823 216.616 170.875 217.317 172.456 217.47C172.52 216.769 172.724 214.652 173.005 212.051V212.038ZM173.132 210.916C171.743 210.967 170.388 211.366 169.192 212.077C168.058 212.803 167.293 213.925 167.918 215.137C168.352 214.132 169.062 213.271 169.964 212.65C170.865 212.03 171.924 211.677 173.018 211.63L173.132 210.916ZM174.675 211.044C174.675 211.261 174.611 211.477 174.573 211.694C176.677 211.885 178.883 212.969 179.227 215.009C179.686 213.849 178.921 212.803 177.85 212.128C176.882 211.542 175.799 211.172 174.675 211.044ZM186.89 216.22C186.29 213.25 181.445 191.116 183.065 189.828C183.64 189.511 184.265 189.295 184.913 189.19C186.698 188.808 198.084 187.278 198.607 188.821C199.13 190.363 196.057 213.862 195.827 215.124C195.827 215.978 195.508 218.362 195.508 218.362C195.178 219.054 194.687 219.657 194.078 220.122C193.469 220.587 192.758 220.901 192.004 221.038C191.249 221.175 190.473 221.131 189.74 220.909C189.006 220.688 188.335 220.296 187.782 219.765C187.356 218.619 187.057 217.431 186.89 216.22ZM197.956 191.651C193.074 191.716 188.203 192.142 183.383 192.926C183.779 198.281 186.099 210.776 187.106 216.106C188.434 216.831 189.946 217.147 191.453 217.013C192.96 216.88 194.394 216.302 195.572 215.353C195.713 214.27 197.854 193.079 197.956 191.651ZM196.809 199.046C196.809 199.046 196.886 198.179 195.814 198.396C194.743 198.613 192.793 200.449 190.396 200.245C187.999 200.041 185.717 198.702 185.003 199.594C184.289 200.487 187.31 203.305 191.224 202.642C195.712 201.889 196.898 200.041 196.809 199.046ZM184.187 189.994C183.995 189.994 183.473 190.198 183.422 190.363C183.313 191.172 183.313 191.991 183.422 192.799L184.697 192.556C184.408 191.73 184.236 190.867 184.187 189.994ZM186.392 189.522C185.742 189.637 184.977 189.777 184.352 189.943C184.542 190.784 184.682 191.635 184.773 192.493C185.257 192.403 186.609 192.174 187.004 192.136C186.966 192.046 186.66 190.988 186.392 189.522ZM188.828 189.203C188.024 189.292 187.259 189.394 186.558 189.496C186.87 190.349 187.059 191.242 187.119 192.148L189.261 191.881C189.185 191.46 188.917 190.134 188.828 189.203ZM191.212 188.974C190.778 188.974 189.86 189.076 188.993 189.178C189.262 190.049 189.395 190.956 189.388 191.868L191.684 191.651C191.645 191.434 191.378 190.287 191.25 188.974H191.212ZM193.762 188.808L191.378 188.961C191.653 189.827 191.799 190.729 191.811 191.638C192.551 191.638 193.367 191.536 194.093 191.511C194.093 191.485 193.8 188.974 193.8 188.808H193.762ZM196.847 188.808C196.801 189.701 196.703 190.591 196.554 191.473H197.969C197.969 191.154 198.186 189.012 197.969 188.923C197.6 188.85 197.224 188.816 196.847 188.821V188.808ZM196.682 188.808H193.94C194.187 189.686 194.282 190.601 194.221 191.511H196.439C196.401 190.603 196.482 189.694 196.682 188.808ZM100.725 206.365C102.395 206.365 103.76 206.977 103.76 207.754C103.76 208.532 102.395 209.144 100.725 209.144C99.0548 209.144 97.7033 208.519 97.7033 207.754C97.7033 206.989 99.0038 206.365 100.725 206.365ZM68.493 199.021C68.493 199.301 67.9703 199.556 67.3073 199.582C66.6443 199.607 66.0323 199.39 66.0323 199.097C66.0578 198.421 68.4675 198.294 68.493 199.021Z" fill="black"/>
<path d="M79.0883 230.322C79.0883 230.555 79.2441 230.779 79.5214 230.944C79.7988 231.109 80.175 231.202 80.5673 231.202C80.9595 231.202 81.3357 231.109 81.6131 230.944C81.8904 230.779 82.0463 230.555 82.0463 230.322C82.0463 230.089 81.8904 229.865 81.6131 229.7C81.3357 229.535 80.9595 229.442 80.5673 229.442C80.175 229.442 79.7988 229.535 79.5214 229.7C79.2441 229.865 79.0883 230.089 79.0883 230.322Z" fill="black"/>
<path fill-rule="evenodd" clip-rule="evenodd" d="M144.241 188.094C145.516 188.094 146.612 188.464 146.612 188.91C146.612 189.356 145.554 189.738 144.241 189.738C142.927 189.738 141.882 189.369 141.882 188.91C141.882 188.451 142.94 188.094 144.241 188.094ZM63.0615 155.543C63.0615 155.862 62.8702 158.272 62.9722 161.791C62.9722 162.262 63.0615 163.869 63.0615 163.869C63.0615 163.869 63.2145 163.958 63.2145 163.869C63.2145 163.78 63.291 162.262 63.3037 161.791C63.3802 158.858 63.2145 155.416 63.2145 155.543C63.2145 155.523 63.2064 155.503 63.1921 155.489C63.1777 155.475 63.1583 155.467 63.138 155.467C63.1177 155.467 63.0982 155.475 63.0839 155.489C63.0695 155.503 63.0615 155.523 63.0615 155.543ZM116.165 16.2238C117.759 16.6573 120.577 17.5625 121.597 18.8758C121.633 18.924 121.653 18.9827 121.654 19.0433C121.654 19.1038 121.635 19.1629 121.599 19.2117C121.564 19.2604 121.513 19.2963 121.455 19.3139C121.397 19.3315 121.335 19.3299 121.278 19.3093C116.178 17.231 108.056 19.883 102.905 22.025C100.865 22.8793 113.105 9.07102 121.903 11.2385C121.963 11.2568 122.015 11.294 122.053 11.3445C122.09 11.395 122.11 11.4562 122.11 11.519C122.11 11.5819 122.09 11.643 122.053 11.6935C122.015 11.744 121.963 11.7812 121.903 11.7995C119.903 12.2685 117.939 12.8778 116.025 13.6228C117.491 13.6865 120.87 13.9033 122.005 14.8978C122.05 14.9367 122.082 14.9878 122.099 15.045C122.115 15.1022 122.114 15.1629 122.097 15.2197C122.079 15.2765 122.046 15.327 122 15.3649C121.954 15.4028 121.898 15.4266 121.839 15.4333C119.935 15.5987 118.042 15.8625 116.165 16.2238ZM120.398 11.5955C117.894 11.5864 115.431 12.2372 113.258 13.4825C109.37 15.5453 105.909 18.3273 103.058 21.6808C107.941 19.5643 114.89 17.1673 120.105 18.3658C118.46 17.5256 116.711 16.9082 114.903 16.5298C114.837 16.5158 114.778 16.4797 114.736 16.4275C114.694 16.3753 114.671 16.3101 114.671 16.2429C114.671 16.1757 114.694 16.1105 114.736 16.0583C114.778 16.0061 114.837 15.97 114.903 15.956C116.846 15.4326 118.829 15.0743 120.832 14.885C118.876 14.4239 116.874 14.1929 114.865 14.1965C114.799 14.1984 114.735 14.1783 114.682 14.1395C114.63 14.1006 114.591 14.0453 114.574 13.9822C114.556 13.9192 114.56 13.852 114.585 13.7915C114.61 13.731 114.655 13.6806 114.712 13.6483C116.524 12.7532 118.432 12.0647 120.398 11.5955ZM34.2975 118.249C33.0295 118.415 31.7513 118.492 30.4725 118.479C30.4075 118.481 30.3437 118.461 30.2919 118.422C30.2401 118.383 30.2035 118.327 30.1885 118.263C30.1734 118.2 30.1808 118.134 30.2094 118.075C30.2379 118.017 30.2858 117.97 30.345 117.943C31.926 117.089 35.649 116.248 37.5615 114.922L42.2917 111.76C42.3013 111.749 42.3131 111.74 42.3263 111.734C42.3395 111.728 42.3538 111.725 42.3682 111.725C42.3827 111.725 42.397 111.728 42.4102 111.734C42.4234 111.74 42.4352 111.749 42.4447 111.76C42.585 111.925 42.2917 111.938 40.698 114.042C39.64 115.345 38.7807 116.797 38.148 118.351C37.4642 119.977 36.8642 121.637 36.3502 123.324C36.3502 123.706 35.4322 123.987 35.6872 121.896C35.7928 121.115 35.9375 120.341 36.1207 119.575C34.798 120.53 33.4042 121.383 31.9515 122.125C31.8992 122.155 31.8388 122.169 31.7787 122.163C31.7186 122.158 31.6617 122.134 31.6157 122.095C31.5697 122.056 31.5368 122.003 31.5216 121.945C31.5064 121.886 31.5096 121.825 31.5307 121.768C32.1828 120.406 33.1276 119.204 34.2975 118.249ZM41.514 112.601C35.2665 117 38.0587 115.406 31.824 117.892C33.0171 117.89 34.2031 117.709 35.343 117.357L35.4832 117.242C35.7637 117.025 36.261 117.459 35.7127 117.816C34.4872 118.779 33.4053 119.913 32.4997 121.182C33.9118 120.459 35.2341 119.573 36.4395 118.543C36.4844 118.49 36.5461 118.456 36.614 118.444C36.6819 118.433 36.7515 118.446 36.8108 118.481C36.87 118.516 36.9151 118.571 36.9381 118.636C36.9612 118.7 36.9607 118.771 36.9367 118.836C36.673 119.797 36.4602 120.772 36.2992 121.756C37.3071 118.342 39.092 115.209 41.514 112.601ZM42.381 106.647C44.5432 103.143 47.632 100.306 51.306 98.4485C56.253 96.1153 58.0635 98.6015 55.8195 103.064C53.9087 106.629 51.1772 109.688 47.8507 111.989C48.2252 113.297 48.3761 114.659 48.297 116.018C47.9655 117.293 41.7307 119.435 40.8765 119.333C40.8118 119.33 40.7491 119.309 40.6952 119.273C40.6413 119.238 40.5982 119.188 40.5705 119.129C40.443 118.836 40.7362 118.568 41.0167 118.351C42.5733 117.214 44.2048 116.183 45.9 115.266L45.8107 113.149L45.084 113.506C45.0366 113.519 44.9866 113.519 44.9394 113.506C44.8922 113.492 44.8496 113.466 44.8162 113.43L40.8 109.516C40.7812 109.494 40.7708 109.467 40.7708 109.439C40.7708 109.411 40.7812 109.384 40.8 109.363C40.8 109.363 40.9275 109.095 41.1952 108.623H38.964C38.6325 109.312 36.414 113.8 35.7 114.106C35.6487 114.13 35.5922 114.142 35.5352 114.141C35.4783 114.139 35.4225 114.124 35.3726 114.097C35.3227 114.069 35.28 114.03 35.2483 113.983C35.2165 113.936 35.1965 113.882 35.19 113.825C35.037 112.869 36.924 106.634 38.1735 106.264C39.5609 106.137 40.9597 106.231 42.3172 106.545C42.3373 106.553 42.3543 106.567 42.3657 106.585C42.3772 106.604 42.3825 106.625 42.381 106.647ZM47.5702 112.078C47.0641 112.416 46.5407 112.726 46.002 113.009L46.2697 115.419C46.2697 115.61 46.2697 115.495 43.7197 117.178C42.942 117.676 42.1515 118.198 41.616 118.594C43.5506 118.061 45.4163 117.303 47.175 116.337C47.3152 116.248 47.685 115.993 47.736 115.827C47.8707 114.576 47.8148 113.312 47.5702 112.078ZM41.9475 107.909C41.4502 108.649 41.1442 109.184 41.0295 109.401L44.982 113.06C45.441 112.831 45.9382 112.55 46.461 112.231C44.8142 110.947 43.302 109.499 41.9475 107.909ZM42.2662 106.825C40.9511 106.639 39.6162 106.639 38.301 106.825C37.8547 106.978 37.0897 109.006 36.9495 109.375C36.4993 110.576 36.1371 111.807 35.8657 113.06C36.6307 111.925 38.7217 108.215 38.6325 108.394C38.6498 108.358 38.6771 108.328 38.711 108.308C38.745 108.287 38.7842 108.277 38.8237 108.279L41.31 108.406C41.565 107.922 41.871 107.425 42.2662 106.825ZM49.2915 100.208C46.4014 102.17 43.9451 104.704 42.075 107.654C43.768 108.954 45.3155 110.433 46.6905 112.066C49.5999 110.148 52.0968 107.669 54.0345 104.773L49.2915 100.208ZM47.0092 103.408C46.7599 103.664 46.5637 103.968 46.4322 104.3C46.3007 104.632 46.2364 104.988 46.2429 105.345C46.2495 105.703 46.3269 106.055 46.4706 106.383C46.6143 106.71 46.8214 107.006 47.0801 107.253C47.3387 107.499 47.6437 107.693 47.9774 107.821C48.3112 107.949 48.667 108.01 49.0244 108C49.3818 107.99 49.7337 107.909 50.0596 107.762C50.3856 107.615 50.6792 107.405 50.9235 107.144C51.4106 106.623 51.6726 105.932 51.6525 105.219C51.6324 104.506 51.3317 103.83 50.816 103.338C50.3002 102.846 49.611 102.577 48.8982 102.59C48.1854 102.603 47.5065 102.897 47.0092 103.408ZM50.5665 103.612C50.9769 104.034 51.2066 104.599 51.2066 105.187C51.2066 105.775 50.9769 106.34 50.5665 106.762C50.1641 107.135 49.6344 107.34 49.0855 107.336C48.5366 107.332 48.01 107.119 47.613 106.74C47.216 106.361 46.9787 105.845 46.9494 105.297C46.9202 104.749 47.1012 104.21 47.4555 103.791C47.85 103.364 48.3947 103.107 48.975 103.073C49.5552 103.04 50.1258 103.233 50.5665 103.612ZM49.8652 104.339C50.0389 104.519 50.1556 104.746 50.2011 104.992C50.2465 105.238 50.2185 105.492 50.1206 105.723C50.0228 105.953 49.8594 106.149 49.6507 106.287C49.4421 106.425 49.1974 106.499 48.9472 106.499C48.6971 106.499 48.4524 106.425 48.2438 106.287C48.0351 106.149 47.8717 105.953 47.7738 105.723C47.676 105.492 47.648 105.238 47.6934 104.992C47.7388 104.746 47.8556 104.519 48.0292 104.339C48.1482 104.216 48.2908 104.117 48.4485 104.05C48.6062 103.983 48.7759 103.949 48.9472 103.949C49.1186 103.949 49.2883 103.983 49.446 104.05C49.6037 104.117 49.7463 104.216 49.8652 104.339Z" fill="black"/>
<path fill-rule="evenodd" clip-rule="evenodd" d="M90.2318 17.741C90.1152 17.6421 90.0237 17.517 89.9647 17.376C89.9058 17.2349 89.881 17.0819 89.8925 16.9295C89.9039 16.777 89.9513 16.6295 90.0307 16.4988C90.1102 16.3682 90.2193 16.2582 90.3494 16.1779C90.4794 16.0975 90.6267 16.0491 90.779 16.0365C90.9314 16.0239 91.0845 16.0476 91.226 16.1055C91.3675 16.1634 91.4932 16.254 91.593 16.3699C91.6928 16.4857 91.7637 16.6235 91.8 16.772C91.8092 16.9325 91.7803 17.0929 91.7158 17.2401C91.6512 17.3873 91.5527 17.5171 91.4284 17.6191C91.3041 17.721 91.1575 17.7921 91.0005 17.8266C90.8435 17.8611 90.6806 17.858 90.525 17.8175C90.525 17.945 90.3338 19.3603 89.9513 21.0178C91.7228 21.0245 93.433 21.667 94.7708 22.8283C94.7902 22.7927 94.8219 22.7655 94.86 22.7518C104.805 21.3493 105.838 24.6388 102.638 27.278C99.042 30.2488 88.0005 33.653 81.906 32.8498C80.3123 32.6585 77.8388 31.919 77.8133 30.4145C77.8133 28.4765 83.0025 26.3218 83.2065 26.2198C84.0377 24.1148 85.6438 22.4084 87.6945 21.4513C86.7893 20.4695 85.8458 19.0415 85.629 18.7993C84.5453 19.3858 83.5253 17.996 84.354 17.282C84.5366 17.122 84.7745 17.0396 85.017 17.0525C85.2192 17.0116 85.4292 17.04 85.6133 17.133C85.7974 17.2261 85.9448 17.3784 86.0317 17.5655C86.1186 17.7526 86.1399 17.9635 86.0923 18.1641C86.0447 18.3648 85.9309 18.5437 85.7693 18.6718C86.1983 18.9808 86.5805 19.3501 86.904 19.7683C88.74 21.9868 87.1845 21.2218 89.454 21.0433C89.5215 19.906 89.7845 18.7889 90.2318 17.741ZM82.9897 26.5768C81.8423 27.1378 78.1448 29.1268 78.1958 30.4018C78.1958 30.8225 78.5655 31.2433 79.2413 31.613C83.9843 34.163 98.0985 30.1595 102.191 26.8318C104.525 24.9575 104.282 23.1598 99.8453 22.841C98.1438 22.7639 96.439 22.8151 94.7453 22.994C94.4265 23.7335 91.3538 29.5475 82.9897 26.5768ZM81.7148 29.6113C81.6592 29.7292 81.6292 29.8576 81.6264 29.9879C81.6237 30.1182 81.6483 30.2477 81.6988 30.3679C81.7493 30.4881 81.8245 30.5964 81.9195 30.6857C82.0145 30.775 82.1272 30.8433 82.2503 30.8863C82.3725 30.9167 82.4995 30.9227 82.6241 30.904C82.7487 30.8852 82.8683 30.8419 82.9761 30.7768C83.0839 30.7116 83.1778 30.6258 83.2524 30.5242C83.3269 30.4227 83.3806 30.3074 83.4105 30.185C83.4866 29.9601 83.4702 29.7143 83.365 29.5015C83.2598 29.2886 83.0744 29.1264 82.8495 29.0503C82.6246 28.9742 82.3787 28.9905 82.1659 29.0958C81.9531 29.201 81.7908 29.3864 81.7148 29.6113ZM82.7603 29.2543C83.3213 29.5093 82.9388 30.5293 82.4033 30.3763C81.8678 30.2233 82.1483 29.1395 82.7603 29.2543ZM91.5578 28.5275C91.4676 28.4604 91.3635 28.4143 91.2532 28.3926C91.1428 28.371 91.029 28.3743 90.9202 28.4025C90.8113 28.4306 90.7101 28.4828 90.6241 28.5552C90.5381 28.6276 90.4693 28.7183 90.423 28.8208C90.3252 29.0493 90.3153 29.306 90.3954 29.5414C90.4754 29.7767 90.6396 29.9742 90.8565 30.0958C90.9601 30.1599 91.0767 30.2 91.1978 30.2132C91.3189 30.2264 91.4414 30.2123 91.5563 30.1719C91.6713 30.1316 91.7757 30.066 91.862 29.98C91.9483 29.894 92.0142 29.7898 92.055 29.675C92.1265 29.456 92.1154 29.2184 92.0238 29.0071C91.9322 28.7957 91.7664 28.6251 91.5578 28.5275ZM91.4558 28.706C91.9658 29.0885 91.6343 29.981 91.0988 29.675C90.5633 29.369 90.8438 28.451 91.4558 28.7188V28.706ZM98.277 25.0595C98.2029 24.9902 98.1141 24.9384 98.0172 24.908C97.9203 24.8777 97.8179 24.8696 97.7174 24.8843C97.617 24.899 97.5211 24.9361 97.437 24.9929C97.3529 25.0498 97.2826 25.1248 97.2315 25.2125C97.1329 25.4166 97.1121 25.6497 97.1732 25.868C97.2342 26.0864 97.3728 26.2749 97.563 26.3983C97.648 26.4675 97.7473 26.517 97.8537 26.5432C97.9601 26.5694 98.071 26.5715 98.1784 26.5496C98.2858 26.5276 98.387 26.482 98.4746 26.4162C98.5622 26.3503 98.6341 26.2658 98.685 26.1688C98.732 26.0693 98.7587 25.9615 98.7636 25.8516C98.7685 25.7417 98.7515 25.6319 98.7135 25.5286C98.6755 25.4254 98.6174 25.3307 98.5424 25.2502C98.4675 25.1696 98.3773 25.1048 98.277 25.0595ZM98.175 25.2253C98.5575 25.5823 98.2898 26.2963 97.8435 25.9903C97.3973 25.6843 97.6523 24.9703 98.175 25.2253ZM85.017 17.2438C85.182 17.2498 85.3387 17.3173 85.4566 17.4328C85.5745 17.5483 85.6451 17.7037 85.6545 17.8685C85.6479 18.0162 85.5846 18.1557 85.4777 18.2578C85.3708 18.36 85.2286 18.4169 85.0808 18.4168C85.0037 18.421 84.9266 18.4099 84.8539 18.3843C84.7811 18.3587 84.7141 18.319 84.6567 18.2675C84.5407 18.1635 84.4708 18.0177 84.4624 17.8621C84.4539 17.7066 84.5076 17.5541 84.6116 17.4381C84.7156 17.3221 84.8615 17.2522 85.017 17.2438ZM90.6653 16.16C90.8302 16.1661 90.987 16.2335 91.1049 16.349C91.2228 16.4646 91.2933 16.62 91.3028 16.7848C91.2962 16.9325 91.2328 17.0719 91.1259 17.1741C91.0191 17.2762 90.8769 17.3332 90.729 17.333C90.6468 17.349 90.562 17.3472 90.4806 17.3277C90.3991 17.3082 90.3227 17.2714 90.2566 17.2199C90.1905 17.1684 90.1362 17.1033 90.0974 17.0291C90.0586 16.9548 90.0361 16.8731 90.0315 16.7895C90.0269 16.7058 90.0403 16.6221 90.0708 16.5441C90.1012 16.466 90.148 16.3954 90.2081 16.337C90.2681 16.2785 90.34 16.2336 90.4189 16.2053C90.4977 16.177 90.5817 16.1659 90.6653 16.1728V16.16ZM153.587 79.4638C154.185 78.3551 155.166 77.502 156.347 77.0635C157.528 76.625 158.828 76.6311 160.005 77.0806C161.182 77.5301 162.155 78.3923 162.743 79.5065C163.331 80.6206 163.493 81.9106 163.2 83.1358C165.075 84.0483 166.867 85.1234 168.555 86.3488C169.295 87.0118 169.193 87.6238 167.879 87.5345C165.599 87.331 163.344 86.904 161.147 86.2595C160.444 86.7729 159.624 87.1013 158.761 87.2144C157.898 87.3275 157.02 87.2217 156.209 86.9068C155.397 86.5919 154.678 86.078 154.118 85.4123C153.557 84.7466 153.172 83.9506 153 83.0975C151.725 82.4855 147.301 80.2033 147.033 78.9155C146.944 78.4438 147.403 78.227 147.887 78.176C149.846 78.2791 151.773 78.7145 153.587 79.4638ZM163.098 83.4035C162.849 84.2698 162.379 85.0564 161.734 85.6858C163.901 86.3103 166.12 86.7371 168.364 86.9608C167.637 86.0173 164.144 84.0028 163.098 83.4035ZM153.459 83.2888C153.666 84.0062 154.035 84.6662 154.539 85.2177C155.042 85.7691 155.666 86.1972 156.361 86.4685C157.057 86.7398 157.806 86.8472 158.549 86.7822C159.293 86.7172 160.012 86.4816 160.65 86.0938C158.187 85.3382 155.783 84.4006 153.459 83.2888ZM161.339 85.571C162.235 84.7727 162.805 83.6723 162.942 82.48C163.078 81.2877 162.771 80.0869 162.078 79.1068C161.715 78.5715 161.246 78.116 160.701 77.768C160.155 77.4201 159.545 77.1871 158.906 77.0833C158.268 76.9795 157.615 77.007 156.987 77.1642C156.36 77.3214 155.771 77.6049 155.257 77.9975C154.564 78.5073 154.018 79.1904 153.673 79.9783C153.329 80.7662 153.198 81.6309 153.293 82.4855C155.888 83.729 158.578 84.7609 161.339 85.571ZM153.459 79.7188C152.516 79.4128 148.359 78.2143 147.607 78.8008C147.9 79.7188 152.044 81.8735 153 82.2688C152.927 81.3933 153.086 80.514 153.459 79.7188ZM61.0215 158.297C62.5609 159.309 64.1814 160.192 65.8665 160.936C65.8829 160.941 65.9005 160.941 65.9165 160.935C65.9325 160.929 65.9461 160.917 65.9549 160.903C65.9637 160.888 65.9673 160.871 65.9652 160.854C65.963 160.837 65.9552 160.821 65.943 160.809C64.4018 159.8 62.7815 158.917 61.098 158.17C61.0816 158.164 61.064 158.165 61.048 158.171C61.0319 158.177 61.0184 158.188 61.0096 158.203C61.0008 158.218 60.9972 158.235 60.9993 158.252C61.0015 158.269 61.0093 158.285 61.0215 158.297ZM33.3795 46.352C33.3795 43.2665 33.558 40.3595 33.558 40.487C33.5664 40.4615 33.5826 40.4393 33.6044 40.4236C33.6261 40.4078 33.6523 40.3993 33.6791 40.3993C33.706 40.3993 33.7321 40.4078 33.7539 40.4236C33.7756 40.4393 33.7919 40.4615 33.8002 40.487C33.8002 41.4178 33.966 42.2465 33.9787 46.556C34.921 45.9428 35.8956 45.381 36.8985 44.873C36.9119 44.8635 36.9271 44.8569 36.9431 44.8534C36.9592 44.85 36.9758 44.8499 36.9919 44.8532C37.008 44.8564 37.0232 44.8629 37.0367 44.8722C37.0502 44.8815 37.0617 44.8935 37.0704 44.9074C37.0791 44.9214 37.0848 44.9369 37.0873 44.9531C37.0898 44.9694 37.0889 44.9859 37.0848 45.0018C37.0806 45.0177 37.0732 45.0325 37.0631 45.0455C37.053 45.0584 37.0404 45.0691 37.026 45.077C36.2098 45.7465 35.3586 46.3721 34.476 46.9513C36.312 47.9585 36.6817 48.2263 37.5615 48.7618C38.4412 49.2973 38.454 49.2973 38.3903 49.4248C38.3265 49.5523 38.2627 49.5013 37.383 49.0933C36.5032 48.6853 35.904 48.4303 33.9787 47.372C33.9787 52.2553 33.7875 54.4865 33.7875 54.359C33.7791 54.3845 33.7629 54.4067 33.7411 54.4225C33.7194 54.4382 33.6932 54.4467 33.6664 54.4467C33.6395 54.4467 33.6134 54.4382 33.5916 54.4225C33.5699 54.4067 33.5536 54.3845 33.5452 54.359C33.5452 53.441 33.3667 52.6378 33.3667 47.6653C32.3719 48.3243 31.3419 48.9287 30.2812 49.4758C30.2679 49.4853 30.2527 49.4919 30.2366 49.4953C30.2206 49.4988 30.204 49.4988 30.1879 49.4956C30.1718 49.4924 30.1565 49.4859 30.143 49.4766C30.1295 49.4673 30.1181 49.4553 30.1094 49.4413C30.1007 49.4274 30.0949 49.4119 30.0924 49.3956C30.09 49.3794 30.0908 49.3629 30.095 49.347C30.0991 49.3311 30.1065 49.3162 30.1166 49.3033C30.1267 49.2904 30.1393 49.2796 30.1537 49.2718C31.1576 48.4497 32.2092 47.6876 33.303 46.9895C32.2703 46.4158 31.9387 46.2118 31.1227 45.7145C30.3067 45.2173 30.039 45.0643 30.1027 44.924C30.1268 44.9064 30.1558 44.8969 30.1856 44.8969C30.2154 44.8969 30.2445 44.9064 30.2685 44.924C31.875 45.5233 32.8312 46.0715 33.3795 46.352Z" fill="black"/>
<path fill-rule="evenodd" clip-rule="evenodd" d="M61.098 160.936C62.5263 160.188 63.8798 159.304 65.1397 158.297C65.229 158.297 65.1397 158.119 65.0632 158.17C63.6359 158.92 62.2827 159.804 61.0215 160.809C60.945 160.86 61.0215 160.987 61.098 160.936ZM100.623 84.0539C100.623 87.6367 100.75 88.2104 100.75 88.8607C100.745 88.8742 100.743 88.8889 100.745 88.9034C100.746 88.9179 100.751 88.9318 100.759 88.9439C100.768 88.9559 100.779 88.9658 100.792 88.9727C100.804 88.9795 100.819 88.9831 100.833 88.9831C100.848 88.9831 100.862 88.9795 100.875 88.9727C100.888 88.9658 100.899 88.9559 100.907 88.9439C100.915 88.9318 100.921 88.9179 100.922 88.9034C100.924 88.8889 100.922 88.8742 100.916 88.8607C100.916 88.9882 101.056 86.9227 101.056 83.8372C102.045 84.3962 103.062 84.9026 104.104 85.3544C104.206 85.3544 104.295 85.2524 104.193 85.2014C103.295 84.6017 102.368 84.0485 101.413 83.5439C102.045 83.154 102.654 82.7283 103.237 82.2689C103.254 82.2557 103.266 82.2367 103.27 82.2153C103.274 82.194 103.271 82.1718 103.26 82.153C103.249 82.1342 103.231 82.1201 103.211 82.1133C103.19 82.1064 103.168 82.1074 103.147 82.1159C103.147 82.1159 102.102 82.6514 101.056 83.3272C101.056 80.1524 100.929 79.5022 100.929 78.9667C100.929 78.943 100.92 78.9203 100.903 78.9036C100.886 78.8868 100.863 78.8774 100.84 78.8774C100.816 78.8774 100.793 78.8868 100.777 78.9036C100.76 78.9203 100.75 78.943 100.75 78.9667C100.75 78.8392 100.636 81.0194 100.623 83.1869C100.253 82.9957 99.5137 82.6004 98.3917 82.1159C98.2897 82.1159 98.2005 82.2179 98.3025 82.2689C98.4045 82.3199 99.246 82.9192 100.572 83.6459C99.7869 84.1214 99.0292 84.6407 98.3025 85.2014C98.2005 85.2014 98.3025 85.4182 98.3917 85.3544C98.2642 85.4182 99.2205 84.9464 100.623 84.0539ZM132.676 174.145C131.287 173.572 116.624 172.666 116.497 172.654C116.102 172.654 113.245 173.227 113.054 173.278C112.863 173.329 113.054 173.278 113.054 173.342C114.169 173.851 115.319 174.278 116.497 174.617C117.772 174.885 120.322 174.91 132.409 176.211C132.638 176.211 133.123 175.42 132.842 174.273C132.829 174.235 132.74 174.184 132.676 174.145ZM116.433 174.49L114.508 173.814C114.582 173.712 114.63 173.594 114.648 173.47C114.666 173.345 114.653 173.218 114.61 173.1C115.233 172.974 115.863 172.885 116.497 172.832C116.803 173.138 115.987 173.253 116.599 173.648C116.675 173.648 116.688 173.648 116.599 173.737C116.566 173.754 116.538 173.776 116.514 173.804C116.491 173.831 116.473 173.863 116.462 173.898C116.452 173.932 116.448 173.969 116.452 174.005C116.455 174.041 116.466 174.076 116.484 174.107C116.586 174.286 116.701 174.362 116.433 174.49ZM116.586 174.49C116.943 174.298 116.458 174.005 116.701 173.852C117.236 173.482 114.686 173.584 131.529 175.127C131.494 175.39 131.552 175.656 131.695 175.879L116.586 174.49ZM131.542 175.025C130.968 174.961 116.854 173.623 116.764 173.546C116.675 173.47 116.446 173.406 116.56 173.253C116.675 173.1 116.739 172.96 116.56 172.807C116.688 172.807 129.196 173.801 131.86 174.247C131.675 174.476 131.563 174.757 131.542 175.051V175.025ZM132.358 175.905C132.268 175.816 132.256 175.841 132.167 175.586C132.077 175.331 132.167 174.464 132.575 174.464C132.637 174.711 132.65 174.967 132.613 175.219C132.576 175.471 132.489 175.712 132.358 175.93V175.905ZM141.219 138.28C141.205 138.233 141.18 138.19 141.148 138.153C141.115 138.117 141.074 138.088 141.029 138.069C140.984 138.051 140.935 138.042 140.886 138.044C140.837 138.047 140.789 138.06 140.746 138.083C140.702 138.106 140.665 138.139 140.636 138.178C140.606 138.217 140.586 138.263 140.577 138.311C140.567 138.359 140.568 138.408 140.58 138.456C140.592 138.503 140.614 138.548 140.645 138.586C140.773 138.79 140.9 138.994 141.041 139.198C141.06 139.242 141.089 139.281 141.125 139.313C141.161 139.345 141.203 139.368 141.249 139.382C141.295 139.396 141.344 139.399 141.391 139.392C141.439 139.385 141.485 139.368 141.525 139.342C141.565 139.316 141.599 139.281 141.625 139.24C141.65 139.2 141.667 139.154 141.673 139.106C141.679 139.058 141.674 139.01 141.66 138.964C141.645 138.918 141.621 138.876 141.589 138.841C141.525 138.662 141.334 138.471 141.219 138.28ZM125.333 111.199C125.409 110.599 126.11 107.552 125.842 107.488C125.827 107.482 125.811 107.48 125.795 107.48C125.779 107.481 125.763 107.485 125.749 107.492C125.734 107.5 125.722 107.51 125.711 107.522C125.701 107.535 125.694 107.549 125.689 107.565C125.328 108.455 125.05 109.377 124.861 110.319C124.788 110.651 124.741 110.987 124.72 111.326C124.722 111.378 124.737 111.429 124.764 111.474C124.791 111.518 124.828 111.555 124.874 111.581C125.193 111.744 125.538 111.852 125.893 111.9C126.174 111.9 127.169 111.976 127.054 111.709C126.939 111.441 126.786 111.925 125.333 111.199ZM131.057 109.35V108.687C131.057 108.228 130.42 108.164 130.407 108.687V109.414C130.403 109.462 130.411 109.51 130.428 109.555C130.445 109.601 130.472 109.641 130.506 109.675C130.541 109.709 130.582 109.735 130.628 109.751C130.673 109.767 130.722 109.772 130.77 109.768C130.818 109.763 130.864 109.748 130.906 109.723C130.948 109.699 130.983 109.665 131.011 109.626C131.038 109.586 131.056 109.541 131.065 109.493C131.073 109.445 131.07 109.397 131.057 109.35ZM131.899 112.869C131.491 114.399 130.942 114.628 130.28 114.705C130.144 114.716 130.007 114.716 129.871 114.705C129.842 114.697 129.81 114.7 129.782 114.715C129.755 114.729 129.734 114.754 129.724 114.783C129.715 114.813 129.716 114.845 129.73 114.873C129.743 114.901 129.766 114.923 129.795 114.934C130.904 115.572 132.422 114.794 132.141 112.869C132.133 112.843 132.116 112.821 132.095 112.805C132.073 112.79 132.047 112.781 132.02 112.781C131.993 112.781 131.967 112.79 131.945 112.805C131.923 112.821 131.907 112.843 131.899 112.869ZM136.693 128.806C136.685 128.765 136.67 128.725 136.647 128.689C136.624 128.653 136.594 128.622 136.559 128.598C136.524 128.574 136.485 128.556 136.443 128.547C136.401 128.538 136.358 128.538 136.317 128.545C136.275 128.553 136.235 128.568 136.199 128.591C136.163 128.614 136.132 128.644 136.108 128.679C136.084 128.714 136.067 128.753 136.058 128.795C136.048 128.836 136.048 128.879 136.055 128.921C136.11 129.159 136.178 129.393 136.259 129.622C136.263 129.671 136.278 129.719 136.302 129.762C136.327 129.804 136.36 129.841 136.401 129.869C136.441 129.897 136.487 129.916 136.535 129.924C136.584 129.932 136.634 129.929 136.681 129.915C136.728 129.902 136.772 129.878 136.809 129.846C136.845 129.813 136.875 129.773 136.894 129.728C136.914 129.683 136.923 129.634 136.921 129.585C136.919 129.536 136.907 129.488 136.884 129.444C136.808 129.227 136.744 129.01 136.693 128.806ZM124.147 107.45C124.156 107.402 124.155 107.353 124.143 107.305C124.131 107.257 124.109 107.213 124.078 107.175C124.047 107.137 124.008 107.107 123.963 107.086C123.919 107.065 123.871 107.054 123.822 107.054C123.773 107.054 123.724 107.065 123.68 107.086C123.636 107.107 123.596 107.137 123.565 107.175C123.534 107.213 123.512 107.257 123.5 107.305C123.488 107.353 123.487 107.402 123.496 107.45V108.177C123.487 108.225 123.488 108.275 123.5 108.322C123.512 108.37 123.534 108.414 123.565 108.452C123.596 108.49 123.636 108.52 123.68 108.541C123.724 108.562 123.773 108.573 123.822 108.573C123.871 108.573 123.919 108.562 123.963 108.541C124.008 108.52 124.047 108.49 124.078 108.452C124.109 108.414 124.131 108.37 124.143 108.322C124.155 108.275 124.156 108.225 124.147 108.177C124.131 107.935 124.131 107.692 124.147 107.45Z" fill="black"/>
<path fill-rule="evenodd" clip-rule="evenodd" d="M231.298 160.044C229.883 159.355 226.517 159.929 224.923 160.261C224.337 159.607 223.599 159.108 222.773 158.81C221.947 158.512 221.061 158.423 220.193 158.552C218.765 158.909 218.42 160.669 218.484 162.148C217.566 161.982 216.572 161.867 215.654 161.778C215.73 161.497 215.972 161.102 215.896 160.822C215.854 160.721 215.792 160.631 215.713 160.558C215.633 160.484 215.539 160.428 215.436 160.394C215.333 160.36 215.224 160.349 215.116 160.361C215.009 160.373 214.905 160.409 214.812 160.465C214.558 160.667 214.323 160.894 214.111 161.14C214.111 160.694 214.48 159.98 214.034 159.865C213.588 159.751 212.198 161 211.803 161.446C208.875 161.124 205.921 161.124 202.993 161.446C199.159 161.721 195.547 163.343 192.793 166.024C208.297 148.174 215.105 135.908 214.927 120.621C214.748 105.334 196.58 98.0406 189.108 97.8493C181.853 97.6708 174.369 101.674 173.987 101.674C167.433 102.949 150.246 101.05 146.638 102.554C146.682 100.939 146.392 99.3312 145.787 97.8328C145.181 96.3344 144.273 94.9771 143.119 93.8458C141.053 91.5891 137.751 90.7476 134.398 90.8878C129.617 91.1046 124.873 93.1063 122.502 97.2628C121.716 98.6088 121.253 100.119 121.151 101.674C121.151 102.07 120.334 108.572 122.425 113.494C122.897 114.74 123.652 115.859 124.629 116.764C125.607 117.669 126.782 118.335 128.061 118.708C126 121.441 124.109 124.298 122.4 127.264C122.005 128.092 122.298 128.539 122.872 128.539C123.446 128.539 124.21 128.386 124.746 128.411C123.904 130.719 121.762 136.737 121.24 139.121C118.618 140.886 116.258 143.011 114.227 145.432C110.402 149.818 108.617 154.574 104.282 157.111L103.007 157.825C104.741 152.56 108.018 142.105 106.832 142.092C105.646 142.079 102.765 152.139 100.929 158.96C98.9655 160.044 97.971 160.732 97.2825 162.874C97.058 163.416 96.9425 163.997 96.9425 164.583C96.9425 165.169 97.058 165.75 97.2825 166.291C97.3643 166.465 97.4893 166.615 97.6455 166.727C97.8018 166.838 97.9841 166.908 98.175 166.929C98.328 166.929 98.328 166.789 97.9072 167.719C97.7067 167.777 97.5172 167.867 97.3462 167.987L91.2135 164.251C91.0732 164.251 92.8327 164.009 55.5135 168.867C54.8122 168.344 54.0727 167.796 53.3077 167.197C34.9732 152.929 94.8473 137.617 99.6413 118.122C103.938 100.667 79.2412 97.1481 84.7237 80.7516C90.2062 64.3551 126.059 68.9451 159.808 66.9816C193.558 65.0181 206.984 30.9501 182.414 13.2021C157.845 -4.54592 132.6 20.6608 126.633 27.0996C120.666 33.5383 113.781 41.9661 94.452 41.1246C75.123 40.2831 49.827 43.5598 40.5577 71.5843C36.0952 84.9973 40.0987 94.4068 46.053 101.866C48.0472 99.8366 50.5136 98.334 53.2312 97.4923C54.8122 97.1098 56.3805 97.3138 56.8267 98.8821C57.6682 101.764 54.1747 106.239 52.1475 108.47C57.2475 113.392 62.1435 117.548 64.0687 121.845C67.2817 129.061 51.8797 134.404 45.3772 138.624C38.8747 142.844 28.9425 155.9 35.037 168.574C35.4948 169.544 36.0056 170.489 36.567 171.404C23.6385 173.074 23.1922 173.074 23.0647 173.151C22.9372 173.227 22.9755 173.457 23.0647 173.584H22.9755C24.123 174.859 57.8977 223.131 78.6292 247.662L78.999 247.738C83.487 245.584 164.934 206.046 160.599 203.611C160.599 203.611 101.057 170.371 99.6413 169.53C99.8626 169.15 100.054 168.753 100.215 168.344C100.285 168.339 100.352 168.309 100.403 168.26C100.454 168.211 100.487 168.146 100.495 168.076V167.388C101.286 167.656 102.523 166.891 103.16 166.317C104.435 165.144 106.348 161.88 107.763 161.446C110.585 160.743 113.369 159.892 116.101 158.896C127.462 154.638 132.179 149.869 137.126 142.168C137.944 140.965 138.64 139.684 139.205 138.343C142.091 141.461 145.601 143.937 149.507 145.611C139.205 157.507 140.824 165.055 144.547 169.173C147.951 172.934 153.472 171.608 154.377 171.328C154.377 176.989 156.29 189.56 156.927 190.822C157.258 191.549 156.149 192.097 155.92 193.538C155.799 194.27 155.894 195.022 156.193 195.701C156.492 196.38 156.981 196.957 157.603 197.363C159.018 198.256 161.428 198.307 160.484 196.891C160.17 196.487 159.815 196.115 159.426 195.782C159.796 195.897 160.204 196.05 160.701 196.228C165.355 198.052 165.967 198.88 166.821 198.638C166.936 198.611 167.043 198.56 167.136 198.487C167.228 198.415 167.303 198.322 167.356 198.217C167.458 198.288 167.574 198.336 167.695 198.359C167.817 198.381 167.942 198.378 168.062 198.349C168.183 198.32 168.296 198.267 168.394 198.191C168.492 198.116 168.573 198.02 168.632 197.911C168.675 197.829 168.698 197.737 168.698 197.644C168.698 197.55 168.675 197.458 168.632 197.376C168.793 197.104 168.848 196.781 168.785 196.471C168.785 195.323 164.399 191.575 163.506 190.835C163.634 189.56 164.309 186.73 165.992 179.207C174.688 189.012 203.924 175.382 205.517 174.694C205.785 174.974 216.584 170.371 217.834 169.708C217.706 169.708 231.527 163.461 232.05 161.166C232.05 160.63 231.706 160.286 231.298 160.044ZM181.981 44.6053C182.192 44.612 182.391 44.7013 182.537 44.854C182.682 45.0067 182.762 45.2104 182.758 45.4213C182.762 45.5262 182.744 45.6307 182.707 45.7287C182.67 45.8268 182.613 45.9164 182.541 45.9923C182.468 46.0683 182.381 46.1291 182.285 46.1711C182.189 46.2132 182.086 46.2357 181.981 46.2373C181.875 46.2357 181.771 46.2132 181.674 46.1713C181.577 46.1294 181.49 46.0688 181.416 45.9931C181.343 45.9173 181.285 45.8278 181.246 45.7297C181.208 45.6316 181.189 45.5268 181.19 45.4213C181.189 45.3158 181.208 45.211 181.246 45.1129C181.285 45.0148 181.343 44.9254 181.416 44.8496C181.49 44.7738 181.577 44.7132 181.674 44.6713C181.771 44.6294 181.875 44.607 181.981 44.6053ZM174.777 22.3438C174.88 22.3438 174.982 22.3643 175.078 22.4042C175.173 22.4441 175.259 22.5025 175.332 22.5761C175.404 22.6497 175.461 22.7369 175.499 22.8328C175.538 22.9286 175.556 23.0311 175.555 23.1343C175.569 23.2439 175.559 23.3553 175.527 23.461C175.495 23.5667 175.44 23.6643 175.367 23.7473C175.294 23.8303 175.205 23.8968 175.104 23.9424C175.003 23.9879 174.894 24.0115 174.783 24.0115C174.673 24.0115 174.564 23.9879 174.463 23.9424C174.362 23.8968 174.272 23.8303 174.199 23.7473C174.126 23.6643 174.072 23.5667 174.04 23.461C174.007 23.3553 173.998 23.2439 174.012 23.1343C174.01 23.0322 174.029 22.9307 174.066 22.8357C174.104 22.7407 174.16 22.654 174.231 22.5806C174.302 22.5072 174.387 22.4485 174.48 22.4079C174.574 22.3673 174.675 22.3455 174.777 22.3438ZM150.807 57.5211C150.716 57.5045 150.634 57.4565 150.574 57.3855C150.515 57.3144 150.482 57.2248 150.482 57.1322C150.482 57.0396 150.515 56.95 150.574 56.8789C150.634 56.8079 150.716 56.7599 150.807 56.7433C150.914 56.7433 151.016 56.7856 151.091 56.861C151.166 56.9363 151.209 57.0384 151.209 57.145C151.209 57.2515 151.166 57.3536 151.091 57.4289C151.016 57.5043 150.914 57.5466 150.807 57.5466V57.5211ZM147.339 22.4968C147.339 21.9868 148.614 21.7318 149.175 21.6553C150.102 21.5329 151.041 21.5329 151.967 21.6553C152.542 20.6007 153.249 19.6238 154.071 18.7483C154.339 18.5316 154.581 18.4551 154.823 18.7483C155.4 19.9127 155.771 21.1679 155.92 22.4586C157.896 22.9686 160.65 23.9121 158.992 25.0978C158.482 25.4676 157.577 25.8501 156.596 26.3728C156.705 27.4017 156.739 28.4372 156.698 29.4711C156.698 29.9428 156.57 30.6568 156.098 30.7461C155.142 30.9118 154.402 29.5858 152.898 28.2853C151.457 28.9993 148.576 30.5803 148.512 29.0631C148.668 27.769 149.052 26.5128 149.647 25.3528C148.181 23.9631 147.25 23.2873 147.339 22.5223V22.4968ZM146.064 45.9441C146.061 46.834 145.829 47.7082 145.39 48.4822C144.95 49.2562 144.319 49.9039 143.556 50.3627C142.794 50.8215 141.926 51.076 141.036 51.1016C140.147 51.1271 139.265 50.9229 138.478 50.5086L145.898 44.6181C146.012 45.0597 146.072 45.5135 146.077 45.9696L146.064 45.9441ZM145.745 44.1463C143.705 45.7146 140.964 47.9713 138.223 50.3556C138.016 50.2312 137.82 50.0905 137.636 49.9348C140.301 47.2446 142.915 44.2101 144.534 42.2848C145.067 42.8232 145.484 43.4655 145.758 44.1718L145.745 44.1463ZM144.253 42.0171C143.743 42.5653 139.307 47.5633 137.394 49.6671C136.85 49.1672 136.415 48.5592 136.119 47.8821C138.057 46.4796 140.696 44.5288 143.629 42.2211L144.088 41.8513L144.253 42.0171ZM140.9 40.7421C141.923 40.741 142.923 41.0475 143.769 41.6218L141.971 42.8968C141.563 43.2028 138.465 45.6381 136.017 47.5506C135.757 46.7735 135.685 45.9459 135.807 45.1356C135.928 44.3254 136.24 43.5554 136.717 42.8887C137.193 42.2221 137.82 41.6777 138.547 41.3002C139.275 40.9226 140.081 40.7226 140.9 40.7166V40.7421ZM128.609 38.6511C128.764 38.646 128.917 38.6873 129.048 38.7696C129.179 38.8519 129.283 38.9715 129.346 39.1131C129.409 39.2547 129.428 39.4118 129.401 39.5643C129.373 39.7168 129.301 39.8578 129.194 39.9691C129.086 40.0805 128.948 40.1571 128.796 40.1892C128.645 40.2214 128.487 40.2075 128.343 40.1495C128.2 40.0914 128.077 39.9918 127.99 39.8635C127.903 39.7351 127.857 39.5837 127.857 39.4288C127.87 39.2349 127.956 39.0532 128.098 38.9206C128.24 38.788 128.428 38.7144 128.622 38.7148L128.609 38.6511ZM121.584 57.9546C121.882 57.9646 122.17 58.062 122.413 58.2347C122.655 58.4074 122.842 58.6477 122.949 58.9257C123.056 59.2036 123.079 59.507 123.015 59.7979C122.95 60.0887 122.802 60.3543 122.588 60.5614C122.374 60.7685 122.104 60.9081 121.811 60.9626C121.518 61.0171 121.215 60.9842 120.941 60.868C120.667 60.7519 120.433 60.5575 120.268 60.3092C120.104 60.0609 120.016 59.7697 120.016 59.4718C120.026 59.0637 120.196 58.6759 120.489 58.3921C120.783 58.1082 121.176 57.9511 121.584 57.9546ZM101.745 54.3591C102.293 54.3591 102.293 55.3408 101.745 55.3408C101.197 55.3408 101.184 54.3591 101.745 54.3591ZM49.8907 82.5493C49.8302 82.56 49.7681 82.5573 49.7088 82.5413C49.6495 82.5254 49.5943 82.4967 49.5473 82.4572C49.5002 82.4177 49.4624 82.3684 49.4364 82.3127C49.4105 82.2571 49.397 82.1964 49.397 82.1349C49.397 82.0735 49.4105 82.0128 49.4364 81.9572C49.4624 81.9015 49.5002 81.8522 49.5473 81.8127C49.5943 81.7732 49.6495 81.7445 49.7088 81.7286C49.7681 81.7126 49.8302 81.7099 49.8907 81.7206C49.9512 81.7099 50.0133 81.7126 50.0727 81.7286C50.132 81.7445 50.1871 81.7732 50.2342 81.8127C50.2813 81.8522 50.3191 81.9015 50.345 81.9572C50.371 82.0128 50.3845 82.0735 50.3845 82.1349C50.3845 82.1964 50.371 82.2571 50.345 82.3127C50.3191 82.3684 50.2813 82.4177 50.2342 82.4572C50.1871 82.4967 50.132 82.5254 50.0727 82.5413C50.0133 82.5573 49.9512 82.56 49.8907 82.5493ZM77.3032 132.606C77.1319 132.586 76.97 132.517 76.837 132.407C76.704 132.298 76.6057 132.152 76.5539 131.987C76.5022 131.823 76.4992 131.647 76.5453 131.48C76.5915 131.314 76.6848 131.165 76.8139 131.051C76.9431 130.936 77.1026 130.862 77.2732 130.837C77.4437 130.811 77.618 130.835 77.775 130.907C77.932 130.978 78.0649 131.094 78.1577 131.239C78.2504 131.384 78.2991 131.554 78.2977 131.726C78.2813 131.974 78.1677 132.206 77.9814 132.37C77.7952 132.535 77.5515 132.62 77.3032 132.606ZM80.325 47.3338C80.4995 47.3313 80.6708 47.3807 80.8172 47.4759C80.9635 47.571 81.0783 47.7075 81.1468 47.868C81.2154 48.0285 81.2346 48.2058 81.2021 48.3773C81.1696 48.5487 81.0869 48.7067 80.9644 48.831C80.8418 48.9553 80.6851 49.0404 80.5141 49.0754C80.3431 49.1104 80.1656 49.0937 80.0041 49.0275C79.8426 48.9613 79.7044 48.8486 79.6072 48.7036C79.5099 48.5587 79.458 48.3881 79.458 48.2136C79.458 47.9824 79.5489 47.7606 79.7111 47.596C79.8734 47.4313 80.0939 47.3372 80.325 47.3338ZM81.0645 93.1191C81.0633 93.2436 81.0264 93.3652 80.9581 93.4693C80.8899 93.5735 80.7932 93.6559 80.6794 93.7066C80.5657 93.7574 80.4398 93.7745 80.3167 93.7558C80.1936 93.7371 80.0784 93.6835 79.9849 93.6012C79.8914 93.519 79.8234 93.4116 79.7892 93.2919C79.7549 93.1722 79.7557 93.0451 79.7915 92.9259C79.8273 92.8066 79.8966 92.7001 79.9912 92.6191C80.0858 92.5381 80.2016 92.4859 80.325 92.4688C80.4146 92.4618 80.5047 92.4734 80.5895 92.5029C80.6744 92.5324 80.7522 92.5792 80.8181 92.6403C80.884 92.7014 80.9365 92.7755 80.9724 92.8579C81.0082 92.9403 81.0265 93.0292 81.0262 93.1191H81.0645ZM81.3577 111.951C82.1227 111.352 84.3795 109.49 85.0552 110.077C85.731 110.663 85.1445 111.9 85.0552 113.659C86.4705 114.335 89.403 115.623 88.2555 116.439C87.1318 116.988 85.9259 117.35 84.6855 117.51C84.4687 119.359 84.4815 120.302 83.8567 120.621C83.4232 120.825 82.467 120.047 82.11 119.716C81.4241 119.131 80.8233 118.452 80.325 117.701C79.1605 117.842 77.9833 117.842 76.8187 117.701C76.5127 117.625 76.2832 117.484 76.347 117.178C76.4873 116.477 78.0682 114.985 78.591 114.488C78.2595 113.761 77.4817 111.938 77.7495 111.211C78.132 110.204 79.7767 111.313 81.3195 111.951H81.3577ZM77.214 70.8703C77.4818 70.8703 77.622 71.0616 77.5837 71.3931C77.3169 72.3392 76.9131 73.2413 76.3852 74.0706C76.932 74.643 77.3994 75.2863 77.775 75.9831C79.05 78.4438 77.2777 77.8191 74.6512 77.2581C74.0319 78.1789 73.2447 78.9747 72.3307 79.6041C71.145 80.1906 70.8772 77.6916 70.6732 76.2763C68.8755 75.8046 67.4475 75.8683 67.0777 75.1416C66.708 74.4148 69.462 73.3056 70.2525 72.9486C70.1632 71.6736 69.615 69.9651 70.7115 70.0161C71.8227 70.3518 72.843 70.9361 73.695 71.7246C74.8154 71.2554 76.0032 70.967 77.214 70.8703ZM60.9705 106.494C60.8283 106.517 60.6828 106.509 60.5441 106.47C60.4054 106.431 60.2768 106.363 60.1671 106.269C60.0574 106.176 59.9693 106.06 59.9089 105.929C59.8485 105.798 59.8173 105.656 59.8173 105.512C59.8173 105.368 59.8485 105.226 59.9089 105.095C59.9693 104.964 60.0574 104.848 60.1671 104.755C60.2768 104.661 60.4054 104.593 60.5441 104.554C60.6828 104.516 60.8283 104.507 60.9705 104.53C61.1127 104.507 61.2582 104.516 61.3969 104.554C61.5356 104.593 61.6642 104.661 61.7739 104.755C61.8836 104.848 61.9716 104.964 62.032 105.095C62.0924 105.226 62.1237 105.368 62.1237 105.512C62.1237 105.656 62.0924 105.798 62.032 105.929C61.9716 106.06 61.8836 106.176 61.7739 106.269C61.6642 106.363 61.5356 106.431 61.3969 106.47C61.2582 106.509 61.1127 106.517 60.9705 106.494ZM53.7795 67.9761C53.7325 67.9644 53.6908 67.9374 53.661 67.8993C53.6311 67.8611 53.6149 67.8141 53.6149 67.7657C53.6149 67.7173 53.6311 67.6703 53.661 67.6322C53.6908 67.594 53.7325 67.567 53.7795 67.5553C56.5717 67.3641 59.7465 67.2748 62.5387 67.2748C60.2117 65.6427 57.7204 64.2581 55.1055 63.1438C55.0501 63.1268 55.0032 63.0894 54.9742 63.0393C54.9452 62.9891 54.9363 62.9298 54.9492 62.8733C54.9621 62.8168 54.9959 62.7673 55.0438 62.7347C55.0917 62.7021 55.1502 62.6889 55.2075 62.6976C58.1057 62.7285 60.9566 63.4358 63.5332 64.7631C61.8385 63.0743 60.0462 61.4863 58.1655 60.0073C58.1252 59.9747 58.0979 59.9287 58.0887 59.8777C58.0794 59.8267 58.0887 59.774 58.1149 59.7293C58.1411 59.6845 58.1825 59.6507 58.2316 59.6339C58.2806 59.617 58.3341 59.6184 58.3822 59.6376C61.5961 60.6739 64.6131 62.2427 67.3072 64.2786C69.9667 66.2274 72.2737 68.6162 74.1285 71.3421C74.1285 71.4568 74.0137 71.5461 73.9372 71.4313C72.0836 68.7232 69.781 66.3516 67.1287 64.4188C64.7661 62.686 62.1631 61.3072 59.4022 60.3261C60.333 61.0783 64.107 64.1511 64.6042 65.2858C64.7062 65.4898 64.4512 65.6811 64.2345 65.5536C62.8728 64.7952 61.4263 64.2003 59.925 63.7813C58.755 63.4313 57.5485 63.2174 56.3295 63.1438C57.7957 63.8451 62.3475 66.0763 63.2782 67.4023C63.3021 67.4378 63.3155 67.4793 63.317 67.522C63.3186 67.5647 63.3082 67.607 63.2869 67.6441C63.2657 67.6812 63.2346 67.7116 63.197 67.732C63.1594 67.7524 63.1169 67.7618 63.0742 67.7593C62.934 67.7593 59.415 67.7593 55.6792 67.8868C60.0907 68.7283 65.8792 70.3476 69.564 72.9868C69.666 73.0633 69.564 73.2163 69.4365 73.1398C65.433 70.3476 58.5097 68.6136 53.7795 67.9761ZM125.97 94.3048C130.318 91.0281 138.937 90.1611 142.711 94.3048C143.822 95.3885 144.696 96.692 145.275 98.1321C145.855 99.5722 146.128 101.117 146.077 102.669C145.78 105.481 144.571 108.118 142.634 110.179C142.405 110.408 142.405 110.179 142.481 110.064C142.701 109.749 142.846 109.388 142.906 109.009C142.967 108.63 142.941 108.242 142.831 107.874C142.72 107.507 142.529 107.169 142.269 106.885C142.01 106.602 141.69 106.381 141.334 106.239C138.924 105.142 138.197 109.184 136.438 109.681C134.908 110.128 135.481 106.558 135.596 104.173C135.757 103.125 135.515 102.055 134.921 101.177C133.862 100.041 132.552 99.1675 131.096 98.6271C128.542 97.5988 125.77 97.2348 123.037 97.5688C123.783 96.2931 124.781 95.1826 125.97 94.3048ZM122.948 113.315C120.845 108.343 121.762 101.738 121.762 101.738C121.865 100.397 122.252 99.0932 122.897 97.9131C125.652 97.633 128.433 98.0723 130.968 99.1881C132.347 99.7044 133.59 100.529 134.602 101.598C135.877 103.281 134.602 106.494 135.01 109.006C135.163 109.987 135.622 110.612 136.578 110.281C138.554 109.72 139.217 105.971 141.117 106.838C143.017 107.705 142.673 110.191 140.428 111.135C139.562 111.505 139.638 112.333 140.301 112.41C140.645 112.41 141.321 112.219 142.354 111.39C143.866 109.912 145.056 108.136 145.847 106.175C147.62 106.549 149.335 107.158 150.947 107.986C153.217 109.018 155.894 110.459 158.011 111.696C154.785 112.465 151.845 114.136 149.533 116.513C147.221 118.89 145.633 121.876 144.955 125.122C144.47 125.122 144.508 124.433 144.177 124.178C143.846 123.923 143.642 124.178 143.246 124.306C143.254 123.992 143.184 123.681 143.042 123.4C143.042 122.661 141.831 123.094 141.13 123.324C141.138 123.008 141.091 122.693 140.99 122.393C141.283 121.45 139.574 121.921 138.618 122.189C138.69 121.827 138.69 121.455 138.618 121.093C138.707 120.353 137.088 120.825 136.412 121.093C136.47 120.667 136.444 120.233 136.336 119.818C135.979 119.32 134.092 120.366 134.015 119.894C134.022 119.545 134.091 119.199 134.219 118.874C134.436 118.096 133.378 118.581 133.072 118.53C133.06 118.537 133.047 118.54 133.033 118.54C133.02 118.54 133.007 118.537 132.995 118.53V118.377C134.062 118.085 135.086 117.656 136.042 117.102C136.529 117.818 137.258 118.335 138.095 118.555C138.856 118.782 139.666 118.784 140.427 118.561C141.189 118.338 141.87 117.9 142.389 117.3C142.907 116.699 143.241 115.961 143.35 115.175C143.46 114.389 143.339 113.588 143.004 112.869C143.004 112.729 142.724 112.869 142.787 112.958C142.952 113.447 143.017 113.963 142.977 114.478C142.938 114.992 142.794 115.492 142.556 115.95C142.318 116.407 141.99 116.812 141.591 117.139C141.193 117.466 140.732 117.709 140.237 117.854L137.152 115.954C137.037 115.878 137.05 115.954 136.374 116.388C135.95 115.551 135.836 114.591 136.053 113.678C136.271 112.765 136.804 111.959 137.56 111.403C138.451 110.805 139.51 110.51 140.582 110.561C140.607 110.553 140.629 110.536 140.645 110.515C140.661 110.493 140.669 110.467 140.669 110.44C140.669 110.413 140.661 110.387 140.645 110.365C140.629 110.343 140.607 110.327 140.582 110.319C139.433 110.18 138.272 110.427 137.279 111.02C136.378 111.619 135.732 112.531 135.465 113.579C135.199 114.628 135.332 115.738 135.839 116.694C133.578 117.98 130.985 118.561 128.392 118.364C127.149 118.015 126.007 117.375 125.061 116.497C124.114 115.619 123.39 114.528 122.948 113.315ZM142.8 124.637C143.135 124.565 143.46 124.454 143.769 124.306C144.33 124.102 144.177 125.224 144.891 125.236C144.763 125.836 144.687 126.307 144.649 126.601C144.049 126.384 143.489 126.142 142.928 125.912C142.952 125.483 142.909 125.053 142.8 124.637ZM142.8 124.357C142.8 124.357 142.8 124.293 142.928 123.859C142.959 124.02 143.024 124.172 143.119 124.306L142.8 124.344V124.357ZM142.673 124.599C142.607 125.021 142.607 125.451 142.673 125.874C141.78 125.504 140.951 125.122 140.123 124.739C140.122 124.498 140.074 124.26 139.982 124.038C140.569 124.038 142.532 123.094 142.621 123.375C142.711 123.655 142.252 124.344 142.673 124.599ZM139.855 123.949C139.852 124.148 139.882 124.346 139.944 124.535C139.613 124.382 138.248 123.694 137.904 123.515C137.898 123.243 137.855 122.973 137.776 122.712C138.541 122.606 139.295 122.44 140.033 122.215C140.122 122.215 140.696 122.138 140.645 122.215C140.594 122.584 139.294 123.655 139.855 123.949ZM137.623 123.362C136.973 123.018 136.348 122.686 135.864 122.38C135.873 122.11 135.825 121.841 135.724 121.59C135.929 121.625 136.141 121.589 136.323 121.488C136.909 121.221 137.541 121.07 138.185 121.042C137.915 121.353 137.683 121.695 137.496 122.062C137.446 122.499 137.489 122.943 137.623 123.362ZM135.571 122.215L134.156 121.36C134.184 120.982 134.145 120.603 134.041 120.238C134.449 120.328 135.507 119.907 135.992 119.945C135.761 120.258 135.552 120.586 135.367 120.927C135.367 121.364 135.436 121.799 135.571 122.215ZM136.119 120.366C136.087 120.62 136.087 120.877 136.119 121.131C136.03 121.131 135.736 121.271 135.711 121.131C135.686 120.991 135.966 120.519 136.119 120.366ZM138.363 121.462C138.355 121.712 138.385 121.961 138.452 122.202C138.256 122.274 138.049 122.313 137.84 122.317C137.84 122.317 137.789 122.138 138.363 121.462ZM140.811 122.737C140.828 122.947 140.875 123.153 140.951 123.349C140.697 123.446 140.438 123.527 140.174 123.592C140.326 123.362 140.531 123.069 140.811 122.725V122.737ZM133.786 120.085C133.78 120.468 133.827 120.85 133.926 121.22C133.709 121.087 133.496 120.947 133.289 120.799L132.995 118.657C133.314 118.657 133.977 118.466 133.977 118.657C133.977 118.849 133.442 119.69 133.786 120.073V120.085ZM136.514 116.643C136.693 116.528 136.884 116.388 137.062 116.248L139.867 117.969C139.245 118.094 138.6 118.041 138.007 117.815C137.414 117.59 136.896 117.201 136.514 116.694V116.643ZM122.859 127.965C122.553 127.876 124.312 125.147 124.517 124.828C125.141 123.821 128.163 119.155 128.418 118.772C129.472 118.834 130.529 118.77 131.567 118.581C131.771 126.129 133.135 129.265 134.793 132.211C133.939 131.943 133.072 132.338 132.319 132.07C131.261 131.713 131.299 130.183 129.769 130.094C128.77 130.212 127.808 130.547 126.952 131.076C126.608 131.216 126.531 131.076 126.442 130.923C126.316 130.061 126.128 129.208 125.881 128.373C125.294 127.366 123.458 128.169 122.859 127.965ZM91.0732 164.583L97.0912 168.217C96.7406 168.548 96.3609 168.846 95.9565 169.109C94.9748 169.632 93.9548 169.237 93.942 170.014C88.4468 172.118 80.172 181.821 90.4867 190.682C103.67 201.991 118.677 206.505 104.716 217.291C100.891 220.288 96.951 219.841 92.3993 216.896C87.4013 213.619 87.4522 199.186 82.6582 190.274C74.6895 175.446 71.4 180.444 55.998 169.3L91.0732 164.583ZM108.783 218.133C108.766 218.133 108.75 218.13 108.734 218.123C108.719 218.117 108.705 218.107 108.693 218.095C108.681 218.084 108.672 218.07 108.665 218.054C108.659 218.039 108.655 218.022 108.655 218.005C108.655 217.989 108.659 217.972 108.665 217.957C108.672 217.941 108.681 217.927 108.693 217.915C108.705 217.903 108.719 217.894 108.734 217.888C108.75 217.881 108.766 217.878 108.783 217.878C108.809 217.886 108.831 217.902 108.846 217.924C108.862 217.946 108.871 217.972 108.871 217.999C108.871 218.026 108.862 218.052 108.846 218.074C108.831 218.095 108.809 218.112 108.783 218.12V218.133ZM102.255 221.958C102.202 221.968 102.147 221.966 102.094 221.952C102.041 221.939 101.992 221.914 101.951 221.879C101.909 221.844 101.875 221.801 101.852 221.752C101.829 221.702 101.817 221.649 101.817 221.594C101.817 221.54 101.829 221.486 101.852 221.437C101.875 221.388 101.909 221.345 101.951 221.31C101.992 221.275 102.041 221.25 102.094 221.236C102.147 221.223 102.202 221.221 102.255 221.231C102.358 221.231 102.457 221.272 102.53 221.345C102.603 221.418 102.644 221.517 102.644 221.62C102.644 221.723 102.603 221.822 102.53 221.895C102.457 221.968 102.358 222.009 102.255 222.009V221.958ZM85.833 221.065C85.9636 220.687 86.1576 220.333 86.4067 220.02C85.833 219.229 85.4888 218.834 86.4832 218.885C86.7746 218.907 87.0619 218.967 87.3375 219.064C88.3575 217.942 88.536 218.018 88.4978 219.548C88.7528 219.676 89.352 219.982 89.4667 220.237C89.5815 220.492 88.9312 220.645 88.4722 220.785C88.4722 221.091 88.3575 222.06 88.0642 222.06C87.771 222.06 87.6053 221.588 87.2228 221.104C86.7 221.244 85.7692 221.575 85.833 221.116V221.065ZM85.6673 204.822C85.6138 204.832 85.5589 204.83 85.5063 204.816C85.4536 204.803 85.4047 204.778 85.3628 204.743C85.321 204.708 85.2873 204.665 85.2642 204.616C85.2411 204.566 85.2291 204.513 85.2291 204.458C85.2291 204.404 85.2411 204.35 85.2642 204.301C85.2873 204.252 85.321 204.209 85.3628 204.174C85.4047 204.139 85.4536 204.114 85.5063 204.1C85.5589 204.087 85.6138 204.085 85.6673 204.095C85.7704 204.095 85.8693 204.136 85.9422 204.209C86.0152 204.282 86.0561 204.381 86.0561 204.484C86.0561 204.587 86.0152 204.686 85.9422 204.759C85.8693 204.832 85.7704 204.873 85.6673 204.873V204.822ZM70.2652 186.334C70.2118 186.344 70.1569 186.343 70.1042 186.329C70.0516 186.315 70.0027 186.29 69.9608 186.256C69.919 186.221 69.8853 186.177 69.8622 186.128C69.8391 186.079 69.8271 186.025 69.8271 185.971C69.8271 185.917 69.8391 185.863 69.8622 185.814C69.8853 185.765 69.919 185.721 69.9608 185.686C70.0027 185.652 70.0516 185.627 70.1042 185.613C70.1569 185.599 70.2118 185.598 70.2652 185.608C70.3187 185.598 70.3736 185.599 70.4262 185.613C70.4789 185.627 70.5278 185.652 70.5697 185.686C70.6115 185.721 70.6452 185.765 70.6683 185.814C70.6914 185.863 70.7034 185.917 70.7034 185.971C70.7034 186.025 70.6914 186.079 70.6683 186.128C70.6452 186.177 70.6115 186.221 70.5697 186.256C70.5278 186.29 70.4789 186.315 70.4262 186.329C70.3736 186.343 70.3187 186.344 70.2652 186.334ZM65.1652 178.378C65.1118 178.388 65.0569 178.387 65.0042 178.373C64.9516 178.359 64.9027 178.334 64.8608 178.3C64.819 178.265 64.7853 178.221 64.7622 178.172C64.7391 178.123 64.7271 178.069 64.7271 178.015C64.7271 177.961 64.7391 177.907 64.7622 177.858C64.7853 177.809 64.819 177.765 64.8608 177.73C64.9027 177.696 64.9516 177.671 65.0042 177.657C65.0569 177.643 65.1118 177.642 65.1652 177.652C65.2179 177.639 65.2727 177.639 65.3256 177.65C65.3786 177.661 65.4285 177.683 65.4718 177.716C65.5151 177.748 65.5507 177.79 65.5762 177.838C65.6016 177.885 65.6163 177.938 65.6192 177.992C65.622 178.046 65.6129 178.1 65.5926 178.15C65.5723 178.2 65.5413 178.246 65.5016 178.282C65.462 178.319 65.4147 178.347 65.3632 178.363C65.3117 178.38 65.2572 178.385 65.2035 178.378H65.1652ZM50.2095 175.828C50.2629 175.818 50.3179 175.82 50.3705 175.834C50.4231 175.847 50.4721 175.872 50.5139 175.907C50.5557 175.942 50.5894 175.985 50.6125 176.034C50.6356 176.084 50.6476 176.137 50.6476 176.192C50.6476 176.246 50.6356 176.3 50.6125 176.349C50.5894 176.398 50.5557 176.442 50.5139 176.476C50.4721 176.511 50.4231 176.536 50.3705 176.55C50.3179 176.563 50.2629 176.565 50.2095 176.555C50.1558 176.562 50.1013 176.557 50.0498 176.54C49.9983 176.524 49.951 176.496 49.9114 176.459C49.8717 176.422 49.8407 176.377 49.8204 176.327C49.8 176.277 49.791 176.223 49.7938 176.169C49.7967 176.115 49.8114 176.062 49.8368 176.014C49.8623 175.967 49.8979 175.925 49.9412 175.892C49.9845 175.86 50.0344 175.837 50.0873 175.826C50.1403 175.815 50.1951 175.816 50.2477 175.828H50.2095ZM41.8072 150.328C42.3345 149.904 42.9352 149.58 43.5795 149.372C43.5795 147.715 43.452 146.822 44.7652 147.804C45.1488 148.117 45.4915 148.476 45.7852 148.875C46.3771 148.696 46.9903 148.597 47.6085 148.582C47.787 148.582 47.9017 148.684 47.889 148.862C47.6711 149.52 47.3435 150.137 46.92 150.685C47.2878 151.257 47.515 151.908 47.583 152.585C47.4682 153.21 46.4865 152.662 45.696 152.432C45.3517 152.84 44.2935 154.192 43.8982 153.886C43.503 153.58 43.7197 152.789 43.6687 151.718C42.891 151.438 41.31 150.928 41.8455 150.328H41.8072ZM37.1152 161.574C37.1687 161.564 37.2236 161.566 37.2762 161.579C37.3289 161.593 37.3778 161.618 37.4197 161.653C37.4615 161.687 37.4952 161.731 37.5183 161.78C37.5414 161.829 37.5534 161.883 37.5534 161.937C37.5534 161.992 37.5414 162.045 37.5183 162.094C37.4952 162.144 37.4615 162.187 37.4197 162.222C37.3778 162.256 37.3289 162.282 37.2762 162.295C37.2236 162.309 37.1687 162.311 37.1152 162.301C37.0616 162.307 37.007 162.302 36.9555 162.286C36.904 162.269 36.8568 162.241 36.8171 162.205C36.7775 162.168 36.7464 162.123 36.7261 162.073C36.7058 162.022 36.6967 161.968 36.6996 161.914C36.7024 161.86 36.7171 161.808 36.7426 161.76C36.768 161.712 36.8037 161.67 36.8469 161.638C36.8902 161.605 36.9401 161.583 36.9931 161.572C37.0461 161.561 37.1008 161.561 37.1535 161.574H37.1152ZM160.089 203.917C155.422 209.998 85.7437 243.811 78.9607 247.088C63.036 228.18 38.25 193.704 23.715 173.584L36.8475 171.863C45.033 184.779 57.579 181.783 64.311 185.888C71.8845 190.516 75.786 194.01 78.081 202.986C81.2048 215.188 77.265 220.453 86.394 224.342C95.1405 228.052 112.506 226.561 119.544 214.486C126.582 202.412 112.799 197.134 100.419 191.536C88.0387 185.939 90.219 178.187 91.902 175.994C93.1871 174.326 94.6779 172.826 96.339 171.532C96.9672 171.534 97.585 171.371 98.1308 171.06C98.6766 170.749 99.1315 170.301 99.45 169.759C100.942 170.563 157.526 202.45 160.127 203.917H160.089ZM112.914 218.949C112.931 218.949 112.947 218.952 112.963 218.959C112.978 218.965 112.992 218.974 113.004 218.986C113.016 218.998 113.025 219.012 113.032 219.028C113.038 219.043 113.042 219.06 113.042 219.076C113.042 219.093 113.038 219.11 113.032 219.125C113.025 219.141 113.016 219.155 113.004 219.166C112.992 219.178 112.978 219.188 112.963 219.194C112.947 219.201 112.931 219.204 112.914 219.204C112.897 219.203 112.881 219.199 112.866 219.192C112.851 219.184 112.837 219.174 112.826 219.162C112.814 219.15 112.806 219.135 112.8 219.119C112.795 219.103 112.792 219.087 112.793 219.07C112.794 219.053 112.798 219.037 112.805 219.022C112.812 219.006 112.822 218.993 112.835 218.982C112.847 218.97 112.862 218.962 112.877 218.956C112.893 218.95 112.91 218.948 112.927 218.949H112.914ZM116.178 206.033C116.025 206.135 115.796 206.033 115.439 205.855C114.878 206.479 114.61 206.658 114.674 205.6C114.125 205.421 113.819 205.332 114.329 205.039C114.482 204.955 114.645 204.891 114.814 204.847C114.954 203.968 115.069 203.955 115.553 204.694C115.788 204.637 116.033 204.637 116.267 204.694C116.446 204.796 116.153 205.039 115.949 205.281C116.025 205.459 116.331 205.944 116.191 206.033H116.178ZM97.359 170.767C96.8671 170.929 96.3394 170.949 95.8364 170.825C95.3335 170.701 94.8758 170.438 94.5157 170.065H94.6305C97.0403 169.696 96.6833 168.701 97.9327 168.089C98.0475 168.217 97.9327 168.178 99.96 168.331C99.4481 169.454 98.5132 170.33 97.359 170.767ZM100.304 165.667C100.12 166.01 100.048 166.402 100.1 166.789C100.1 166.878 100.011 167.286 99.96 167.668L98.583 167.554C98.583 167.49 99.4883 165.335 99.552 165.131H100.419L100.304 165.667ZM100.049 162.084C99.1695 163.729 98.7742 166.789 97.9965 166.253C97.7248 165.972 97.5698 165.598 97.563 165.208C97.522 164.472 97.626 163.736 97.869 163.04C98.0769 162.31 98.4428 161.635 98.9407 161.062C99.4387 160.489 100.057 160.033 100.75 159.725C100.075 162.326 100.266 161.74 100.049 162.135V162.084ZM100.967 164.009C101.171 163.41 101.452 162.53 101.847 161.383C102.013 161.293 102.051 161.383 102.268 161.918C102.612 162.811 100.598 165.08 100.598 165.08C100.725 164.71 100.865 164.353 100.967 164.06V164.009ZM136.973 141.913C132.473 148.684 129.132 151.718 123.879 154.663C118.758 157.387 113.313 159.452 107.674 160.809C105.404 161.51 103.505 166.546 101.018 166.776C100.738 166.776 100.547 166.776 100.776 166.138C101.35 164.545 103.428 163.219 102.829 161.701C102.753 161.473 102.65 161.255 102.523 161.051C102.419 160.884 102.262 160.758 102.076 160.694C102.153 160.439 102.408 159.7 102.752 158.654C103.045 158.45 103.249 158.386 104.588 157.596C109.076 154.944 110.836 150.188 114.61 145.738C116.603 143.3 118.929 141.154 121.52 139.363C121.711 139.249 121.393 139.44 122.872 134.773C123.726 132.083 124.72 129.24 125.014 128.398C125.069 128.406 125.122 128.426 125.168 128.457C125.214 128.488 125.253 128.529 125.282 128.577C125.613 129.202 125.549 130.4 125.83 131.127C126.493 132.733 128.137 130.579 129.655 130.617C130.93 130.617 130.93 132.083 132.205 132.453C133.161 132.733 134.117 132.147 135.01 132.568C136.179 134.556 137.555 136.415 139.115 138.114C138.536 139.468 137.818 140.758 136.973 141.964V141.913ZM144.802 142.321C140.942 139.563 137.717 136.011 135.341 131.905C133.773 129.176 132.319 126.129 131.822 118.479C132.123 118.426 132.421 118.358 132.715 118.275L132.982 120.825C134.387 121.888 135.87 122.843 137.419 123.681C137.419 123.681 136.336 129.814 141.244 137.706C143.603 141.582 144.802 142.372 144.802 142.372V142.321ZM168.504 158.769C168.734 161.548 166.209 176.721 165.865 178.786C165.844 178.794 165.826 178.806 165.81 178.821C165.795 178.837 165.783 178.855 165.776 178.876C165.941 178.251 163.073 187.903 162.856 190.924C162.856 191.167 162.856 191.052 165.036 192.939C165.775 193.589 168.313 195.744 168.44 196.496C168.499 196.692 168.499 196.9 168.44 197.095C167.301 195.889 165.943 194.911 164.437 194.214C164.423 194.204 164.408 194.198 164.392 194.194C164.376 194.191 164.359 194.191 164.343 194.194C164.327 194.197 164.312 194.204 164.299 194.213C164.285 194.222 164.274 194.234 164.265 194.248C164.256 194.262 164.25 194.278 164.248 194.294C164.245 194.31 164.246 194.327 164.25 194.343C164.255 194.358 164.262 194.373 164.272 194.386C164.282 194.399 164.295 194.41 164.309 194.418L165.342 195.259C166.375 195.961 167.325 196.778 168.172 197.695C168.045 198.013 167.765 198.039 167.433 197.95C167.433 197.287 164.526 195.68 163.608 195.132C163.468 195.055 163.34 195.259 163.48 195.336C164.761 196.075 165.954 196.956 167.038 197.962C166.63 198.88 165.393 197.567 160.892 195.718C160.081 195.354 159.223 195.105 158.342 194.979C158.283 194.975 158.223 194.99 158.173 195.022C158.122 195.054 158.083 195.102 158.062 195.157C157.947 195.489 158.304 195.476 159.451 196.636C159.695 196.85 159.906 197.1 160.076 197.376C159.312 197.466 158.541 197.286 157.896 196.866C157.385 196.524 156.982 196.044 156.734 195.482C156.485 194.92 156.402 194.299 156.493 193.691C156.71 192.416 157.973 191.766 157.45 190.631C156.927 189.496 155.856 182.127 155.703 181.069C154.288 171.493 154.823 171.289 154.555 171.213C154.555 157.927 154.976 157.876 154.874 157.188C154.874 157.048 152.018 137.438 151.993 137.285C152.834 137.285 153.434 138.216 153.905 138.981C154.594 140.077 155.18 140.791 156.557 140.371C157.934 139.95 159.107 138.79 160.382 138.331C161.657 137.872 162.333 138.331 163.723 138.777C164.258 139.032 164.863 139.105 165.444 138.983C166.024 138.861 166.549 138.551 166.936 138.101C169.154 136.252 168.109 135.793 172.648 137.578C171.768 141.008 169.792 150.698 169.753 150.851C168.948 153.414 168.527 156.082 168.504 158.769ZM151.84 136.66C150.84 137.021 149.864 137.447 148.92 137.935C148.703 137.935 148.614 137.935 148.55 137.68C148.155 135.857 152.796 114.271 164.36 113.455C169.639 113.098 173.285 122.572 174.879 127.621C175.927 130.83 176.741 134.111 177.314 137.438C177.544 139.746 170.812 135.424 168.874 135.87C168.109 136.048 167.764 136.699 166.668 137.617C165.572 138.535 165.01 138.535 164.042 138.19C162.897 137.563 161.555 137.399 160.293 137.731C158.941 138.216 157.82 139.351 156.468 139.771C155.32 140.141 154.964 139.351 154.313 138.331C153.663 137.311 153 136.444 151.84 136.609V136.66ZM170.837 148.696C171.373 146.58 172.316 142.194 173.018 137.604C174.191 138.063 176.753 139.185 177.607 138.369C177.735 138.232 177.827 138.067 177.876 137.887C177.924 137.707 177.929 137.518 177.888 137.336C177.426 134.645 176.787 131.987 175.976 129.38C174.267 123.706 170.276 112.805 164.335 113.175C152.273 114.016 147.568 135.781 147.976 137.744C147.988 137.87 148.029 137.992 148.095 138.1C148.161 138.208 148.252 138.3 148.359 138.367C148.466 138.435 148.587 138.477 148.713 138.491C148.839 138.504 148.967 138.489 149.086 138.445C149.813 138.267 150.845 137.476 151.789 137.26C151.929 139.58 152.197 142.666 152.758 146.656C150.607 145.81 148.53 144.787 146.549 143.596C142.548 139.711 139.728 134.774 138.414 129.355C137.966 127.581 137.709 125.764 137.649 123.936C139.964 125.229 142.367 126.358 144.84 127.315C144.881 127.331 144.925 127.337 144.969 127.333C145.013 127.329 145.055 127.314 145.093 127.29C145.13 127.267 145.161 127.235 145.184 127.197C145.206 127.159 145.22 127.116 145.223 127.072C145.689 123.47 147.215 120.089 149.608 117.357C152.047 114.655 155.286 112.805 158.852 112.078C158.91 112.069 158.963 112.042 159.004 112C159.046 111.959 159.073 111.906 159.083 111.849C159.093 111.791 159.085 111.732 159.059 111.679C159.034 111.627 158.993 111.584 158.941 111.556C156.416 110.098 153.811 108.783 151.139 107.616C149.483 106.847 147.747 106.265 145.962 105.882C146.308 104.931 146.539 103.942 146.651 102.937C149.201 101.853 162.065 103.447 170.735 102.541C172.049 102.46 173.351 102.251 174.624 101.917C182.44 101.7 194.208 111.313 196.376 115.648C198.543 119.983 198.199 125.402 193.392 132.147C188.866 138.458 172.597 147.664 170.85 148.645L170.837 148.696ZM205.53 174.439C207.302 168.854 204.497 163.627 203.49 162.007L211.931 161.778C213.017 162.421 213.846 163.421 214.277 164.608C214.969 166.386 215.336 168.273 215.36 170.18C212.836 171.315 208.156 173.457 205.53 174.388V174.439ZM215.908 169.836C215.838 167.968 215.405 166.132 214.633 164.43C214.122 163.229 213.225 162.233 212.083 161.599C212.592 161.053 213.209 160.619 213.894 160.324C213.894 160.732 213.397 161.599 213.996 161.689C214.595 161.778 214.659 161.191 215.029 161C215.182 160.924 215.488 160.911 215.36 161.242C215.233 161.574 214.952 162.071 215.246 162.517C215.462 162.771 215.759 162.943 216.087 163.002C216.163 163.002 215.653 163.359 215.513 163.767C215.48 163.863 215.485 163.969 215.528 164.062C215.571 164.154 215.648 164.227 215.743 164.264C216.176 164.43 216.928 163.996 217.4 164.468C217.592 164.672 217.49 164.863 217.247 165.004C216.661 165.373 216.584 165.807 217.133 166.279C217.408 166.47 217.653 166.702 217.859 166.967C217.459 166.964 217.069 167.094 216.75 167.337C216.689 167.383 216.64 167.443 216.606 167.512C216.572 167.58 216.554 167.656 216.554 167.732C216.554 167.809 216.572 167.884 216.606 167.953C216.64 168.021 216.689 168.081 216.75 168.127C217.031 168.37 217.719 168.625 217.872 168.841C217.265 169.246 216.604 169.563 215.908 169.785V169.836ZM231.374 161.013C230.852 163.142 219.376 168.28 218.561 168.663C218.42 168.166 217.617 167.923 217.286 167.681C217.643 167.49 218.357 167.566 218.497 167.12C218.637 166.674 217.643 165.934 217.413 165.641C217.63 165.437 218.408 165.067 218.063 164.366C217.907 164.102 217.671 163.895 217.389 163.774C217.107 163.652 216.794 163.623 216.495 163.69H216.304C216.584 163.333 217.043 162.874 216.622 162.568C216.202 162.262 215.921 162.568 215.704 162.148C216.916 162.301 217.91 162.466 218.675 162.632C218.701 162.636 218.727 162.634 218.751 162.627C218.776 162.619 218.799 162.607 218.818 162.59C218.838 162.573 218.853 162.552 218.864 162.528C218.874 162.505 218.88 162.479 218.879 162.454C218.879 162.964 218.522 159.508 220.333 159.1C221.141 159.015 221.958 159.13 222.712 159.434C223.466 159.739 224.133 160.224 224.655 160.847C224.685 160.884 224.725 160.912 224.77 160.928C224.815 160.944 224.863 160.947 224.91 160.936C225.382 160.847 229.296 160.044 230.864 160.618C231.043 160.605 231.413 160.783 231.374 160.962V161.013Z" fill="black"/>
</svg>
