<svg width="201" height="198" viewBox="0 0 201 198" fill="none" xmlns="http://www.w3.org/2000/svg">
<path d="M45.8529 25.2635C45.8229 25.7656 45.6662 26.2518 45.3975 26.6769C45.1288 27.1021 44.7568 27.4522 44.3163 27.6948C44.6904 28.3288 44.8671 29.0598 44.824 29.7946C44.7809 30.5294 44.5198 31.2348 44.0742 31.8206C43.6381 32.392 43.056 32.8353 42.3892 33.1039C41.7224 33.3724 40.9956 33.4563 40.2852 33.3467C40.0957 33.8625 39.6432 34.7571 39.1274 34.9255C39.0478 34.967 38.9594 34.9887 38.8696 34.9887C38.7798 34.9887 38.6913 34.967 38.6117 34.9255C38.7367 35.6643 39.0852 36.3469 39.6103 36.8814C40.1354 37.4159 40.8118 37.7765 41.5482 37.9146C43.9584 38.3461 46.2108 37.5568 46.2108 35.1044C46.7876 35.2208 47.3828 35.2105 47.9552 35.0742C48.5277 34.9379 49.0637 34.6789 49.5262 34.315C49.8555 34.0451 50.1283 33.7128 50.3288 33.3371C50.5293 32.9614 50.6536 32.5497 50.6944 32.1258C50.7997 29.4104 48.9157 27.6106 47.7474 27.6106C48.6 26.1055 48.0527 24.8004 46.6949 23.8111C46.3489 23.5964 45.9616 23.4565 45.5582 23.4006C45.7758 23.9967 45.8759 24.6294 45.8529 25.2635ZM24.8134 26.0424C24.8609 26.0424 24.9064 26.0235 24.9399 25.99C24.9735 25.9564 24.9923 25.9109 24.9923 25.8635C24.9923 25.816 24.9735 25.7705 24.9399 25.7369C24.9064 25.7034 24.8609 25.6845 24.8134 25.6845L24.1714 25.6109C23.9714 25.6109 23.6451 25.6109 23.4557 25.5477C23.3332 24.003 23.3332 22.4509 23.4557 20.9062C23.4536 20.8622 23.4362 20.8203 23.4066 20.7877C23.3769 20.7551 23.3368 20.7339 23.2932 20.7276C23.2496 20.7214 23.2052 20.7306 23.1676 20.7536C23.13 20.7765 23.1016 20.8119 23.0873 20.8535C22.6296 22.0254 22.4252 23.2808 22.4874 24.5373C22.4709 24.972 22.5098 25.407 22.6031 25.8319C22.8557 26.495 24.1293 26.2003 24.8134 26.0424ZM19.9298 19.9063C19.4246 20.0431 18.7405 20.5378 18.9931 20.7272C19.3642 20.8976 19.7871 20.9165 20.1719 20.7799C20.5402 20.6851 21.1507 20.3168 21.1402 20.1273C21.1296 19.9379 20.4245 19.7695 19.9298 19.9063ZM26.75 20.643C30.4548 21.4114 28.7392 20.001 26.9184 19.7695C26.4448 19.7063 25.3397 19.7695 25.3607 20.0326C25.3818 20.2957 26.4658 20.5799 26.75 20.643ZM27.5815 22.4112C27.552 22.3592 27.5125 22.3135 27.4652 22.2768C27.4179 22.2401 27.3639 22.2131 27.3061 22.1975C27.2484 22.1818 27.1881 22.1778 27.1288 22.1856C27.0694 22.1933 27.0123 22.2128 26.9605 22.2428C26.6974 22.3902 26.7079 22.5481 26.7711 23.4006C26.7752 23.46 26.791 23.5181 26.8176 23.5714C26.8442 23.6247 26.881 23.6723 26.9259 23.7114C26.9709 23.7505 27.0231 23.7803 27.0796 23.7992C27.1361 23.8181 27.1958 23.8257 27.2552 23.8216C27.3146 23.8175 27.3727 23.8016 27.426 23.7751C27.4793 23.7485 27.5269 23.7117 27.566 23.6667C27.6051 23.6218 27.6349 23.5695 27.6538 23.513C27.6728 23.4566 27.6804 23.3969 27.6762 23.3375C27.692 23.0257 27.6601 22.7134 27.5815 22.4112ZM20.1298 22.9901C20.1372 22.8714 20.0977 22.7545 20.0198 22.6646C19.9419 22.5747 19.8319 22.5189 19.7133 22.5092C19.5948 22.4996 19.4772 22.5368 19.3858 22.613C19.2944 22.6891 19.2365 22.7981 19.2246 22.9165C19.2046 23.1722 19.2046 23.4291 19.2246 23.6848C19.233 23.8048 19.2887 23.9166 19.3795 23.9955C19.4703 24.0745 19.5887 24.1142 19.7088 24.1058C19.8288 24.0974 19.9406 24.0417 20.0195 23.9509C20.0985 23.8601 20.1381 23.7417 20.1298 23.6216C20.1508 23.4006 20.1192 23.1164 20.1298 22.9901ZM23.7819 29.8419C23.7819 30.1787 25.1186 30.2629 25.8133 29.5683C26.329 29.0525 26.2974 28.2632 26.0869 28.2105C25.8764 28.1579 26.0133 28.2105 25.2555 28.8631C24.7818 29.263 23.7609 29.5788 23.7819 29.8419Z" fill="black"/>
<path d="M200.034 21.0957C199.759 21.0068 199.468 20.9787 199.181 21.0132C198.893 21.0477 198.617 21.1441 198.371 21.2957C198.572 20.8138 198.641 20.287 198.571 19.7696C198.382 18.917 197.14 18.5276 196.119 19.7696C196.056 19.096 195.75 18.6329 195.214 18.5381C193.877 18.2855 193.298 20.8326 193.003 22.1693C192.309 21.6535 191.172 20.78 190.604 21.4641C190.443 21.6358 190.335 21.8499 190.292 22.0812C190.249 22.3125 190.273 22.5513 190.361 22.7692C190.771 23.4844 191.354 24.0852 192.056 24.5163C191.856 24.9794 191.004 26.2003 190.561 26.9161C190.204 26.8108 189.446 26.6108 189.288 26.9161C185.594 31.947 175.605 43.6087 169.385 43.3667C159.776 42.9983 147.683 38.3462 146.472 38.5146L144.778 34.7993C146.642 33.5229 148.041 31.6763 148.767 29.5368C149.947 26.2711 150.483 22.8077 150.345 19.338C150.353 18.2133 150.301 17.0891 150.187 15.97C154.629 15.6753 157.555 10.4444 154.092 6.11861C153.758 5.59995 153.323 5.15377 152.814 4.8066C152.304 4.45944 151.729 4.21839 151.124 4.0978C150.411 4.06065 149.697 4.15703 149.019 4.38198C144.809 5.43448 144.746 2.77165 141.862 2.05595C140.544 1.8351 139.191 1.97699 137.947 2.46642C133.737 3.93993 134.558 6.28701 132.611 8.24466C131.558 9.29716 127.064 7.81314 125.243 10.8022C123.307 14.0755 123.486 21.001 126.296 23.7164C126.92 24.2772 127.609 24.7613 128.348 25.1584C129.03 25.8555 129.828 26.4288 130.706 26.8529C131.527 28.5264 132.463 33.3363 132.811 35.1571L132.484 37.8937C130.24 38.2465 128.026 38.7743 125.864 39.4724C122.321 40.6191 118.885 42.07 115.592 43.8087C109.592 46.9662 110.329 46.9031 110.119 46.5663C109.391 45.7745 108.618 45.0259 107.803 44.3244C102.057 39.4829 95.8257 35.3571 88.4688 34.1467L87.6057 29.2526C89.9212 27.3581 91.1842 23.5375 91.2263 20.8326C92.0894 21.1904 92.7735 20.5589 93.2261 19.7801C93.3524 19.5485 94.1417 19.7801 94.7522 18.4118C94.8578 18.1266 94.8578 17.813 94.7522 17.5277C94.9633 17.4016 95.1442 17.2309 95.2823 17.0274C95.4203 16.8239 95.5121 16.5927 95.5512 16.3499C95.5904 16.1071 95.5759 15.8588 95.5087 15.6222C95.4416 15.3857 95.3235 15.1667 95.1627 14.9807C95.4869 14.7963 95.7645 14.5401 95.9743 14.2318C96.1841 13.9235 96.3205 13.5712 96.373 13.2019C96.6046 11.8232 96.2888 10.5812 94.9627 10.1497C94.9627 9.84446 95.1837 9.33926 95.1837 9.23401C95.1953 8.74391 95.108 8.25649 94.9272 7.80082C94.7464 7.34514 94.4757 6.93053 94.1312 6.58171C92.6682 5.32923 92.2051 5.43448 91.2895 5.52921C91.2895 4.8977 91.6894 4.4767 91.0263 3.61365C90.5178 3.0269 89.8408 2.61107 89.0875 2.42274C88.3342 2.23442 87.5412 2.28275 86.8163 2.56115L86.5532 2.64535C86.3887 2.23174 86.1387 1.85757 85.8194 1.5474C85.5002 1.23722 85.119 0.99805 84.7008 0.84557C83.3852 0.350894 82.48 0.99292 81.3749 1.5718C79.7225 0.0982934 76.565 0.88767 74.8704 1.9086C74.1021 2.3717 74.0284 3.19265 73.7232 3.57155C73.0692 3.52388 72.4178 3.69412 71.8708 4.0557C71.3866 4.36093 70.9341 4.80298 70.5446 5.1082C70.2881 5.3073 70.0764 5.55837 69.9237 5.84495C69.5979 6.38005 69.4098 6.98758 69.3764 7.61316C69.1177 7.67511 68.8719 7.78198 68.6501 7.92891C67.8093 8.68172 67.2182 9.67308 66.9556 10.7707C66.8408 11.378 66.8992 12.0053 67.124 12.581C67.124 12.6441 67.2292 12.7704 67.2608 12.8336C67.0503 13.1388 66.503 13.3809 66.3978 14.2018C66.2925 15.0228 66.3241 16.6331 67.124 17.1173C67.4608 17.3172 68.1765 17.5277 68.4291 17.6856C68.3893 18.1162 68.3893 18.5496 68.4291 18.9802C68.7028 20.7589 70.4604 21.4009 72.2707 21.1378L72.7654 21.3904C72.9577 23.2655 73.4554 25.0965 74.2389 26.8108C74.8232 27.9432 75.7034 28.8962 76.786 29.5684L76.2808 34.052C73.7687 34.4191 71.3002 35.0397 68.9133 35.9044C61.6826 38.5462 57.462 41.9774 53.7256 47.9345C48.5789 43.6719 39.8642 37.2832 33.1282 37.399C33.1714 36.9439 33.1714 36.4858 33.1282 36.0307C33.1282 35.7255 32.9598 34.7888 32.6756 34.6519C32.6756 34.1362 32.5914 33.5994 32.5493 33.1048C34.928 36.6201 39.78 34.7572 39.2432 32.3575C39.8435 32.3972 40.4445 32.2906 40.9945 32.0468C41.5445 31.803 42.0271 31.4292 42.4007 30.9577C42.7634 30.4394 42.958 29.8221 42.958 29.1895C42.958 28.5568 42.7634 27.9395 42.4007 27.4213C42.3136 27.2809 42.2073 27.1534 42.085 27.0424C43.7269 26.6213 44.2952 25.8951 44.5057 24.8531C44.6751 24.056 44.613 23.227 44.3268 22.464C44.5141 22.3715 44.6906 22.2585 44.8531 22.1272C45.3355 21.6662 45.6628 21.0667 45.7898 20.4116C46.0411 18.1309 45.5462 15.8302 44.3794 13.8545C44.0013 13.1957 43.3826 12.7091 42.6533 12.4968C42.5164 11.8702 42.4354 11.2327 42.4112 10.5917C42.2376 9.59655 41.8277 8.65755 41.216 7.85357C40.6043 7.04959 39.8087 6.40408 38.8959 5.97126C38.0115 5.55659 37.0515 5.32735 36.0752 5.29765C35.6651 5.26364 35.2525 5.31746 34.8648 5.45553C34.1938 4.64389 33.3127 4.03222 32.3177 3.68733C30.3868 3.32868 28.3912 3.65631 26.6763 4.61353C26.329 4.84508 26.0554 5.29765 25.7501 5.51868C25.0008 5.19689 24.1884 5.04868 23.3737 5.08513C22.559 5.12158 21.7631 5.34175 21.0454 5.72918C20.2836 6.06298 19.5972 6.54741 19.0275 7.15334C18.4577 7.75927 18.0164 8.47418 17.7301 9.25506C17.288 10.3076 16.8881 12.0337 17.5617 12.9388C17.6004 12.9889 17.6355 13.0417 17.6669 13.0967C17.267 13.8019 16.3513 14.1492 16.0461 16.1069C15.9217 17.0888 15.9609 18.0846 16.1618 19.0539C16.2178 19.2926 16.3516 19.5059 16.5422 19.6603C16.7327 19.8146 16.9692 19.9012 17.2143 19.9064C16.8881 23.0639 16.9407 27.2739 18.6668 29.9999C19.0965 30.6375 19.598 31.2237 20.1613 31.747C20.7499 32.3237 21.4736 32.7434 22.2663 32.9679V34.8414C21.7401 35.1361 22.1085 36.8096 21.8874 37.82C17.6143 37.5253 11.6361 38.5146 8.32069 41.2511C3.20553 45.5032 1.12158 51.5025 0.574274 58.1333C-0.173003 67.2795 4.78428 72.942 12.4781 73.9208C12.9614 75.522 13.5306 77.096 14.1831 78.636C10.9322 84.7318 8.55483 91.2546 7.12084 98.0126C6.06834 103.738 5.57366 112.811 5.47893 121.515C5.47893 125.662 5.47894 141.218 6.86824 145.091C7.08926 145.701 8.03652 146.028 8.65749 146.207C10.3844 146.659 12.1439 146.976 13.92 147.154C14.3621 156.395 15.6777 191.58 15.6777 191.633C13.8692 192.601 12.2043 193.816 10.7309 195.243C10.4968 195.451 10.3212 195.717 10.2215 196.014C10.1218 196.312 10.1015 196.63 10.1626 196.937C10.271 197.211 10.4744 197.436 10.7354 197.571C10.9965 197.706 11.2976 197.743 11.5834 197.674C13.3306 197.516 18.0353 196.106 20.1613 195.716C20.214 196.169 20.2876 196.611 20.7297 196.769C21.4875 197.032 22.982 197.169 23.5294 196.485C24.0767 195.801 23.7504 194.011 23.8241 193.243C23.8872 192.675 28.6866 159.563 30.3285 148.206H31.6441C33.6649 159.142 39.1906 190.412 39.2011 190.464C38.107 191.296 37.0697 192.199 36.0962 193.169C35.2858 193.99 33.9281 195.464 34.4649 196.474C35.0016 197.485 36.2646 196.969 37.3277 196.579C39.4327 195.843 42.5902 194.422 44.2005 193.896C44.3163 194.327 44.4531 194.759 44.9057 194.853C45.5337 194.948 46.1743 194.916 46.7897 194.759C47.6843 194.495 47.8422 193.938 47.8422 193.011C47.4527 188.349 47.4422 203.052 47.758 147.996C48.925 147.949 50.0814 147.754 51.1996 147.417C54.1782 145.954 53.9046 103.212 50.0314 89.761C49.7682 88.8348 48.1053 84.0038 46.9265 81.0042C46.9635 80.9021 46.9635 80.7904 46.9265 80.6884C46.5804 79.8167 46.1905 78.9631 45.7582 78.1308C46.074 74.2576 46.4108 66.7848 46.7265 64.522L49.3472 66.3217C49.5621 67.1687 49.8655 67.9907 50.2524 68.7741C50.6836 69.9054 51.376 70.9187 52.2732 71.7316C53.4069 72.7761 54.7562 73.5588 56.2257 74.0244C57.6952 74.49 59.2491 74.6271 60.7774 74.426H62.5456C64.5875 86.5508 63.9981 85.2773 64.3033 85.5825C56.5464 112.316 54.0414 163.026 55.0939 188.728C55.0939 188.85 55.1346 188.968 55.2097 189.065C55.7464 189.749 59.0934 190.117 60.1985 190.307C58.1227 191.413 56.1471 192.699 54.294 194.148C53.3573 195.064 54.5887 196.779 55.7359 197.074C56.3674 197.242 64.9558 196.022 65.6084 195.927C65.6926 196.327 65.882 196.716 66.282 196.79C67.4078 196.984 68.5502 197.065 69.6921 197.032C70.1552 197.032 70.7446 196.927 70.8499 196.485C71.2015 194.733 71.4057 192.955 71.4603 191.17C72.2076 191.17 72.9549 191.17 73.1969 190.959C75.3019 188.854 84.7008 135.292 85.4691 130.966C85.7303 129.515 85.7975 128.036 85.6691 126.567C84.143 108.517 84.7113 115.947 84.4692 108.99C84.4792 108.949 84.5028 108.912 84.5362 108.886C84.5696 108.859 84.6109 108.845 84.6534 108.845C84.696 108.845 84.7373 108.859 84.7707 108.886C84.8041 108.912 84.8277 108.949 84.8376 108.99C85.5428 117.263 85.9638 117.547 86.5321 128.451C86.5321 129.198 95.11 187.886 96.6572 189.422C97.4812 189.763 98.3652 189.935 99.2569 189.928C99.1563 192.193 99.3366 194.463 99.7937 196.685C99.8229 196.768 99.8688 196.845 99.9285 196.91C99.9882 196.975 100.06 197.027 100.141 197.064C100.909 197.442 103.783 197.064 104.351 196.99C104.532 196.922 104.69 196.805 104.809 196.653C104.928 196.501 105.002 196.319 105.025 196.127C105.919 196.253 114.276 197.432 114.887 197.274C116.034 196.979 117.276 195.264 116.328 194.338C114.136 192.662 111.805 191.176 109.361 189.896C110.624 189.801 113.276 189.57 114.371 188.928C116.023 187.949 114.445 114.526 101.183 84.4143C101.425 84.0248 102.351 73.2156 102.393 72.7315C105.72 72.619 108.944 71.5481 111.676 69.6477L115.886 68.132C113.323 77.9002 111.4 87.8254 110.129 97.8442C109.887 99.8229 108.666 109.653 109.982 111.127C110.118 111.28 110.305 111.377 110.508 111.4C111.108 111.453 113.508 111.664 116.065 111.821C116.065 142.018 119.033 158.226 123.822 190.022C123.837 190.121 123.887 190.211 123.962 190.277C124.037 190.342 124.133 190.379 124.233 190.38H124.506C124.705 191.846 125.025 193.293 125.464 194.706C126.127 196.043 136.41 196.011 137.863 195.548C138.116 195.418 138.317 195.205 138.432 194.944C138.547 194.684 138.569 194.391 138.494 194.117C138.073 192.243 134.284 191.833 132.495 190.485H133.116C133.213 190.488 133.308 190.457 133.385 190.397C133.461 190.338 133.515 190.254 133.537 190.159L141.589 149.859C141.683 150.448 147.346 190.906 147.346 190.906C147.364 191.012 147.419 191.108 147.503 191.176C147.586 191.244 147.691 191.279 147.798 191.275H148.63C148.778 192.758 149.017 194.231 149.345 195.685C149.362 195.751 149.393 195.814 149.437 195.867C149.48 195.919 149.536 195.962 149.598 195.99C150.651 196.485 159.902 197.043 161.428 196.211C161.705 196.061 161.916 195.812 162.02 195.514C162.123 195.216 162.111 194.89 161.986 194.601C161.722 193.868 161.25 193.228 160.628 192.759C159.355 192.054 157.134 191.896 155.945 191.275H156.534C156.635 191.269 156.731 191.231 156.808 191.167C156.886 191.102 156.941 191.015 156.966 190.917C156.966 190.917 160.028 179.666 161.828 153.785C162.881 138.692 163.175 123.262 163.06 108.338C164.407 108.443 166.701 108.548 167.838 108.496C168.154 108.496 168.459 108.496 168.596 108.19C169.817 105.759 168.89 81.5935 168.206 75.4996C168.143 74.9102 166.638 64.9009 166.438 63.5958C169.943 63.4589 175.005 62.7117 177.879 60.6593C192.614 50.1343 195.424 32.1575 196.624 29.7473C196.74 29.4947 196.455 29.3684 195.75 29.0211C196.155 27.8196 196.637 26.6454 197.192 25.5057C198.655 24.6953 200.35 23.7691 200.466 22.0956C200.522 21.9048 200.509 21.7004 200.43 21.5178C200.351 21.3352 200.211 21.1859 200.034 21.0957ZM95.0679 10.3497C94.9837 10.3497 94.9627 10.2865 94.9627 10.1813C94.9627 10.076 95.1627 10.3497 95.0679 10.3497ZM133.811 50.3447C139.01 50.671 142.104 50.7131 147.388 50.6815C147.725 52.7234 148.104 54.9547 148.514 57.3228C145.683 57.3228 136.084 57.4281 133.59 57.386C133.705 55.0705 133.79 52.7024 133.811 50.3658V50.3447ZM132.432 72.3736C138.557 72.7315 143.104 72.8262 151.24 72.6578C151.787 75.6574 152.356 78.6886 152.861 81.3515C147.935 81.4988 136.568 81.6988 131.453 81.5514C131.653 79.878 132.063 75.8153 132.432 72.3947V72.3736ZM131.011 84.9405C139.031 85.4036 145.451 85.4247 153.608 85.1826C154.008 87.2034 154.397 89.161 154.776 91.0029C145.472 91.3608 136.368 91.3818 129.895 91.2555C130.323 89.1716 130.695 87.0666 131.011 84.9405ZM150.556 68.8688C147.398 68.9319 135.821 69.0582 132.748 69.0161C133.021 66.006 133.232 63.28 133.39 60.8066C138.442 61.1224 141.873 61.2381 149.177 61.1539C149.43 62.5433 150.356 67.711 150.556 68.8688ZM146.03 40.767C146.156 42.4931 146.535 45.1664 146.798 46.882C144.115 46.882 135.905 46.9767 133.8 46.9452C133.779 44.7846 133.635 42.627 133.369 40.4828C136.21 44.3034 143.883 43.7771 146.03 40.767ZM129.19 94.613C137.983 95.1436 146.798 95.2103 155.597 94.813C155.997 96.6654 156.366 98.3494 156.713 99.8229C155.05 99.7282 135.389 98.7704 128.232 98.4231C128.527 97.2232 128.843 95.9497 129.158 94.613H129.19ZM131.495 26.4635C131.127 25.7267 128.79 25.411 128.569 23.548C128.316 21.3694 130.853 21.2957 131.727 22.2745C131.8 22.3482 132.316 23.0428 132.379 23.127C132.926 23.8638 133.432 23.8848 133.6 22.8323C133.842 20.8747 133.242 16.9594 135.526 17.3699C137.158 17.8817 138.836 18.2342 140.536 18.4224C143.767 18.7171 146.335 18.4224 148.419 16.1069C148.651 16.0542 149.419 16.0227 149.693 16.0016C149.789 17.1145 149.817 18.2322 149.777 19.3486C149.849 22.7271 149.263 26.0874 148.051 29.2421C146.377 33.2521 144.062 34.2204 144.062 34.2204C144.008 34.2409 143.959 34.272 143.918 34.3117C143.876 34.3515 143.843 34.3992 143.82 34.452C143.725 34.694 143.694 34.452 145.672 38.883C146.093 42.7036 134.779 44.2613 133.316 38.262L133.674 35.1992C133.716 34.9782 132.463 28.4317 131.463 26.4635H131.495ZM108.34 45.4085C111.668 48.7128 113.961 52.9151 114.939 57.5018C115.56 60.6593 115.297 63.3116 114.266 65.1324C113.59 66.302 112.746 67.3659 111.761 68.2899C110.728 69.3456 109.468 70.1519 108.077 70.6475C105.155 71.7193 102.02 72.08 98.9306 71.7C94.8223 71.1807 90.7659 70.311 86.8058 69.1003C86.8058 68.7846 86.7427 68.4478 86.7111 68.0478L90.3422 66.7217C91.0376 66.5282 91.7112 66.2637 92.3525 65.9323C92.7209 65.7429 92.7524 65.185 92.7945 64.7114C92.9735 62.9853 92.6156 63.2169 93.1419 62.7959C94.3207 61.8697 97.5624 60.9645 98.9727 60.5645C99.4464 60.4382 100.13 60.333 99.92 59.8804C99.8532 59.2339 99.5886 58.6238 99.1622 58.1333C96.9414 48.7239 97.3203 48.7555 96.9624 48.8186C96.9381 48.8209 96.9145 48.8284 96.8934 48.8407C96.8722 48.853 96.854 48.8697 96.84 48.8897C96.826 48.9098 96.8165 48.9326 96.8122 48.9567C96.8079 48.9808 96.8089 49.0055 96.8151 49.0291C97.2887 51.8288 97.9939 55.4494 98.4991 57.8912L97.194 57.7017C96.973 57.7017 96.7519 57.7017 96.6993 57.5965C96.2783 56.7229 96.4572 55.6915 95.4468 55.1863C95.3416 55.1154 95.2227 55.0674 95.0978 55.0455C94.9729 55.0236 94.8447 55.0281 94.7217 55.0589C94.5986 55.0896 94.4834 55.1459 94.3835 55.2241C94.2836 55.3022 94.2012 55.4005 94.1417 55.5125C93.5944 56.565 94.2575 58.9226 94.1417 58.8911C93.5812 59.1208 92.9944 59.2799 92.3946 59.3647C92.3704 59.2683 92.3272 59.1777 92.2676 59.0981C92.208 59.0186 92.133 58.9518 92.0473 58.9016C89.9119 57.858 87.6898 57.0022 85.406 56.344C84.9113 52.1972 84.2587 46.9767 84.0272 45.2296C84.1079 45.192 84.1825 45.1423 84.2482 45.0822C84.6196 44.3497 84.8921 43.571 85.0586 42.7667C85.2376 42.9667 85.3849 43.1562 85.7112 43.0299C88.5666 40.9548 91.2648 38.6716 93.7839 36.1991C99.123 38.4029 104.046 41.5033 108.34 45.3664V45.4085ZM95.0153 56.0283C95.7731 56.4598 95.3626 57.7438 96.2152 58.3859C97.0694 58.6363 97.9564 58.7569 98.8464 58.7437C99.0552 59.0908 99.1879 59.4782 99.2358 59.8804C98.4149 60.133 94.4259 61.0171 92.763 62.1644C92.729 61.3699 92.641 60.5787 92.4998 59.7962C93.3629 59.7225 94.447 59.7962 94.7627 59.2384C95.0785 58.6806 94.5417 55.7441 95.0153 56.0283ZM92.984 36.0307C91.1 37.6621 86.8795 41.1564 85.6165 42.0826C84.985 41.3774 83.3325 39.4198 82.8694 38.7041C83.9219 37.7989 87.8162 35.1677 88.3846 34.8519C89.9568 35.0386 91.5009 35.4132 92.984 35.9676V36.0307ZM76.4071 34.7782L81.5433 38.7356C80.7644 39.5671 78.8594 41.2196 78.0069 42.0826C76.807 41.2196 73.5337 37.7568 71.6919 35.8413C73.2384 35.3832 74.8136 35.0281 76.4071 34.7782ZM73.5443 20.8431C73.3969 20.6326 73.3759 20.6958 72.3023 20.1274C71.5971 19.5485 70.7446 19.0749 70.4289 18.2119C70.4289 17.4962 70.6499 16.6121 71.3972 16.6542C71.9622 16.7843 72.4864 17.0519 72.9233 17.433C73.401 17.5897 73.9146 17.6003 74.3983 17.4634C74.8821 17.3265 75.314 17.0484 75.6387 16.6647C76.0035 16.0078 76.1122 15.2393 75.944 14.507C76.6365 14.4451 77.2779 14.1168 77.7332 13.5914C77.9578 13.1371 78.0936 12.6441 78.1332 12.1389C79.1175 12.4186 80.1692 12.3403 81.1012 11.9179C81.7383 11.6434 82.3198 11.2546 82.8168 10.7707C82.927 11.0476 83.072 11.3093 83.2483 11.5495C83.412 11.7998 83.6402 12.0013 83.9088 12.1328C84.1773 12.2643 84.4764 12.321 84.7745 12.2968C85.146 12.2379 85.5031 12.1093 85.827 11.9179V12.3389C85.8214 12.6617 85.8867 12.9818 86.0181 13.2767C86.1495 13.5716 86.344 13.8342 86.5878 14.0458C86.8316 14.2575 87.1188 14.4132 87.4292 14.502C87.7396 14.5908 88.0657 14.6105 88.3846 14.5597C88.3781 14.6297 88.3781 14.7002 88.3846 14.7702C88.4898 15.3385 88.2688 17.0541 89.0582 17.2541C89.8475 17.4541 89.416 15.4859 90.9316 15.2438C91.2039 15.1773 91.4909 15.2083 91.7428 15.3314C91.9946 15.4544 92.1954 15.6618 92.3104 15.9174C92.6051 16.8647 92.3104 17.2857 91.8157 18.2224L91.4894 18.5908C90.9842 19.1381 90.4369 19.7169 90.4369 20.2432C90.4684 21.8531 90.1637 23.4519 89.5423 24.9373C89.0074 26.4431 88.0679 27.7723 86.8268 28.779C86.7651 28.8265 86.717 28.8895 86.6874 28.9616C86.6578 29.0336 86.6479 29.1123 86.6584 29.1895L87.5215 34.252L82.0695 37.9568C81.1118 37.2201 82.3853 38.3147 77.1438 34.2625L77.7122 29.3684C77.7219 29.2786 77.7052 29.1879 77.6641 29.1075C77.6229 29.0271 77.5592 28.9604 77.4806 28.9158C73.7021 26.8003 73.9968 21.5693 73.5443 20.8431ZM61.3352 40.7354C64.2148 38.6733 67.4155 37.1014 70.8078 36.0833C72.7346 38.3004 74.7831 40.4087 76.9438 42.3984C77.407 42.7983 77.9964 43.293 78.4068 42.872C78.5542 42.7036 78.7752 42.4826 79.0278 42.23C79.2904 43.1433 79.5996 44.0426 79.954 44.9244C79.9959 45.0024 80.0529 45.0713 80.1215 45.1273C80.1901 45.1833 80.2691 45.2252 80.354 45.2506C80.2382 46.6084 79.954 50.5131 79.6277 54.8389C76.2885 54.1222 72.8739 53.8182 69.4606 53.9338C69.4606 53.6601 69.7974 50.4184 69.8079 50.3132C69.8079 49.7448 69.8079 48.9975 69.871 48.7028C69.8836 48.6568 69.8773 48.6076 69.8537 48.5662C69.83 48.5247 69.7908 48.4944 69.7447 48.4818C69.6987 48.4693 69.6495 48.4755 69.6081 48.4992C69.5666 48.5229 69.5363 48.5621 69.5237 48.6081C68.587 50.5132 68.7554 51.8604 68.8817 53.9654C66.5275 54.0818 64.2199 54.6649 62.093 55.6809C62.0512 55.7041 62.0201 55.7426 62.0062 55.7883C61.9923 55.8341 61.9968 55.8834 62.0187 55.9259C62.0407 55.9684 62.0783 56.0006 62.1236 56.0158C62.1689 56.031 62.2184 56.0279 62.2614 56.0072C69.629 52.4077 82.9957 55.8178 90.1001 58.8805C90.5958 59.0836 91.0774 59.3192 91.5421 59.5857C91.8662 61.2454 91.9654 62.9411 91.8368 64.6272C91.8368 65.1008 91.8368 65.2166 90.9948 65.5429C90.3948 65.785 89.6791 65.9534 89.2371 66.1218C87.7952 66.6585 86.4058 67.1743 85.0271 67.7005C77.2439 70.1986 69.291 72.1332 61.23 73.4893C58.6093 73.4893 55.157 73.0051 53.231 71.1948C44.8951 63.3958 53.6099 46.04 61.3352 40.7354ZM21.8874 31.8207C20.9092 31.2566 20.0738 30.4752 19.4456 29.5368C17.8037 26.9897 17.7827 22.8218 18.0563 19.8117C19.5268 19.354 20.8635 18.5448 21.9506 17.4541C23.1273 16.2516 24.1555 14.9124 25.0134 13.4651L25.6028 12.3284C26.6698 15.0576 28.4959 17.4243 30.8653 19.1486C31.6891 19.5257 32.5804 19.7333 33.486 19.759C33.4654 20.5845 33.5539 21.4091 33.7491 22.2114C33.7702 22.2539 33.7997 22.2916 33.8358 22.3223C33.872 22.353 33.914 22.3759 33.9594 22.3897C34.0047 22.4035 34.0524 22.4079 34.0995 22.4026C34.1467 22.3972 34.1922 22.3823 34.2333 22.3587C34.6964 22.1061 34.8753 20.7484 35.591 19.8117C35.7805 19.5485 36.0015 19.3486 36.2752 19.4117C36.5638 19.4559 36.8379 19.5677 37.0751 19.738C38.1276 20.5168 37.2856 23.6322 35.3174 24.6005C34.728 24.8952 31.6547 28.4738 31.4547 29.5999C31.323 30.2185 31.3557 30.8608 31.5494 31.4629C31.6126 32.3785 31.7178 33.5679 31.7915 34.6204C29.8444 34.6204 25.0976 34.6204 23.1504 34.7151C23.2452 32.1154 23.2978 32.3891 21.8874 31.8207ZM41.5482 147.375H33.6018C34.8122 132.387 36.2857 95.6339 35.9699 82.6145C37.3733 82.5513 38.6363 82.4671 39.7589 82.3619C42.1586 94.7709 43.4953 135.24 41.5482 147.375ZM15.2356 146.417C14.0989 133.861 15.2356 93.1079 18.2458 82.2145C18.772 82.2882 22.54 82.625 22.54 82.625C20.9402 95.4866 19.2983 132.398 19.8666 146.828C18.1616 146.701 16.6039 146.543 15.1725 146.417H15.2356ZM26.8763 81.8567L22.9189 81.6988C22.9097 80.5645 22.9907 79.4312 23.161 78.3097L24.5819 78.2045L27.6552 78.1308C27.5038 79.393 27.2432 80.6396 26.8763 81.8567ZM14.6883 78.3939L22.3084 78.2466C22.0951 79.4059 21.9964 80.5833 22.0137 81.7619C19.1544 81.7388 16.3035 81.4464 13.499 80.8884C14.2779 79.1833 14.6041 78.6044 14.6883 78.3939ZM23.2662 147.017C22.9189 133.882 25.0555 93.6973 26.4237 82.6776C27.8657 82.6776 28.9392 82.7513 31.9283 82.6776C31.9283 87.6665 30.4338 141.091 30.0864 147.249C28.2867 147.249 23.7293 147.049 23.2662 147.017ZM27.6867 81.8672C27.945 80.6387 28.072 79.3862 28.0656 78.1308C34.9806 78.0045 41.7482 77.8361 44.8004 78.2466C45.2162 78.9799 45.5684 79.7475 45.8529 80.541C39.9063 81.8146 33.2334 81.8672 27.6867 81.8672ZM7.86812 144.965C6.04729 143.807 5.45789 111.137 7.68919 98.1073C8.82406 92.2753 10.7097 86.6148 13.299 81.2673L14.4042 81.4988C11.4571 92.1396 10.2783 130.809 11.7413 145.922C10.4122 145.783 9.10881 145.461 7.86812 144.965ZM23.0978 192.327C20.1719 192.727 18.5931 192.959 17.4459 193.211C16.7876 193.273 16.1292 193.094 15.5935 192.706C16.4565 192.19 16.646 192.264 16.646 191.769C16.7407 189.728 14.6568 151.248 14.4042 147.175C19.2036 147.722 25.2028 148.017 30.0022 148.154C28.3709 158.195 23.8451 187.181 23.0662 192.359L23.0978 192.327ZM46.6528 190.159C43.9795 190.906 42.306 191.391 41.1798 191.812C40.5353 191.964 39.8572 191.874 39.2748 191.559C40.0326 190.959 40.1905 191.001 40.1484 190.506C39.9589 188.401 32.5388 150.332 32.1178 148.217C38.0749 148.343 43.6953 148.28 47.3475 148.027C47.1054 159.847 46.6844 185.339 46.6213 190.191L46.6528 190.159ZM49.3262 89.9504C52.8415 102.402 53.1994 140.471 50.8313 146.586C49.9472 147.028 45.9792 147.196 45.0109 147.238C47.1159 134.134 46.0634 94.613 43.6532 81.8461C44.6425 81.6883 45.5267 81.5199 46.3476 81.341C47.5159 84.53 49.0525 89.1189 49.2946 89.982L49.3262 89.9504ZM41.8955 59.1858C41.4429 58.7753 41.0009 58.4069 40.622 58.007C40.5927 57.9693 40.5496 57.9448 40.5022 57.9389C40.4549 57.9329 40.4071 57.9461 40.3694 57.9754C40.3317 58.0047 40.3072 58.0478 40.3013 58.0952C40.2954 58.1425 40.3085 58.1903 40.3378 58.228C42.1376 61.175 44.632 62.5959 45.9687 63.8063C45.6319 65.0903 45.2846 72.7841 44.9162 77.3414C42.1376 76.6994 27.6236 77.4572 22.7505 77.4572C22.6395 77.4588 22.5335 77.5042 22.4558 77.5835C18.6247 77.7624 15.604 77.9414 14.762 77.994C14.2568 76.8152 13.6253 74.9102 13.2359 73.6998C14.9427 74.0063 16.6916 73.992 18.3931 73.6577C18.4224 74.2976 18.5612 74.9277 18.8036 75.5206C19.3299 75.9837 36.8435 74.7312 37.4013 74.6155C37.7802 74.5313 37.7908 74.005 37.8223 73.563C37.9171 72.5105 37.9802 70.1949 38.0223 67.4795C38.1852 67.4145 38.332 67.3149 38.4526 67.1876C38.5732 67.0603 38.6647 66.9083 38.7208 66.7421C38.7768 66.576 38.7961 66.3996 38.7773 66.2252C38.7585 66.0509 38.702 65.8827 38.6117 65.7323C38.7348 65.5756 38.8246 65.3953 38.8755 65.2026C38.9265 65.0099 38.9375 64.8088 38.9079 64.6117C38.8784 64.4146 38.8088 64.2256 38.7036 64.0563C38.5984 63.8871 38.4596 63.7411 38.296 63.6273C38.432 63.4947 38.5355 63.3323 38.5984 63.153C38.6613 62.9737 38.6818 62.7822 38.6584 62.5937C38.6349 62.4051 38.5681 62.2245 38.4633 62.066C38.3584 61.9075 38.2183 61.7755 38.0539 61.6802C38.0539 57.8807 38.0539 54.1759 37.9171 52.1024C37.8539 50.3974 37.8013 50.2079 37.5382 49.9974C37.0224 49.6817 34.8017 49.808 33.8018 49.8501C33.8156 49.4037 33.6946 48.9636 33.4544 48.5871C32.9703 48.1134 30.8337 48.5871 29.5918 48.5871C29.3181 47.7135 29.1813 47.0609 28.213 46.6084C27.7363 46.44 27.2142 46.4544 26.7476 46.6488C26.281 46.8433 25.9031 47.2039 25.687 47.6609C25.687 47.7661 25.3818 48.6292 25.3186 48.9133C24.1892 48.9988 23.065 49.1428 21.9506 49.3449C21.5506 49.4712 21.5191 50.3132 21.5085 50.9026C17.4985 51.3236 17.2354 51.3236 17.1617 51.7341C17.088 52.1445 17.3827 58.8384 17.4038 59.3963C16.4197 59.5212 15.4455 59.7146 14.4884 59.9751C14.6875 58.668 14.807 57.3499 14.8462 56.0283C14.8462 55.4494 14.8988 52.976 14.5515 52.9655C14.2042 52.955 13.9937 55.3862 13.9621 55.8704C13.899 56.6071 13.8042 59.3542 13.8569 60.1751C13.4148 60.3119 12.9938 60.4593 12.5623 60.6277C12.5193 60.6457 12.485 60.6796 12.4665 60.7223C12.4481 60.7651 12.4469 60.8133 12.4632 60.8569C12.4796 60.9005 12.5122 60.9361 12.5542 60.9562C12.5962 60.9762 12.6444 60.9792 12.6886 60.9645C18.6352 58.9121 26.6869 60.0593 31.0968 62.2696L31.2968 66.7006C27.4868 69.3635 21.4243 72.6578 16.7933 73.2472C15.4276 73.4051 14.0467 73.3767 12.6886 73.163C4.71061 72.1316 0.595324 66.4165 1.1742 58.2069C1.62678 51.8183 3.65811 45.6401 8.56277 41.5458C11.7203 38.9251 17.7511 38.0305 21.8559 38.3883C22.9084 38.4725 22.34 36.1991 22.6137 35.3782C23.0136 35.315 24.2872 35.294 24.7187 35.2834C24.6665 36.0087 24.6665 36.7368 24.7187 37.4621C24.7187 37.7673 24.9397 38.9146 25.2134 38.8304C25.487 38.7462 25.5923 37.8516 25.6028 37.5989C25.6133 37.3463 25.6028 37.3148 25.5081 35.2834H29.0129C28.9705 35.9845 28.9705 36.6874 29.0129 37.3884C29.0129 37.6937 29.2339 38.8409 29.5076 38.7567C29.7812 38.6725 29.8865 37.7779 29.897 37.5253C29.9075 37.2727 29.897 36.7464 29.8023 35.3045H32.3704C32.4757 35.6457 32.5324 36 32.5388 36.357C32.5388 37.5779 32.3283 37.7568 32.5388 37.9989C33.1071 38.6409 38.2644 36.0939 53.3467 48.6502C50.5366 53.3865 48.3158 59.5857 49.1367 65.0482C46.6844 63.3958 47.158 63.9115 41.8955 59.1858ZM18.1616 59.2805C18.0563 55.7546 17.9721 52.534 17.9721 52.1445C18.8036 52.0182 20.6876 51.8288 21.5191 51.7446C21.5191 53.2918 21.5822 53.397 22.5716 53.5023C24.4556 53.7233 32.7598 53.5023 33.6334 52.755C33.7126 52.6908 33.7742 52.6075 33.8123 52.5129C33.879 51.933 33.8931 51.3482 33.8544 50.7658C34.8815 50.7078 35.9111 50.7078 36.9382 50.7658C37.1382 52.6392 37.1593 59.5541 37.1593 61.4381C36.764 61.4417 36.3711 61.4983 35.991 61.6065C36.1383 60.7435 36.3594 59.3436 35.4858 59.1542C35.2519 59.0873 35.0036 59.0906 34.7716 59.1635C34.5396 59.2365 34.3341 59.376 34.1807 59.5647C33.7248 60.2677 33.4567 61.0757 33.4018 61.9117C32.9199 61.9133 32.4384 61.8852 31.9599 61.8276C31.9436 61.7706 31.9155 61.7177 31.8775 61.6724C31.8394 61.6271 31.7921 61.5903 31.7389 61.5644C27.5 59.6 22.8077 58.8216 18.1616 59.3121V59.2805ZM37.9486 65.1008C37.5382 65.3429 37.275 65.1745 36.5383 65.2692C36.4238 65.2692 36.3141 65.3147 36.2331 65.3956C36.1522 65.4765 36.1068 65.5863 36.1068 65.7008C36.1068 65.8152 36.1522 65.925 36.2331 66.0059C36.3141 66.0868 36.4238 66.1323 36.5383 66.1323C36.8882 66.1681 37.2409 66.1681 37.5908 66.1323C37.675 66.1323 37.9802 66.1954 37.9802 66.2796C37.9802 67.2374 36.0962 66.869 35.2648 66.3849C34.2347 66.3217 33.2011 66.4212 32.202 66.6796L31.9915 62.3433C32.5641 62.4966 33.1613 62.536 33.7491 62.4591C33.8306 62.4135 33.891 62.338 33.9175 62.2486C34.1596 61.3645 34.3596 59.7331 35.2858 59.9646C35.3402 60.6274 35.2724 61.2945 35.0858 61.9328C34.9806 62.5854 35.2332 62.7327 35.7279 62.6906C36.1699 62.4921 36.6441 62.3744 37.1277 62.3433C37.4013 62.3433 37.675 62.3433 37.7592 62.659C37.8434 62.9748 37.5697 63.0906 37.3066 63.1853C37.0435 63.28 36.012 63.4274 35.9068 63.4484C35.8027 63.4812 35.714 63.5504 35.657 63.6434C35.5999 63.7364 35.5784 63.8469 35.5963 63.9545C35.6143 64.0621 35.6705 64.1596 35.7546 64.229C35.8387 64.2985 35.9451 64.3353 36.0541 64.3325C37.3277 64.1957 37.1066 64.1325 37.4855 64.2167C37.6506 64.2554 37.7972 64.3498 37.9007 64.484C38.0043 64.6182 38.0584 64.784 38.0539 64.9535C38.0557 64.9903 38.0466 65.0269 38.0279 65.0586C38.0093 65.0904 37.9817 65.1161 37.9486 65.1324V65.1008ZM32.1493 67.1111C33.0776 66.9883 34.0127 66.925 34.949 66.9217C35.606 67.3365 36.3616 67.569 37.1382 67.5953C37.1382 69.4792 37.1382 72.8578 37.0119 73.8471C34.7174 74.0892 21.3401 75.3943 19.0457 75.1838C18.9242 74.6433 18.8433 74.0945 18.8036 73.5419C24.6134 72.342 31.8546 67.7005 32.1493 67.1427V67.1111ZM70.0394 196.053C68.8398 196.131 67.6351 196.068 66.4504 195.864V195.337C66.4382 195.211 66.3779 195.094 66.282 195.011C65.9978 194.79 66.2188 194.948 58.8513 195.885L56.4411 196.158C56.2096 196.158 55.9464 196.274 55.9464 196.158C55.3781 196.011 54.5466 195.011 54.8939 194.643C56.8608 193.065 58.9358 191.626 61.1037 190.338C64.377 190.727 68.2923 191.001 70.713 191.075C70.6059 192.758 70.3844 194.432 70.05 196.085L70.0394 196.053ZM105.603 189.991C106.582 189.991 107.561 189.938 108.498 189.885C109.919 190.759 114.613 193.653 115.771 194.843C115.96 195.043 115.771 195.432 115.602 195.653C114.929 196.579 114.413 196.348 114.223 196.327C112.434 196.179 106.509 195.348 104.751 195.095C104.69 195.087 104.628 195.09 104.568 195.106C104.508 195.123 104.453 195.151 104.404 195.189C104.356 195.228 104.316 195.276 104.287 195.33C104.258 195.384 104.24 195.444 104.235 195.506V196.032C103.055 196.246 101.853 196.313 100.657 196.232C100.231 194.182 100.012 192.095 100.004 190.001C99.9831 189.696 99.6674 190.128 105.614 190.022L105.603 189.991ZM100.488 83.8143C95.089 83.8143 69.4079 84.4564 65.0295 84.951C64.9243 83.1618 63.7034 75.8048 63.4087 74.0366C68.4884 73.1624 73.5192 72.0241 78.4805 70.6265C78.3568 71.3422 78.325 72.0708 78.3858 72.7946C79.6544 74.3265 81.0639 75.736 82.5958 77.0046C82.675 77.0672 82.7697 77.1071 82.8698 77.12C82.9699 77.133 83.0716 77.1186 83.1641 77.0783C84.6692 75.8219 85.9596 74.3289 86.9847 72.6578C87.0285 71.7872 86.9684 70.9145 86.8058 70.0581C89.7318 71.1106 97.6676 72.7736 101.646 72.7104C101.457 74.8891 100.657 82.6987 100.488 83.8143ZM111.645 93.5289C114.339 74.9733 116.855 68.8267 116.907 67.4584C118.575 66.7332 120.128 65.7688 121.517 64.5956C122.063 64.111 122.577 63.5906 123.054 63.0379C123.233 62.8695 122.991 62.6064 122.822 62.7643C122.654 62.9222 122.244 63.1432 121.949 63.3326C118.37 65.7323 117.549 66.6059 113.35 68.1005C114.267 67.1945 114.962 66.0886 115.381 64.8693C117.223 58.649 114.687 52.2393 110.656 47.1978C115.462 44.2285 120.576 41.7866 125.906 39.9145C128.009 39.2097 130.162 38.6678 132.348 38.2936C132.427 38.7542 132.572 39.2009 132.779 39.6198C134.463 49.9659 131.137 80.0779 129.158 90.0767C128.011 95.8865 125.822 104.359 123.307 109.78C123.139 110.181 122.938 110.569 122.707 110.937C121.381 111.379 112.076 110.601 110.634 110.464C109.561 108.517 111.34 95.7813 111.666 93.5289H111.645ZM156.166 190.359H148.177C148.177 190.043 142.241 148.059 142.073 147.48C142.746 143.154 147.335 119.947 147.177 114.147C147.177 114.1 147.158 114.054 147.125 114.021C147.091 113.987 147.046 113.969 146.998 113.969C146.951 113.969 146.905 113.987 146.872 114.021C146.838 114.054 146.819 114.1 146.819 114.147C146.819 114.758 146.63 115.937 146.377 117.505C142.473 141.881 139.473 155.921 132.758 189.643L124.633 189.559C119.307 155.879 116.697 139.544 116.56 111.864C117.676 111.927 122.307 112.221 123.201 111.769C123.517 111.611 123.843 110.906 124.043 110.495C125.624 106.888 126.925 103.165 127.938 99.3598C135.147 99.7597 153.671 100.623 156.86 100.791C158.218 107.19 158.313 107.559 158.692 107.696C159.895 108.003 161.125 108.197 162.365 108.274C162.449 129.609 161.333 169.593 156.187 190.307L156.166 190.359ZM196.161 29.7052C194.708 33.1048 191.614 50.1132 177.447 60.0488C174.679 61.9854 169.638 62.6801 166.27 62.7748C166.117 61.1194 165.8 59.4834 165.322 57.8912C165.112 57.2386 164.796 56.4703 164.607 56.0072C164.587 55.9688 164.555 55.9382 164.515 55.9206C164.476 55.903 164.431 55.8994 164.39 55.9105C164.348 55.9216 164.311 55.9466 164.286 55.9814C164.26 56.0162 164.247 56.0588 164.249 56.1019C164.828 60.7119 164.923 59.0805 165.554 63.2484C165.554 63.2484 167.291 75.0049 167.354 75.5838C168.164 82.9513 168.68 104.57 167.859 107.569C164.953 107.637 162.047 107.412 159.186 106.896C158.06 103.138 147.04 48.5555 146.798 39.3356C149.588 39.8408 160.344 43.714 169.354 43.9982C177.395 44.2402 189.488 27.1581 189.593 27.1581C190.425 27.0108 195.014 28.9579 196.171 29.6526L196.161 29.7052ZM199.687 22.0324C199.602 23.3902 198.024 24.3058 196.855 25.0215C196.445 25.2847 195.519 28.4106 195.403 28.8527C193.948 28.1731 192.454 27.5792 190.93 27.0739C191.982 25.4741 192.898 24.6321 192.498 24.2532C191.772 23.5901 190.393 22.6955 191.109 21.9482C191.197 21.9675 191.282 21.9994 191.361 22.043C192.361 22.5166 193.161 23.8006 193.593 23.0113C193.786 22.0837 194.049 21.1724 194.382 20.2853C194.94 18.9907 195.287 19.2328 195.15 20.4958C195.031 21.359 194.816 22.2063 194.508 23.0218C194.472 23.1362 194.483 23.2604 194.538 23.367C194.593 23.4736 194.689 23.5539 194.803 23.5901C194.918 23.6264 195.042 23.6158 195.148 23.5605C195.255 23.5052 195.335 23.4099 195.371 23.2954C195.634 22.3641 196.028 21.4747 196.54 20.6537C197.055 19.8959 197.676 19.7064 197.655 20.2221C197.492 21.1467 197.133 22.0257 196.603 22.8008C196.467 22.9898 196.384 23.2113 196.361 23.4428C196.344 23.5411 196.361 23.6423 196.41 23.7291C196.46 23.8159 196.537 23.8831 196.63 23.9191C196.723 23.955 196.826 23.9577 196.921 23.9265C197.016 23.8953 197.097 23.8322 197.15 23.748C197.467 23.3061 197.819 22.8907 198.203 22.5061C198.824 21.8956 199.729 21.4746 199.697 21.9798L199.687 22.0324Z" fill="black"/>
<path d="M81.1539 22.8535C81.5854 23.8323 83.943 23.2218 83.4799 22.7272C83.4464 22.6937 83.401 22.675 83.3536 22.675C83.3063 22.675 83.2608 22.6937 83.2273 22.7272C83.087 22.7723 82.9361 22.7723 82.7958 22.7272C82.5086 22.686 82.2287 22.6045 81.9643 22.4851V18.5277C81.9544 18.4863 81.9308 18.4495 81.8974 18.4232C81.864 18.3969 81.8227 18.3826 81.7801 18.3826C81.7376 18.3826 81.6963 18.3969 81.6629 18.4232C81.6295 18.4495 81.6059 18.4863 81.5959 18.5277C81.2182 19.6773 81.0575 20.8873 81.1223 22.0957C81.0959 22.3485 81.1065 22.6037 81.1539 22.8535ZM78.1016 20.2433C78.1016 19.9591 78.1016 19.6539 78.0385 19.3907C78.0178 19.2733 77.9526 19.1684 77.8566 19.0979C77.7605 19.0273 77.641 18.9965 77.5227 19.0118C77.463 19.0207 77.4056 19.0416 77.354 19.073C77.3024 19.1045 77.2576 19.146 77.2223 19.195C77.1869 19.2441 77.1618 19.2997 77.1483 19.3586C77.1349 19.4175 77.1333 19.4786 77.1438 19.5381C77.1438 19.7275 77.1438 19.9486 77.1965 20.3064C77.2048 20.4264 77.2606 20.5382 77.3514 20.6172C77.4422 20.6961 77.5606 20.7358 77.6806 20.7274C77.8007 20.719 77.9124 20.6633 77.9914 20.5725C78.0703 20.4817 78.11 20.3633 78.1016 20.2433ZM85.206 20.1696C85.206 20.2896 85.2537 20.4047 85.3386 20.4896C85.4234 20.5745 85.5386 20.6222 85.6586 20.6222C85.7786 20.6222 85.8937 20.5745 85.9786 20.4896C86.0635 20.4047 86.1112 20.2896 86.1112 20.1696V19.696C86.1714 19.6105 86.201 19.5072 86.1951 19.4028C86.1891 19.2984 86.1481 19.1991 86.0785 19.1211C86.009 19.043 85.9151 18.9907 85.8121 18.9728C85.7091 18.9549 85.6031 18.9724 85.5112 19.0224C85.1008 19.2855 85.206 19.8117 85.206 20.1696ZM83.08 26.674C82.7015 26.8848 82.3031 27.0575 81.8906 27.1898C81.6591 27.1898 81.6065 27.516 81.8906 27.5476C82.158 27.6819 82.4547 27.7471 82.7537 27.7371C83.059 27.701 83.3522 27.596 83.6111 27.4301C83.87 27.2642 84.0879 27.0416 84.2482 26.7793C84.3783 26.5001 84.4328 26.1916 84.4061 25.8847C84.4159 25.8372 84.4064 25.7878 84.3798 25.7474C84.3531 25.7069 84.3115 25.6787 84.264 25.6689C84.2166 25.6591 84.1672 25.6686 84.1267 25.6953C84.0863 25.7219 84.058 25.7635 84.0483 25.811C83.7609 26.1361 83.4359 26.4258 83.08 26.674ZM141.831 27.3897C142.631 27.6423 143.936 27.8107 144.493 27.1792C145.051 26.5477 144.746 24.9058 144.683 24.2112C144.552 22.8471 144.255 21.5041 143.799 20.2117C143.789 20.1642 143.761 20.1226 143.72 20.096C143.68 20.0693 143.631 20.0598 143.583 20.0696C143.536 20.0794 143.494 20.1076 143.467 20.148C143.441 20.1885 143.431 20.2379 143.441 20.2854C143.441 20.6116 143.588 22.222 143.62 22.6324C143.821 23.9731 143.892 25.3302 143.83 26.6846C143.594 26.8442 143.324 26.9453 143.041 26.9793C141.989 27.1582 141.746 26.9056 141.694 27.1792C141.688 27.2021 141.686 27.226 141.69 27.2494C141.694 27.2729 141.702 27.2952 141.715 27.3151C141.728 27.335 141.745 27.3519 141.765 27.3647C141.785 27.3776 141.807 27.3861 141.831 27.3897ZM140.052 20.4538C140.052 20.117 139.084 19.9486 138.452 20.0854C137.821 20.2222 136.958 20.8853 137.2 21.1379C137.442 21.3905 140.01 20.759 140.052 20.4538ZM139.357 22.9692V23.8744C139.357 23.9944 139.405 24.1095 139.49 24.1944C139.575 24.2793 139.69 24.327 139.81 24.327C139.93 24.327 140.045 24.2793 140.13 24.1944C140.215 24.1095 140.262 23.9944 140.262 23.8744V23.0008C140.265 22.8797 140.221 22.7624 140.138 22.6738C140.055 22.5853 139.941 22.5327 139.82 22.5272C139.701 22.5271 139.586 22.573 139.5 22.6553C139.414 22.7376 139.363 22.8501 139.357 22.9692ZM148.335 20.8853C148.419 20.759 148.083 20.0854 147.283 19.8328C146.483 19.5802 145.872 19.9801 145.872 20.1696C145.872 20.359 148.177 21.1168 148.335 20.8853ZM138.905 29.6421C138.663 29.7158 138.663 31.2314 140.105 31.6629C140.841 31.8734 141.841 31.7576 141.862 31.4945C141.883 31.2314 140.431 30.9156 139.957 30.5894C139.484 30.2631 139.105 29.579 138.905 29.6421ZM146.893 22.3483C146.834 22.3469 146.775 22.3572 146.719 22.3786C146.664 22.4001 146.613 22.4323 146.57 22.4733C146.527 22.5144 146.493 22.5635 146.469 22.6179C146.445 22.6723 146.431 22.7309 146.43 22.7903V23.6849C146.447 23.7944 146.502 23.8943 146.586 23.9665C146.67 24.0387 146.777 24.0784 146.888 24.0784C146.999 24.0784 147.106 24.0387 147.19 23.9665C147.274 23.8943 147.329 23.7944 147.346 23.6849V22.8114C147.347 22.751 147.337 22.6911 147.314 22.6349C147.292 22.5788 147.259 22.5277 147.217 22.4845C147.175 22.4414 147.124 22.4071 147.069 22.3837C147.013 22.3603 146.954 22.3482 146.893 22.3483Z" fill="black"/>
</svg>
