<svg width="130" height="131" viewBox="0 0 130 131" fill="none" xmlns="http://www.w3.org/2000/svg">
<g id="play_circle">
<mask id="mask0_33800_216" style="mask-type:alpha" maskUnits="userSpaceOnUse" x="0" y="0" width="130" height="131">
<rect id="Bounding box" y="0.669067" width="130" height="130" fill="#D9D9D9"/>
</mask>
<g mask="url(#mask0_33800_216)">
<path id="play_circle_2" d="M58.7917 81.6482L80 68.0337C80.8542 67.4847 81.2813 66.6999 81.2813 65.6792C81.2813 64.6585 80.8542 63.8669 80 63.3044L58.7917 49.6899C57.7986 49.0371 56.8125 48.9887 55.8334 49.5447C54.8541 50.1008 54.3645 50.9374 54.3645 52.0544V79.2837C54.3645 80.4007 54.8541 81.2373 55.8334 81.7934C56.8125 82.3494 57.7986 82.301 58.7917 81.6482ZM65.0181 114.419C58.2977 114.419 51.9875 113.14 46.0877 110.581C40.1878 108.023 35.0202 104.528 30.5851 100.097C26.15 95.6663 22.652 90.5036 20.0912 84.6093C17.5304 78.7149 16.25 72.4076 16.25 65.6872C16.25 58.9459 17.5292 52.6079 20.0876 46.6734C22.646 40.7388 26.1408 35.5765 30.5718 31.1864C35.0028 26.7965 40.1655 23.3211 46.0598 20.7603C51.9541 18.1995 58.2615 16.9191 64.9818 16.9191C71.7232 16.9191 78.0611 18.1983 83.9957 20.7566C89.9303 23.3151 95.0926 26.7873 99.4826 31.1732C103.873 35.559 107.348 40.7165 109.909 46.6455C112.47 52.5745 113.75 58.9097 113.75 65.6509C113.75 72.3714 112.471 78.6815 109.912 84.5814C107.354 90.4813 103.882 95.6488 99.4959 100.084C95.11 104.519 89.9526 108.017 84.0236 110.578C78.0945 113.139 71.7594 114.419 65.0181 114.419ZM65 110.252C77.4028 110.252 87.9341 105.917 96.5938 97.2472C105.254 88.5771 109.583 78.051 109.583 65.6691C109.583 53.2663 105.254 42.735 96.5938 34.0753C87.9341 25.4156 77.4028 21.0857 65 21.0857C52.618 21.0857 42.092 25.4156 33.4219 34.0753C24.7517 42.735 20.4166 53.2663 20.4166 65.6691C20.4166 78.051 24.7517 88.5771 33.4219 97.2472C42.092 105.917 52.618 110.252 65 110.252Z" fill="white"/>
</g>
</g>
</svg>
