<svg width="23" height="21" viewBox="0 0 23 21" fill="none" xmlns="http://www.w3.org/2000/svg">
<path d="M3.31141 1.65719C2.45414 1.8466 1.77542 2.53685 1.68595 3.68911C1.68595 4.58249 1.28437 8.41423 1.21067 9.00043C0.968282 10.9283 1.00154 12.8813 1.00154 14.8221C1.00154 16.2704 1.52218 16.6532 2.54145 17.6384C3.54187 18.6054 5.18485 18.6573 6.48629 18.9237C8.52236 19.3405 10.5176 19.6397 12.5984 19.8121C15.3815 20.0427 18.2241 19.9784 19.8227 17.5061C20.2284 16.8787 20.2895 16.3017 20.431 15.5782C20.7673 13.859 21.0468 12.0701 21.182 10.3235C21.2929 8.88977 21.5009 7.46722 21.5337 6.0329C21.5644 4.69055 22.2626 2.67477 20.336 2.19589C18.8017 1.81454 17.1857 1.89249 15.6212 1.80841C13.0825 1.67197 10.5624 1.64774 8.01669 1.64774C6.57844 1.64774 4.73269 1.34318 3.31141 1.65719Z" fill="white" stroke="black" stroke-width="1.37879" stroke-linecap="round"/>
</svg>
