<svg width="24" height="24" viewBox="0 0 24 24" fill="none" xmlns="http://www.w3.org/2000/svg">
<rect x="4" y="4" width="16" height="16" rx="2" fill="#B9C4FF"/>
<path fill-rule="evenodd" clip-rule="evenodd" d="M16.7069 8.79279C16.8944 8.98031 16.9997 9.23462 16.9997 9.49979C16.9997 9.76495 16.8944 10.0193 16.7069 10.2068L11.7069 15.2068C11.5194 15.3943 11.2651 15.4996 10.9999 15.4996C10.7348 15.4996 10.4804 15.3943 10.2929 15.2068L7.29292 12.2068C7.11076 12.0182 7.00997 11.7656 7.01224 11.5034C7.01452 11.2412 7.11969 10.9904 7.3051 10.805C7.49051 10.6196 7.74132 10.5144 8.00352 10.5121C8.26571 10.5098 8.51832 10.6106 8.70692 10.7928L10.9999 13.0858L15.2929 8.79279C15.4804 8.60532 15.7348 8.5 15.9999 8.5C16.2651 8.5 16.5194 8.60532 16.7069 8.79279Z" fill="#354ACB"/>
</svg>
