<svg width="96" height="96" viewBox="0 0 96 96" fill="none" xmlns="http://www.w3.org/2000/svg">
<path d="M40.6249 69.067L74.317 35.3749L69.9614 31.0961L40.6249 60.4808L25.8173 45.673L21.5865 49.9518L40.6249 69.067ZM48.0082 95.4998C41.4898 95.4998 35.3483 94.2531 29.5836 91.7598C23.819 89.2664 18.7778 85.8618 14.46 81.546C10.1422 77.2301 6.73604 72.1911 4.24163 66.429C1.74721 60.6668 0.5 54.5266 0.5 48.0083C0.5 41.4386 1.74667 35.2634 4.24 29.4828C6.73333 23.702 10.1379 18.6736 14.4538 14.3975C18.7697 10.1213 23.8087 6.73605 29.5707 4.24163C35.3329 1.74721 41.4732 0.5 47.9915 0.5C54.5612 0.5 60.7363 1.74667 66.517 4.24001C72.2978 6.73334 77.3262 10.1171 81.6023 14.3913C85.8784 18.6655 89.2637 23.6917 91.7581 29.4699C94.2525 35.248 95.4998 41.4218 95.4998 47.9915C95.4998 54.5099 94.2531 60.6515 91.7598 66.4161C89.2664 72.1808 85.8827 77.222 81.6085 81.5397C77.3343 85.8576 72.3081 89.2637 66.5299 91.7581C60.7518 94.2525 54.5779 95.4998 48.0082 95.4998ZM47.9999 89.8268C59.6409 89.8268 69.5223 85.7531 77.6441 77.6056C85.7659 69.4582 89.8268 59.5896 89.8268 47.9999C89.8268 36.3589 85.7659 26.4775 77.6441 18.3556C69.5223 10.2339 59.6409 6.173 47.9999 6.173C36.4101 6.173 26.5415 10.2339 18.3941 18.3556C10.2467 26.4775 6.173 36.3589 6.173 47.9999C6.173 59.5896 10.2467 69.4582 18.3941 77.6056C26.5415 85.7531 36.4101 89.8268 47.9999 89.8268Z" fill="#556AEB"/>
</svg>
