<svg width="12" height="7" viewBox="0 0 12 7" fill="none" xmlns="http://www.w3.org/2000/svg">
<path d="M6.00003 6.66151C5.87951 6.66151 5.76734 6.64227 5.6635 6.60381C5.55965 6.56534 5.46094 6.49931 5.36735 6.40573L0.873127 1.91151C0.734661 1.77306 0.663827 1.59902 0.660627 1.38941C0.657411 1.17979 0.728244 1.00255 0.873127 0.85768C1.01799 0.712813 1.19363 0.640381 1.40003 0.640381C1.60643 0.640381 1.78206 0.712813 1.92693 0.85768L6.00003 4.93078L10.0731 0.85768C10.2116 0.71923 10.3856 0.648396 10.5952 0.64518C10.8048 0.64198 10.9821 0.712813 11.1269 0.85768C11.2718 1.00255 11.3443 1.17819 11.3443 1.38461C11.3443 1.59101 11.2718 1.76664 11.1269 1.91151L6.6327 6.40573C6.53912 6.49931 6.4404 6.56534 6.33655 6.60381C6.23272 6.64227 6.12054 6.66151 6.00003 6.66151Z" fill="#1C1B1F"/>
</svg>
