<svg width="20" height="20" viewBox="0 0 20 20" fill="none" xmlns="http://www.w3.org/2000/svg">
<path d="M9.99998 19.5C8.69741 19.5 7.46825 19.2503 6.3125 18.7509C5.15673 18.2516 4.14872 17.5718 3.28845 16.7115C2.4282 15.8512 1.7484 14.8432 1.24905 13.6875C0.749683 12.5317 0.5 11.3025 0.5 9.99998C0.5 8.68716 0.749683 7.45543 1.24905 6.3048C1.7484 5.15417 2.4282 4.14872 3.28845 3.28845C4.14872 2.4282 5.15673 1.7484 6.3125 1.24905C7.46825 0.749684 8.69741 0.5 9.99998 0.5C11.3128 0.5 12.5445 0.749684 13.6952 1.24905C14.8458 1.7484 15.8512 2.4282 16.7115 3.28845C17.5718 4.14872 18.2516 5.15417 18.7509 6.3048C19.2503 7.45543 19.5 8.68716 19.5 9.99998C19.5 11.3025 19.2503 12.5317 18.7509 13.6875C18.2516 14.8432 17.5718 15.8512 16.7115 16.7115C15.8512 17.5718 14.8458 18.2516 13.6952 18.7509C12.5445 19.2503 11.3128 19.5 9.99998 19.5ZM9.99998 17.9788C10.5102 17.3019 10.9397 16.6192 11.2885 15.9307C11.6372 15.2423 11.9211 14.4897 12.1404 13.673H7.85958C8.09163 14.5153 8.37881 15.2807 8.72113 15.9692C9.06343 16.6577 9.48971 17.3275 9.99998 17.9788ZM8.06348 17.7038C7.68014 17.1538 7.33591 16.5285 7.03078 15.8279C6.72564 15.1272 6.48846 14.4089 6.31922 13.673H2.92688C3.45509 14.7115 4.16343 15.584 5.0519 16.2904C5.94038 16.9968 6.94424 17.4679 8.06348 17.7038ZM11.9365 17.7038C13.0557 17.4679 14.0596 16.9968 14.9481 16.2904C15.8365 15.584 16.5449 14.7115 17.0731 13.673H13.6807C13.4794 14.4153 13.2262 15.1368 12.9211 15.8375C12.616 16.5381 12.2878 17.1602 11.9365 17.7038ZM2.29805 12.1731H6.01538C5.95256 11.8013 5.90705 11.4369 5.87885 11.0798C5.85065 10.7227 5.83655 10.3628 5.83655 9.99998C5.83655 9.63716 5.85065 9.27722 5.87885 8.92015C5.90705 8.5631 5.95256 8.19868 6.01538 7.82688H2.29805C2.2019 8.16663 2.12818 8.51983 2.0769 8.8865C2.02562 9.25317 1.99998 9.62433 1.99998 9.99998C1.99998 10.3756 2.02562 10.7468 2.0769 11.1135C2.12818 11.4801 2.2019 11.8333 2.29805 12.1731ZM7.51535 12.1731H12.4846C12.5474 11.8013 12.5929 11.4401 12.6212 11.0894C12.6494 10.7388 12.6635 10.3756 12.6635 9.99998C12.6635 9.62433 12.6494 9.26118 12.6212 8.91055C12.5929 8.5599 12.5474 8.19868 12.4846 7.82688H7.51535C7.45253 8.19868 7.40702 8.5599 7.3788 8.91055C7.3506 9.26118 7.3365 9.62433 7.3365 9.99998C7.3365 10.3756 7.3506 10.7388 7.3788 11.0894C7.40702 11.4401 7.45253 11.8013 7.51535 12.1731ZM13.9846 12.1731H17.7019C17.7981 11.8333 17.8718 11.4801 17.9231 11.1135C17.9743 10.7468 18 10.3756 18 9.99998C18 9.62433 17.9743 9.25317 17.9231 8.8865C17.8718 8.51983 17.7981 8.16663 17.7019 7.82688H13.9846C14.0474 8.19868 14.0929 8.5631 14.1211 8.92015C14.1493 9.27722 14.1634 9.63716 14.1634 9.99998C14.1634 10.3628 14.1493 10.7227 14.1211 11.0798C14.0929 11.4369 14.0474 11.8013 13.9846 12.1731ZM13.6807 6.32693H17.0731C16.5384 5.27563 15.8349 4.40318 14.9625 3.70958C14.09 3.01599 13.0814 2.54163 11.9365 2.2865C12.3198 2.86855 12.6608 3.50509 12.9596 4.19613C13.2583 4.88716 13.4987 5.59743 13.6807 6.32693ZM7.85958 6.32693H12.1404C11.9083 5.49103 11.6163 4.72083 11.2644 4.01633C10.9125 3.31184 10.491 2.64678 9.99998 2.02113C9.50894 2.64678 9.08747 3.31184 8.73555 4.01633C8.38362 4.72083 8.09163 5.49103 7.85958 6.32693ZM2.92688 6.32693H6.31922C6.50128 5.59743 6.74167 4.88716 7.0404 4.19613C7.33912 3.50509 7.68014 2.86855 8.06348 2.2865C6.91219 2.54163 5.90193 3.0176 5.03268 3.7144C4.16344 4.4112 3.46151 5.28204 2.92688 6.32693Z" fill="#212529"/>
</svg>
