<svg width="24" height="25" viewBox="0 0 24 25" fill="none" xmlns="http://www.w3.org/2000/svg">
<g clip-path="url(#clip0_35080_12614)">
<path d="M23.7138 13.1659C23.7138 12.1826 23.634 11.4651 23.4614 10.721H12.2334V15.159H18.824C18.6911 16.2619 17.9736 17.9228 16.3791 19.0389L16.3567 19.1875L19.9068 21.9377L20.1528 21.9623C22.4116 19.8761 23.7138 16.8067 23.7138 13.1659Z" fill="#4285F4"/>
<path d="M12.2335 24.8589C15.4623 24.8589 18.173 23.7959 20.1529 21.9622L16.3792 19.0389C15.3693 19.7432 14.014 20.2348 12.2335 20.2348C9.07109 20.2348 6.38703 18.1487 5.43023 15.2653L5.28999 15.2772L1.59857 18.1341L1.55029 18.2683C3.51683 22.1748 7.55625 24.8589 12.2335 24.8589Z" fill="#34A853"/>
<path d="M5.43041 15.2653C5.17796 14.5212 5.03185 13.7239 5.03185 12.9001C5.03185 12.0763 5.17796 11.279 5.41713 10.5349L5.41044 10.3765L1.67277 7.47375L1.55047 7.53192C0.739971 9.15302 0.274902 10.9734 0.274902 12.9001C0.274902 14.8268 0.739971 16.6472 1.55047 18.2683L5.43041 15.2653Z" fill="#FBBC05"/>
<path d="M12.2335 5.56538C14.4791 5.56538 15.9938 6.53536 16.8575 7.34596L20.2326 4.05063C18.1598 2.12394 15.4623 0.941345 12.2335 0.941345C7.55625 0.941345 3.51683 3.62541 1.55029 7.53191L5.41695 10.5349C6.38703 7.65154 9.07109 5.56538 12.2335 5.56538Z" fill="#EB4335"/>
</g>
<defs>
<clipPath id="clip0_35080_12614">
<rect width="24" height="24" fill="white" transform="translate(0 0.941345)"/>
</clipPath>
</defs>
</svg>
