<svg width="740" height="168" viewBox="0 0 740 168" fill="none" xmlns="http://www.w3.org/2000/svg">
<path d="M74.3339 92.5121H61.9218L71.6492 115.669C73.3978 119.831 73.8419 124.427 72.923 128.847C72.828 129.304 72.6871 129.75 72.5023 130.178L66.5405 144H77.8507L81.6004 135.994C81.9961 135.149 82.4604 134.338 82.9886 133.569C85.9806 129.212 89.584 125.309 93.6878 121.979L130 92.5121L116.329 92.5121L91.5041 111.82L100.4 92.5121H88.8148L80.3332 111.82L74.3339 92.5121Z" fill="#556AEB"/>
<path fill-rule="evenodd" clip-rule="evenodd" d="M138.396 61.1672C142.071 69.8901 137.31 78.0635 129.44 81.9078L121.43 61.0959C119.813 56.8953 119.449 52.3161 120.381 47.9126C120.483 47.4292 120.635 46.9576 120.833 46.5052L123.606 40.1922C124.12 40.664 124.626 41.1447 125.124 41.6344C130.809 47.2252 135.319 53.8624 138.396 61.1672ZM114.963 33.5779C111.894 31.6359 108.648 29.9629 105.26 28.583C97.8315 25.5573 89.8697 24 81.8292 24C73.7886 24 65.8268 25.5573 58.3983 28.583C50.9698 31.6087 44.2201 36.0436 38.5346 41.6344C32.8491 47.2252 28.3391 53.8624 25.2621 61.1672C20.1888 73.2112 31.1959 84.2076 44.2649 84.2076L60.4036 84.2076L100.21 53.1893C103.863 50.343 107.129 47.0332 109.927 43.3434C110.607 42.447 111.194 41.4836 111.678 40.4682L114.963 33.5779ZM74.9356 84.2076H81.8292H90.9418L101.472 63.4464L74.9356 84.2076ZM103.157 84.2076H117.9L111.792 63.4464L103.157 84.2076Z" fill="#556AEB"/>
<path d="M207.098 123.27C201.965 123.27 197.345 122.39 193.238 120.63C189.132 118.797 185.905 116.23 183.558 112.93C181.212 109.63 180.038 105.78 180.038 101.38H193.458C193.752 104.68 195.035 107.393 197.308 109.52C199.655 111.647 202.918 112.71 207.098 112.71C211.425 112.71 214.798 111.683 217.218 109.63C219.638 107.503 220.848 104.79 220.848 101.49C220.848 98.9233 220.078 96.8333 218.538 95.22C217.072 93.6067 215.202 92.36 212.928 91.48C210.728 90.6 207.648 89.6467 203.688 88.62C198.702 87.3 194.632 85.98 191.478 84.66C188.398 83.2667 185.758 81.14 183.558 78.28C181.358 75.42 180.258 71.6067 180.258 66.84C180.258 62.44 181.358 58.59 183.558 55.29C185.758 51.99 188.838 49.46 192.798 47.7C196.758 45.94 201.342 45.06 206.548 45.06C213.955 45.06 220.005 46.93 224.698 50.67C229.465 54.3367 232.105 59.3967 232.618 65.85H218.758C218.538 63.0633 217.218 60.68 214.798 58.7C212.378 56.72 209.188 55.73 205.228 55.73C201.635 55.73 198.702 56.6467 196.428 58.48C194.155 60.3133 193.018 62.9533 193.018 66.4C193.018 68.7467 193.715 70.69 195.108 72.23C196.575 73.6967 198.408 74.87 200.608 75.75C202.808 76.63 205.815 77.5833 209.628 78.61C214.688 80.0033 218.795 81.3967 221.948 82.79C225.175 84.1833 227.888 86.3467 230.088 89.28C232.362 92.14 233.498 95.99 233.498 100.83C233.498 104.717 232.435 108.383 230.308 111.83C228.255 115.277 225.212 118.063 221.178 120.19C217.218 122.243 212.525 123.27 207.098 123.27ZM302.855 61.89L265.675 150.99H252.695L265.015 121.51L241.145 61.89H255.115L272.165 108.09L289.875 61.89H302.855ZM308.138 92.14C308.138 85.9067 309.385 80.4433 311.878 75.75C314.445 70.9833 317.965 67.3167 322.438 64.75C326.912 62.1833 332.045 60.9 337.838 60.9C345.172 60.9 351.222 62.66 355.988 66.18C360.828 69.6267 364.092 74.5767 365.778 81.03H352.248C351.148 78.0233 349.388 75.6767 346.968 73.99C344.548 72.3033 341.505 71.46 337.838 71.46C332.705 71.46 328.598 73.2933 325.518 76.96C322.512 80.5533 321.008 85.6133 321.008 92.14C321.008 98.6667 322.512 103.763 325.518 107.43C328.598 111.097 332.705 112.93 337.838 112.93C345.098 112.93 349.902 109.74 352.248 103.36H365.778C364.018 109.52 360.718 114.433 355.878 118.1C351.038 121.693 345.025 123.49 337.838 123.49C332.045 123.49 326.912 122.207 322.438 119.64C317.965 117 314.445 113.333 311.878 108.64C309.385 103.873 308.138 98.3733 308.138 92.14ZM374.096 91.92C374.096 85.8333 375.342 80.4433 377.836 75.75C380.402 71.0567 383.849 67.4267 388.176 64.86C392.576 62.22 397.416 60.9 402.696 60.9C407.462 60.9 411.606 61.8533 415.126 63.76C418.719 65.5933 421.579 67.9033 423.706 70.69V61.89H436.356V122.5H423.706V113.48C421.579 116.34 418.682 118.723 415.016 120.63C411.349 122.537 407.169 123.49 402.476 123.49C397.269 123.49 392.502 122.17 388.176 119.53C383.849 116.817 380.402 113.077 377.836 108.31C375.342 103.47 374.096 98.0067 374.096 91.92ZM423.706 92.14C423.706 87.96 422.826 84.33 421.066 81.25C419.379 78.17 417.142 75.8233 414.356 74.21C411.569 72.5967 408.562 71.79 405.336 71.79C402.109 71.79 399.102 72.5967 396.316 74.21C393.529 75.75 391.256 78.06 389.496 81.14C387.809 84.1467 386.966 87.74 386.966 91.92C386.966 96.1 387.809 99.7667 389.496 102.92C391.256 106.073 393.529 108.493 396.316 110.18C399.176 111.793 402.182 112.6 405.336 112.6C408.562 112.6 411.569 111.793 414.356 110.18C417.142 108.567 419.379 106.22 421.066 103.14C422.826 99.9867 423.706 96.32 423.706 92.14ZM526.196 60.9C530.963 60.9 535.216 61.89 538.956 63.87C542.77 65.85 545.74 68.7833 547.866 72.67C550.066 76.5567 551.166 81.25 551.166 86.75V122.5H538.736V88.62C538.736 83.1933 537.38 79.05 534.666 76.19C531.953 73.2567 528.25 71.79 523.556 71.79C518.863 71.79 515.123 73.2567 512.336 76.19C509.623 79.05 508.266 83.1933 508.266 88.62V122.5H495.836V88.62C495.836 83.1933 494.48 79.05 491.766 76.19C489.053 73.2567 485.35 71.79 480.656 71.79C475.963 71.79 472.223 73.2567 469.436 76.19C466.723 79.05 465.366 83.1933 465.366 88.62V122.5H452.826V61.89H465.366V68.82C467.42 66.3267 470.023 64.3833 473.176 62.99C476.33 61.5967 479.703 60.9 483.296 60.9C488.136 60.9 492.463 61.9267 496.276 63.98C500.09 66.0333 503.023 69.0033 505.076 72.89C506.91 69.2233 509.77 66.3267 513.656 64.2C517.543 62 521.723 60.9 526.196 60.9ZM593.413 123.49C587.693 123.49 582.523 122.207 577.903 119.64C573.283 117 569.653 113.333 567.013 108.64C564.373 103.873 563.053 98.3733 563.053 92.14C563.053 85.98 564.41 80.5167 567.123 75.75C569.837 70.9833 573.54 67.3167 578.233 64.75C582.927 62.1833 588.17 60.9 593.963 60.9C599.757 60.9 605 62.1833 609.693 64.75C614.387 67.3167 618.09 70.9833 620.803 75.75C623.517 80.5167 624.873 85.98 624.873 92.14C624.873 98.3 623.48 103.763 620.693 108.53C617.907 113.297 614.093 117 609.253 119.64C604.487 122.207 599.207 123.49 593.413 123.49ZM593.413 112.6C596.64 112.6 599.647 111.83 602.433 110.29C605.293 108.75 607.603 106.44 609.363 103.36C611.123 100.28 612.003 96.54 612.003 92.14C612.003 87.74 611.16 84.0367 609.473 81.03C607.787 77.95 605.55 75.64 602.763 74.1C599.977 72.56 596.97 71.79 593.743 71.79C590.517 71.79 587.51 72.56 584.723 74.1C582.01 75.64 579.847 77.95 578.233 81.03C576.62 84.0367 575.813 87.74 575.813 92.14C575.813 98.6667 577.463 103.727 580.763 107.32C584.137 110.84 588.353 112.6 593.413 112.6ZM649.81 70.69C651.643 67.61 654.063 65.2267 657.07 63.54C660.15 61.78 663.78 60.9 667.96 60.9V73.88H664.77C659.856 73.88 656.116 75.1267 653.55 77.62C651.056 80.1133 649.81 84.44 649.81 90.6V122.5H637.27V61.89H649.81V70.69ZM735.036 90.71C735.036 92.9833 734.89 95.0367 734.596 96.87H688.286C688.653 101.71 690.45 105.597 693.676 108.53C696.903 111.463 700.863 112.93 705.556 112.93C712.303 112.93 717.07 110.107 719.856 104.46H733.386C731.553 110.033 728.216 114.617 723.376 118.21C718.61 121.73 712.67 123.49 705.556 123.49C699.763 123.49 694.556 122.207 689.936 119.64C685.39 117 681.796 113.333 679.156 108.64C676.59 103.873 675.306 98.3733 675.306 92.14C675.306 85.9067 676.553 80.4433 679.046 75.75C681.613 70.9833 685.17 67.3167 689.716 64.75C694.336 62.1833 699.616 60.9 705.556 60.9C711.276 60.9 716.373 62.1467 720.846 64.64C725.32 67.1333 728.803 70.6533 731.296 75.2C733.79 79.6733 735.036 84.8433 735.036 90.71ZM721.946 86.75C721.873 82.13 720.223 78.4267 716.996 75.64C713.77 72.8533 709.773 71.46 705.006 71.46C700.68 71.46 696.976 72.8533 693.896 75.64C690.816 78.3533 688.983 82.0567 688.396 86.75H721.946Z" fill="#556AEB"/>
</svg>
