<svg width="22" height="16" viewBox="0 0 22 16" fill="none" xmlns="http://www.w3.org/2000/svg">
<path d="M11 2.44135C14.79 2.44135 18.17 4.57135 19.82 7.94135C18.17 11.3113 14.79 13.4413 11 13.4413C7.21 13.4413 3.83 11.3113 2.18 7.94135C3.83 4.57135 7.21 2.44135 11 2.44135ZM11 0.441345C6 0.441345 1.73 3.55135 0 7.94135C1.73 12.3313 6 15.4413 11 15.4413C16 15.4413 20.27 12.3313 22 7.94135C20.27 3.55135 16 0.441345 11 0.441345ZM11 5.44135C12.38 5.44135 13.5 6.56135 13.5 7.94135C13.5 9.32135 12.38 10.4413 11 10.4413C9.62 10.4413 8.5 9.32135 8.5 7.94135C8.5 6.56135 9.62 5.44135 11 5.44135ZM11 3.44135C8.52 3.44135 6.5 5.46135 6.5 7.94135C6.5 10.4213 8.52 12.4413 11 12.4413C13.48 12.4413 15.5 10.4213 15.5 7.94135C15.5 5.46135 13.48 3.44135 11 3.44135Z" fill="#6C757D"/>
</svg>
