<svg width="24" height="24" viewBox="0 0 24 24" fill="none" xmlns="http://www.w3.org/2000/svg">
<mask id="mask0_34983_4392" style="mask-type:alpha" maskUnits="userSpaceOnUse" x="0" y="0" width="24" height="24">
<rect width="24" height="24" fill="#D9D9D9"/>
</mask>
<g mask="url(#mask0_34983_4392)">
<path d="M12 11.6821C11.0375 11.6821 10.2338 11.3597 9.58903 10.7149C8.94421 10.0701 8.6218 9.26643 8.6218 8.30393C8.6218 7.33718 8.94421 6.53246 9.58903 5.88978C10.2338 5.24711 11.0375 4.92578 12 4.92578C12.9625 4.92578 13.7661 5.24711 14.4109 5.88978C15.0557 6.53246 15.3782 7.33718 15.3782 8.30393C15.3782 9.26643 15.0557 10.0701 14.4109 10.7149C13.7661 11.3597 12.9625 11.6821 12 11.6821ZM4.5 19.3077V17.3014C4.5 16.78 4.63921 16.3169 4.91762 15.912C5.19604 15.507 5.56111 15.1958 6.01283 14.9783C7.04401 14.5048 8.05288 14.1486 9.03942 13.9097C10.026 13.6708 11.0128 13.5514 12 13.5514C12.9871 13.5514 13.9723 13.6725 14.9554 13.9149C15.9385 14.1572 16.9457 14.5116 17.9769 14.9783C18.4354 15.1958 18.8039 15.507 19.0823 15.912C19.3607 16.3169 19.5 16.78 19.5 17.3014V19.3077H4.5Z" fill="#212529"/>
</g>
</svg>
