<svg width="24" height="24" viewBox="0 0 24 24" fill="none" xmlns="http://www.w3.org/2000/svg">
<mask id="mask0_34983_4080" style="mask-type:alpha" maskUnits="userSpaceOnUse" x="0" y="0" width="24" height="24">
<rect width="24" height="24" fill="#D9D9D9"/>
</mask>
<g mask="url(#mask0_34983_4080)">
<path d="M6.52627 17.4769C6.34539 17.4769 6.19554 17.4174 6.07674 17.2984C5.95794 17.1794 5.89854 17.0295 5.89854 16.8488V9.85955C5.89854 9.69162 5.95977 9.5491 6.08222 9.432C6.20465 9.31492 6.35187 9.25638 6.52387 9.25638C6.70697 9.25638 6.85792 9.31589 6.97672 9.4349C7.09552 9.5539 7.15492 9.70379 7.15492 9.88455V16.8738C7.15492 17.0417 7.09259 17.1842 6.96794 17.3013C6.84328 17.4184 6.69605 17.4769 6.52627 17.4769ZM12.0501 17.4769C11.867 17.4769 11.716 17.4174 11.5972 17.2984C11.4784 17.1794 11.419 17.0295 11.419 16.8488V9.85955C11.419 9.69162 11.4813 9.5491 11.606 9.432C11.7307 9.31492 11.8779 9.25638 12.0476 9.25638C12.2285 9.25638 12.3784 9.31589 12.4972 9.4349C12.616 9.5539 12.6754 9.70379 12.6754 9.88455V16.8738C12.6754 17.0417 12.6142 17.1842 12.4917 17.3013C12.3693 17.4184 12.2221 17.4769 12.0501 17.4769ZM3.37224 20.4897C3.20429 20.4897 3.06178 20.4274 2.94469 20.3027C2.82759 20.1781 2.76904 20.0309 2.76904 19.8611C2.76904 19.6802 2.82855 19.5303 2.94757 19.4115C3.06658 19.2927 3.21648 19.2333 3.39724 19.2333H20.6273C20.7952 19.2333 20.9378 19.2946 21.0548 19.417C21.1719 19.5395 21.2305 19.6867 21.2305 19.8587C21.2305 20.0418 21.171 20.1927 21.052 20.3115C20.933 20.4303 20.7831 20.4897 20.6023 20.4897H3.37224ZM17.4757 17.4769C17.2926 17.4769 17.1416 17.4174 17.0228 17.2984C16.904 17.1794 16.8446 17.0295 16.8446 16.8488V9.85955C16.8446 9.69162 16.9069 9.5491 17.0316 9.432C17.1563 9.31492 17.3035 9.25638 17.4733 9.25638C17.6542 9.25638 17.804 9.31589 17.9228 9.4349C18.0416 9.5539 18.101 9.70379 18.101 9.88455V16.8738C18.101 17.0417 18.0398 17.1842 17.9173 17.3013C17.7949 17.4184 17.6477 17.4769 17.4757 17.4769ZM12.7196 1.9231L20.8023 6.16155C20.9312 6.23772 21.0348 6.33582 21.1131 6.45585C21.1914 6.57589 21.2305 6.71304 21.2305 6.8673C21.2305 7.05285 21.1619 7.20469 21.0246 7.3228C20.8874 7.44092 20.7257 7.49998 20.5395 7.49998H3.45557C3.27693 7.49998 3.11786 7.43985 2.97834 7.3196C2.83881 7.19935 2.76904 7.04871 2.76904 6.86768C2.76904 6.71658 2.81039 6.57778 2.89309 6.45128C2.97578 6.3248 3.08592 6.22993 3.22352 6.16668L11.2799 1.9231C11.5043 1.809 11.7438 1.75195 11.9985 1.75195C12.2532 1.75195 12.4936 1.809 12.7196 1.9231Z" fill="#212529"/>
</g>
</svg>
