<svg width="20" height="18" viewBox="0 0 20 18" fill="none" xmlns="http://www.w3.org/2000/svg">
<path d="M1.42543 17.5C1.25593 17.5 1.1037 17.4586 0.968751 17.3757C0.833801 17.2929 0.728843 17.1836 0.653876 17.0481C0.575893 16.9135 0.533001 16.7676 0.525201 16.6106C0.517401 16.4535 0.559776 16.298 0.652326 16.144L9.21308 1.35616C9.30563 1.20212 9.42145 1.08825 9.56055 1.01453C9.69965 0.940798 9.84613 0.903931 9.99998 0.903931C10.1538 0.903931 10.3003 0.940798 10.4394 1.01453C10.5785 1.08825 10.6943 1.20212 10.7869 1.35616L19.3476 16.144C19.4402 16.298 19.4826 16.4535 19.4748 16.6106C19.467 16.7676 19.4241 16.9135 19.3461 17.0481C19.2711 17.1836 19.1662 17.2929 19.0312 17.3757C18.8963 17.4586 18.744 17.5 18.5745 17.5H1.42543ZM9.99998 14.8077C10.2288 14.8077 10.4207 14.7303 10.5755 14.5755C10.7303 14.4207 10.8077 14.2289 10.8077 14C10.8077 13.7712 10.7303 13.5794 10.5755 13.4246C10.4207 13.2698 10.2288 13.1924 9.99998 13.1924C9.77113 13.1924 9.5793 13.2698 9.4245 13.4246C9.2697 13.5794 9.1923 13.7712 9.1923 14C9.1923 14.2289 9.2697 14.4207 9.4245 14.5755C9.5793 14.7303 9.77113 14.8077 9.99998 14.8077ZM10.0003 12.1924C10.2129 12.1924 10.391 12.1205 10.5346 11.9767C10.6782 11.833 10.75 11.6549 10.75 11.4424V7.94233C10.75 7.72983 10.6781 7.55171 10.5343 7.40798C10.3904 7.26423 10.2122 7.19236 9.99965 7.19236C9.78705 7.19236 9.60896 7.26423 9.46538 7.40798C9.32179 7.55171 9.25 7.72983 9.25 7.94233V11.4424C9.25 11.6549 9.3219 11.833 9.4657 11.9767C9.60952 12.1205 9.78772 12.1924 10.0003 12.1924Z" fill="#C9324E"/>
</svg>
