<svg width="15" height="17" viewBox="0 0 15 17" fill="none" xmlns="http://www.w3.org/2000/svg">
<path d="M1.99997 9.49995V16C1.99997 16.2125 1.92807 16.3906 1.78425 16.5343C1.64045 16.6781 1.46225 16.75 1.24965 16.75C1.03707 16.75 0.858983 16.6781 0.7154 16.5343C0.5718 16.3906 0.5 16.2125 0.5 16V1.40385C0.5 1.14777 0.586625 0.933109 0.759875 0.759876C0.933108 0.586626 1.14777 0.5 1.40385 0.5H7.84802C8.06141 0.5 8.25193 0.566992 8.4196 0.700975C8.58727 0.834942 8.69289 1.00898 8.73648 1.22308L8.9961 2.5H13.5961C13.8522 2.5 14.0668 2.58626 14.2401 2.75878C14.4133 2.93128 14.5 3.14503 14.5 3.40003V10.6001C14.5 10.8551 14.4133 11.0688 14.2401 11.2413C14.0668 11.4137 13.8522 11.5 13.5961 11.5H9.15193C8.93854 11.5 8.74802 11.433 8.58035 11.299C8.41268 11.165 8.30706 10.991 8.26347 10.7769L8.00385 9.49995H1.99997Z" fill="#6C757D"/>
</svg>
