<svg width="345" height="500" viewBox="0 0 345 500" fill="none" xmlns="http://www.w3.org/2000/svg">
<rect x="0.5" y="0.5" width="343.667" height="499" rx="7.5" fill="white"/>
<rect x="0.5" y="0.5" width="343.667" height="499" rx="7.5" stroke="#556AEB"/>
<rect x="32" y="32" width="48" height="48" rx="8" fill="#212529"/>
<path d="M57.7528 50.3636V62H55.9915V52.125H55.9233L53.1392 53.9432V52.2614L56.0426 50.3636H57.7528Z" fill="white"/>
<path d="M45.872 110.432C45.872 111.328 45.656 112.168 45.224 112.952C44.808 113.736 44.144 114.368 43.232 114.848C42.336 115.328 41.2 115.568 39.824 115.568H37.016V122H33.656V105.248H39.824C41.12 105.248 42.224 105.472 43.136 105.92C44.048 106.368 44.728 106.984 45.176 107.768C45.64 108.552 45.872 109.44 45.872 110.432ZM39.68 112.856C40.608 112.856 41.296 112.648 41.744 112.232C42.192 111.8 42.416 111.2 42.416 110.432C42.416 108.8 41.504 107.984 39.68 107.984H37.016V112.856H39.68ZM61.2096 108.704V122H57.8256V120.32C57.3936 120.896 56.8256 121.352 56.1216 121.688C55.4336 122.008 54.6816 122.168 53.8656 122.168C52.8256 122.168 51.9056 121.952 51.1056 121.52C50.3056 121.072 49.6736 120.424 49.2096 119.576C48.7616 118.712 48.5376 117.688 48.5376 116.504V108.704H51.8976V116.024C51.8976 117.08 52.1616 117.896 52.6896 118.472C53.2176 119.032 53.9376 119.312 54.8496 119.312C55.7776 119.312 56.5056 119.032 57.0336 118.472C57.5616 117.896 57.8256 117.08 57.8256 116.024V108.704H61.2096ZM70.0127 122.216C68.9247 122.216 67.9487 122.024 67.0847 121.64C66.2207 121.24 65.5327 120.704 65.0207 120.032C64.5247 119.36 64.2527 118.616 64.2047 117.8H67.5887C67.6527 118.312 67.9007 118.736 68.3327 119.072C68.7807 119.408 69.3327 119.576 69.9887 119.576C70.6287 119.576 71.1247 119.448 71.4767 119.192C71.8447 118.936 72.0287 118.608 72.0287 118.208C72.0287 117.776 71.8047 117.456 71.3567 117.248C70.9247 117.024 70.2287 116.784 69.2687 116.528C68.2767 116.288 67.4607 116.04 66.8207 115.784C66.1967 115.528 65.6527 115.136 65.1887 114.608C64.7407 114.08 64.5167 113.368 64.5167 112.472C64.5167 111.736 64.7247 111.064 65.1407 110.456C65.5727 109.848 66.1807 109.368 66.9647 109.016C67.7647 108.664 68.7007 108.488 69.7727 108.488C71.3567 108.488 72.6207 108.888 73.5647 109.688C74.5087 110.472 75.0287 111.536 75.1247 112.88H71.9087C71.8607 112.352 71.6367 111.936 71.2367 111.632C70.8527 111.312 70.3327 111.152 69.6767 111.152C69.0687 111.152 68.5967 111.264 68.2607 111.488C67.9407 111.712 67.7807 112.024 67.7807 112.424C67.7807 112.872 68.0047 113.216 68.4527 113.456C68.9007 113.68 69.5967 113.912 70.5407 114.152C71.5007 114.392 72.2927 114.64 72.9167 114.896C73.5407 115.152 74.0767 115.552 74.5247 116.096C74.9887 116.624 75.2287 117.328 75.2447 118.208C75.2447 118.976 75.0287 119.664 74.5968 120.272C74.1807 120.88 73.5727 121.36 72.7727 121.712C71.9887 122.048 71.0687 122.216 70.0127 122.216ZM85.8909 108.512C86.8989 108.512 87.7949 108.736 88.5789 109.184C89.3629 109.616 89.9709 110.264 90.4029 111.128C90.8509 111.976 91.0749 113 91.0749 114.2V122H87.7149V114.656C87.7149 113.6 87.4509 112.792 86.9229 112.232C86.3949 111.656 85.6749 111.368 84.7629 111.368C83.8349 111.368 83.0989 111.656 82.5549 112.232C82.0269 112.792 81.7629 113.6 81.7629 114.656V122H78.4029V104.24H81.7629V110.36C82.1949 109.784 82.7709 109.336 83.4909 109.016C84.2109 108.68 85.0109 108.512 85.8909 108.512ZM113.005 110.432C113.005 111.328 112.789 112.168 112.357 112.952C111.941 113.736 111.277 114.368 110.365 114.848C109.469 115.328 108.333 115.568 106.957 115.568H104.149V122H100.789V105.248H106.957C108.253 105.248 109.357 105.472 110.269 105.92C111.181 106.368 111.861 106.984 112.309 107.768C112.773 108.552 113.005 109.44 113.005 110.432ZM106.813 112.856C107.741 112.856 108.429 112.648 108.877 112.232C109.325 111.8 109.549 111.2 109.549 110.432C109.549 108.8 108.637 107.984 106.813 107.984H104.149V112.856H106.813ZM117.494 107.12C116.902 107.12 116.406 106.936 116.006 106.568C115.622 106.184 115.43 105.712 115.43 105.152C115.43 104.592 115.622 104.128 116.006 103.76C116.406 103.376 116.902 103.184 117.494 103.184C118.086 103.184 118.574 103.376 118.958 103.76C119.358 104.128 119.558 104.592 119.558 105.152C119.558 105.712 119.358 106.184 118.958 106.568C118.574 106.936 118.086 107.12 117.494 107.12ZM119.15 108.704V122H115.79V108.704H119.15ZM130.238 108.512C131.822 108.512 133.102 109.016 134.078 110.024C135.054 111.016 135.542 112.408 135.542 114.2V122H132.182V114.656C132.182 113.6 131.918 112.792 131.39 112.232C130.862 111.656 130.142 111.368 129.23 111.368C128.302 111.368 127.566 111.656 127.022 112.232C126.494 112.792 126.23 113.6 126.23 114.656V122H122.87V108.704H126.23V110.36C126.678 109.784 127.246 109.336 127.934 109.016C128.638 108.68 129.406 108.512 130.238 108.512ZM144.225 122.216C143.137 122.216 142.161 122.024 141.297 121.64C140.433 121.24 139.745 120.704 139.233 120.032C138.737 119.36 138.465 118.616 138.417 117.8H141.801C141.865 118.312 142.113 118.736 142.545 119.072C142.993 119.408 143.545 119.576 144.201 119.576C144.841 119.576 145.337 119.448 145.689 119.192C146.057 118.936 146.241 118.608 146.241 118.208C146.241 117.776 146.017 117.456 145.569 117.248C145.137 117.024 144.441 116.784 143.481 116.528C142.489 116.288 141.673 116.04 141.033 115.784C140.409 115.528 139.865 115.136 139.401 114.608C138.953 114.08 138.729 113.368 138.729 112.472C138.729 111.736 138.937 111.064 139.353 110.456C139.785 109.848 140.393 109.368 141.177 109.016C141.977 108.664 142.913 108.488 143.985 108.488C145.569 108.488 146.833 108.888 147.777 109.688C148.721 110.472 149.241 111.536 149.337 112.88H146.121C146.073 112.352 145.849 111.936 145.449 111.632C145.065 111.312 144.545 111.152 143.889 111.152C143.281 111.152 142.809 111.264 142.473 111.488C142.153 111.712 141.993 112.024 141.993 112.424C141.993 112.872 142.217 113.216 142.665 113.456C143.113 113.68 143.809 113.912 144.753 114.152C145.713 114.392 146.505 114.64 147.129 114.896C147.753 115.152 148.289 115.552 148.737 116.096C149.201 116.624 149.441 117.328 149.457 118.208C149.457 118.976 149.241 119.664 148.809 120.272C148.393 120.88 147.785 121.36 146.985 121.712C146.201 122.048 145.281 122.216 144.225 122.216Z" fill="#212529"/>
<path d="M32.688 160.416C32.688 159.328 32.9333 158.352 33.424 157.488C33.9147 156.613 34.5813 155.931 35.424 155.44C36.2773 154.949 37.2213 154.704 38.256 154.704C39.472 154.704 40.5333 154.997 41.44 155.584C42.3467 156.171 43.008 157.003 43.424 158.08H41.68C41.3707 157.408 40.9227 156.891 40.336 156.528C39.76 156.165 39.0667 155.984 38.256 155.984C37.4773 155.984 36.7787 156.165 36.16 156.528C35.5413 156.891 35.056 157.408 34.704 158.08C34.352 158.741 34.176 159.52 34.176 160.416C34.176 161.301 34.352 162.08 34.704 162.752C35.056 163.413 35.5413 163.925 36.16 164.288C36.7787 164.651 37.4773 164.832 38.256 164.832C39.0667 164.832 39.76 164.656 40.336 164.304C40.9227 163.941 41.3707 163.424 41.68 162.752H43.424C43.008 163.819 42.3467 164.645 41.44 165.232C40.5333 165.808 39.472 166.096 38.256 166.096C37.2213 166.096 36.2773 165.856 35.424 165.376C34.5813 164.885 33.9147 164.208 33.424 163.344C32.9333 162.48 32.688 161.504 32.688 160.416ZM47.0474 158.656C47.3034 158.155 47.666 157.765 48.1354 157.488C48.6154 157.211 49.1967 157.072 49.8794 157.072V158.576H49.4954C47.8634 158.576 47.0474 159.461 47.0474 161.232V166H45.5914V157.232H47.0474V158.656ZM59.5601 161.28C59.5601 161.557 59.5441 161.851 59.5121 162.16H52.5041C52.5575 163.024 52.8508 163.701 53.3841 164.192C53.9281 164.672 54.5841 164.912 55.3521 164.912C55.9815 164.912 56.5041 164.768 56.9201 164.48C57.3468 164.181 57.6455 163.787 57.8161 163.296H59.3841C59.1495 164.139 58.6801 164.827 57.9761 165.36C57.2721 165.883 56.3975 166.144 55.3521 166.144C54.5201 166.144 53.7735 165.957 53.1121 165.584C52.4615 165.211 51.9495 164.683 51.5761 164C51.2028 163.307 51.0161 162.507 51.0161 161.6C51.0161 160.693 51.1975 159.899 51.5601 159.216C51.9228 158.533 52.4295 158.011 53.0801 157.648C53.7415 157.275 54.4988 157.088 55.3521 157.088C56.1841 157.088 56.9201 157.269 57.5601 157.632C58.2001 157.995 58.6908 158.496 59.0321 159.136C59.3841 159.765 59.5601 160.48 59.5601 161.28ZM58.0561 160.976C58.0561 160.421 57.9335 159.947 57.6881 159.552C57.4428 159.147 57.1068 158.843 56.6801 158.64C56.2641 158.427 55.8001 158.32 55.2881 158.32C54.5521 158.32 53.9228 158.555 53.4001 159.024C52.8881 159.493 52.5948 160.144 52.5201 160.976H58.0561ZM60.938 161.584C60.938 160.688 61.1193 159.904 61.482 159.232C61.8447 158.549 62.3407 158.021 62.97 157.648C63.61 157.275 64.3193 157.088 65.098 157.088C65.866 157.088 66.5327 157.253 67.098 157.584C67.6633 157.915 68.0847 158.331 68.362 158.832V157.232H69.834V166H68.362V164.368C68.074 164.88 67.642 165.307 67.066 165.648C66.5007 165.979 65.8393 166.144 65.082 166.144C64.3033 166.144 63.5993 165.952 62.97 165.568C62.3407 165.184 61.8447 164.645 61.482 163.952C61.1193 163.259 60.938 162.469 60.938 161.584ZM68.362 161.6C68.362 160.939 68.2287 160.363 67.962 159.872C67.6953 159.381 67.3327 159.008 66.874 158.752C66.426 158.485 65.93 158.352 65.386 158.352C64.842 158.352 64.346 158.48 63.898 158.736C63.45 158.992 63.0927 159.365 62.826 159.856C62.5593 160.347 62.426 160.923 62.426 161.584C62.426 162.256 62.5593 162.843 62.826 163.344C63.0927 163.835 63.45 164.213 63.898 164.48C64.346 164.736 64.842 164.864 65.386 164.864C65.93 164.864 66.426 164.736 66.874 164.48C67.3327 164.213 67.6953 163.835 67.962 163.344C68.2287 162.843 68.362 162.261 68.362 161.6ZM74.0705 158.432V163.6C74.0705 164.027 74.1612 164.331 74.3425 164.512C74.5238 164.683 74.8385 164.768 75.2865 164.768H76.3585V166H75.0465C74.2358 166 73.6278 165.813 73.2225 165.44C72.8172 165.067 72.6145 164.453 72.6145 163.6V158.432H71.4785V157.232H72.6145V155.024H74.0705V157.232H76.3585V158.432H74.0705ZM86.1226 161.28C86.1226 161.557 86.1066 161.851 86.0746 162.16H79.0666C79.12 163.024 79.4133 163.701 79.9466 164.192C80.4906 164.672 81.1466 164.912 81.9146 164.912C82.544 164.912 83.0666 164.768 83.4826 164.48C83.9093 164.181 84.208 163.787 84.3786 163.296H85.9466C85.712 164.139 85.2426 164.827 84.5386 165.36C83.8346 165.883 82.96 166.144 81.9146 166.144C81.0826 166.144 80.336 165.957 79.6746 165.584C79.024 165.211 78.512 164.683 78.1386 164C77.7653 163.307 77.5786 162.507 77.5786 161.6C77.5786 160.693 77.76 159.899 78.1226 159.216C78.4853 158.533 78.992 158.011 79.6426 157.648C80.304 157.275 81.0613 157.088 81.9146 157.088C82.7466 157.088 83.4826 157.269 84.1226 157.632C84.7626 157.995 85.2533 158.496 85.5946 159.136C85.9466 159.765 86.1226 160.48 86.1226 161.28ZM84.6186 160.976C84.6186 160.421 84.496 159.947 84.2506 159.552C84.0053 159.147 83.6693 158.843 83.2426 158.64C82.8266 158.427 82.3626 158.32 81.8506 158.32C81.1146 158.32 80.4853 158.555 79.9626 159.024C79.4506 159.493 79.1573 160.144 79.0826 160.976H84.6186ZM94.0861 158.432V163.6C94.0861 164.027 94.1768 164.331 94.3581 164.512C94.5395 164.683 94.8541 164.768 95.3021 164.768H96.3741V166H95.0621C94.2515 166 93.6435 165.813 93.2381 165.44C92.8328 165.067 92.6301 164.453 92.6301 163.6V158.432H91.4941V157.232H92.6301V155.024H94.0861V157.232H96.3741V158.432H94.0861ZM97.5943 161.584C97.5943 160.688 97.7756 159.904 98.1383 159.232C98.5009 158.549 98.9969 158.021 99.6263 157.648C100.266 157.275 100.976 157.088 101.754 157.088C102.522 157.088 103.189 157.253 103.754 157.584C104.32 157.915 104.741 158.331 105.018 158.832V157.232H106.49V166H105.018V164.368C104.73 164.88 104.298 165.307 103.722 165.648C103.157 165.979 102.496 166.144 101.738 166.144C100.96 166.144 100.256 165.952 99.6263 165.568C98.9969 165.184 98.5009 164.645 98.1383 163.952C97.7756 163.259 97.5943 162.469 97.5943 161.584ZM105.018 161.6C105.018 160.939 104.885 160.363 104.618 159.872C104.352 159.381 103.989 159.008 103.53 158.752C103.082 158.485 102.586 158.352 102.042 158.352C101.498 158.352 101.002 158.48 100.554 158.736C100.106 158.992 99.7489 159.365 99.4823 159.856C99.2156 160.347 99.0823 160.923 99.0823 161.584C99.0823 162.256 99.2156 162.843 99.4823 163.344C99.7489 163.835 100.106 164.213 100.554 164.48C101.002 164.736 101.498 164.864 102.042 164.864C102.586 164.864 103.082 164.736 103.53 164.48C103.989 164.213 104.352 163.835 104.618 163.344C104.885 162.843 105.018 162.261 105.018 161.6ZM110.407 158.864C110.705 158.341 111.143 157.915 111.719 157.584C112.295 157.253 112.951 157.088 113.687 157.088C114.476 157.088 115.185 157.275 115.815 157.648C116.444 158.021 116.94 158.549 117.303 159.232C117.665 159.904 117.847 160.688 117.847 161.584C117.847 162.469 117.665 163.259 117.303 163.952C116.94 164.645 116.439 165.184 115.799 165.568C115.169 165.952 114.465 166.144 113.687 166.144C112.929 166.144 112.263 165.979 111.687 165.648C111.121 165.317 110.695 164.896 110.407 164.384V166H108.951V154.16H110.407V158.864ZM116.359 161.584C116.359 160.923 116.225 160.347 115.959 159.856C115.692 159.365 115.329 158.992 114.871 158.736C114.423 158.48 113.927 158.352 113.383 158.352C112.849 158.352 112.353 158.485 111.895 158.752C111.447 159.008 111.084 159.387 110.807 159.888C110.54 160.379 110.407 160.949 110.407 161.6C110.407 162.261 110.54 162.843 110.807 163.344C111.084 163.835 111.447 164.213 111.895 164.48C112.353 164.736 112.849 164.864 113.383 164.864C113.927 164.864 114.423 164.736 114.871 164.48C115.329 164.213 115.692 163.835 115.959 163.344C116.225 162.843 116.359 162.256 116.359 161.584ZM122.867 166.144C122.195 166.144 121.593 166.032 121.059 165.808C120.526 165.573 120.105 165.253 119.795 164.848C119.486 164.432 119.315 163.957 119.283 163.424H120.787C120.83 163.861 121.033 164.219 121.395 164.496C121.769 164.773 122.254 164.912 122.851 164.912C123.406 164.912 123.843 164.789 124.163 164.544C124.483 164.299 124.643 163.989 124.643 163.616C124.643 163.232 124.473 162.949 124.131 162.768C123.79 162.576 123.262 162.389 122.547 162.208C121.897 162.037 121.363 161.867 120.947 161.696C120.542 161.515 120.19 161.253 119.891 160.912C119.603 160.56 119.459 160.101 119.459 159.536C119.459 159.088 119.593 158.677 119.859 158.304C120.126 157.931 120.505 157.637 120.995 157.424C121.486 157.2 122.046 157.088 122.675 157.088C123.646 157.088 124.43 157.333 125.027 157.824C125.625 158.315 125.945 158.987 125.987 159.84H124.531C124.499 159.381 124.313 159.013 123.971 158.736C123.641 158.459 123.193 158.32 122.627 158.32C122.105 158.32 121.689 158.432 121.379 158.656C121.07 158.88 120.915 159.173 120.915 159.536C120.915 159.824 121.006 160.064 121.187 160.256C121.379 160.437 121.614 160.587 121.891 160.704C122.179 160.811 122.574 160.933 123.075 161.072C123.705 161.243 124.217 161.413 124.611 161.584C125.006 161.744 125.342 161.989 125.619 162.32C125.907 162.651 126.057 163.083 126.067 163.616C126.067 164.096 125.934 164.528 125.667 164.912C125.401 165.296 125.022 165.6 124.531 165.824C124.051 166.037 123.497 166.144 122.867 166.144ZM133.844 158.864C134.143 158.341 134.58 157.915 135.156 157.584C135.732 157.253 136.388 157.088 137.124 157.088C137.914 157.088 138.623 157.275 139.252 157.648C139.882 158.021 140.378 158.549 140.74 159.232C141.103 159.904 141.284 160.688 141.284 161.584C141.284 162.469 141.103 163.259 140.74 163.952C140.378 164.645 139.876 165.184 139.236 165.568C138.607 165.952 137.903 166.144 137.124 166.144C136.367 166.144 135.7 165.979 135.124 165.648C134.559 165.317 134.132 164.896 133.844 164.384V166H132.388V154.16H133.844V158.864ZM139.796 161.584C139.796 160.923 139.663 160.347 139.396 159.856C139.13 159.365 138.767 158.992 138.308 158.736C137.86 158.48 137.364 158.352 136.82 158.352C136.287 158.352 135.791 158.485 135.332 158.752C134.884 159.008 134.522 159.387 134.244 159.888C133.978 160.379 133.844 160.949 133.844 161.6C133.844 162.261 133.978 162.843 134.244 163.344C134.522 163.835 134.884 164.213 135.332 164.48C135.791 164.736 136.287 164.864 136.82 164.864C137.364 164.864 137.86 164.736 138.308 164.48C138.767 164.213 139.13 163.835 139.396 163.344C139.663 162.843 139.796 162.256 139.796 161.584ZM150.753 157.232L145.473 170.128H143.969L145.697 165.904L142.161 157.232H143.777L146.529 164.336L149.249 157.232H150.753ZM155.938 161.6C155.938 160.693 156.119 159.904 156.482 159.232C156.845 158.549 157.346 158.021 157.986 157.648C158.637 157.275 159.378 157.088 160.21 157.088C161.287 157.088 162.173 157.349 162.866 157.872C163.57 158.395 164.034 159.12 164.258 160.048H162.69C162.541 159.515 162.247 159.093 161.81 158.784C161.383 158.475 160.85 158.32 160.21 158.32C159.378 158.32 158.706 158.608 158.194 159.184C157.682 159.749 157.426 160.555 157.426 161.6C157.426 162.656 157.682 163.472 158.194 164.048C158.706 164.624 159.378 164.912 160.21 164.912C160.85 164.912 161.383 164.763 161.81 164.464C162.237 164.165 162.53 163.739 162.69 163.184H164.258C164.023 164.08 163.554 164.8 162.85 165.344C162.146 165.877 161.266 166.144 160.21 166.144C159.378 166.144 158.637 165.957 157.986 165.584C157.346 165.211 156.845 164.683 156.482 164C156.119 163.317 155.938 162.517 155.938 161.6ZM167.657 154.16V166H166.201V154.16H167.657ZM170.89 155.808C170.613 155.808 170.378 155.712 170.186 155.52C169.994 155.328 169.898 155.093 169.898 154.816C169.898 154.539 169.994 154.304 170.186 154.112C170.378 153.92 170.613 153.824 170.89 153.824C171.157 153.824 171.381 153.92 171.562 154.112C171.754 154.304 171.85 154.539 171.85 154.816C171.85 155.093 171.754 155.328 171.562 155.52C171.381 155.712 171.157 155.808 170.89 155.808ZM171.594 157.232V166H170.138V157.232H171.594ZM173.532 161.6C173.532 160.693 173.713 159.904 174.076 159.232C174.438 158.549 174.94 158.021 175.58 157.648C176.23 157.275 176.972 157.088 177.804 157.088C178.881 157.088 179.766 157.349 180.46 157.872C181.164 158.395 181.628 159.12 181.852 160.048H180.284C180.134 159.515 179.841 159.093 179.404 158.784C178.977 158.475 178.444 158.32 177.804 158.32C176.972 158.32 176.3 158.608 175.788 159.184C175.276 159.749 175.02 160.555 175.02 161.6C175.02 162.656 175.276 163.472 175.788 164.048C176.3 164.624 176.972 164.912 177.804 164.912C178.444 164.912 178.977 164.763 179.404 164.464C179.83 164.165 180.124 163.739 180.284 163.184H181.852C181.617 164.08 181.148 164.8 180.444 165.344C179.74 165.877 178.86 166.144 177.804 166.144C176.972 166.144 176.23 165.957 175.58 165.584C174.94 165.211 174.438 164.683 174.076 164C173.713 163.317 173.532 162.517 173.532 161.6ZM188.691 166L185.251 162.128V166H183.795V154.16H185.251V161.12L188.627 157.232H190.659L186.531 161.6L190.675 166H188.691ZM192.781 155.808C192.504 155.808 192.269 155.712 192.077 155.52C191.885 155.328 191.789 155.093 191.789 154.816C191.789 154.539 191.885 154.304 192.077 154.112C192.269 153.92 192.504 153.824 192.781 153.824C193.048 153.824 193.272 153.92 193.453 154.112C193.645 154.304 193.741 154.539 193.741 154.816C193.741 155.093 193.645 155.328 193.453 155.52C193.272 155.712 193.048 155.808 192.781 155.808ZM193.485 157.232V166H192.029V157.232H193.485ZM200.238 157.072C201.305 157.072 202.169 157.397 202.83 158.048C203.492 158.688 203.822 159.616 203.822 160.832V166H202.382V161.04C202.382 160.165 202.164 159.499 201.726 159.04C201.289 158.571 200.692 158.336 199.934 158.336C199.166 158.336 198.553 158.576 198.094 159.056C197.646 159.536 197.422 160.235 197.422 161.152V166H195.966V157.232H197.422V158.48C197.71 158.032 198.1 157.685 198.59 157.44C199.092 157.195 199.641 157.072 200.238 157.072ZM209.817 157.088C210.574 157.088 211.235 157.253 211.801 157.584C212.377 157.915 212.803 158.331 213.081 158.832V157.232H214.553V166.192C214.553 166.992 214.382 167.701 214.041 168.32C213.699 168.949 213.209 169.44 212.569 169.792C211.939 170.144 211.203 170.32 210.361 170.32C209.209 170.32 208.249 170.048 207.481 169.504C206.713 168.96 206.259 168.219 206.121 167.28H207.561C207.721 167.813 208.051 168.24 208.553 168.56C209.054 168.891 209.657 169.056 210.361 169.056C211.161 169.056 211.811 168.805 212.313 168.304C212.825 167.803 213.081 167.099 213.081 166.192V164.352C212.793 164.864 212.366 165.291 211.801 165.632C211.235 165.973 210.574 166.144 209.817 166.144C209.038 166.144 208.329 165.952 207.689 165.568C207.059 165.184 206.563 164.645 206.201 163.952C205.838 163.259 205.657 162.469 205.657 161.584C205.657 160.688 205.838 159.904 206.201 159.232C206.563 158.549 207.059 158.021 207.689 157.648C208.329 157.275 209.038 157.088 209.817 157.088ZM213.081 161.6C213.081 160.939 212.947 160.363 212.681 159.872C212.414 159.381 212.051 159.008 211.593 158.752C211.145 158.485 210.649 158.352 210.105 158.352C209.561 158.352 209.065 158.48 208.617 158.736C208.169 158.992 207.811 159.365 207.545 159.856C207.278 160.347 207.145 160.923 207.145 161.584C207.145 162.256 207.278 162.843 207.545 163.344C207.811 163.835 208.169 164.213 208.617 164.48C209.065 164.736 209.561 164.864 210.105 164.864C210.649 164.864 211.145 164.736 211.593 164.48C212.051 164.213 212.414 163.835 212.681 163.344C212.947 162.843 213.081 162.261 213.081 161.6ZM225.103 166.144C224.282 166.144 223.535 165.957 222.863 165.584C222.202 165.211 221.679 164.683 221.295 164C220.922 163.307 220.735 162.507 220.735 161.6C220.735 160.704 220.927 159.915 221.311 159.232C221.706 158.539 222.239 158.011 222.911 157.648C223.583 157.275 224.335 157.088 225.167 157.088C225.999 157.088 226.751 157.275 227.423 157.648C228.095 158.011 228.623 158.533 229.007 159.216C229.402 159.899 229.599 160.693 229.599 161.6C229.599 162.507 229.396 163.307 228.991 164C228.596 164.683 228.058 165.211 227.375 165.584C226.692 165.957 225.935 166.144 225.103 166.144ZM225.103 164.864C225.626 164.864 226.116 164.741 226.575 164.496C227.034 164.251 227.402 163.883 227.679 163.392C227.967 162.901 228.111 162.304 228.111 161.6C228.111 160.896 227.972 160.299 227.695 159.808C227.418 159.317 227.055 158.955 226.607 158.72C226.159 158.475 225.674 158.352 225.151 158.352C224.618 158.352 224.127 158.475 223.679 158.72C223.242 158.955 222.89 159.317 222.623 159.808C222.356 160.299 222.223 160.896 222.223 161.6C222.223 162.315 222.351 162.917 222.607 163.408C222.874 163.899 223.226 164.267 223.663 164.512C224.1 164.747 224.58 164.864 225.103 164.864ZM235.785 157.072C236.852 157.072 237.716 157.397 238.377 158.048C239.039 158.688 239.369 159.616 239.369 160.832V166H237.929V161.04C237.929 160.165 237.711 159.499 237.273 159.04C236.836 158.571 236.239 158.336 235.481 158.336C234.713 158.336 234.1 158.576 233.641 159.056C233.193 159.536 232.969 160.235 232.969 161.152V166H231.513V157.232H232.969V158.48C233.257 158.032 233.647 157.685 234.137 157.44C234.639 157.195 235.188 157.072 235.785 157.072ZM247.469 158.848C247.757 158.347 248.184 157.931 248.749 157.6C249.325 157.259 249.992 157.088 250.749 157.088C251.528 157.088 252.232 157.275 252.861 157.648C253.501 158.021 254.003 158.549 254.365 159.232C254.728 159.904 254.909 160.688 254.909 161.584C254.909 162.469 254.728 163.259 254.365 163.952C254.003 164.645 253.501 165.184 252.861 165.568C252.232 165.952 251.528 166.144 250.749 166.144C250.003 166.144 249.341 165.979 248.765 165.648C248.2 165.307 247.768 164.885 247.469 164.384V170.16H246.013V157.232H247.469V158.848ZM253.421 161.584C253.421 160.923 253.288 160.347 253.021 159.856C252.755 159.365 252.392 158.992 251.933 158.736C251.485 158.48 250.989 158.352 250.445 158.352C249.912 158.352 249.416 158.485 248.957 158.752C248.509 159.008 248.147 159.387 247.869 159.888C247.603 160.379 247.469 160.949 247.469 161.6C247.469 162.261 247.603 162.843 247.869 163.344C248.147 163.835 248.509 164.213 248.957 164.48C249.416 164.736 249.912 164.864 250.445 164.864C250.989 164.864 251.485 164.736 251.933 164.48C252.392 164.213 252.755 163.835 253.021 163.344C253.288 162.843 253.421 162.256 253.421 161.584ZM264.602 157.232V166H263.146V164.704C262.868 165.152 262.479 165.504 261.978 165.76C261.487 166.005 260.943 166.128 260.346 166.128C259.663 166.128 259.05 165.989 258.506 165.712C257.962 165.424 257.53 164.997 257.21 164.432C256.9 163.867 256.746 163.179 256.746 162.368V157.232H258.186V162.176C258.186 163.04 258.404 163.707 258.842 164.176C259.279 164.635 259.876 164.864 260.634 164.864C261.412 164.864 262.026 164.624 262.474 164.144C262.922 163.664 263.146 162.965 263.146 162.048V157.232H264.602ZM270.164 166.144C269.492 166.144 268.889 166.032 268.356 165.808C267.823 165.573 267.401 165.253 267.092 164.848C266.783 164.432 266.612 163.957 266.58 163.424H268.084C268.127 163.861 268.329 164.219 268.692 164.496C269.065 164.773 269.551 164.912 270.148 164.912C270.703 164.912 271.14 164.789 271.46 164.544C271.78 164.299 271.94 163.989 271.94 163.616C271.94 163.232 271.769 162.949 271.428 162.768C271.087 162.576 270.559 162.389 269.844 162.208C269.193 162.037 268.66 161.867 268.244 161.696C267.839 161.515 267.487 161.253 267.188 160.912C266.9 160.56 266.756 160.101 266.756 159.536C266.756 159.088 266.889 158.677 267.156 158.304C267.423 157.931 267.801 157.637 268.292 157.424C268.783 157.2 269.343 157.088 269.972 157.088C270.943 157.088 271.727 157.333 272.324 157.824C272.921 158.315 273.241 158.987 273.284 159.84H271.828C271.796 159.381 271.609 159.013 271.268 158.736C270.937 158.459 270.489 158.32 269.924 158.32C269.401 158.32 268.985 158.432 268.676 158.656C268.367 158.88 268.212 159.173 268.212 159.536C268.212 159.824 268.303 160.064 268.484 160.256C268.676 160.437 268.911 160.587 269.188 160.704C269.476 160.811 269.871 160.933 270.372 161.072C271.001 161.243 271.513 161.413 271.908 161.584C272.303 161.744 272.639 161.989 272.916 162.32C273.204 162.651 273.353 163.083 273.364 163.616C273.364 164.096 273.231 164.528 272.964 164.912C272.697 165.296 272.319 165.6 271.828 165.824C271.348 166.037 270.793 166.144 270.164 166.144ZM279.772 157.072C280.433 157.072 281.03 157.216 281.564 157.504C282.097 157.781 282.513 158.203 282.812 158.768C283.121 159.333 283.276 160.021 283.276 160.832V166H281.836V161.04C281.836 160.165 281.617 159.499 281.18 159.04C280.742 158.571 280.145 158.336 279.388 158.336C278.62 158.336 278.006 158.576 277.548 159.056C277.1 159.536 276.876 160.235 276.876 161.152V166H275.42V154.16H276.876V158.48C277.164 158.032 277.558 157.685 278.06 157.44C278.572 157.195 279.142 157.072 279.772 157.072ZM34.688 182.848C34.976 182.347 35.4027 181.931 35.968 181.6C36.544 181.259 37.2107 181.088 37.968 181.088C38.7467 181.088 39.4507 181.275 40.08 181.648C40.72 182.021 41.2213 182.549 41.584 183.232C41.9467 183.904 42.128 184.688 42.128 185.584C42.128 186.469 41.9467 187.259 41.584 187.952C41.2213 188.645 40.72 189.184 40.08 189.568C39.4507 189.952 38.7467 190.144 37.968 190.144C37.2213 190.144 36.56 189.979 35.984 189.648C35.4187 189.307 34.9867 188.885 34.688 188.384V194.16H33.232V181.232H34.688V182.848ZM40.64 185.584C40.64 184.923 40.5067 184.347 40.24 183.856C39.9733 183.365 39.6107 182.992 39.152 182.736C38.704 182.48 38.208 182.352 37.664 182.352C37.1307 182.352 36.6347 182.485 36.176 182.752C35.728 183.008 35.3653 183.387 35.088 183.888C34.8213 184.379 34.688 184.949 34.688 185.6C34.688 186.261 34.8213 186.843 35.088 187.344C35.3653 187.835 35.728 188.213 36.176 188.48C36.6347 188.736 37.1307 188.864 37.664 188.864C38.208 188.864 38.704 188.736 39.152 188.48C39.6107 188.213 39.9733 187.835 40.24 187.344C40.5067 186.843 40.64 186.256 40.64 185.584ZM44.7965 179.808C44.5192 179.808 44.2845 179.712 44.0925 179.52C43.9005 179.328 43.8045 179.093 43.8045 178.816C43.8045 178.539 43.9005 178.304 44.0925 178.112C44.2845 177.92 44.5192 177.824 44.7965 177.824C45.0632 177.824 45.2872 177.92 45.4685 178.112C45.6605 178.304 45.7565 178.539 45.7565 178.816C45.7565 179.093 45.6605 179.328 45.4685 179.52C45.2872 179.712 45.0632 179.808 44.7965 179.808ZM45.5005 181.232V190H44.0445V181.232H45.5005ZM52.254 181.072C53.3207 181.072 54.1847 181.397 54.846 182.048C55.5073 182.688 55.838 183.616 55.838 184.832V190H54.398V185.04C54.398 184.165 54.1793 183.499 53.742 183.04C53.3047 182.571 52.7073 182.336 51.95 182.336C51.182 182.336 50.5687 182.576 50.11 183.056C49.662 183.536 49.438 184.235 49.438 185.152V190H47.982V181.232H49.438V182.48C49.726 182.032 50.1153 181.685 50.606 181.44C51.1073 181.195 51.6567 181.072 52.254 181.072ZM61.3204 190.144C60.6484 190.144 60.0457 190.032 59.5124 189.808C58.979 189.573 58.5577 189.253 58.2484 188.848C57.939 188.432 57.7684 187.957 57.7364 187.424H59.2404C59.283 187.861 59.4857 188.219 59.8484 188.496C60.2217 188.773 60.707 188.912 61.3044 188.912C61.859 188.912 62.2964 188.789 62.6164 188.544C62.9364 188.299 63.0964 187.989 63.0964 187.616C63.0964 187.232 62.9257 186.949 62.5844 186.768C62.243 186.576 61.715 186.389 61.0004 186.208C60.3497 186.037 59.8164 185.867 59.4004 185.696C58.995 185.515 58.643 185.253 58.3444 184.912C58.0564 184.56 57.9124 184.101 57.9124 183.536C57.9124 183.088 58.0457 182.677 58.3124 182.304C58.579 181.931 58.9577 181.637 59.4484 181.424C59.939 181.2 60.499 181.088 61.1284 181.088C62.099 181.088 62.883 181.333 63.4804 181.824C64.0777 182.315 64.3977 182.987 64.4404 183.84H62.9844C62.9524 183.381 62.7657 183.013 62.4244 182.736C62.0937 182.459 61.6457 182.32 61.0804 182.32C60.5577 182.32 60.1417 182.432 59.8324 182.656C59.523 182.88 59.3684 183.173 59.3684 183.536C59.3684 183.824 59.459 184.064 59.6404 184.256C59.8324 184.437 60.067 184.587 60.3444 184.704C60.6324 184.811 61.027 184.933 61.5284 185.072C62.1577 185.243 62.6697 185.413 63.0644 185.584C63.459 185.744 63.795 185.989 64.0724 186.32C64.3604 186.651 64.5097 187.083 64.5204 187.616C64.5204 188.096 64.387 188.528 64.1204 188.912C63.8537 189.296 63.475 189.6 62.9844 189.824C62.5044 190.037 61.9497 190.144 61.3204 190.144ZM71.5934 179.808C71.316 179.808 71.0814 179.712 70.8894 179.52C70.6974 179.328 70.6014 179.093 70.6014 178.816C70.6014 178.539 70.6974 178.304 70.8894 178.112C71.0814 177.92 71.316 177.824 71.5934 177.824C71.86 177.824 72.084 177.92 72.2654 178.112C72.4574 178.304 72.5534 178.539 72.5534 178.816C72.5534 179.093 72.4574 179.328 72.2654 179.52C72.084 179.712 71.86 179.808 71.5934 179.808ZM72.2974 181.232V190H70.8414V181.232H72.2974ZM74.2349 185.6C74.2349 184.693 74.4162 183.904 74.7789 183.232C75.1415 182.549 75.6429 182.021 76.2829 181.648C76.9335 181.275 77.6749 181.088 78.5069 181.088C79.5842 181.088 80.4695 181.349 81.1629 181.872C81.8669 182.395 82.3309 183.12 82.5549 184.048H80.9869C80.8375 183.515 80.5442 183.093 80.1069 182.784C79.6802 182.475 79.1469 182.32 78.5069 182.32C77.6749 182.32 77.0029 182.608 76.4909 183.184C75.9789 183.749 75.7229 184.555 75.7229 185.6C75.7229 186.656 75.9789 187.472 76.4909 188.048C77.0029 188.624 77.6749 188.912 78.5069 188.912C79.1469 188.912 79.6802 188.763 80.1069 188.464C80.5335 188.165 80.8269 187.739 80.9869 187.184H82.5549C82.3202 188.08 81.8509 188.8 81.1469 189.344C80.4429 189.877 79.5629 190.144 78.5069 190.144C77.6749 190.144 76.9335 189.957 76.2829 189.584C75.6429 189.211 75.1415 188.683 74.7789 188C74.4162 187.317 74.2349 186.517 74.2349 185.6ZM88.3216 190.144C87.5003 190.144 86.7536 189.957 86.0816 189.584C85.4203 189.211 84.8976 188.683 84.5136 188C84.1403 187.307 83.9536 186.507 83.9536 185.6C83.9536 184.704 84.1456 183.915 84.5296 183.232C84.9243 182.539 85.4576 182.011 86.1296 181.648C86.8016 181.275 87.5536 181.088 88.3856 181.088C89.2176 181.088 89.9696 181.275 90.6416 181.648C91.3136 182.011 91.8416 182.533 92.2256 183.216C92.6203 183.899 92.8176 184.693 92.8176 185.6C92.8176 186.507 92.615 187.307 92.2096 188C91.815 188.683 91.2763 189.211 90.5936 189.584C89.911 189.957 89.1536 190.144 88.3216 190.144ZM88.3216 188.864C88.8443 188.864 89.335 188.741 89.7936 188.496C90.2523 188.251 90.6203 187.883 90.8976 187.392C91.1856 186.901 91.3296 186.304 91.3296 185.6C91.3296 184.896 91.191 184.299 90.9136 183.808C90.6363 183.317 90.2736 182.955 89.8256 182.72C89.3776 182.475 88.8923 182.352 88.3696 182.352C87.8363 182.352 87.3456 182.475 86.8976 182.72C86.4603 182.955 86.1083 183.317 85.8416 183.808C85.575 184.299 85.4416 184.896 85.4416 185.6C85.4416 186.315 85.5696 186.917 85.8256 187.408C86.0923 187.899 86.4443 188.267 86.8816 188.512C87.319 188.747 87.799 188.864 88.3216 188.864ZM99.004 181.072C100.071 181.072 100.935 181.397 101.596 182.048C102.257 182.688 102.588 183.616 102.588 184.832V190H101.148V185.04C101.148 184.165 100.929 183.499 100.492 183.04C100.055 182.571 99.4573 182.336 98.7 182.336C97.932 182.336 97.3187 182.576 96.86 183.056C96.412 183.536 96.188 184.235 96.188 185.152V190H94.732V181.232H96.188V182.48C96.476 182.032 96.8653 181.685 97.356 181.44C97.8573 181.195 98.4067 181.072 99.004 181.072ZM108.07 190.144C107.398 190.144 106.796 190.032 106.262 189.808C105.729 189.573 105.308 189.253 104.998 188.848C104.689 188.432 104.518 187.957 104.486 187.424H105.99C106.033 187.861 106.236 188.219 106.598 188.496C106.972 188.773 107.457 188.912 108.054 188.912C108.609 188.912 109.046 188.789 109.366 188.544C109.686 188.299 109.846 187.989 109.846 187.616C109.846 187.232 109.676 186.949 109.334 186.768C108.993 186.576 108.465 186.389 107.75 186.208C107.1 186.037 106.566 185.867 106.15 185.696C105.745 185.515 105.393 185.253 105.094 184.912C104.806 184.56 104.662 184.101 104.662 183.536C104.662 183.088 104.796 182.677 105.062 182.304C105.329 181.931 105.708 181.637 106.198 181.424C106.689 181.2 107.249 181.088 107.878 181.088C108.849 181.088 109.633 181.333 110.23 181.824C110.828 182.315 111.148 182.987 111.19 183.84H109.734C109.702 183.381 109.516 183.013 109.174 182.736C108.844 182.459 108.396 182.32 107.83 182.32C107.308 182.32 106.892 182.432 106.582 182.656C106.273 182.88 106.118 183.173 106.118 183.536C106.118 183.824 106.209 184.064 106.39 184.256C106.582 184.437 106.817 184.587 107.094 184.704C107.382 184.811 107.777 184.933 108.278 185.072C108.908 185.243 109.42 185.413 109.814 185.584C110.209 185.744 110.545 185.989 110.822 186.32C111.11 186.651 111.26 187.083 111.27 187.616C111.27 188.096 111.137 188.528 110.87 188.912C110.604 189.296 110.225 189.6 109.734 189.824C109.254 190.037 108.7 190.144 108.07 190.144ZM121.159 182.432H119.319V190H117.863V182.432H116.727V181.232H117.863V180.608C117.863 179.627 118.114 178.912 118.615 178.464C119.127 178.005 119.943 177.776 121.063 177.776V178.992C120.423 178.992 119.97 179.12 119.703 179.376C119.447 179.621 119.319 180.032 119.319 180.608V181.232H121.159V182.432ZM126.681 190.144C125.86 190.144 125.113 189.957 124.441 189.584C123.78 189.211 123.257 188.683 122.873 188C122.5 187.307 122.313 186.507 122.313 185.6C122.313 184.704 122.505 183.915 122.889 183.232C123.284 182.539 123.817 182.011 124.489 181.648C125.161 181.275 125.913 181.088 126.745 181.088C127.577 181.088 128.329 181.275 129.001 181.648C129.673 182.011 130.201 182.533 130.585 183.216C130.98 183.899 131.177 184.693 131.177 185.6C131.177 186.507 130.974 187.307 130.569 188C130.174 188.683 129.636 189.211 128.953 189.584C128.27 189.957 127.513 190.144 126.681 190.144ZM126.681 188.864C127.204 188.864 127.694 188.741 128.153 188.496C128.612 188.251 128.98 187.883 129.257 187.392C129.545 186.901 129.689 186.304 129.689 185.6C129.689 184.896 129.55 184.299 129.273 183.808C128.996 183.317 128.633 182.955 128.185 182.72C127.737 182.475 127.252 182.352 126.729 182.352C126.196 182.352 125.705 182.475 125.257 182.72C124.82 182.955 124.468 183.317 124.201 183.808C123.934 184.299 123.801 184.896 123.801 185.6C123.801 186.315 123.929 186.917 124.185 187.408C124.452 187.899 124.804 188.267 125.241 188.512C125.678 188.747 126.158 188.864 126.681 188.864ZM134.547 182.656C134.803 182.155 135.166 181.765 135.635 181.488C136.115 181.211 136.697 181.072 137.379 181.072V182.576H136.995C135.363 182.576 134.547 183.461 134.547 185.232V190H133.091V181.232H134.547V182.656ZM150.878 181.232L145.598 194.128H144.094L145.822 189.904L142.286 181.232H143.902L146.654 188.336L149.374 181.232H150.878ZM156.165 190.144C155.344 190.144 154.597 189.957 153.925 189.584C153.264 189.211 152.741 188.683 152.357 188C151.984 187.307 151.797 186.507 151.797 185.6C151.797 184.704 151.989 183.915 152.373 183.232C152.768 182.539 153.301 182.011 153.973 181.648C154.645 181.275 155.397 181.088 156.229 181.088C157.061 181.088 157.813 181.275 158.485 181.648C159.157 182.011 159.685 182.533 160.069 183.216C160.464 183.899 160.661 184.693 160.661 185.6C160.661 186.507 160.459 187.307 160.053 188C159.659 188.683 159.12 189.211 158.437 189.584C157.755 189.957 156.997 190.144 156.165 190.144ZM156.165 188.864C156.688 188.864 157.179 188.741 157.637 188.496C158.096 188.251 158.464 187.883 158.741 187.392C159.029 186.901 159.173 186.304 159.173 185.6C159.173 184.896 159.035 184.299 158.757 183.808C158.48 183.317 158.117 182.955 157.669 182.72C157.221 182.475 156.736 182.352 156.213 182.352C155.68 182.352 155.189 182.475 154.741 182.72C154.304 182.955 153.952 183.317 153.685 183.808C153.419 184.299 153.285 184.896 153.285 185.6C153.285 186.315 153.413 186.917 153.669 187.408C153.936 187.899 154.288 188.267 154.725 188.512C155.163 188.747 155.643 188.864 156.165 188.864ZM170.352 181.232V190H168.896V188.704C168.618 189.152 168.229 189.504 167.728 189.76C167.237 190.005 166.693 190.128 166.096 190.128C165.413 190.128 164.8 189.989 164.256 189.712C163.712 189.424 163.28 188.997 162.96 188.432C162.65 187.867 162.496 187.179 162.496 186.368V181.232H163.936V186.176C163.936 187.04 164.154 187.707 164.592 188.176C165.029 188.635 165.626 188.864 166.384 188.864C167.162 188.864 167.776 188.624 168.224 188.144C168.672 187.664 168.896 186.965 168.896 186.048V181.232H170.352ZM178.852 182.432V187.6C178.852 188.027 178.942 188.331 179.124 188.512C179.305 188.683 179.62 188.768 180.068 188.768H181.14V190H179.828C179.017 190 178.409 189.813 178.004 189.44C177.598 189.067 177.396 188.453 177.396 187.6V182.432H176.26V181.232H177.396V179.024H178.852V181.232H181.14V182.432H178.852ZM186.728 190.144C185.907 190.144 185.16 189.957 184.488 189.584C183.827 189.211 183.304 188.683 182.92 188C182.547 187.307 182.36 186.507 182.36 185.6C182.36 184.704 182.552 183.915 182.936 183.232C183.331 182.539 183.864 182.011 184.536 181.648C185.208 181.275 185.96 181.088 186.792 181.088C187.624 181.088 188.376 181.275 189.048 181.648C189.72 182.011 190.248 182.533 190.632 183.216C191.027 183.899 191.224 184.693 191.224 185.6C191.224 186.507 191.021 187.307 190.616 188C190.221 188.683 189.683 189.211 189 189.584C188.317 189.957 187.56 190.144 186.728 190.144ZM186.728 188.864C187.251 188.864 187.741 188.741 188.2 188.496C188.659 188.251 189.027 187.883 189.304 187.392C189.592 186.901 189.736 186.304 189.736 185.6C189.736 184.896 189.597 184.299 189.32 183.808C189.043 183.317 188.68 182.955 188.232 182.72C187.784 182.475 187.299 182.352 186.776 182.352C186.243 182.352 185.752 182.475 185.304 182.72C184.867 182.955 184.515 183.317 184.248 183.808C183.981 184.299 183.848 184.896 183.848 185.6C183.848 186.315 183.976 186.917 184.232 187.408C184.499 187.899 184.851 188.267 185.288 188.512C185.725 188.747 186.205 188.864 186.728 188.864ZM200.972 182.432H199.132V190H197.676V182.432H196.54V181.232H197.676V180.608C197.676 179.627 197.927 178.912 198.428 178.464C198.94 178.005 199.756 177.776 200.876 177.776V178.992C200.236 178.992 199.783 179.12 199.516 179.376C199.26 179.621 199.132 180.032 199.132 180.608V181.232H200.972V182.432ZM206.494 190.144C205.672 190.144 204.926 189.957 204.254 189.584C203.592 189.211 203.07 188.683 202.686 188C202.312 187.307 202.126 186.507 202.126 185.6C202.126 184.704 202.318 183.915 202.702 183.232C203.096 182.539 203.63 182.011 204.302 181.648C204.974 181.275 205.726 181.088 206.558 181.088C207.39 181.088 208.142 181.275 208.814 181.648C209.486 182.011 210.014 182.533 210.398 183.216C210.792 183.899 210.99 184.693 210.99 185.6C210.99 186.507 210.787 187.307 210.382 188C209.987 188.683 209.448 189.211 208.766 189.584C208.083 189.957 207.326 190.144 206.494 190.144ZM206.494 188.864C207.016 188.864 207.507 188.741 207.966 188.496C208.424 188.251 208.792 187.883 209.07 187.392C209.358 186.901 209.502 186.304 209.502 185.6C209.502 184.896 209.363 184.299 209.086 183.808C208.808 183.317 208.446 182.955 207.998 182.72C207.55 182.475 207.064 182.352 206.542 182.352C206.008 182.352 205.518 182.475 205.07 182.72C204.632 182.955 204.28 183.317 204.014 183.808C203.747 184.299 203.614 184.896 203.614 185.6C203.614 186.315 203.742 186.917 203.998 187.408C204.264 187.899 204.616 188.267 205.054 188.512C205.491 188.747 205.971 188.864 206.494 188.864ZM212.36 185.6C212.36 184.693 212.541 183.904 212.904 183.232C213.267 182.549 213.768 182.021 214.408 181.648C215.059 181.275 215.8 181.088 216.632 181.088C217.709 181.088 218.595 181.349 219.288 181.872C219.992 182.395 220.456 183.12 220.68 184.048H219.112C218.963 183.515 218.669 183.093 218.232 182.784C217.805 182.475 217.272 182.32 216.632 182.32C215.8 182.32 215.128 182.608 214.616 183.184C214.104 183.749 213.848 184.555 213.848 185.6C213.848 186.656 214.104 187.472 214.616 188.048C215.128 188.624 215.8 188.912 216.632 188.912C217.272 188.912 217.805 188.763 218.232 188.464C218.659 188.165 218.952 187.739 219.112 187.184H220.68C220.445 188.08 219.976 188.8 219.272 189.344C218.568 189.877 217.688 190.144 216.632 190.144C215.8 190.144 215.059 189.957 214.408 189.584C213.768 189.211 213.267 188.683 212.904 188C212.541 187.317 212.36 186.517 212.36 185.6ZM230.399 181.232V190H228.943V188.704C228.665 189.152 228.276 189.504 227.775 189.76C227.284 190.005 226.74 190.128 226.143 190.128C225.46 190.128 224.847 189.989 224.303 189.712C223.759 189.424 223.327 188.997 223.007 188.432C222.697 187.867 222.543 187.179 222.543 186.368V181.232H223.983V186.176C223.983 187.04 224.201 187.707 224.639 188.176C225.076 188.635 225.673 188.864 226.431 188.864C227.209 188.864 227.823 188.624 228.271 188.144C228.719 187.664 228.943 186.965 228.943 186.048V181.232H230.399ZM235.961 190.144C235.289 190.144 234.686 190.032 234.153 189.808C233.62 189.573 233.198 189.253 232.889 188.848C232.58 188.432 232.409 187.957 232.377 187.424H233.881C233.924 187.861 234.126 188.219 234.489 188.496C234.862 188.773 235.348 188.912 235.945 188.912C236.5 188.912 236.937 188.789 237.257 188.544C237.577 188.299 237.737 187.989 237.737 187.616C237.737 187.232 237.566 186.949 237.225 186.768C236.884 186.576 236.356 186.389 235.641 186.208C234.99 186.037 234.457 185.867 234.041 185.696C233.636 185.515 233.284 185.253 232.985 184.912C232.697 184.56 232.553 184.101 232.553 183.536C232.553 183.088 232.686 182.677 232.953 182.304C233.22 181.931 233.598 181.637 234.089 181.424C234.58 181.2 235.14 181.088 235.769 181.088C236.74 181.088 237.524 181.333 238.121 181.824C238.718 182.315 239.038 182.987 239.081 183.84H237.625C237.593 183.381 237.406 183.013 237.065 182.736C236.734 182.459 236.286 182.32 235.721 182.32C235.198 182.32 234.782 182.432 234.473 182.656C234.164 182.88 234.009 183.173 234.009 183.536C234.009 183.824 234.1 184.064 234.281 184.256C234.473 184.437 234.708 184.587 234.985 184.704C235.273 184.811 235.668 184.933 236.169 185.072C236.798 185.243 237.31 185.413 237.705 185.584C238.1 185.744 238.436 185.989 238.713 186.32C239.001 186.651 239.15 187.083 239.161 187.616C239.161 188.096 239.028 188.528 238.761 188.912C238.494 189.296 238.116 189.6 237.625 189.824C237.145 190.037 236.59 190.144 235.961 190.144ZM249.306 190.144C248.485 190.144 247.738 189.957 247.066 189.584C246.405 189.211 245.882 188.683 245.498 188C245.125 187.307 244.938 186.507 244.938 185.6C244.938 184.704 245.13 183.915 245.514 183.232C245.909 182.539 246.442 182.011 247.114 181.648C247.786 181.275 248.538 181.088 249.37 181.088C250.202 181.088 250.954 181.275 251.626 181.648C252.298 182.011 252.826 182.533 253.21 183.216C253.605 183.899 253.802 184.693 253.802 185.6C253.802 186.507 253.599 187.307 253.194 188C252.799 188.683 252.261 189.211 251.578 189.584C250.895 189.957 250.138 190.144 249.306 190.144ZM249.306 188.864C249.829 188.864 250.319 188.741 250.778 188.496C251.237 188.251 251.605 187.883 251.882 187.392C252.17 186.901 252.314 186.304 252.314 185.6C252.314 184.896 252.175 184.299 251.898 183.808C251.621 183.317 251.258 182.955 250.81 182.72C250.362 182.475 249.877 182.352 249.354 182.352C248.821 182.352 248.33 182.475 247.882 182.72C247.445 182.955 247.093 183.317 246.826 183.808C246.559 184.299 246.426 184.896 246.426 185.6C246.426 186.315 246.554 186.917 246.81 187.408C247.077 187.899 247.429 188.267 247.866 188.512C248.303 188.747 248.783 188.864 249.306 188.864ZM259.988 181.072C261.055 181.072 261.919 181.397 262.58 182.048C263.242 182.688 263.572 183.616 263.572 184.832V190H262.132V185.04C262.132 184.165 261.914 183.499 261.476 183.04C261.039 182.571 260.442 182.336 259.684 182.336C258.916 182.336 258.303 182.576 257.844 183.056C257.396 183.536 257.172 184.235 257.172 185.152V190H255.716V181.232H257.172V182.48C257.46 182.032 257.85 181.685 258.34 181.44C258.842 181.195 259.391 181.072 259.988 181.072ZM277.768 181.232L272.488 194.128H270.984L272.712 189.904L269.176 181.232H270.792L273.544 188.336L276.264 181.232H277.768ZM283.056 190.144C282.235 190.144 281.488 189.957 280.816 189.584C280.155 189.211 279.632 188.683 279.248 188C278.875 187.307 278.688 186.507 278.688 185.6C278.688 184.704 278.88 183.915 279.264 183.232C279.659 182.539 280.192 182.011 280.864 181.648C281.536 181.275 282.288 181.088 283.12 181.088C283.952 181.088 284.704 181.275 285.376 181.648C286.048 182.011 286.576 182.533 286.96 183.216C287.355 183.899 287.552 184.693 287.552 185.6C287.552 186.507 287.349 187.307 286.944 188C286.549 188.683 286.011 189.211 285.328 189.584C284.645 189.957 283.888 190.144 283.056 190.144ZM283.056 188.864C283.579 188.864 284.069 188.741 284.528 188.496C284.987 188.251 285.355 187.883 285.632 187.392C285.92 186.901 286.064 186.304 286.064 185.6C286.064 184.896 285.925 184.299 285.648 183.808C285.371 183.317 285.008 182.955 284.56 182.72C284.112 182.475 283.627 182.352 283.104 182.352C282.571 182.352 282.08 182.475 281.632 182.72C281.195 182.955 280.843 183.317 280.576 183.808C280.309 184.299 280.176 184.896 280.176 185.6C280.176 186.315 280.304 186.917 280.56 187.408C280.827 187.899 281.179 188.267 281.616 188.512C282.053 188.747 282.533 188.864 283.056 188.864ZM297.242 181.232V190H295.786V188.704C295.509 189.152 295.12 189.504 294.618 189.76C294.128 190.005 293.584 190.128 292.986 190.128C292.304 190.128 291.69 189.989 291.146 189.712C290.602 189.424 290.17 188.997 289.85 188.432C289.541 187.867 289.386 187.179 289.386 186.368V181.232H290.826V186.176C290.826 187.04 291.045 187.707 291.482 188.176C291.92 188.635 292.517 188.864 293.274 188.864C294.053 188.864 294.666 188.624 295.114 188.144C295.562 187.664 295.786 186.965 295.786 186.048V181.232H297.242ZM301.157 182.656C301.413 182.155 301.775 181.765 302.245 181.488C302.725 181.211 303.306 181.072 303.989 181.072V182.576H303.605C301.973 182.576 301.157 183.461 301.157 185.232V190H299.701V181.232H301.157V182.656ZM44.912 205.232L42.176 214H40.672L38.56 207.04L36.448 214H34.944L32.192 205.232H33.68L35.696 212.592L37.872 205.232H39.36L41.488 212.608L43.472 205.232H44.912ZM50.181 214.144C49.3597 214.144 48.613 213.957 47.941 213.584C47.2797 213.211 46.757 212.683 46.373 212C45.9997 211.307 45.813 210.507 45.813 209.6C45.813 208.704 46.005 207.915 46.389 207.232C46.7837 206.539 47.317 206.011 47.989 205.648C48.661 205.275 49.413 205.088 50.245 205.088C51.077 205.088 51.829 205.275 52.501 205.648C53.173 206.011 53.701 206.533 54.085 207.216C54.4797 207.899 54.677 208.693 54.677 209.6C54.677 210.507 54.4743 211.307 54.069 212C53.6743 212.683 53.1357 213.211 52.453 213.584C51.7703 213.957 51.013 214.144 50.181 214.144ZM50.181 212.864C50.7037 212.864 51.1943 212.741 51.653 212.496C52.1117 212.251 52.4797 211.883 52.757 211.392C53.045 210.901 53.189 210.304 53.189 209.6C53.189 208.896 53.0503 208.299 52.773 207.808C52.4957 207.317 52.133 206.955 51.685 206.72C51.237 206.475 50.7517 206.352 50.229 206.352C49.6957 206.352 49.205 206.475 48.757 206.72C48.3197 206.955 47.9677 207.317 47.701 207.808C47.4343 208.299 47.301 208.896 47.301 209.6C47.301 210.315 47.429 210.917 47.685 211.408C47.9517 211.899 48.3037 212.267 48.741 212.512C49.1783 212.747 49.6583 212.864 50.181 212.864ZM58.0474 206.656C58.3034 206.155 58.666 205.765 59.1354 205.488C59.6154 205.211 60.1967 205.072 60.8794 205.072V206.576H60.4954C58.8634 206.576 58.0474 207.461 58.0474 209.232V214H56.5914V205.232H58.0474V206.656ZM67.4561 214L64.0161 210.128V214H62.5601V202.16H64.0161V209.12L67.3921 205.232H69.4241L65.2961 209.6L69.4401 214H67.4561ZM86.7401 205.232L84.0041 214H82.5001L80.3881 207.04L78.2761 214H76.7721L74.0201 205.232H75.5081L77.5241 212.592L79.7001 205.232H81.1881L83.3161 212.608L85.3001 205.232H86.7401ZM88.9371 203.808C88.6598 203.808 88.4251 203.712 88.2331 203.52C88.0411 203.328 87.9451 203.093 87.9451 202.816C87.9451 202.539 88.0411 202.304 88.2331 202.112C88.4251 201.92 88.6598 201.824 88.9371 201.824C89.2038 201.824 89.4278 201.92 89.6091 202.112C89.8011 202.304 89.8971 202.539 89.8971 202.816C89.8971 203.093 89.8011 203.328 89.6091 203.52C89.4278 203.712 89.2038 203.808 88.9371 203.808ZM89.6411 205.232V214H88.1851V205.232H89.6411ZM93.8986 206.432V211.6C93.8986 212.027 93.9893 212.331 94.1706 212.512C94.352 212.683 94.6666 212.768 95.1146 212.768H96.1866V214H94.8746C94.064 214 93.456 213.813 93.0506 213.44C92.6453 213.067 92.4426 212.453 92.4426 211.6V206.432H91.3066V205.232H92.4426V203.024H93.8986V205.232H96.1866V206.432H93.8986ZM102.303 205.072C102.964 205.072 103.561 205.216 104.095 205.504C104.628 205.781 105.044 206.203 105.343 206.768C105.652 207.333 105.807 208.021 105.807 208.832V214H104.367V209.04C104.367 208.165 104.148 207.499 103.711 207.04C103.273 206.571 102.676 206.336 101.919 206.336C101.151 206.336 100.537 206.576 100.079 207.056C99.6308 207.536 99.4068 208.235 99.4068 209.152V214H97.9508V202.16H99.4068V206.48C99.6948 206.032 100.089 205.685 100.591 205.44C101.103 205.195 101.673 205.072 102.303 205.072ZM116.019 206.432H114.179V214H112.723V206.432H111.587V205.232H112.723V204.608C112.723 203.627 112.973 202.912 113.475 202.464C113.987 202.005 114.803 201.776 115.923 201.776V202.992C115.283 202.992 114.829 203.12 114.563 203.376C114.307 203.621 114.179 204.032 114.179 204.608V205.232H116.019V206.432ZM125.492 205.232V214H124.036V212.704C123.759 213.152 123.37 213.504 122.868 213.76C122.378 214.005 121.834 214.128 121.236 214.128C120.554 214.128 119.94 213.989 119.396 213.712C118.852 213.424 118.42 212.997 118.1 212.432C117.791 211.867 117.636 211.179 117.636 210.368V205.232H119.076V210.176C119.076 211.04 119.295 211.707 119.732 212.176C120.17 212.635 120.767 212.864 121.524 212.864C122.303 212.864 122.916 212.624 123.364 212.144C123.812 211.664 124.036 210.965 124.036 210.048V205.232H125.492ZM129.407 202.16V214H127.951V202.16H129.407ZM133.344 202.16V214H131.888V202.16H133.344ZM143.915 214.144C143.094 214.144 142.347 213.957 141.675 213.584C141.014 213.211 140.491 212.683 140.107 212C139.734 211.307 139.547 210.507 139.547 209.6C139.547 208.704 139.739 207.915 140.123 207.232C140.518 206.539 141.051 206.011 141.723 205.648C142.395 205.275 143.147 205.088 143.979 205.088C144.811 205.088 145.563 205.275 146.235 205.648C146.907 206.011 147.435 206.533 147.819 207.216C148.214 207.899 148.411 208.693 148.411 209.6C148.411 210.507 148.209 211.307 147.803 212C147.409 212.683 146.87 213.211 146.187 213.584C145.505 213.957 144.747 214.144 143.915 214.144ZM143.915 212.864C144.438 212.864 144.929 212.741 145.387 212.496C145.846 212.251 146.214 211.883 146.491 211.392C146.779 210.901 146.923 210.304 146.923 209.6C146.923 208.896 146.785 208.299 146.507 207.808C146.23 207.317 145.867 206.955 145.419 206.72C144.971 206.475 144.486 206.352 143.963 206.352C143.43 206.352 142.939 206.475 142.491 206.72C142.054 206.955 141.702 207.317 141.435 207.808C141.169 208.299 141.035 208.896 141.035 209.6C141.035 210.315 141.163 210.917 141.419 211.408C141.686 211.899 142.038 212.267 142.475 212.512C142.913 212.747 143.393 212.864 143.915 212.864ZM151.782 206.656C152.038 206.155 152.4 205.765 152.87 205.488C153.35 205.211 153.931 205.072 154.614 205.072V206.576H154.23C152.598 206.576 151.782 207.461 151.782 209.232V214H150.326V205.232H151.782V206.656ZM171.104 205.072C171.787 205.072 172.395 205.216 172.928 205.504C173.461 205.781 173.883 206.203 174.192 206.768C174.501 207.333 174.656 208.021 174.656 208.832V214H173.216V209.04C173.216 208.165 172.997 207.499 172.56 207.04C172.133 206.571 171.552 206.336 170.816 206.336C170.059 206.336 169.456 206.581 169.008 207.072C168.56 207.552 168.336 208.251 168.336 209.168V214H166.896V209.04C166.896 208.165 166.677 207.499 166.24 207.04C165.813 206.571 165.232 206.336 164.496 206.336C163.739 206.336 163.136 206.581 162.688 207.072C162.24 207.552 162.016 208.251 162.016 209.168V214H160.56V205.232H162.016V206.496C162.304 206.037 162.688 205.685 163.168 205.44C163.659 205.195 164.197 205.072 164.784 205.072C165.52 205.072 166.171 205.237 166.736 205.568C167.301 205.899 167.723 206.384 168 207.024C168.245 206.405 168.651 205.925 169.216 205.584C169.781 205.243 170.411 205.072 171.104 205.072ZM177.797 203.808C177.519 203.808 177.285 203.712 177.093 203.52C176.901 203.328 176.805 203.093 176.805 202.816C176.805 202.539 176.901 202.304 177.093 202.112C177.285 201.92 177.519 201.824 177.797 201.824C178.063 201.824 178.287 201.92 178.469 202.112C178.661 202.304 178.757 202.539 178.757 202.816C178.757 203.093 178.661 203.328 178.469 203.52C178.287 203.712 178.063 203.808 177.797 203.808ZM178.501 205.232V214H177.045V205.232H178.501ZM185.254 205.072C186.321 205.072 187.185 205.397 187.846 206.048C188.507 206.688 188.838 207.616 188.838 208.832V214H187.398V209.04C187.398 208.165 187.179 207.499 186.742 207.04C186.305 206.571 185.707 206.336 184.95 206.336C184.182 206.336 183.569 206.576 183.11 207.056C182.662 207.536 182.438 208.235 182.438 209.152V214H180.982V205.232H182.438V206.48C182.726 206.032 183.115 205.685 183.606 205.44C184.107 205.195 184.657 205.072 185.254 205.072ZM191.968 203.808C191.691 203.808 191.456 203.712 191.264 203.52C191.072 203.328 190.976 203.093 190.976 202.816C190.976 202.539 191.072 202.304 191.264 202.112C191.456 201.92 191.691 201.824 191.968 201.824C192.235 201.824 192.459 201.92 192.64 202.112C192.832 202.304 192.928 202.539 192.928 202.816C192.928 203.093 192.832 203.328 192.64 203.52C192.459 203.712 192.235 203.808 191.968 203.808ZM192.672 205.232V214H191.216V205.232H192.672ZM205.698 205.072C206.381 205.072 206.989 205.216 207.522 205.504C208.055 205.781 208.477 206.203 208.786 206.768C209.095 207.333 209.25 208.021 209.25 208.832V214H207.81V209.04C207.81 208.165 207.591 207.499 207.154 207.04C206.727 206.571 206.146 206.336 205.41 206.336C204.653 206.336 204.05 206.581 203.602 207.072C203.154 207.552 202.93 208.251 202.93 209.168V214H201.49V209.04C201.49 208.165 201.271 207.499 200.834 207.04C200.407 206.571 199.826 206.336 199.09 206.336C198.333 206.336 197.73 206.581 197.282 207.072C196.834 207.552 196.61 208.251 196.61 209.168V214H195.154V205.232H196.61V206.496C196.898 206.037 197.282 205.685 197.762 205.44C198.253 205.195 198.791 205.072 199.378 205.072C200.114 205.072 200.765 205.237 201.33 205.568C201.895 205.899 202.317 206.384 202.594 207.024C202.839 206.405 203.245 205.925 203.81 205.584C204.375 205.243 205.005 205.072 205.698 205.072ZM212.39 203.808C212.113 203.808 211.878 203.712 211.686 203.52C211.494 203.328 211.398 203.093 211.398 202.816C211.398 202.539 211.494 202.304 211.686 202.112C211.878 201.92 212.113 201.824 212.39 201.824C212.657 201.824 212.881 201.92 213.062 202.112C213.254 202.304 213.35 202.539 213.35 202.816C213.35 203.093 213.254 203.328 213.062 203.52C212.881 203.712 212.657 203.808 212.39 203.808ZM213.094 205.232V214H211.638V205.232H213.094ZM216.664 212.8H220.968V214H215V212.8L219.256 206.416H215.032V205.232H220.936V206.416L216.664 212.8ZM230.857 209.28C230.857 209.557 230.841 209.851 230.809 210.16H223.801C223.854 211.024 224.148 211.701 224.681 212.192C225.225 212.672 225.881 212.912 226.649 212.912C227.278 212.912 227.801 212.768 228.217 212.48C228.644 212.181 228.942 211.787 229.113 211.296H230.681C230.446 212.139 229.977 212.827 229.273 213.36C228.569 213.883 227.694 214.144 226.649 214.144C225.817 214.144 225.07 213.957 224.409 213.584C223.758 213.211 223.246 212.683 222.873 212C222.5 211.307 222.313 210.507 222.313 209.6C222.313 208.693 222.494 207.899 222.857 207.216C223.22 206.533 223.726 206.011 224.377 205.648C225.038 205.275 225.796 205.088 226.649 205.088C227.481 205.088 228.217 205.269 228.857 205.632C229.497 205.995 229.988 206.496 230.329 207.136C230.681 207.765 230.857 208.48 230.857 209.28ZM229.353 208.976C229.353 208.421 229.23 207.947 228.985 207.552C228.74 207.147 228.404 206.843 227.977 206.64C227.561 206.427 227.097 206.32 226.585 206.32C225.849 206.32 225.22 206.555 224.697 207.024C224.185 207.493 223.892 208.144 223.817 208.976H229.353ZM232.235 209.584C232.235 208.688 232.416 207.904 232.779 207.232C233.142 206.549 233.638 206.021 234.267 205.648C234.907 205.275 235.622 205.088 236.411 205.088C237.094 205.088 237.728 205.248 238.315 205.568C238.902 205.877 239.35 206.288 239.659 206.8V202.16H241.131V214H239.659V212.352C239.371 212.875 238.944 213.307 238.379 213.648C237.814 213.979 237.152 214.144 236.395 214.144C235.616 214.144 234.907 213.952 234.267 213.568C233.638 213.184 233.142 212.645 232.779 211.952C232.416 211.259 232.235 210.469 232.235 209.584ZM239.659 209.6C239.659 208.939 239.526 208.363 239.259 207.872C238.992 207.381 238.63 207.008 238.171 206.752C237.723 206.485 237.227 206.352 236.683 206.352C236.139 206.352 235.643 206.48 235.195 206.736C234.747 206.992 234.39 207.365 234.123 207.856C233.856 208.347 233.723 208.923 233.723 209.584C233.723 210.256 233.856 210.843 234.123 211.344C234.39 211.835 234.747 212.213 235.195 212.48C235.643 212.736 236.139 212.864 236.683 212.864C237.227 212.864 237.723 212.736 238.171 212.48C238.63 212.213 238.992 211.835 239.259 211.344C239.526 210.843 239.659 210.261 239.659 209.6ZM250.961 214.144C250.289 214.144 249.686 214.032 249.153 213.808C248.62 213.573 248.198 213.253 247.889 212.848C247.58 212.432 247.409 211.957 247.377 211.424H248.881C248.924 211.861 249.126 212.219 249.489 212.496C249.862 212.773 250.348 212.912 250.945 212.912C251.5 212.912 251.937 212.789 252.257 212.544C252.577 212.299 252.737 211.989 252.737 211.616C252.737 211.232 252.566 210.949 252.225 210.768C251.884 210.576 251.356 210.389 250.641 210.208C249.99 210.037 249.457 209.867 249.041 209.696C248.636 209.515 248.284 209.253 247.985 208.912C247.697 208.56 247.553 208.101 247.553 207.536C247.553 207.088 247.686 206.677 247.953 206.304C248.22 205.931 248.598 205.637 249.089 205.424C249.58 205.2 250.14 205.088 250.769 205.088C251.74 205.088 252.524 205.333 253.121 205.824C253.718 206.315 254.038 206.987 254.081 207.84H252.625C252.593 207.381 252.406 207.013 252.065 206.736C251.734 206.459 251.286 206.32 250.721 206.32C250.198 206.32 249.782 206.432 249.473 206.656C249.164 206.88 249.009 207.173 249.009 207.536C249.009 207.824 249.1 208.064 249.281 208.256C249.473 208.437 249.708 208.587 249.985 208.704C250.273 208.811 250.668 208.933 251.169 209.072C251.798 209.243 252.31 209.413 252.705 209.584C253.1 209.744 253.436 209.989 253.713 210.32C254.001 210.651 254.15 211.083 254.161 211.616C254.161 212.096 254.028 212.528 253.761 212.912C253.494 213.296 253.116 213.6 252.625 213.824C252.145 214.037 251.59 214.144 250.961 214.144ZM255.672 209.6C255.672 208.693 255.854 207.904 256.216 207.232C256.579 206.549 257.08 206.021 257.72 205.648C258.371 205.275 259.112 205.088 259.944 205.088C261.022 205.088 261.907 205.349 262.6 205.872C263.304 206.395 263.768 207.12 263.992 208.048H262.424C262.275 207.515 261.982 207.093 261.544 206.784C261.118 206.475 260.584 206.32 259.944 206.32C259.112 206.32 258.44 206.608 257.928 207.184C257.416 207.749 257.16 208.555 257.16 209.6C257.16 210.656 257.416 211.472 257.928 212.048C258.44 212.624 259.112 212.912 259.944 212.912C260.584 212.912 261.118 212.763 261.544 212.464C261.971 212.165 262.264 211.739 262.424 211.184H263.992C263.758 212.08 263.288 212.8 262.584 213.344C261.88 213.877 261 214.144 259.944 214.144C259.112 214.144 258.371 213.957 257.72 213.584C257.08 213.211 256.579 212.683 256.216 212C255.854 211.317 255.672 210.517 255.672 209.6ZM267.391 206.656C267.647 206.155 268.01 205.765 268.479 205.488C268.959 205.211 269.54 205.072 270.223 205.072V206.576H269.839C268.207 206.576 267.391 207.461 267.391 209.232V214H265.935V205.232H267.391V206.656ZM279.904 209.28C279.904 209.557 279.888 209.851 279.856 210.16H272.848C272.901 211.024 273.195 211.701 273.728 212.192C274.272 212.672 274.928 212.912 275.696 212.912C276.325 212.912 276.848 212.768 277.264 212.48C277.691 212.181 277.989 211.787 278.16 211.296H279.728C279.493 212.139 279.024 212.827 278.32 213.36C277.616 213.883 276.741 214.144 275.696 214.144C274.864 214.144 274.117 213.957 273.456 213.584C272.805 213.211 272.293 212.683 271.92 212C271.547 211.307 271.36 210.507 271.36 209.6C271.36 208.693 271.541 207.899 271.904 207.216C272.267 206.533 272.773 206.011 273.424 205.648C274.085 205.275 274.843 205.088 275.696 205.088C276.528 205.088 277.264 205.269 277.904 205.632C278.544 205.995 279.035 206.496 279.376 207.136C279.728 207.765 279.904 208.48 279.904 209.28ZM278.4 208.976C278.4 208.421 278.277 207.947 278.032 207.552C277.787 207.147 277.451 206.843 277.024 206.64C276.608 206.427 276.144 206.32 275.632 206.32C274.896 206.32 274.267 206.555 273.744 207.024C273.232 207.493 272.939 208.144 272.864 208.976H278.4ZM289.826 209.28C289.826 209.557 289.81 209.851 289.778 210.16H282.77C282.823 211.024 283.116 211.701 283.65 212.192C284.194 212.672 284.85 212.912 285.618 212.912C286.247 212.912 286.77 212.768 287.186 212.48C287.612 212.181 287.911 211.787 288.082 211.296H289.65C289.415 212.139 288.946 212.827 288.242 213.36C287.538 213.883 286.663 214.144 285.618 214.144C284.786 214.144 284.039 213.957 283.378 213.584C282.727 213.211 282.215 212.683 281.842 212C281.468 211.307 281.282 210.507 281.282 209.6C281.282 208.693 281.463 207.899 281.826 207.216C282.188 206.533 282.695 206.011 283.346 205.648C284.007 205.275 284.764 205.088 285.618 205.088C286.45 205.088 287.186 205.269 287.826 205.632C288.466 205.995 288.956 206.496 289.298 207.136C289.65 207.765 289.826 208.48 289.826 209.28ZM288.322 208.976C288.322 208.421 288.199 207.947 287.954 207.552C287.708 207.147 287.372 206.843 286.946 206.64C286.53 206.427 286.066 206.32 285.554 206.32C284.818 206.32 284.188 206.555 283.666 207.024C283.154 207.493 282.86 208.144 282.786 208.976H288.322ZM296.02 205.072C297.086 205.072 297.95 205.397 298.612 206.048C299.273 206.688 299.604 207.616 299.604 208.832V214H298.164V209.04C298.164 208.165 297.945 207.499 297.508 207.04C297.07 206.571 296.473 206.336 295.716 206.336C294.948 206.336 294.334 206.576 293.876 207.056C293.428 207.536 293.204 208.235 293.204 209.152V214H291.748V205.232H293.204V206.48C293.492 206.032 293.881 205.685 294.372 205.44C294.873 205.195 295.422 205.072 296.02 205.072Z" fill="#495057"/>
<ellipse cx="235.997" cy="441.293" rx="23.8317" ry="10.3993" fill="#ABACAB"/>
<mask id="path-7-inside-1_33800_5227" fill="white">
<path fill-rule="evenodd" clip-rule="evenodd" d="M198.847 384.442C198.76 384.341 198.675 384.238 198.59 384.134L198.586 384.128C194.203 378.726 193.235 371.134 196.787 363.977C202.161 353.147 215.859 347.386 227.357 351.12C234.957 353.588 239.706 359.589 240.502 366.5L240.502 366.507C240.518 366.64 240.532 366.773 240.544 366.906L251.83 439.581C249.413 443.449 238.782 443.449 236.365 439.581L198.847 384.442Z"/>
</mask>
<path fill-rule="evenodd" clip-rule="evenodd" d="M198.847 384.442C198.76 384.341 198.675 384.238 198.59 384.134L198.586 384.128C194.203 378.726 193.235 371.134 196.787 363.977C202.161 353.147 215.859 347.386 227.357 351.12C234.957 353.588 239.706 359.589 240.502 366.5L240.502 366.507C240.518 366.64 240.532 366.773 240.544 366.906L251.83 439.581C249.413 443.449 238.782 443.449 236.365 439.581L198.847 384.442Z" fill="white"/>
<path d="M198.847 384.442L199.674 383.88L199.643 383.835L199.608 383.793L198.847 384.442ZM198.59 384.134L199.366 383.503L199.359 383.494L198.59 384.134ZM198.586 384.128L197.809 384.759L197.817 384.768L198.586 384.128ZM196.787 363.977L197.683 364.421L197.683 364.421L196.787 363.977ZM227.357 351.12L227.049 352.071L227.049 352.071L227.357 351.12ZM240.502 366.5L241.497 366.398L241.495 366.386L240.502 366.5ZM240.502 366.507L239.508 366.609L239.509 366.619L240.502 366.507ZM240.544 366.906L239.548 366.996L239.551 367.028L239.555 367.06L240.544 366.906ZM236.365 439.581L237.213 439.051L237.202 439.034L237.191 439.018L236.365 439.581ZM251.83 439.581L252.678 440.111L252.876 439.796L252.819 439.428L251.83 439.581ZM199.608 383.793C199.527 383.699 199.447 383.602 199.366 383.503L197.814 384.764C197.903 384.873 197.993 384.983 198.086 385.092L199.608 383.793ZM199.359 383.494L199.355 383.489L197.817 384.768L197.821 384.773L199.359 383.494ZM199.363 383.498C195.237 378.414 194.297 371.244 197.683 364.421L195.891 363.532C192.174 371.025 193.169 379.039 197.81 384.759L199.363 383.498ZM197.683 364.421C202.836 354.036 216.022 348.49 227.049 352.071L227.666 350.169C215.696 346.282 201.485 352.258 195.891 363.532L197.683 364.421ZM227.049 352.071C234.293 354.423 238.76 360.11 239.508 366.615L241.495 366.386C240.653 359.068 235.621 352.752 227.666 350.169L227.049 352.071ZM239.507 366.603L239.508 366.609L241.497 366.404L241.497 366.398L239.507 366.603ZM239.509 366.619C239.523 366.748 239.537 366.873 239.548 366.996L241.54 366.817C241.527 366.673 241.512 366.532 241.496 366.394L239.509 366.619ZM237.191 439.018L199.674 383.88L198.02 385.005L235.538 440.144L237.191 439.018ZM239.555 367.06L250.842 439.735L252.819 439.428L241.532 366.753L239.555 367.06ZM250.982 439.051C250.547 439.748 249.669 440.368 248.402 440.813C247.154 441.253 245.638 441.482 244.098 441.482C242.557 441.482 241.041 441.252 239.793 440.813C238.526 440.368 237.648 439.748 237.213 439.051L235.517 440.111C236.29 441.348 237.647 442.179 239.129 442.7C240.63 443.228 242.376 443.482 244.098 443.482C245.819 443.482 247.565 443.228 249.066 442.7C250.548 442.179 251.905 441.348 252.678 440.111L250.982 439.051Z" fill="black" mask="url(#path-7-inside-1_33800_5227)"/>
<path fill-rule="evenodd" clip-rule="evenodd" d="M171.343 347.558C184.343 330.524 212.164 318.824 233.431 321.446C254.697 324.068 261.409 340.026 248.409 357.06C235.408 374.094 207.588 385.794 186.321 383.172C165.054 380.55 158.342 364.592 171.343 347.558Z" fill="#FF4D4D" stroke="#262725" stroke-linecap="round" stroke-linejoin="round"/>
<path d="M171.806 383.22L171.767 383.237L168.738 376.033C172.465 380.109 178.451 382.919 186.355 383.894C197.095 385.218 209.456 382.925 220.754 378.174C232.051 373.422 242.335 366.192 248.901 357.589L248.504 357.285L248.901 357.589C253.732 351.258 255.91 345.015 255.604 339.5L258.634 346.704L258.595 346.72L258.821 347.193C261.836 353.505 260.489 361.836 253.822 370.572C247.387 379.004 237.261 386.14 226.082 390.842C214.902 395.544 202.719 397.79 192.193 396.491C181.286 395.146 174.388 390.282 171.986 383.713L171.806 383.22Z" fill="#FF0D0D" stroke="black"/>
<path fill-rule="evenodd" clip-rule="evenodd" d="M176.403 301.758C180.566 296.323 189.463 292.581 196.259 293.408C199.658 293.821 201.892 295.3 202.755 297.355L227.631 336.005C230.263 339.378 229.935 344.259 226.092 349.323C219.704 357.743 206.004 363.505 195.518 362.182C190.396 361.536 186.982 359.318 185.574 356.237C185.272 355.574 185.062 354.872 184.947 354.137L184.942 354.139L174.678 309.158L174.679 309.157C173.816 307.104 174.323 304.475 176.403 301.758Z" fill="#D90000"/>
<path d="M196.259 293.408L196.198 293.904L196.198 293.904L196.259 293.408ZM176.403 301.758L176.8 302.062L176.8 302.062L176.403 301.758ZM202.755 297.355L202.294 297.548L202.311 297.589L202.335 297.625L202.755 297.355ZM227.631 336.005L227.211 336.276L227.223 336.295L227.237 336.313L227.631 336.005ZM226.092 349.323L225.694 349.021L225.694 349.021L226.092 349.323ZM195.518 362.182L195.581 361.686L195.581 361.686L195.518 362.182ZM185.574 356.237L186.029 356.029L185.574 356.237ZM184.947 354.137L185.442 354.06L185.343 353.428L184.754 353.676L184.947 354.137ZM184.942 354.139L184.455 354.25L184.587 354.831L185.136 354.6L184.942 354.139ZM174.678 309.158L174.484 308.697L174.097 308.86L174.191 309.269L174.678 309.158ZM174.679 309.157L174.873 309.618L175.333 309.425L175.14 308.964L174.679 309.157ZM196.319 292.911C192.814 292.485 188.802 293.238 185.15 294.774C181.497 296.31 178.153 298.651 176.006 301.454L176.8 302.062C178.816 299.43 182.002 297.182 185.537 295.696C189.073 294.209 192.907 293.504 196.198 293.904L196.319 292.911ZM203.216 297.161C202.259 294.881 199.822 293.337 196.319 292.911L196.198 293.904C199.495 294.305 201.526 295.718 202.294 297.548L203.216 297.161ZM202.335 297.625L227.211 336.276L228.052 335.735L203.176 297.084L202.335 297.625ZM226.49 349.626C230.411 344.458 230.849 339.317 228.025 335.698L227.237 336.313C229.677 339.44 229.459 344.059 225.694 349.021L226.49 349.626ZM195.455 362.678C200.806 363.353 206.942 362.219 212.535 359.867C218.129 357.514 223.23 353.922 226.49 349.626L225.694 349.021C222.565 353.145 217.623 356.643 212.148 358.945C206.673 361.248 200.716 362.334 195.581 361.686L195.455 362.678ZM185.119 356.444C186.624 359.738 190.231 362.019 195.455 362.678L195.581 361.686C190.561 361.052 187.34 358.898 186.029 356.029L185.119 356.444ZM184.453 354.213C184.575 354.993 184.797 355.74 185.119 356.444L186.029 356.029C185.746 355.409 185.549 354.751 185.442 354.06L184.453 354.213ZM184.754 353.676L184.748 353.678L185.136 354.6L185.141 354.598L184.754 353.676ZM185.43 354.028L175.166 309.047L174.191 309.269L184.455 354.25L185.43 354.028ZM174.872 309.619L174.873 309.618L174.485 308.697L174.484 308.697L174.872 309.619ZM176.006 301.454C173.863 304.253 173.261 307.073 174.218 309.351L175.14 308.964C174.372 307.135 174.783 304.696 176.8 302.062L176.006 301.454Z" fill="black"/>
<path fill-rule="evenodd" clip-rule="evenodd" d="M211.124 300.1C202.795 311.098 184.922 318.615 171.236 316.876C157.551 315.137 153.202 304.796 161.531 293.798C169.86 282.8 187.733 275.283 201.418 277.023C215.104 278.762 219.453 289.103 211.124 300.1Z" fill="white"/>
<path fill-rule="evenodd" clip-rule="evenodd" d="M211.124 300.1C202.795 311.098 184.922 318.615 171.236 316.876C157.551 315.137 153.202 304.796 161.531 293.798C169.86 282.8 187.733 275.283 201.418 277.023C215.104 278.762 219.453 289.103 211.124 300.1Z" stroke="#262725" stroke-width="2" stroke-linecap="round" stroke-linejoin="round"/>
<path fill-rule="evenodd" clip-rule="evenodd" d="M151.406 281.694C161.531 268.367 183.234 259.24 199.841 261.324C216.447 263.408 221.709 275.919 211.584 289.245C201.458 302.571 179.755 311.699 163.149 309.615C146.542 307.531 141.28 295.02 151.406 281.694Z" fill="#FF4D4D"/>
<path fill-rule="evenodd" clip-rule="evenodd" d="M151.406 281.694C161.531 268.367 183.234 259.24 199.841 261.324C216.447 263.408 221.709 275.919 211.584 289.245C201.458 302.571 179.755 311.699 163.149 309.615C146.542 307.531 141.28 295.02 151.406 281.694Z" stroke="#262725" stroke-width="2" stroke-linecap="round" stroke-linejoin="round"/>
<path fill-rule="evenodd" clip-rule="evenodd" d="M220.019 281.253L220.006 281.258C222.471 286.426 221.37 293.148 216.139 300.079C206.037 313.462 184.334 322.589 167.704 320.449C159.091 319.341 153.517 315.426 151.548 310.05L151.535 310.055L147.252 299.87C149.393 304.961 154.875 308.646 163.191 309.717C179.821 311.857 201.523 302.729 211.625 289.347C216.676 282.655 217.876 276.159 215.735 271.068L220.019 281.253Z" stroke="#262725" stroke-width="2" stroke-linecap="round" stroke-linejoin="round"/>
<path fill-rule="evenodd" clip-rule="evenodd" d="M220.019 281.253L220.006 281.258C222.471 286.426 221.37 293.148 216.139 300.079C206.037 313.462 184.334 322.589 167.704 320.449C159.091 319.341 153.517 315.426 151.548 310.05L151.535 310.055L147.252 299.87C149.393 304.961 154.875 308.646 163.191 309.717C179.821 311.857 201.523 302.729 211.625 289.347C216.676 282.655 217.876 276.159 215.735 271.068L220.019 281.253Z" fill="#FF0D0D"/>
</svg>
