<svg width="786" height="263" viewBox="0 0 786 263" fill="none" xmlns="http://www.w3.org/2000/svg">
<rect x="0.5" y="0.801147" width="785" height="261.22" rx="19.5" fill="white"/>
<rect x="0.5" y="0.801147" width="785" height="261.22" rx="19.5" stroke="#556AEB"/>
<rect x="32" y="49.4109" width="48" height="48" rx="8" fill="#212529"/>
<path d="M56.0142 79.57C55.2339 79.57 54.5369 79.4355 53.9233 79.1666C53.3134 78.8977 52.8305 78.5246 52.4744 78.0473C52.1222 77.5662 51.9328 77.0094 51.9062 76.3768H53.6903C53.7131 76.7215 53.8286 77.0208 54.0369 77.2746C54.2491 77.5246 54.5256 77.7177 54.8665 77.8541C55.2074 77.9905 55.5862 78.0586 56.0028 78.0586C56.4612 78.0586 56.8665 77.9791 57.2188 77.82C57.5748 77.6609 57.8532 77.4393 58.054 77.1552C58.2547 76.8674 58.3551 76.5359 58.3551 76.1609C58.3551 75.7708 58.2547 75.428 58.054 75.1325C57.857 74.8333 57.5672 74.5984 57.1847 74.428C56.8059 74.2575 56.3475 74.1723 55.8097 74.1723H54.8267V72.7405H55.8097C56.2415 72.7405 56.6203 72.6628 56.946 72.5075C57.2756 72.3522 57.5331 72.1363 57.7188 71.8598C57.9044 71.5795 57.9972 71.2518 57.9972 70.8768C57.9972 70.517 57.9157 70.2045 57.7528 69.9393C57.5938 69.6704 57.3665 69.4602 57.071 69.3086C56.7794 69.1571 56.4347 69.0814 56.0369 69.0814C55.6581 69.0814 55.304 69.1514 54.9744 69.2916C54.6487 69.428 54.3835 69.6249 54.179 69.8825C53.9744 70.1363 53.8646 70.4412 53.8494 70.7973H52.1506C52.1695 70.1685 52.3551 69.6155 52.7074 69.1382C53.0634 68.6609 53.5331 68.2878 54.1165 68.0189C54.6998 67.7499 55.3475 67.6155 56.0597 67.6155C56.8059 67.6155 57.4498 67.7613 57.9915 68.053C58.5369 68.3408 58.9574 68.7253 59.2528 69.2064C59.5521 69.6874 59.6998 70.2139 59.696 70.7859C59.6998 71.4374 59.518 71.9905 59.1506 72.445C58.7869 72.8996 58.3021 73.2045 57.696 73.3598V73.4507C58.4688 73.5681 59.0672 73.8749 59.4915 74.3711C59.9195 74.8674 60.1316 75.4829 60.1278 76.2177C60.1316 76.8579 59.9536 77.4318 59.5938 77.9393C59.2377 78.4469 58.7509 78.8465 58.1335 79.1382C57.5161 79.4261 56.8097 79.57 56.0142 79.57Z" fill="white"/>
<path d="M39.44 136.579C38.272 136.579 37.216 136.379 36.272 135.979C35.344 135.579 34.608 135.003 34.064 134.251C33.52 133.499 33.24 132.611 33.224 131.587H36.824C36.872 132.275 37.112 132.819 37.544 133.219C37.992 133.619 38.6 133.819 39.368 133.819C40.152 133.819 40.768 133.635 41.216 133.267C41.664 132.883 41.888 132.387 41.888 131.779C41.888 131.283 41.736 130.875 41.432 130.555C41.128 130.235 40.744 129.987 40.28 129.811C39.832 129.619 39.208 129.411 38.408 129.187C37.32 128.867 36.432 128.555 35.744 128.251C35.072 127.931 34.488 127.459 33.992 126.835C33.512 126.195 33.272 125.347 33.272 124.291C33.272 123.299 33.52 122.435 34.016 121.699C34.512 120.963 35.208 120.403 36.104 120.019C37 119.619 38.024 119.419 39.176 119.419C40.904 119.419 42.304 119.843 43.376 120.691C44.464 121.523 45.064 122.691 45.176 124.195H41.48C41.448 123.619 41.2 123.147 40.736 122.779C40.288 122.395 39.688 122.203 38.936 122.203C38.28 122.203 37.752 122.371 37.352 122.707C36.968 123.043 36.776 123.531 36.776 124.171C36.776 124.619 36.92 124.995 37.208 125.299C37.512 125.587 37.88 125.827 38.312 126.019C38.76 126.195 39.384 126.403 40.184 126.643C41.272 126.963 42.16 127.283 42.848 127.603C43.536 127.923 44.128 128.403 44.624 129.043C45.12 129.683 45.368 130.523 45.368 131.563C45.368 132.459 45.136 133.291 44.672 134.059C44.208 134.827 43.528 135.443 42.632 135.907C41.736 136.355 40.672 136.579 39.44 136.579ZM61.001 123.115L52.769 142.699H49.193L52.073 136.075L46.745 123.115H50.513L53.945 132.403L57.425 123.115H61.001ZM70.1803 122.923C71.7643 122.923 73.0443 123.427 74.0203 124.435C74.9963 125.427 75.4843 126.819 75.4843 128.611V136.411H72.1243V129.067C72.1243 128.011 71.8603 127.203 71.3323 126.643C70.8043 126.067 70.0843 125.779 69.1723 125.779C68.2443 125.779 67.5083 126.067 66.9643 126.643C66.4363 127.203 66.1723 128.011 66.1723 129.067V136.411H62.8123V123.115H66.1723V124.771C66.6203 124.195 67.1883 123.747 67.8763 123.427C68.5803 123.091 69.3483 122.923 70.1803 122.923ZM77.8154 129.763C77.8154 128.387 78.0954 127.187 78.6554 126.163C79.2154 125.123 79.9914 124.323 80.9834 123.763C81.9754 123.187 83.1114 122.899 84.3914 122.899C86.0394 122.899 87.3994 123.315 88.4714 124.147C89.5594 124.963 90.2874 126.115 90.6554 127.603H87.0314C86.8394 127.027 86.5114 126.579 86.0474 126.259C85.5994 125.923 85.0394 125.755 84.3674 125.755C83.4074 125.755 82.6474 126.107 82.0874 126.811C81.5274 127.499 81.2474 128.483 81.2474 129.763C81.2474 131.027 81.5274 132.011 82.0874 132.715C82.6474 133.403 83.4074 133.747 84.3674 133.747C85.7274 133.747 86.6154 133.139 87.0314 131.923H90.6554C90.2874 133.363 89.5594 134.507 88.4714 135.355C87.3834 136.203 86.0234 136.627 84.3914 136.627C83.1114 136.627 81.9754 136.347 80.9834 135.787C79.9914 135.211 79.2154 134.411 78.6554 133.387C78.0954 132.347 77.8154 131.139 77.8154 129.763ZM100.605 122.923C101.613 122.923 102.509 123.147 103.293 123.595C104.077 124.027 104.685 124.675 105.117 125.539C105.565 126.387 105.789 127.411 105.789 128.611V136.411H102.429V129.067C102.429 128.011 102.165 127.203 101.637 126.643C101.109 126.067 100.389 125.779 99.4769 125.779C98.5489 125.779 97.8129 126.067 97.2689 126.643C96.7409 127.203 96.4769 128.011 96.4769 129.067V136.411H93.1169V118.651H96.4769V124.771C96.9089 124.195 97.4849 123.747 98.2049 123.427C98.9249 123.091 99.7249 122.923 100.605 122.923ZM112.344 125.179C112.776 124.475 113.336 123.923 114.024 123.523C114.728 123.123 115.528 122.923 116.424 122.923V126.451H115.536C114.48 126.451 113.68 126.699 113.136 127.195C112.608 127.691 112.344 128.555 112.344 129.787V136.411H108.984V123.115H112.344V125.179ZM124.591 136.627C123.311 136.627 122.159 136.347 121.135 135.787C120.111 135.211 119.303 134.403 118.711 133.363C118.135 132.323 117.847 131.123 117.847 129.763C117.847 128.403 118.143 127.203 118.735 126.163C119.343 125.123 120.167 124.323 121.207 123.763C122.247 123.187 123.407 122.899 124.687 122.899C125.967 122.899 127.127 123.187 128.167 123.763C129.207 124.323 130.023 125.123 130.615 126.163C131.223 127.203 131.527 128.403 131.527 129.763C131.527 131.123 131.215 132.323 130.591 133.363C129.983 134.403 129.151 135.211 128.095 135.787C127.055 136.347 125.887 136.627 124.591 136.627ZM124.591 133.699C125.199 133.699 125.767 133.555 126.295 133.267C126.839 132.963 127.271 132.515 127.591 131.923C127.911 131.331 128.071 130.611 128.071 129.763C128.071 128.499 127.735 127.531 127.063 126.859C126.407 126.171 125.599 125.827 124.639 125.827C123.679 125.827 122.871 126.171 122.215 126.859C121.575 127.531 121.255 128.499 121.255 129.763C121.255 131.027 121.567 132.003 122.191 132.691C122.831 133.363 123.631 133.699 124.591 133.699ZM141.36 122.923C142.944 122.923 144.224 123.427 145.2 124.435C146.176 125.427 146.664 126.819 146.664 128.611V136.411H143.304V129.067C143.304 128.011 143.04 127.203 142.512 126.643C141.984 126.067 141.264 125.779 140.352 125.779C139.424 125.779 138.688 126.067 138.144 126.643C137.616 127.203 137.352 128.011 137.352 129.067V136.411H133.992V123.115H137.352V124.771C137.8 124.195 138.368 123.747 139.056 123.427C139.76 123.091 140.528 122.923 141.36 122.923ZM151.563 121.531C150.971 121.531 150.475 121.347 150.075 120.979C149.691 120.595 149.499 120.123 149.499 119.563C149.499 119.003 149.691 118.539 150.075 118.171C150.475 117.787 150.971 117.595 151.563 117.595C152.155 117.595 152.643 117.787 153.027 118.171C153.427 118.539 153.627 119.003 153.627 119.563C153.627 120.123 153.427 120.595 153.027 120.979C152.643 121.347 152.155 121.531 151.563 121.531ZM153.219 123.115V136.411H149.859V123.115H153.219ZM159.611 133.651H165.539V136.411H155.795V133.699L161.603 125.875H155.819V123.115H165.467V125.827L159.611 133.651ZM180.5 129.475C180.5 129.955 180.468 130.387 180.404 130.771H170.684C170.764 131.731 171.1 132.483 171.692 133.027C172.284 133.571 173.012 133.843 173.876 133.843C175.124 133.843 176.012 133.307 176.54 132.235H180.164C179.78 133.515 179.044 134.571 177.956 135.403C176.868 136.219 175.532 136.627 173.948 136.627C172.668 136.627 171.516 136.347 170.492 135.787C169.484 135.211 168.692 134.403 168.116 133.363C167.556 132.323 167.276 131.123 167.276 129.763C167.276 128.387 167.556 127.179 168.116 126.139C168.676 125.099 169.46 124.299 170.468 123.739C171.476 123.179 172.636 122.899 173.948 122.899C175.212 122.899 176.34 123.171 177.332 123.715C178.34 124.259 179.116 125.035 179.66 126.043C180.22 127.035 180.5 128.179 180.5 129.475ZM177.02 128.515C177.004 127.651 176.692 126.963 176.084 126.451C175.476 125.923 174.732 125.659 173.852 125.659C173.02 125.659 172.316 125.915 171.74 126.427C171.18 126.923 170.836 127.619 170.708 128.515H177.02Z" fill="#212529"/>
<path d="M37.364 179.537C36.536 179.537 35.792 179.393 35.132 179.105C34.484 178.805 33.974 178.397 33.602 177.881C33.23 177.353 33.038 176.747 33.026 176.063H34.772C34.832 176.651 35.072 177.149 35.492 177.557C35.924 177.953 36.548 178.151 37.364 178.151C38.144 178.151 38.756 177.959 39.2 177.575C39.656 177.179 39.884 176.675 39.884 176.063C39.884 175.583 39.752 175.193 39.488 174.893C39.224 174.593 38.894 174.365 38.498 174.209C38.102 174.053 37.568 173.885 36.896 173.705C36.068 173.489 35.402 173.273 34.898 173.057C34.406 172.841 33.98 172.505 33.62 172.049C33.272 171.581 33.098 170.957 33.098 170.177C33.098 169.493 33.272 168.887 33.62 168.359C33.968 167.831 34.454 167.423 35.078 167.135C35.714 166.847 36.44 166.703 37.256 166.703C38.432 166.703 39.392 166.997 40.136 167.585C40.892 168.173 41.318 168.953 41.414 169.925H39.614C39.554 169.445 39.302 169.025 38.858 168.665C38.414 168.293 37.826 168.107 37.094 168.107C36.41 168.107 35.852 168.287 35.42 168.647C34.988 168.995 34.772 169.487 34.772 170.123C34.772 170.579 34.898 170.951 35.15 171.239C35.414 171.527 35.732 171.749 36.104 171.905C36.488 172.049 37.022 172.217 37.706 172.409C38.534 172.637 39.2 172.865 39.704 173.093C40.208 173.309 40.64 173.651 41 174.119C41.36 174.575 41.54 175.199 41.54 175.991C41.54 176.603 41.378 177.179 41.054 177.719C40.73 178.259 40.25 178.697 39.614 179.033C38.978 179.369 38.228 179.537 37.364 179.537ZM52.4465 169.547L46.5065 184.055H44.8145L46.7585 179.303L42.7805 169.547H44.5985L47.6945 177.539L50.7545 169.547H52.4465ZM58.899 169.367C60.099 169.367 61.071 169.733 61.815 170.465C62.559 171.185 62.931 172.229 62.931 173.597V179.411H61.311V173.831C61.311 172.847 61.065 172.097 60.573 171.581C60.081 171.053 59.409 170.789 58.557 170.789C57.693 170.789 57.003 171.059 56.487 171.599C55.983 172.139 55.731 172.925 55.731 173.957V179.411H54.093V169.547H55.731V170.951C56.055 170.447 56.493 170.057 57.045 169.781C57.609 169.505 58.227 169.367 58.899 169.367ZM64.9947 174.461C64.9947 173.441 65.1987 172.553 65.6067 171.797C66.0147 171.029 66.5787 170.435 67.2987 170.015C68.0307 169.595 68.8647 169.385 69.8007 169.385C71.0127 169.385 72.0087 169.679 72.7887 170.267C73.5807 170.855 74.1027 171.671 74.3547 172.715H72.5907C72.4227 172.115 72.0927 171.641 71.6007 171.293C71.1207 170.945 70.5207 170.771 69.8007 170.771C68.8647 170.771 68.1087 171.095 67.5327 171.743C66.9567 172.379 66.6687 173.285 66.6687 174.461C66.6687 175.649 66.9567 176.567 67.5327 177.215C68.1087 177.863 68.8647 178.187 69.8007 178.187C70.5207 178.187 71.1207 178.019 71.6007 177.683C72.0807 177.347 72.4107 176.867 72.5907 176.243H74.3547C74.0907 177.251 73.5627 178.061 72.7707 178.673C71.9787 179.273 70.9887 179.573 69.8007 179.573C68.8647 179.573 68.0307 179.363 67.2987 178.943C66.5787 178.523 66.0147 177.929 65.6067 177.161C65.1987 176.393 64.9947 175.493 64.9947 174.461ZM81.4363 169.367C82.1803 169.367 82.8523 169.529 83.4523 169.853C84.0523 170.165 84.5203 170.639 84.8563 171.275C85.2043 171.911 85.3783 172.685 85.3783 173.597V179.411H83.7583V173.831C83.7583 172.847 83.5123 172.097 83.0203 171.581C82.5283 171.053 81.8563 170.789 81.0043 170.789C80.1403 170.789 79.4503 171.059 78.9343 171.599C78.4303 172.139 78.1783 172.925 78.1783 173.957V179.411H76.5403V166.091H78.1783V170.951C78.5023 170.447 78.9463 170.057 79.5103 169.781C80.0863 169.505 80.7283 169.367 81.4363 169.367ZM89.692 171.149C89.98 170.585 90.388 170.147 90.916 169.835C91.456 169.523 92.11 169.367 92.878 169.367V171.059H92.446C90.61 171.059 89.692 172.055 89.692 174.047V179.411H88.054V169.547H89.692V171.149ZM99.0708 179.573C98.1468 179.573 97.3068 179.363 96.5508 178.943C95.8068 178.523 95.2188 177.929 94.7868 177.161C94.3668 176.381 94.1568 175.481 94.1568 174.461C94.1568 173.453 94.3728 172.565 94.8048 171.797C95.2488 171.017 95.8488 170.423 96.6048 170.015C97.3608 169.595 98.2068 169.385 99.1428 169.385C100.079 169.385 100.925 169.595 101.681 170.015C102.437 170.423 103.031 171.011 103.463 171.779C103.907 172.547 104.129 173.441 104.129 174.461C104.129 175.481 103.901 176.381 103.445 177.161C103.001 177.929 102.395 178.523 101.627 178.943C100.859 179.363 100.007 179.573 99.0708 179.573ZM99.0708 178.133C99.6588 178.133 100.211 177.995 100.727 177.719C101.243 177.443 101.657 177.029 101.969 176.477C102.293 175.925 102.455 175.253 102.455 174.461C102.455 173.669 102.299 172.997 101.987 172.445C101.675 171.893 101.267 171.485 100.763 171.221C100.259 170.945 99.7128 170.807 99.1248 170.807C98.5248 170.807 97.9728 170.945 97.4688 171.221C96.9768 171.485 96.5808 171.893 96.2808 172.445C95.9808 172.997 95.8308 173.669 95.8308 174.461C95.8308 175.265 95.9748 175.943 96.2628 176.495C96.5628 177.047 96.9588 177.461 97.4508 177.737C97.9428 178.001 98.4828 178.133 99.0708 178.133ZM111.088 169.367C112.288 169.367 113.26 169.733 114.004 170.465C114.748 171.185 115.12 172.229 115.12 173.597V179.411H113.5V173.831C113.5 172.847 113.254 172.097 112.762 171.581C112.27 171.053 111.598 170.789 110.746 170.789C109.882 170.789 109.192 171.059 108.676 171.599C108.172 172.139 107.92 172.925 107.92 173.957V179.411H106.282V169.547H107.92V170.951C108.244 170.447 108.682 170.057 109.234 169.781C109.798 169.505 110.416 169.367 111.088 169.367ZM118.642 167.945C118.33 167.945 118.066 167.837 117.85 167.621C117.634 167.405 117.526 167.141 117.526 166.829C117.526 166.517 117.634 166.253 117.85 166.037C118.066 165.821 118.33 165.713 118.642 165.713C118.942 165.713 119.194 165.821 119.398 166.037C119.614 166.253 119.722 166.517 119.722 166.829C119.722 167.141 119.614 167.405 119.398 167.621C119.194 167.837 118.942 167.945 118.642 167.945ZM119.434 169.547V179.411H117.796V169.547H119.434ZM123.45 178.061H128.292V179.411H121.578V178.061L126.366 170.879H121.614V169.547H128.256V170.879L123.45 178.061ZM139.417 174.101C139.417 174.413 139.399 174.743 139.363 175.091H131.479C131.539 176.063 131.869 176.825 132.469 177.377C133.081 177.917 133.819 178.187 134.683 178.187C135.391 178.187 135.979 178.025 136.447 177.701C136.927 177.365 137.263 176.921 137.455 176.369H139.219C138.955 177.317 138.427 178.091 137.635 178.691C136.843 179.279 135.859 179.573 134.683 179.573C133.747 179.573 132.907 179.363 132.163 178.943C131.431 178.523 130.855 177.929 130.435 177.161C130.015 176.381 129.805 175.481 129.805 174.461C129.805 173.441 130.009 172.547 130.417 171.779C130.825 171.011 131.395 170.423 132.127 170.015C132.871 169.595 133.723 169.385 134.683 169.385C135.619 169.385 136.447 169.589 137.167 169.997C137.887 170.405 138.439 170.969 138.823 171.689C139.219 172.397 139.417 173.201 139.417 174.101ZM137.725 173.759C137.725 173.135 137.587 172.601 137.311 172.157C137.035 171.701 136.657 171.359 136.177 171.131C135.709 170.891 135.187 170.771 134.611 170.771C133.783 170.771 133.075 171.035 132.487 171.563C131.911 172.091 131.581 172.823 131.497 173.759H137.725ZM145.766 174.443C145.766 173.435 145.97 172.553 146.378 171.797C146.786 171.029 147.344 170.435 148.052 170.015C148.772 169.595 149.57 169.385 150.446 169.385C151.31 169.385 152.06 169.571 152.696 169.943C153.332 170.315 153.806 170.783 154.118 171.347V169.547H155.774V179.411H154.118V177.575C153.794 178.151 153.308 178.631 152.66 179.015C152.024 179.387 151.28 179.573 150.428 179.573C149.552 179.573 148.76 179.357 148.052 178.925C147.344 178.493 146.786 177.887 146.378 177.107C145.97 176.327 145.766 175.439 145.766 174.443ZM154.118 174.461C154.118 173.717 153.968 173.069 153.668 172.517C153.368 171.965 152.96 171.545 152.444 171.257C151.94 170.957 151.382 170.807 150.77 170.807C150.158 170.807 149.6 170.951 149.096 171.239C148.592 171.527 148.19 171.947 147.89 172.499C147.59 173.051 147.44 173.699 147.44 174.443C147.44 175.199 147.59 175.859 147.89 176.423C148.19 176.975 148.592 177.401 149.096 177.701C149.6 177.989 150.158 178.133 150.77 178.133C151.382 178.133 151.94 177.989 152.444 177.701C152.96 177.401 153.368 176.975 153.668 176.423C153.968 175.859 154.118 175.205 154.118 174.461ZM160.18 166.091V179.411H158.542V166.091H160.18ZM164.61 166.091V179.411H162.972V166.091H164.61ZM180.696 169.547L174.756 184.055H173.064L175.008 179.303L171.03 169.547H172.848L175.944 177.539L179.004 169.547H180.696ZM186.645 179.573C185.721 179.573 184.881 179.363 184.125 178.943C183.381 178.523 182.793 177.929 182.361 177.161C181.941 176.381 181.731 175.481 181.731 174.461C181.731 173.453 181.947 172.565 182.379 171.797C182.823 171.017 183.423 170.423 184.179 170.015C184.935 169.595 185.781 169.385 186.717 169.385C187.653 169.385 188.499 169.595 189.255 170.015C190.011 170.423 190.605 171.011 191.037 171.779C191.481 172.547 191.703 173.441 191.703 174.461C191.703 175.481 191.475 176.381 191.019 177.161C190.575 177.929 189.969 178.523 189.201 178.943C188.433 179.363 187.581 179.573 186.645 179.573ZM186.645 178.133C187.233 178.133 187.785 177.995 188.301 177.719C188.817 177.443 189.231 177.029 189.543 176.477C189.867 175.925 190.029 175.253 190.029 174.461C190.029 173.669 189.873 172.997 189.561 172.445C189.249 171.893 188.841 171.485 188.337 171.221C187.833 170.945 187.287 170.807 186.699 170.807C186.099 170.807 185.547 170.945 185.043 171.221C184.551 171.485 184.155 171.893 183.855 172.445C183.555 172.997 183.405 173.669 183.405 174.461C183.405 175.265 183.549 175.943 183.837 176.495C184.137 177.047 184.533 177.461 185.025 177.737C185.517 178.001 186.057 178.133 186.645 178.133ZM202.605 169.547V179.411H200.967V177.953C200.655 178.457 200.217 178.853 199.653 179.141C199.101 179.417 198.489 179.555 197.817 179.555C197.049 179.555 196.359 179.399 195.747 179.087C195.135 178.763 194.649 178.283 194.289 177.647C193.941 177.011 193.767 176.237 193.767 175.325V169.547H195.387V175.109C195.387 176.081 195.633 176.831 196.125 177.359C196.617 177.875 197.289 178.133 198.141 178.133C199.017 178.133 199.707 177.863 200.211 177.323C200.715 176.783 200.967 175.997 200.967 174.965V169.547H202.605ZM207.008 171.149C207.296 170.585 207.704 170.147 208.232 169.835C208.772 169.523 209.426 169.367 210.194 169.367V171.059H209.762C207.926 171.059 207.008 172.055 207.008 174.047V179.411H205.37V169.547H207.008V171.149ZM218.882 170.897V176.711C218.882 177.191 218.984 177.533 219.188 177.737C219.392 177.929 219.746 178.025 220.25 178.025H221.456V179.411H219.98C219.068 179.411 218.384 179.201 217.928 178.781C217.472 178.361 217.244 177.671 217.244 176.711V170.897H215.966V169.547H217.244V167.063H218.882V169.547H221.456V170.897H218.882ZM227.743 179.573C226.819 179.573 225.979 179.363 225.223 178.943C224.479 178.523 223.891 177.929 223.459 177.161C223.039 176.381 222.829 175.481 222.829 174.461C222.829 173.453 223.045 172.565 223.477 171.797C223.921 171.017 224.521 170.423 225.277 170.015C226.033 169.595 226.879 169.385 227.815 169.385C228.751 169.385 229.597 169.595 230.353 170.015C231.109 170.423 231.703 171.011 232.135 171.779C232.579 172.547 232.801 173.441 232.801 174.461C232.801 175.481 232.573 176.381 232.117 177.161C231.673 177.929 231.067 178.523 230.299 178.943C229.531 179.363 228.679 179.573 227.743 179.573ZM227.743 178.133C228.331 178.133 228.883 177.995 229.399 177.719C229.915 177.443 230.329 177.029 230.641 176.477C230.965 175.925 231.127 175.253 231.127 174.461C231.127 173.669 230.971 172.997 230.659 172.445C230.347 171.893 229.939 171.485 229.435 171.221C228.931 170.945 228.385 170.807 227.797 170.807C227.197 170.807 226.645 170.945 226.141 171.221C225.649 171.485 225.253 171.893 224.953 172.445C224.653 172.997 224.503 173.669 224.503 174.461C224.503 175.265 224.647 175.943 224.935 176.495C225.235 177.047 225.631 177.461 226.123 177.737C226.615 178.001 227.155 178.133 227.743 178.133ZM239.256 179.573C238.332 179.573 237.492 179.363 236.736 178.943C235.992 178.523 235.404 177.929 234.972 177.161C234.552 176.381 234.342 175.481 234.342 174.461C234.342 173.453 234.558 172.565 234.99 171.797C235.434 171.017 236.034 170.423 236.79 170.015C237.546 169.595 238.392 169.385 239.328 169.385C240.264 169.385 241.11 169.595 241.866 170.015C242.622 170.423 243.216 171.011 243.648 171.779C244.092 172.547 244.314 173.441 244.314 174.461C244.314 175.481 244.086 176.381 243.63 177.161C243.186 177.929 242.58 178.523 241.812 178.943C241.044 179.363 240.192 179.573 239.256 179.573ZM239.256 178.133C239.844 178.133 240.396 177.995 240.912 177.719C241.428 177.443 241.842 177.029 242.154 176.477C242.478 175.925 242.64 175.253 242.64 174.461C242.64 173.669 242.484 172.997 242.172 172.445C241.86 171.893 241.452 171.485 240.948 171.221C240.444 170.945 239.898 170.807 239.31 170.807C238.71 170.807 238.158 170.945 237.654 171.221C237.162 171.485 236.766 171.893 236.466 172.445C236.166 172.997 236.016 173.669 236.016 174.461C236.016 175.265 236.16 175.943 236.448 176.495C236.748 177.047 237.144 177.461 237.636 177.737C238.128 178.001 238.668 178.133 239.256 178.133ZM248.106 166.091V179.411H246.468V166.091H248.106ZM254.39 179.573C253.634 179.573 252.956 179.447 252.356 179.195C251.756 178.931 251.282 178.571 250.934 178.115C250.586 177.647 250.394 177.113 250.358 176.513H252.05C252.098 177.005 252.326 177.407 252.734 177.719C253.154 178.031 253.7 178.187 254.372 178.187C254.996 178.187 255.488 178.049 255.848 177.773C256.208 177.497 256.388 177.149 256.388 176.729C256.388 176.297 256.196 175.979 255.812 175.775C255.428 175.559 254.834 175.349 254.03 175.145C253.298 174.953 252.698 174.761 252.23 174.569C251.774 174.365 251.378 174.071 251.042 173.687C250.718 173.291 250.556 172.775 250.556 172.139C250.556 171.635 250.706 171.173 251.006 170.753C251.306 170.333 251.732 170.003 252.284 169.763C252.836 169.511 253.466 169.385 254.174 169.385C255.266 169.385 256.148 169.661 256.82 170.213C257.492 170.765 257.852 171.521 257.9 172.481H256.262C256.226 171.965 256.016 171.551 255.632 171.239C255.26 170.927 254.756 170.771 254.12 170.771C253.532 170.771 253.064 170.897 252.716 171.149C252.368 171.401 252.194 171.731 252.194 172.139C252.194 172.463 252.296 172.733 252.5 172.949C252.716 173.153 252.98 173.321 253.292 173.453C253.616 173.573 254.06 173.711 254.624 173.867C255.332 174.059 255.908 174.251 256.352 174.443C256.796 174.623 257.174 174.899 257.486 175.271C257.81 175.643 257.978 176.129 257.99 176.729C257.99 177.269 257.84 177.755 257.54 178.187C257.24 178.619 256.814 178.961 256.262 179.213C255.722 179.453 255.098 179.573 254.39 179.573ZM265.947 167.945C265.635 167.945 265.371 167.837 265.155 167.621C264.939 167.405 264.831 167.141 264.831 166.829C264.831 166.517 264.939 166.253 265.155 166.037C265.371 165.821 265.635 165.713 265.947 165.713C266.247 165.713 266.499 165.821 266.703 166.037C266.919 166.253 267.027 166.517 267.027 166.829C267.027 167.141 266.919 167.405 266.703 167.621C266.499 167.837 266.247 167.945 265.947 167.945ZM266.739 169.547V179.411H265.101V169.547H266.739ZM274.337 169.367C275.537 169.367 276.509 169.733 277.253 170.465C277.997 171.185 278.369 172.229 278.369 173.597V179.411H276.749V173.831C276.749 172.847 276.503 172.097 276.011 171.581C275.519 171.053 274.847 170.789 273.995 170.789C273.131 170.789 272.441 171.059 271.925 171.599C271.421 172.139 271.169 172.925 271.169 173.957V179.411H269.531V169.547H271.169V170.951C271.493 170.447 271.931 170.057 272.483 169.781C273.047 169.505 273.665 169.367 274.337 169.367ZM289.821 179.537C288.993 179.537 288.249 179.393 287.589 179.105C286.941 178.805 286.431 178.397 286.059 177.881C285.687 177.353 285.495 176.747 285.483 176.063H287.229C287.289 176.651 287.529 177.149 287.949 177.557C288.381 177.953 289.005 178.151 289.821 178.151C290.601 178.151 291.213 177.959 291.657 177.575C292.113 177.179 292.341 176.675 292.341 176.063C292.341 175.583 292.209 175.193 291.945 174.893C291.681 174.593 291.351 174.365 290.955 174.209C290.559 174.053 290.025 173.885 289.353 173.705C288.525 173.489 287.859 173.273 287.355 173.057C286.863 172.841 286.437 172.505 286.077 172.049C285.729 171.581 285.555 170.957 285.555 170.177C285.555 169.493 285.729 168.887 286.077 168.359C286.425 167.831 286.911 167.423 287.535 167.135C288.171 166.847 288.897 166.703 289.713 166.703C290.889 166.703 291.849 166.997 292.593 167.585C293.349 168.173 293.775 168.953 293.871 169.925H292.071C292.011 169.445 291.759 169.025 291.315 168.665C290.871 168.293 290.283 168.107 289.551 168.107C288.867 168.107 288.309 168.287 287.877 168.647C287.445 168.995 287.229 169.487 287.229 170.123C287.229 170.579 287.355 170.951 287.607 171.239C287.871 171.527 288.189 171.749 288.561 171.905C288.945 172.049 289.479 172.217 290.163 172.409C290.991 172.637 291.657 172.865 292.161 173.093C292.665 173.309 293.097 173.651 293.457 174.119C293.817 174.575 293.997 175.199 293.997 175.991C293.997 176.603 293.835 177.179 293.511 177.719C293.187 178.259 292.707 178.697 292.071 179.033C291.435 179.369 290.685 179.537 289.821 179.537ZM304.903 169.547L298.963 184.055H297.271L299.215 179.303L295.237 169.547H297.055L300.151 177.539L303.211 169.547H304.903ZM311.356 169.367C312.556 169.367 313.528 169.733 314.272 170.465C315.016 171.185 315.388 172.229 315.388 173.597V179.411H313.768V173.831C313.768 172.847 313.522 172.097 313.03 171.581C312.538 171.053 311.866 170.789 311.014 170.789C310.15 170.789 309.46 171.059 308.944 171.599C308.44 172.139 308.188 172.925 308.188 173.957V179.411H306.55V169.547H308.188V170.951C308.512 170.447 308.95 170.057 309.502 169.781C310.066 169.505 310.684 169.367 311.356 169.367ZM327.064 174.101C327.064 174.413 327.046 174.743 327.01 175.091H319.126C319.186 176.063 319.516 176.825 320.116 177.377C320.728 177.917 321.466 178.187 322.33 178.187C323.038 178.187 323.626 178.025 324.094 177.701C324.574 177.365 324.91 176.921 325.102 176.369H326.866C326.602 177.317 326.074 178.091 325.282 178.691C324.49 179.279 323.506 179.573 322.33 179.573C321.394 179.573 320.554 179.363 319.81 178.943C319.078 178.523 318.502 177.929 318.082 177.161C317.662 176.381 317.452 175.481 317.452 174.461C317.452 173.441 317.656 172.547 318.064 171.779C318.472 171.011 319.042 170.423 319.774 170.015C320.518 169.595 321.37 169.385 322.33 169.385C323.266 169.385 324.094 169.589 324.814 169.997C325.534 170.405 326.086 170.969 326.47 171.689C326.866 172.397 327.064 173.201 327.064 174.101ZM325.372 173.759C325.372 173.135 325.234 172.601 324.958 172.157C324.682 171.701 324.304 171.359 323.824 171.131C323.356 170.891 322.834 170.771 322.258 170.771C321.43 170.771 320.722 171.035 320.134 171.563C319.558 172.091 319.228 172.823 319.144 173.759H325.372ZM336.023 170.897V176.711C336.023 177.191 336.125 177.533 336.329 177.737C336.533 177.929 336.887 178.025 337.391 178.025H338.597V179.411H337.121C336.209 179.411 335.525 179.201 335.069 178.781C334.613 178.361 334.385 177.671 334.385 176.711V170.897H333.107V169.547H334.385V167.063H336.023V169.547H338.597V170.897H336.023ZM344.883 179.573C343.959 179.573 343.119 179.363 342.363 178.943C341.619 178.523 341.031 177.929 340.599 177.161C340.179 176.381 339.969 175.481 339.969 174.461C339.969 173.453 340.185 172.565 340.617 171.797C341.061 171.017 341.661 170.423 342.417 170.015C343.173 169.595 344.019 169.385 344.955 169.385C345.891 169.385 346.737 169.595 347.493 170.015C348.249 170.423 348.843 171.011 349.275 171.779C349.719 172.547 349.941 173.441 349.941 174.461C349.941 175.481 349.713 176.381 349.257 177.161C348.813 177.929 348.207 178.523 347.439 178.943C346.671 179.363 345.819 179.573 344.883 179.573ZM344.883 178.133C345.471 178.133 346.023 177.995 346.539 177.719C347.055 177.443 347.469 177.029 347.781 176.477C348.105 175.925 348.267 175.253 348.267 174.461C348.267 173.669 348.111 172.997 347.799 172.445C347.487 171.893 347.079 171.485 346.575 171.221C346.071 170.945 345.525 170.807 344.937 170.807C344.337 170.807 343.785 170.945 343.281 171.221C342.789 171.485 342.393 171.893 342.093 172.445C341.793 172.997 341.643 173.669 341.643 174.461C341.643 175.265 341.787 175.943 342.075 176.495C342.375 177.047 342.771 177.461 343.263 177.737C343.755 178.001 344.295 178.133 344.883 178.133ZM356.282 174.461C356.282 173.441 356.486 172.553 356.894 171.797C357.302 171.029 357.866 170.435 358.586 170.015C359.318 169.595 360.152 169.385 361.088 169.385C362.3 169.385 363.296 169.679 364.076 170.267C364.868 170.855 365.39 171.671 365.642 172.715H363.878C363.71 172.115 363.38 171.641 362.888 171.293C362.408 170.945 361.808 170.771 361.088 170.771C360.152 170.771 359.396 171.095 358.82 171.743C358.244 172.379 357.956 173.285 357.956 174.461C357.956 175.649 358.244 176.567 358.82 177.215C359.396 177.863 360.152 178.187 361.088 178.187C361.808 178.187 362.408 178.019 362.888 177.683C363.368 177.347 363.698 176.867 363.878 176.243H365.642C365.378 177.251 364.85 178.061 364.058 178.673C363.266 179.273 362.276 179.573 361.088 179.573C360.152 179.573 359.318 179.363 358.586 178.943C357.866 178.523 357.302 177.929 356.894 177.161C356.486 176.393 356.282 175.493 356.282 174.461ZM376.827 174.101C376.827 174.413 376.809 174.743 376.773 175.091H368.889C368.949 176.063 369.279 176.825 369.879 177.377C370.491 177.917 371.229 178.187 372.093 178.187C372.801 178.187 373.389 178.025 373.857 177.701C374.337 177.365 374.673 176.921 374.865 176.369H376.629C376.365 177.317 375.837 178.091 375.045 178.691C374.253 179.279 373.269 179.573 372.093 179.573C371.157 179.573 370.317 179.363 369.573 178.943C368.841 178.523 368.265 177.929 367.845 177.161C367.425 176.381 367.215 175.481 367.215 174.461C367.215 173.441 367.419 172.547 367.827 171.779C368.235 171.011 368.805 170.423 369.537 170.015C370.281 169.595 371.133 169.385 372.093 169.385C373.029 169.385 373.857 169.589 374.577 169.997C375.297 170.405 375.849 170.969 376.233 171.689C376.629 172.397 376.827 173.201 376.827 174.101ZM375.135 173.759C375.135 173.135 374.997 172.601 374.721 172.157C374.445 171.701 374.067 171.359 373.587 171.131C373.119 170.891 372.597 170.771 372.021 170.771C371.193 170.771 370.485 171.035 369.897 171.563C369.321 172.091 368.991 172.823 368.907 173.759H375.135ZM383.796 169.367C384.996 169.367 385.968 169.733 386.712 170.465C387.456 171.185 387.828 172.229 387.828 173.597V179.411H386.208V173.831C386.208 172.847 385.962 172.097 385.47 171.581C384.978 171.053 384.306 170.789 383.454 170.789C382.59 170.789 381.9 171.059 381.384 171.599C380.88 172.139 380.628 172.925 380.628 173.957V179.411H378.99V169.547H380.628V170.951C380.952 170.447 381.39 170.057 381.942 169.781C382.506 169.505 383.124 169.367 383.796 169.367ZM392.501 170.897V176.711C392.501 177.191 392.603 177.533 392.807 177.737C393.011 177.929 393.365 178.025 393.869 178.025H395.075V179.411H393.599C392.687 179.411 392.003 179.201 391.547 178.781C391.091 178.361 390.863 177.671 390.863 176.711V170.897H389.585V169.547H390.863V167.063H392.501V169.547H395.075V170.897H392.501ZM398.698 171.149C398.986 170.585 399.394 170.147 399.922 169.835C400.462 169.523 401.116 169.367 401.884 169.367V171.059H401.452C399.616 171.059 398.698 172.055 398.698 174.047V179.411H397.06V169.547H398.698V171.149ZM403.163 174.443C403.163 173.435 403.367 172.553 403.775 171.797C404.183 171.029 404.741 170.435 405.449 170.015C406.169 169.595 406.967 169.385 407.843 169.385C408.707 169.385 409.457 169.571 410.093 169.943C410.729 170.315 411.203 170.783 411.515 171.347V169.547H413.171V179.411H411.515V177.575C411.191 178.151 410.705 178.631 410.057 179.015C409.421 179.387 408.677 179.573 407.825 179.573C406.949 179.573 406.157 179.357 405.449 178.925C404.741 178.493 404.183 177.887 403.775 177.107C403.367 176.327 403.163 175.439 403.163 174.443ZM411.515 174.461C411.515 173.717 411.365 173.069 411.065 172.517C410.765 171.965 410.357 171.545 409.841 171.257C409.337 170.957 408.779 170.807 408.167 170.807C407.555 170.807 406.997 170.951 406.493 171.239C405.989 171.527 405.587 171.947 405.287 172.499C404.987 173.051 404.837 173.699 404.837 174.443C404.837 175.199 404.987 175.859 405.287 176.423C405.587 176.975 405.989 177.401 406.493 177.701C406.997 177.989 407.555 178.133 408.167 178.133C408.779 178.133 409.337 177.989 409.841 177.701C410.357 177.401 410.765 176.975 411.065 176.423C411.365 175.859 411.515 175.205 411.515 174.461ZM417.577 166.091V179.411H415.939V166.091H417.577ZM421.214 167.945C420.902 167.945 420.638 167.837 420.422 167.621C420.206 167.405 420.098 167.141 420.098 166.829C420.098 166.517 420.206 166.253 420.422 166.037C420.638 165.821 420.902 165.713 421.214 165.713C421.514 165.713 421.766 165.821 421.97 166.037C422.186 166.253 422.294 166.517 422.294 166.829C422.294 167.141 422.186 167.405 421.97 167.621C421.766 167.837 421.514 167.945 421.214 167.945ZM422.006 169.547V179.411H420.368V169.547H422.006ZM426.022 178.061H430.864V179.411H424.15V178.061L428.938 170.879H424.186V169.547H430.828V170.879L426.022 178.061ZM441.99 174.101C441.99 174.413 441.972 174.743 441.936 175.091H434.052C434.112 176.063 434.442 176.825 435.042 177.377C435.654 177.917 436.392 178.187 437.256 178.187C437.964 178.187 438.552 178.025 439.02 177.701C439.5 177.365 439.836 176.921 440.028 176.369H441.792C441.528 177.317 441 178.091 440.208 178.691C439.416 179.279 438.432 179.573 437.256 179.573C436.32 179.573 435.48 179.363 434.736 178.943C434.004 178.523 433.428 177.929 433.008 177.161C432.588 176.381 432.378 175.481 432.378 174.461C432.378 173.441 432.582 172.547 432.99 171.779C433.398 171.011 433.968 170.423 434.7 170.015C435.444 169.595 436.296 169.385 437.256 169.385C438.192 169.385 439.02 169.589 439.74 169.997C440.46 170.405 441.012 170.969 441.396 171.689C441.792 172.397 441.99 173.201 441.99 174.101ZM440.298 173.759C440.298 173.135 440.16 172.601 439.884 172.157C439.608 171.701 439.23 171.359 438.75 171.131C438.282 170.891 437.76 170.771 437.184 170.771C436.356 170.771 435.648 171.035 435.06 171.563C434.484 172.091 434.154 172.823 434.07 173.759H440.298ZM457.446 169.547L451.506 184.055H449.814L451.758 179.303L447.78 169.547H449.598L452.694 177.539L455.754 169.547H457.446ZM463.395 179.573C462.471 179.573 461.631 179.363 460.875 178.943C460.131 178.523 459.543 177.929 459.111 177.161C458.691 176.381 458.481 175.481 458.481 174.461C458.481 173.453 458.697 172.565 459.129 171.797C459.573 171.017 460.173 170.423 460.929 170.015C461.685 169.595 462.531 169.385 463.467 169.385C464.403 169.385 465.249 169.595 466.005 170.015C466.761 170.423 467.355 171.011 467.787 171.779C468.231 172.547 468.453 173.441 468.453 174.461C468.453 175.481 468.225 176.381 467.769 177.161C467.325 177.929 466.719 178.523 465.951 178.943C465.183 179.363 464.331 179.573 463.395 179.573ZM463.395 178.133C463.983 178.133 464.535 177.995 465.051 177.719C465.567 177.443 465.981 177.029 466.293 176.477C466.617 175.925 466.779 175.253 466.779 174.461C466.779 173.669 466.623 172.997 466.311 172.445C465.999 171.893 465.591 171.485 465.087 171.221C464.583 170.945 464.037 170.807 463.449 170.807C462.849 170.807 462.297 170.945 461.793 171.221C461.301 171.485 460.905 171.893 460.605 172.445C460.305 172.997 460.155 173.669 460.155 174.461C460.155 175.265 460.299 175.943 460.587 176.495C460.887 177.047 461.283 177.461 461.775 177.737C462.267 178.001 462.807 178.133 463.395 178.133ZM479.355 169.547V179.411H477.717V177.953C477.405 178.457 476.967 178.853 476.403 179.141C475.851 179.417 475.239 179.555 474.567 179.555C473.799 179.555 473.109 179.399 472.497 179.087C471.885 178.763 471.399 178.283 471.039 177.647C470.691 177.011 470.517 176.237 470.517 175.325V169.547H472.137V175.109C472.137 176.081 472.383 176.831 472.875 177.359C473.367 177.875 474.039 178.133 474.891 178.133C475.767 178.133 476.457 177.863 476.961 177.323C477.465 176.783 477.717 175.997 477.717 174.965V169.547H479.355ZM483.758 171.149C484.046 170.585 484.454 170.147 484.982 169.835C485.522 169.523 486.176 169.367 486.944 169.367V171.059H486.512C484.676 171.059 483.758 172.055 483.758 174.047V179.411H482.12V169.547H483.758V171.149ZM46.526 196.547L43.448 206.411H41.756L39.38 198.581L37.004 206.411H35.312L32.216 196.547H33.89L36.158 204.827L38.606 196.547H40.28L42.674 204.845L44.906 196.547H46.526ZM52.4536 206.573C51.5296 206.573 50.6896 206.363 49.9336 205.943C49.1896 205.523 48.6016 204.929 48.1696 204.161C47.7496 203.381 47.5396 202.481 47.5396 201.461C47.5396 200.453 47.7556 199.565 48.1876 198.797C48.6316 198.017 49.2316 197.423 49.9876 197.015C50.7436 196.595 51.5896 196.385 52.5256 196.385C53.4616 196.385 54.3076 196.595 55.0636 197.015C55.8196 197.423 56.4136 198.011 56.8456 198.779C57.2896 199.547 57.5116 200.441 57.5116 201.461C57.5116 202.481 57.2836 203.381 56.8276 204.161C56.3836 204.929 55.7776 205.523 55.0096 205.943C54.2416 206.363 53.3896 206.573 52.4536 206.573ZM52.4536 205.133C53.0416 205.133 53.5936 204.995 54.1096 204.719C54.6256 204.443 55.0396 204.029 55.3516 203.477C55.6756 202.925 55.8376 202.253 55.8376 201.461C55.8376 200.669 55.6816 199.997 55.3696 199.445C55.0576 198.893 54.6496 198.485 54.1456 198.221C53.6416 197.945 53.0956 197.807 52.5076 197.807C51.9076 197.807 51.3556 197.945 50.8516 198.221C50.3596 198.485 49.9636 198.893 49.6636 199.445C49.3636 199.997 49.2136 200.669 49.2136 201.461C49.2136 202.265 49.3576 202.943 49.6456 203.495C49.9456 204.047 50.3416 204.461 50.8336 204.737C51.3256 205.001 51.8656 205.133 52.4536 205.133ZM61.3033 198.149C61.5913 197.585 61.9993 197.147 62.5273 196.835C63.0673 196.523 63.7213 196.367 64.4893 196.367V198.059H64.0573C62.2213 198.059 61.3033 199.055 61.3033 201.047V206.411H59.6653V196.547H61.3033V198.149ZM71.8881 206.411L68.0181 202.055V206.411H66.3801V193.091H68.0181V200.921L71.8161 196.547H74.1021L69.4581 201.461L74.1201 206.411H71.8881ZM79.6578 197.897H77.5878V206.411H75.9498V197.897H74.6718V196.547H75.9498V195.845C75.9498 194.741 76.2318 193.937 76.7958 193.433C77.3718 192.917 78.2898 192.659 79.5498 192.659V194.027C78.8298 194.027 78.3198 194.171 78.0198 194.459C77.7318 194.735 77.5878 195.197 77.5878 195.845V196.547H79.6578V197.897ZM83.2056 193.091V206.411H81.5676V193.091H83.2056ZM90.2993 206.573C89.3753 206.573 88.5353 206.363 87.7793 205.943C87.0353 205.523 86.4473 204.929 86.0153 204.161C85.5953 203.381 85.3853 202.481 85.3853 201.461C85.3853 200.453 85.6013 199.565 86.0333 198.797C86.4773 198.017 87.0773 197.423 87.8333 197.015C88.5893 196.595 89.4353 196.385 90.3713 196.385C91.3073 196.385 92.1533 196.595 92.9093 197.015C93.6653 197.423 94.2593 198.011 94.6913 198.779C95.1353 199.547 95.3573 200.441 95.3573 201.461C95.3573 202.481 95.1293 203.381 94.6733 204.161C94.2293 204.929 93.6233 205.523 92.8553 205.943C92.0873 206.363 91.2353 206.573 90.2993 206.573ZM90.2993 205.133C90.8873 205.133 91.4393 204.995 91.9553 204.719C92.4713 204.443 92.8853 204.029 93.1973 203.477C93.5213 202.925 93.6833 202.253 93.6833 201.461C93.6833 200.669 93.5273 199.997 93.2153 199.445C92.9033 198.893 92.4953 198.485 91.9913 198.221C91.4873 197.945 90.9413 197.807 90.3533 197.807C89.7533 197.807 89.2013 197.945 88.6973 198.221C88.2053 198.485 87.8093 198.893 87.5093 199.445C87.2093 199.997 87.0593 200.669 87.0593 201.461C87.0593 202.265 87.2033 202.943 87.4913 203.495C87.7913 204.047 88.1873 204.461 88.6793 204.737C89.1713 205.001 89.7113 205.133 90.2993 205.133ZM110.651 196.547L107.573 206.411H105.881L103.505 198.581L101.129 206.411H99.437L96.341 196.547H98.015L100.283 204.827L102.731 196.547H104.405L106.799 204.845L109.031 196.547H110.651ZM130.215 196.547L127.137 206.411H125.445L123.069 198.581L120.693 206.411H119.001L115.905 196.547H117.579L119.847 204.827L122.295 196.547H123.969L126.363 204.845L128.595 196.547H130.215ZM132.687 194.945C132.375 194.945 132.111 194.837 131.895 194.621C131.679 194.405 131.571 194.141 131.571 193.829C131.571 193.517 131.679 193.253 131.895 193.037C132.111 192.821 132.375 192.713 132.687 192.713C132.987 192.713 133.239 192.821 133.443 193.037C133.659 193.253 133.767 193.517 133.767 193.829C133.767 194.141 133.659 194.405 133.443 194.621C133.239 194.837 132.987 194.945 132.687 194.945ZM133.479 196.547V206.411H131.841V196.547H133.479ZM138.269 197.897V203.711C138.269 204.191 138.371 204.533 138.575 204.737C138.779 204.929 139.133 205.025 139.637 205.025H140.843V206.411H139.367C138.455 206.411 137.771 206.201 137.315 205.781C136.859 205.361 136.631 204.671 136.631 203.711V197.897H135.353V196.547H136.631V194.063H138.269V196.547H140.843V197.897H138.269ZM147.723 196.367C148.467 196.367 149.139 196.529 149.739 196.853C150.339 197.165 150.807 197.639 151.143 198.275C151.491 198.911 151.665 199.685 151.665 200.597V206.411H150.045V200.831C150.045 199.847 149.799 199.097 149.307 198.581C148.815 198.053 148.143 197.789 147.291 197.789C146.427 197.789 145.737 198.059 145.221 198.599C144.717 199.139 144.465 199.925 144.465 200.957V206.411H142.827V193.091H144.465V197.951C144.789 197.447 145.233 197.057 145.797 196.781C146.373 196.505 147.015 196.367 147.723 196.367ZM158.643 206.573C157.719 206.573 156.879 206.363 156.123 205.943C155.379 205.523 154.791 204.929 154.359 204.161C153.939 203.381 153.729 202.481 153.729 201.461C153.729 200.453 153.945 199.565 154.377 198.797C154.821 198.017 155.421 197.423 156.177 197.015C156.933 196.595 157.779 196.385 158.715 196.385C159.651 196.385 160.497 196.595 161.253 197.015C162.009 197.423 162.603 198.011 163.035 198.779C163.479 199.547 163.701 200.441 163.701 201.461C163.701 202.481 163.473 203.381 163.017 204.161C162.573 204.929 161.967 205.523 161.199 205.943C160.431 206.363 159.579 206.573 158.643 206.573ZM158.643 205.133C159.231 205.133 159.783 204.995 160.299 204.719C160.815 204.443 161.229 204.029 161.541 203.477C161.865 202.925 162.027 202.253 162.027 201.461C162.027 200.669 161.871 199.997 161.559 199.445C161.247 198.893 160.839 198.485 160.335 198.221C159.831 197.945 159.285 197.807 158.697 197.807C158.097 197.807 157.545 197.945 157.041 198.221C156.549 198.485 156.153 198.893 155.853 199.445C155.553 199.997 155.403 200.669 155.403 201.461C155.403 202.265 155.547 202.943 155.835 203.495C156.135 204.047 156.531 204.461 157.023 204.737C157.515 205.001 158.055 205.133 158.643 205.133ZM174.603 196.547V206.411H172.965V204.953C172.653 205.457 172.215 205.853 171.651 206.141C171.099 206.417 170.487 206.555 169.815 206.555C169.047 206.555 168.357 206.399 167.745 206.087C167.133 205.763 166.647 205.283 166.287 204.647C165.939 204.011 165.765 203.237 165.765 202.325V196.547H167.385V202.109C167.385 203.081 167.631 203.831 168.123 204.359C168.615 204.875 169.287 205.133 170.139 205.133C171.015 205.133 171.705 204.863 172.209 204.323C172.713 203.783 172.965 202.997 172.965 201.965V196.547H174.603ZM179.366 197.897V203.711C179.366 204.191 179.468 204.533 179.672 204.737C179.876 204.929 180.23 205.025 180.734 205.025H181.94V206.411H180.464C179.552 206.411 178.868 206.201 178.412 205.781C177.956 205.361 177.728 204.671 177.728 203.711V197.897H176.45V196.547H177.728V194.063H179.366V196.547H181.94V197.897H179.366ZM188.112 201.443C188.112 200.435 188.316 199.553 188.724 198.797C189.132 198.029 189.69 197.435 190.398 197.015C191.118 196.595 191.922 196.385 192.81 196.385C193.578 196.385 194.292 196.565 194.952 196.925C195.612 197.273 196.116 197.735 196.464 198.311V193.091H198.12V206.411H196.464V204.557C196.14 205.145 195.66 205.631 195.024 206.015C194.388 206.387 193.644 206.573 192.792 206.573C191.916 206.573 191.118 206.357 190.398 205.925C189.69 205.493 189.132 204.887 188.724 204.107C188.316 203.327 188.112 202.439 188.112 201.443ZM196.464 201.461C196.464 200.717 196.314 200.069 196.014 199.517C195.714 198.965 195.306 198.545 194.79 198.257C194.286 197.957 193.728 197.807 193.116 197.807C192.504 197.807 191.946 197.951 191.442 198.239C190.938 198.527 190.536 198.947 190.236 199.499C189.936 200.051 189.786 200.699 189.786 201.443C189.786 202.199 189.936 202.859 190.236 203.423C190.536 203.975 190.938 204.401 191.442 204.701C191.946 204.989 192.504 205.133 193.116 205.133C193.728 205.133 194.286 204.989 194.79 204.701C195.306 204.401 195.714 203.975 196.014 203.423C196.314 202.859 196.464 202.205 196.464 201.461ZM201.734 194.945C201.422 194.945 201.158 194.837 200.942 194.621C200.726 194.405 200.618 194.141 200.618 193.829C200.618 193.517 200.726 193.253 200.942 193.037C201.158 192.821 201.422 192.713 201.734 192.713C202.034 192.713 202.286 192.821 202.49 193.037C202.706 193.253 202.814 193.517 202.814 193.829C202.814 194.141 202.706 194.405 202.49 194.621C202.286 194.837 202.034 194.945 201.734 194.945ZM202.526 196.547V206.411H200.888V196.547H202.526ZM208.81 206.573C208.054 206.573 207.376 206.447 206.776 206.195C206.176 205.931 205.702 205.571 205.354 205.115C205.006 204.647 204.814 204.113 204.778 203.513H206.47C206.518 204.005 206.746 204.407 207.154 204.719C207.574 205.031 208.12 205.187 208.792 205.187C209.416 205.187 209.908 205.049 210.268 204.773C210.628 204.497 210.808 204.149 210.808 203.729C210.808 203.297 210.616 202.979 210.232 202.775C209.848 202.559 209.254 202.349 208.45 202.145C207.718 201.953 207.118 201.761 206.65 201.569C206.194 201.365 205.798 201.071 205.462 200.687C205.138 200.291 204.976 199.775 204.976 199.139C204.976 198.635 205.126 198.173 205.426 197.753C205.726 197.333 206.152 197.003 206.704 196.763C207.256 196.511 207.886 196.385 208.594 196.385C209.686 196.385 210.568 196.661 211.24 197.213C211.912 197.765 212.272 198.521 212.32 199.481H210.682C210.646 198.965 210.436 198.551 210.052 198.239C209.68 197.927 209.176 197.771 208.54 197.771C207.952 197.771 207.484 197.897 207.136 198.149C206.788 198.401 206.614 198.731 206.614 199.139C206.614 199.463 206.716 199.733 206.92 199.949C207.136 200.153 207.4 200.321 207.712 200.453C208.036 200.573 208.48 200.711 209.044 200.867C209.752 201.059 210.328 201.251 210.772 201.443C211.216 201.623 211.594 201.899 211.906 202.271C212.23 202.643 212.398 203.129 212.41 203.729C212.41 204.269 212.26 204.755 211.96 205.187C211.66 205.619 211.234 205.961 210.682 206.213C210.142 206.453 209.518 206.573 208.81 206.573ZM216.72 197.897V203.711C216.72 204.191 216.822 204.533 217.026 204.737C217.23 204.929 217.584 205.025 218.088 205.025H219.294V206.411H217.818C216.906 206.411 216.222 206.201 215.766 205.781C215.31 205.361 215.082 204.671 215.082 203.711V197.897H213.804V196.547H215.082V194.063H216.72V196.547H219.294V197.897H216.72ZM222.917 198.149C223.205 197.585 223.613 197.147 224.141 196.835C224.681 196.523 225.335 196.367 226.103 196.367V198.059H225.671C223.835 198.059 222.917 199.055 222.917 201.047V206.411H221.279V196.547H222.917V198.149ZM227.381 201.443C227.381 200.435 227.585 199.553 227.993 198.797C228.401 198.029 228.959 197.435 229.667 197.015C230.387 196.595 231.185 196.385 232.061 196.385C232.925 196.385 233.675 196.571 234.311 196.943C234.947 197.315 235.421 197.783 235.733 198.347V196.547H237.389V206.411H235.733V204.575C235.409 205.151 234.923 205.631 234.275 206.015C233.639 206.387 232.895 206.573 232.043 206.573C231.167 206.573 230.375 206.357 229.667 205.925C228.959 205.493 228.401 204.887 227.993 204.107C227.585 203.327 227.381 202.439 227.381 201.443ZM235.733 201.461C235.733 200.717 235.583 200.069 235.283 199.517C234.983 198.965 234.575 198.545 234.059 198.257C233.555 197.957 232.997 197.807 232.385 197.807C231.773 197.807 231.215 197.951 230.711 198.239C230.207 198.527 229.805 198.947 229.505 199.499C229.205 200.051 229.055 200.699 229.055 201.443C229.055 202.199 229.205 202.859 229.505 203.423C229.805 203.975 230.207 204.401 230.711 204.701C231.215 204.989 231.773 205.133 232.385 205.133C232.997 205.133 233.555 204.989 234.059 204.701C234.575 204.401 234.983 203.975 235.283 203.423C235.583 202.859 235.733 202.205 235.733 201.461ZM239.545 201.461C239.545 200.441 239.749 199.553 240.157 198.797C240.565 198.029 241.129 197.435 241.849 197.015C242.581 196.595 243.415 196.385 244.351 196.385C245.563 196.385 246.559 196.679 247.339 197.267C248.131 197.855 248.653 198.671 248.905 199.715H247.141C246.973 199.115 246.643 198.641 246.151 198.293C245.671 197.945 245.071 197.771 244.351 197.771C243.415 197.771 242.659 198.095 242.083 198.743C241.507 199.379 241.219 200.285 241.219 201.461C241.219 202.649 241.507 203.567 242.083 204.215C242.659 204.863 243.415 205.187 244.351 205.187C245.071 205.187 245.671 205.019 246.151 204.683C246.631 204.347 246.961 203.867 247.141 203.243H248.905C248.641 204.251 248.113 205.061 247.321 205.673C246.529 206.273 245.539 206.573 244.351 206.573C243.415 206.573 242.581 206.363 241.849 205.943C241.129 205.523 240.565 204.929 240.157 204.161C239.749 203.393 239.545 202.493 239.545 201.461ZM253.089 197.897V203.711C253.089 204.191 253.191 204.533 253.395 204.737C253.599 204.929 253.953 205.025 254.457 205.025H255.663V206.411H254.187C253.275 206.411 252.591 206.201 252.135 205.781C251.679 205.361 251.451 204.671 251.451 203.711V197.897H250.173V196.547H251.451V194.063H253.089V196.547H255.663V197.897H253.089ZM258.494 194.945C258.182 194.945 257.918 194.837 257.702 194.621C257.486 194.405 257.378 194.141 257.378 193.829C257.378 193.517 257.486 193.253 257.702 193.037C257.918 192.821 258.182 192.713 258.494 192.713C258.794 192.713 259.046 192.821 259.25 193.037C259.466 193.253 259.574 193.517 259.574 193.829C259.574 194.141 259.466 194.405 259.25 194.621C259.046 194.837 258.794 194.945 258.494 194.945ZM259.286 196.547V206.411H257.648V196.547H259.286ZM266.379 206.573C265.455 206.573 264.615 206.363 263.859 205.943C263.115 205.523 262.527 204.929 262.095 204.161C261.675 203.381 261.465 202.481 261.465 201.461C261.465 200.453 261.681 199.565 262.113 198.797C262.557 198.017 263.157 197.423 263.913 197.015C264.669 196.595 265.515 196.385 266.451 196.385C267.387 196.385 268.233 196.595 268.989 197.015C269.745 197.423 270.339 198.011 270.771 198.779C271.215 199.547 271.437 200.441 271.437 201.461C271.437 202.481 271.209 203.381 270.753 204.161C270.309 204.929 269.703 205.523 268.935 205.943C268.167 206.363 267.315 206.573 266.379 206.573ZM266.379 205.133C266.967 205.133 267.519 204.995 268.035 204.719C268.551 204.443 268.965 204.029 269.277 203.477C269.601 202.925 269.763 202.253 269.763 201.461C269.763 200.669 269.607 199.997 269.295 199.445C268.983 198.893 268.575 198.485 268.071 198.221C267.567 197.945 267.021 197.807 266.433 197.807C265.833 197.807 265.281 197.945 264.777 198.221C264.285 198.485 263.889 198.893 263.589 199.445C263.289 199.997 263.139 200.669 263.139 201.461C263.139 202.265 263.283 202.943 263.571 203.495C263.871 204.047 264.267 204.461 264.759 204.737C265.251 205.001 265.791 205.133 266.379 205.133ZM278.397 196.367C279.597 196.367 280.569 196.733 281.313 197.465C282.057 198.185 282.429 199.229 282.429 200.597V206.411H280.809V200.831C280.809 199.847 280.563 199.097 280.071 198.581C279.579 198.053 278.907 197.789 278.055 197.789C277.191 197.789 276.501 198.059 275.985 198.599C275.481 199.139 275.229 199.925 275.229 200.957V206.411H273.591V196.547H275.229V197.951C275.553 197.447 275.991 197.057 276.543 196.781C277.107 196.505 277.725 196.367 278.397 196.367ZM288.597 206.573C287.841 206.573 287.163 206.447 286.563 206.195C285.963 205.931 285.489 205.571 285.141 205.115C284.793 204.647 284.601 204.113 284.565 203.513H286.257C286.305 204.005 286.533 204.407 286.941 204.719C287.361 205.031 287.907 205.187 288.579 205.187C289.203 205.187 289.695 205.049 290.055 204.773C290.415 204.497 290.595 204.149 290.595 203.729C290.595 203.297 290.403 202.979 290.019 202.775C289.635 202.559 289.041 202.349 288.237 202.145C287.505 201.953 286.905 201.761 286.437 201.569C285.981 201.365 285.585 201.071 285.249 200.687C284.925 200.291 284.763 199.775 284.763 199.139C284.763 198.635 284.913 198.173 285.213 197.753C285.513 197.333 285.939 197.003 286.491 196.763C287.043 196.511 287.673 196.385 288.381 196.385C289.473 196.385 290.355 196.661 291.027 197.213C291.699 197.765 292.059 198.521 292.107 199.481H290.469C290.433 198.965 290.223 198.551 289.839 198.239C289.467 197.927 288.963 197.771 288.327 197.771C287.739 197.771 287.271 197.897 286.923 198.149C286.575 198.401 286.401 198.731 286.401 199.139C286.401 199.463 286.503 199.733 286.707 199.949C286.923 200.153 287.187 200.321 287.499 200.453C287.823 200.573 288.267 200.711 288.831 200.867C289.539 201.059 290.115 201.251 290.559 201.443C291.003 201.623 291.381 201.899 291.693 202.271C292.017 202.643 292.185 203.129 292.197 203.729C292.197 204.269 292.047 204.755 291.747 205.187C291.447 205.619 291.021 205.961 290.469 206.213C289.929 206.453 289.305 206.573 288.597 206.573Z" fill="#495057"/>
<path opacity="0.3" fill-rule="evenodd" clip-rule="evenodd" d="M568.002 181.215C568.002 193.957 576.769 206.178 592.376 215.188C624.853 233.939 677.586 233.939 710.063 215.188C725.67 206.178 734.437 193.957 734.437 181.215H692.829C692.829 187.586 688.445 193.696 680.642 198.202C664.403 207.577 638.036 207.577 621.797 198.202C613.994 193.696 609.611 187.586 609.611 181.215H568.002Z" fill="#262725"/>
<path fill-rule="evenodd" clip-rule="evenodd" d="M592.147 100.643V166.13L631.464 173.993C633.525 170.559 636.908 167.439 641.36 164.868C651.098 159.246 665.022 156.77 678.551 158.255L686.321 134.655V69.1674C659.263 66.1979 631.413 71.1504 611.938 82.3944C603.035 87.5348 596.268 93.7742 592.147 100.643Z" fill="white"/>
<path fill-rule="evenodd" clip-rule="evenodd" d="M592.147 100.643V166.13L631.464 173.993C633.525 170.559 636.908 167.439 641.36 164.868C651.098 159.246 665.022 156.77 678.551 158.255L686.321 134.655V69.1674C659.263 66.1979 631.413 71.1504 611.938 82.3944C603.035 87.5348 596.268 93.7742 592.147 100.643Z" stroke="#262725" stroke-width="2" stroke-linecap="round" stroke-linejoin="round"/>
<path fill-rule="evenodd" clip-rule="evenodd" d="M686.321 69.1674C659.263 66.1979 631.413 71.1504 611.938 82.3944C603.035 87.5348 596.268 93.7742 592.147 100.643L631.464 108.505C633.525 105.071 636.908 101.951 641.36 99.3814C651.098 93.7594 665.022 91.2829 678.551 92.7678L686.321 69.1674Z" fill="white"/>
<path fill-rule="evenodd" clip-rule="evenodd" d="M686.321 69.1674C659.263 66.1979 631.413 71.1504 611.938 82.3944C603.035 87.5348 596.268 93.7742 592.147 100.643L631.464 108.505C633.525 105.071 636.908 101.951 641.36 99.3814C651.098 93.7594 665.022 91.2829 678.551 92.7678L686.321 69.1674Z" stroke="#262725" stroke-width="2" stroke-linecap="round" stroke-linejoin="round"/>
<path fill-rule="evenodd" clip-rule="evenodd" d="M592.147 166.13V100.642L631.464 108.505V173.992L592.147 166.13Z" fill="#039600"/>
<path fill-rule="evenodd" clip-rule="evenodd" d="M592.147 166.13V100.642L631.464 108.505V173.992L592.147 166.13Z" stroke="#262725" stroke-width="2" stroke-linecap="round" stroke-linejoin="round"/>
<path fill-rule="evenodd" clip-rule="evenodd" d="M686.325 134.654V69.167L678.555 92.7675V158.254L686.325 134.654Z" fill="white"/>
<path fill-rule="evenodd" clip-rule="evenodd" d="M686.325 134.654V69.167L678.555 92.7675V158.254L686.325 134.654Z" stroke="#262725" stroke-width="2" stroke-linecap="round" stroke-linejoin="round"/>
<path fill-rule="evenodd" clip-rule="evenodd" d="M750.584 127.329C746.647 119.643 739.442 112.649 729.627 106.982C719.811 101.315 707.697 97.1556 694.385 94.8827L670.783 140.956L750.584 127.329Z" fill="white"/>
<path fill-rule="evenodd" clip-rule="evenodd" d="M750.584 127.329C746.647 119.643 739.442 112.649 729.627 106.982C719.811 101.315 707.697 97.1556 694.385 94.8827L670.783 140.956L750.584 127.329Z" stroke="#262725" stroke-width="2" stroke-linecap="round" stroke-linejoin="round"/>
<path fill-rule="evenodd" clip-rule="evenodd" d="M750.583 168.582V127.329L670.771 140.962L670.782 182.209L750.583 168.582Z" fill="#00D42F"/>
<path fill-rule="evenodd" clip-rule="evenodd" d="M750.583 168.582V127.329L670.771 140.962L670.782 182.209L750.583 168.582Z" stroke="#262725" stroke-width="2" stroke-linecap="round" stroke-linejoin="round"/>
<path fill-rule="evenodd" clip-rule="evenodd" d="M587.564 156.563C587.564 169.306 596.332 181.527 611.939 190.537C644.415 209.287 697.149 209.287 729.626 190.537C745.233 181.527 754 169.306 754 156.563H712.391C712.391 162.935 708.007 169.045 700.204 173.55C683.966 182.926 657.599 182.926 641.36 173.55C633.557 169.045 629.174 162.935 629.174 156.563H587.564Z" fill="white"/>
<path fill-rule="evenodd" clip-rule="evenodd" d="M587.564 156.563C587.564 169.306 596.332 181.527 611.939 190.537C644.415 209.287 697.149 209.287 729.626 190.537C745.233 181.527 754 169.306 754 156.563H712.391C712.391 162.935 708.007 169.045 700.204 173.55C683.966 182.926 657.599 182.926 641.36 173.55C633.557 169.045 629.174 162.935 629.174 156.563H587.564Z" stroke="#262725" stroke-width="2" stroke-linecap="round" stroke-linejoin="round"/>
<path opacity="0.3" fill-rule="evenodd" clip-rule="evenodd" d="M604.822 161.657L591.873 169.133L604.822 176.608L609.909 176.328C609.909 176.328 612.688 171.629 617.771 169.133L604.822 161.657Z" fill="#262725"/>
<path opacity="0.3" fill-rule="evenodd" clip-rule="evenodd" d="M622.612 176.6L609.663 184.076L622.612 191.552L627.699 191.271C627.699 191.271 630.478 186.572 635.561 184.076L622.612 176.6Z" fill="#262725"/>
<path opacity="0.3" fill-rule="evenodd" clip-rule="evenodd" d="M647.341 183.732L634.392 191.208L647.341 198.684L652.428 198.403C652.428 198.403 655.208 193.705 660.29 191.208L647.341 183.732Z" fill="#262725"/>
<path fill-rule="evenodd" clip-rule="evenodd" d="M753.983 181.156H753.952C754.555 193.894 746.445 206.744 729.622 216.456C697.141 235.209 644.401 235.209 611.919 216.456C595.098 206.744 586.988 193.894 587.59 181.156H587.559V156.547C587.559 168.848 595.679 181.149 611.919 190.525C644.401 209.278 697.141 209.278 729.622 190.525C745.863 181.149 753.983 168.848 753.983 156.547V181.156Z" fill="#8FFC22"/>
<path fill-rule="evenodd" clip-rule="evenodd" d="M753.983 181.156H753.952C754.555 193.894 746.445 206.744 729.622 216.456C697.141 235.209 644.401 235.209 611.919 216.456C595.098 206.744 586.988 193.894 587.59 181.156H587.559V156.547C587.559 168.848 595.679 181.149 611.919 190.525C644.401 209.278 697.141 209.278 729.622 190.525C745.863 181.149 753.983 168.848 753.983 156.547V181.156Z" stroke="#262725" stroke-width="2" stroke-linecap="round" stroke-linejoin="round"/>
<path fill-rule="evenodd" clip-rule="evenodd" d="M609.907 145.711L596.958 153.186V168.851L609.907 176.327L622.855 168.851V153.186L609.907 145.711Z" fill="#039600"/>
<path fill-rule="evenodd" clip-rule="evenodd" d="M609.907 145.711L596.958 153.186V168.851L609.907 176.327L622.855 168.851V153.186L609.907 145.711Z" stroke="#262725" stroke-width="2" stroke-linecap="round" stroke-linejoin="round"/>
<path fill-rule="evenodd" clip-rule="evenodd" d="M622.857 153.186L609.908 160.662V176.326L622.857 168.851V153.186Z" fill="white"/>
<path fill-rule="evenodd" clip-rule="evenodd" d="M622.857 153.186L609.908 160.662V176.326L622.857 168.851V153.186Z" stroke="#262725" stroke-width="2" stroke-linecap="round" stroke-linejoin="round"/>
<path fill-rule="evenodd" clip-rule="evenodd" d="M609.907 145.711L596.958 153.186L609.907 160.662L622.855 153.186L609.907 145.711Z" fill="white"/>
<path fill-rule="evenodd" clip-rule="evenodd" d="M609.907 145.711L596.958 153.186L609.907 160.662L622.855 153.186L609.907 145.711Z" stroke="#262725" stroke-width="2" stroke-linecap="round" stroke-linejoin="round"/>
<path fill-rule="evenodd" clip-rule="evenodd" d="M627.767 145.992L614.818 153.468V183.874L627.767 191.35L640.715 183.874V153.468L627.767 145.992Z" fill="#00D52F"/>
<path fill-rule="evenodd" clip-rule="evenodd" d="M627.767 145.992L614.818 153.468V183.874L627.767 191.35L640.715 183.874V153.468L627.767 145.992Z" stroke="#262725" stroke-width="2" stroke-linecap="round" stroke-linejoin="round"/>
<path fill-rule="evenodd" clip-rule="evenodd" d="M640.717 153.467L627.768 160.943V191.35L640.717 183.874V153.467Z" fill="white"/>
<path fill-rule="evenodd" clip-rule="evenodd" d="M640.717 153.467L627.768 160.943V191.35L640.717 183.874V153.467Z" stroke="#262725" stroke-width="2" stroke-linecap="round" stroke-linejoin="round"/>
<path fill-rule="evenodd" clip-rule="evenodd" d="M627.767 145.992L614.818 153.468L627.767 160.944L640.715 153.468L627.767 145.992Z" fill="white"/>
<path fill-rule="evenodd" clip-rule="evenodd" d="M627.767 145.992L614.818 153.468L627.767 160.944L640.715 153.468L627.767 145.992Z" stroke="#262725" stroke-width="2" stroke-linecap="round" stroke-linejoin="round"/>
<path fill-rule="evenodd" clip-rule="evenodd" d="M652.332 131.81L639.384 139.286V190.956L652.332 198.431L665.281 190.956V139.286L652.332 131.81Z" fill="#8FFC22"/>
<path fill-rule="evenodd" clip-rule="evenodd" d="M652.332 131.81L639.384 139.286V190.956L652.332 198.431L665.281 190.956V139.286L652.332 131.81Z" stroke="#262725" stroke-width="2" stroke-linecap="round" stroke-linejoin="round"/>
<path fill-rule="evenodd" clip-rule="evenodd" d="M665.277 139.286L652.328 146.762V198.432L665.277 190.956V139.286Z" fill="white"/>
<path fill-rule="evenodd" clip-rule="evenodd" d="M665.277 139.286L652.328 146.762V198.432L665.277 190.956V139.286Z" stroke="#262725" stroke-width="2" stroke-linecap="round" stroke-linejoin="round"/>
<path fill-rule="evenodd" clip-rule="evenodd" d="M652.332 131.81L639.384 139.286L652.332 146.762L665.281 139.286L652.332 131.81Z" fill="white"/>
<path fill-rule="evenodd" clip-rule="evenodd" d="M652.332 131.81L639.384 139.286L652.332 146.762L665.281 139.286L652.332 131.81Z" stroke="#262725" stroke-width="2" stroke-linecap="round" stroke-linejoin="round"/>
<path fill-rule="evenodd" clip-rule="evenodd" d="M654.618 75.6336C659.116 73.0367 666.421 73.0367 670.919 75.6336C675.418 78.231 675.418 82.4483 670.919 85.0457C666.421 87.6426 659.116 87.6426 654.618 85.0457C650.119 82.4483 650.119 78.231 654.618 75.6336Z" fill="#262725"/>
<path fill-rule="evenodd" clip-rule="evenodd" d="M662.764 32.3011C671.761 32.3011 679.066 39.6057 679.066 48.6026C679.066 57.5998 671.761 64.9044 662.764 64.9044C653.767 64.9044 646.462 57.5998 646.462 48.6026C646.462 39.6057 653.767 32.3011 662.764 32.3011Z" fill="#8FFC22"/>
<path fill-rule="evenodd" clip-rule="evenodd" d="M662.764 32.3011C671.761 32.3011 679.066 39.6057 679.066 48.6026C679.066 57.5998 671.761 64.9044 662.764 64.9044C653.767 64.9044 646.462 57.5998 646.462 48.6026C646.462 39.6057 653.767 32.3011 662.764 32.3011Z" stroke="#262725" stroke-width="2" stroke-linecap="round" stroke-linejoin="round"/>
</svg>
