<svg width="339" height="500" viewBox="0 0 339 500" fill="none" xmlns="http://www.w3.org/2000/svg">
<rect x="1" y="0.5" width="337" height="499" rx="7.5" fill="white"/>
<rect x="1" y="0.5" width="337" height="499" rx="7.5" stroke="#556AEB"/>
<rect x="32.5" y="32" width="48" height="48" rx="8" fill="#212529"/>
<path d="M52.7131 62V60.7273L56.6506 56.6477C57.071 56.2045 57.4176 55.8163 57.6903 55.483C57.9669 55.1458 58.1733 54.8258 58.3097 54.5227C58.446 54.2197 58.5142 53.8977 58.5142 53.5568C58.5142 53.1705 58.4233 52.8371 58.2415 52.5568C58.0597 52.2727 57.8116 52.0549 57.4972 51.9034C57.1828 51.7481 56.8286 51.6705 56.4347 51.6705C56.018 51.6705 55.6544 51.7557 55.3438 51.9261C55.0331 52.0966 54.7945 52.3371 54.6278 52.6477C54.4612 52.9583 54.3778 53.322 54.3778 53.7386H52.7017C52.7017 53.0303 52.8646 52.411 53.1903 51.8807C53.5161 51.3504 53.9631 50.9394 54.5312 50.6477C55.0994 50.3523 55.7453 50.2045 56.4688 50.2045C57.1998 50.2045 57.8438 50.3504 58.4006 50.642C58.9612 50.9299 59.3987 51.3239 59.7131 51.8239C60.0275 52.3201 60.1847 52.8807 60.1847 53.5057C60.1847 53.9375 60.1032 54.3598 59.9403 54.7727C59.7813 55.1856 59.5028 55.6458 59.1051 56.1534C58.7074 56.6572 58.1544 57.2689 57.446 57.9886L55.1335 60.4091V60.4943H60.3722V62H52.7131Z" fill="white"/>
<path d="M45.46 104.04V118H42.66V112.06H36.68V118H33.88V104.04H36.68V109.78H42.66V104.04H45.46ZM58.6759 106.92V118H55.8559V116.6C55.4959 117.08 55.0226 117.46 54.4359 117.74C53.8626 118.007 53.2359 118.14 52.5559 118.14C51.6893 118.14 50.9226 117.96 50.2559 117.6C49.5893 117.227 49.0626 116.687 48.6759 115.98C48.3026 115.26 48.1159 114.407 48.1159 113.42V106.92H50.9159V113.02C50.9159 113.9 51.1359 114.58 51.5759 115.06C52.0159 115.527 52.6159 115.76 53.3759 115.76C54.1493 115.76 54.7559 115.527 55.1959 115.06C55.6359 114.58 55.8559 113.9 55.8559 113.02V106.92H58.6759ZM64.2386 108.54C64.5986 108.007 65.0919 107.573 65.7186 107.24C66.3586 106.907 67.0853 106.74 67.8986 106.74C68.8453 106.74 69.6986 106.973 70.4586 107.44C71.2319 107.907 71.8386 108.573 72.2786 109.44C72.7319 110.293 72.9586 111.287 72.9586 112.42C72.9586 113.553 72.7319 114.56 72.2786 115.44C71.8386 116.307 71.2319 116.98 70.4586 117.46C69.6986 117.94 68.8453 118.18 67.8986 118.18C67.0719 118.18 66.3453 118.02 65.7186 117.7C65.1053 117.367 64.6119 116.94 64.2386 116.42V118H61.4386V103.2H64.2386V108.54ZM70.0986 112.42C70.0986 111.753 69.9586 111.18 69.6786 110.7C69.4119 110.207 69.0519 109.833 68.5986 109.58C68.1586 109.327 67.6786 109.2 67.1586 109.2C66.6519 109.2 66.1719 109.333 65.7186 109.6C65.2786 109.853 64.9186 110.227 64.6386 110.72C64.3719 111.213 64.2386 111.793 64.2386 112.46C64.2386 113.127 64.3719 113.707 64.6386 114.2C64.9186 114.693 65.2786 115.073 65.7186 115.34C66.1719 115.593 66.6519 115.72 67.1586 115.72C67.6786 115.72 68.1586 115.587 68.5986 115.32C69.0519 115.053 69.4119 114.673 69.6786 114.18C69.9586 113.687 70.0986 113.1 70.0986 112.42ZM79.0789 111C79.0789 109.627 79.3856 108.4 79.9989 107.32C80.6256 106.227 81.4722 105.38 82.5389 104.78C83.6189 104.167 84.8256 103.86 86.1589 103.86C87.7189 103.86 89.0856 104.26 90.2589 105.06C91.4322 105.86 92.2522 106.967 92.7189 108.38H89.4989C89.1789 107.713 88.7256 107.213 88.1389 106.88C87.5656 106.547 86.8989 106.38 86.1389 106.38C85.3256 106.38 84.5989 106.573 83.9589 106.96C83.3322 107.333 82.8389 107.867 82.4789 108.56C82.1322 109.253 81.9589 110.067 81.9589 111C81.9589 111.92 82.1322 112.733 82.4789 113.44C82.8389 114.133 83.3322 114.673 83.9589 115.06C84.5989 115.433 85.3256 115.62 86.1389 115.62C86.8989 115.62 87.5656 115.453 88.1389 115.12C88.7256 114.773 89.1789 114.267 89.4989 113.6H92.7189C92.2522 115.027 91.4322 116.14 90.2589 116.94C89.0989 117.727 87.7322 118.12 86.1589 118.12C84.8256 118.12 83.6189 117.82 82.5389 117.22C81.4722 116.607 80.6256 115.76 79.9989 114.68C79.3856 113.6 79.0789 112.373 79.0789 111ZM100.03 118.18C98.9638 118.18 98.0038 117.947 97.1505 117.48C96.2971 117 95.6238 116.327 95.1305 115.46C94.6505 114.593 94.4105 113.593 94.4105 112.46C94.4105 111.327 94.6571 110.327 95.1505 109.46C95.6571 108.593 96.3438 107.927 97.2105 107.46C98.0771 106.98 99.0438 106.74 100.11 106.74C101.177 106.74 102.144 106.98 103.01 107.46C103.877 107.927 104.557 108.593 105.05 109.46C105.557 110.327 105.81 111.327 105.81 112.46C105.81 113.593 105.55 114.593 105.03 115.46C104.524 116.327 103.83 117 102.95 117.48C102.084 117.947 101.11 118.18 100.03 118.18ZM100.03 115.74C100.537 115.74 101.01 115.62 101.45 115.38C101.904 115.127 102.264 114.753 102.53 114.26C102.797 113.767 102.93 113.167 102.93 112.46C102.93 111.407 102.65 110.6 102.09 110.04C101.544 109.467 100.87 109.18 100.07 109.18C99.2705 109.18 98.5971 109.467 98.0505 110.04C97.5171 110.6 97.2505 111.407 97.2505 112.46C97.2505 113.513 97.5105 114.327 98.0305 114.9C98.5638 115.46 99.2305 115.74 100.03 115.74ZM114.004 106.76C115.324 106.76 116.391 107.18 117.204 108.02C118.018 108.847 118.424 110.007 118.424 111.5V118H115.624V111.88C115.624 111 115.404 110.327 114.964 109.86C114.524 109.38 113.924 109.14 113.164 109.14C112.391 109.14 111.778 109.38 111.324 109.86C110.884 110.327 110.664 111 110.664 111.88V118H107.864V106.92H110.664V108.3C111.038 107.82 111.511 107.447 112.084 107.18C112.671 106.9 113.311 106.76 114.004 106.76ZM127.227 106.76C128.547 106.76 129.614 107.18 130.427 108.02C131.24 108.847 131.647 110.007 131.647 111.5V118H128.847V111.88C128.847 111 128.627 110.327 128.187 109.86C127.747 109.38 127.147 109.14 126.387 109.14C125.614 109.14 125 109.38 124.547 109.86C124.107 110.327 123.887 111 123.887 111.88V118H121.087V106.92H123.887V108.3C124.26 107.82 124.734 107.447 125.307 107.18C125.894 106.9 126.534 106.76 127.227 106.76ZM144.61 112.22C144.61 112.62 144.583 112.98 144.53 113.3H136.43C136.496 114.1 136.776 114.727 137.27 115.18C137.763 115.633 138.37 115.86 139.09 115.86C140.13 115.86 140.87 115.413 141.31 114.52H144.33C144.01 115.587 143.396 116.467 142.49 117.16C141.583 117.84 140.47 118.18 139.15 118.18C138.083 118.18 137.123 117.947 136.27 117.48C135.43 117 134.77 116.327 134.29 115.46C133.823 114.593 133.59 113.593 133.59 112.46C133.59 111.313 133.823 110.307 134.29 109.44C134.756 108.573 135.41 107.907 136.25 107.44C137.09 106.973 138.056 106.74 139.15 106.74C140.203 106.74 141.143 106.967 141.97 107.42C142.81 107.873 143.456 108.52 143.91 109.36C144.376 110.187 144.61 111.14 144.61 112.22ZM141.71 111.42C141.696 110.7 141.436 110.127 140.93 109.7C140.423 109.26 139.803 109.04 139.07 109.04C138.376 109.04 137.79 109.253 137.31 109.68C136.843 110.093 136.556 110.673 136.45 111.42H141.71ZM145.933 112.46C145.933 111.313 146.167 110.313 146.633 109.46C147.1 108.593 147.747 107.927 148.573 107.46C149.4 106.98 150.347 106.74 151.413 106.74C152.787 106.74 153.92 107.087 154.813 107.78C155.72 108.46 156.327 109.42 156.633 110.66H153.613C153.453 110.18 153.18 109.807 152.793 109.54C152.42 109.26 151.953 109.12 151.393 109.12C150.593 109.12 149.96 109.413 149.493 110C149.027 110.573 148.793 111.393 148.793 112.46C148.793 113.513 149.027 114.333 149.493 114.92C149.96 115.493 150.593 115.78 151.393 115.78C152.527 115.78 153.267 115.273 153.613 114.26H156.633C156.327 115.46 155.72 116.413 154.813 117.12C153.907 117.827 152.773 118.18 151.413 118.18C150.347 118.18 149.4 117.947 148.573 117.48C147.747 117 147.1 116.333 146.633 115.48C146.167 114.613 145.933 113.607 145.933 112.46ZM161.945 109.22V114.58C161.945 114.953 162.031 115.227 162.205 115.4C162.391 115.56 162.698 115.64 163.125 115.64H164.425V118H162.665C160.305 118 159.125 116.853 159.125 114.56V109.22H157.805V106.92H159.125V104.18H161.945V106.92H164.425V109.22H161.945ZM167.859 105.6C167.365 105.6 166.952 105.447 166.619 105.14C166.299 104.82 166.139 104.427 166.139 103.96C166.139 103.493 166.299 103.107 166.619 102.8C166.952 102.48 167.365 102.32 167.859 102.32C168.352 102.32 168.759 102.48 169.079 102.8C169.412 103.107 169.579 103.493 169.579 103.96C169.579 104.427 169.412 104.82 169.079 105.14C168.759 105.447 168.352 105.6 167.859 105.6ZM169.239 106.92V118H166.439V106.92H169.239ZM176.925 118.18C175.858 118.18 174.898 117.947 174.045 117.48C173.192 117 172.518 116.327 172.025 115.46C171.545 114.593 171.305 113.593 171.305 112.46C171.305 111.327 171.552 110.327 172.045 109.46C172.552 108.593 173.238 107.927 174.105 107.46C174.972 106.98 175.938 106.74 177.005 106.74C178.072 106.74 179.038 106.98 179.905 107.46C180.772 107.927 181.452 108.593 181.945 109.46C182.452 110.327 182.705 111.327 182.705 112.46C182.705 113.593 182.445 114.593 181.925 115.46C181.418 116.327 180.725 117 179.845 117.48C178.978 117.947 178.005 118.18 176.925 118.18ZM176.925 115.74C177.432 115.74 177.905 115.62 178.345 115.38C178.798 115.127 179.158 114.753 179.425 114.26C179.692 113.767 179.825 113.167 179.825 112.46C179.825 111.407 179.545 110.6 178.985 110.04C178.438 109.467 177.765 109.18 176.965 109.18C176.165 109.18 175.492 109.467 174.945 110.04C174.412 110.6 174.145 111.407 174.145 112.46C174.145 113.513 174.405 114.327 174.925 114.9C175.458 115.46 176.125 115.74 176.925 115.74ZM190.899 106.76C192.219 106.76 193.286 107.18 194.099 108.02C194.912 108.847 195.319 110.007 195.319 111.5V118H192.519V111.88C192.519 111 192.299 110.327 191.859 109.86C191.419 109.38 190.819 109.14 190.059 109.14C189.286 109.14 188.672 109.38 188.219 109.86C187.779 110.327 187.559 111 187.559 111.88V118H184.759V106.92H187.559V108.3C187.932 107.82 188.406 107.447 188.979 107.18C189.566 106.9 190.206 106.76 190.899 106.76Z" fill="#212529"/>
<path d="M38.788 160.112C37.7533 160.112 36.8093 159.872 35.956 159.392C35.1027 158.901 34.4253 158.224 33.924 157.36C33.4333 156.485 33.188 155.504 33.188 154.416C33.188 153.328 33.4333 152.352 33.924 151.488C34.4253 150.613 35.1027 149.936 35.956 149.456C36.8093 148.965 37.7533 148.72 38.788 148.72C39.8333 148.72 40.7827 148.965 41.636 149.456C42.4893 149.936 43.1613 150.608 43.652 151.472C44.1427 152.336 44.388 153.317 44.388 154.416C44.388 155.515 44.1427 156.496 43.652 157.36C43.1613 158.224 42.4893 158.901 41.636 159.392C40.7827 159.872 39.8333 160.112 38.788 160.112ZM38.788 158.848C39.5667 158.848 40.2653 158.667 40.884 158.304C41.5133 157.941 42.004 157.424 42.356 156.752C42.7187 156.08 42.9 155.301 42.9 154.416C42.9 153.52 42.7187 152.741 42.356 152.08C42.004 151.408 41.5187 150.891 40.9 150.528C40.2813 150.165 39.5773 149.984 38.788 149.984C37.9987 149.984 37.2947 150.165 36.676 150.528C36.0573 150.891 35.5667 151.408 35.204 152.08C34.852 152.741 34.676 153.52 34.676 154.416C34.676 155.301 34.852 156.08 35.204 156.752C35.5667 157.424 36.0573 157.941 36.676 158.304C37.3053 158.667 38.0093 158.848 38.788 158.848ZM50.5821 151.072C51.6488 151.072 52.5128 151.397 53.1741 152.048C53.8355 152.688 54.1661 153.616 54.1661 154.832V160H52.7261V155.04C52.7261 154.165 52.5075 153.499 52.0701 153.04C51.6328 152.571 51.0355 152.336 50.2781 152.336C49.5101 152.336 48.8968 152.576 48.4381 153.056C47.9901 153.536 47.7661 154.235 47.7661 155.152V160H46.3101V151.232H47.7661V152.48C48.0541 152.032 48.4435 151.685 48.9341 151.44C49.4355 151.195 49.9848 151.072 50.5821 151.072ZM58.0005 152.864C58.2992 152.341 58.7365 151.915 59.3125 151.584C59.8885 151.253 60.5445 151.088 61.2805 151.088C62.0698 151.088 62.7792 151.275 63.4085 151.648C64.0378 152.021 64.5338 152.549 64.8965 153.232C65.2592 153.904 65.4405 154.688 65.4405 155.584C65.4405 156.469 65.2592 157.259 64.8965 157.952C64.5338 158.645 64.0325 159.184 63.3925 159.568C62.7632 159.952 62.0592 160.144 61.2805 160.144C60.5232 160.144 59.8565 159.979 59.2805 159.648C58.7152 159.317 58.2885 158.896 58.0005 158.384V160H56.5445V148.16H58.0005V152.864ZM63.9525 155.584C63.9525 154.923 63.8192 154.347 63.5525 153.856C63.2858 153.365 62.9232 152.992 62.4645 152.736C62.0165 152.48 61.5205 152.352 60.9765 152.352C60.4432 152.352 59.9472 152.485 59.4885 152.752C59.0405 153.008 58.6778 153.387 58.4005 153.888C58.1338 154.379 58.0005 154.949 58.0005 155.6C58.0005 156.261 58.1338 156.843 58.4005 157.344C58.6778 157.835 59.0405 158.213 59.4885 158.48C59.9472 158.736 60.4432 158.864 60.9765 158.864C61.5205 158.864 62.0165 158.736 62.4645 158.48C62.9232 158.213 63.2858 157.835 63.5525 157.344C63.8192 156.843 63.9525 156.256 63.9525 155.584ZM71.181 160.144C70.3597 160.144 69.613 159.957 68.941 159.584C68.2797 159.211 67.757 158.683 67.373 158C66.9997 157.307 66.813 156.507 66.813 155.6C66.813 154.704 67.005 153.915 67.389 153.232C67.7837 152.539 68.317 152.011 68.989 151.648C69.661 151.275 70.413 151.088 71.245 151.088C72.077 151.088 72.829 151.275 73.501 151.648C74.173 152.011 74.701 152.533 75.085 153.216C75.4797 153.899 75.677 154.693 75.677 155.6C75.677 156.507 75.4743 157.307 75.069 158C74.6743 158.683 74.1357 159.211 73.453 159.584C72.7703 159.957 72.013 160.144 71.181 160.144ZM71.181 158.864C71.7037 158.864 72.1943 158.741 72.653 158.496C73.1117 158.251 73.4797 157.883 73.757 157.392C74.045 156.901 74.189 156.304 74.189 155.6C74.189 154.896 74.0503 154.299 73.773 153.808C73.4957 153.317 73.133 152.955 72.685 152.72C72.237 152.475 71.7517 152.352 71.229 152.352C70.6957 152.352 70.205 152.475 69.757 152.72C69.3197 152.955 68.9677 153.317 68.701 153.808C68.4343 154.299 68.301 154.896 68.301 155.6C68.301 156.315 68.429 156.917 68.685 157.408C68.9517 157.899 69.3037 158.267 69.741 158.512C70.1783 158.747 70.6583 158.864 71.181 158.864ZM77.0474 155.584C77.0474 154.688 77.2287 153.904 77.5914 153.232C77.954 152.549 78.45 152.021 79.0794 151.648C79.7194 151.275 80.4287 151.088 81.2074 151.088C81.9754 151.088 82.642 151.253 83.2074 151.584C83.7727 151.915 84.194 152.331 84.4714 152.832V151.232H85.9434V160H84.4714V158.368C84.1834 158.88 83.7514 159.307 83.1754 159.648C82.61 159.979 81.9487 160.144 81.1914 160.144C80.4127 160.144 79.7087 159.952 79.0794 159.568C78.45 159.184 77.954 158.645 77.5914 157.952C77.2287 157.259 77.0474 156.469 77.0474 155.584ZM84.4714 155.6C84.4714 154.939 84.338 154.363 84.0714 153.872C83.8047 153.381 83.442 153.008 82.9834 152.752C82.5354 152.485 82.0394 152.352 81.4954 152.352C80.9514 152.352 80.4554 152.48 80.0074 152.736C79.5594 152.992 79.202 153.365 78.9354 153.856C78.6687 154.347 78.5354 154.923 78.5354 155.584C78.5354 156.256 78.6687 156.843 78.9354 157.344C79.202 157.835 79.5594 158.213 80.0074 158.48C80.4554 158.736 80.9514 158.864 81.4954 158.864C82.0394 158.864 82.5354 158.736 82.9834 158.48C83.442 158.213 83.8047 157.835 84.0714 157.344C84.338 156.843 84.4714 156.261 84.4714 155.6ZM89.8599 152.656C90.1159 152.155 90.4785 151.765 90.9479 151.488C91.4279 151.211 92.0092 151.072 92.6919 151.072V152.576H92.3079C90.6759 152.576 89.8599 153.461 89.8599 155.232V160H88.4039V151.232H89.8599V152.656ZM93.8286 155.584C93.8286 154.688 94.01 153.904 94.3726 153.232C94.7353 152.549 95.2313 152.021 95.8606 151.648C96.5006 151.275 97.2153 151.088 98.0046 151.088C98.6873 151.088 99.322 151.248 99.9086 151.568C100.495 151.877 100.943 152.288 101.253 152.8V148.16H102.725V160H101.253V158.352C100.965 158.875 100.538 159.307 99.9726 159.648C99.4073 159.979 98.746 160.144 97.9886 160.144C97.21 160.144 96.5006 159.952 95.8606 159.568C95.2313 159.184 94.7353 158.645 94.3726 157.952C94.01 157.259 93.8286 156.469 93.8286 155.584ZM101.253 155.6C101.253 154.939 101.119 154.363 100.853 153.872C100.586 153.381 100.223 153.008 99.7646 152.752C99.3166 152.485 98.8206 152.352 98.2766 152.352C97.7326 152.352 97.2366 152.48 96.7886 152.736C96.3406 152.992 95.9833 153.365 95.7166 153.856C95.45 154.347 95.3166 154.923 95.3166 155.584C95.3166 156.256 95.45 156.843 95.7166 157.344C95.9833 157.835 96.3406 158.213 96.7886 158.48C97.2366 158.736 97.7326 158.864 98.2766 158.864C98.8206 158.864 99.3166 158.736 99.7646 158.48C100.223 158.213 100.586 157.835 100.853 157.344C101.119 156.843 101.253 156.261 101.253 155.6ZM117.003 151.232L111.723 164.128H110.219L111.947 159.904L108.411 151.232H110.027L112.779 158.336L115.499 151.232H117.003ZM122.29 160.144C121.469 160.144 120.722 159.957 120.05 159.584C119.389 159.211 118.866 158.683 118.482 158C118.109 157.307 117.922 156.507 117.922 155.6C117.922 154.704 118.114 153.915 118.498 153.232C118.893 152.539 119.426 152.011 120.098 151.648C120.77 151.275 121.522 151.088 122.354 151.088C123.186 151.088 123.938 151.275 124.61 151.648C125.282 152.011 125.81 152.533 126.194 153.216C126.589 153.899 126.786 154.693 126.786 155.6C126.786 156.507 126.584 157.307 126.178 158C125.784 158.683 125.245 159.211 124.562 159.584C123.88 159.957 123.122 160.144 122.29 160.144ZM122.29 158.864C122.813 158.864 123.304 158.741 123.762 158.496C124.221 158.251 124.589 157.883 124.866 157.392C125.154 156.901 125.298 156.304 125.298 155.6C125.298 154.896 125.16 154.299 124.882 153.808C124.605 153.317 124.242 152.955 123.794 152.72C123.346 152.475 122.861 152.352 122.338 152.352C121.805 152.352 121.314 152.475 120.866 152.72C120.429 152.955 120.077 153.317 119.81 153.808C119.544 154.299 119.41 154.896 119.41 155.6C119.41 156.315 119.538 156.917 119.794 157.408C120.061 157.899 120.413 158.267 120.85 158.512C121.288 158.747 121.768 158.864 122.29 158.864ZM136.477 151.232V160H135.021V158.704C134.743 159.152 134.354 159.504 133.853 159.76C133.362 160.005 132.818 160.128 132.221 160.128C131.538 160.128 130.925 159.989 130.381 159.712C129.837 159.424 129.405 158.997 129.085 158.432C128.775 157.867 128.621 157.179 128.621 156.368V151.232H130.061V156.176C130.061 157.04 130.279 157.707 130.717 158.176C131.154 158.635 131.751 158.864 132.509 158.864C133.287 158.864 133.901 158.624 134.349 158.144C134.797 157.664 135.021 156.965 135.021 156.048V151.232H136.477ZM140.391 152.656C140.647 152.155 141.01 151.765 141.479 151.488C141.959 151.211 142.54 151.072 143.223 151.072V152.576H142.839C141.207 152.576 140.391 153.461 140.391 155.232V160H138.935V151.232H140.391V152.656ZM148.626 155.6C148.626 154.693 148.807 153.904 149.17 153.232C149.532 152.549 150.034 152.021 150.674 151.648C151.324 151.275 152.066 151.088 152.898 151.088C153.975 151.088 154.86 151.349 155.554 151.872C156.258 152.395 156.722 153.12 156.946 154.048H155.378C155.228 153.515 154.935 153.093 154.498 152.784C154.071 152.475 153.538 152.32 152.898 152.32C152.066 152.32 151.394 152.608 150.882 153.184C150.37 153.749 150.114 154.555 150.114 155.6C150.114 156.656 150.37 157.472 150.882 158.048C151.394 158.624 152.066 158.912 152.898 158.912C153.538 158.912 154.071 158.763 154.498 158.464C154.924 158.165 155.218 157.739 155.378 157.184H156.946C156.711 158.08 156.242 158.8 155.538 159.344C154.834 159.877 153.954 160.144 152.898 160.144C152.066 160.144 151.324 159.957 150.674 159.584C150.034 159.211 149.532 158.683 149.17 158C148.807 157.317 148.626 156.517 148.626 155.6ZM160.344 148.16V160H158.888V148.16H160.344ZM163.578 149.808C163.3 149.808 163.066 149.712 162.874 149.52C162.682 149.328 162.586 149.093 162.586 148.816C162.586 148.539 162.682 148.304 162.874 148.112C163.066 147.92 163.3 147.824 163.578 147.824C163.844 147.824 164.068 147.92 164.25 148.112C164.442 148.304 164.538 148.539 164.538 148.816C164.538 149.093 164.442 149.328 164.25 149.52C164.068 149.712 163.844 149.808 163.578 149.808ZM164.282 151.232V160H162.826V151.232H164.282ZM174.763 155.28C174.763 155.557 174.747 155.851 174.715 156.16H167.707C167.761 157.024 168.054 157.701 168.587 158.192C169.131 158.672 169.787 158.912 170.555 158.912C171.185 158.912 171.707 158.768 172.123 158.48C172.55 158.181 172.849 157.787 173.019 157.296H174.587C174.353 158.139 173.883 158.827 173.179 159.36C172.475 159.883 171.601 160.144 170.555 160.144C169.723 160.144 168.977 159.957 168.315 159.584C167.665 159.211 167.153 158.683 166.779 158C166.406 157.307 166.219 156.507 166.219 155.6C166.219 154.693 166.401 153.899 166.763 153.216C167.126 152.533 167.633 152.011 168.283 151.648C168.945 151.275 169.702 151.088 170.555 151.088C171.387 151.088 172.123 151.269 172.763 151.632C173.403 151.995 173.894 152.496 174.235 153.136C174.587 153.765 174.763 154.48 174.763 155.28ZM173.259 154.976C173.259 154.421 173.137 153.947 172.891 153.552C172.646 153.147 172.31 152.843 171.883 152.64C171.467 152.427 171.003 152.32 170.491 152.32C169.755 152.32 169.126 152.555 168.603 153.024C168.091 153.493 167.798 154.144 167.723 154.976H173.259ZM180.957 151.072C182.024 151.072 182.888 151.397 183.549 152.048C184.21 152.688 184.541 153.616 184.541 154.832V160H183.101V155.04C183.101 154.165 182.882 153.499 182.445 153.04C182.008 152.571 181.41 152.336 180.653 152.336C179.885 152.336 179.272 152.576 178.813 153.056C178.365 153.536 178.141 154.235 178.141 155.152V160H176.685V151.232H178.141V152.48C178.429 152.032 178.818 151.685 179.309 151.44C179.81 151.195 180.36 151.072 180.957 151.072ZM188.696 152.432V157.6C188.696 158.027 188.786 158.331 188.968 158.512C189.149 158.683 189.464 158.768 189.911 158.768H190.984V160H189.672C188.861 160 188.253 159.813 187.848 159.44C187.442 159.067 187.24 158.453 187.24 157.6V152.432H186.104V151.232H187.24V149.024H188.696V151.232H190.984V152.432H188.696ZM195.852 160.144C195.18 160.144 194.577 160.032 194.044 159.808C193.51 159.573 193.089 159.253 192.78 158.848C192.47 158.432 192.3 157.957 192.268 157.424H193.772C193.814 157.861 194.017 158.219 194.38 158.496C194.753 158.773 195.238 158.912 195.836 158.912C196.39 158.912 196.828 158.789 197.148 158.544C197.468 158.299 197.628 157.989 197.628 157.616C197.628 157.232 197.457 156.949 197.116 156.768C196.774 156.576 196.246 156.389 195.532 156.208C194.881 156.037 194.348 155.867 193.932 155.696C193.526 155.515 193.174 155.253 192.876 154.912C192.588 154.56 192.444 154.101 192.444 153.536C192.444 153.088 192.577 152.677 192.844 152.304C193.11 151.931 193.489 151.637 193.98 151.424C194.47 151.2 195.03 151.088 195.66 151.088C196.63 151.088 197.414 151.333 198.012 151.824C198.609 152.315 198.929 152.987 198.972 153.84H197.516C197.484 153.381 197.297 153.013 196.956 152.736C196.625 152.459 196.177 152.32 195.612 152.32C195.089 152.32 194.673 152.432 194.364 152.656C194.054 152.88 193.9 153.173 193.9 153.536C193.9 153.824 193.99 154.064 194.172 154.256C194.364 154.437 194.598 154.587 194.876 154.704C195.164 154.811 195.558 154.933 196.06 155.072C196.689 155.243 197.201 155.413 197.596 155.584C197.99 155.744 198.326 155.989 198.604 156.32C198.892 156.651 199.041 157.083 199.052 157.616C199.052 158.096 198.918 158.528 198.652 158.912C198.385 159.296 198.006 159.6 197.516 159.824C197.036 160.037 196.481 160.144 195.852 160.144ZM204.829 155.584C204.829 154.688 205.01 153.904 205.373 153.232C205.735 152.549 206.231 152.021 206.861 151.648C207.501 151.275 208.21 151.088 208.989 151.088C209.757 151.088 210.423 151.253 210.989 151.584C211.554 151.915 211.975 152.331 212.253 152.832V151.232H213.725V160H212.253V158.368C211.965 158.88 211.533 159.307 210.957 159.648C210.391 159.979 209.73 160.144 208.973 160.144C208.194 160.144 207.49 159.952 206.861 159.568C206.231 159.184 205.735 158.645 205.373 157.952C205.01 157.259 204.829 156.469 204.829 155.584ZM212.253 155.6C212.253 154.939 212.119 154.363 211.853 153.872C211.586 153.381 211.223 153.008 210.765 152.752C210.317 152.485 209.821 152.352 209.277 152.352C208.733 152.352 208.237 152.48 207.789 152.736C207.341 152.992 206.983 153.365 206.717 153.856C206.45 154.347 206.317 154.923 206.317 155.584C206.317 156.256 206.45 156.843 206.717 157.344C206.983 157.835 207.341 158.213 207.789 158.48C208.237 158.736 208.733 158.864 209.277 158.864C209.821 158.864 210.317 158.736 210.765 158.48C211.223 158.213 211.586 157.835 211.853 157.344C212.119 156.843 212.253 156.261 212.253 155.6ZM220.457 151.072C221.524 151.072 222.388 151.397 223.049 152.048C223.71 152.688 224.041 153.616 224.041 154.832V160H222.601V155.04C222.601 154.165 222.382 153.499 221.945 153.04C221.508 152.571 220.91 152.336 220.153 152.336C219.385 152.336 218.772 152.576 218.313 153.056C217.865 153.536 217.641 154.235 217.641 155.152V160H216.185V151.232H217.641V152.48C217.929 152.032 218.318 151.685 218.809 151.44C219.31 151.195 219.86 151.072 220.457 151.072ZM225.876 155.584C225.876 154.688 226.057 153.904 226.42 153.232C226.782 152.549 227.278 152.021 227.908 151.648C228.548 151.275 229.262 151.088 230.052 151.088C230.734 151.088 231.369 151.248 231.956 151.568C232.542 151.877 232.99 152.288 233.3 152.8V148.16H234.772V160H233.3V158.352C233.012 158.875 232.585 159.307 232.02 159.648C231.454 159.979 230.793 160.144 230.036 160.144C229.257 160.144 228.548 159.952 227.908 159.568C227.278 159.184 226.782 158.645 226.42 157.952C226.057 157.259 225.876 156.469 225.876 155.584ZM233.3 155.6C233.3 154.939 233.166 154.363 232.9 153.872C232.633 153.381 232.27 153.008 231.812 152.752C231.364 152.485 230.868 152.352 230.324 152.352C229.78 152.352 229.284 152.48 228.836 152.736C228.388 152.992 228.03 153.365 227.764 153.856C227.497 154.347 227.364 154.923 227.364 155.584C227.364 156.256 227.497 156.843 227.764 157.344C228.03 157.835 228.388 158.213 228.836 158.48C229.284 158.736 229.78 158.864 230.324 158.864C230.868 158.864 231.364 158.736 231.812 158.48C232.27 158.213 232.633 157.835 232.9 157.344C233.166 156.843 233.3 156.261 233.3 155.6ZM249.05 151.232L243.77 164.128H242.266L243.994 159.904L240.458 151.232H242.074L244.826 158.336L247.546 151.232H249.05ZM254.337 160.144C253.516 160.144 252.769 159.957 252.097 159.584C251.436 159.211 250.913 158.683 250.529 158C250.156 157.307 249.969 156.507 249.969 155.6C249.969 154.704 250.161 153.915 250.545 153.232C250.94 152.539 251.473 152.011 252.145 151.648C252.817 151.275 253.569 151.088 254.401 151.088C255.233 151.088 255.985 151.275 256.657 151.648C257.329 152.011 257.857 152.533 258.241 153.216C258.636 153.899 258.833 154.693 258.833 155.6C258.833 156.507 258.631 157.307 258.225 158C257.831 158.683 257.292 159.211 256.609 159.584C255.927 159.957 255.169 160.144 254.337 160.144ZM254.337 158.864C254.86 158.864 255.351 158.741 255.809 158.496C256.268 158.251 256.636 157.883 256.913 157.392C257.201 156.901 257.345 156.304 257.345 155.6C257.345 154.896 257.207 154.299 256.929 153.808C256.652 153.317 256.289 152.955 255.841 152.72C255.393 152.475 254.908 152.352 254.385 152.352C253.852 152.352 253.361 152.475 252.913 152.72C252.476 152.955 252.124 153.317 251.857 153.808C251.591 154.299 251.457 154.896 251.457 155.6C251.457 156.315 251.585 156.917 251.841 157.408C252.108 157.899 252.46 158.267 252.897 158.512C253.335 158.747 253.815 158.864 254.337 158.864ZM268.524 151.232V160H267.068V158.704C266.79 159.152 266.401 159.504 265.9 159.76C265.409 160.005 264.865 160.128 264.268 160.128C263.585 160.128 262.972 159.989 262.428 159.712C261.884 159.424 261.452 158.997 261.132 158.432C260.822 157.867 260.668 157.179 260.668 156.368V151.232H262.108V156.176C262.108 157.04 262.326 157.707 262.764 158.176C263.201 158.635 263.798 158.864 264.556 158.864C265.334 158.864 265.948 158.624 266.396 158.144C266.844 157.664 267.068 156.965 267.068 156.048V151.232H268.524ZM272.438 152.656C272.694 152.155 273.057 151.765 273.526 151.488C274.006 151.211 274.587 151.072 275.27 151.072V152.576H274.886C273.254 152.576 272.438 153.461 272.438 155.232V160H270.982V151.232H272.438V152.656ZM35.508 176.432V181.6C35.508 182.027 35.5987 182.331 35.78 182.512C35.9613 182.683 36.276 182.768 36.724 182.768H37.796V184H36.484C35.6733 184 35.0653 183.813 34.66 183.44C34.2547 183.067 34.052 182.453 34.052 181.6V176.432H32.916V175.232H34.052V173.024H35.508V175.232H37.796V176.432H35.508ZM47.5601 179.28C47.5601 179.557 47.5441 179.851 47.5121 180.16H40.5041C40.5575 181.024 40.8508 181.701 41.3841 182.192C41.9281 182.672 42.5841 182.912 43.3521 182.912C43.9815 182.912 44.5041 182.768 44.9201 182.48C45.3468 182.181 45.6455 181.787 45.8161 181.296H47.3841C47.1495 182.139 46.6801 182.827 45.9761 183.36C45.2721 183.883 44.3975 184.144 43.3521 184.144C42.5201 184.144 41.7735 183.957 41.1121 183.584C40.4615 183.211 39.9495 182.683 39.5761 182C39.2028 181.307 39.0161 180.507 39.0161 179.6C39.0161 178.693 39.1975 177.899 39.5601 177.216C39.9228 176.533 40.4295 176.011 41.0801 175.648C41.7415 175.275 42.4988 175.088 43.3521 175.088C44.1841 175.088 44.9201 175.269 45.5601 175.632C46.2001 175.995 46.6908 176.496 47.0321 177.136C47.3841 177.765 47.5601 178.48 47.5601 179.28ZM46.0561 178.976C46.0561 178.421 45.9335 177.947 45.6881 177.552C45.4428 177.147 45.1068 176.843 44.6801 176.64C44.2641 176.427 43.8001 176.32 43.2881 176.32C42.5521 176.32 41.9228 176.555 41.4001 177.024C40.8881 177.493 40.5948 178.144 40.5201 178.976H46.0561ZM48.938 179.584C48.938 178.688 49.1193 177.904 49.482 177.232C49.8447 176.549 50.3407 176.021 50.97 175.648C51.61 175.275 52.3193 175.088 53.098 175.088C53.866 175.088 54.5327 175.253 55.098 175.584C55.6633 175.915 56.0847 176.331 56.362 176.832V175.232H57.834V184H56.362V182.368C56.074 182.88 55.642 183.307 55.066 183.648C54.5007 183.979 53.8393 184.144 53.082 184.144C52.3033 184.144 51.5993 183.952 50.97 183.568C50.3407 183.184 49.8447 182.645 49.482 181.952C49.1193 181.259 48.938 180.469 48.938 179.584ZM56.362 179.6C56.362 178.939 56.2287 178.363 55.962 177.872C55.6953 177.381 55.3327 177.008 54.874 176.752C54.426 176.485 53.93 176.352 53.386 176.352C52.842 176.352 52.346 176.48 51.898 176.736C51.45 176.992 51.0927 177.365 50.826 177.856C50.5593 178.347 50.426 178.923 50.426 179.584C50.426 180.256 50.5593 180.843 50.826 181.344C51.0927 181.835 51.45 182.213 51.898 182.48C52.346 182.736 52.842 182.864 53.386 182.864C53.93 182.864 54.426 182.736 54.874 182.48C55.3327 182.213 55.6953 181.835 55.962 181.344C56.2287 180.843 56.362 180.261 56.362 179.6ZM70.8385 175.072C71.5212 175.072 72.1292 175.216 72.6625 175.504C73.1958 175.781 73.6172 176.203 73.9265 176.768C74.2358 177.333 74.3905 178.021 74.3905 178.832V184H72.9505V179.04C72.9505 178.165 72.7318 177.499 72.2945 177.04C71.8678 176.571 71.2865 176.336 70.5505 176.336C69.7932 176.336 69.1905 176.581 68.7425 177.072C68.2945 177.552 68.0705 178.251 68.0705 179.168V184H66.6305V179.04C66.6305 178.165 66.4118 177.499 65.9745 177.04C65.5478 176.571 64.9665 176.336 64.2305 176.336C63.4732 176.336 62.8705 176.581 62.4225 177.072C61.9745 177.552 61.7505 178.251 61.7505 179.168V184H60.2945V175.232H61.7505V176.496C62.0385 176.037 62.4225 175.685 62.9025 175.44C63.3932 175.195 63.9318 175.072 64.5185 175.072C65.2545 175.072 65.9052 175.237 66.4705 175.568C67.0358 175.899 67.4572 176.384 67.7345 177.024C67.9798 176.405 68.3852 175.925 68.9505 175.584C69.5158 175.243 70.1452 175.072 70.8385 175.072ZM87.3229 175.072C88.0055 175.072 88.6135 175.216 89.1469 175.504C89.6802 175.781 90.1015 176.203 90.4109 176.768C90.7202 177.333 90.8749 178.021 90.8749 178.832V184H89.4349V179.04C89.4349 178.165 89.2162 177.499 88.7789 177.04C88.3522 176.571 87.7709 176.336 87.0349 176.336C86.2775 176.336 85.6749 176.581 85.2269 177.072C84.7789 177.552 84.5549 178.251 84.5549 179.168V184H83.1149V179.04C83.1149 178.165 82.8962 177.499 82.4589 177.04C82.0322 176.571 81.4509 176.336 80.7149 176.336C79.9575 176.336 79.3549 176.581 78.9069 177.072C78.4589 177.552 78.2349 178.251 78.2349 179.168V184H76.7789V175.232H78.2349V176.496C78.5229 176.037 78.9069 175.685 79.3869 175.44C79.8775 175.195 80.4162 175.072 81.0029 175.072C81.7389 175.072 82.3895 175.237 82.9549 175.568C83.5202 175.899 83.9415 176.384 84.2189 177.024C84.4642 176.405 84.8695 175.925 85.4349 175.584C86.0002 175.243 86.6295 175.072 87.3229 175.072ZM92.7193 179.584C92.7193 178.688 92.9006 177.904 93.2633 177.232C93.6259 176.549 94.1219 176.021 94.7513 175.648C95.3913 175.275 96.1006 175.088 96.8793 175.088C97.6473 175.088 98.3139 175.253 98.8793 175.584C99.4446 175.915 99.8659 176.331 100.143 176.832V175.232H101.615V184H100.143V182.368C99.8553 182.88 99.4233 183.307 98.8473 183.648C98.2819 183.979 97.6206 184.144 96.8633 184.144C96.0846 184.144 95.3806 183.952 94.7513 183.568C94.1219 183.184 93.6259 182.645 93.2633 181.952C92.9006 181.259 92.7193 180.469 92.7193 179.584ZM100.143 179.6C100.143 178.939 100.01 178.363 99.7433 177.872C99.4766 177.381 99.1139 177.008 98.6553 176.752C98.2073 176.485 97.7113 176.352 97.1673 176.352C96.6233 176.352 96.1273 176.48 95.6793 176.736C95.2313 176.992 94.8739 177.365 94.6073 177.856C94.3406 178.347 94.2073 178.923 94.2073 179.584C94.2073 180.256 94.3406 180.843 94.6073 181.344C94.8739 181.835 95.2313 182.213 95.6793 182.48C96.1273 182.736 96.6233 182.864 97.1673 182.864C97.7113 182.864 98.2073 182.736 98.6553 182.48C99.1139 182.213 99.4766 181.835 99.7433 181.344C100.01 180.843 100.143 180.261 100.143 179.6ZM105.852 176.432V181.6C105.852 182.027 105.942 182.331 106.124 182.512C106.305 182.683 106.62 182.768 107.068 182.768H108.14V184H106.828C106.017 184 105.409 183.813 105.004 183.44C104.598 183.067 104.396 182.453 104.396 181.6V176.432H103.26V175.232H104.396V173.024H105.852V175.232H108.14V176.432H105.852ZM117.904 179.28C117.904 179.557 117.888 179.851 117.856 180.16H110.848C110.901 181.024 111.195 181.701 111.728 182.192C112.272 182.672 112.928 182.912 113.696 182.912C114.325 182.912 114.848 182.768 115.264 182.48C115.691 182.181 115.989 181.787 116.16 181.296H117.728C117.493 182.139 117.024 182.827 116.32 183.36C115.616 183.883 114.741 184.144 113.696 184.144C112.864 184.144 112.117 183.957 111.456 183.584C110.805 183.211 110.293 182.683 109.92 182C109.547 181.307 109.36 180.507 109.36 179.6C109.36 178.693 109.541 177.899 109.904 177.216C110.267 176.533 110.773 176.011 111.424 175.648C112.085 175.275 112.843 175.088 113.696 175.088C114.528 175.088 115.264 175.269 115.904 175.632C116.544 175.995 117.035 176.496 117.376 177.136C117.728 177.765 117.904 178.48 117.904 179.28ZM116.4 178.976C116.4 178.421 116.277 177.947 116.032 177.552C115.787 177.147 115.451 176.843 115.024 176.64C114.608 176.427 114.144 176.32 113.632 176.32C112.896 176.32 112.267 176.555 111.744 177.024C111.232 177.493 110.939 178.144 110.864 178.976H116.4ZM122.93 184.144C122.258 184.144 121.655 184.032 121.122 183.808C120.588 183.573 120.167 183.253 119.858 182.848C119.548 182.432 119.378 181.957 119.346 181.424H120.85C120.892 181.861 121.095 182.219 121.458 182.496C121.831 182.773 122.316 182.912 122.914 182.912C123.468 182.912 123.906 182.789 124.226 182.544C124.546 182.299 124.706 181.989 124.706 181.616C124.706 181.232 124.535 180.949 124.194 180.768C123.852 180.576 123.324 180.389 122.61 180.208C121.959 180.037 121.426 179.867 121.01 179.696C120.604 179.515 120.252 179.253 119.954 178.912C119.666 178.56 119.522 178.101 119.522 177.536C119.522 177.088 119.655 176.677 119.922 176.304C120.188 175.931 120.567 175.637 121.058 175.424C121.548 175.2 122.108 175.088 122.738 175.088C123.708 175.088 124.492 175.333 125.09 175.824C125.687 176.315 126.007 176.987 126.05 177.84H124.594C124.562 177.381 124.375 177.013 124.034 176.736C123.703 176.459 123.255 176.32 122.69 176.32C122.167 176.32 121.751 176.432 121.442 176.656C121.132 176.88 120.978 177.173 120.978 177.536C120.978 177.824 121.068 178.064 121.25 178.256C121.442 178.437 121.676 178.587 121.954 178.704C122.242 178.811 122.636 178.933 123.138 179.072C123.767 179.243 124.279 179.413 124.674 179.584C125.068 179.744 125.404 179.989 125.682 180.32C125.97 180.651 126.119 181.083 126.13 181.616C126.13 182.096 125.996 182.528 125.73 182.912C125.463 183.296 125.084 183.6 124.594 183.824C124.114 184.037 123.559 184.144 122.93 184.144ZM140.451 179.28C140.451 179.557 140.435 179.851 140.403 180.16H133.395C133.448 181.024 133.741 181.701 134.275 182.192C134.819 182.672 135.475 182.912 136.243 182.912C136.872 182.912 137.395 182.768 137.811 182.48C138.237 182.181 138.536 181.787 138.707 181.296H140.275C140.04 182.139 139.571 182.827 138.867 183.36C138.163 183.883 137.288 184.144 136.243 184.144C135.411 184.144 134.664 183.957 134.003 183.584C133.352 183.211 132.84 182.683 132.467 182C132.093 181.307 131.907 180.507 131.907 179.6C131.907 178.693 132.088 177.899 132.451 177.216C132.813 176.533 133.32 176.011 133.971 175.648C134.632 175.275 135.389 175.088 136.243 175.088C137.075 175.088 137.811 175.269 138.451 175.632C139.091 175.995 139.581 176.496 139.923 177.136C140.275 177.765 140.451 178.48 140.451 179.28ZM138.947 178.976C138.947 178.421 138.824 177.947 138.579 177.552C138.333 177.147 137.997 176.843 137.571 176.64C137.155 176.427 136.691 176.32 136.179 176.32C135.443 176.32 134.813 176.555 134.291 177.024C133.779 177.493 133.485 178.144 133.411 178.976H138.947ZM141.829 179.584C141.829 178.688 142.01 177.904 142.373 177.232C142.735 176.549 143.231 176.021 143.861 175.648C144.501 175.275 145.21 175.088 145.989 175.088C146.757 175.088 147.423 175.253 147.989 175.584C148.554 175.915 148.975 176.331 149.253 176.832V175.232H150.725V184H149.253V182.368C148.965 182.88 148.533 183.307 147.957 183.648C147.391 183.979 146.73 184.144 145.973 184.144C145.194 184.144 144.49 183.952 143.861 183.568C143.231 183.184 142.735 182.645 142.373 181.952C142.01 181.259 141.829 180.469 141.829 179.584ZM149.253 179.6C149.253 178.939 149.119 178.363 148.853 177.872C148.586 177.381 148.223 177.008 147.765 176.752C147.317 176.485 146.821 176.352 146.277 176.352C145.733 176.352 145.237 176.48 144.789 176.736C144.341 176.992 143.983 177.365 143.717 177.856C143.45 178.347 143.317 178.923 143.317 179.584C143.317 180.256 143.45 180.843 143.717 181.344C143.983 181.835 144.341 182.213 144.789 182.48C145.237 182.736 145.733 182.864 146.277 182.864C146.821 182.864 147.317 182.736 147.765 182.48C148.223 182.213 148.586 181.835 148.853 181.344C149.119 180.843 149.253 180.261 149.253 179.6ZM156.289 184.144C155.617 184.144 155.014 184.032 154.481 183.808C153.948 183.573 153.526 183.253 153.217 182.848C152.908 182.432 152.737 181.957 152.705 181.424H154.209C154.252 181.861 154.454 182.219 154.817 182.496C155.19 182.773 155.676 182.912 156.273 182.912C156.828 182.912 157.265 182.789 157.585 182.544C157.905 182.299 158.065 181.989 158.065 181.616C158.065 181.232 157.894 180.949 157.553 180.768C157.212 180.576 156.684 180.389 155.969 180.208C155.318 180.037 154.785 179.867 154.369 179.696C153.964 179.515 153.612 179.253 153.313 178.912C153.025 178.56 152.881 178.101 152.881 177.536C152.881 177.088 153.014 176.677 153.281 176.304C153.548 175.931 153.926 175.637 154.417 175.424C154.908 175.2 155.468 175.088 156.097 175.088C157.068 175.088 157.852 175.333 158.449 175.824C159.046 176.315 159.366 176.987 159.409 177.84H157.953C157.921 177.381 157.734 177.013 157.393 176.736C157.062 176.459 156.614 176.32 156.049 176.32C155.526 176.32 155.11 176.432 154.801 176.656C154.492 176.88 154.337 177.173 154.337 177.536C154.337 177.824 154.428 178.064 154.609 178.256C154.801 178.437 155.036 178.587 155.313 178.704C155.601 178.811 155.996 178.933 156.497 179.072C157.126 179.243 157.638 179.413 158.033 179.584C158.428 179.744 158.764 179.989 159.041 180.32C159.329 180.651 159.478 181.083 159.489 181.616C159.489 182.096 159.356 182.528 159.089 182.912C158.822 183.296 158.444 183.6 157.953 183.824C157.473 184.037 156.918 184.144 156.289 184.144ZM162.297 173.808C162.019 173.808 161.785 173.712 161.593 173.52C161.401 173.328 161.305 173.093 161.305 172.816C161.305 172.539 161.401 172.304 161.593 172.112C161.785 171.92 162.019 171.824 162.297 171.824C162.563 171.824 162.787 171.92 162.969 172.112C163.161 172.304 163.257 172.539 163.257 172.816C163.257 173.093 163.161 173.328 162.969 173.52C162.787 173.712 162.563 173.808 162.297 173.808ZM163.001 175.232V184H161.545V175.232H163.001ZM166.938 172.16V184H165.482V172.16H166.938ZM176.972 175.232L171.692 188.128H170.188L171.916 183.904L168.38 175.232H169.996L172.748 182.336L175.468 175.232H176.972ZM183.453 173.808C183.175 173.808 182.941 173.712 182.749 173.52C182.557 173.328 182.461 173.093 182.461 172.816C182.461 172.539 182.557 172.304 182.749 172.112C182.941 171.92 183.175 171.824 183.453 171.824C183.719 171.824 183.943 171.92 184.125 172.112C184.317 172.304 184.413 172.539 184.413 172.816C184.413 173.093 184.317 173.328 184.125 173.52C183.943 173.712 183.719 173.808 183.453 173.808ZM184.157 175.232V184H182.701V175.232H184.157ZM190.91 175.072C191.977 175.072 192.841 175.397 193.502 176.048C194.164 176.688 194.494 177.616 194.494 178.832V184H193.054V179.04C193.054 178.165 192.836 177.499 192.398 177.04C191.961 176.571 191.364 176.336 190.606 176.336C189.838 176.336 189.225 176.576 188.766 177.056C188.318 177.536 188.094 178.235 188.094 179.152V184H186.638V175.232H188.094V176.48C188.382 176.032 188.772 175.685 189.262 175.44C189.764 175.195 190.313 175.072 190.91 175.072ZM204.962 184.144C204.141 184.144 203.394 183.957 202.722 183.584C202.061 183.211 201.538 182.683 201.154 182C200.781 181.307 200.594 180.507 200.594 179.6C200.594 178.704 200.786 177.915 201.17 177.232C201.565 176.539 202.098 176.011 202.77 175.648C203.442 175.275 204.194 175.088 205.026 175.088C205.858 175.088 206.61 175.275 207.282 175.648C207.954 176.011 208.482 176.533 208.866 177.216C209.261 177.899 209.458 178.693 209.458 179.6C209.458 180.507 209.256 181.307 208.85 182C208.456 182.683 207.917 183.211 207.234 183.584C206.552 183.957 205.794 184.144 204.962 184.144ZM204.962 182.864C205.485 182.864 205.976 182.741 206.434 182.496C206.893 182.251 207.261 181.883 207.538 181.392C207.826 180.901 207.97 180.304 207.97 179.6C207.97 178.896 207.832 178.299 207.554 177.808C207.277 177.317 206.914 176.955 206.466 176.72C206.018 176.475 205.533 176.352 205.01 176.352C204.477 176.352 203.986 176.475 203.538 176.72C203.101 176.955 202.749 177.317 202.482 177.808C202.216 178.299 202.082 178.896 202.082 179.6C202.082 180.315 202.21 180.917 202.466 181.408C202.733 181.899 203.085 182.267 203.522 182.512C203.96 182.747 204.44 182.864 204.962 182.864ZM215.645 175.072C216.711 175.072 217.575 175.397 218.237 176.048C218.898 176.688 219.229 177.616 219.229 178.832V184H217.789V179.04C217.789 178.165 217.57 177.499 217.133 177.04C216.695 176.571 216.098 176.336 215.341 176.336C214.573 176.336 213.959 176.576 213.501 177.056C213.053 177.536 212.829 178.235 212.829 179.152V184H211.373V175.232H212.829V176.48C213.117 176.032 213.506 175.685 213.997 175.44C214.498 175.195 215.047 175.072 215.645 175.072ZM229.607 179.28C229.607 179.557 229.591 179.851 229.559 180.16H222.551C222.604 181.024 222.898 181.701 223.431 182.192C223.975 182.672 224.631 182.912 225.399 182.912C226.028 182.912 226.551 182.768 226.967 182.48C227.394 182.181 227.692 181.787 227.863 181.296H229.431C229.196 182.139 228.727 182.827 228.023 183.36C227.319 183.883 226.444 184.144 225.399 184.144C224.567 184.144 223.82 183.957 223.159 183.584C222.508 183.211 221.996 182.683 221.623 182C221.25 181.307 221.063 180.507 221.063 179.6C221.063 178.693 221.244 177.899 221.607 177.216C221.97 176.533 222.476 176.011 223.127 175.648C223.788 175.275 224.546 175.088 225.399 175.088C226.231 175.088 226.967 175.269 227.607 175.632C228.247 175.995 228.738 176.496 229.079 177.136C229.431 177.765 229.607 178.48 229.607 179.28ZM228.103 178.976C228.103 178.421 227.98 177.947 227.735 177.552C227.49 177.147 227.154 176.843 226.727 176.64C226.311 176.427 225.847 176.32 225.335 176.32C224.599 176.32 223.97 176.555 223.447 177.024C222.935 177.493 222.642 178.144 222.567 178.976H228.103ZM237.251 176.848C237.539 176.347 237.965 175.931 238.531 175.6C239.107 175.259 239.773 175.088 240.531 175.088C241.309 175.088 242.013 175.275 242.642 175.648C243.282 176.021 243.784 176.549 244.147 177.232C244.509 177.904 244.691 178.688 244.691 179.584C244.691 180.469 244.509 181.259 244.147 181.952C243.784 182.645 243.282 183.184 242.642 183.568C242.013 183.952 241.309 184.144 240.531 184.144C239.784 184.144 239.123 183.979 238.547 183.648C237.981 183.307 237.549 182.885 237.251 182.384V188.16H235.795V175.232H237.251V176.848ZM243.203 179.584C243.203 178.923 243.069 178.347 242.803 177.856C242.536 177.365 242.173 176.992 241.715 176.736C241.267 176.48 240.771 176.352 240.227 176.352C239.693 176.352 239.197 176.485 238.739 176.752C238.291 177.008 237.928 177.387 237.651 177.888C237.384 178.379 237.251 178.949 237.251 179.6C237.251 180.261 237.384 180.843 237.651 181.344C237.928 181.835 238.291 182.213 238.739 182.48C239.197 182.736 239.693 182.864 240.227 182.864C240.771 182.864 241.267 182.736 241.715 182.48C242.173 182.213 242.536 181.835 242.803 181.344C243.069 180.843 243.203 180.256 243.203 179.584ZM248.063 172.16V184H246.607V172.16H248.063ZM250.001 179.584C250.001 178.688 250.182 177.904 250.545 177.232C250.907 176.549 251.403 176.021 252.033 175.648C252.673 175.275 253.382 175.088 254.161 175.088C254.929 175.088 255.595 175.253 256.161 175.584C256.726 175.915 257.147 176.331 257.425 176.832V175.232H258.897V184H257.425V182.368C257.137 182.88 256.705 183.307 256.129 183.648C255.563 183.979 254.902 184.144 254.145 184.144C253.366 184.144 252.662 183.952 252.033 183.568C251.403 183.184 250.907 182.645 250.545 181.952C250.182 181.259 250.001 180.469 250.001 179.584ZM257.425 179.6C257.425 178.939 257.291 178.363 257.025 177.872C256.758 177.381 256.395 177.008 255.937 176.752C255.489 176.485 254.993 176.352 254.449 176.352C253.905 176.352 253.409 176.48 252.961 176.736C252.513 176.992 252.155 177.365 251.889 177.856C251.622 178.347 251.489 178.923 251.489 179.584C251.489 180.256 251.622 180.843 251.889 181.344C252.155 181.835 252.513 182.213 252.961 182.48C253.409 182.736 253.905 182.864 254.449 182.864C254.993 182.864 255.489 182.736 255.937 182.48C256.395 182.213 256.758 181.835 257.025 181.344C257.291 180.843 257.425 180.261 257.425 179.6ZM263.133 176.432V181.6C263.133 182.027 263.224 182.331 263.405 182.512C263.586 182.683 263.901 182.768 264.349 182.768H265.421V184H264.109C263.298 184 262.69 183.813 262.285 183.44C261.88 183.067 261.677 182.453 261.677 181.6V176.432H260.541V175.232H261.677V173.024H263.133V175.232H265.421V176.432H263.133ZM270.753 176.432H268.913V184H267.457V176.432H266.321V175.232H267.457V174.608C267.457 173.627 267.708 172.912 268.209 172.464C268.721 172.005 269.537 171.776 270.657 171.776V172.992C270.017 172.992 269.564 173.12 269.297 173.376C269.041 173.621 268.913 174.032 268.913 174.608V175.232H270.753V176.432ZM276.275 184.144C275.453 184.144 274.707 183.957 274.035 183.584C273.373 183.211 272.851 182.683 272.467 182C272.093 181.307 271.907 180.507 271.907 179.6C271.907 178.704 272.099 177.915 272.483 177.232C272.877 176.539 273.411 176.011 274.083 175.648C274.755 175.275 275.507 175.088 276.339 175.088C277.171 175.088 277.923 175.275 278.595 175.648C279.267 176.011 279.795 176.533 280.179 177.216C280.573 177.899 280.771 178.693 280.771 179.6C280.771 180.507 280.568 181.307 280.163 182C279.768 182.683 279.229 183.211 278.547 183.584C277.864 183.957 277.107 184.144 276.275 184.144ZM276.275 182.864C276.797 182.864 277.288 182.741 277.747 182.496C278.205 182.251 278.573 181.883 278.851 181.392C279.139 180.901 279.283 180.304 279.283 179.6C279.283 178.896 279.144 178.299 278.867 177.808C278.589 177.317 278.227 176.955 277.779 176.72C277.331 176.475 276.845 176.352 276.323 176.352C275.789 176.352 275.299 176.475 274.851 176.72C274.413 176.955 274.061 177.317 273.795 177.808C273.528 178.299 273.395 178.896 273.395 179.6C273.395 180.315 273.523 180.917 273.779 181.408C274.045 181.899 274.397 182.267 274.835 182.512C275.272 182.747 275.752 182.864 276.275 182.864ZM284.141 176.656C284.397 176.155 284.76 175.765 285.229 175.488C285.709 175.211 286.29 175.072 286.973 175.072V176.576H286.589C284.957 176.576 284.141 177.461 284.141 179.232V184H282.685V175.232H284.141V176.656ZM299.198 175.072C299.881 175.072 300.489 175.216 301.022 175.504C301.555 175.781 301.977 176.203 302.286 176.768C302.595 177.333 302.75 178.021 302.75 178.832V184H301.31V179.04C301.31 178.165 301.091 177.499 300.654 177.04C300.227 176.571 299.646 176.336 298.91 176.336C298.153 176.336 297.55 176.581 297.102 177.072C296.654 177.552 296.43 178.251 296.43 179.168V184H294.99V179.04C294.99 178.165 294.771 177.499 294.334 177.04C293.907 176.571 293.326 176.336 292.59 176.336C291.833 176.336 291.23 176.581 290.782 177.072C290.334 177.552 290.11 178.251 290.11 179.168V184H288.654V175.232H290.11V176.496C290.398 176.037 290.782 175.685 291.262 175.44C291.753 175.195 292.291 175.072 292.878 175.072C293.614 175.072 294.265 175.237 294.83 175.568C295.395 175.899 295.817 176.384 296.094 177.024C296.339 176.405 296.745 175.925 297.31 175.584C297.875 175.243 298.505 175.072 299.198 175.072ZM37.3 200.432H35.46V208H34.004V200.432H32.868V199.232H34.004V198.608C34.004 197.627 34.2547 196.912 34.756 196.464C35.268 196.005 36.084 195.776 37.204 195.776V196.992C36.564 196.992 36.1107 197.12 35.844 197.376C35.588 197.621 35.46 198.032 35.46 198.608V199.232H37.3V200.432ZM42.8216 208.144C42.0003 208.144 41.2536 207.957 40.5816 207.584C39.9203 207.211 39.3976 206.683 39.0136 206C38.6403 205.307 38.4536 204.507 38.4536 203.6C38.4536 202.704 38.6456 201.915 39.0296 201.232C39.4243 200.539 39.9576 200.011 40.6296 199.648C41.3016 199.275 42.0536 199.088 42.8856 199.088C43.7176 199.088 44.4696 199.275 45.1416 199.648C45.8136 200.011 46.3416 200.533 46.7256 201.216C47.1203 201.899 47.3176 202.693 47.3176 203.6C47.3176 204.507 47.115 205.307 46.7096 206C46.315 206.683 45.7763 207.211 45.0936 207.584C44.411 207.957 43.6536 208.144 42.8216 208.144ZM42.8216 206.864C43.3443 206.864 43.835 206.741 44.2936 206.496C44.7523 206.251 45.1203 205.883 45.3976 205.392C45.6856 204.901 45.8296 204.304 45.8296 203.6C45.8296 202.896 45.691 202.299 45.4136 201.808C45.1363 201.317 44.7736 200.955 44.3256 200.72C43.8776 200.475 43.3923 200.352 42.8696 200.352C42.3363 200.352 41.8456 200.475 41.3976 200.72C40.9603 200.955 40.6083 201.317 40.3416 201.808C40.075 202.299 39.9416 202.896 39.9416 203.6C39.9416 204.315 40.0696 204.917 40.3256 205.408C40.5923 205.899 40.9443 206.267 41.3816 206.512C41.819 206.747 42.299 206.864 42.8216 206.864ZM50.688 200.656C50.944 200.155 51.3067 199.765 51.776 199.488C52.256 199.211 52.8373 199.072 53.52 199.072V200.576H53.136C51.504 200.576 50.688 201.461 50.688 203.232V208H49.232V199.232H50.688V200.656ZM67.0184 199.232L61.7384 212.128H60.2344L61.9624 207.904L58.4264 199.232H60.0424L62.7944 206.336L65.5144 199.232H67.0184ZM72.306 208.144C71.4847 208.144 70.738 207.957 70.066 207.584C69.4047 207.211 68.882 206.683 68.498 206C68.1247 205.307 67.938 204.507 67.938 203.6C67.938 202.704 68.13 201.915 68.514 201.232C68.9087 200.539 69.442 200.011 70.114 199.648C70.786 199.275 71.538 199.088 72.37 199.088C73.202 199.088 73.954 199.275 74.626 199.648C75.298 200.011 75.826 200.533 76.21 201.216C76.6047 201.899 76.802 202.693 76.802 203.6C76.802 204.507 76.5993 205.307 76.194 206C75.7993 206.683 75.2607 207.211 74.578 207.584C73.8953 207.957 73.138 208.144 72.306 208.144ZM72.306 206.864C72.8287 206.864 73.3193 206.741 73.778 206.496C74.2367 206.251 74.6047 205.883 74.882 205.392C75.17 204.901 75.314 204.304 75.314 203.6C75.314 202.896 75.1753 202.299 74.898 201.808C74.6207 201.317 74.258 200.955 73.81 200.72C73.362 200.475 72.8767 200.352 72.354 200.352C71.8207 200.352 71.33 200.475 70.882 200.72C70.4447 200.955 70.0927 201.317 69.826 201.808C69.5593 202.299 69.426 202.896 69.426 203.6C69.426 204.315 69.554 204.917 69.81 205.408C70.0767 205.899 70.4287 206.267 70.866 206.512C71.3033 206.747 71.7833 206.864 72.306 206.864ZM86.4924 199.232V208H85.0364V206.704C84.759 207.152 84.3697 207.504 83.8684 207.76C83.3777 208.005 82.8337 208.128 82.2364 208.128C81.5537 208.128 80.9404 207.989 80.3964 207.712C79.8524 207.424 79.4204 206.997 79.1004 206.432C78.791 205.867 78.6364 205.179 78.6364 204.368V199.232H80.0764V204.176C80.0764 205.04 80.295 205.707 80.7324 206.176C81.1697 206.635 81.767 206.864 82.5244 206.864C83.303 206.864 83.9164 206.624 84.3644 206.144C84.8124 205.664 85.0364 204.965 85.0364 204.048V199.232H86.4924ZM90.4068 200.656C90.6628 200.155 91.0254 199.765 91.4948 199.488C91.9748 199.211 92.5561 199.072 93.2388 199.072V200.576H92.8548C91.2228 200.576 90.4068 201.461 90.4068 203.232V208H88.9508V199.232H90.4068V200.656ZM103.009 208.144C102.188 208.144 101.441 207.957 100.769 207.584C100.108 207.211 99.5851 206.683 99.2011 206C98.8278 205.307 98.6411 204.507 98.6411 203.6C98.6411 202.704 98.8331 201.915 99.2171 201.232C99.6118 200.539 100.145 200.011 100.817 199.648C101.489 199.275 102.241 199.088 103.073 199.088C103.905 199.088 104.657 199.275 105.329 199.648C106.001 200.011 106.529 200.533 106.913 201.216C107.308 201.899 107.505 202.693 107.505 203.6C107.505 204.507 107.302 205.307 106.897 206C106.502 206.683 105.964 207.211 105.281 207.584C104.598 207.957 103.841 208.144 103.009 208.144ZM103.009 206.864C103.532 206.864 104.022 206.741 104.481 206.496C104.94 206.251 105.308 205.883 105.585 205.392C105.873 204.901 106.017 204.304 106.017 203.6C106.017 202.896 105.878 202.299 105.601 201.808C105.324 201.317 104.961 200.955 104.513 200.72C104.065 200.475 103.58 200.352 103.057 200.352C102.524 200.352 102.033 200.475 101.585 200.72C101.148 200.955 100.796 201.317 100.529 201.808C100.262 202.299 100.129 202.896 100.129 203.6C100.129 204.315 100.257 204.917 100.513 205.408C100.78 205.899 101.132 206.267 101.569 206.512C102.006 206.747 102.486 206.864 103.009 206.864ZM113.692 199.072C114.758 199.072 115.622 199.397 116.284 200.048C116.945 200.688 117.276 201.616 117.276 202.832V208H115.836V203.04C115.836 202.165 115.617 201.499 115.18 201.04C114.742 200.571 114.145 200.336 113.388 200.336C112.62 200.336 112.006 200.576 111.548 201.056C111.1 201.536 110.876 202.235 110.876 203.152V208H109.42V199.232H110.876V200.48C111.164 200.032 111.553 199.685 112.044 199.44C112.545 199.195 113.094 199.072 113.692 199.072ZM125.734 201.52V202.752H119.35V201.52H125.734ZM132.082 199.088C132.84 199.088 133.501 199.253 134.066 199.584C134.642 199.915 135.069 200.331 135.346 200.832V199.232H136.818V208.192C136.818 208.992 136.648 209.701 136.306 210.32C135.965 210.949 135.474 211.44 134.834 211.792C134.205 212.144 133.469 212.32 132.626 212.32C131.474 212.32 130.514 212.048 129.746 211.504C128.978 210.96 128.525 210.219 128.386 209.28H129.826C129.986 209.813 130.317 210.24 130.818 210.56C131.32 210.891 131.922 211.056 132.626 211.056C133.426 211.056 134.077 210.805 134.578 210.304C135.09 209.803 135.346 209.099 135.346 208.192V206.352C135.058 206.864 134.632 207.291 134.066 207.632C133.501 207.973 132.84 208.144 132.082 208.144C131.304 208.144 130.594 207.952 129.954 207.568C129.325 207.184 128.829 206.645 128.466 205.952C128.104 205.259 127.922 204.469 127.922 203.584C127.922 202.688 128.104 201.904 128.466 201.232C128.829 200.549 129.325 200.021 129.954 199.648C130.594 199.275 131.304 199.088 132.082 199.088ZM135.346 203.6C135.346 202.939 135.213 202.363 134.946 201.872C134.68 201.381 134.317 201.008 133.858 200.752C133.41 200.485 132.914 200.352 132.37 200.352C131.826 200.352 131.33 200.48 130.882 200.736C130.434 200.992 130.077 201.365 129.81 201.856C129.544 202.347 129.41 202.923 129.41 203.584C129.41 204.256 129.544 204.843 129.81 205.344C130.077 205.835 130.434 206.213 130.882 206.48C131.33 206.736 131.826 206.864 132.37 206.864C132.914 206.864 133.41 206.736 133.858 206.48C134.317 206.213 134.68 205.835 134.946 205.344C135.213 204.843 135.346 204.261 135.346 203.6ZM143.103 208.144C142.282 208.144 141.535 207.957 140.863 207.584C140.202 207.211 139.679 206.683 139.295 206C138.922 205.307 138.735 204.507 138.735 203.6C138.735 202.704 138.927 201.915 139.311 201.232C139.706 200.539 140.239 200.011 140.911 199.648C141.583 199.275 142.335 199.088 143.167 199.088C143.999 199.088 144.751 199.275 145.423 199.648C146.095 200.011 146.623 200.533 147.007 201.216C147.402 201.899 147.599 202.693 147.599 203.6C147.599 204.507 147.396 205.307 146.991 206C146.596 206.683 146.058 207.211 145.375 207.584C144.692 207.957 143.935 208.144 143.103 208.144ZM143.103 206.864C143.626 206.864 144.116 206.741 144.575 206.496C145.034 206.251 145.402 205.883 145.679 205.392C145.967 204.901 146.111 204.304 146.111 203.6C146.111 202.896 145.972 202.299 145.695 201.808C145.418 201.317 145.055 200.955 144.607 200.72C144.159 200.475 143.674 200.352 143.151 200.352C142.618 200.352 142.127 200.475 141.679 200.72C141.242 200.955 140.89 201.317 140.623 201.808C140.356 202.299 140.223 202.896 140.223 203.6C140.223 204.315 140.351 204.917 140.607 205.408C140.874 205.899 141.226 206.267 141.663 206.512C142.1 206.747 142.58 206.864 143.103 206.864ZM150.265 197.808C149.988 197.808 149.753 197.712 149.561 197.52C149.369 197.328 149.273 197.093 149.273 196.816C149.273 196.539 149.369 196.304 149.561 196.112C149.753 195.92 149.988 195.824 150.265 195.824C150.532 195.824 150.756 195.92 150.937 196.112C151.129 196.304 151.225 196.539 151.225 196.816C151.225 197.093 151.129 197.328 150.937 197.52C150.756 197.712 150.532 197.808 150.265 197.808ZM150.969 199.232V208H149.513V199.232H150.969ZM157.723 199.072C158.789 199.072 159.653 199.397 160.315 200.048C160.976 200.688 161.307 201.616 161.307 202.832V208H159.867V203.04C159.867 202.165 159.648 201.499 159.211 201.04C158.773 200.571 158.176 200.336 157.419 200.336C156.651 200.336 156.037 200.576 155.579 201.056C155.131 201.536 154.907 202.235 154.907 203.152V208H153.451V199.232H154.907V200.48C155.195 200.032 155.584 199.685 156.075 199.44C156.576 199.195 157.125 199.072 157.723 199.072ZM167.301 199.088C168.058 199.088 168.72 199.253 169.285 199.584C169.861 199.915 170.288 200.331 170.565 200.832V199.232H172.037V208.192C172.037 208.992 171.866 209.701 171.525 210.32C171.184 210.949 170.693 211.44 170.053 211.792C169.424 212.144 168.688 212.32 167.845 212.32C166.693 212.32 165.733 212.048 164.965 211.504C164.197 210.96 163.744 210.219 163.605 209.28H165.045C165.205 209.813 165.536 210.24 166.037 210.56C166.538 210.891 167.141 211.056 167.845 211.056C168.645 211.056 169.296 210.805 169.797 210.304C170.309 209.803 170.565 209.099 170.565 208.192V206.352C170.277 206.864 169.85 207.291 169.285 207.632C168.72 207.973 168.058 208.144 167.301 208.144C166.522 208.144 165.813 207.952 165.173 207.568C164.544 207.184 164.048 206.645 163.685 205.952C163.322 205.259 163.141 204.469 163.141 203.584C163.141 202.688 163.322 201.904 163.685 201.232C164.048 200.549 164.544 200.021 165.173 199.648C165.813 199.275 166.522 199.088 167.301 199.088ZM170.565 203.6C170.565 202.939 170.432 202.363 170.165 201.872C169.898 201.381 169.536 201.008 169.077 200.752C168.629 200.485 168.133 200.352 167.589 200.352C167.045 200.352 166.549 200.48 166.101 200.736C165.653 200.992 165.296 201.365 165.029 201.856C164.762 202.347 164.629 202.923 164.629 203.584C164.629 204.256 164.762 204.843 165.029 205.344C165.296 205.835 165.653 206.213 166.101 206.48C166.549 206.736 167.045 206.864 167.589 206.864C168.133 206.864 168.629 206.736 169.077 206.48C169.536 206.213 169.898 205.835 170.165 205.344C170.432 204.843 170.565 204.261 170.565 203.6ZM180.219 200.848C180.507 200.347 180.934 199.931 181.499 199.6C182.075 199.259 182.742 199.088 183.499 199.088C184.278 199.088 184.982 199.275 185.611 199.648C186.251 200.021 186.753 200.549 187.115 201.232C187.478 201.904 187.659 202.688 187.659 203.584C187.659 204.469 187.478 205.259 187.115 205.952C186.753 206.645 186.251 207.184 185.611 207.568C184.982 207.952 184.278 208.144 183.499 208.144C182.753 208.144 182.091 207.979 181.515 207.648C180.95 207.307 180.518 206.885 180.219 206.384V212.16H178.763V199.232H180.219V200.848ZM186.171 203.584C186.171 202.923 186.038 202.347 185.771 201.856C185.505 201.365 185.142 200.992 184.683 200.736C184.235 200.48 183.739 200.352 183.195 200.352C182.662 200.352 182.166 200.485 181.707 200.752C181.259 201.008 180.897 201.387 180.619 201.888C180.353 202.379 180.219 202.949 180.219 203.6C180.219 204.261 180.353 204.843 180.619 205.344C180.897 205.835 181.259 206.213 181.707 206.48C182.166 206.736 182.662 206.864 183.195 206.864C183.739 206.864 184.235 206.736 184.683 206.48C185.142 206.213 185.505 205.835 185.771 205.344C186.038 204.843 186.171 204.256 186.171 203.584ZM191.032 200.656C191.288 200.155 191.65 199.765 192.12 199.488C192.6 199.211 193.181 199.072 193.864 199.072V200.576H193.48C191.848 200.576 191.032 201.461 191.032 203.232V208H189.576V199.232H191.032V200.656ZM199.369 208.144C198.547 208.144 197.801 207.957 197.129 207.584C196.467 207.211 195.945 206.683 195.561 206C195.187 205.307 195.001 204.507 195.001 203.6C195.001 202.704 195.193 201.915 195.577 201.232C195.971 200.539 196.505 200.011 197.177 199.648C197.849 199.275 198.601 199.088 199.433 199.088C200.265 199.088 201.017 199.275 201.689 199.648C202.361 200.011 202.889 200.533 203.273 201.216C203.667 201.899 203.865 202.693 203.865 203.6C203.865 204.507 203.662 205.307 203.257 206C202.862 206.683 202.323 207.211 201.641 207.584C200.958 207.957 200.201 208.144 199.369 208.144ZM199.369 206.864C199.891 206.864 200.382 206.741 200.841 206.496C201.299 206.251 201.667 205.883 201.945 205.392C202.233 204.901 202.377 204.304 202.377 203.6C202.377 202.896 202.238 202.299 201.961 201.808C201.683 201.317 201.321 200.955 200.873 200.72C200.425 200.475 199.939 200.352 199.417 200.352C198.883 200.352 198.393 200.475 197.945 200.72C197.507 200.955 197.155 201.317 196.889 201.808C196.622 202.299 196.489 202.896 196.489 203.6C196.489 204.315 196.617 204.917 196.873 205.408C197.139 205.899 197.491 206.267 197.929 206.512C198.366 206.747 198.846 206.864 199.369 206.864ZM206.563 197.808C206.286 197.808 206.051 197.712 205.859 197.52C205.678 197.328 205.587 197.093 205.587 196.816C205.587 196.539 205.678 196.304 205.859 196.112C206.051 195.92 206.286 195.824 206.563 195.824C206.84 195.824 207.07 195.92 207.251 196.112C207.443 196.304 207.539 196.539 207.539 196.816C207.539 197.093 207.443 197.328 207.251 197.52C207.07 197.712 206.84 197.808 206.563 197.808ZM207.283 209.904C207.283 210.683 207.086 211.253 206.691 211.616C206.296 211.979 205.72 212.16 204.963 212.16H204.115V210.928H204.723C205.128 210.928 205.411 210.848 205.571 210.688C205.742 210.528 205.827 210.256 205.827 209.872V199.232H207.283V209.904ZM217.748 203.28C217.748 203.557 217.732 203.851 217.7 204.16H210.692C210.745 205.024 211.038 205.701 211.572 206.192C212.116 206.672 212.772 206.912 213.54 206.912C214.169 206.912 214.692 206.768 215.108 206.48C215.534 206.181 215.833 205.787 216.004 205.296H217.572C217.337 206.139 216.868 206.827 216.164 207.36C215.46 207.883 214.585 208.144 213.54 208.144C212.708 208.144 211.961 207.957 211.3 207.584C210.649 207.211 210.137 206.683 209.764 206C209.39 205.307 209.204 204.507 209.204 203.6C209.204 202.693 209.385 201.899 209.748 201.216C210.11 200.533 210.617 200.011 211.268 199.648C211.929 199.275 212.686 199.088 213.54 199.088C214.372 199.088 215.108 199.269 215.748 199.632C216.388 199.995 216.878 200.496 217.22 201.136C217.572 201.765 217.748 202.48 217.748 203.28ZM216.244 202.976C216.244 202.421 216.121 201.947 215.876 201.552C215.63 201.147 215.294 200.843 214.868 200.64C214.452 200.427 213.988 200.32 213.476 200.32C212.74 200.32 212.11 200.555 211.588 201.024C211.076 201.493 210.782 202.144 210.708 202.976H216.244ZM219.126 203.6C219.126 202.693 219.307 201.904 219.67 201.232C220.032 200.549 220.534 200.021 221.174 199.648C221.824 199.275 222.566 199.088 223.398 199.088C224.475 199.088 225.36 199.349 226.054 199.872C226.758 200.395 227.222 201.12 227.446 202.048H225.878C225.728 201.515 225.435 201.093 224.998 200.784C224.571 200.475 224.038 200.32 223.398 200.32C222.566 200.32 221.894 200.608 221.382 201.184C220.87 201.749 220.614 202.555 220.614 203.6C220.614 204.656 220.87 205.472 221.382 206.048C221.894 206.624 222.566 206.912 223.398 206.912C224.038 206.912 224.571 206.763 224.998 206.464C225.424 206.165 225.718 205.739 225.878 205.184H227.446C227.211 206.08 226.742 206.8 226.038 207.344C225.334 207.877 224.454 208.144 223.398 208.144C222.566 208.144 221.824 207.957 221.174 207.584C220.534 207.211 220.032 206.683 219.67 206C219.307 205.317 219.126 204.517 219.126 203.6ZM231.164 200.432V205.6C231.164 206.027 231.255 206.331 231.436 206.512C231.618 206.683 231.932 206.768 232.38 206.768H233.452V208H232.14C231.33 208 230.722 207.813 230.316 207.44C229.911 207.067 229.708 206.453 229.708 205.6V200.432H228.572V199.232H229.708V197.024H231.164V199.232H233.452V200.432H231.164ZM238.32 208.144C237.648 208.144 237.046 208.032 236.512 207.808C235.979 207.573 235.558 207.253 235.248 206.848C234.939 206.432 234.768 205.957 234.736 205.424H236.24C236.283 205.861 236.486 206.219 236.848 206.496C237.222 206.773 237.707 206.912 238.304 206.912C238.859 206.912 239.296 206.789 239.616 206.544C239.936 206.299 240.096 205.989 240.096 205.616C240.096 205.232 239.926 204.949 239.584 204.768C239.243 204.576 238.715 204.389 238 204.208C237.35 204.037 236.816 203.867 236.4 203.696C235.995 203.515 235.643 203.253 235.344 202.912C235.056 202.56 234.912 202.101 234.912 201.536C234.912 201.088 235.046 200.677 235.312 200.304C235.579 199.931 235.958 199.637 236.448 199.424C236.939 199.2 237.499 199.088 238.128 199.088C239.099 199.088 239.883 199.333 240.48 199.824C241.078 200.315 241.398 200.987 241.44 201.84H239.984C239.952 201.381 239.766 201.013 239.424 200.736C239.094 200.459 238.646 200.32 238.08 200.32C237.558 200.32 237.142 200.432 236.832 200.656C236.523 200.88 236.368 201.173 236.368 201.536C236.368 201.824 236.459 202.064 236.64 202.256C236.832 202.437 237.067 202.587 237.344 202.704C237.632 202.811 238.027 202.933 238.528 203.072C239.158 203.243 239.67 203.413 240.064 203.584C240.459 203.744 240.795 203.989 241.072 204.32C241.36 204.651 241.51 205.083 241.52 205.616C241.52 206.096 241.387 206.528 241.12 206.912C240.854 207.296 240.475 207.6 239.984 207.824C239.504 208.037 238.95 208.144 238.32 208.144Z" fill="#495057"/>
<path fill-rule="evenodd" clip-rule="evenodd" d="M127.661 412.8C129.43 427.09 142.575 437.229 156.997 435.427C171.42 433.625 181.693 420.561 179.925 406.271C178.156 391.981 165.011 381.842 150.588 383.644C136.166 385.446 125.892 398.51 127.661 412.8Z" fill="#262725"/>
<path fill-rule="evenodd" clip-rule="evenodd" d="M200.709 359.333L160.765 388.368C159.099 389.596 158.23 391.949 158.558 395.13C159.209 401.454 164.346 408.668 170.022 411.229C172.803 412.484 175.2 412.392 176.846 411.227L216.959 382.067C215.311 383.3 212.873 383.423 210.036 382.143C204.36 379.581 199.223 372.366 198.571 366.042C198.248 362.907 199.088 360.576 200.709 359.333Z" fill="white"/>
<path fill-rule="evenodd" clip-rule="evenodd" d="M200.709 359.333L160.765 388.368C159.099 389.596 158.23 391.949 158.558 395.13C159.209 401.454 164.346 408.668 170.022 411.229C172.803 412.484 175.2 412.392 176.846 411.227L216.959 382.067C215.311 383.3 212.873 383.423 210.036 382.143C204.36 379.581 199.223 372.366 198.571 366.042C198.248 362.907 199.088 360.576 200.709 359.333Z" stroke="#262725" stroke-width="2" stroke-linecap="round" stroke-linejoin="round"/>
<path fill-rule="evenodd" clip-rule="evenodd" d="M198.581 366.014C199.232 372.336 204.367 379.549 210.042 382.109C215.716 384.67 219.795 381.616 219.143 375.294C218.492 368.971 213.356 361.759 207.682 359.199C202.007 356.638 197.929 359.691 198.581 366.014Z" fill="#262725"/>
<path fill-rule="evenodd" clip-rule="evenodd" d="M198.581 366.014C199.232 372.336 204.367 379.549 210.042 382.109C215.716 384.67 219.795 381.616 219.143 375.294C218.492 368.971 213.356 361.759 207.682 359.199C202.007 356.638 197.929 359.691 198.581 366.014Z" stroke="#262725" stroke-width="2" stroke-linecap="round" stroke-linejoin="round"/>
<path fill-rule="evenodd" clip-rule="evenodd" d="M242.022 461.485C256.057 465.081 270.338 456.571 273.893 442.493C277.448 428.415 268.94 414.066 254.905 410.47C240.87 406.874 226.589 415.384 223.034 429.462C219.478 443.54 227.987 457.889 242.022 461.485Z" fill="#262725"/>
<path fill-rule="evenodd" clip-rule="evenodd" d="M215.997 368.781L229.842 422.115C230.436 424.346 232.511 426.207 235.92 427.162C242.697 429.059 252.196 426.657 257.119 421.8C259.53 419.421 260.399 416.893 259.861 414.707L245.956 361.146C246.563 363.361 245.709 365.945 243.249 368.372C238.326 373.229 228.827 375.631 222.049 373.734C218.689 372.793 216.625 370.971 215.997 368.781Z" fill="white"/>
<path fill-rule="evenodd" clip-rule="evenodd" d="M215.997 368.781L229.842 422.115C230.436 424.346 232.511 426.207 235.92 427.162C242.697 429.059 252.196 426.657 257.119 421.8C259.53 419.421 260.399 416.893 259.861 414.707L245.956 361.146C246.563 363.361 245.709 365.945 243.249 368.372C238.326 373.229 228.827 375.631 222.049 373.734C218.689 372.793 216.625 370.971 215.997 368.781Z" stroke="#262725" stroke-width="2" stroke-linecap="round" stroke-linejoin="round"/>
<path fill-rule="evenodd" clip-rule="evenodd" d="M222.074 373.741C228.852 375.638 238.354 373.236 243.277 368.378C248.201 363.521 246.694 358.036 239.915 356.138C233.136 354.24 223.635 356.643 218.712 361.501C213.788 366.358 215.294 371.843 222.074 373.741Z" fill="#262725"/>
<path fill-rule="evenodd" clip-rule="evenodd" d="M222.074 373.741C228.852 375.638 238.354 373.236 243.277 368.378C248.201 363.521 246.694 358.036 239.915 356.138C233.136 354.24 223.635 356.643 218.712 361.501C213.788 366.358 215.294 371.843 222.074 373.741Z" stroke="#262725" stroke-width="2" stroke-linecap="round" stroke-linejoin="round"/>
<path fill-rule="evenodd" clip-rule="evenodd" d="M298.106 395.314C303.843 390.585 304.683 382.07 299.981 376.311C295.279 370.552 286.804 369.716 281.067 374.446C275.331 379.175 274.491 387.69 279.193 393.449C283.895 399.207 292.37 400.043 298.106 395.314Z" fill="#262725"/>
<path fill-rule="evenodd" clip-rule="evenodd" d="M252.124 377.927L278.226 388.397C279.323 388.829 280.717 388.534 282.144 387.409C284.982 385.173 286.881 380.5 286.383 376.981C286.138 375.257 285.364 374.127 284.304 373.686L258.091 363.171C259.184 363.593 259.985 364.733 260.235 366.492C260.733 370.012 258.834 374.685 255.996 376.921C254.589 378.029 253.214 378.332 252.124 377.927Z" fill="white"/>
<path fill-rule="evenodd" clip-rule="evenodd" d="M252.124 377.927L278.226 388.397C279.323 388.829 280.717 388.534 282.144 387.409C284.982 385.173 286.881 380.5 286.383 376.981C286.138 375.257 285.364 374.127 284.304 373.686L258.091 363.171C259.184 363.593 259.985 364.733 260.235 366.492C260.733 370.012 258.834 374.685 255.996 376.921C254.589 378.029 253.214 378.332 252.124 377.927Z" stroke="#262725" stroke-width="2" stroke-linecap="round" stroke-linejoin="round"/>
<path fill-rule="evenodd" clip-rule="evenodd" d="M255.998 376.914C258.835 374.678 260.735 370.004 260.237 366.484C259.738 362.964 257.029 361.922 254.191 364.158C251.352 366.395 249.453 371.068 249.952 374.588C250.45 378.108 253.159 379.151 255.998 376.914Z" fill="#262725"/>
<path fill-rule="evenodd" clip-rule="evenodd" d="M255.998 376.914C258.835 374.678 260.735 370.004 260.237 366.484C259.738 362.964 257.029 361.922 254.191 364.158C251.352 366.395 249.453 371.068 249.952 374.588C250.45 378.108 253.159 379.151 255.998 376.914Z" stroke="#262725" stroke-width="2" stroke-linecap="round" stroke-linejoin="round"/>
<path d="M181.981 359.49C181.981 382.54 200.606 401.25 223.541 401.25C246.476 401.25 265.101 382.54 265.101 359.49C265.101 336.44 246.476 317.73 223.541 317.73C200.606 317.73 181.981 336.44 181.981 359.49Z" fill="#6033ED" stroke="black"/>
<path fill-rule="evenodd" clip-rule="evenodd" d="M249.363 283.344L224.552 326.683C223.524 328.506 223.69 331.035 225.295 333.828C228.486 339.381 236.165 343.889 242.432 343.889C245.501 343.889 247.666 342.808 248.702 341.051L273.618 297.526C272.609 299.346 270.418 300.472 267.286 300.472C261.019 300.472 253.34 295.963 250.149 290.41C248.567 287.657 248.383 285.162 249.363 283.344Z" fill="white"/>
<path fill-rule="evenodd" clip-rule="evenodd" d="M249.363 283.344L224.552 326.683C223.524 328.506 223.69 331.035 225.295 333.828C228.486 339.381 236.165 343.889 242.432 343.889C245.501 343.889 247.666 342.808 248.702 341.051L273.618 297.526C272.609 299.346 270.418 300.472 267.286 300.472C261.019 300.472 253.34 295.963 250.149 290.41C248.567 287.657 248.383 285.162 249.363 283.344Z" stroke="#262725" stroke-width="2" stroke-linecap="round" stroke-linejoin="round"/>
<path fill-rule="evenodd" clip-rule="evenodd" d="M250.149 290.41C253.34 295.963 261.019 300.472 267.286 300.472C273.553 300.472 276.05 295.963 272.859 290.41C269.668 284.857 261.989 280.348 255.722 280.348C249.455 280.348 246.958 284.857 250.149 290.41Z" fill="#262725"/>
<path fill-rule="evenodd" clip-rule="evenodd" d="M250.149 290.41C253.34 295.963 261.019 300.472 267.286 300.472C273.553 300.472 276.05 295.963 272.859 290.41C269.668 284.857 261.989 280.348 255.722 280.348C249.455 280.348 246.958 284.857 250.149 290.41Z" stroke="#262725" stroke-width="2" stroke-linecap="round" stroke-linejoin="round"/>
<path fill-rule="evenodd" clip-rule="evenodd" d="M239.174 273.878C239.174 290.921 252.944 304.757 269.906 304.757C286.868 304.757 300.638 290.921 300.638 273.878C300.638 256.836 286.868 243 269.906 243C252.944 243 239.174 256.836 239.174 273.878Z" fill="#262725"/>
<path fill-rule="evenodd" clip-rule="evenodd" d="M168.339 320.639L193.512 344.162C194.573 345.141 196.292 345.426 198.411 344.782C202.624 343.5 206.834 339.03 207.806 334.804C208.282 332.734 207.894 331.105 206.877 330.131L181.597 306.508C182.659 307.474 183.074 309.128 182.588 311.24C181.616 315.465 177.406 319.936 173.193 321.217C171.104 321.852 169.405 321.585 168.339 320.639Z" fill="white"/>
<path fill-rule="evenodd" clip-rule="evenodd" d="M168.339 320.639L193.512 344.162C194.573 345.141 196.292 345.426 198.411 344.782C202.624 343.5 206.834 339.03 207.806 334.804C208.282 332.734 207.894 331.105 206.877 330.131L181.597 306.508C182.659 307.474 183.074 309.128 182.588 311.24C181.616 315.465 177.406 319.936 173.193 321.217C171.104 321.852 169.405 321.585 168.339 320.639Z" stroke="#262725" stroke-width="2" stroke-linecap="round" stroke-linejoin="round"/>
<path fill-rule="evenodd" clip-rule="evenodd" d="M173.22 321.227C177.435 319.945 181.647 315.472 182.619 311.245C183.591 307.017 180.958 304.626 176.743 305.907C172.528 307.189 168.316 311.662 167.344 315.889C166.372 320.117 169.004 322.509 173.22 321.227Z" fill="#262725"/>
<path fill-rule="evenodd" clip-rule="evenodd" d="M173.22 321.227C177.435 319.945 181.647 315.472 182.619 311.245C183.591 307.017 180.958 304.626 176.743 305.907C172.528 307.189 168.316 311.662 167.344 315.889C166.372 320.117 169.004 322.509 173.22 321.227Z" stroke="#262725" stroke-width="2" stroke-linecap="round" stroke-linejoin="round"/>
<path fill-rule="evenodd" clip-rule="evenodd" d="M160.458 326.051C171.867 328.718 183.269 321.592 185.905 310.148C188.541 298.703 181.419 287.247 170.01 284.58C158.601 281.913 147.199 289.039 144.563 300.483C141.927 311.928 149.049 323.384 160.458 326.051Z" fill="#262725"/>
</svg>
