<svg width="786" height="301" viewBox="0 0 786 301" fill="none" xmlns="http://www.w3.org/2000/svg">
<rect x="0.5" y="0.801147" width="785" height="299" rx="19.5" fill="white"/>
<rect x="0.5" y="0.801147" width="785" height="299" rx="19.5" stroke="#556AEB"/>
<rect x="32" y="53.3011" width="48" height="48" rx="8" fill="#212529"/>
<path d="M52.2131 83.3011V82.0284L56.1506 77.9489C56.571 77.5057 56.9176 77.1174 57.1903 76.7841C57.4669 76.447 57.6733 76.1269 57.8097 75.8239C57.946 75.5208 58.0142 75.1989 58.0142 74.858C58.0142 74.4716 57.9233 74.1383 57.7415 73.858C57.5597 73.5739 57.3116 73.3561 56.9972 73.2046C56.6828 73.0493 56.3286 72.9716 55.9347 72.9716C55.518 72.9716 55.1544 73.0568 54.8438 73.2273C54.5331 73.3977 54.2945 73.6383 54.1278 73.9489C53.9612 74.2595 53.8778 74.6231 53.8778 75.0398H52.2017C52.2017 74.3315 52.3646 73.7121 52.6903 73.1818C53.0161 72.6515 53.4631 72.2405 54.0312 71.9489C54.5994 71.6534 55.2453 71.5057 55.9688 71.5057C56.6998 71.5057 57.3438 71.6515 57.9006 71.9432C58.4612 72.2311 58.8987 72.625 59.2131 73.125C59.5275 73.6212 59.6847 74.1818 59.6847 74.8068C59.6847 75.2386 59.6032 75.661 59.4403 76.0739C59.2813 76.4868 59.0028 76.947 58.6051 77.4546C58.2074 77.9583 57.6544 78.5701 56.946 79.2898L54.6335 81.7102V81.7955H59.8722V83.3011H52.2131Z" fill="white"/>
<path d="M47.552 123.549V140.301H44.192V133.173H37.016V140.301H33.656V123.549H37.016V130.437H44.192V123.549H47.552ZM63.4111 127.005V140.301H60.0271V138.621C59.5951 139.197 59.0271 139.653 58.3231 139.989C57.6351 140.309 56.8831 140.469 56.0671 140.469C55.0271 140.469 54.1071 140.253 53.3071 139.821C52.5071 139.373 51.8751 138.725 51.4111 137.877C50.9631 137.013 50.7391 135.989 50.7391 134.805V127.005H54.0991V134.325C54.0991 135.381 54.3631 136.197 54.8911 136.773C55.4191 137.333 56.1391 137.613 57.0511 137.613C57.9791 137.613 58.7071 137.333 59.2351 136.773C59.7631 136.197 60.0271 135.381 60.0271 134.325V127.005H63.4111ZM70.0863 128.949C70.5183 128.309 71.1103 127.789 71.8623 127.389C72.6303 126.989 73.5023 126.789 74.4783 126.789C75.6143 126.789 76.6383 127.069 77.5503 127.629C78.4783 128.189 79.2063 128.989 79.7343 130.029C80.2783 131.053 80.5503 132.245 80.5503 133.605C80.5503 134.965 80.2783 136.173 79.7343 137.229C79.2063 138.269 78.4783 139.077 77.5503 139.653C76.6383 140.229 75.6143 140.517 74.4783 140.517C73.4863 140.517 72.6143 140.325 71.8623 139.941C71.1263 139.541 70.5343 139.029 70.0863 138.405V140.301H66.7263V122.541H70.0863V128.949ZM77.1183 133.605C77.1183 132.805 76.9503 132.117 76.6143 131.541C76.2943 130.949 75.8623 130.501 75.3183 130.197C74.7903 129.893 74.2143 129.741 73.5903 129.741C72.9823 129.741 72.4063 129.901 71.8623 130.221C71.3343 130.525 70.9023 130.973 70.5663 131.565C70.2463 132.157 70.0863 132.853 70.0863 133.653C70.0863 134.453 70.2463 135.149 70.5663 135.741C70.9023 136.333 71.3343 136.789 71.8623 137.109C72.4063 137.413 72.9823 137.565 73.5903 137.565C74.2143 137.565 74.7903 137.405 75.3183 137.085C75.8623 136.765 76.2943 136.309 76.6143 135.717C76.9503 135.125 77.1183 134.421 77.1183 133.605ZM32.84 161.901C32.84 160.253 33.208 158.781 33.944 157.485C34.696 156.173 35.712 155.157 36.992 154.437C38.288 153.701 39.736 153.333 41.336 153.333C43.208 153.333 44.848 153.813 46.256 154.773C47.664 155.733 48.648 157.061 49.208 158.757H45.344C44.96 157.957 44.416 157.357 43.712 156.957C43.024 156.557 42.224 156.357 41.312 156.357C40.336 156.357 39.464 156.589 38.696 157.053C37.944 157.501 37.352 158.141 36.92 158.973C36.504 159.805 36.296 160.781 36.296 161.901C36.296 163.005 36.504 163.981 36.92 164.829C37.352 165.661 37.944 166.309 38.696 166.773C39.464 167.221 40.336 167.445 41.312 167.445C42.224 167.445 43.024 167.245 43.712 166.845C44.416 166.429 44.96 165.821 45.344 165.021H49.208C48.648 166.733 47.664 168.069 46.256 169.029C44.864 169.973 43.224 170.445 41.336 170.445C39.736 170.445 38.288 170.085 36.992 169.365C35.712 168.629 34.696 167.613 33.944 166.317C33.208 165.021 32.84 163.549 32.84 161.901ZM57.9819 170.517C56.7019 170.517 55.5499 170.237 54.5259 169.677C53.5019 169.101 52.6939 168.293 52.1019 167.253C51.5259 166.213 51.2379 165.013 51.2379 163.653C51.2379 162.293 51.5339 161.093 52.1259 160.053C52.7339 159.013 53.5579 158.213 54.5979 157.653C55.6379 157.077 56.7979 156.789 58.0779 156.789C59.3579 156.789 60.5179 157.077 61.5579 157.653C62.5979 158.213 63.4139 159.013 64.0059 160.053C64.6139 161.093 64.9179 162.293 64.9179 163.653C64.9179 165.013 64.6059 166.213 63.9819 167.253C63.3739 168.293 62.5419 169.101 61.4859 169.677C60.4459 170.237 59.2779 170.517 57.9819 170.517ZM57.9819 167.589C58.5899 167.589 59.1579 167.445 59.6859 167.157C60.2299 166.853 60.6619 166.405 60.9819 165.813C61.3019 165.221 61.4619 164.501 61.4619 163.653C61.4619 162.389 61.1259 161.421 60.4539 160.749C59.7979 160.061 58.9899 159.717 58.0299 159.717C57.0699 159.717 56.2619 160.061 55.6059 160.749C54.9659 161.421 54.6459 162.389 54.6459 163.653C54.6459 164.917 54.9579 165.893 55.5819 166.581C56.2219 167.253 57.0219 167.589 57.9819 167.589ZM74.7506 156.813C76.3346 156.813 77.6146 157.317 78.5906 158.325C79.5666 159.317 80.0546 160.709 80.0546 162.501V170.301H76.6946V162.957C76.6946 161.901 76.4306 161.093 75.9026 160.533C75.3746 159.957 74.6546 159.669 73.7426 159.669C72.8146 159.669 72.0786 159.957 71.5346 160.533C71.0066 161.093 70.7426 161.901 70.7426 162.957V170.301H67.3826V157.005H70.7426V158.661C71.1906 158.085 71.7586 157.637 72.4466 157.317C73.1506 156.981 73.9186 156.813 74.7506 156.813ZM90.6178 156.813C92.2018 156.813 93.4818 157.317 94.4578 158.325C95.4338 159.317 95.9218 160.709 95.9218 162.501V170.301H92.5618V162.957C92.5618 161.901 92.2978 161.093 91.7698 160.533C91.2418 159.957 90.5218 159.669 89.6098 159.669C88.6818 159.669 87.9458 159.957 87.4018 160.533C86.8738 161.093 86.6098 161.901 86.6098 162.957V170.301H83.2498V157.005H86.6098V158.661C87.0578 158.085 87.6258 157.637 88.3138 157.317C89.0178 156.981 89.7858 156.813 90.6178 156.813ZM111.477 163.365C111.477 163.845 111.445 164.277 111.381 164.661H101.661C101.741 165.621 102.077 166.373 102.669 166.917C103.261 167.461 103.989 167.733 104.853 167.733C106.101 167.733 106.989 167.197 107.517 166.125H111.141C110.757 167.405 110.021 168.461 108.933 169.293C107.845 170.109 106.509 170.517 104.925 170.517C103.645 170.517 102.493 170.237 101.469 169.677C100.461 169.101 99.6689 168.293 99.0929 167.253C98.5329 166.213 98.2529 165.013 98.2529 163.653C98.2529 162.277 98.5329 161.069 99.0929 160.029C99.6529 158.989 100.437 158.189 101.445 157.629C102.453 157.069 103.613 156.789 104.925 156.789C106.189 156.789 107.317 157.061 108.309 157.605C109.317 158.149 110.093 158.925 110.637 159.933C111.197 160.925 111.477 162.069 111.477 163.365ZM107.997 162.405C107.981 161.541 107.669 160.853 107.061 160.341C106.453 159.813 105.709 159.549 104.829 159.549C103.997 159.549 103.293 159.805 102.717 160.317C102.157 160.813 101.813 161.509 101.685 162.405H107.997ZM113.065 163.653C113.065 162.277 113.345 161.077 113.905 160.053C114.465 159.013 115.241 158.213 116.233 157.653C117.225 157.077 118.361 156.789 119.641 156.789C121.289 156.789 122.649 157.205 123.721 158.037C124.809 158.853 125.537 160.005 125.905 161.493H122.281C122.089 160.917 121.761 160.469 121.297 160.149C120.849 159.813 120.289 159.645 119.617 159.645C118.657 159.645 117.897 159.997 117.337 160.701C116.777 161.389 116.497 162.373 116.497 163.653C116.497 164.917 116.777 165.901 117.337 166.605C117.897 167.293 118.657 167.637 119.617 167.637C120.977 167.637 121.865 167.029 122.281 165.813H125.905C125.537 167.253 124.809 168.397 123.721 169.245C122.633 170.093 121.273 170.517 119.641 170.517C118.361 170.517 117.225 170.237 116.233 169.677C115.241 169.101 114.465 168.301 113.905 167.277C113.345 166.237 113.065 165.029 113.065 163.653ZM132.279 159.765V166.197C132.279 166.645 132.383 166.973 132.591 167.181C132.815 167.373 133.183 167.469 133.695 167.469H135.255V170.301H133.143C130.311 170.301 128.895 168.925 128.895 166.173V159.765H127.311V157.005H128.895V153.717H132.279V157.005H135.255V159.765H132.279ZM139.376 155.421C138.784 155.421 138.288 155.237 137.888 154.869C137.504 154.485 137.312 154.013 137.312 153.453C137.312 152.893 137.504 152.429 137.888 152.061C138.288 151.677 138.784 151.485 139.376 151.485C139.968 151.485 140.456 151.677 140.84 152.061C141.24 152.429 141.44 152.893 141.44 153.453C141.44 154.013 141.24 154.485 140.84 154.869C140.456 155.237 139.968 155.421 139.376 155.421ZM141.032 157.005V170.301H137.672V157.005H141.032ZM150.255 170.517C148.975 170.517 147.823 170.237 146.799 169.677C145.775 169.101 144.967 168.293 144.375 167.253C143.799 166.213 143.511 165.013 143.511 163.653C143.511 162.293 143.807 161.093 144.399 160.053C145.007 159.013 145.831 158.213 146.871 157.653C147.911 157.077 149.071 156.789 150.351 156.789C151.631 156.789 152.791 157.077 153.831 157.653C154.871 158.213 155.687 159.013 156.279 160.053C156.887 161.093 157.191 162.293 157.191 163.653C157.191 165.013 156.879 166.213 156.255 167.253C155.647 168.293 154.815 169.101 153.759 169.677C152.719 170.237 151.551 170.517 150.255 170.517ZM150.255 167.589C150.863 167.589 151.431 167.445 151.959 167.157C152.503 166.853 152.935 166.405 153.255 165.813C153.575 165.221 153.735 164.501 153.735 163.653C153.735 162.389 153.399 161.421 152.727 160.749C152.071 160.061 151.263 159.717 150.303 159.717C149.343 159.717 148.535 160.061 147.879 160.749C147.239 161.421 146.919 162.389 146.919 163.653C146.919 164.917 147.231 165.893 147.855 166.581C148.495 167.253 149.295 167.589 150.255 167.589ZM167.024 156.813C168.608 156.813 169.888 157.317 170.864 158.325C171.84 159.317 172.328 160.709 172.328 162.501V170.301H168.968V162.957C168.968 161.901 168.704 161.093 168.176 160.533C167.648 159.957 166.928 159.669 166.016 159.669C165.088 159.669 164.352 159.957 163.808 160.533C163.28 161.093 163.016 161.901 163.016 162.957V170.301H159.656V157.005H163.016V158.661C163.464 158.085 164.032 157.637 164.72 157.317C165.424 156.981 166.192 156.813 167.024 156.813Z" fill="#212529"/>
<path d="M39.074 213.427C37.91 213.427 36.848 213.157 35.888 212.617C34.928 212.065 34.166 211.303 33.602 210.331C33.05 209.347 32.774 208.243 32.774 207.019C32.774 205.795 33.05 204.697 33.602 203.725C34.166 202.741 34.928 201.979 35.888 201.439C36.848 200.887 37.91 200.611 39.074 200.611C40.25 200.611 41.318 200.887 42.278 201.439C43.238 201.979 43.994 202.735 44.546 203.707C45.098 204.679 45.374 205.783 45.374 207.019C45.374 208.255 45.098 209.359 44.546 210.331C43.994 211.303 43.238 212.065 42.278 212.617C41.318 213.157 40.25 213.427 39.074 213.427ZM39.074 212.005C39.95 212.005 40.736 211.801 41.432 211.393C42.14 210.985 42.692 210.403 43.088 209.647C43.496 208.891 43.7 208.015 43.7 207.019C43.7 206.011 43.496 205.135 43.088 204.391C42.692 203.635 42.146 203.053 41.45 202.645C40.754 202.237 39.962 202.033 39.074 202.033C38.186 202.033 37.394 202.237 36.698 202.645C36.002 203.053 35.45 203.635 35.042 204.391C34.646 205.135 34.448 206.011 34.448 207.019C34.448 208.015 34.646 208.891 35.042 209.647C35.45 210.403 36.002 210.985 36.698 211.393C37.406 211.801 38.198 212.005 39.074 212.005ZM52.3424 203.257C53.5424 203.257 54.5144 203.623 55.2584 204.355C56.0024 205.075 56.3744 206.119 56.3744 207.487V213.301H54.7544V207.721C54.7544 206.737 54.5084 205.987 54.0164 205.471C53.5244 204.943 52.8524 204.679 52.0004 204.679C51.1364 204.679 50.4464 204.949 49.9304 205.489C49.4264 206.029 49.1744 206.815 49.1744 207.847V213.301H47.5364V203.437H49.1744V204.841C49.4984 204.337 49.9364 203.947 50.4884 203.671C51.0524 203.395 51.6704 203.257 52.3424 203.257ZM60.6881 205.273C61.0241 204.685 61.5161 204.205 62.1641 203.833C62.8121 203.461 63.5501 203.275 64.3781 203.275C65.2661 203.275 66.0641 203.485 66.7721 203.905C67.4801 204.325 68.0381 204.919 68.4461 205.687C68.8541 206.443 69.0581 207.325 69.0581 208.333C69.0581 209.329 68.8541 210.217 68.4461 210.997C68.0381 211.777 67.4741 212.383 66.7541 212.815C66.0461 213.247 65.2541 213.463 64.3781 213.463C63.5261 213.463 62.7761 213.277 62.1281 212.905C61.4921 212.533 61.0121 212.059 60.6881 211.483V213.301H59.0501V199.981H60.6881V205.273ZM67.3841 208.333C67.3841 207.589 67.2341 206.941 66.9341 206.389C66.6341 205.837 66.2261 205.417 65.7101 205.129C65.2061 204.841 64.6481 204.697 64.0361 204.697C63.4361 204.697 62.8781 204.847 62.3621 205.147C61.8581 205.435 61.4501 205.861 61.1381 206.425C60.8381 206.977 60.6881 207.619 60.6881 208.351C60.6881 209.095 60.8381 209.749 61.1381 210.313C61.4501 210.865 61.8581 211.291 62.3621 211.591C62.8781 211.879 63.4361 212.023 64.0361 212.023C64.6481 212.023 65.2061 211.879 65.7101 211.591C66.2261 211.291 66.6341 210.865 66.9341 210.313C67.2341 209.749 67.3841 209.089 67.3841 208.333ZM75.5161 213.463C74.5921 213.463 73.7521 213.253 72.9961 212.833C72.2521 212.413 71.6641 211.819 71.2321 211.051C70.8121 210.271 70.6021 209.371 70.6021 208.351C70.6021 207.343 70.8181 206.455 71.2501 205.687C71.6941 204.907 72.2941 204.313 73.0501 203.905C73.8061 203.485 74.6521 203.275 75.5881 203.275C76.5241 203.275 77.3701 203.485 78.1261 203.905C78.8821 204.313 79.4761 204.901 79.9081 205.669C80.3521 206.437 80.5741 207.331 80.5741 208.351C80.5741 209.371 80.3461 210.271 79.8901 211.051C79.4461 211.819 78.8401 212.413 78.0721 212.833C77.3041 213.253 76.4521 213.463 75.5161 213.463ZM75.5161 212.023C76.1041 212.023 76.6561 211.885 77.1721 211.609C77.6881 211.333 78.1021 210.919 78.4141 210.367C78.7381 209.815 78.9001 209.143 78.9001 208.351C78.9001 207.559 78.7441 206.887 78.4321 206.335C78.1201 205.783 77.7121 205.375 77.2081 205.111C76.7041 204.835 76.1581 204.697 75.5701 204.697C74.9701 204.697 74.4181 204.835 73.9141 205.111C73.4221 205.375 73.0261 205.783 72.7261 206.335C72.4261 206.887 72.2761 207.559 72.2761 208.351C72.2761 209.155 72.4201 209.833 72.7081 210.385C73.0081 210.937 73.4041 211.351 73.8961 211.627C74.3881 211.891 74.9281 212.023 75.5161 212.023ZM82.1158 208.333C82.1158 207.325 82.3198 206.443 82.7278 205.687C83.1358 204.919 83.6938 204.325 84.4018 203.905C85.1218 203.485 85.9198 203.275 86.7958 203.275C87.6598 203.275 88.4098 203.461 89.0458 203.833C89.6818 204.205 90.1558 204.673 90.4678 205.237V203.437H92.1238V213.301H90.4678V211.465C90.1438 212.041 89.6578 212.521 89.0098 212.905C88.3738 213.277 87.6298 213.463 86.7778 213.463C85.9018 213.463 85.1098 213.247 84.4018 212.815C83.6938 212.383 83.1358 211.777 82.7278 210.997C82.3198 210.217 82.1158 209.329 82.1158 208.333ZM90.4678 208.351C90.4678 207.607 90.3178 206.959 90.0178 206.407C89.7178 205.855 89.3098 205.435 88.7938 205.147C88.2898 204.847 87.7318 204.697 87.1198 204.697C86.5078 204.697 85.9498 204.841 85.4458 205.129C84.9418 205.417 84.5398 205.837 84.2398 206.389C83.9398 206.941 83.7898 207.589 83.7898 208.333C83.7898 209.089 83.9398 209.749 84.2398 210.313C84.5398 210.865 84.9418 211.291 85.4458 211.591C85.9498 211.879 86.5078 212.023 87.1198 212.023C87.7318 212.023 88.2898 211.879 88.7938 211.591C89.3098 211.291 89.7178 210.865 90.0178 210.313C90.3178 209.749 90.4678 209.095 90.4678 208.351ZM96.5299 205.039C96.8179 204.475 97.2259 204.037 97.7539 203.725C98.2939 203.413 98.9479 203.257 99.7159 203.257V204.949H99.2839C97.4479 204.949 96.5299 205.945 96.5299 207.937V213.301H94.8919V203.437H96.5299V205.039ZM100.995 208.333C100.995 207.325 101.199 206.443 101.607 205.687C102.015 204.919 102.573 204.325 103.281 203.905C104.001 203.485 104.805 203.275 105.693 203.275C106.461 203.275 107.175 203.455 107.835 203.815C108.495 204.163 108.999 204.625 109.347 205.201V199.981H111.003V213.301H109.347V211.447C109.023 212.035 108.543 212.521 107.907 212.905C107.271 213.277 106.527 213.463 105.675 213.463C104.799 213.463 104.001 213.247 103.281 212.815C102.573 212.383 102.015 211.777 101.607 210.997C101.199 210.217 100.995 209.329 100.995 208.333ZM109.347 208.351C109.347 207.607 109.197 206.959 108.897 206.407C108.597 205.855 108.189 205.435 107.673 205.147C107.169 204.847 106.611 204.697 105.999 204.697C105.387 204.697 104.829 204.841 104.325 205.129C103.821 205.417 103.419 205.837 103.119 206.389C102.819 206.941 102.669 207.589 102.669 208.333C102.669 209.089 102.819 209.749 103.119 210.313C103.419 210.865 103.821 211.291 104.325 211.591C104.829 211.879 105.387 212.023 105.999 212.023C106.611 212.023 107.169 211.879 107.673 211.591C108.189 211.291 108.597 210.865 108.897 210.313C109.197 209.749 109.347 209.095 109.347 208.351ZM127.066 203.437L121.126 217.945H119.434L121.378 213.193L117.4 203.437H119.218L122.314 211.429L125.374 203.437H127.066ZM133.014 213.463C132.09 213.463 131.25 213.253 130.494 212.833C129.75 212.413 129.162 211.819 128.73 211.051C128.31 210.271 128.1 209.371 128.1 208.351C128.1 207.343 128.316 206.455 128.748 205.687C129.192 204.907 129.792 204.313 130.548 203.905C131.304 203.485 132.15 203.275 133.086 203.275C134.022 203.275 134.868 203.485 135.624 203.905C136.38 204.313 136.974 204.901 137.406 205.669C137.85 206.437 138.072 207.331 138.072 208.351C138.072 209.371 137.844 210.271 137.388 211.051C136.944 211.819 136.338 212.413 135.57 212.833C134.802 213.253 133.95 213.463 133.014 213.463ZM133.014 212.023C133.602 212.023 134.154 211.885 134.67 211.609C135.186 211.333 135.6 210.919 135.912 210.367C136.236 209.815 136.398 209.143 136.398 208.351C136.398 207.559 136.242 206.887 135.93 206.335C135.618 205.783 135.21 205.375 134.706 205.111C134.202 204.835 133.656 204.697 133.068 204.697C132.468 204.697 131.916 204.835 131.412 205.111C130.92 205.375 130.524 205.783 130.224 206.335C129.924 206.887 129.774 207.559 129.774 208.351C129.774 209.155 129.918 209.833 130.206 210.385C130.506 210.937 130.902 211.351 131.394 211.627C131.886 211.891 132.426 212.023 133.014 212.023ZM148.974 203.437V213.301H147.336V211.843C147.024 212.347 146.586 212.743 146.022 213.031C145.47 213.307 144.858 213.445 144.186 213.445C143.418 213.445 142.728 213.289 142.116 212.977C141.504 212.653 141.018 212.173 140.658 211.537C140.31 210.901 140.136 210.127 140.136 209.215V203.437H141.756V208.999C141.756 209.971 142.002 210.721 142.494 211.249C142.986 211.765 143.658 212.023 144.51 212.023C145.386 212.023 146.076 211.753 146.58 211.213C147.084 210.673 147.336 209.887 147.336 208.855V203.437H148.974ZM153.378 205.039C153.666 204.475 154.074 204.037 154.602 203.725C155.142 203.413 155.796 203.257 156.564 203.257V204.949H156.132C154.296 204.949 153.378 205.945 153.378 207.937V213.301H151.74V203.437H153.378V205.039ZM162.641 208.351C162.641 207.331 162.845 206.443 163.253 205.687C163.661 204.919 164.225 204.325 164.945 203.905C165.677 203.485 166.511 203.275 167.447 203.275C168.659 203.275 169.655 203.569 170.435 204.157C171.227 204.745 171.749 205.561 172.001 206.605H170.237C170.069 206.005 169.739 205.531 169.247 205.183C168.767 204.835 168.167 204.661 167.447 204.661C166.511 204.661 165.755 204.985 165.179 205.633C164.603 206.269 164.315 207.175 164.315 208.351C164.315 209.539 164.603 210.457 165.179 211.105C165.755 211.753 166.511 212.077 167.447 212.077C168.167 212.077 168.767 211.909 169.247 211.573C169.727 211.237 170.057 210.757 170.237 210.133H172.001C171.737 211.141 171.209 211.951 170.417 212.563C169.625 213.163 168.635 213.463 167.447 213.463C166.511 213.463 165.677 213.253 164.945 212.833C164.225 212.413 163.661 211.819 163.253 211.051C162.845 210.283 162.641 209.383 162.641 208.351ZM175.825 199.981V213.301H174.187V199.981H175.825ZM179.462 201.835C179.15 201.835 178.886 201.727 178.67 201.511C178.454 201.295 178.346 201.031 178.346 200.719C178.346 200.407 178.454 200.143 178.67 199.927C178.886 199.711 179.15 199.603 179.462 199.603C179.762 199.603 180.014 199.711 180.218 199.927C180.434 200.143 180.542 200.407 180.542 200.719C180.542 201.031 180.434 201.295 180.218 201.511C180.014 201.727 179.762 201.835 179.462 201.835ZM180.254 203.437V213.301H178.616V203.437H180.254ZM192.046 207.991C192.046 208.303 192.028 208.633 191.992 208.981H184.108C184.168 209.953 184.498 210.715 185.098 211.267C185.71 211.807 186.448 212.077 187.312 212.077C188.02 212.077 188.608 211.915 189.076 211.591C189.556 211.255 189.892 210.811 190.084 210.259H191.848C191.584 211.207 191.056 211.981 190.264 212.581C189.472 213.169 188.488 213.463 187.312 213.463C186.376 213.463 185.536 213.253 184.792 212.833C184.06 212.413 183.484 211.819 183.064 211.051C182.644 210.271 182.434 209.371 182.434 208.351C182.434 207.331 182.638 206.437 183.046 205.669C183.454 204.901 184.024 204.313 184.756 203.905C185.5 203.485 186.352 203.275 187.312 203.275C188.248 203.275 189.076 203.479 189.796 203.887C190.516 204.295 191.068 204.859 191.452 205.579C191.848 206.287 192.046 207.091 192.046 207.991ZM190.354 207.649C190.354 207.025 190.216 206.491 189.94 206.047C189.664 205.591 189.286 205.249 188.806 205.021C188.338 204.781 187.816 204.661 187.24 204.661C186.412 204.661 185.704 204.925 185.116 205.453C184.54 205.981 184.21 206.713 184.126 207.649H190.354ZM199.014 203.257C200.214 203.257 201.186 203.623 201.93 204.355C202.674 205.075 203.046 206.119 203.046 207.487V213.301H201.426V207.721C201.426 206.737 201.18 205.987 200.688 205.471C200.196 204.943 199.524 204.679 198.672 204.679C197.808 204.679 197.118 204.949 196.602 205.489C196.098 206.029 195.846 206.815 195.846 207.847V213.301H194.208V203.437H195.846V204.841C196.17 204.337 196.608 203.947 197.16 203.671C197.724 203.395 198.342 203.257 199.014 203.257ZM207.72 204.787V210.601C207.72 211.081 207.822 211.423 208.026 211.627C208.23 211.819 208.584 211.915 209.088 211.915H210.294V213.301H208.818C207.906 213.301 207.222 213.091 206.766 212.671C206.31 212.251 206.082 211.561 206.082 210.601V204.787H204.804V203.437H206.082V200.953H207.72V203.437H210.294V204.787H207.72ZM215.771 213.463C215.015 213.463 214.337 213.337 213.737 213.085C213.137 212.821 212.663 212.461 212.315 212.005C211.967 211.537 211.775 211.003 211.739 210.403H213.431C213.479 210.895 213.707 211.297 214.115 211.609C214.535 211.921 215.081 212.077 215.753 212.077C216.377 212.077 216.869 211.939 217.229 211.663C217.589 211.387 217.769 211.039 217.769 210.619C217.769 210.187 217.577 209.869 217.193 209.665C216.809 209.449 216.215 209.239 215.411 209.035C214.679 208.843 214.079 208.651 213.611 208.459C213.155 208.255 212.759 207.961 212.423 207.577C212.099 207.181 211.937 206.665 211.937 206.029C211.937 205.525 212.087 205.063 212.387 204.643C212.687 204.223 213.113 203.893 213.665 203.653C214.217 203.401 214.847 203.275 215.555 203.275C216.647 203.275 217.529 203.551 218.201 204.103C218.873 204.655 219.233 205.411 219.281 206.371H217.643C217.607 205.855 217.397 205.441 217.013 205.129C216.641 204.817 216.137 204.661 215.501 204.661C214.913 204.661 214.445 204.787 214.097 205.039C213.749 205.291 213.575 205.621 213.575 206.029C213.575 206.353 213.677 206.623 213.881 206.839C214.097 207.043 214.361 207.211 214.673 207.343C214.997 207.463 215.441 207.601 216.005 207.757C216.713 207.949 217.289 208.141 217.733 208.333C218.177 208.513 218.555 208.789 218.867 209.161C219.191 209.533 219.359 210.019 219.371 210.619C219.371 211.159 219.221 211.645 218.921 212.077C218.621 212.509 218.195 212.851 217.643 213.103C217.103 213.343 216.479 213.463 215.771 213.463ZM225.87 208.333C225.87 207.325 226.074 206.443 226.482 205.687C226.89 204.919 227.448 204.325 228.156 203.905C228.876 203.485 229.674 203.275 230.55 203.275C231.414 203.275 232.164 203.461 232.8 203.833C233.436 204.205 233.91 204.673 234.222 205.237V203.437H235.878V213.301H234.222V211.465C233.898 212.041 233.412 212.521 232.764 212.905C232.128 213.277 231.384 213.463 230.532 213.463C229.656 213.463 228.864 213.247 228.156 212.815C227.448 212.383 226.89 211.777 226.482 210.997C226.074 210.217 225.87 209.329 225.87 208.333ZM234.222 208.351C234.222 207.607 234.072 206.959 233.772 206.407C233.472 205.855 233.064 205.435 232.548 205.147C232.044 204.847 231.486 204.697 230.874 204.697C230.262 204.697 229.704 204.841 229.2 205.129C228.696 205.417 228.294 205.837 227.994 206.389C227.694 206.941 227.544 207.589 227.544 208.333C227.544 209.089 227.694 209.749 227.994 210.313C228.294 210.865 228.696 211.291 229.2 211.591C229.704 211.879 230.262 212.023 230.874 212.023C231.486 212.023 232.044 211.879 232.548 211.591C233.064 211.291 233.472 210.865 233.772 210.313C234.072 209.749 234.222 209.095 234.222 208.351ZM243.452 203.257C244.652 203.257 245.624 203.623 246.368 204.355C247.112 205.075 247.484 206.119 247.484 207.487V213.301H245.864V207.721C245.864 206.737 245.618 205.987 245.126 205.471C244.634 204.943 243.962 204.679 243.11 204.679C242.246 204.679 241.556 204.949 241.04 205.489C240.536 206.029 240.284 206.815 240.284 207.847V213.301H238.646V203.437H240.284V204.841C240.608 204.337 241.046 203.947 241.598 203.671C242.162 203.395 242.78 203.257 243.452 203.257ZM249.547 208.333C249.547 207.325 249.751 206.443 250.159 205.687C250.567 204.919 251.125 204.325 251.833 203.905C252.553 203.485 253.357 203.275 254.245 203.275C255.013 203.275 255.727 203.455 256.387 203.815C257.047 204.163 257.551 204.625 257.899 205.201V199.981H259.555V213.301H257.899V211.447C257.575 212.035 257.095 212.521 256.459 212.905C255.823 213.277 255.079 213.463 254.227 213.463C253.351 213.463 252.553 213.247 251.833 212.815C251.125 212.383 250.567 211.777 250.159 210.997C249.751 210.217 249.547 209.329 249.547 208.333ZM257.899 208.351C257.899 207.607 257.749 206.959 257.449 206.407C257.149 205.855 256.741 205.435 256.225 205.147C255.721 204.847 255.163 204.697 254.551 204.697C253.939 204.697 253.381 204.841 252.877 205.129C252.373 205.417 251.971 205.837 251.671 206.389C251.371 206.941 251.221 207.589 251.221 208.333C251.221 209.089 251.371 209.749 251.671 210.313C251.971 210.865 252.373 211.291 252.877 211.591C253.381 211.879 253.939 212.023 254.551 212.023C255.163 212.023 255.721 211.879 256.225 211.591C256.741 211.291 257.149 210.865 257.449 210.313C257.749 209.749 257.899 209.095 257.899 208.351ZM275.618 203.437L269.678 217.945H267.986L269.93 213.193L265.952 203.437H267.77L270.866 211.429L273.926 203.437H275.618ZM281.567 213.463C280.643 213.463 279.803 213.253 279.047 212.833C278.303 212.413 277.715 211.819 277.283 211.051C276.863 210.271 276.653 209.371 276.653 208.351C276.653 207.343 276.869 206.455 277.301 205.687C277.745 204.907 278.345 204.313 279.101 203.905C279.857 203.485 280.703 203.275 281.639 203.275C282.575 203.275 283.421 203.485 284.177 203.905C284.933 204.313 285.527 204.901 285.959 205.669C286.403 206.437 286.625 207.331 286.625 208.351C286.625 209.371 286.397 210.271 285.941 211.051C285.497 211.819 284.891 212.413 284.123 212.833C283.355 213.253 282.503 213.463 281.567 213.463ZM281.567 212.023C282.155 212.023 282.707 211.885 283.223 211.609C283.739 211.333 284.153 210.919 284.465 210.367C284.789 209.815 284.951 209.143 284.951 208.351C284.951 207.559 284.795 206.887 284.483 206.335C284.171 205.783 283.763 205.375 283.259 205.111C282.755 204.835 282.209 204.697 281.621 204.697C281.021 204.697 280.469 204.835 279.965 205.111C279.473 205.375 279.077 205.783 278.777 206.335C278.477 206.887 278.327 207.559 278.327 208.351C278.327 209.155 278.471 209.833 278.759 210.385C279.059 210.937 279.455 211.351 279.947 211.627C280.439 211.891 280.979 212.023 281.567 212.023ZM297.527 203.437V213.301H295.889V211.843C295.577 212.347 295.139 212.743 294.575 213.031C294.023 213.307 293.411 213.445 292.739 213.445C291.971 213.445 291.281 213.289 290.669 212.977C290.057 212.653 289.571 212.173 289.211 211.537C288.863 210.901 288.689 210.127 288.689 209.215V203.437H290.309V208.999C290.309 209.971 290.555 210.721 291.047 211.249C291.539 211.765 292.211 212.023 293.063 212.023C293.939 212.023 294.629 211.753 295.133 211.213C295.637 210.673 295.889 209.887 295.889 208.855V203.437H297.527ZM301.93 205.039C302.218 204.475 302.626 204.037 303.154 203.725C303.694 203.413 304.348 203.257 305.116 203.257V204.949H304.684C302.848 204.949 301.93 205.945 301.93 207.937V213.301H300.292V203.437H301.93V205.039ZM313.804 204.787V210.601C313.804 211.081 313.906 211.423 314.11 211.627C314.314 211.819 314.668 211.915 315.172 211.915H316.378V213.301H314.902C313.99 213.301 313.306 213.091 312.85 212.671C312.394 212.251 312.166 211.561 312.166 210.601V204.787H310.888V203.437H312.166V200.953H313.804V203.437H316.378V204.787H313.804ZM327.363 207.991C327.363 208.303 327.345 208.633 327.309 208.981H319.425C319.485 209.953 319.815 210.715 320.415 211.267C321.027 211.807 321.765 212.077 322.629 212.077C323.337 212.077 323.925 211.915 324.393 211.591C324.873 211.255 325.209 210.811 325.401 210.259H327.165C326.901 211.207 326.373 211.981 325.581 212.581C324.789 213.169 323.805 213.463 322.629 213.463C321.693 213.463 320.853 213.253 320.109 212.833C319.377 212.413 318.801 211.819 318.381 211.051C317.961 210.271 317.751 209.371 317.751 208.351C317.751 207.331 317.955 206.437 318.363 205.669C318.771 204.901 319.341 204.313 320.073 203.905C320.817 203.485 321.669 203.275 322.629 203.275C323.565 203.275 324.393 203.479 325.113 203.887C325.833 204.295 326.385 204.859 326.769 205.579C327.165 206.287 327.363 207.091 327.363 207.991ZM325.671 207.649C325.671 207.025 325.533 206.491 325.257 206.047C324.981 205.591 324.603 205.249 324.123 205.021C323.655 204.781 323.133 204.661 322.557 204.661C321.729 204.661 321.021 204.925 320.433 205.453C319.857 205.981 319.527 206.713 319.443 207.649H325.671ZM328.913 208.333C328.913 207.325 329.117 206.443 329.525 205.687C329.933 204.919 330.491 204.325 331.199 203.905C331.919 203.485 332.717 203.275 333.593 203.275C334.457 203.275 335.207 203.461 335.843 203.833C336.479 204.205 336.953 204.673 337.265 205.237V203.437H338.921V213.301H337.265V211.465C336.941 212.041 336.455 212.521 335.807 212.905C335.171 213.277 334.427 213.463 333.575 213.463C332.699 213.463 331.907 213.247 331.199 212.815C330.491 212.383 329.933 211.777 329.525 210.997C329.117 210.217 328.913 209.329 328.913 208.333ZM337.265 208.351C337.265 207.607 337.115 206.959 336.815 206.407C336.515 205.855 336.107 205.435 335.591 205.147C335.087 204.847 334.529 204.697 333.917 204.697C333.305 204.697 332.747 204.841 332.243 205.129C331.739 205.417 331.337 205.837 331.037 206.389C330.737 206.941 330.587 207.589 330.587 208.333C330.587 209.089 330.737 209.749 331.037 210.313C331.337 210.865 331.739 211.291 332.243 211.591C332.747 211.879 333.305 212.023 333.917 212.023C334.529 212.023 335.087 211.879 335.591 211.591C336.107 211.291 336.515 210.865 336.815 210.313C337.115 209.749 337.265 209.095 337.265 208.351ZM353.551 203.257C354.319 203.257 355.003 203.419 355.603 203.743C356.203 204.055 356.677 204.529 357.025 205.165C357.373 205.801 357.547 206.575 357.547 207.487V213.301H355.927V207.721C355.927 206.737 355.681 205.987 355.189 205.471C354.709 204.943 354.055 204.679 353.227 204.679C352.375 204.679 351.697 204.955 351.193 205.507C350.689 206.047 350.437 206.833 350.437 207.865V213.301H348.817V207.721C348.817 206.737 348.571 205.987 348.079 205.471C347.599 204.943 346.945 204.679 346.117 204.679C345.265 204.679 344.587 204.955 344.083 205.507C343.579 206.047 343.327 206.833 343.327 207.865V213.301H341.689V203.437H343.327V204.859C343.651 204.343 344.083 203.947 344.623 203.671C345.175 203.395 345.781 203.257 346.441 203.257C347.269 203.257 348.001 203.443 348.637 203.815C349.273 204.187 349.747 204.733 350.059 205.453C350.335 204.757 350.791 204.217 351.427 203.833C352.063 203.449 352.771 203.257 353.551 203.257ZM372.096 203.257C372.864 203.257 373.548 203.419 374.148 203.743C374.748 204.055 375.222 204.529 375.57 205.165C375.918 205.801 376.092 206.575 376.092 207.487V213.301H374.472V207.721C374.472 206.737 374.226 205.987 373.734 205.471C373.254 204.943 372.6 204.679 371.772 204.679C370.92 204.679 370.242 204.955 369.738 205.507C369.234 206.047 368.982 206.833 368.982 207.865V213.301H367.362V207.721C367.362 206.737 367.116 205.987 366.624 205.471C366.144 204.943 365.49 204.679 364.662 204.679C363.81 204.679 363.132 204.955 362.628 205.507C362.124 206.047 361.872 206.833 361.872 207.865V213.301H360.234V203.437H361.872V204.859C362.196 204.343 362.628 203.947 363.168 203.671C363.72 203.395 364.326 203.257 364.986 203.257C365.814 203.257 366.546 203.443 367.182 203.815C367.818 204.187 368.292 204.733 368.604 205.453C368.88 204.757 369.336 204.217 369.972 203.833C370.608 203.449 371.316 203.257 372.096 203.257ZM378.167 208.333C378.167 207.325 378.371 206.443 378.779 205.687C379.187 204.919 379.745 204.325 380.453 203.905C381.173 203.485 381.971 203.275 382.847 203.275C383.711 203.275 384.461 203.461 385.097 203.833C385.733 204.205 386.207 204.673 386.519 205.237V203.437H388.175V213.301H386.519V211.465C386.195 212.041 385.709 212.521 385.061 212.905C384.425 213.277 383.681 213.463 382.829 213.463C381.953 213.463 381.161 213.247 380.453 212.815C379.745 212.383 379.187 211.777 378.779 210.997C378.371 210.217 378.167 209.329 378.167 208.333ZM386.519 208.351C386.519 207.607 386.369 206.959 386.069 206.407C385.769 205.855 385.361 205.435 384.845 205.147C384.341 204.847 383.783 204.697 383.171 204.697C382.559 204.697 382.001 204.841 381.497 205.129C380.993 205.417 380.591 205.837 380.291 206.389C379.991 206.941 379.841 207.589 379.841 208.333C379.841 209.089 379.991 209.749 380.291 210.313C380.591 210.865 380.993 211.291 381.497 211.591C382.001 211.879 382.559 212.023 383.171 212.023C383.783 212.023 384.341 211.879 384.845 211.591C385.361 211.291 385.769 210.865 386.069 210.313C386.369 209.749 386.519 209.095 386.519 208.351ZM392.941 204.787V210.601C392.941 211.081 393.043 211.423 393.247 211.627C393.451 211.819 393.805 211.915 394.309 211.915H395.515V213.301H394.039C393.127 213.301 392.443 213.091 391.987 212.671C391.531 212.251 391.303 211.561 391.303 210.601V204.787H390.025V203.437H391.303V200.953H392.941V203.437H395.515V204.787H392.941ZM406.499 207.991C406.499 208.303 406.481 208.633 406.445 208.981H398.561C398.621 209.953 398.951 210.715 399.551 211.267C400.163 211.807 400.901 212.077 401.765 212.077C402.473 212.077 403.061 211.915 403.529 211.591C404.009 211.255 404.345 210.811 404.537 210.259H406.301C406.037 211.207 405.509 211.981 404.717 212.581C403.925 213.169 402.941 213.463 401.765 213.463C400.829 213.463 399.989 213.253 399.245 212.833C398.513 212.413 397.937 211.819 397.517 211.051C397.097 210.271 396.887 209.371 396.887 208.351C396.887 207.331 397.091 206.437 397.499 205.669C397.907 204.901 398.477 204.313 399.209 203.905C399.953 203.485 400.805 203.275 401.765 203.275C402.701 203.275 403.529 203.479 404.249 203.887C404.969 204.295 405.521 204.859 405.905 205.579C406.301 206.287 406.499 207.091 406.499 207.991ZM404.807 207.649C404.807 207.025 404.669 206.491 404.393 206.047C404.117 205.591 403.739 205.249 403.259 205.021C402.791 204.781 402.269 204.661 401.693 204.661C400.865 204.661 400.157 204.925 399.569 205.453C398.993 205.981 398.663 206.713 398.579 207.649H404.807ZM412.153 213.463C411.397 213.463 410.719 213.337 410.119 213.085C409.519 212.821 409.045 212.461 408.697 212.005C408.349 211.537 408.157 211.003 408.121 210.403H409.813C409.861 210.895 410.089 211.297 410.497 211.609C410.917 211.921 411.463 212.077 412.135 212.077C412.759 212.077 413.251 211.939 413.611 211.663C413.971 211.387 414.151 211.039 414.151 210.619C414.151 210.187 413.959 209.869 413.575 209.665C413.191 209.449 412.597 209.239 411.793 209.035C411.061 208.843 410.461 208.651 409.993 208.459C409.537 208.255 409.141 207.961 408.805 207.577C408.481 207.181 408.319 206.665 408.319 206.029C408.319 205.525 408.469 205.063 408.769 204.643C409.069 204.223 409.495 203.893 410.047 203.653C410.599 203.401 411.229 203.275 411.937 203.275C413.029 203.275 413.911 203.551 414.583 204.103C415.255 204.655 415.615 205.411 415.663 206.371H414.025C413.989 205.855 413.779 205.441 413.395 205.129C413.023 204.817 412.519 204.661 411.883 204.661C411.295 204.661 410.827 204.787 410.479 205.039C410.131 205.291 409.957 205.621 409.957 206.029C409.957 206.353 410.059 206.623 410.263 206.839C410.479 207.043 410.743 207.211 411.055 207.343C411.379 207.463 411.823 207.601 412.387 207.757C413.095 207.949 413.671 208.141 414.115 208.333C414.559 208.513 414.937 208.789 415.249 209.161C415.573 209.533 415.741 210.019 415.753 210.619C415.753 211.159 415.603 211.645 415.303 212.077C415.003 212.509 414.577 212.851 414.025 213.103C413.485 213.343 412.861 213.463 412.153 213.463ZM431.865 207.991C431.865 208.303 431.847 208.633 431.811 208.981H423.927C423.987 209.953 424.317 210.715 424.917 211.267C425.529 211.807 426.267 212.077 427.131 212.077C427.839 212.077 428.427 211.915 428.895 211.591C429.375 211.255 429.711 210.811 429.903 210.259H431.667C431.403 211.207 430.875 211.981 430.083 212.581C429.291 213.169 428.307 213.463 427.131 213.463C426.195 213.463 425.355 213.253 424.611 212.833C423.879 212.413 423.303 211.819 422.883 211.051C422.463 210.271 422.253 209.371 422.253 208.351C422.253 207.331 422.457 206.437 422.865 205.669C423.273 204.901 423.843 204.313 424.575 203.905C425.319 203.485 426.171 203.275 427.131 203.275C428.067 203.275 428.895 203.479 429.615 203.887C430.335 204.295 430.887 204.859 431.271 205.579C431.667 206.287 431.865 207.091 431.865 207.991ZM430.173 207.649C430.173 207.025 430.035 206.491 429.759 206.047C429.483 205.591 429.105 205.249 428.625 205.021C428.157 204.781 427.635 204.661 427.059 204.661C426.231 204.661 425.523 204.925 424.935 205.453C424.359 205.981 424.029 206.713 423.945 207.649H430.173ZM433.415 208.333C433.415 207.325 433.619 206.443 434.027 205.687C434.435 204.919 434.993 204.325 435.701 203.905C436.421 203.485 437.219 203.275 438.095 203.275C438.959 203.275 439.709 203.461 440.345 203.833C440.981 204.205 441.455 204.673 441.767 205.237V203.437H443.423V213.301H441.767V211.465C441.443 212.041 440.957 212.521 440.309 212.905C439.673 213.277 438.929 213.463 438.077 213.463C437.201 213.463 436.409 213.247 435.701 212.815C434.993 212.383 434.435 211.777 434.027 210.997C433.619 210.217 433.415 209.329 433.415 208.333ZM441.767 208.351C441.767 207.607 441.617 206.959 441.317 206.407C441.017 205.855 440.609 205.435 440.093 205.147C439.589 204.847 439.031 204.697 438.419 204.697C437.807 204.697 437.249 204.841 436.745 205.129C436.241 205.417 435.839 205.837 435.539 206.389C435.239 206.941 435.089 207.589 435.089 208.333C435.089 209.089 435.239 209.749 435.539 210.313C435.839 210.865 436.241 211.291 436.745 211.591C437.249 211.879 437.807 212.023 438.419 212.023C439.031 212.023 439.589 211.879 440.093 211.591C440.609 211.291 441.017 210.865 441.317 210.313C441.617 209.749 441.767 209.095 441.767 208.351ZM449.683 213.463C448.927 213.463 448.249 213.337 447.649 213.085C447.049 212.821 446.575 212.461 446.227 212.005C445.879 211.537 445.687 211.003 445.651 210.403H447.343C447.391 210.895 447.619 211.297 448.027 211.609C448.447 211.921 448.993 212.077 449.665 212.077C450.289 212.077 450.781 211.939 451.141 211.663C451.501 211.387 451.681 211.039 451.681 210.619C451.681 210.187 451.489 209.869 451.105 209.665C450.721 209.449 450.127 209.239 449.323 209.035C448.591 208.843 447.991 208.651 447.523 208.459C447.067 208.255 446.671 207.961 446.335 207.577C446.011 207.181 445.849 206.665 445.849 206.029C445.849 205.525 445.999 205.063 446.299 204.643C446.599 204.223 447.025 203.893 447.577 203.653C448.129 203.401 448.759 203.275 449.467 203.275C450.559 203.275 451.441 203.551 452.113 204.103C452.785 204.655 453.145 205.411 453.193 206.371H451.555C451.519 205.855 451.309 205.441 450.925 205.129C450.553 204.817 450.049 204.661 449.413 204.661C448.825 204.661 448.357 204.787 448.009 205.039C447.661 205.291 447.487 205.621 447.487 206.029C447.487 206.353 447.589 206.623 447.793 206.839C448.009 207.043 448.273 207.211 448.585 207.343C448.909 207.463 449.353 207.601 449.917 207.757C450.625 207.949 451.201 208.141 451.645 208.333C452.089 208.513 452.467 208.789 452.779 209.161C453.103 209.533 453.271 210.019 453.283 210.619C453.283 211.159 453.133 211.645 452.833 212.077C452.533 212.509 452.107 212.851 451.555 213.103C451.015 213.343 450.391 213.463 449.683 213.463ZM456.441 201.835C456.129 201.835 455.865 201.727 455.649 201.511C455.433 201.295 455.325 201.031 455.325 200.719C455.325 200.407 455.433 200.143 455.649 199.927C455.865 199.711 456.129 199.603 456.441 199.603C456.741 199.603 456.993 199.711 457.197 199.927C457.413 200.143 457.521 200.407 457.521 200.719C457.521 201.031 457.413 201.295 457.197 201.511C456.993 201.727 456.741 201.835 456.441 201.835ZM457.233 203.437V213.301H455.595V203.437H457.233ZM461.663 199.981V213.301H460.025V199.981H461.663ZM472.95 203.437L467.01 217.945H465.318L467.262 213.193L463.284 203.437H465.102L468.198 211.429L471.258 203.437H472.95ZM480.242 201.835C479.93 201.835 479.666 201.727 479.45 201.511C479.234 201.295 479.126 201.031 479.126 200.719C479.126 200.407 479.234 200.143 479.45 199.927C479.666 199.711 479.93 199.603 480.242 199.603C480.542 199.603 480.794 199.711 480.998 199.927C481.214 200.143 481.322 200.407 481.322 200.719C481.322 201.031 481.214 201.295 480.998 201.511C480.794 201.727 480.542 201.835 480.242 201.835ZM481.034 203.437V213.301H479.396V203.437H481.034ZM488.631 203.257C489.831 203.257 490.803 203.623 491.547 204.355C492.291 205.075 492.663 206.119 492.663 207.487V213.301H491.043V207.721C491.043 206.737 490.797 205.987 490.305 205.471C489.813 204.943 489.141 204.679 488.289 204.679C487.425 204.679 486.735 204.949 486.219 205.489C485.715 206.029 485.463 206.815 485.463 207.847V213.301H483.825V203.437H485.463V204.841C485.787 204.337 486.225 203.947 486.777 203.671C487.341 203.395 487.959 203.257 488.631 203.257ZM504.44 213.463C503.516 213.463 502.676 213.253 501.92 212.833C501.176 212.413 500.588 211.819 500.156 211.051C499.736 210.271 499.526 209.371 499.526 208.351C499.526 207.343 499.742 206.455 500.174 205.687C500.618 204.907 501.218 204.313 501.974 203.905C502.73 203.485 503.576 203.275 504.512 203.275C505.448 203.275 506.294 203.485 507.05 203.905C507.806 204.313 508.4 204.901 508.832 205.669C509.276 206.437 509.498 207.331 509.498 208.351C509.498 209.371 509.27 210.271 508.814 211.051C508.37 211.819 507.764 212.413 506.996 212.833C506.228 213.253 505.376 213.463 504.44 213.463ZM504.44 212.023C505.028 212.023 505.58 211.885 506.096 211.609C506.612 211.333 507.026 210.919 507.338 210.367C507.662 209.815 507.824 209.143 507.824 208.351C507.824 207.559 507.668 206.887 507.356 206.335C507.044 205.783 506.636 205.375 506.132 205.111C505.628 204.835 505.082 204.697 504.494 204.697C503.894 204.697 503.342 204.835 502.838 205.111C502.346 205.375 501.95 205.783 501.65 206.335C501.35 206.887 501.2 207.559 501.2 208.351C501.2 209.155 501.344 209.833 501.632 210.385C501.932 210.937 502.328 211.351 502.82 211.627C503.312 211.891 503.852 212.023 504.44 212.023ZM516.458 203.257C517.658 203.257 518.63 203.623 519.374 204.355C520.118 205.075 520.49 206.119 520.49 207.487V213.301H518.87V207.721C518.87 206.737 518.624 205.987 518.132 205.471C517.64 204.943 516.968 204.679 516.116 204.679C515.252 204.679 514.562 204.949 514.046 205.489C513.542 206.029 513.29 206.815 513.29 207.847V213.301H511.652V203.437H513.29V204.841C513.614 204.337 514.052 203.947 514.604 203.671C515.168 203.395 515.786 203.257 516.458 203.257ZM532.165 207.991C532.165 208.303 532.147 208.633 532.111 208.981H524.227C524.287 209.953 524.617 210.715 525.217 211.267C525.829 211.807 526.567 212.077 527.431 212.077C528.139 212.077 528.727 211.915 529.195 211.591C529.675 211.255 530.011 210.811 530.203 210.259H531.967C531.703 211.207 531.175 211.981 530.383 212.581C529.591 213.169 528.607 213.463 527.431 213.463C526.495 213.463 525.655 213.253 524.911 212.833C524.179 212.413 523.603 211.819 523.183 211.051C522.763 210.271 522.553 209.371 522.553 208.351C522.553 207.331 522.757 206.437 523.165 205.669C523.573 204.901 524.143 204.313 524.875 203.905C525.619 203.485 526.471 203.275 527.431 203.275C528.367 203.275 529.195 203.479 529.915 203.887C530.635 204.295 531.187 204.859 531.571 205.579C531.967 206.287 532.165 207.091 532.165 207.991ZM530.473 207.649C530.473 207.025 530.335 206.491 530.059 206.047C529.783 205.591 529.405 205.249 528.925 205.021C528.457 204.781 527.935 204.661 527.359 204.661C526.531 204.661 525.823 204.925 525.235 205.453C524.659 205.981 524.329 206.713 524.245 207.649H530.473ZM35.024 232.255C35.348 231.691 35.828 231.223 36.464 230.851C37.112 230.467 37.862 230.275 38.714 230.275C39.59 230.275 40.382 230.485 41.09 230.905C41.81 231.325 42.374 231.919 42.782 232.687C43.19 233.443 43.394 234.325 43.394 235.333C43.394 236.329 43.19 237.217 42.782 237.997C42.374 238.777 41.81 239.383 41.09 239.815C40.382 240.247 39.59 240.463 38.714 240.463C37.874 240.463 37.13 240.277 36.482 239.905C35.846 239.521 35.36 239.047 35.024 238.483V244.981H33.386V230.437H35.024V232.255ZM41.72 235.333C41.72 234.589 41.57 233.941 41.27 233.389C40.97 232.837 40.562 232.417 40.046 232.129C39.542 231.841 38.984 231.697 38.372 231.697C37.772 231.697 37.214 231.847 36.698 232.147C36.194 232.435 35.786 232.861 35.474 233.425C35.174 233.977 35.024 234.619 35.024 235.351C35.024 236.095 35.174 236.749 35.474 237.313C35.786 237.865 36.194 238.291 36.698 238.591C37.214 238.879 37.772 239.023 38.372 239.023C38.984 239.023 39.542 238.879 40.046 238.591C40.562 238.291 40.97 237.865 41.27 237.313C41.57 236.749 41.72 236.089 41.72 235.333ZM47.1881 226.981V240.301H45.5501V226.981H47.1881ZM49.3678 235.333C49.3678 234.325 49.5718 233.443 49.9798 232.687C50.3878 231.919 50.9458 231.325 51.6538 230.905C52.3738 230.485 53.1718 230.275 54.0478 230.275C54.9118 230.275 55.6618 230.461 56.2978 230.833C56.9338 231.205 57.4078 231.673 57.7198 232.237V230.437H59.3758V240.301H57.7198V238.465C57.3958 239.041 56.9098 239.521 56.2618 239.905C55.6258 240.277 54.8818 240.463 54.0298 240.463C53.1538 240.463 52.3618 240.247 51.6538 239.815C50.9458 239.383 50.3878 238.777 49.9798 237.997C49.5718 237.217 49.3678 236.329 49.3678 235.333ZM57.7198 235.351C57.7198 234.607 57.5698 233.959 57.2698 233.407C56.9698 232.855 56.5618 232.435 56.0458 232.147C55.5418 231.847 54.9838 231.697 54.3718 231.697C53.7598 231.697 53.2018 231.841 52.6978 232.129C52.1938 232.417 51.7918 232.837 51.4918 233.389C51.1918 233.941 51.0418 234.589 51.0418 235.333C51.0418 236.089 51.1918 236.749 51.4918 237.313C51.7918 237.865 52.1938 238.291 52.6978 238.591C53.2018 238.879 53.7598 239.023 54.3718 239.023C54.9838 239.023 55.5418 238.879 56.0458 238.591C56.5618 238.291 56.9698 237.865 57.2698 237.313C57.5698 236.749 57.7198 236.095 57.7198 235.351ZM64.1418 231.787V237.601C64.1418 238.081 64.2438 238.423 64.4478 238.627C64.6518 238.819 65.0058 238.915 65.5098 238.915H66.7158V240.301H65.2398C64.3278 240.301 63.6438 240.091 63.1878 239.671C62.7318 239.251 62.5038 238.561 62.5038 237.601V231.787H61.2258V230.437H62.5038V227.953H64.1418V230.437H66.7158V231.787H64.1418ZM72.7145 231.787H70.6445V240.301H69.0065V231.787H67.7285V230.437H69.0065V229.735C69.0065 228.631 69.2885 227.827 69.8525 227.323C70.4285 226.807 71.3465 226.549 72.6065 226.549V227.917C71.8865 227.917 71.3765 228.061 71.0765 228.349C70.7885 228.625 70.6445 229.087 70.6445 229.735V230.437H72.7145V231.787ZM78.9263 240.463C78.0023 240.463 77.1623 240.253 76.4063 239.833C75.6623 239.413 75.0743 238.819 74.6423 238.051C74.2223 237.271 74.0123 236.371 74.0123 235.351C74.0123 234.343 74.2283 233.455 74.6603 232.687C75.1043 231.907 75.7043 231.313 76.4603 230.905C77.2163 230.485 78.0623 230.275 78.9983 230.275C79.9343 230.275 80.7803 230.485 81.5363 230.905C82.2923 231.313 82.8863 231.901 83.3183 232.669C83.7623 233.437 83.9843 234.331 83.9843 235.351C83.9843 236.371 83.7563 237.271 83.3003 238.051C82.8563 238.819 82.2503 239.413 81.4823 239.833C80.7143 240.253 79.8623 240.463 78.9263 240.463ZM78.9263 239.023C79.5143 239.023 80.0663 238.885 80.5823 238.609C81.0983 238.333 81.5123 237.919 81.8243 237.367C82.1483 236.815 82.3103 236.143 82.3103 235.351C82.3103 234.559 82.1543 233.887 81.8423 233.335C81.5303 232.783 81.1223 232.375 80.6183 232.111C80.1143 231.835 79.5683 231.697 78.9803 231.697C78.3803 231.697 77.8283 231.835 77.3243 232.111C76.8323 232.375 76.4363 232.783 76.1363 233.335C75.8363 233.887 75.6863 234.559 75.6863 235.351C75.6863 236.155 75.8303 236.833 76.1183 237.385C76.4183 237.937 76.8143 238.351 77.3063 238.627C77.7983 238.891 78.3383 239.023 78.9263 239.023ZM87.776 232.039C88.064 231.475 88.472 231.037 89 230.725C89.54 230.413 90.194 230.257 90.962 230.257V231.949H90.53C88.694 231.949 87.776 232.945 87.776 234.937V240.301H86.138V230.437H87.776V232.039ZM104.715 230.257C105.483 230.257 106.167 230.419 106.767 230.743C107.367 231.055 107.841 231.529 108.189 232.165C108.537 232.801 108.711 233.575 108.711 234.487V240.301H107.091V234.721C107.091 233.737 106.845 232.987 106.353 232.471C105.873 231.943 105.219 231.679 104.391 231.679C103.539 231.679 102.861 231.955 102.357 232.507C101.853 233.047 101.601 233.833 101.601 234.865V240.301H99.9808V234.721C99.9808 233.737 99.7348 232.987 99.2428 232.471C98.7628 231.943 98.1088 231.679 97.2808 231.679C96.4288 231.679 95.7508 231.955 95.2468 232.507C94.7428 233.047 94.4908 233.833 94.4908 234.865V240.301H92.8528V230.437H94.4908V231.859C94.8148 231.343 95.2468 230.947 95.7868 230.671C96.3388 230.395 96.9448 230.257 97.6048 230.257C98.4328 230.257 99.1648 230.443 99.8008 230.815C100.437 231.187 100.911 231.733 101.223 232.453C101.499 231.757 101.955 231.217 102.591 230.833C103.227 230.449 103.935 230.257 104.715 230.257ZM120.211 231.787H118.141V240.301H116.503V231.787H115.225V230.437H116.503V229.735C116.503 228.631 116.785 227.827 117.349 227.323C117.925 226.807 118.843 226.549 120.103 226.549V227.917C119.383 227.917 118.873 228.061 118.573 228.349C118.285 228.625 118.141 229.087 118.141 229.735V230.437H120.211V231.787ZM126.422 240.463C125.498 240.463 124.658 240.253 123.902 239.833C123.158 239.413 122.57 238.819 122.138 238.051C121.718 237.271 121.508 236.371 121.508 235.351C121.508 234.343 121.724 233.455 122.156 232.687C122.6 231.907 123.2 231.313 123.956 230.905C124.712 230.485 125.558 230.275 126.494 230.275C127.43 230.275 128.276 230.485 129.032 230.905C129.788 231.313 130.382 231.901 130.814 232.669C131.258 233.437 131.48 234.331 131.48 235.351C131.48 236.371 131.252 237.271 130.796 238.051C130.352 238.819 129.746 239.413 128.978 239.833C128.21 240.253 127.358 240.463 126.422 240.463ZM126.422 239.023C127.01 239.023 127.562 238.885 128.078 238.609C128.594 238.333 129.008 237.919 129.32 237.367C129.644 236.815 129.806 236.143 129.806 235.351C129.806 234.559 129.65 233.887 129.338 233.335C129.026 232.783 128.618 232.375 128.114 232.111C127.61 231.835 127.064 231.697 126.476 231.697C125.876 231.697 125.324 231.835 124.82 232.111C124.328 232.375 123.932 232.783 123.632 233.335C123.332 233.887 123.182 234.559 123.182 235.351C123.182 236.155 123.326 236.833 123.614 237.385C123.914 237.937 124.31 238.351 124.802 238.627C125.294 238.891 125.834 239.023 126.422 239.023ZM135.272 232.039C135.56 231.475 135.968 231.037 136.496 230.725C137.036 230.413 137.69 230.257 138.458 230.257V231.949H138.026C136.19 231.949 135.272 232.945 135.272 234.937V240.301H133.634V230.437H135.272V232.039ZM153.644 230.437L147.704 244.945H146.012L147.956 240.193L143.978 230.437H145.796L148.892 238.429L151.952 230.437H153.644ZM159.592 240.463C158.668 240.463 157.828 240.253 157.072 239.833C156.328 239.413 155.74 238.819 155.308 238.051C154.888 237.271 154.678 236.371 154.678 235.351C154.678 234.343 154.894 233.455 155.326 232.687C155.77 231.907 156.37 231.313 157.126 230.905C157.882 230.485 158.728 230.275 159.664 230.275C160.6 230.275 161.446 230.485 162.202 230.905C162.958 231.313 163.552 231.901 163.984 232.669C164.428 233.437 164.65 234.331 164.65 235.351C164.65 236.371 164.422 237.271 163.966 238.051C163.522 238.819 162.916 239.413 162.148 239.833C161.38 240.253 160.528 240.463 159.592 240.463ZM159.592 239.023C160.18 239.023 160.732 238.885 161.248 238.609C161.764 238.333 162.178 237.919 162.49 237.367C162.814 236.815 162.976 236.143 162.976 235.351C162.976 234.559 162.82 233.887 162.508 233.335C162.196 232.783 161.788 232.375 161.284 232.111C160.78 231.835 160.234 231.697 159.646 231.697C159.046 231.697 158.494 231.835 157.99 232.111C157.498 232.375 157.102 232.783 156.802 233.335C156.502 233.887 156.352 234.559 156.352 235.351C156.352 236.155 156.496 236.833 156.784 237.385C157.084 237.937 157.48 238.351 157.972 238.627C158.464 238.891 159.004 239.023 159.592 239.023ZM175.552 230.437V240.301H173.914V238.843C173.602 239.347 173.164 239.743 172.6 240.031C172.048 240.307 171.436 240.445 170.764 240.445C169.996 240.445 169.306 240.289 168.694 239.977C168.082 239.653 167.596 239.173 167.236 238.537C166.888 237.901 166.714 237.127 166.714 236.215V230.437H168.334V235.999C168.334 236.971 168.58 237.721 169.072 238.249C169.564 238.765 170.236 239.023 171.088 239.023C171.964 239.023 172.654 238.753 173.158 238.213C173.662 237.673 173.914 236.887 173.914 235.855V230.437H175.552ZM179.956 232.039C180.244 231.475 180.652 231.037 181.18 230.725C181.72 230.413 182.374 230.257 183.142 230.257V231.949H182.71C180.874 231.949 179.956 232.945 179.956 234.937V240.301H178.318V230.437H179.956V232.039ZM194.133 240.463C193.209 240.463 192.369 240.253 191.613 239.833C190.869 239.413 190.281 238.819 189.849 238.051C189.429 237.271 189.219 236.371 189.219 235.351C189.219 234.343 189.435 233.455 189.867 232.687C190.311 231.907 190.911 231.313 191.667 230.905C192.423 230.485 193.269 230.275 194.205 230.275C195.141 230.275 195.987 230.485 196.743 230.905C197.499 231.313 198.093 231.901 198.525 232.669C198.969 233.437 199.191 234.331 199.191 235.351C199.191 236.371 198.963 237.271 198.507 238.051C198.063 238.819 197.457 239.413 196.689 239.833C195.921 240.253 195.069 240.463 194.133 240.463ZM194.133 239.023C194.721 239.023 195.273 238.885 195.789 238.609C196.305 238.333 196.719 237.919 197.031 237.367C197.355 236.815 197.517 236.143 197.517 235.351C197.517 234.559 197.361 233.887 197.049 233.335C196.737 232.783 196.329 232.375 195.825 232.111C195.321 231.835 194.775 231.697 194.187 231.697C193.587 231.697 193.035 231.835 192.531 232.111C192.039 232.375 191.643 232.783 191.343 233.335C191.043 233.887 190.893 234.559 190.893 235.351C190.893 236.155 191.037 236.833 191.325 237.385C191.625 237.937 192.021 238.351 192.513 238.627C193.005 238.891 193.545 239.023 194.133 239.023ZM206.151 230.257C207.351 230.257 208.323 230.623 209.067 231.355C209.811 232.075 210.183 233.119 210.183 234.487V240.301H208.563V234.721C208.563 233.737 208.317 232.987 207.825 232.471C207.333 231.943 206.661 231.679 205.809 231.679C204.945 231.679 204.255 231.949 203.739 232.489C203.235 233.029 202.983 233.815 202.983 234.847V240.301H201.345V230.437H202.983V231.841C203.307 231.337 203.745 230.947 204.297 230.671C204.861 230.395 205.479 230.257 206.151 230.257ZM219.699 233.011V234.397H212.517V233.011H219.699ZM226.841 230.275C227.693 230.275 228.437 230.461 229.073 230.833C229.721 231.205 230.201 231.673 230.513 232.237V230.437H232.169V240.517C232.169 241.417 231.977 242.215 231.593 242.911C231.209 243.619 230.657 244.171 229.937 244.567C229.229 244.963 228.401 245.161 227.453 245.161C226.157 245.161 225.077 244.855 224.213 244.243C223.349 243.631 222.839 242.797 222.683 241.741H224.303C224.483 242.341 224.855 242.821 225.419 243.181C225.983 243.553 226.661 243.739 227.453 243.739C228.353 243.739 229.085 243.457 229.649 242.893C230.225 242.329 230.513 241.537 230.513 240.517V238.447C230.189 239.023 229.709 239.503 229.073 239.887C228.437 240.271 227.693 240.463 226.841 240.463C225.965 240.463 225.167 240.247 224.447 239.815C223.739 239.383 223.181 238.777 222.773 237.997C222.365 237.217 222.161 236.329 222.161 235.333C222.161 234.325 222.365 233.443 222.773 232.687C223.181 231.919 223.739 231.325 224.447 230.905C225.167 230.485 225.965 230.275 226.841 230.275ZM230.513 235.351C230.513 234.607 230.363 233.959 230.063 233.407C229.763 232.855 229.355 232.435 228.839 232.147C228.335 231.847 227.777 231.697 227.165 231.697C226.553 231.697 225.995 231.841 225.491 232.129C224.987 232.417 224.585 232.837 224.285 233.389C223.985 233.941 223.835 234.589 223.835 235.333C223.835 236.089 223.985 236.749 224.285 237.313C224.585 237.865 224.987 238.291 225.491 238.591C225.995 238.879 226.553 239.023 227.165 239.023C227.777 239.023 228.335 238.879 228.839 238.591C229.355 238.291 229.763 237.865 230.063 237.313C230.363 236.749 230.513 236.095 230.513 235.351ZM239.239 240.463C238.315 240.463 237.475 240.253 236.719 239.833C235.975 239.413 235.387 238.819 234.955 238.051C234.535 237.271 234.325 236.371 234.325 235.351C234.325 234.343 234.541 233.455 234.973 232.687C235.417 231.907 236.017 231.313 236.773 230.905C237.529 230.485 238.375 230.275 239.311 230.275C240.247 230.275 241.093 230.485 241.849 230.905C242.605 231.313 243.199 231.901 243.631 232.669C244.075 233.437 244.297 234.331 244.297 235.351C244.297 236.371 244.069 237.271 243.613 238.051C243.169 238.819 242.563 239.413 241.795 239.833C241.027 240.253 240.175 240.463 239.239 240.463ZM239.239 239.023C239.827 239.023 240.379 238.885 240.895 238.609C241.411 238.333 241.825 237.919 242.137 237.367C242.461 236.815 242.623 236.143 242.623 235.351C242.623 234.559 242.467 233.887 242.155 233.335C241.843 232.783 241.435 232.375 240.931 232.111C240.427 231.835 239.881 231.697 239.293 231.697C238.693 231.697 238.141 231.835 237.637 232.111C237.145 232.375 236.749 232.783 236.449 233.335C236.149 233.887 235.999 234.559 235.999 235.351C235.999 236.155 236.143 236.833 236.431 237.385C236.731 237.937 237.127 238.351 237.619 238.627C238.111 238.891 238.651 239.023 239.239 239.023ZM247.296 228.835C246.984 228.835 246.72 228.727 246.504 228.511C246.288 228.295 246.18 228.031 246.18 227.719C246.18 227.407 246.288 227.143 246.504 226.927C246.72 226.711 246.984 226.603 247.296 226.603C247.596 226.603 247.848 226.711 248.052 226.927C248.268 227.143 248.376 227.407 248.376 227.719C248.376 228.031 248.268 228.295 248.052 228.511C247.848 228.727 247.596 228.835 247.296 228.835ZM248.088 230.437V240.301H246.45V230.437H248.088ZM255.686 230.257C256.886 230.257 257.858 230.623 258.602 231.355C259.346 232.075 259.718 233.119 259.718 234.487V240.301H258.098V234.721C258.098 233.737 257.852 232.987 257.36 232.471C256.868 231.943 256.196 231.679 255.344 231.679C254.48 231.679 253.79 231.949 253.274 232.489C252.77 233.029 252.518 233.815 252.518 234.847V240.301H250.88V230.437H252.518V231.841C252.842 231.337 253.28 230.947 253.832 230.671C254.396 230.395 255.014 230.257 255.686 230.257ZM266.462 230.275C267.314 230.275 268.058 230.461 268.694 230.833C269.342 231.205 269.822 231.673 270.134 232.237V230.437H271.79V240.517C271.79 241.417 271.598 242.215 271.214 242.911C270.83 243.619 270.278 244.171 269.558 244.567C268.85 244.963 268.022 245.161 267.074 245.161C265.778 245.161 264.698 244.855 263.834 244.243C262.97 243.631 262.46 242.797 262.304 241.741H263.924C264.104 242.341 264.476 242.821 265.04 243.181C265.604 243.553 266.282 243.739 267.074 243.739C267.974 243.739 268.706 243.457 269.27 242.893C269.846 242.329 270.134 241.537 270.134 240.517V238.447C269.81 239.023 269.33 239.503 268.694 239.887C268.058 240.271 267.314 240.463 266.462 240.463C265.586 240.463 264.788 240.247 264.068 239.815C263.36 239.383 262.802 238.777 262.394 237.997C261.986 237.217 261.782 236.329 261.782 235.333C261.782 234.325 261.986 233.443 262.394 232.687C262.802 231.919 263.36 231.325 264.068 230.905C264.788 230.485 265.586 230.275 266.462 230.275ZM270.134 235.351C270.134 234.607 269.984 233.959 269.684 233.407C269.384 232.855 268.976 232.435 268.46 232.147C267.956 231.847 267.398 231.697 266.786 231.697C266.174 231.697 265.616 231.841 265.112 232.129C264.608 232.417 264.206 232.837 263.906 233.389C263.606 233.941 263.456 234.589 263.456 235.333C263.456 236.089 263.606 236.749 263.906 237.313C264.206 237.865 264.608 238.291 265.112 238.591C265.616 238.879 266.174 239.023 266.786 239.023C267.398 239.023 267.956 238.879 268.46 238.591C268.976 238.291 269.384 237.865 269.684 237.313C269.984 236.749 270.134 236.095 270.134 235.351ZM280.995 232.255C281.319 231.691 281.799 231.223 282.435 230.851C283.083 230.467 283.833 230.275 284.685 230.275C285.561 230.275 286.353 230.485 287.061 230.905C287.781 231.325 288.345 231.919 288.753 232.687C289.161 233.443 289.365 234.325 289.365 235.333C289.365 236.329 289.161 237.217 288.753 237.997C288.345 238.777 287.781 239.383 287.061 239.815C286.353 240.247 285.561 240.463 284.685 240.463C283.845 240.463 283.101 240.277 282.453 239.905C281.817 239.521 281.331 239.047 280.995 238.483V244.981H279.357V230.437H280.995V232.255ZM287.691 235.333C287.691 234.589 287.541 233.941 287.241 233.389C286.941 232.837 286.533 232.417 286.017 232.129C285.513 231.841 284.955 231.697 284.343 231.697C283.743 231.697 283.185 231.847 282.669 232.147C282.165 232.435 281.757 232.861 281.445 233.425C281.145 233.977 280.995 234.619 280.995 235.351C280.995 236.095 281.145 236.749 281.445 237.313C281.757 237.865 282.165 238.291 282.669 238.591C283.185 238.879 283.743 239.023 284.343 239.023C284.955 239.023 285.513 238.879 286.017 238.591C286.533 238.291 286.941 237.865 287.241 237.313C287.541 236.749 287.691 236.089 287.691 235.333ZM293.159 232.039C293.447 231.475 293.855 231.037 294.383 230.725C294.923 230.413 295.577 230.257 296.345 230.257V231.949H295.913C294.077 231.949 293.159 232.945 293.159 234.937V240.301H291.521V230.437H293.159V232.039ZM302.538 240.463C301.614 240.463 300.774 240.253 300.018 239.833C299.274 239.413 298.686 238.819 298.254 238.051C297.834 237.271 297.624 236.371 297.624 235.351C297.624 234.343 297.84 233.455 298.272 232.687C298.716 231.907 299.316 231.313 300.072 230.905C300.828 230.485 301.674 230.275 302.61 230.275C303.546 230.275 304.392 230.485 305.148 230.905C305.904 231.313 306.498 231.901 306.93 232.669C307.374 233.437 307.596 234.331 307.596 235.351C307.596 236.371 307.368 237.271 306.912 238.051C306.468 238.819 305.862 239.413 305.094 239.833C304.326 240.253 303.474 240.463 302.538 240.463ZM302.538 239.023C303.126 239.023 303.678 238.885 304.194 238.609C304.71 238.333 305.124 237.919 305.436 237.367C305.76 236.815 305.922 236.143 305.922 235.351C305.922 234.559 305.766 233.887 305.454 233.335C305.142 232.783 304.734 232.375 304.23 232.111C303.726 231.835 303.18 231.697 302.592 231.697C301.992 231.697 301.44 231.835 300.936 232.111C300.444 232.375 300.048 232.783 299.748 233.335C299.448 233.887 299.298 234.559 299.298 235.351C299.298 236.155 299.442 236.833 299.73 237.385C300.03 237.937 300.426 238.351 300.918 238.627C301.41 238.891 301.95 239.023 302.538 239.023ZM310.631 228.835C310.319 228.835 310.055 228.727 309.839 228.511C309.635 228.295 309.533 228.031 309.533 227.719C309.533 227.407 309.635 227.143 309.839 226.927C310.055 226.711 310.319 226.603 310.631 226.603C310.943 226.603 311.201 226.711 311.405 226.927C311.621 227.143 311.729 227.407 311.729 227.719C311.729 228.031 311.621 228.295 311.405 228.511C311.201 228.727 310.943 228.835 310.631 228.835ZM311.441 242.443C311.441 243.319 311.219 243.961 310.775 244.369C310.331 244.777 309.683 244.981 308.831 244.981H307.877V243.595H308.561C309.017 243.595 309.335 243.505 309.515 243.325C309.707 243.145 309.803 242.839 309.803 242.407V230.437H311.441V242.443ZM323.214 234.991C323.214 235.303 323.196 235.633 323.16 235.981H315.276C315.336 236.953 315.666 237.715 316.266 238.267C316.878 238.807 317.616 239.077 318.48 239.077C319.188 239.077 319.776 238.915 320.244 238.591C320.724 238.255 321.06 237.811 321.252 237.259H323.016C322.752 238.207 322.224 238.981 321.432 239.581C320.64 240.169 319.656 240.463 318.48 240.463C317.544 240.463 316.704 240.253 315.96 239.833C315.228 239.413 314.652 238.819 314.232 238.051C313.812 237.271 313.602 236.371 313.602 235.351C313.602 234.331 313.806 233.437 314.214 232.669C314.622 231.901 315.192 231.313 315.924 230.905C316.668 230.485 317.52 230.275 318.48 230.275C319.416 230.275 320.244 230.479 320.964 230.887C321.684 231.295 322.236 231.859 322.62 232.579C323.016 233.287 323.214 234.091 323.214 234.991ZM321.522 234.649C321.522 234.025 321.384 233.491 321.108 233.047C320.832 232.591 320.454 232.249 319.974 232.021C319.506 231.781 318.984 231.661 318.408 231.661C317.58 231.661 316.872 231.925 316.284 232.453C315.708 232.981 315.378 233.713 315.294 234.649H321.522ZM324.764 235.351C324.764 234.331 324.968 233.443 325.376 232.687C325.784 231.919 326.348 231.325 327.068 230.905C327.8 230.485 328.634 230.275 329.57 230.275C330.782 230.275 331.778 230.569 332.558 231.157C333.35 231.745 333.872 232.561 334.124 233.605H332.36C332.192 233.005 331.862 232.531 331.37 232.183C330.89 231.835 330.29 231.661 329.57 231.661C328.634 231.661 327.878 231.985 327.302 232.633C326.726 233.269 326.438 234.175 326.438 235.351C326.438 236.539 326.726 237.457 327.302 238.105C327.878 238.753 328.634 239.077 329.57 239.077C330.29 239.077 330.89 238.909 331.37 238.573C331.85 238.237 332.18 237.757 332.36 237.133H334.124C333.86 238.141 333.332 238.951 332.54 239.563C331.748 240.163 330.758 240.463 329.57 240.463C328.634 240.463 327.8 240.253 327.068 239.833C326.348 239.413 325.784 238.819 325.376 238.051C324.968 237.283 324.764 236.383 324.764 235.351ZM338.308 231.787V237.601C338.308 238.081 338.41 238.423 338.614 238.627C338.818 238.819 339.172 238.915 339.676 238.915H340.882V240.301H339.406C338.494 240.301 337.81 240.091 337.354 239.671C336.898 239.251 336.67 238.561 336.67 237.601V231.787H335.392V230.437H336.67V227.953H338.308V230.437H340.882V231.787H338.308ZM346.358 240.463C345.602 240.463 344.924 240.337 344.324 240.085C343.724 239.821 343.25 239.461 342.902 239.005C342.554 238.537 342.362 238.003 342.326 237.403H344.018C344.066 237.895 344.294 238.297 344.702 238.609C345.122 238.921 345.668 239.077 346.34 239.077C346.964 239.077 347.456 238.939 347.816 238.663C348.176 238.387 348.356 238.039 348.356 237.619C348.356 237.187 348.164 236.869 347.78 236.665C347.396 236.449 346.802 236.239 345.998 236.035C345.266 235.843 344.666 235.651 344.198 235.459C343.742 235.255 343.346 234.961 343.01 234.577C342.686 234.181 342.524 233.665 342.524 233.029C342.524 232.525 342.674 232.063 342.974 231.643C343.274 231.223 343.7 230.893 344.252 230.653C344.804 230.401 345.434 230.275 346.142 230.275C347.234 230.275 348.116 230.551 348.788 231.103C349.46 231.655 349.82 232.411 349.868 233.371H348.23C348.194 232.855 347.984 232.441 347.6 232.129C347.228 231.817 346.724 231.661 346.088 231.661C345.5 231.661 345.032 231.787 344.684 232.039C344.336 232.291 344.162 232.621 344.162 233.029C344.162 233.353 344.264 233.623 344.468 233.839C344.684 234.043 344.948 234.211 345.26 234.343C345.584 234.463 346.028 234.601 346.592 234.757C347.3 234.949 347.876 235.141 348.32 235.333C348.764 235.513 349.142 235.789 349.454 236.161C349.778 236.533 349.946 237.019 349.958 237.619C349.958 238.159 349.808 238.645 349.508 239.077C349.208 239.509 348.782 239.851 348.23 240.103C347.69 240.343 347.066 240.463 346.358 240.463Z" fill="#495057"/>
<path fill-rule="evenodd" clip-rule="evenodd" d="M573.161 210.402C574.93 225.391 588.075 236.025 602.497 234.136C616.92 232.246 627.193 218.543 625.425 203.554C623.656 188.566 610.511 177.931 596.088 179.821C581.666 181.711 571.392 195.414 573.161 210.402Z" fill="#262725"/>
<path fill-rule="evenodd" clip-rule="evenodd" d="M645.965 154.576L606.13 184.427C604.468 185.69 603.622 188.139 603.989 191.468C604.718 198.088 609.97 205.694 615.709 208.444C618.52 209.79 620.93 209.724 622.572 208.527L662.576 178.547C660.933 179.815 658.482 179.913 655.614 178.539C649.875 175.789 644.623 168.182 643.894 161.563C643.532 158.281 644.349 155.855 645.965 154.576Z" fill="white"/>
<path fill-rule="evenodd" clip-rule="evenodd" d="M645.965 154.576L606.13 184.427C604.468 185.69 603.622 188.139 603.989 191.468C604.718 198.088 609.97 205.694 615.709 208.444C618.52 209.79 620.93 209.724 622.572 208.527L662.576 178.547C660.933 179.815 658.482 179.913 655.614 178.539C649.875 175.789 644.623 168.182 643.894 161.563C643.532 158.281 644.349 155.855 645.965 154.576Z" stroke="#262725" stroke-width="2" stroke-linecap="round" stroke-linejoin="round"/>
<path fill-rule="evenodd" clip-rule="evenodd" d="M643.996 161.231C644.724 167.828 649.958 175.411 655.679 178.151C661.4 180.892 665.455 177.759 664.728 171.161C664.001 164.563 658.766 156.981 653.045 154.241C647.324 151.5 643.269 154.632 643.996 161.231Z" fill="#262725"/>
<path fill-rule="evenodd" clip-rule="evenodd" d="M643.996 161.231C644.724 167.828 649.958 175.411 655.679 178.151C661.4 180.892 665.455 177.759 664.728 171.161C664.001 164.563 658.766 156.981 653.045 154.241C647.324 151.5 643.269 154.632 643.996 161.231Z" stroke="#262725" stroke-width="2" stroke-linecap="round" stroke-linejoin="round"/>
<path fill-rule="evenodd" clip-rule="evenodd" d="M687.735 261.236C701.888 265.136 716.169 256.416 719.606 241.778C723.044 227.139 714.345 212.089 700.192 208.189C686.039 204.29 671.758 213.01 668.321 227.648C664.883 242.287 673.582 257.337 687.735 261.236Z" fill="#262725"/>
<path fill-rule="evenodd" clip-rule="evenodd" d="M661.291 164.017L675.624 220.053C676.239 222.398 678.329 224.37 681.744 225.405C688.532 227.464 697.999 225.045 702.871 220.007C705.257 217.539 706.101 214.898 705.543 212.602L691.149 156.327C691.776 158.654 690.947 161.353 688.512 163.871C683.64 168.91 674.173 171.328 667.384 169.27C664.019 168.249 661.94 166.319 661.291 164.017Z" fill="white"/>
<path fill-rule="evenodd" clip-rule="evenodd" d="M661.291 164.017L675.624 220.053C676.239 222.398 678.329 224.37 681.744 225.405C688.532 227.464 697.999 225.045 702.871 220.007C705.257 217.539 706.101 214.898 705.543 212.602L691.149 156.327C691.776 158.654 690.947 161.353 688.512 163.871C683.64 168.91 674.173 171.328 667.384 169.27C664.019 168.249 661.94 166.319 661.291 164.017Z" stroke="#262725" stroke-width="2" stroke-linecap="round" stroke-linejoin="round"/>
<path fill-rule="evenodd" clip-rule="evenodd" d="M667.647 169.352C674.451 171.416 683.939 168.992 688.822 163.941C693.705 158.891 692.145 153.115 685.341 151.052C678.537 148.988 669.049 151.413 664.166 156.463C659.283 161.513 660.843 167.289 667.647 169.352Z" fill="#262725"/>
<path fill-rule="evenodd" clip-rule="evenodd" d="M667.647 169.352C674.451 171.416 683.939 168.992 688.822 163.941C693.705 158.891 692.145 153.115 685.341 151.052C678.537 148.988 669.049 151.413 664.166 156.463C659.283 161.513 660.843 167.289 667.647 169.352Z" stroke="#262725" stroke-width="2" stroke-linecap="round" stroke-linejoin="round"/>
<path fill-rule="evenodd" clip-rule="evenodd" d="M743.562 192.016C749.323 187.03 750.202 178.099 745.524 172.084C740.846 166.069 732.372 165.233 726.611 170.219C720.85 175.205 719.971 184.136 724.649 190.151C729.327 196.166 737.802 197.002 743.562 192.016Z" fill="#262725"/>
<path fill-rule="evenodd" clip-rule="evenodd" d="M697.576 173.885L723.699 184.723C724.797 185.17 726.196 184.856 727.631 183.675C730.484 181.326 732.406 176.434 731.92 172.757C731.681 170.957 730.91 169.779 729.848 169.322L703.614 158.438C704.708 158.874 705.507 160.063 705.75 161.901C706.236 165.577 704.314 170.469 701.461 172.818C700.046 173.982 698.667 174.304 697.576 173.885Z" fill="white"/>
<path fill-rule="evenodd" clip-rule="evenodd" d="M697.576 173.885L723.699 184.723C724.797 185.17 726.196 184.856 727.631 183.675C730.484 181.326 732.406 176.434 731.92 172.757C731.681 170.957 730.91 169.779 729.848 169.322L703.614 158.438C704.708 158.874 705.507 160.063 705.75 161.901C706.236 165.577 704.314 170.469 701.461 172.818C700.046 173.982 698.667 174.304 697.576 173.885Z" stroke="#262725" stroke-width="2" stroke-linecap="round" stroke-linejoin="round"/>
<path fill-rule="evenodd" clip-rule="evenodd" d="M701.476 172.744C704.333 170.392 706.259 165.493 705.772 161.811C705.285 158.129 702.57 157.049 699.712 159.401C696.855 161.753 694.93 166.652 695.417 170.334C695.904 174.016 698.619 175.096 701.476 172.744Z" fill="#262725"/>
<path fill-rule="evenodd" clip-rule="evenodd" d="M701.476 172.744C704.333 170.392 706.259 165.493 705.772 161.811C705.285 158.129 702.57 157.049 699.712 159.401C696.855 161.753 694.93 166.652 695.417 170.334C695.904 174.016 698.619 175.096 701.476 172.744Z" stroke="#262725" stroke-width="2" stroke-linecap="round" stroke-linejoin="round"/>
<path d="M627.481 154.486C627.481 178.699 646.128 198.312 669.041 198.312C691.954 198.312 710.601 178.699 710.601 154.486C710.601 130.273 691.954 110.66 669.041 110.66C646.128 110.66 627.481 130.273 627.481 154.486Z" fill="#6033ED" stroke="black"/>
<path fill-rule="evenodd" clip-rule="evenodd" d="M694.863 74.617L670.052 120.075C669.024 121.988 669.19 124.64 670.795 127.569C673.986 133.394 681.665 138.123 687.932 138.123C691.001 138.123 693.166 136.989 694.202 135.145L719.118 89.4928C718.109 91.4018 715.918 92.5833 712.786 92.5833C706.519 92.5833 698.84 87.8537 695.649 82.0294C694.067 79.1417 693.883 76.524 694.863 74.617Z" fill="white"/>
<path fill-rule="evenodd" clip-rule="evenodd" d="M694.863 74.617L670.052 120.075C669.024 121.988 669.19 124.64 670.795 127.569C673.986 133.394 681.665 138.123 687.932 138.123C691.001 138.123 693.166 136.989 694.202 135.145L719.118 89.4928C718.109 91.4018 715.918 92.5833 712.786 92.5833C706.519 92.5833 698.84 87.8537 695.649 82.0294C694.067 79.1417 693.883 76.524 694.863 74.617Z" stroke="#262725" stroke-width="2" stroke-linecap="round" stroke-linejoin="round"/>
<path fill-rule="evenodd" clip-rule="evenodd" d="M695.649 82.0294C698.84 87.8537 706.519 92.5833 712.786 92.5833C719.053 92.5833 721.55 87.8537 718.359 82.0294C715.168 76.2043 707.489 71.4754 701.222 71.4754C694.955 71.4754 692.458 76.2043 695.649 82.0294Z" fill="#262725"/>
<path fill-rule="evenodd" clip-rule="evenodd" d="M695.649 82.0294C698.84 87.8537 706.519 92.5833 712.786 92.5833C719.053 92.5833 721.55 87.8537 718.359 82.0294C715.168 76.2043 707.489 71.4754 701.222 71.4754C694.955 71.4754 692.458 76.2043 695.649 82.0294Z" stroke="#262725" stroke-width="2" stroke-linecap="round" stroke-linejoin="round"/>
<path fill-rule="evenodd" clip-rule="evenodd" d="M684.674 64.6892C684.674 82.5652 698.444 97.0779 715.406 97.0779C732.367 97.0779 746.138 82.5652 746.138 64.6892C746.138 46.8138 732.367 32.3011 715.406 32.3011C698.444 32.3011 684.674 46.8138 684.674 64.6892Z" fill="#262725"/>
<path fill-rule="evenodd" clip-rule="evenodd" d="M613.623 113.48L639.308 138.267C640.391 139.299 642.126 139.621 644.251 138.986C648.476 137.724 652.652 133.155 653.57 128.789C654.02 126.651 653.606 124.955 652.569 123.929L626.774 99.0372C627.857 100.055 628.298 101.776 627.839 103.959C626.92 108.325 622.744 112.894 618.519 114.156C616.425 114.781 614.709 114.477 613.623 113.48Z" fill="white"/>
<path fill-rule="evenodd" clip-rule="evenodd" d="M613.623 113.48L639.308 138.267C640.391 139.299 642.126 139.621 644.251 138.986C648.476 137.724 652.652 133.155 653.57 128.789C654.02 126.651 653.606 124.955 652.569 123.929L626.774 99.0372C627.857 100.055 628.298 101.776 627.839 103.959C626.92 108.325 622.744 112.894 618.519 114.156C616.425 114.781 614.709 114.477 613.623 113.48Z" stroke="#262725" stroke-width="2" stroke-linecap="round" stroke-linejoin="round"/>
<path fill-rule="evenodd" clip-rule="evenodd" d="M618.809 114.268C623.054 113 627.25 108.408 628.174 104.021C629.097 99.6333 626.399 97.1007 622.154 98.3688C617.908 99.6368 613.712 104.228 612.789 108.616C611.866 113.003 614.563 115.536 618.809 114.268Z" fill="#262725"/>
<path fill-rule="evenodd" clip-rule="evenodd" d="M618.809 114.268C623.054 113 627.25 108.408 628.174 104.021C629.097 99.6333 626.399 97.1007 622.154 98.3688C617.908 99.6368 613.712 104.228 612.789 108.616C611.866 113.003 614.563 115.536 618.809 114.268Z" stroke="#262725" stroke-width="2" stroke-linecap="round" stroke-linejoin="round"/>
<path fill-rule="evenodd" clip-rule="evenodd" d="M606.122 119.234C617.621 122.13 629.024 114.815 631.569 102.91C634.114 91.0043 626.845 78.9876 615.345 76.0919C603.846 73.1963 592.444 80.5111 589.899 92.4166C587.353 104.322 594.623 116.339 606.122 119.234Z" fill="#262725"/>
</svg>
