<svg width="339" height="500" viewBox="0 0 339 500" fill="none" xmlns="http://www.w3.org/2000/svg">
<rect x="1" y="0.5" width="337" height="499" rx="7.5" fill="white"/>
<rect x="1" y="0.5" width="337" height="499" rx="7.5" stroke="#556AEB"/>
<rect x="32.5" y="32" width="48" height="48" rx="8" fill="#212529"/>
<path d="M58.2528 50.3636V62H56.4915V52.125H56.4233L53.6392 53.9432V52.2614L56.5426 50.3636H58.2528Z" fill="white"/>
<path d="M44.06 108.36C44.06 109.107 43.88 109.807 43.52 110.46C43.1733 111.113 42.62 111.64 41.86 112.04C41.1133 112.44 40.1667 112.64 39.02 112.64H36.68V118H33.88V104.04H39.02C40.1 104.04 41.02 104.227 41.78 104.6C42.54 104.973 43.1067 105.487 43.48 106.14C43.8667 106.793 44.06 107.533 44.06 108.36ZM38.9 110.38C39.6733 110.38 40.2467 110.207 40.62 109.86C40.9933 109.5 41.18 109 41.18 108.36C41.18 107 40.42 106.32 38.9 106.32H36.68V110.38H38.9ZM56.508 106.92V118H53.688V116.6C53.328 117.08 52.8546 117.46 52.268 117.74C51.6946 118.007 51.068 118.14 50.388 118.14C49.5213 118.14 48.7546 117.96 48.088 117.6C47.4213 117.227 46.8946 116.687 46.508 115.98C46.1346 115.26 45.948 114.407 45.948 113.42V106.92H48.748V113.02C48.748 113.9 48.968 114.58 49.408 115.06C49.848 115.527 50.448 115.76 51.208 115.76C51.9813 115.76 52.588 115.527 53.028 115.06C53.468 114.58 53.688 113.9 53.688 113.02V106.92H56.508ZM63.5106 118.18C62.604 118.18 61.7906 118.02 61.0706 117.7C60.3506 117.367 59.7773 116.92 59.3506 116.36C58.9373 115.8 58.7106 115.18 58.6706 114.5H61.4906C61.544 114.927 61.7506 115.28 62.1106 115.56C62.484 115.84 62.944 115.98 63.4906 115.98C64.024 115.98 64.4373 115.873 64.7306 115.66C65.0373 115.447 65.1906 115.173 65.1906 114.84C65.1906 114.48 65.004 114.213 64.6306 114.04C64.2706 113.853 63.6906 113.653 62.8906 113.44C62.064 113.24 61.384 113.033 60.8506 112.82C60.3306 112.607 59.8773 112.28 59.4906 111.84C59.1173 111.4 58.9306 110.807 58.9306 110.06C58.9306 109.447 59.104 108.887 59.4506 108.38C59.8106 107.873 60.3173 107.473 60.9706 107.18C61.6373 106.887 62.4173 106.74 63.3106 106.74C64.6306 106.74 65.684 107.073 66.4706 107.74C67.2573 108.393 67.6906 109.28 67.7706 110.4H65.0906C65.0506 109.96 64.864 109.613 64.5306 109.36C64.2106 109.093 63.7773 108.96 63.2306 108.96C62.724 108.96 62.3306 109.053 62.0506 109.24C61.784 109.427 61.6506 109.687 61.6506 110.02C61.6506 110.393 61.8373 110.68 62.2106 110.88C62.584 111.067 63.164 111.26 63.9506 111.46C64.7506 111.66 65.4106 111.867 65.9306 112.08C66.4506 112.293 66.8973 112.627 67.2706 113.08C67.6573 113.52 67.8573 114.107 67.8706 114.84C67.8706 115.48 67.6906 116.053 67.3306 116.56C66.984 117.067 66.4773 117.467 65.8106 117.76C65.1573 118.04 64.3906 118.18 63.5106 118.18ZM76.4091 106.76C77.2491 106.76 77.9957 106.947 78.6491 107.32C79.3024 107.68 79.8091 108.22 80.1691 108.94C80.5424 109.647 80.7291 110.5 80.7291 111.5V118H77.9291V111.88C77.9291 111 77.7091 110.327 77.2691 109.86C76.8291 109.38 76.2291 109.14 75.4691 109.14C74.6957 109.14 74.0824 109.38 73.6291 109.86C73.1891 110.327 72.9691 111 72.9691 111.88V118H70.1691V103.2H72.9691V108.3C73.3291 107.82 73.8091 107.447 74.4091 107.18C75.0091 106.9 75.6757 106.76 76.4091 106.76ZM98.3373 108.36C98.3373 109.107 98.1573 109.807 97.7973 110.46C97.4507 111.113 96.8973 111.64 96.1373 112.04C95.3907 112.44 94.444 112.64 93.2973 112.64H90.9573V118H88.1573V104.04H93.2973C94.3773 104.04 95.2973 104.227 96.0573 104.6C96.8173 104.973 97.384 105.487 97.7573 106.14C98.144 106.793 98.3373 107.533 98.3373 108.36ZM93.1773 110.38C93.9507 110.38 94.524 110.207 94.8973 109.86C95.2707 109.5 95.4573 109 95.4573 108.36C95.4573 107 94.6973 106.32 93.1773 106.32H90.9573V110.38H93.1773ZM101.745 105.6C101.252 105.6 100.839 105.447 100.505 105.14C100.185 104.82 100.025 104.427 100.025 103.96C100.025 103.493 100.185 103.107 100.505 102.8C100.839 102.48 101.252 102.32 101.745 102.32C102.239 102.32 102.645 102.48 102.965 102.8C103.299 103.107 103.465 103.493 103.465 103.96C103.465 104.427 103.299 104.82 102.965 105.14C102.645 105.447 102.239 105.6 101.745 105.6ZM103.125 106.92V118H100.325V106.92H103.125ZM112.032 106.76C113.352 106.76 114.418 107.18 115.232 108.02C116.045 108.847 116.452 110.007 116.452 111.5V118H113.652V111.88C113.652 111 113.432 110.327 112.992 109.86C112.552 109.38 111.952 109.14 111.192 109.14C110.418 109.14 109.805 109.38 109.352 109.86C108.912 110.327 108.692 111 108.692 111.88V118H105.892V106.92H108.692V108.3C109.065 107.82 109.538 107.447 110.112 107.18C110.698 106.9 111.338 106.76 112.032 106.76ZM123.354 118.18C122.448 118.18 121.634 118.02 120.914 117.7C120.194 117.367 119.621 116.92 119.194 116.36C118.781 115.8 118.554 115.18 118.514 114.5H121.334C121.388 114.927 121.594 115.28 121.954 115.56C122.328 115.84 122.788 115.98 123.334 115.98C123.868 115.98 124.281 115.873 124.574 115.66C124.881 115.447 125.034 115.173 125.034 114.84C125.034 114.48 124.848 114.213 124.474 114.04C124.114 113.853 123.534 113.653 122.734 113.44C121.908 113.24 121.228 113.033 120.694 112.82C120.174 112.607 119.721 112.28 119.334 111.84C118.961 111.4 118.774 110.807 118.774 110.06C118.774 109.447 118.948 108.887 119.294 108.38C119.654 107.873 120.161 107.473 120.814 107.18C121.481 106.887 122.261 106.74 123.154 106.74C124.474 106.74 125.528 107.073 126.314 107.74C127.101 108.393 127.534 109.28 127.614 110.4H124.934C124.894 109.96 124.708 109.613 124.374 109.36C124.054 109.093 123.621 108.96 123.074 108.96C122.568 108.96 122.174 109.053 121.894 109.24C121.628 109.427 121.494 109.687 121.494 110.02C121.494 110.393 121.681 110.68 122.054 110.88C122.428 111.067 123.008 111.26 123.794 111.46C124.594 111.66 125.254 111.867 125.774 112.08C126.294 112.293 126.741 112.627 127.114 113.08C127.501 113.52 127.701 114.107 127.714 114.84C127.714 115.48 127.534 116.053 127.174 116.56C126.828 117.067 126.321 117.467 125.654 117.76C125.001 118.04 124.234 118.18 123.354 118.18Z" fill="#212529"/>
<path d="M33.188 154.416C33.188 153.328 33.4333 152.352 33.924 151.488C34.4147 150.613 35.0813 149.931 35.924 149.44C36.7773 148.949 37.7213 148.704 38.756 148.704C39.972 148.704 41.0333 148.997 41.94 149.584C42.8467 150.171 43.508 151.003 43.924 152.08H42.18C41.8707 151.408 41.4227 150.891 40.836 150.528C40.26 150.165 39.5667 149.984 38.756 149.984C37.9773 149.984 37.2787 150.165 36.66 150.528C36.0413 150.891 35.556 151.408 35.204 152.08C34.852 152.741 34.676 153.52 34.676 154.416C34.676 155.301 34.852 156.08 35.204 156.752C35.556 157.413 36.0413 157.925 36.66 158.288C37.2787 158.651 37.9773 158.832 38.756 158.832C39.5667 158.832 40.26 158.656 40.836 158.304C41.4227 157.941 41.8707 157.424 42.18 156.752H43.924C43.508 157.819 42.8467 158.645 41.94 159.232C41.0333 159.808 39.972 160.096 38.756 160.096C37.7213 160.096 36.7773 159.856 35.924 159.376C35.0813 158.885 34.4147 158.208 33.924 157.344C33.4333 156.48 33.188 155.504 33.188 154.416ZM47.5474 152.656C47.8034 152.155 48.166 151.765 48.6354 151.488C49.1154 151.211 49.6967 151.072 50.3794 151.072V152.576H49.9954C48.3634 152.576 47.5474 153.461 47.5474 155.232V160H46.0914V151.232H47.5474V152.656ZM60.0601 155.28C60.0601 155.557 60.0441 155.851 60.0121 156.16H53.0041C53.0575 157.024 53.3508 157.701 53.8841 158.192C54.4281 158.672 55.0841 158.912 55.8521 158.912C56.4815 158.912 57.0041 158.768 57.4201 158.48C57.8468 158.181 58.1455 157.787 58.3161 157.296H59.8841C59.6495 158.139 59.1801 158.827 58.4761 159.36C57.7721 159.883 56.8975 160.144 55.8521 160.144C55.0201 160.144 54.2735 159.957 53.6121 159.584C52.9615 159.211 52.4495 158.683 52.0761 158C51.7028 157.307 51.5161 156.507 51.5161 155.6C51.5161 154.693 51.6975 153.899 52.0601 153.216C52.4228 152.533 52.9295 152.011 53.5801 151.648C54.2415 151.275 54.9988 151.088 55.8521 151.088C56.6841 151.088 57.4201 151.269 58.0601 151.632C58.7001 151.995 59.1908 152.496 59.5321 153.136C59.8841 153.765 60.0601 154.48 60.0601 155.28ZM58.5561 154.976C58.5561 154.421 58.4335 153.947 58.1881 153.552C57.9428 153.147 57.6068 152.843 57.1801 152.64C56.7641 152.427 56.3001 152.32 55.7881 152.32C55.0521 152.32 54.4228 152.555 53.9001 153.024C53.3881 153.493 53.0948 154.144 53.0201 154.976H58.5561ZM61.438 155.584C61.438 154.688 61.6193 153.904 61.982 153.232C62.3447 152.549 62.8407 152.021 63.47 151.648C64.11 151.275 64.8193 151.088 65.598 151.088C66.366 151.088 67.0327 151.253 67.598 151.584C68.1633 151.915 68.5847 152.331 68.862 152.832V151.232H70.334V160H68.862V158.368C68.574 158.88 68.142 159.307 67.566 159.648C67.0007 159.979 66.3393 160.144 65.582 160.144C64.8033 160.144 64.0993 159.952 63.47 159.568C62.8407 159.184 62.3447 158.645 61.982 157.952C61.6193 157.259 61.438 156.469 61.438 155.584ZM68.862 155.6C68.862 154.939 68.7287 154.363 68.462 153.872C68.1953 153.381 67.8327 153.008 67.374 152.752C66.926 152.485 66.43 152.352 65.886 152.352C65.342 152.352 64.846 152.48 64.398 152.736C63.95 152.992 63.5927 153.365 63.326 153.856C63.0593 154.347 62.926 154.923 62.926 155.584C62.926 156.256 63.0593 156.843 63.326 157.344C63.5927 157.835 63.95 158.213 64.398 158.48C64.846 158.736 65.342 158.864 65.886 158.864C66.43 158.864 66.926 158.736 67.374 158.48C67.8327 158.213 68.1953 157.835 68.462 157.344C68.7287 156.843 68.862 156.261 68.862 155.6ZM74.5705 152.432V157.6C74.5705 158.027 74.6612 158.331 74.8425 158.512C75.0238 158.683 75.3385 158.768 75.7865 158.768H76.8585V160H75.5465C74.7358 160 74.1278 159.813 73.7225 159.44C73.3172 159.067 73.1145 158.453 73.1145 157.6V152.432H71.9785V151.232H73.1145V149.024H74.5705V151.232H76.8585V152.432H74.5705ZM86.6226 155.28C86.6226 155.557 86.6066 155.851 86.5746 156.16H79.5666C79.62 157.024 79.9133 157.701 80.4466 158.192C80.9906 158.672 81.6466 158.912 82.4146 158.912C83.044 158.912 83.5666 158.768 83.9826 158.48C84.4093 158.181 84.708 157.787 84.8786 157.296H86.4466C86.212 158.139 85.7426 158.827 85.0386 159.36C84.3346 159.883 83.46 160.144 82.4146 160.144C81.5826 160.144 80.836 159.957 80.1746 159.584C79.524 159.211 79.012 158.683 78.6386 158C78.2653 157.307 78.0786 156.507 78.0786 155.6C78.0786 154.693 78.26 153.899 78.6226 153.216C78.9853 152.533 79.492 152.011 80.1426 151.648C80.804 151.275 81.5613 151.088 82.4146 151.088C83.2466 151.088 83.9826 151.269 84.6226 151.632C85.2626 151.995 85.7533 152.496 86.0946 153.136C86.4466 153.765 86.6226 154.48 86.6226 155.28ZM85.1186 154.976C85.1186 154.421 84.996 153.947 84.7506 153.552C84.5053 153.147 84.1693 152.843 83.7426 152.64C83.3266 152.427 82.8626 152.32 82.3506 152.32C81.6146 152.32 80.9853 152.555 80.4626 153.024C79.9506 153.493 79.6573 154.144 79.5826 154.976H85.1186ZM94.5861 152.432V157.6C94.5861 158.027 94.6768 158.331 94.8581 158.512C95.0395 158.683 95.3541 158.768 95.8021 158.768H96.8741V160H95.5621C94.7515 160 94.1435 159.813 93.7381 159.44C93.3328 159.067 93.1301 158.453 93.1301 157.6V152.432H91.9941V151.232H93.1301V149.024H94.5861V151.232H96.8741V152.432H94.5861ZM98.0943 155.584C98.0943 154.688 98.2756 153.904 98.6383 153.232C99.0009 152.549 99.4969 152.021 100.126 151.648C100.766 151.275 101.476 151.088 102.254 151.088C103.022 151.088 103.689 151.253 104.254 151.584C104.82 151.915 105.241 152.331 105.518 152.832V151.232H106.99V160H105.518V158.368C105.23 158.88 104.798 159.307 104.222 159.648C103.657 159.979 102.996 160.144 102.238 160.144C101.46 160.144 100.756 159.952 100.126 159.568C99.4969 159.184 99.0009 158.645 98.6383 157.952C98.2756 157.259 98.0943 156.469 98.0943 155.584ZM105.518 155.6C105.518 154.939 105.385 154.363 105.118 153.872C104.852 153.381 104.489 153.008 104.03 152.752C103.582 152.485 103.086 152.352 102.542 152.352C101.998 152.352 101.502 152.48 101.054 152.736C100.606 152.992 100.249 153.365 99.9823 153.856C99.7156 154.347 99.5823 154.923 99.5823 155.584C99.5823 156.256 99.7156 156.843 99.9823 157.344C100.249 157.835 100.606 158.213 101.054 158.48C101.502 158.736 101.998 158.864 102.542 158.864C103.086 158.864 103.582 158.736 104.03 158.48C104.489 158.213 104.852 157.835 105.118 157.344C105.385 156.843 105.518 156.261 105.518 155.6ZM110.907 152.864C111.205 152.341 111.643 151.915 112.219 151.584C112.795 151.253 113.451 151.088 114.187 151.088C114.976 151.088 115.685 151.275 116.315 151.648C116.944 152.021 117.44 152.549 117.803 153.232C118.165 153.904 118.347 154.688 118.347 155.584C118.347 156.469 118.165 157.259 117.803 157.952C117.44 158.645 116.939 159.184 116.299 159.568C115.669 159.952 114.965 160.144 114.187 160.144C113.429 160.144 112.763 159.979 112.187 159.648C111.621 159.317 111.195 158.896 110.907 158.384V160H109.451V148.16H110.907V152.864ZM116.859 155.584C116.859 154.923 116.725 154.347 116.459 153.856C116.192 153.365 115.829 152.992 115.371 152.736C114.923 152.48 114.427 152.352 113.883 152.352C113.349 152.352 112.853 152.485 112.395 152.752C111.947 153.008 111.584 153.387 111.307 153.888C111.04 154.379 110.907 154.949 110.907 155.6C110.907 156.261 111.04 156.843 111.307 157.344C111.584 157.835 111.947 158.213 112.395 158.48C112.853 158.736 113.349 158.864 113.883 158.864C114.427 158.864 114.923 158.736 115.371 158.48C115.829 158.213 116.192 157.835 116.459 157.344C116.725 156.843 116.859 156.256 116.859 155.584ZM123.367 160.144C122.695 160.144 122.093 160.032 121.559 159.808C121.026 159.573 120.605 159.253 120.295 158.848C119.986 158.432 119.815 157.957 119.783 157.424H121.287C121.33 157.861 121.533 158.219 121.895 158.496C122.269 158.773 122.754 158.912 123.351 158.912C123.906 158.912 124.343 158.789 124.663 158.544C124.983 158.299 125.143 157.989 125.143 157.616C125.143 157.232 124.973 156.949 124.631 156.768C124.29 156.576 123.762 156.389 123.047 156.208C122.397 156.037 121.863 155.867 121.447 155.696C121.042 155.515 120.69 155.253 120.391 154.912C120.103 154.56 119.959 154.101 119.959 153.536C119.959 153.088 120.093 152.677 120.359 152.304C120.626 151.931 121.005 151.637 121.495 151.424C121.986 151.2 122.546 151.088 123.175 151.088C124.146 151.088 124.93 151.333 125.527 151.824C126.125 152.315 126.445 152.987 126.487 153.84H125.031C124.999 153.381 124.813 153.013 124.471 152.736C124.141 152.459 123.693 152.32 123.127 152.32C122.605 152.32 122.189 152.432 121.879 152.656C121.57 152.88 121.415 153.173 121.415 153.536C121.415 153.824 121.506 154.064 121.687 154.256C121.879 154.437 122.114 154.587 122.391 154.704C122.679 154.811 123.074 154.933 123.575 155.072C124.205 155.243 124.717 155.413 125.111 155.584C125.506 155.744 125.842 155.989 126.119 156.32C126.407 156.651 126.557 157.083 126.567 157.616C126.567 158.096 126.434 158.528 126.167 158.912C125.901 159.296 125.522 159.6 125.031 159.824C124.551 160.037 123.997 160.144 123.367 160.144ZM134.344 152.864C134.643 152.341 135.08 151.915 135.656 151.584C136.232 151.253 136.888 151.088 137.624 151.088C138.414 151.088 139.123 151.275 139.752 151.648C140.382 152.021 140.878 152.549 141.24 153.232C141.603 153.904 141.784 154.688 141.784 155.584C141.784 156.469 141.603 157.259 141.24 157.952C140.878 158.645 140.376 159.184 139.736 159.568C139.107 159.952 138.403 160.144 137.624 160.144C136.867 160.144 136.2 159.979 135.624 159.648C135.059 159.317 134.632 158.896 134.344 158.384V160H132.888V148.16H134.344V152.864ZM140.296 155.584C140.296 154.923 140.163 154.347 139.896 153.856C139.63 153.365 139.267 152.992 138.808 152.736C138.36 152.48 137.864 152.352 137.32 152.352C136.787 152.352 136.291 152.485 135.832 152.752C135.384 153.008 135.022 153.387 134.744 153.888C134.478 154.379 134.344 154.949 134.344 155.6C134.344 156.261 134.478 156.843 134.744 157.344C135.022 157.835 135.384 158.213 135.832 158.48C136.291 158.736 136.787 158.864 137.32 158.864C137.864 158.864 138.36 158.736 138.808 158.48C139.267 158.213 139.63 157.835 139.896 157.344C140.163 156.843 140.296 156.256 140.296 155.584ZM151.253 151.232L145.973 164.128H144.469L146.197 159.904L142.661 151.232H144.277L147.029 158.336L149.749 151.232H151.253ZM156.438 155.6C156.438 154.693 156.619 153.904 156.982 153.232C157.345 152.549 157.846 152.021 158.486 151.648C159.137 151.275 159.878 151.088 160.71 151.088C161.787 151.088 162.673 151.349 163.366 151.872C164.07 152.395 164.534 153.12 164.758 154.048H163.19C163.041 153.515 162.747 153.093 162.31 152.784C161.883 152.475 161.35 152.32 160.71 152.32C159.878 152.32 159.206 152.608 158.694 153.184C158.182 153.749 157.926 154.555 157.926 155.6C157.926 156.656 158.182 157.472 158.694 158.048C159.206 158.624 159.878 158.912 160.71 158.912C161.35 158.912 161.883 158.763 162.31 158.464C162.737 158.165 163.03 157.739 163.19 157.184H164.758C164.523 158.08 164.054 158.8 163.35 159.344C162.646 159.877 161.766 160.144 160.71 160.144C159.878 160.144 159.137 159.957 158.486 159.584C157.846 159.211 157.345 158.683 156.982 158C156.619 157.317 156.438 156.517 156.438 155.6ZM168.157 148.16V160H166.701V148.16H168.157ZM171.39 149.808C171.113 149.808 170.878 149.712 170.686 149.52C170.494 149.328 170.398 149.093 170.398 148.816C170.398 148.539 170.494 148.304 170.686 148.112C170.878 147.92 171.113 147.824 171.39 147.824C171.657 147.824 171.881 147.92 172.062 148.112C172.254 148.304 172.35 148.539 172.35 148.816C172.35 149.093 172.254 149.328 172.062 149.52C171.881 149.712 171.657 149.808 171.39 149.808ZM172.094 151.232V160H170.638V151.232H172.094ZM174.032 155.6C174.032 154.693 174.213 153.904 174.576 153.232C174.938 152.549 175.44 152.021 176.08 151.648C176.73 151.275 177.472 151.088 178.304 151.088C179.381 151.088 180.266 151.349 180.96 151.872C181.664 152.395 182.128 153.12 182.352 154.048H180.784C180.634 153.515 180.341 153.093 179.904 152.784C179.477 152.475 178.944 152.32 178.304 152.32C177.472 152.32 176.8 152.608 176.288 153.184C175.776 153.749 175.52 154.555 175.52 155.6C175.52 156.656 175.776 157.472 176.288 158.048C176.8 158.624 177.472 158.912 178.304 158.912C178.944 158.912 179.477 158.763 179.904 158.464C180.33 158.165 180.624 157.739 180.784 157.184H182.352C182.117 158.08 181.648 158.8 180.944 159.344C180.24 159.877 179.36 160.144 178.304 160.144C177.472 160.144 176.73 159.957 176.08 159.584C175.44 159.211 174.938 158.683 174.576 158C174.213 157.317 174.032 156.517 174.032 155.6ZM189.191 160L185.751 156.128V160H184.295V148.16H185.751V155.12L189.127 151.232H191.159L187.031 155.6L191.175 160H189.191ZM193.281 149.808C193.004 149.808 192.769 149.712 192.577 149.52C192.385 149.328 192.289 149.093 192.289 148.816C192.289 148.539 192.385 148.304 192.577 148.112C192.769 147.92 193.004 147.824 193.281 147.824C193.548 147.824 193.772 147.92 193.953 148.112C194.145 148.304 194.241 148.539 194.241 148.816C194.241 149.093 194.145 149.328 193.953 149.52C193.772 149.712 193.548 149.808 193.281 149.808ZM193.985 151.232V160H192.529V151.232H193.985ZM200.738 151.072C201.805 151.072 202.669 151.397 203.33 152.048C203.992 152.688 204.322 153.616 204.322 154.832V160H202.882V155.04C202.882 154.165 202.664 153.499 202.226 153.04C201.789 152.571 201.192 152.336 200.434 152.336C199.666 152.336 199.053 152.576 198.594 153.056C198.146 153.536 197.922 154.235 197.922 155.152V160H196.466V151.232H197.922V152.48C198.21 152.032 198.6 151.685 199.09 151.44C199.592 151.195 200.141 151.072 200.738 151.072ZM210.317 151.088C211.074 151.088 211.735 151.253 212.301 151.584C212.877 151.915 213.303 152.331 213.581 152.832V151.232H215.053V160.192C215.053 160.992 214.882 161.701 214.541 162.32C214.199 162.949 213.709 163.44 213.069 163.792C212.439 164.144 211.703 164.32 210.861 164.32C209.709 164.32 208.749 164.048 207.981 163.504C207.213 162.96 206.759 162.219 206.621 161.28H208.061C208.221 161.813 208.551 162.24 209.053 162.56C209.554 162.891 210.157 163.056 210.861 163.056C211.661 163.056 212.311 162.805 212.813 162.304C213.325 161.803 213.581 161.099 213.581 160.192V158.352C213.293 158.864 212.866 159.291 212.301 159.632C211.735 159.973 211.074 160.144 210.317 160.144C209.538 160.144 208.829 159.952 208.189 159.568C207.559 159.184 207.063 158.645 206.701 157.952C206.338 157.259 206.157 156.469 206.157 155.584C206.157 154.688 206.338 153.904 206.701 153.232C207.063 152.549 207.559 152.021 208.189 151.648C208.829 151.275 209.538 151.088 210.317 151.088ZM213.581 155.6C213.581 154.939 213.447 154.363 213.181 153.872C212.914 153.381 212.551 153.008 212.093 152.752C211.645 152.485 211.149 152.352 210.605 152.352C210.061 152.352 209.565 152.48 209.117 152.736C208.669 152.992 208.311 153.365 208.045 153.856C207.778 154.347 207.645 154.923 207.645 155.584C207.645 156.256 207.778 156.843 208.045 157.344C208.311 157.835 208.669 158.213 209.117 158.48C209.565 158.736 210.061 158.864 210.605 158.864C211.149 158.864 211.645 158.736 212.093 158.48C212.551 158.213 212.914 157.835 213.181 157.344C213.447 156.843 213.581 156.261 213.581 155.6ZM225.603 160.144C224.782 160.144 224.035 159.957 223.363 159.584C222.702 159.211 222.179 158.683 221.795 158C221.422 157.307 221.235 156.507 221.235 155.6C221.235 154.704 221.427 153.915 221.811 153.232C222.206 152.539 222.739 152.011 223.411 151.648C224.083 151.275 224.835 151.088 225.667 151.088C226.499 151.088 227.251 151.275 227.923 151.648C228.595 152.011 229.123 152.533 229.507 153.216C229.902 153.899 230.099 154.693 230.099 155.6C230.099 156.507 229.896 157.307 229.491 158C229.096 158.683 228.558 159.211 227.875 159.584C227.192 159.957 226.435 160.144 225.603 160.144ZM225.603 158.864C226.126 158.864 226.616 158.741 227.075 158.496C227.534 158.251 227.902 157.883 228.179 157.392C228.467 156.901 228.611 156.304 228.611 155.6C228.611 154.896 228.472 154.299 228.195 153.808C227.918 153.317 227.555 152.955 227.107 152.72C226.659 152.475 226.174 152.352 225.651 152.352C225.118 152.352 224.627 152.475 224.179 152.72C223.742 152.955 223.39 153.317 223.123 153.808C222.856 154.299 222.723 154.896 222.723 155.6C222.723 156.315 222.851 156.917 223.107 157.408C223.374 157.899 223.726 158.267 224.163 158.512C224.6 158.747 225.08 158.864 225.603 158.864ZM236.285 151.072C237.352 151.072 238.216 151.397 238.877 152.048C239.539 152.688 239.869 153.616 239.869 154.832V160H238.429V155.04C238.429 154.165 238.211 153.499 237.773 153.04C237.336 152.571 236.739 152.336 235.981 152.336C235.213 152.336 234.6 152.576 234.141 153.056C233.693 153.536 233.469 154.235 233.469 155.152V160H232.013V151.232H233.469V152.48C233.757 152.032 234.147 151.685 234.637 151.44C235.139 151.195 235.688 151.072 236.285 151.072ZM247.969 152.848C248.257 152.347 248.684 151.931 249.249 151.6C249.825 151.259 250.492 151.088 251.249 151.088C252.028 151.088 252.732 151.275 253.361 151.648C254.001 152.021 254.503 152.549 254.865 153.232C255.228 153.904 255.409 154.688 255.409 155.584C255.409 156.469 255.228 157.259 254.865 157.952C254.503 158.645 254.001 159.184 253.361 159.568C252.732 159.952 252.028 160.144 251.249 160.144C250.503 160.144 249.841 159.979 249.265 159.648C248.7 159.307 248.268 158.885 247.969 158.384V164.16H246.513V151.232H247.969V152.848ZM253.921 155.584C253.921 154.923 253.788 154.347 253.521 153.856C253.255 153.365 252.892 152.992 252.433 152.736C251.985 152.48 251.489 152.352 250.945 152.352C250.412 152.352 249.916 152.485 249.457 152.752C249.009 153.008 248.647 153.387 248.369 153.888C248.103 154.379 247.969 154.949 247.969 155.6C247.969 156.261 248.103 156.843 248.369 157.344C248.647 157.835 249.009 158.213 249.457 158.48C249.916 158.736 250.412 158.864 250.945 158.864C251.489 158.864 251.985 158.736 252.433 158.48C252.892 158.213 253.255 157.835 253.521 157.344C253.788 156.843 253.921 156.256 253.921 155.584ZM265.102 151.232V160H263.646V158.704C263.368 159.152 262.979 159.504 262.478 159.76C261.987 160.005 261.443 160.128 260.846 160.128C260.163 160.128 259.55 159.989 259.006 159.712C258.462 159.424 258.03 158.997 257.71 158.432C257.4 157.867 257.246 157.179 257.246 156.368V151.232H258.686V156.176C258.686 157.04 258.904 157.707 259.342 158.176C259.779 158.635 260.376 158.864 261.134 158.864C261.912 158.864 262.526 158.624 262.974 158.144C263.422 157.664 263.646 156.965 263.646 156.048V151.232H265.102ZM270.664 160.144C269.992 160.144 269.389 160.032 268.856 159.808C268.323 159.573 267.901 159.253 267.592 158.848C267.283 158.432 267.112 157.957 267.08 157.424H268.584C268.627 157.861 268.829 158.219 269.192 158.496C269.565 158.773 270.051 158.912 270.648 158.912C271.203 158.912 271.64 158.789 271.96 158.544C272.28 158.299 272.44 157.989 272.44 157.616C272.44 157.232 272.269 156.949 271.928 156.768C271.587 156.576 271.059 156.389 270.344 156.208C269.693 156.037 269.16 155.867 268.744 155.696C268.339 155.515 267.987 155.253 267.688 154.912C267.4 154.56 267.256 154.101 267.256 153.536C267.256 153.088 267.389 152.677 267.656 152.304C267.923 151.931 268.301 151.637 268.792 151.424C269.283 151.2 269.843 151.088 270.472 151.088C271.443 151.088 272.227 151.333 272.824 151.824C273.421 152.315 273.741 152.987 273.784 153.84H272.328C272.296 153.381 272.109 153.013 271.768 152.736C271.437 152.459 270.989 152.32 270.424 152.32C269.901 152.32 269.485 152.432 269.176 152.656C268.867 152.88 268.712 153.173 268.712 153.536C268.712 153.824 268.803 154.064 268.984 154.256C269.176 154.437 269.411 154.587 269.688 154.704C269.976 154.811 270.371 154.933 270.872 155.072C271.501 155.243 272.013 155.413 272.408 155.584C272.803 155.744 273.139 155.989 273.416 156.32C273.704 156.651 273.853 157.083 273.864 157.616C273.864 158.096 273.731 158.528 273.464 158.912C273.197 159.296 272.819 159.6 272.328 159.824C271.848 160.037 271.293 160.144 270.664 160.144ZM280.272 151.072C280.933 151.072 281.53 151.216 282.064 151.504C282.597 151.781 283.013 152.203 283.312 152.768C283.621 153.333 283.776 154.021 283.776 154.832V160H282.336V155.04C282.336 154.165 282.117 153.499 281.68 153.04C281.242 152.571 280.645 152.336 279.888 152.336C279.12 152.336 278.506 152.576 278.048 153.056C277.6 153.536 277.376 154.235 277.376 155.152V160H275.92V148.16H277.376V152.48C277.664 152.032 278.058 151.685 278.56 151.44C279.072 151.195 279.642 151.072 280.272 151.072ZM35.188 176.848C35.476 176.347 35.9027 175.931 36.468 175.6C37.044 175.259 37.7107 175.088 38.468 175.088C39.2467 175.088 39.9507 175.275 40.58 175.648C41.22 176.021 41.7213 176.549 42.084 177.232C42.4467 177.904 42.628 178.688 42.628 179.584C42.628 180.469 42.4467 181.259 42.084 181.952C41.7213 182.645 41.22 183.184 40.58 183.568C39.9507 183.952 39.2467 184.144 38.468 184.144C37.7213 184.144 37.06 183.979 36.484 183.648C35.9187 183.307 35.4867 182.885 35.188 182.384V188.16H33.732V175.232H35.188V176.848ZM41.14 179.584C41.14 178.923 41.0067 178.347 40.74 177.856C40.4733 177.365 40.1107 176.992 39.652 176.736C39.204 176.48 38.708 176.352 38.164 176.352C37.6307 176.352 37.1347 176.485 36.676 176.752C36.228 177.008 35.8653 177.387 35.588 177.888C35.3213 178.379 35.188 178.949 35.188 179.6C35.188 180.261 35.3213 180.843 35.588 181.344C35.8653 181.835 36.228 182.213 36.676 182.48C37.1347 182.736 37.6307 182.864 38.164 182.864C38.708 182.864 39.204 182.736 39.652 182.48C40.1107 182.213 40.4733 181.835 40.74 181.344C41.0067 180.843 41.14 180.256 41.14 179.584ZM45.2965 173.808C45.0192 173.808 44.7845 173.712 44.5925 173.52C44.4005 173.328 44.3045 173.093 44.3045 172.816C44.3045 172.539 44.4005 172.304 44.5925 172.112C44.7845 171.92 45.0192 171.824 45.2965 171.824C45.5632 171.824 45.7872 171.92 45.9685 172.112C46.1605 172.304 46.2565 172.539 46.2565 172.816C46.2565 173.093 46.1605 173.328 45.9685 173.52C45.7872 173.712 45.5632 173.808 45.2965 173.808ZM46.0005 175.232V184H44.5445V175.232H46.0005ZM52.754 175.072C53.8207 175.072 54.6847 175.397 55.346 176.048C56.0073 176.688 56.338 177.616 56.338 178.832V184H54.898V179.04C54.898 178.165 54.6793 177.499 54.242 177.04C53.8047 176.571 53.2073 176.336 52.45 176.336C51.682 176.336 51.0687 176.576 50.61 177.056C50.162 177.536 49.938 178.235 49.938 179.152V184H48.482V175.232H49.938V176.48C50.226 176.032 50.6153 175.685 51.106 175.44C51.6073 175.195 52.1567 175.072 52.754 175.072ZM61.8204 184.144C61.1484 184.144 60.5457 184.032 60.0124 183.808C59.479 183.573 59.0577 183.253 58.7484 182.848C58.439 182.432 58.2684 181.957 58.2364 181.424H59.7404C59.783 181.861 59.9857 182.219 60.3484 182.496C60.7217 182.773 61.207 182.912 61.8044 182.912C62.359 182.912 62.7964 182.789 63.1164 182.544C63.4364 182.299 63.5964 181.989 63.5964 181.616C63.5964 181.232 63.4257 180.949 63.0844 180.768C62.743 180.576 62.215 180.389 61.5004 180.208C60.8497 180.037 60.3164 179.867 59.9004 179.696C59.495 179.515 59.143 179.253 58.8444 178.912C58.5564 178.56 58.4124 178.101 58.4124 177.536C58.4124 177.088 58.5457 176.677 58.8124 176.304C59.079 175.931 59.4577 175.637 59.9484 175.424C60.439 175.2 60.999 175.088 61.6284 175.088C62.599 175.088 63.383 175.333 63.9804 175.824C64.5777 176.315 64.8977 176.987 64.9404 177.84H63.4844C63.4524 177.381 63.2657 177.013 62.9244 176.736C62.5937 176.459 62.1457 176.32 61.5804 176.32C61.0577 176.32 60.6417 176.432 60.3324 176.656C60.023 176.88 59.8684 177.173 59.8684 177.536C59.8684 177.824 59.959 178.064 60.1404 178.256C60.3324 178.437 60.567 178.587 60.8444 178.704C61.1324 178.811 61.527 178.933 62.0284 179.072C62.6577 179.243 63.1697 179.413 63.5644 179.584C63.959 179.744 64.295 179.989 64.5724 180.32C64.8604 180.651 65.0097 181.083 65.0204 181.616C65.0204 182.096 64.887 182.528 64.6204 182.912C64.3537 183.296 63.975 183.6 63.4844 183.824C63.0044 184.037 62.4497 184.144 61.8204 184.144ZM72.0934 173.808C71.816 173.808 71.5814 173.712 71.3894 173.52C71.1974 173.328 71.1014 173.093 71.1014 172.816C71.1014 172.539 71.1974 172.304 71.3894 172.112C71.5814 171.92 71.816 171.824 72.0934 171.824C72.36 171.824 72.584 171.92 72.7654 172.112C72.9574 172.304 73.0534 172.539 73.0534 172.816C73.0534 173.093 72.9574 173.328 72.7654 173.52C72.584 173.712 72.36 173.808 72.0934 173.808ZM72.7974 175.232V184H71.3414V175.232H72.7974ZM74.7349 179.6C74.7349 178.693 74.9162 177.904 75.2789 177.232C75.6415 176.549 76.1429 176.021 76.7829 175.648C77.4335 175.275 78.1749 175.088 79.0069 175.088C80.0842 175.088 80.9695 175.349 81.6629 175.872C82.3669 176.395 82.8309 177.12 83.0549 178.048H81.4869C81.3375 177.515 81.0442 177.093 80.6069 176.784C80.1802 176.475 79.6469 176.32 79.0069 176.32C78.1749 176.32 77.5029 176.608 76.9909 177.184C76.4789 177.749 76.2229 178.555 76.2229 179.6C76.2229 180.656 76.4789 181.472 76.9909 182.048C77.5029 182.624 78.1749 182.912 79.0069 182.912C79.6469 182.912 80.1802 182.763 80.6069 182.464C81.0335 182.165 81.3269 181.739 81.4869 181.184H83.0549C82.8202 182.08 82.3509 182.8 81.6469 183.344C80.9429 183.877 80.0629 184.144 79.0069 184.144C78.1749 184.144 77.4335 183.957 76.7829 183.584C76.1429 183.211 75.6415 182.683 75.2789 182C74.9162 181.317 74.7349 180.517 74.7349 179.6ZM88.8216 184.144C88.0003 184.144 87.2536 183.957 86.5816 183.584C85.9203 183.211 85.3976 182.683 85.0136 182C84.6403 181.307 84.4536 180.507 84.4536 179.6C84.4536 178.704 84.6456 177.915 85.0296 177.232C85.4243 176.539 85.9576 176.011 86.6296 175.648C87.3016 175.275 88.0536 175.088 88.8856 175.088C89.7176 175.088 90.4696 175.275 91.1416 175.648C91.8136 176.011 92.3416 176.533 92.7256 177.216C93.1203 177.899 93.3176 178.693 93.3176 179.6C93.3176 180.507 93.115 181.307 92.7096 182C92.315 182.683 91.7763 183.211 91.0936 183.584C90.411 183.957 89.6536 184.144 88.8216 184.144ZM88.8216 182.864C89.3443 182.864 89.835 182.741 90.2936 182.496C90.7523 182.251 91.1203 181.883 91.3976 181.392C91.6856 180.901 91.8296 180.304 91.8296 179.6C91.8296 178.896 91.691 178.299 91.4136 177.808C91.1363 177.317 90.7736 176.955 90.3256 176.72C89.8776 176.475 89.3923 176.352 88.8696 176.352C88.3363 176.352 87.8456 176.475 87.3976 176.72C86.9603 176.955 86.6083 177.317 86.3416 177.808C86.075 178.299 85.9416 178.896 85.9416 179.6C85.9416 180.315 86.0696 180.917 86.3256 181.408C86.5923 181.899 86.9443 182.267 87.3816 182.512C87.819 182.747 88.299 182.864 88.8216 182.864ZM99.504 175.072C100.571 175.072 101.435 175.397 102.096 176.048C102.757 176.688 103.088 177.616 103.088 178.832V184H101.648V179.04C101.648 178.165 101.429 177.499 100.992 177.04C100.555 176.571 99.9573 176.336 99.2 176.336C98.432 176.336 97.8187 176.576 97.36 177.056C96.912 177.536 96.688 178.235 96.688 179.152V184H95.232V175.232H96.688V176.48C96.976 176.032 97.3653 175.685 97.856 175.44C98.3573 175.195 98.9067 175.072 99.504 175.072ZM108.57 184.144C107.898 184.144 107.296 184.032 106.762 183.808C106.229 183.573 105.808 183.253 105.498 182.848C105.189 182.432 105.018 181.957 104.986 181.424H106.49C106.533 181.861 106.736 182.219 107.098 182.496C107.472 182.773 107.957 182.912 108.554 182.912C109.109 182.912 109.546 182.789 109.866 182.544C110.186 182.299 110.346 181.989 110.346 181.616C110.346 181.232 110.176 180.949 109.834 180.768C109.493 180.576 108.965 180.389 108.25 180.208C107.6 180.037 107.066 179.867 106.65 179.696C106.245 179.515 105.893 179.253 105.594 178.912C105.306 178.56 105.162 178.101 105.162 177.536C105.162 177.088 105.296 176.677 105.562 176.304C105.829 175.931 106.208 175.637 106.698 175.424C107.189 175.2 107.749 175.088 108.378 175.088C109.349 175.088 110.133 175.333 110.73 175.824C111.328 176.315 111.648 176.987 111.69 177.84H110.234C110.202 177.381 110.016 177.013 109.674 176.736C109.344 176.459 108.896 176.32 108.33 176.32C107.808 176.32 107.392 176.432 107.082 176.656C106.773 176.88 106.618 177.173 106.618 177.536C106.618 177.824 106.709 178.064 106.89 178.256C107.082 178.437 107.317 178.587 107.594 178.704C107.882 178.811 108.277 178.933 108.778 179.072C109.408 179.243 109.92 179.413 110.314 179.584C110.709 179.744 111.045 179.989 111.322 180.32C111.61 180.651 111.76 181.083 111.77 181.616C111.77 182.096 111.637 182.528 111.37 182.912C111.104 183.296 110.725 183.6 110.234 183.824C109.754 184.037 109.2 184.144 108.57 184.144ZM121.659 176.432H119.819V184H118.363V176.432H117.227V175.232H118.363V174.608C118.363 173.627 118.614 172.912 119.115 172.464C119.627 172.005 120.443 171.776 121.563 171.776V172.992C120.923 172.992 120.47 173.12 120.203 173.376C119.947 173.621 119.819 174.032 119.819 174.608V175.232H121.659V176.432ZM127.181 184.144C126.36 184.144 125.613 183.957 124.941 183.584C124.28 183.211 123.757 182.683 123.373 182C123 181.307 122.813 180.507 122.813 179.6C122.813 178.704 123.005 177.915 123.389 177.232C123.784 176.539 124.317 176.011 124.989 175.648C125.661 175.275 126.413 175.088 127.245 175.088C128.077 175.088 128.829 175.275 129.501 175.648C130.173 176.011 130.701 176.533 131.085 177.216C131.48 177.899 131.677 178.693 131.677 179.6C131.677 180.507 131.474 181.307 131.069 182C130.674 182.683 130.136 183.211 129.453 183.584C128.77 183.957 128.013 184.144 127.181 184.144ZM127.181 182.864C127.704 182.864 128.194 182.741 128.653 182.496C129.112 182.251 129.48 181.883 129.757 181.392C130.045 180.901 130.189 180.304 130.189 179.6C130.189 178.896 130.05 178.299 129.773 177.808C129.496 177.317 129.133 176.955 128.685 176.72C128.237 176.475 127.752 176.352 127.229 176.352C126.696 176.352 126.205 176.475 125.757 176.72C125.32 176.955 124.968 177.317 124.701 177.808C124.434 178.299 124.301 178.896 124.301 179.6C124.301 180.315 124.429 180.917 124.685 181.408C124.952 181.899 125.304 182.267 125.741 182.512C126.178 182.747 126.658 182.864 127.181 182.864ZM135.047 176.656C135.303 176.155 135.666 175.765 136.135 175.488C136.615 175.211 137.197 175.072 137.879 175.072V176.576H137.495C135.863 176.576 135.047 177.461 135.047 179.232V184H133.591V175.232H135.047V176.656ZM151.378 175.232L146.098 188.128H144.594L146.322 183.904L142.786 175.232H144.402L147.154 182.336L149.874 175.232H151.378ZM156.665 184.144C155.844 184.144 155.097 183.957 154.425 183.584C153.764 183.211 153.241 182.683 152.857 182C152.484 181.307 152.297 180.507 152.297 179.6C152.297 178.704 152.489 177.915 152.873 177.232C153.268 176.539 153.801 176.011 154.473 175.648C155.145 175.275 155.897 175.088 156.729 175.088C157.561 175.088 158.313 175.275 158.985 175.648C159.657 176.011 160.185 176.533 160.569 177.216C160.964 177.899 161.161 178.693 161.161 179.6C161.161 180.507 160.959 181.307 160.553 182C160.159 182.683 159.62 183.211 158.937 183.584C158.255 183.957 157.497 184.144 156.665 184.144ZM156.665 182.864C157.188 182.864 157.679 182.741 158.137 182.496C158.596 182.251 158.964 181.883 159.241 181.392C159.529 180.901 159.673 180.304 159.673 179.6C159.673 178.896 159.535 178.299 159.257 177.808C158.98 177.317 158.617 176.955 158.169 176.72C157.721 176.475 157.236 176.352 156.713 176.352C156.18 176.352 155.689 176.475 155.241 176.72C154.804 176.955 154.452 177.317 154.185 177.808C153.919 178.299 153.785 178.896 153.785 179.6C153.785 180.315 153.913 180.917 154.169 181.408C154.436 181.899 154.788 182.267 155.225 182.512C155.663 182.747 156.143 182.864 156.665 182.864ZM170.852 175.232V184H169.396V182.704C169.118 183.152 168.729 183.504 168.228 183.76C167.737 184.005 167.193 184.128 166.596 184.128C165.913 184.128 165.3 183.989 164.756 183.712C164.212 183.424 163.78 182.997 163.46 182.432C163.15 181.867 162.996 181.179 162.996 180.368V175.232H164.436V180.176C164.436 181.04 164.654 181.707 165.092 182.176C165.529 182.635 166.126 182.864 166.884 182.864C167.662 182.864 168.276 182.624 168.724 182.144C169.172 181.664 169.396 180.965 169.396 180.048V175.232H170.852ZM179.352 176.432V181.6C179.352 182.027 179.442 182.331 179.624 182.512C179.805 182.683 180.12 182.768 180.568 182.768H181.64V184H180.328C179.517 184 178.909 183.813 178.504 183.44C178.098 183.067 177.896 182.453 177.896 181.6V176.432H176.76V175.232H177.896V173.024H179.352V175.232H181.64V176.432H179.352ZM187.228 184.144C186.407 184.144 185.66 183.957 184.988 183.584C184.327 183.211 183.804 182.683 183.42 182C183.047 181.307 182.86 180.507 182.86 179.6C182.86 178.704 183.052 177.915 183.436 177.232C183.831 176.539 184.364 176.011 185.036 175.648C185.708 175.275 186.46 175.088 187.292 175.088C188.124 175.088 188.876 175.275 189.548 175.648C190.22 176.011 190.748 176.533 191.132 177.216C191.527 177.899 191.724 178.693 191.724 179.6C191.724 180.507 191.521 181.307 191.116 182C190.721 182.683 190.183 183.211 189.5 183.584C188.817 183.957 188.06 184.144 187.228 184.144ZM187.228 182.864C187.751 182.864 188.241 182.741 188.7 182.496C189.159 182.251 189.527 181.883 189.804 181.392C190.092 180.901 190.236 180.304 190.236 179.6C190.236 178.896 190.097 178.299 189.82 177.808C189.543 177.317 189.18 176.955 188.732 176.72C188.284 176.475 187.799 176.352 187.276 176.352C186.743 176.352 186.252 176.475 185.804 176.72C185.367 176.955 185.015 177.317 184.748 177.808C184.481 178.299 184.348 178.896 184.348 179.6C184.348 180.315 184.476 180.917 184.732 181.408C184.999 181.899 185.351 182.267 185.788 182.512C186.225 182.747 186.705 182.864 187.228 182.864ZM201.472 176.432H199.632V184H198.176V176.432H197.04V175.232H198.176V174.608C198.176 173.627 198.427 172.912 198.928 172.464C199.44 172.005 200.256 171.776 201.376 171.776V172.992C200.736 172.992 200.283 173.12 200.016 173.376C199.76 173.621 199.632 174.032 199.632 174.608V175.232H201.472V176.432ZM206.994 184.144C206.172 184.144 205.426 183.957 204.754 183.584C204.092 183.211 203.57 182.683 203.186 182C202.812 181.307 202.626 180.507 202.626 179.6C202.626 178.704 202.818 177.915 203.202 177.232C203.596 176.539 204.13 176.011 204.802 175.648C205.474 175.275 206.226 175.088 207.058 175.088C207.89 175.088 208.642 175.275 209.314 175.648C209.986 176.011 210.514 176.533 210.898 177.216C211.292 177.899 211.49 178.693 211.49 179.6C211.49 180.507 211.287 181.307 210.882 182C210.487 182.683 209.948 183.211 209.266 183.584C208.583 183.957 207.826 184.144 206.994 184.144ZM206.994 182.864C207.516 182.864 208.007 182.741 208.466 182.496C208.924 182.251 209.292 181.883 209.57 181.392C209.858 180.901 210.002 180.304 210.002 179.6C210.002 178.896 209.863 178.299 209.586 177.808C209.308 177.317 208.946 176.955 208.498 176.72C208.05 176.475 207.564 176.352 207.042 176.352C206.508 176.352 206.018 176.475 205.57 176.72C205.132 176.955 204.78 177.317 204.514 177.808C204.247 178.299 204.114 178.896 204.114 179.6C204.114 180.315 204.242 180.917 204.498 181.408C204.764 181.899 205.116 182.267 205.554 182.512C205.991 182.747 206.471 182.864 206.994 182.864ZM212.86 179.6C212.86 178.693 213.041 177.904 213.404 177.232C213.767 176.549 214.268 176.021 214.908 175.648C215.559 175.275 216.3 175.088 217.132 175.088C218.209 175.088 219.095 175.349 219.788 175.872C220.492 176.395 220.956 177.12 221.18 178.048H219.612C219.463 177.515 219.169 177.093 218.732 176.784C218.305 176.475 217.772 176.32 217.132 176.32C216.3 176.32 215.628 176.608 215.116 177.184C214.604 177.749 214.348 178.555 214.348 179.6C214.348 180.656 214.604 181.472 215.116 182.048C215.628 182.624 216.3 182.912 217.132 182.912C217.772 182.912 218.305 182.763 218.732 182.464C219.159 182.165 219.452 181.739 219.612 181.184H221.18C220.945 182.08 220.476 182.8 219.772 183.344C219.068 183.877 218.188 184.144 217.132 184.144C216.3 184.144 215.559 183.957 214.908 183.584C214.268 183.211 213.767 182.683 213.404 182C213.041 181.317 212.86 180.517 212.86 179.6ZM230.899 175.232V184H229.443V182.704C229.165 183.152 228.776 183.504 228.275 183.76C227.784 184.005 227.24 184.128 226.643 184.128C225.96 184.128 225.347 183.989 224.803 183.712C224.259 183.424 223.827 182.997 223.507 182.432C223.197 181.867 223.043 181.179 223.043 180.368V175.232H224.483V180.176C224.483 181.04 224.701 181.707 225.139 182.176C225.576 182.635 226.173 182.864 226.931 182.864C227.709 182.864 228.323 182.624 228.771 182.144C229.219 181.664 229.443 180.965 229.443 180.048V175.232H230.899ZM236.461 184.144C235.789 184.144 235.186 184.032 234.653 183.808C234.12 183.573 233.698 183.253 233.389 182.848C233.08 182.432 232.909 181.957 232.877 181.424H234.381C234.424 181.861 234.626 182.219 234.989 182.496C235.362 182.773 235.848 182.912 236.445 182.912C237 182.912 237.437 182.789 237.757 182.544C238.077 182.299 238.237 181.989 238.237 181.616C238.237 181.232 238.066 180.949 237.725 180.768C237.384 180.576 236.856 180.389 236.141 180.208C235.49 180.037 234.957 179.867 234.541 179.696C234.136 179.515 233.784 179.253 233.485 178.912C233.197 178.56 233.053 178.101 233.053 177.536C233.053 177.088 233.186 176.677 233.453 176.304C233.72 175.931 234.098 175.637 234.589 175.424C235.08 175.2 235.64 175.088 236.269 175.088C237.24 175.088 238.024 175.333 238.621 175.824C239.218 176.315 239.538 176.987 239.581 177.84H238.125C238.093 177.381 237.906 177.013 237.565 176.736C237.234 176.459 236.786 176.32 236.221 176.32C235.698 176.32 235.282 176.432 234.973 176.656C234.664 176.88 234.509 177.173 234.509 177.536C234.509 177.824 234.6 178.064 234.781 178.256C234.973 178.437 235.208 178.587 235.485 178.704C235.773 178.811 236.168 178.933 236.669 179.072C237.298 179.243 237.81 179.413 238.205 179.584C238.6 179.744 238.936 179.989 239.213 180.32C239.501 180.651 239.65 181.083 239.661 181.616C239.661 182.096 239.528 182.528 239.261 182.912C238.994 183.296 238.616 183.6 238.125 183.824C237.645 184.037 237.09 184.144 236.461 184.144ZM249.806 184.144C248.985 184.144 248.238 183.957 247.566 183.584C246.905 183.211 246.382 182.683 245.998 182C245.625 181.307 245.438 180.507 245.438 179.6C245.438 178.704 245.63 177.915 246.014 177.232C246.409 176.539 246.942 176.011 247.614 175.648C248.286 175.275 249.038 175.088 249.87 175.088C250.702 175.088 251.454 175.275 252.126 175.648C252.798 176.011 253.326 176.533 253.71 177.216C254.105 177.899 254.302 178.693 254.302 179.6C254.302 180.507 254.099 181.307 253.694 182C253.299 182.683 252.761 183.211 252.078 183.584C251.395 183.957 250.638 184.144 249.806 184.144ZM249.806 182.864C250.329 182.864 250.819 182.741 251.278 182.496C251.737 182.251 252.105 181.883 252.382 181.392C252.67 180.901 252.814 180.304 252.814 179.6C252.814 178.896 252.675 178.299 252.398 177.808C252.121 177.317 251.758 176.955 251.31 176.72C250.862 176.475 250.377 176.352 249.854 176.352C249.321 176.352 248.83 176.475 248.382 176.72C247.945 176.955 247.593 177.317 247.326 177.808C247.059 178.299 246.926 178.896 246.926 179.6C246.926 180.315 247.054 180.917 247.31 181.408C247.577 181.899 247.929 182.267 248.366 182.512C248.803 182.747 249.283 182.864 249.806 182.864ZM260.488 175.072C261.555 175.072 262.419 175.397 263.08 176.048C263.742 176.688 264.072 177.616 264.072 178.832V184H262.632V179.04C262.632 178.165 262.414 177.499 261.976 177.04C261.539 176.571 260.942 176.336 260.184 176.336C259.416 176.336 258.803 176.576 258.344 177.056C257.896 177.536 257.672 178.235 257.672 179.152V184H256.216V175.232H257.672V176.48C257.96 176.032 258.35 175.685 258.84 175.44C259.342 175.195 259.891 175.072 260.488 175.072ZM278.268 175.232L272.988 188.128H271.484L273.212 183.904L269.676 175.232H271.292L274.044 182.336L276.764 175.232H278.268ZM283.556 184.144C282.735 184.144 281.988 183.957 281.316 183.584C280.655 183.211 280.132 182.683 279.748 182C279.375 181.307 279.188 180.507 279.188 179.6C279.188 178.704 279.38 177.915 279.764 177.232C280.159 176.539 280.692 176.011 281.364 175.648C282.036 175.275 282.788 175.088 283.62 175.088C284.452 175.088 285.204 175.275 285.876 175.648C286.548 176.011 287.076 176.533 287.46 177.216C287.855 177.899 288.052 178.693 288.052 179.6C288.052 180.507 287.849 181.307 287.444 182C287.049 182.683 286.511 183.211 285.828 183.584C285.145 183.957 284.388 184.144 283.556 184.144ZM283.556 182.864C284.079 182.864 284.569 182.741 285.028 182.496C285.487 182.251 285.855 181.883 286.132 181.392C286.42 180.901 286.564 180.304 286.564 179.6C286.564 178.896 286.425 178.299 286.148 177.808C285.871 177.317 285.508 176.955 285.06 176.72C284.612 176.475 284.127 176.352 283.604 176.352C283.071 176.352 282.58 176.475 282.132 176.72C281.695 176.955 281.343 177.317 281.076 177.808C280.809 178.299 280.676 178.896 280.676 179.6C280.676 180.315 280.804 180.917 281.06 181.408C281.327 181.899 281.679 182.267 282.116 182.512C282.553 182.747 283.033 182.864 283.556 182.864ZM297.742 175.232V184H296.286V182.704C296.009 183.152 295.62 183.504 295.118 183.76C294.628 184.005 294.084 184.128 293.486 184.128C292.804 184.128 292.19 183.989 291.646 183.712C291.102 183.424 290.67 182.997 290.35 182.432C290.041 181.867 289.886 181.179 289.886 180.368V175.232H291.326V180.176C291.326 181.04 291.545 181.707 291.982 182.176C292.42 182.635 293.017 182.864 293.774 182.864C294.553 182.864 295.166 182.624 295.614 182.144C296.062 181.664 296.286 180.965 296.286 180.048V175.232H297.742ZM301.657 176.656C301.913 176.155 302.275 175.765 302.745 175.488C303.225 175.211 303.806 175.072 304.489 175.072V176.576H304.105C302.473 176.576 301.657 177.461 301.657 179.232V184H300.201V175.232H301.657V176.656ZM45.412 199.232L42.676 208H41.172L39.06 201.04L36.948 208H35.444L32.692 199.232H34.18L36.196 206.592L38.372 199.232H39.86L41.988 206.608L43.972 199.232H45.412ZM50.681 208.144C49.8597 208.144 49.113 207.957 48.441 207.584C47.7797 207.211 47.257 206.683 46.873 206C46.4997 205.307 46.313 204.507 46.313 203.6C46.313 202.704 46.505 201.915 46.889 201.232C47.2837 200.539 47.817 200.011 48.489 199.648C49.161 199.275 49.913 199.088 50.745 199.088C51.577 199.088 52.329 199.275 53.001 199.648C53.673 200.011 54.201 200.533 54.585 201.216C54.9797 201.899 55.177 202.693 55.177 203.6C55.177 204.507 54.9743 205.307 54.569 206C54.1743 206.683 53.6357 207.211 52.953 207.584C52.2703 207.957 51.513 208.144 50.681 208.144ZM50.681 206.864C51.2037 206.864 51.6943 206.741 52.153 206.496C52.6117 206.251 52.9797 205.883 53.257 205.392C53.545 204.901 53.689 204.304 53.689 203.6C53.689 202.896 53.5503 202.299 53.273 201.808C52.9957 201.317 52.633 200.955 52.185 200.72C51.737 200.475 51.2517 200.352 50.729 200.352C50.1957 200.352 49.705 200.475 49.257 200.72C48.8197 200.955 48.4677 201.317 48.201 201.808C47.9343 202.299 47.801 202.896 47.801 203.6C47.801 204.315 47.929 204.917 48.185 205.408C48.4517 205.899 48.8037 206.267 49.241 206.512C49.6783 206.747 50.1583 206.864 50.681 206.864ZM58.5474 200.656C58.8034 200.155 59.166 199.765 59.6354 199.488C60.1154 199.211 60.6967 199.072 61.3794 199.072V200.576H60.9954C59.3634 200.576 58.5474 201.461 58.5474 203.232V208H57.0914V199.232H58.5474V200.656ZM67.9561 208L64.5161 204.128V208H63.0601V196.16H64.5161V203.12L67.8921 199.232H69.9241L65.7961 203.6L69.9401 208H67.9561ZM87.2401 199.232L84.5041 208H83.0001L80.8881 201.04L78.7761 208H77.2721L74.5201 199.232H76.0081L78.0241 206.592L80.2001 199.232H81.6881L83.8161 206.608L85.8001 199.232H87.2401ZM89.4371 197.808C89.1598 197.808 88.9251 197.712 88.7331 197.52C88.5411 197.328 88.4451 197.093 88.4451 196.816C88.4451 196.539 88.5411 196.304 88.7331 196.112C88.9251 195.92 89.1598 195.824 89.4371 195.824C89.7038 195.824 89.9278 195.92 90.1091 196.112C90.3011 196.304 90.3971 196.539 90.3971 196.816C90.3971 197.093 90.3011 197.328 90.1091 197.52C89.9278 197.712 89.7038 197.808 89.4371 197.808ZM90.1411 199.232V208H88.6851V199.232H90.1411ZM94.3986 200.432V205.6C94.3986 206.027 94.4893 206.331 94.6706 206.512C94.852 206.683 95.1666 206.768 95.6146 206.768H96.6866V208H95.3746C94.564 208 93.956 207.813 93.5506 207.44C93.1453 207.067 92.9426 206.453 92.9426 205.6V200.432H91.8066V199.232H92.9426V197.024H94.3986V199.232H96.6866V200.432H94.3986ZM102.803 199.072C103.464 199.072 104.061 199.216 104.595 199.504C105.128 199.781 105.544 200.203 105.843 200.768C106.152 201.333 106.307 202.021 106.307 202.832V208H104.867V203.04C104.867 202.165 104.648 201.499 104.211 201.04C103.773 200.571 103.176 200.336 102.419 200.336C101.651 200.336 101.037 200.576 100.579 201.056C100.131 201.536 99.9068 202.235 99.9068 203.152V208H98.4508V196.16H99.9068V200.48C100.195 200.032 100.589 199.685 101.091 199.44C101.603 199.195 102.173 199.072 102.803 199.072ZM116.519 200.432H114.679V208H113.223V200.432H112.087V199.232H113.223V198.608C113.223 197.627 113.473 196.912 113.975 196.464C114.487 196.005 115.303 195.776 116.423 195.776V196.992C115.783 196.992 115.329 197.12 115.063 197.376C114.807 197.621 114.679 198.032 114.679 198.608V199.232H116.519V200.432ZM125.992 199.232V208H124.536V206.704C124.259 207.152 123.87 207.504 123.368 207.76C122.878 208.005 122.334 208.128 121.736 208.128C121.054 208.128 120.44 207.989 119.896 207.712C119.352 207.424 118.92 206.997 118.6 206.432C118.291 205.867 118.136 205.179 118.136 204.368V199.232H119.576V204.176C119.576 205.04 119.795 205.707 120.232 206.176C120.67 206.635 121.267 206.864 122.024 206.864C122.803 206.864 123.416 206.624 123.864 206.144C124.312 205.664 124.536 204.965 124.536 204.048V199.232H125.992ZM129.907 196.16V208H128.451V196.16H129.907ZM133.844 196.16V208H132.388V196.16H133.844ZM144.415 208.144C143.594 208.144 142.847 207.957 142.175 207.584C141.514 207.211 140.991 206.683 140.607 206C140.234 205.307 140.047 204.507 140.047 203.6C140.047 202.704 140.239 201.915 140.623 201.232C141.018 200.539 141.551 200.011 142.223 199.648C142.895 199.275 143.647 199.088 144.479 199.088C145.311 199.088 146.063 199.275 146.735 199.648C147.407 200.011 147.935 200.533 148.319 201.216C148.714 201.899 148.911 202.693 148.911 203.6C148.911 204.507 148.709 205.307 148.303 206C147.909 206.683 147.37 207.211 146.687 207.584C146.005 207.957 145.247 208.144 144.415 208.144ZM144.415 206.864C144.938 206.864 145.429 206.741 145.887 206.496C146.346 206.251 146.714 205.883 146.991 205.392C147.279 204.901 147.423 204.304 147.423 203.6C147.423 202.896 147.285 202.299 147.007 201.808C146.73 201.317 146.367 200.955 145.919 200.72C145.471 200.475 144.986 200.352 144.463 200.352C143.93 200.352 143.439 200.475 142.991 200.72C142.554 200.955 142.202 201.317 141.935 201.808C141.669 202.299 141.535 202.896 141.535 203.6C141.535 204.315 141.663 204.917 141.919 205.408C142.186 205.899 142.538 206.267 142.975 206.512C143.413 206.747 143.893 206.864 144.415 206.864ZM152.282 200.656C152.538 200.155 152.9 199.765 153.37 199.488C153.85 199.211 154.431 199.072 155.114 199.072V200.576H154.73C153.098 200.576 152.282 201.461 152.282 203.232V208H150.826V199.232H152.282V200.656ZM171.604 199.072C172.287 199.072 172.895 199.216 173.428 199.504C173.961 199.781 174.383 200.203 174.692 200.768C175.001 201.333 175.156 202.021 175.156 202.832V208H173.716V203.04C173.716 202.165 173.497 201.499 173.06 201.04C172.633 200.571 172.052 200.336 171.316 200.336C170.559 200.336 169.956 200.581 169.508 201.072C169.06 201.552 168.836 202.251 168.836 203.168V208H167.396V203.04C167.396 202.165 167.177 201.499 166.74 201.04C166.313 200.571 165.732 200.336 164.996 200.336C164.239 200.336 163.636 200.581 163.188 201.072C162.74 201.552 162.516 202.251 162.516 203.168V208H161.06V199.232H162.516V200.496C162.804 200.037 163.188 199.685 163.668 199.44C164.159 199.195 164.697 199.072 165.284 199.072C166.02 199.072 166.671 199.237 167.236 199.568C167.801 199.899 168.223 200.384 168.5 201.024C168.745 200.405 169.151 199.925 169.716 199.584C170.281 199.243 170.911 199.072 171.604 199.072ZM178.297 197.808C178.019 197.808 177.785 197.712 177.593 197.52C177.401 197.328 177.305 197.093 177.305 196.816C177.305 196.539 177.401 196.304 177.593 196.112C177.785 195.92 178.019 195.824 178.297 195.824C178.563 195.824 178.787 195.92 178.969 196.112C179.161 196.304 179.257 196.539 179.257 196.816C179.257 197.093 179.161 197.328 178.969 197.52C178.787 197.712 178.563 197.808 178.297 197.808ZM179.001 199.232V208H177.545V199.232H179.001ZM185.754 199.072C186.821 199.072 187.685 199.397 188.346 200.048C189.007 200.688 189.338 201.616 189.338 202.832V208H187.898V203.04C187.898 202.165 187.679 201.499 187.242 201.04C186.805 200.571 186.207 200.336 185.45 200.336C184.682 200.336 184.069 200.576 183.61 201.056C183.162 201.536 182.938 202.235 182.938 203.152V208H181.482V199.232H182.938V200.48C183.226 200.032 183.615 199.685 184.106 199.44C184.607 199.195 185.157 199.072 185.754 199.072ZM192.468 197.808C192.191 197.808 191.956 197.712 191.764 197.52C191.572 197.328 191.476 197.093 191.476 196.816C191.476 196.539 191.572 196.304 191.764 196.112C191.956 195.92 192.191 195.824 192.468 195.824C192.735 195.824 192.959 195.92 193.14 196.112C193.332 196.304 193.428 196.539 193.428 196.816C193.428 197.093 193.332 197.328 193.14 197.52C192.959 197.712 192.735 197.808 192.468 197.808ZM193.172 199.232V208H191.716V199.232H193.172ZM206.198 199.072C206.881 199.072 207.489 199.216 208.022 199.504C208.555 199.781 208.977 200.203 209.286 200.768C209.595 201.333 209.75 202.021 209.75 202.832V208H208.31V203.04C208.31 202.165 208.091 201.499 207.654 201.04C207.227 200.571 206.646 200.336 205.91 200.336C205.153 200.336 204.55 200.581 204.102 201.072C203.654 201.552 203.43 202.251 203.43 203.168V208H201.99V203.04C201.99 202.165 201.771 201.499 201.334 201.04C200.907 200.571 200.326 200.336 199.59 200.336C198.833 200.336 198.23 200.581 197.782 201.072C197.334 201.552 197.11 202.251 197.11 203.168V208H195.654V199.232H197.11V200.496C197.398 200.037 197.782 199.685 198.262 199.44C198.753 199.195 199.291 199.072 199.878 199.072C200.614 199.072 201.265 199.237 201.83 199.568C202.395 199.899 202.817 200.384 203.094 201.024C203.339 200.405 203.745 199.925 204.31 199.584C204.875 199.243 205.505 199.072 206.198 199.072ZM212.89 197.808C212.613 197.808 212.378 197.712 212.186 197.52C211.994 197.328 211.898 197.093 211.898 196.816C211.898 196.539 211.994 196.304 212.186 196.112C212.378 195.92 212.613 195.824 212.89 195.824C213.157 195.824 213.381 195.92 213.562 196.112C213.754 196.304 213.85 196.539 213.85 196.816C213.85 197.093 213.754 197.328 213.562 197.52C213.381 197.712 213.157 197.808 212.89 197.808ZM213.594 199.232V208H212.138V199.232H213.594ZM217.164 206.8H221.468V208H215.5V206.8L219.756 200.416H215.532V199.232H221.436V200.416L217.164 206.8ZM231.357 203.28C231.357 203.557 231.341 203.851 231.309 204.16H224.301C224.354 205.024 224.648 205.701 225.181 206.192C225.725 206.672 226.381 206.912 227.149 206.912C227.778 206.912 228.301 206.768 228.717 206.48C229.144 206.181 229.442 205.787 229.613 205.296H231.181C230.946 206.139 230.477 206.827 229.773 207.36C229.069 207.883 228.194 208.144 227.149 208.144C226.317 208.144 225.57 207.957 224.909 207.584C224.258 207.211 223.746 206.683 223.373 206C223 205.307 222.813 204.507 222.813 203.6C222.813 202.693 222.994 201.899 223.357 201.216C223.72 200.533 224.226 200.011 224.877 199.648C225.538 199.275 226.296 199.088 227.149 199.088C227.981 199.088 228.717 199.269 229.357 199.632C229.997 199.995 230.488 200.496 230.829 201.136C231.181 201.765 231.357 202.48 231.357 203.28ZM229.853 202.976C229.853 202.421 229.73 201.947 229.485 201.552C229.24 201.147 228.904 200.843 228.477 200.64C228.061 200.427 227.597 200.32 227.085 200.32C226.349 200.32 225.72 200.555 225.197 201.024C224.685 201.493 224.392 202.144 224.317 202.976H229.853ZM232.735 203.584C232.735 202.688 232.916 201.904 233.279 201.232C233.642 200.549 234.138 200.021 234.767 199.648C235.407 199.275 236.122 199.088 236.911 199.088C237.594 199.088 238.228 199.248 238.815 199.568C239.402 199.877 239.85 200.288 240.159 200.8V196.16H241.631V208H240.159V206.352C239.871 206.875 239.444 207.307 238.879 207.648C238.314 207.979 237.652 208.144 236.895 208.144C236.116 208.144 235.407 207.952 234.767 207.568C234.138 207.184 233.642 206.645 233.279 205.952C232.916 205.259 232.735 204.469 232.735 203.584ZM240.159 203.6C240.159 202.939 240.026 202.363 239.759 201.872C239.492 201.381 239.13 201.008 238.671 200.752C238.223 200.485 237.727 200.352 237.183 200.352C236.639 200.352 236.143 200.48 235.695 200.736C235.247 200.992 234.89 201.365 234.623 201.856C234.356 202.347 234.223 202.923 234.223 203.584C234.223 204.256 234.356 204.843 234.623 205.344C234.89 205.835 235.247 206.213 235.695 206.48C236.143 206.736 236.639 206.864 237.183 206.864C237.727 206.864 238.223 206.736 238.671 206.48C239.13 206.213 239.492 205.835 239.759 205.344C240.026 204.843 240.159 204.261 240.159 203.6ZM251.461 208.144C250.789 208.144 250.186 208.032 249.653 207.808C249.12 207.573 248.698 207.253 248.389 206.848C248.08 206.432 247.909 205.957 247.877 205.424H249.381C249.424 205.861 249.626 206.219 249.989 206.496C250.362 206.773 250.848 206.912 251.445 206.912C252 206.912 252.437 206.789 252.757 206.544C253.077 206.299 253.237 205.989 253.237 205.616C253.237 205.232 253.066 204.949 252.725 204.768C252.384 204.576 251.856 204.389 251.141 204.208C250.49 204.037 249.957 203.867 249.541 203.696C249.136 203.515 248.784 203.253 248.485 202.912C248.197 202.56 248.053 202.101 248.053 201.536C248.053 201.088 248.186 200.677 248.453 200.304C248.72 199.931 249.098 199.637 249.589 199.424C250.08 199.2 250.64 199.088 251.269 199.088C252.24 199.088 253.024 199.333 253.621 199.824C254.218 200.315 254.538 200.987 254.581 201.84H253.125C253.093 201.381 252.906 201.013 252.565 200.736C252.234 200.459 251.786 200.32 251.221 200.32C250.698 200.32 250.282 200.432 249.973 200.656C249.664 200.88 249.509 201.173 249.509 201.536C249.509 201.824 249.6 202.064 249.781 202.256C249.973 202.437 250.208 202.587 250.485 202.704C250.773 202.811 251.168 202.933 251.669 203.072C252.298 203.243 252.81 203.413 253.205 203.584C253.6 203.744 253.936 203.989 254.213 204.32C254.501 204.651 254.65 205.083 254.661 205.616C254.661 206.096 254.528 206.528 254.261 206.912C253.994 207.296 253.616 207.6 253.125 207.824C252.645 208.037 252.09 208.144 251.461 208.144ZM256.172 203.6C256.172 202.693 256.354 201.904 256.716 201.232C257.079 200.549 257.58 200.021 258.22 199.648C258.871 199.275 259.612 199.088 260.444 199.088C261.522 199.088 262.407 199.349 263.1 199.872C263.804 200.395 264.268 201.12 264.492 202.048H262.924C262.775 201.515 262.482 201.093 262.044 200.784C261.618 200.475 261.084 200.32 260.444 200.32C259.612 200.32 258.94 200.608 258.428 201.184C257.916 201.749 257.66 202.555 257.66 203.6C257.66 204.656 257.916 205.472 258.428 206.048C258.94 206.624 259.612 206.912 260.444 206.912C261.084 206.912 261.618 206.763 262.044 206.464C262.471 206.165 262.764 205.739 262.924 205.184H264.492C264.258 206.08 263.788 206.8 263.084 207.344C262.38 207.877 261.5 208.144 260.444 208.144C259.612 208.144 258.871 207.957 258.22 207.584C257.58 207.211 257.079 206.683 256.716 206C256.354 205.317 256.172 204.517 256.172 203.6ZM267.891 200.656C268.147 200.155 268.51 199.765 268.979 199.488C269.459 199.211 270.04 199.072 270.723 199.072V200.576H270.339C268.707 200.576 267.891 201.461 267.891 203.232V208H266.435V199.232H267.891V200.656ZM280.404 203.28C280.404 203.557 280.388 203.851 280.356 204.16H273.348C273.401 205.024 273.695 205.701 274.228 206.192C274.772 206.672 275.428 206.912 276.196 206.912C276.825 206.912 277.348 206.768 277.764 206.48C278.191 206.181 278.489 205.787 278.66 205.296H280.228C279.993 206.139 279.524 206.827 278.82 207.36C278.116 207.883 277.241 208.144 276.196 208.144C275.364 208.144 274.617 207.957 273.956 207.584C273.305 207.211 272.793 206.683 272.42 206C272.047 205.307 271.86 204.507 271.86 203.6C271.86 202.693 272.041 201.899 272.404 201.216C272.767 200.533 273.273 200.011 273.924 199.648C274.585 199.275 275.343 199.088 276.196 199.088C277.028 199.088 277.764 199.269 278.404 199.632C279.044 199.995 279.535 200.496 279.876 201.136C280.228 201.765 280.404 202.48 280.404 203.28ZM278.9 202.976C278.9 202.421 278.777 201.947 278.532 201.552C278.287 201.147 277.951 200.843 277.524 200.64C277.108 200.427 276.644 200.32 276.132 200.32C275.396 200.32 274.767 200.555 274.244 201.024C273.732 201.493 273.439 202.144 273.364 202.976H278.9ZM290.326 203.28C290.326 203.557 290.31 203.851 290.278 204.16H283.27C283.323 205.024 283.616 205.701 284.15 206.192C284.694 206.672 285.35 206.912 286.118 206.912C286.747 206.912 287.27 206.768 287.686 206.48C288.112 206.181 288.411 205.787 288.582 205.296H290.15C289.915 206.139 289.446 206.827 288.742 207.36C288.038 207.883 287.163 208.144 286.118 208.144C285.286 208.144 284.539 207.957 283.878 207.584C283.227 207.211 282.715 206.683 282.342 206C281.968 205.307 281.782 204.507 281.782 203.6C281.782 202.693 281.963 201.899 282.326 201.216C282.688 200.533 283.195 200.011 283.846 199.648C284.507 199.275 285.264 199.088 286.118 199.088C286.95 199.088 287.686 199.269 288.326 199.632C288.966 199.995 289.456 200.496 289.798 201.136C290.15 201.765 290.326 202.48 290.326 203.28ZM288.822 202.976C288.822 202.421 288.699 201.947 288.454 201.552C288.208 201.147 287.872 200.843 287.446 200.64C287.03 200.427 286.566 200.32 286.054 200.32C285.318 200.32 284.688 200.555 284.166 201.024C283.654 201.493 283.36 202.144 283.286 202.976H288.822ZM296.52 199.072C297.586 199.072 298.45 199.397 299.112 200.048C299.773 200.688 300.104 201.616 300.104 202.832V208H298.664V203.04C298.664 202.165 298.445 201.499 298.008 201.04C297.57 200.571 296.973 200.336 296.216 200.336C295.448 200.336 294.834 200.576 294.376 201.056C293.928 201.536 293.704 202.235 293.704 203.152V208H292.248V199.232H293.704V200.48C293.992 200.032 294.381 199.685 294.872 199.44C295.373 199.195 295.922 199.072 296.52 199.072Z" fill="#495057"/>
<ellipse cx="236.497" cy="441.293" rx="23.8317" ry="10.3993" fill="#ABACAB"/>
<mask id="path-7-inside-1_34106_7688" fill="white">
<path fill-rule="evenodd" clip-rule="evenodd" d="M199.347 384.442C199.26 384.341 199.175 384.238 199.09 384.134L199.086 384.128C194.703 378.726 193.735 371.134 197.287 363.977C202.661 353.147 216.359 347.386 227.857 351.12C235.457 353.588 240.206 359.589 241.002 366.5L241.002 366.507C241.018 366.64 241.032 366.773 241.044 366.906L252.33 439.581C249.913 443.449 239.282 443.449 236.865 439.581L199.347 384.442Z"/>
</mask>
<path fill-rule="evenodd" clip-rule="evenodd" d="M199.347 384.442C199.26 384.341 199.175 384.238 199.09 384.134L199.086 384.128C194.703 378.726 193.735 371.134 197.287 363.977C202.661 353.147 216.359 347.386 227.857 351.12C235.457 353.588 240.206 359.589 241.002 366.5L241.002 366.507C241.018 366.64 241.032 366.773 241.044 366.906L252.33 439.581C249.913 443.449 239.282 443.449 236.865 439.581L199.347 384.442Z" fill="white"/>
<path d="M199.347 384.442L200.174 383.88L200.143 383.835L200.108 383.793L199.347 384.442ZM199.09 384.134L199.866 383.503L199.859 383.494L199.09 384.134ZM199.086 384.128L198.309 384.759L198.317 384.768L199.086 384.128ZM197.287 363.977L198.183 364.421L198.183 364.421L197.287 363.977ZM227.857 351.12L227.549 352.071L227.549 352.071L227.857 351.12ZM241.002 366.5L241.997 366.398L241.995 366.386L241.002 366.5ZM241.002 366.507L240.008 366.609L240.009 366.619L241.002 366.507ZM241.044 366.906L240.048 366.996L240.051 367.028L240.055 367.06L241.044 366.906ZM236.865 439.581L237.713 439.051L237.702 439.034L237.691 439.018L236.865 439.581ZM252.33 439.581L253.178 440.111L253.376 439.796L253.319 439.428L252.33 439.581ZM200.108 383.793C200.027 383.699 199.947 383.602 199.866 383.503L198.314 384.764C198.403 384.873 198.493 384.983 198.586 385.092L200.108 383.793ZM199.859 383.494L199.855 383.489L198.317 384.768L198.321 384.773L199.859 383.494ZM199.863 383.498C195.737 378.414 194.797 371.244 198.183 364.421L196.391 363.532C192.674 371.025 193.669 379.039 198.31 384.759L199.863 383.498ZM198.183 364.421C203.336 354.036 216.522 348.49 227.549 352.071L228.166 350.169C216.196 346.282 201.985 352.258 196.391 363.532L198.183 364.421ZM227.549 352.071C234.793 354.423 239.26 360.11 240.008 366.615L241.995 366.386C241.153 359.068 236.121 352.752 228.166 350.169L227.549 352.071ZM240.007 366.603L240.008 366.609L241.997 366.404L241.997 366.398L240.007 366.603ZM240.009 366.619C240.023 366.748 240.037 366.873 240.048 366.996L242.04 366.817C242.027 366.673 242.012 366.532 241.996 366.394L240.009 366.619ZM237.691 439.018L200.174 383.88L198.52 385.005L236.038 440.144L237.691 439.018ZM240.055 367.06L251.342 439.735L253.319 439.428L242.032 366.753L240.055 367.06ZM251.482 439.051C251.047 439.748 250.169 440.368 248.902 440.814C247.654 441.253 246.138 441.482 244.598 441.482C243.057 441.482 241.541 441.252 240.293 440.813C239.026 440.368 238.148 439.748 237.713 439.051L236.017 440.111C236.79 441.348 238.147 442.179 239.629 442.7C241.13 443.228 242.876 443.482 244.598 443.482C246.319 443.482 248.065 443.228 249.566 442.7C251.048 442.179 252.405 441.348 253.178 440.111L251.482 439.051Z" fill="black" mask="url(#path-7-inside-1_34106_7688)"/>
<path fill-rule="evenodd" clip-rule="evenodd" d="M171.843 347.558C184.843 330.524 212.663 318.824 233.931 321.446C255.197 324.068 261.909 340.026 248.909 357.06C235.908 374.094 208.088 385.794 186.821 383.172C165.554 380.55 158.842 364.592 171.843 347.558Z" fill="#FF4D4D" stroke="#262725" stroke-linecap="round" stroke-linejoin="round"/>
<path d="M172.306 383.22L172.267 383.237L169.238 376.033C172.965 380.109 178.951 382.919 186.855 383.894C197.595 385.218 209.956 382.925 221.254 378.174C232.551 373.422 242.835 366.192 249.401 357.589L249.004 357.285L249.401 357.589C254.232 351.258 256.41 345.015 256.104 339.5L259.134 346.704L259.095 346.72L259.321 347.193C262.336 353.505 260.989 361.836 254.322 370.572C247.887 379.004 237.761 386.14 226.582 390.842C215.402 395.544 203.219 397.79 192.693 396.491C181.786 395.146 174.888 390.282 172.486 383.713L172.306 383.22Z" fill="#FF0D0D" stroke="black"/>
<path fill-rule="evenodd" clip-rule="evenodd" d="M176.903 301.758C181.066 296.323 189.963 292.581 196.759 293.408C200.158 293.821 202.392 295.3 203.255 297.355L228.131 336.005C230.763 339.378 230.435 344.259 226.592 349.323C220.204 357.743 206.504 363.505 196.018 362.182C190.896 361.536 187.482 359.318 186.074 356.237C185.772 355.574 185.562 354.872 185.447 354.137L185.442 354.139L175.178 309.158L175.179 309.157C174.316 307.104 174.823 304.475 176.903 301.758Z" fill="#D90000"/>
<path d="M196.759 293.408L196.698 293.904L196.698 293.904L196.759 293.408ZM176.903 301.758L177.3 302.062L177.3 302.062L176.903 301.758ZM203.255 297.355L202.794 297.548L202.811 297.589L202.835 297.625L203.255 297.355ZM228.131 336.005L227.711 336.276L227.723 336.295L227.737 336.313L228.131 336.005ZM226.592 349.323L226.194 349.021L226.194 349.021L226.592 349.323ZM196.018 362.182L196.081 361.686L196.081 361.686L196.018 362.182ZM186.074 356.237L186.529 356.029L186.074 356.237ZM185.447 354.137L185.942 354.06L185.843 353.428L185.254 353.676L185.447 354.137ZM185.442 354.139L184.955 354.25L185.087 354.831L185.636 354.6L185.442 354.139ZM175.178 309.158L174.984 308.697L174.597 308.86L174.691 309.269L175.178 309.158ZM175.179 309.157L175.373 309.618L175.833 309.425L175.64 308.964L175.179 309.157ZM196.819 292.911C193.314 292.485 189.302 293.238 185.65 294.774C181.997 296.31 178.653 298.651 176.506 301.454L177.3 302.062C179.316 299.43 182.502 297.182 186.037 295.696C189.573 294.209 193.407 293.504 196.698 293.904L196.819 292.911ZM203.716 297.161C202.758 294.881 200.322 293.337 196.819 292.911L196.698 293.904C199.994 294.305 202.026 295.718 202.794 297.548L203.716 297.161ZM202.835 297.625L227.711 336.276L228.552 335.735L203.675 297.084L202.835 297.625ZM226.99 349.626C230.911 344.458 231.349 339.317 228.525 335.698L227.737 336.313C230.177 339.44 229.959 344.059 226.194 349.021L226.99 349.626ZM195.955 362.678C201.306 363.353 207.442 362.219 213.035 359.867C218.629 357.514 223.73 353.922 226.99 349.626L226.194 349.021C223.065 353.145 218.122 356.643 212.648 358.945C207.173 361.248 201.216 362.334 196.081 361.686L195.955 362.678ZM185.619 356.444C187.124 359.738 190.731 362.019 195.955 362.678L196.081 361.686C191.061 361.053 187.84 358.898 186.529 356.029L185.619 356.444ZM184.953 354.213C185.075 354.993 185.297 355.74 185.619 356.444L186.529 356.029C186.246 355.409 186.049 354.751 185.942 354.06L184.953 354.213ZM185.254 353.676L185.248 353.678L185.636 354.6L185.641 354.598L185.254 353.676ZM185.93 354.028L175.665 309.047L174.691 309.269L184.955 354.25L185.93 354.028ZM175.372 309.619L175.373 309.618L174.985 308.697L174.984 308.697L175.372 309.619ZM176.506 301.454C174.363 304.253 173.761 307.073 174.718 309.351L175.64 308.964C174.872 307.135 175.283 304.696 177.3 302.062L176.506 301.454Z" fill="black"/>
<path fill-rule="evenodd" clip-rule="evenodd" d="M211.624 300.1C203.295 311.098 185.422 318.615 171.736 316.876C158.051 315.137 153.702 304.796 162.031 293.798C170.36 282.8 188.233 275.283 201.918 277.023C215.604 278.762 219.953 289.103 211.624 300.1Z" fill="white"/>
<path fill-rule="evenodd" clip-rule="evenodd" d="M211.624 300.1C203.295 311.098 185.422 318.615 171.736 316.876C158.051 315.137 153.702 304.796 162.031 293.798C170.36 282.8 188.233 275.283 201.918 277.023C215.604 278.762 219.953 289.103 211.624 300.1Z" stroke="#262725" stroke-width="2" stroke-linecap="round" stroke-linejoin="round"/>
<path fill-rule="evenodd" clip-rule="evenodd" d="M151.906 281.694C162.031 268.367 183.734 259.24 200.341 261.324C216.947 263.408 222.209 275.918 212.084 289.245C201.958 302.571 180.255 311.699 163.649 309.615C147.042 307.531 141.78 295.02 151.906 281.694Z" fill="#FF4D4D"/>
<path fill-rule="evenodd" clip-rule="evenodd" d="M151.906 281.694C162.031 268.367 183.734 259.24 200.341 261.324C216.947 263.408 222.209 275.918 212.084 289.245C201.958 302.571 180.255 311.699 163.649 309.615C147.042 307.531 141.78 295.02 151.906 281.694Z" stroke="#262725" stroke-width="2" stroke-linecap="round" stroke-linejoin="round"/>
<path fill-rule="evenodd" clip-rule="evenodd" d="M220.519 281.253L220.506 281.258C222.971 286.426 221.87 293.148 216.639 300.079C206.537 313.462 184.834 322.589 168.204 320.449C159.591 319.341 154.017 315.426 152.048 310.05L152.035 310.055L147.752 299.87C149.893 304.961 155.375 308.646 163.691 309.717C180.321 311.857 202.023 302.729 212.125 289.347C217.176 282.655 218.376 276.159 216.235 271.068L220.519 281.253Z" stroke="#262725" stroke-width="2" stroke-linecap="round" stroke-linejoin="round"/>
<path fill-rule="evenodd" clip-rule="evenodd" d="M220.519 281.253L220.506 281.258C222.971 286.426 221.87 293.148 216.639 300.079C206.537 313.462 184.834 322.589 168.204 320.449C159.591 319.341 154.017 315.426 152.048 310.05L152.035 310.055L147.752 299.87C149.893 304.961 155.375 308.646 163.691 309.717C180.321 311.857 202.023 302.729 212.125 289.347C217.176 282.655 218.376 276.159 216.235 271.068L220.519 281.253Z" fill="#FF0D0D"/>
</svg>
