<svg width="345" height="500" viewBox="0 0 345 500" fill="none" xmlns="http://www.w3.org/2000/svg">
<rect x="0.833374" y="0.5" width="343.667" height="499" rx="7.5" fill="white"/>
<rect x="0.833374" y="0.5" width="343.667" height="499" rx="7.5" stroke="#556AEB"/>
<rect x="32.3334" y="32" width="48" height="48" rx="8" fill="#212529"/>
<path d="M56.3476 62.1591C55.5673 62.1591 54.8703 62.0246 54.2567 61.7557C53.6468 61.4867 53.1639 61.1136 52.8078 60.6364C52.4555 60.1553 52.2661 59.5985 52.2396 58.9659H54.0237C54.0464 59.3106 54.162 59.6098 54.3703 59.8636C54.5824 60.1136 54.8589 60.3068 55.1999 60.4432C55.5408 60.5795 55.9195 60.6477 56.3362 60.6477C56.7945 60.6477 57.1999 60.5682 57.5521 60.4091C57.9082 60.25 58.1866 60.0284 58.3874 59.7443C58.5881 59.4564 58.6885 59.125 58.6885 58.75C58.6885 58.3598 58.5881 58.017 58.3874 57.7216C58.1904 57.4223 57.9006 57.1875 57.518 57.017C57.1392 56.8466 56.6809 56.7614 56.143 56.7614H55.1601V55.3295H56.143C56.5749 55.3295 56.9536 55.2519 57.2794 55.0966C57.6089 54.9413 57.8665 54.7254 58.0521 54.4489C58.2377 54.1686 58.3305 53.8409 58.3305 53.4659C58.3305 53.1061 58.2491 52.7936 58.0862 52.5284C57.9271 52.2595 57.6999 52.0492 57.4044 51.8977C57.1127 51.7462 56.768 51.6705 56.3703 51.6705C55.9915 51.6705 55.6374 51.7405 55.3078 51.8807C54.982 52.017 54.7169 52.214 54.5124 52.4716C54.3078 52.7254 54.198 53.0303 54.1828 53.3864H52.4839C52.5029 52.7576 52.6885 52.2045 53.0408 51.7273C53.3968 51.25 53.8665 50.8769 54.4499 50.608C55.0332 50.339 55.6809 50.2045 56.393 50.2045C57.1392 50.2045 57.7832 50.3504 58.3249 50.642C58.8703 50.9299 59.2908 51.3144 59.5862 51.7955C59.8855 52.2765 60.0332 52.803 60.0294 53.375C60.0332 54.0265 59.8514 54.5795 59.4839 55.0341C59.1203 55.4886 58.6355 55.7936 58.0294 55.9489V56.0398C58.8021 56.1572 59.4006 56.464 59.8249 56.9602C60.2529 57.4564 60.465 58.072 60.4612 58.8068C60.465 59.447 60.287 60.0208 59.9271 60.5284C59.5711 61.036 59.0843 61.4356 58.4669 61.7273C57.8495 62.0152 57.143 62.1591 56.3476 62.1591Z" fill="white"/>
<path d="M39.7734 122.168C38.6054 122.168 37.5494 121.968 36.6054 121.568C35.6774 121.168 34.9414 120.592 34.3974 119.84C33.8534 119.088 33.5734 118.2 33.5574 117.176H37.1574C37.2054 117.864 37.4454 118.408 37.8774 118.808C38.3254 119.208 38.9334 119.408 39.7014 119.408C40.4854 119.408 41.1014 119.224 41.5494 118.856C41.9974 118.472 42.2214 117.976 42.2214 117.368C42.2214 116.872 42.0694 116.464 41.7654 116.144C41.4614 115.824 41.0774 115.576 40.6134 115.4C40.1654 115.208 39.5414 115 38.7414 114.776C37.6534 114.456 36.7654 114.144 36.0774 113.84C35.4054 113.52 34.8214 113.048 34.3254 112.424C33.8454 111.784 33.6054 110.936 33.6054 109.88C33.6054 108.888 33.8534 108.024 34.3494 107.288C34.8454 106.552 35.5414 105.992 36.4374 105.608C37.3334 105.208 38.3574 105.008 39.5094 105.008C41.2374 105.008 42.6374 105.432 43.7094 106.28C44.7974 107.112 45.3974 108.28 45.5094 109.784H41.8134C41.7814 109.208 41.5334 108.736 41.0694 108.368C40.6214 107.984 40.0214 107.792 39.2694 107.792C38.6134 107.792 38.0854 107.96 37.6854 108.296C37.3014 108.632 37.1094 109.12 37.1094 109.76C37.1094 110.208 37.2534 110.584 37.5414 110.888C37.8454 111.176 38.2134 111.416 38.6454 111.608C39.0934 111.784 39.7174 111.992 40.5174 112.232C41.6054 112.552 42.4934 112.872 43.1814 113.192C43.8694 113.512 44.4614 113.992 44.9574 114.632C45.4534 115.272 45.7014 116.112 45.7014 117.152C45.7014 118.048 45.4694 118.88 45.0054 119.648C44.5414 120.416 43.8614 121.032 42.9654 121.496C42.0694 121.944 41.0054 122.168 39.7734 122.168ZM61.7344 108.704L53.5024 128.288H49.9264L52.8064 121.664L47.4784 108.704H51.2464L54.6784 117.992L58.1584 108.704H61.7344ZM71.3136 108.512C72.8976 108.512 74.1776 109.016 75.1536 110.024C76.1296 111.016 76.6176 112.408 76.6176 114.2V122H73.2576V114.656C73.2576 113.6 72.9936 112.792 72.4656 112.232C71.9376 111.656 71.2176 111.368 70.3056 111.368C69.3776 111.368 68.6416 111.656 68.0976 112.232C67.5696 112.792 67.3056 113.6 67.3056 114.656V122H63.9456V108.704H67.3056V110.36C67.7536 109.784 68.3216 109.336 69.0096 109.016C69.7136 108.68 70.4816 108.512 71.3136 108.512ZM79.3488 115.352C79.3488 113.976 79.6288 112.776 80.1888 111.752C80.7488 110.712 81.5248 109.912 82.5168 109.352C83.5088 108.776 84.6448 108.488 85.9248 108.488C87.5728 108.488 88.9328 108.904 90.0048 109.736C91.0928 110.552 91.8208 111.704 92.1888 113.192H88.5648C88.3728 112.616 88.0448 112.168 87.5808 111.848C87.1328 111.512 86.5728 111.344 85.9008 111.344C84.9408 111.344 84.1808 111.696 83.6208 112.4C83.0608 113.088 82.7808 114.072 82.7808 115.352C82.7808 116.616 83.0608 117.6 83.6208 118.304C84.1808 118.992 84.9408 119.336 85.9008 119.336C87.2608 119.336 88.1488 118.728 88.5648 117.512H92.1888C91.8208 118.952 91.0928 120.096 90.0048 120.944C88.9168 121.792 87.5568 122.216 85.9248 122.216C84.6448 122.216 83.5088 121.936 82.5168 121.376C81.5248 120.8 80.7488 120 80.1888 118.976C79.6288 117.936 79.3488 116.728 79.3488 115.352ZM102.538 108.512C103.546 108.512 104.442 108.736 105.226 109.184C106.01 109.616 106.618 110.264 107.05 111.128C107.498 111.976 107.722 113 107.722 114.2V122H104.362V114.656C104.362 113.6 104.098 112.792 103.57 112.232C103.042 111.656 102.322 111.368 101.41 111.368C100.482 111.368 99.7463 111.656 99.2023 112.232C98.6743 112.792 98.4103 113.6 98.4103 114.656V122H95.0503V104.24H98.4103V110.36C98.8423 109.784 99.4183 109.336 100.138 109.016C100.858 108.68 101.658 108.512 102.538 108.512ZM114.677 110.768C115.109 110.064 115.669 109.512 116.357 109.112C117.061 108.712 117.861 108.512 118.757 108.512V112.04H117.869C116.813 112.04 116.013 112.288 115.469 112.784C114.941 113.28 114.677 114.144 114.677 115.376V122H111.317V108.704H114.677V110.768ZM127.325 122.216C126.045 122.216 124.893 121.936 123.869 121.376C122.845 120.8 122.037 119.992 121.445 118.952C120.869 117.912 120.581 116.712 120.581 115.352C120.581 113.992 120.877 112.792 121.469 111.752C122.077 110.712 122.901 109.912 123.941 109.352C124.981 108.776 126.141 108.488 127.421 108.488C128.701 108.488 129.861 108.776 130.901 109.352C131.941 109.912 132.757 110.712 133.349 111.752C133.957 112.792 134.261 113.992 134.261 115.352C134.261 116.712 133.949 117.912 133.325 118.952C132.717 119.992 131.885 120.8 130.829 121.376C129.789 121.936 128.621 122.216 127.325 122.216ZM127.325 119.288C127.933 119.288 128.501 119.144 129.029 118.856C129.573 118.552 130.005 118.104 130.325 117.512C130.645 116.92 130.805 116.2 130.805 115.352C130.805 114.088 130.469 113.12 129.797 112.448C129.141 111.76 128.333 111.416 127.373 111.416C126.413 111.416 125.605 111.76 124.949 112.448C124.309 113.12 123.989 114.088 123.989 115.352C123.989 116.616 124.301 117.592 124.925 118.28C125.565 118.952 126.365 119.288 127.325 119.288ZM144.493 108.512C146.077 108.512 147.357 109.016 148.333 110.024C149.309 111.016 149.797 112.408 149.797 114.2V122H146.437V114.656C146.437 113.6 146.173 112.792 145.645 112.232C145.117 111.656 144.397 111.368 143.485 111.368C142.557 111.368 141.821 111.656 141.277 112.232C140.749 112.792 140.485 113.6 140.485 114.656V122H137.125V108.704H140.485V110.36C140.933 109.784 141.501 109.336 142.189 109.016C142.893 108.68 143.661 108.512 144.493 108.512ZM155.096 107.12C154.504 107.12 154.008 106.936 153.608 106.568C153.224 106.184 153.032 105.712 153.032 105.152C153.032 104.592 153.224 104.128 153.608 103.76C154.008 103.376 154.504 103.184 155.096 103.184C155.688 103.184 156.176 103.376 156.56 103.76C156.96 104.128 157.16 104.592 157.16 105.152C157.16 105.712 156.96 106.184 156.56 106.568C156.176 106.936 155.688 107.12 155.096 107.12ZM156.752 108.704V122H153.392V108.704H156.752ZM163.544 119.24H169.472V122H159.728V119.288L165.536 111.464H159.752V108.704H169.4V111.416L163.544 119.24ZM184.834 115.064C184.834 115.544 184.802 115.976 184.738 116.36H175.018C175.098 117.32 175.434 118.072 176.026 118.616C176.618 119.16 177.346 119.432 178.21 119.432C179.458 119.432 180.346 118.896 180.874 117.824H184.498C184.114 119.104 183.378 120.16 182.29 120.992C181.202 121.808 179.866 122.216 178.282 122.216C177.002 122.216 175.85 121.936 174.826 121.376C173.818 120.8 173.026 119.992 172.45 118.952C171.89 117.912 171.61 116.712 171.61 115.352C171.61 113.976 171.89 112.768 172.45 111.728C173.01 110.688 173.794 109.888 174.802 109.328C175.81 108.768 176.97 108.488 178.282 108.488C179.546 108.488 180.674 108.76 181.666 109.304C182.674 109.848 183.45 110.624 183.994 111.632C184.554 112.624 184.834 113.768 184.834 115.064ZM181.354 114.104C181.338 113.24 181.026 112.552 180.418 112.04C179.81 111.512 179.066 111.248 178.186 111.248C177.354 111.248 176.65 111.504 176.074 112.016C175.514 112.512 175.17 113.208 175.042 114.104H181.354Z" fill="#212529"/>
<path d="M37.1014 166.112C36.3654 166.112 35.704 165.984 35.1174 165.728C34.5414 165.461 34.088 165.099 33.7574 164.64C33.4267 164.171 33.256 163.632 33.2454 163.024H34.7974C34.8507 163.547 35.064 163.989 35.4374 164.352C35.8214 164.704 36.376 164.88 37.1014 164.88C37.7947 164.88 38.3387 164.709 38.7334 164.368C39.1387 164.016 39.3414 163.568 39.3414 163.024C39.3414 162.597 39.224 162.251 38.9894 161.984C38.7547 161.717 38.4614 161.515 38.1094 161.376C37.7574 161.237 37.2827 161.088 36.6854 160.928C35.9494 160.736 35.3574 160.544 34.9094 160.352C34.472 160.16 34.0934 159.861 33.7734 159.456C33.464 159.04 33.3094 158.485 33.3094 157.792C33.3094 157.184 33.464 156.645 33.7734 156.176C34.0827 155.707 34.5147 155.344 35.0694 155.088C35.6347 154.832 36.28 154.704 37.0054 154.704C38.0507 154.704 38.904 154.965 39.5654 155.488C40.2374 156.011 40.616 156.704 40.7014 157.568H39.1014C39.048 157.141 38.824 156.768 38.4294 156.448C38.0347 156.117 37.512 155.952 36.8614 155.952C36.2534 155.952 35.7574 156.112 35.3734 156.432C34.9894 156.741 34.7974 157.179 34.7974 157.744C34.7974 158.149 34.9094 158.48 35.1334 158.736C35.368 158.992 35.6507 159.189 35.9814 159.328C36.3227 159.456 36.7974 159.605 37.4054 159.776C38.1414 159.979 38.7334 160.181 39.1814 160.384C39.6294 160.576 40.0134 160.88 40.3334 161.296C40.6534 161.701 40.8134 162.256 40.8134 162.96C40.8134 163.504 40.6694 164.016 40.3814 164.496C40.0934 164.976 39.6667 165.365 39.1014 165.664C38.536 165.963 37.8694 166.112 37.1014 166.112ZM50.508 157.232L45.228 170.128H43.724L45.452 165.904L41.916 157.232H43.532L46.284 164.336L49.004 157.232H50.508ZM56.2436 157.072C57.3103 157.072 58.1743 157.397 58.8356 158.048C59.497 158.688 59.8276 159.616 59.8276 160.832V166H58.3876V161.04C58.3876 160.165 58.169 159.499 57.7316 159.04C57.2943 158.571 56.697 158.336 55.9396 158.336C55.1716 158.336 54.5583 158.576 54.0996 159.056C53.6516 159.536 53.4276 160.235 53.4276 161.152V166H51.9716V157.232H53.4276V158.48C53.7156 158.032 54.105 157.685 54.5956 157.44C55.097 157.195 55.6463 157.072 56.2436 157.072ZM61.662 161.6C61.662 160.693 61.8433 159.904 62.206 159.232C62.5687 158.549 63.07 158.021 63.71 157.648C64.3607 157.275 65.102 157.088 65.934 157.088C67.0113 157.088 67.8967 157.349 68.59 157.872C69.294 158.395 69.758 159.12 69.982 160.048H68.414C68.2647 159.515 67.9713 159.093 67.534 158.784C67.1073 158.475 66.574 158.32 65.934 158.32C65.102 158.32 64.43 158.608 63.918 159.184C63.406 159.749 63.15 160.555 63.15 161.6C63.15 162.656 63.406 163.472 63.918 164.048C64.43 164.624 65.102 164.912 65.934 164.912C66.574 164.912 67.1073 164.763 67.534 164.464C67.9607 164.165 68.254 163.739 68.414 163.184H69.982C69.7473 164.08 69.278 164.8 68.574 165.344C67.87 165.877 66.99 166.144 65.934 166.144C65.102 166.144 64.3607 165.957 63.71 165.584C63.07 165.211 62.5687 164.683 62.206 164C61.8433 163.317 61.662 162.517 61.662 161.6ZM76.2767 157.072C76.9381 157.072 77.5354 157.216 78.0687 157.504C78.6021 157.781 79.0181 158.203 79.3167 158.768C79.6261 159.333 79.7807 160.021 79.7807 160.832V166H78.3407V161.04C78.3407 160.165 78.1221 159.499 77.6847 159.04C77.2474 158.571 76.6501 158.336 75.8927 158.336C75.1247 158.336 74.5114 158.576 74.0527 159.056C73.6047 159.536 73.3807 160.235 73.3807 161.152V166H71.9247V154.16H73.3807V158.48C73.6687 158.032 74.0634 157.685 74.5647 157.44C75.0767 157.195 75.6474 157.072 76.2767 157.072ZM83.6151 158.656C83.8711 158.155 84.2338 157.765 84.7031 157.488C85.1831 157.211 85.7645 157.072 86.4471 157.072V158.576H86.0631C84.4311 158.576 83.6151 159.461 83.6151 161.232V166H82.1591V157.232H83.6151V158.656ZM91.9519 166.144C91.1305 166.144 90.3839 165.957 89.7119 165.584C89.0505 165.211 88.5279 164.683 88.1439 164C87.7705 163.307 87.5839 162.507 87.5839 161.6C87.5839 160.704 87.7759 159.915 88.1599 159.232C88.5545 158.539 89.0879 158.011 89.7599 157.648C90.4319 157.275 91.1839 157.088 92.0159 157.088C92.8479 157.088 93.5999 157.275 94.2719 157.648C94.9439 158.011 95.4719 158.533 95.8559 159.216C96.2505 159.899 96.4479 160.693 96.4479 161.6C96.4479 162.507 96.2452 163.307 95.8399 164C95.4452 164.683 94.9065 165.211 94.2239 165.584C93.5412 165.957 92.7839 166.144 91.9519 166.144ZM91.9519 164.864C92.4745 164.864 92.9652 164.741 93.4239 164.496C93.8825 164.251 94.2505 163.883 94.5279 163.392C94.8159 162.901 94.9599 162.304 94.9599 161.6C94.9599 160.896 94.8212 160.299 94.5439 159.808C94.2665 159.317 93.9039 158.955 93.4559 158.72C93.0079 158.475 92.5225 158.352 91.9999 158.352C91.4665 158.352 90.9759 158.475 90.5279 158.72C90.0905 158.955 89.7385 159.317 89.4719 159.808C89.2052 160.299 89.0719 160.896 89.0719 161.6C89.0719 162.315 89.1999 162.917 89.4559 163.408C89.7225 163.899 90.0745 164.267 90.5119 164.512C90.9492 164.747 91.4292 164.864 91.9519 164.864ZM102.634 157.072C103.701 157.072 104.565 157.397 105.226 158.048C105.888 158.688 106.218 159.616 106.218 160.832V166H104.778V161.04C104.778 160.165 104.56 159.499 104.122 159.04C103.685 158.571 103.088 158.336 102.33 158.336C101.562 158.336 100.949 158.576 100.49 159.056C100.042 159.536 99.8182 160.235 99.8182 161.152V166H98.3622V157.232H99.8182V158.48C100.106 158.032 100.496 157.685 100.986 157.44C101.488 157.195 102.037 157.072 102.634 157.072ZM109.349 155.808C109.071 155.808 108.837 155.712 108.645 155.52C108.453 155.328 108.357 155.093 108.357 154.816C108.357 154.539 108.453 154.304 108.645 154.112C108.837 153.92 109.071 153.824 109.349 153.824C109.615 153.824 109.839 153.92 110.021 154.112C110.213 154.304 110.309 154.539 110.309 154.816C110.309 155.093 110.213 155.328 110.021 155.52C109.839 155.712 109.615 155.808 109.349 155.808ZM110.053 157.232V166H108.597V157.232H110.053ZM113.622 164.8H117.926V166H111.958V164.8L116.214 158.416H111.99V157.232H117.894V158.416L113.622 164.8ZM127.815 161.28C127.815 161.557 127.799 161.851 127.767 162.16H120.759C120.813 163.024 121.106 163.701 121.639 164.192C122.183 164.672 122.839 164.912 123.607 164.912C124.237 164.912 124.759 164.768 125.175 164.48C125.602 164.181 125.901 163.787 126.071 163.296H127.639C127.405 164.139 126.935 164.827 126.231 165.36C125.527 165.883 124.653 166.144 123.607 166.144C122.775 166.144 122.029 165.957 121.367 165.584C120.717 165.211 120.205 164.683 119.831 164C119.458 163.307 119.271 162.507 119.271 161.6C119.271 160.693 119.453 159.899 119.815 159.216C120.178 158.533 120.685 158.011 121.335 157.648C121.997 157.275 122.754 157.088 123.607 157.088C124.439 157.088 125.175 157.269 125.815 157.632C126.455 157.995 126.946 158.496 127.287 159.136C127.639 159.765 127.815 160.48 127.815 161.28ZM126.311 160.976C126.311 160.421 126.189 159.947 125.943 159.552C125.698 159.147 125.362 158.843 124.935 158.64C124.519 158.427 124.055 158.32 123.543 158.32C122.807 158.32 122.178 158.555 121.655 159.024C121.143 159.493 120.85 160.144 120.775 160.976H126.311ZM133.459 161.584C133.459 160.688 133.64 159.904 134.003 159.232C134.366 158.549 134.862 158.021 135.491 157.648C136.131 157.275 136.84 157.088 137.619 157.088C138.387 157.088 139.054 157.253 139.619 157.584C140.184 157.915 140.606 158.331 140.883 158.832V157.232H142.355V166H140.883V164.368C140.595 164.88 140.163 165.307 139.587 165.648C139.022 165.979 138.36 166.144 137.603 166.144C136.824 166.144 136.12 165.952 135.491 165.568C134.862 165.184 134.366 164.645 134.003 163.952C133.64 163.259 133.459 162.469 133.459 161.584ZM140.883 161.6C140.883 160.939 140.75 160.363 140.483 159.872C140.216 159.381 139.854 159.008 139.395 158.752C138.947 158.485 138.451 158.352 137.907 158.352C137.363 158.352 136.867 158.48 136.419 158.736C135.971 158.992 135.614 159.365 135.347 159.856C135.08 160.347 134.947 160.923 134.947 161.584C134.947 162.256 135.08 162.843 135.347 163.344C135.614 163.835 135.971 164.213 136.419 164.48C136.867 164.736 137.363 164.864 137.907 164.864C138.451 164.864 138.947 164.736 139.395 164.48C139.854 164.213 140.216 163.835 140.483 163.344C140.75 162.843 140.883 162.261 140.883 161.6ZM146.271 154.16V166H144.815V154.16H146.271ZM150.209 154.16V166H148.753V154.16H150.209ZM164.508 157.232L159.228 170.128H157.724L159.452 165.904L155.916 157.232H157.532L160.284 164.336L163.004 157.232H164.508ZM169.796 166.144C168.974 166.144 168.228 165.957 167.556 165.584C166.894 165.211 166.372 164.683 165.988 164C165.614 163.307 165.428 162.507 165.428 161.6C165.428 160.704 165.62 159.915 166.004 159.232C166.398 158.539 166.932 158.011 167.604 157.648C168.276 157.275 169.028 157.088 169.86 157.088C170.692 157.088 171.444 157.275 172.116 157.648C172.788 158.011 173.316 158.533 173.7 159.216C174.094 159.899 174.292 160.693 174.292 161.6C174.292 162.507 174.089 163.307 173.684 164C173.289 164.683 172.75 165.211 172.068 165.584C171.385 165.957 170.628 166.144 169.796 166.144ZM169.796 164.864C170.318 164.864 170.809 164.741 171.268 164.496C171.726 164.251 172.094 163.883 172.372 163.392C172.66 162.901 172.804 162.304 172.804 161.6C172.804 160.896 172.665 160.299 172.388 159.808C172.11 159.317 171.748 158.955 171.3 158.72C170.852 158.475 170.366 158.352 169.844 158.352C169.31 158.352 168.82 158.475 168.372 158.72C167.934 158.955 167.582 159.317 167.316 159.808C167.049 160.299 166.916 160.896 166.916 161.6C166.916 162.315 167.044 162.917 167.3 163.408C167.566 163.899 167.918 164.267 168.356 164.512C168.793 164.747 169.273 164.864 169.796 164.864ZM183.982 157.232V166H182.526V164.704C182.249 165.152 181.859 165.504 181.358 165.76C180.867 166.005 180.323 166.128 179.726 166.128C179.043 166.128 178.43 165.989 177.886 165.712C177.342 165.424 176.91 164.997 176.59 164.432C176.281 163.867 176.126 163.179 176.126 162.368V157.232H177.566V162.176C177.566 163.04 177.785 163.707 178.222 164.176C178.659 164.635 179.257 164.864 180.014 164.864C180.793 164.864 181.406 164.624 181.854 164.144C182.302 163.664 182.526 162.965 182.526 162.048V157.232H183.982ZM187.896 158.656C188.152 158.155 188.515 157.765 188.984 157.488C189.464 157.211 190.046 157.072 190.728 157.072V158.576H190.344C188.712 158.576 187.896 159.461 187.896 161.232V166H186.44V157.232H187.896V158.656ZM198.451 158.432V163.6C198.451 164.027 198.541 164.331 198.723 164.512C198.904 164.683 199.219 164.768 199.667 164.768H200.739V166H199.427C198.616 166 198.008 165.813 197.603 165.44C197.197 165.067 196.995 164.453 196.995 163.6V158.432H195.859V157.232H196.995V155.024H198.451V157.232H200.739V158.432H198.451ZM206.327 166.144C205.506 166.144 204.759 165.957 204.087 165.584C203.426 165.211 202.903 164.683 202.519 164C202.146 163.307 201.959 162.507 201.959 161.6C201.959 160.704 202.151 159.915 202.535 159.232C202.93 158.539 203.463 158.011 204.135 157.648C204.807 157.275 205.559 157.088 206.391 157.088C207.223 157.088 207.975 157.275 208.647 157.648C209.319 158.011 209.847 158.533 210.231 159.216C210.626 159.899 210.823 160.693 210.823 161.6C210.823 162.507 210.62 163.307 210.215 164C209.82 164.683 209.282 165.211 208.599 165.584C207.916 165.957 207.159 166.144 206.327 166.144ZM206.327 164.864C206.85 164.864 207.34 164.741 207.799 164.496C208.258 164.251 208.626 163.883 208.903 163.392C209.191 162.901 209.335 162.304 209.335 161.6C209.335 160.896 209.196 160.299 208.919 159.808C208.642 159.317 208.279 158.955 207.831 158.72C207.383 158.475 206.898 158.352 206.375 158.352C205.842 158.352 205.351 158.475 204.903 158.72C204.466 158.955 204.114 159.317 203.847 159.808C203.58 160.299 203.447 160.896 203.447 161.6C203.447 162.315 203.575 162.917 203.831 163.408C204.098 163.899 204.45 164.267 204.887 164.512C205.324 164.747 205.804 164.864 206.327 164.864ZM216.561 166.144C215.74 166.144 214.993 165.957 214.321 165.584C213.66 165.211 213.137 164.683 212.753 164C212.38 163.307 212.193 162.507 212.193 161.6C212.193 160.704 212.385 159.915 212.769 159.232C213.164 158.539 213.697 158.011 214.369 157.648C215.041 157.275 215.793 157.088 216.625 157.088C217.457 157.088 218.209 157.275 218.881 157.648C219.553 158.011 220.081 158.533 220.465 159.216C220.86 159.899 221.057 160.693 221.057 161.6C221.057 162.507 220.855 163.307 220.449 164C220.055 164.683 219.516 165.211 218.833 165.584C218.151 165.957 217.393 166.144 216.561 166.144ZM216.561 164.864C217.084 164.864 217.575 164.741 218.033 164.496C218.492 164.251 218.86 163.883 219.137 163.392C219.425 162.901 219.569 162.304 219.569 161.6C219.569 160.896 219.431 160.299 219.153 159.808C218.876 159.317 218.513 158.955 218.065 158.72C217.617 158.475 217.132 158.352 216.609 158.352C216.076 158.352 215.585 158.475 215.137 158.72C214.7 158.955 214.348 159.317 214.081 159.808C213.815 160.299 213.681 160.896 213.681 161.6C213.681 162.315 213.809 162.917 214.065 163.408C214.332 163.899 214.684 164.267 215.121 164.512C215.559 164.747 216.039 164.864 216.561 164.864ZM224.428 154.16V166H222.972V154.16H224.428ZM230.013 166.144C229.341 166.144 228.738 166.032 228.205 165.808C227.672 165.573 227.25 165.253 226.941 164.848C226.632 164.432 226.461 163.957 226.429 163.424H227.933C227.976 163.861 228.178 164.219 228.541 164.496C228.914 164.773 229.4 164.912 229.997 164.912C230.552 164.912 230.989 164.789 231.309 164.544C231.629 164.299 231.789 163.989 231.789 163.616C231.789 163.232 231.618 162.949 231.277 162.768C230.936 162.576 230.408 162.389 229.693 162.208C229.042 162.037 228.509 161.867 228.093 161.696C227.688 161.515 227.336 161.253 227.037 160.912C226.749 160.56 226.605 160.101 226.605 159.536C226.605 159.088 226.738 158.677 227.005 158.304C227.272 157.931 227.65 157.637 228.141 157.424C228.632 157.2 229.192 157.088 229.821 157.088C230.792 157.088 231.576 157.333 232.173 157.824C232.77 158.315 233.09 158.987 233.133 159.84H231.677C231.645 159.381 231.458 159.013 231.117 158.736C230.786 158.459 230.338 158.32 229.773 158.32C229.25 158.32 228.834 158.432 228.525 158.656C228.216 158.88 228.061 159.173 228.061 159.536C228.061 159.824 228.152 160.064 228.333 160.256C228.525 160.437 228.76 160.587 229.037 160.704C229.325 160.811 229.72 160.933 230.221 161.072C230.85 161.243 231.362 161.413 231.757 161.584C232.152 161.744 232.488 161.989 232.765 162.32C233.053 162.651 233.202 163.083 233.213 163.616C233.213 164.096 233.08 164.528 232.813 164.912C232.546 165.296 232.168 165.6 231.677 165.824C231.197 166.037 230.642 166.144 230.013 166.144ZM240.286 155.808C240.009 155.808 239.774 155.712 239.582 155.52C239.39 155.328 239.294 155.093 239.294 154.816C239.294 154.539 239.39 154.304 239.582 154.112C239.774 153.92 240.009 153.824 240.286 153.824C240.553 153.824 240.777 153.92 240.958 154.112C241.15 154.304 241.246 154.539 241.246 154.816C241.246 155.093 241.15 155.328 240.958 155.52C240.777 155.712 240.553 155.808 240.286 155.808ZM240.99 157.232V166H239.534V157.232H240.99ZM247.744 157.072C248.81 157.072 249.674 157.397 250.336 158.048C250.997 158.688 251.328 159.616 251.328 160.832V166H249.888V161.04C249.888 160.165 249.669 159.499 249.232 159.04C248.794 158.571 248.197 158.336 247.44 158.336C246.672 158.336 246.058 158.576 245.6 159.056C245.152 159.536 244.928 160.235 244.928 161.152V166H243.472V157.232H244.928V158.48C245.216 158.032 245.605 157.685 246.096 157.44C246.597 157.195 247.146 157.072 247.744 157.072ZM261.508 166.112C260.772 166.112 260.11 165.984 259.524 165.728C258.948 165.461 258.494 165.099 258.164 164.64C257.833 164.171 257.662 163.632 257.652 163.024H259.204C259.257 163.547 259.47 163.989 259.844 164.352C260.228 164.704 260.782 164.88 261.508 164.88C262.201 164.88 262.745 164.709 263.14 164.368C263.545 164.016 263.748 163.568 263.748 163.024C263.748 162.597 263.63 162.251 263.396 161.984C263.161 161.717 262.868 161.515 262.516 161.376C262.164 161.237 261.689 161.088 261.092 160.928C260.356 160.736 259.764 160.544 259.316 160.352C258.878 160.16 258.5 159.861 258.18 159.456C257.87 159.04 257.716 158.485 257.716 157.792C257.716 157.184 257.87 156.645 258.18 156.176C258.489 155.707 258.921 155.344 259.476 155.088C260.041 154.832 260.686 154.704 261.412 154.704C262.457 154.704 263.31 154.965 263.972 155.488C264.644 156.011 265.022 156.704 265.108 157.568H263.508C263.454 157.141 263.23 156.768 262.836 156.448C262.441 156.117 261.918 155.952 261.268 155.952C260.66 155.952 260.164 156.112 259.78 156.432C259.396 156.741 259.204 157.179 259.204 157.744C259.204 158.149 259.316 158.48 259.54 158.736C259.774 158.992 260.057 159.189 260.388 159.328C260.729 159.456 261.204 159.605 261.812 159.776C262.548 159.979 263.14 160.181 263.588 160.384C264.036 160.576 264.42 160.88 264.74 161.296C265.06 161.701 265.22 162.256 265.22 162.96C265.22 163.504 265.076 164.016 264.788 164.496C264.5 164.976 264.073 165.365 263.508 165.664C262.942 165.963 262.276 166.112 261.508 166.112ZM274.914 157.232L269.634 170.128H268.13L269.858 165.904L266.322 157.232H267.938L270.69 164.336L273.41 157.232H274.914ZM280.65 157.072C281.717 157.072 282.581 157.397 283.242 158.048C283.903 158.688 284.234 159.616 284.234 160.832V166H282.794V161.04C282.794 160.165 282.575 159.499 282.138 159.04C281.701 158.571 281.103 158.336 280.346 158.336C279.578 158.336 278.965 158.576 278.506 159.056C278.058 159.536 277.834 160.235 277.834 161.152V166H276.378V157.232H277.834V158.48C278.122 158.032 278.511 157.685 279.002 157.44C279.503 157.195 280.053 157.072 280.65 157.072ZM294.612 161.28C294.612 161.557 294.596 161.851 294.564 162.16H287.556C287.61 163.024 287.903 163.701 288.436 164.192C288.98 164.672 289.636 164.912 290.404 164.912C291.034 164.912 291.556 164.768 291.972 164.48C292.399 164.181 292.698 163.787 292.868 163.296H294.436C294.202 164.139 293.732 164.827 293.028 165.36C292.324 165.883 291.45 166.144 290.404 166.144C289.572 166.144 288.826 165.957 288.164 165.584C287.514 165.211 287.002 164.683 286.628 164C286.255 163.307 286.068 162.507 286.068 161.6C286.068 160.693 286.25 159.899 286.612 159.216C286.975 158.533 287.482 158.011 288.132 157.648C288.794 157.275 289.551 157.088 290.404 157.088C291.236 157.088 291.972 157.269 292.612 157.632C293.252 157.995 293.743 158.496 294.084 159.136C294.436 159.765 294.612 160.48 294.612 161.28ZM293.108 160.976C293.108 160.421 292.986 159.947 292.74 159.552C292.495 159.147 292.159 158.843 291.732 158.64C291.316 158.427 290.852 158.32 290.34 158.32C289.604 158.32 288.975 158.555 288.452 159.024C287.94 159.493 287.647 160.144 287.572 160.976H293.108ZM35.3414 182.432V187.6C35.3414 188.027 35.432 188.331 35.6134 188.512C35.7947 188.683 36.1094 188.768 36.5574 188.768H37.6294V190H36.3174C35.5067 190 34.8987 189.813 34.4934 189.44C34.088 189.067 33.8854 188.453 33.8854 187.6V182.432H32.7494V181.232H33.8854V179.024H35.3414V181.232H37.6294V182.432H35.3414ZM43.2175 190.144C42.3962 190.144 41.6495 189.957 40.9775 189.584C40.3162 189.211 39.7935 188.683 39.4095 188C39.0362 187.307 38.8495 186.507 38.8495 185.6C38.8495 184.704 39.0415 183.915 39.4255 183.232C39.8202 182.539 40.3535 182.011 41.0255 181.648C41.6975 181.275 42.4495 181.088 43.2815 181.088C44.1135 181.088 44.8655 181.275 45.5375 181.648C46.2095 182.011 46.7375 182.533 47.1215 183.216C47.5162 183.899 47.7135 184.693 47.7135 185.6C47.7135 186.507 47.5108 187.307 47.1055 188C46.7108 188.683 46.1722 189.211 45.4895 189.584C44.8068 189.957 44.0495 190.144 43.2175 190.144ZM43.2175 188.864C43.7402 188.864 44.2308 188.741 44.6895 188.496C45.1482 188.251 45.5162 187.883 45.7935 187.392C46.0815 186.901 46.2255 186.304 46.2255 185.6C46.2255 184.896 46.0868 184.299 45.8095 183.808C45.5322 183.317 45.1695 182.955 44.7215 182.72C44.2735 182.475 43.7882 182.352 43.2655 182.352C42.7322 182.352 42.2415 182.475 41.7935 182.72C41.3562 182.955 41.0042 183.317 40.7375 183.808C40.4708 184.299 40.3375 184.896 40.3375 185.6C40.3375 186.315 40.4655 186.917 40.7215 187.408C40.9882 187.899 41.3402 188.267 41.7775 188.512C42.2148 188.747 42.6948 188.864 43.2175 188.864ZM53.3495 185.6C53.3495 184.693 53.5308 183.904 53.8935 183.232C54.2562 182.549 54.7575 182.021 55.3975 181.648C56.0482 181.275 56.7895 181.088 57.6215 181.088C58.6988 181.088 59.5842 181.349 60.2775 181.872C60.9815 182.395 61.4455 183.12 61.6695 184.048H60.1015C59.9522 183.515 59.6588 183.093 59.2215 182.784C58.7948 182.475 58.2615 182.32 57.6215 182.32C56.7895 182.32 56.1175 182.608 55.6055 183.184C55.0935 183.749 54.8375 184.555 54.8375 185.6C54.8375 186.656 55.0935 187.472 55.6055 188.048C56.1175 188.624 56.7895 188.912 57.6215 188.912C58.2615 188.912 58.7948 188.763 59.2215 188.464C59.6482 188.165 59.9415 187.739 60.1015 187.184H61.6695C61.4348 188.08 60.9655 188.8 60.2615 189.344C59.5575 189.877 58.6775 190.144 57.6215 190.144C56.7895 190.144 56.0482 189.957 55.3975 189.584C54.7575 189.211 54.2562 188.683 53.8935 188C53.5308 187.317 53.3495 186.517 53.3495 185.6ZM71.6122 185.28C71.6122 185.557 71.5962 185.851 71.5642 186.16H64.5562C64.6096 187.024 64.9029 187.701 65.4362 188.192C65.9802 188.672 66.6362 188.912 67.4042 188.912C68.0336 188.912 68.5562 188.768 68.9722 188.48C69.3989 188.181 69.6976 187.787 69.8682 187.296H71.4362C71.2016 188.139 70.7322 188.827 70.0282 189.36C69.3242 189.883 68.4496 190.144 67.4042 190.144C66.5722 190.144 65.8256 189.957 65.1642 189.584C64.5136 189.211 64.0016 188.683 63.6282 188C63.2549 187.307 63.0682 186.507 63.0682 185.6C63.0682 184.693 63.2496 183.899 63.6122 183.216C63.9749 182.533 64.4816 182.011 65.1322 181.648C65.7936 181.275 66.5509 181.088 67.4042 181.088C68.2362 181.088 68.9722 181.269 69.6122 181.632C70.2522 181.995 70.7429 182.496 71.0842 183.136C71.4362 183.765 71.6122 184.48 71.6122 185.28ZM70.1082 184.976C70.1082 184.421 69.9856 183.947 69.7402 183.552C69.4949 183.147 69.1589 182.843 68.7322 182.64C68.3162 182.427 67.8522 182.32 67.3402 182.32C66.6042 182.32 65.9749 182.555 65.4522 183.024C64.9402 183.493 64.6469 184.144 64.5722 184.976H70.1082ZM77.8061 181.072C78.8728 181.072 79.7368 181.397 80.3981 182.048C81.0595 182.688 81.3901 183.616 81.3901 184.832V190H79.9501V185.04C79.9501 184.165 79.7315 183.499 79.2941 183.04C78.8568 182.571 78.2595 182.336 77.5021 182.336C76.7341 182.336 76.1208 182.576 75.6621 183.056C75.2141 183.536 74.9901 184.235 74.9901 185.152V190H73.5341V181.232H74.9901V182.48C75.2781 182.032 75.6675 181.685 76.1581 181.44C76.6595 181.195 77.2088 181.072 77.8061 181.072ZM85.5445 182.432V187.6C85.5445 188.027 85.6352 188.331 85.8165 188.512C85.9978 188.683 86.3125 188.768 86.7605 188.768H87.8325V190H86.5205C85.7098 190 85.1018 189.813 84.6965 189.44C84.2912 189.067 84.0885 188.453 84.0885 187.6V182.432H82.9525V181.232H84.0885V179.024H85.5445V181.232H87.8325V182.432H85.5445ZM91.0526 182.656C91.3086 182.155 91.6713 181.765 92.1406 181.488C92.6206 181.211 93.202 181.072 93.8846 181.072V182.576H93.5006C91.8686 182.576 91.0526 183.461 91.0526 185.232V190H89.5966V181.232H91.0526V182.656ZM95.0214 185.584C95.0214 184.688 95.2027 183.904 95.5654 183.232C95.928 182.549 96.424 182.021 97.0534 181.648C97.6934 181.275 98.4027 181.088 99.1814 181.088C99.9494 181.088 100.616 181.253 101.181 181.584C101.747 181.915 102.168 182.331 102.445 182.832V181.232H103.917V190H102.445V188.368C102.157 188.88 101.725 189.307 101.149 189.648C100.584 189.979 99.9227 190.144 99.1654 190.144C98.3867 190.144 97.6827 189.952 97.0534 189.568C96.424 189.184 95.928 188.645 95.5654 187.952C95.2027 187.259 95.0214 186.469 95.0214 185.584ZM102.445 185.6C102.445 184.939 102.312 184.363 102.045 183.872C101.779 183.381 101.416 183.008 100.957 182.752C100.509 182.485 100.013 182.352 99.4694 182.352C98.9254 182.352 98.4294 182.48 97.9814 182.736C97.5334 182.992 97.176 183.365 96.9094 183.856C96.6427 184.347 96.5094 184.923 96.5094 185.584C96.5094 186.256 96.6427 186.843 96.9094 187.344C97.176 187.835 97.5334 188.213 97.9814 188.48C98.4294 188.736 98.9254 188.864 99.4694 188.864C100.013 188.864 100.509 188.736 100.957 188.48C101.416 188.213 101.779 187.835 102.045 187.344C102.312 186.843 102.445 186.261 102.445 185.6ZM107.834 178.16V190H106.378V178.16H107.834ZM111.067 179.808C110.79 179.808 110.555 179.712 110.363 179.52C110.171 179.328 110.075 179.093 110.075 178.816C110.075 178.539 110.171 178.304 110.363 178.112C110.555 177.92 110.79 177.824 111.067 177.824C111.334 177.824 111.558 177.92 111.739 178.112C111.931 178.304 112.027 178.539 112.027 178.816C112.027 179.093 111.931 179.328 111.739 179.52C111.558 179.712 111.334 179.808 111.067 179.808ZM111.771 181.232V190H110.315V181.232H111.771ZM115.341 188.8H119.645V190H113.677V188.8L117.933 182.416H113.709V181.232H119.613V182.416L115.341 188.8ZM129.534 185.28C129.534 185.557 129.518 185.851 129.486 186.16H122.478C122.531 187.024 122.825 187.701 123.358 188.192C123.902 188.672 124.558 188.912 125.326 188.912C125.955 188.912 126.478 188.768 126.894 188.48C127.321 188.181 127.619 187.787 127.79 187.296H129.358C129.123 188.139 128.654 188.827 127.95 189.36C127.246 189.883 126.371 190.144 125.326 190.144C124.494 190.144 123.747 189.957 123.086 189.584C122.435 189.211 121.923 188.683 121.55 188C121.177 187.307 120.99 186.507 120.99 185.6C120.99 184.693 121.171 183.899 121.534 183.216C121.897 182.533 122.403 182.011 123.054 181.648C123.715 181.275 124.473 181.088 125.326 181.088C126.158 181.088 126.894 181.269 127.534 181.632C128.174 181.995 128.665 182.496 129.006 183.136C129.358 183.765 129.534 184.48 129.534 185.28ZM128.03 184.976C128.03 184.421 127.907 183.947 127.662 183.552C127.417 183.147 127.081 182.843 126.654 182.64C126.238 182.427 125.774 182.32 125.262 182.32C124.526 182.32 123.897 182.555 123.374 183.024C122.862 183.493 122.569 184.144 122.494 184.976H128.03ZM143.274 181.232L137.994 194.128H136.49L138.218 189.904L134.682 181.232H136.298L139.05 188.336L141.77 181.232H143.274ZM148.561 190.144C147.74 190.144 146.993 189.957 146.321 189.584C145.66 189.211 145.137 188.683 144.753 188C144.38 187.307 144.193 186.507 144.193 185.6C144.193 184.704 144.385 183.915 144.769 183.232C145.164 182.539 145.697 182.011 146.369 181.648C147.041 181.275 147.793 181.088 148.625 181.088C149.457 181.088 150.209 181.275 150.881 181.648C151.553 182.011 152.081 182.533 152.465 183.216C152.86 183.899 153.057 184.693 153.057 185.6C153.057 186.507 152.855 187.307 152.449 188C152.055 188.683 151.516 189.211 150.833 189.584C150.151 189.957 149.393 190.144 148.561 190.144ZM148.561 188.864C149.084 188.864 149.575 188.741 150.033 188.496C150.492 188.251 150.86 187.883 151.137 187.392C151.425 186.901 151.569 186.304 151.569 185.6C151.569 184.896 151.431 184.299 151.153 183.808C150.876 183.317 150.513 182.955 150.065 182.72C149.617 182.475 149.132 182.352 148.609 182.352C148.076 182.352 147.585 182.475 147.137 182.72C146.7 182.955 146.348 183.317 146.081 183.808C145.815 184.299 145.681 184.896 145.681 185.6C145.681 186.315 145.809 186.917 146.065 187.408C146.332 187.899 146.684 188.267 147.121 188.512C147.559 188.747 148.039 188.864 148.561 188.864ZM162.748 181.232V190H161.292V188.704C161.014 189.152 160.625 189.504 160.124 189.76C159.633 190.005 159.089 190.128 158.492 190.128C157.809 190.128 157.196 189.989 156.652 189.712C156.108 189.424 155.676 188.997 155.356 188.432C155.046 187.867 154.892 187.179 154.892 186.368V181.232H156.332V186.176C156.332 187.04 156.55 187.707 156.988 188.176C157.425 188.635 158.022 188.864 158.78 188.864C159.558 188.864 160.172 188.624 160.62 188.144C161.068 187.664 161.292 186.965 161.292 186.048V181.232H162.748ZM166.662 182.656C166.918 182.155 167.281 181.765 167.75 181.488C168.23 181.211 168.811 181.072 169.494 181.072V182.576H169.11C167.478 182.576 166.662 183.461 166.662 185.232V190H165.206V181.232H166.662V182.656ZM187.12 181.232L184.384 190H182.88L180.768 183.04L178.656 190H177.152L174.4 181.232H175.888L177.904 188.592L180.08 181.232H181.568L183.696 188.608L185.68 181.232H187.12ZM192.389 190.144C191.568 190.144 190.821 189.957 190.149 189.584C189.488 189.211 188.965 188.683 188.581 188C188.208 187.307 188.021 186.507 188.021 185.6C188.021 184.704 188.213 183.915 188.597 183.232C188.992 182.539 189.525 182.011 190.197 181.648C190.869 181.275 191.621 181.088 192.453 181.088C193.285 181.088 194.037 181.275 194.709 181.648C195.381 182.011 195.909 182.533 196.293 183.216C196.688 183.899 196.885 184.693 196.885 185.6C196.885 186.507 196.683 187.307 196.277 188C195.883 188.683 195.344 189.211 194.661 189.584C193.979 189.957 193.221 190.144 192.389 190.144ZM192.389 188.864C192.912 188.864 193.403 188.741 193.861 188.496C194.32 188.251 194.688 187.883 194.965 187.392C195.253 186.901 195.397 186.304 195.397 185.6C195.397 184.896 195.259 184.299 194.981 183.808C194.704 183.317 194.341 182.955 193.893 182.72C193.445 182.475 192.96 182.352 192.437 182.352C191.904 182.352 191.413 182.475 190.965 182.72C190.528 182.955 190.176 183.317 189.909 183.808C189.643 184.299 189.509 184.896 189.509 185.6C189.509 186.315 189.637 186.917 189.893 187.408C190.16 187.899 190.512 188.267 190.949 188.512C191.387 188.747 191.867 188.864 192.389 188.864ZM200.256 182.656C200.512 182.155 200.874 181.765 201.344 181.488C201.824 181.211 202.405 181.072 203.088 181.072V182.576H202.704C201.072 182.576 200.256 183.461 200.256 185.232V190H198.8V181.232H200.256V182.656ZM209.664 190L206.224 186.128V190H204.768V178.16H206.224V185.12L209.6 181.232H211.632L207.504 185.6L211.648 190H209.664ZM216.571 182.432H214.731V190H213.275V182.432H212.139V181.232H213.275V180.608C213.275 179.627 213.526 178.912 214.027 178.464C214.539 178.005 215.355 177.776 216.475 177.776V178.992C215.835 178.992 215.382 179.12 215.115 179.376C214.859 179.621 214.731 180.032 214.731 180.608V181.232H216.571V182.432ZM219.724 178.16V190H218.268V178.16H219.724ZM226.03 190.144C225.209 190.144 224.462 189.957 223.79 189.584C223.129 189.211 222.606 188.683 222.222 188C221.849 187.307 221.662 186.507 221.662 185.6C221.662 184.704 221.854 183.915 222.238 183.232C222.633 182.539 223.166 182.011 223.838 181.648C224.51 181.275 225.262 181.088 226.094 181.088C226.926 181.088 227.678 181.275 228.35 181.648C229.022 182.011 229.55 182.533 229.934 183.216C230.329 183.899 230.526 184.693 230.526 185.6C230.526 186.507 230.323 187.307 229.918 188C229.523 188.683 228.985 189.211 228.302 189.584C227.619 189.957 226.862 190.144 226.03 190.144ZM226.03 188.864C226.553 188.864 227.043 188.741 227.502 188.496C227.961 188.251 228.329 187.883 228.606 187.392C228.894 186.901 229.038 186.304 229.038 185.6C229.038 184.896 228.899 184.299 228.622 183.808C228.345 183.317 227.982 182.955 227.534 182.72C227.086 182.475 226.601 182.352 226.078 182.352C225.545 182.352 225.054 182.475 224.606 182.72C224.169 182.955 223.817 183.317 223.55 183.808C223.283 184.299 223.15 184.896 223.15 185.6C223.15 186.315 223.278 186.917 223.534 187.408C223.801 187.899 224.153 188.267 224.59 188.512C225.027 188.747 225.507 188.864 226.03 188.864ZM244.12 181.232L241.384 190H239.88L237.768 183.04L235.656 190H234.152L231.4 181.232H232.888L234.904 188.592L237.08 181.232H238.568L240.696 188.608L242.68 181.232H244.12ZM261.511 181.232L258.775 190H257.271L255.159 183.04L253.047 190H251.543L248.791 181.232H250.279L252.295 188.592L254.471 181.232H255.959L258.087 188.608L260.071 181.232H261.511ZM263.708 179.808C263.431 179.808 263.196 179.712 263.004 179.52C262.812 179.328 262.716 179.093 262.716 178.816C262.716 178.539 262.812 178.304 263.004 178.112C263.196 177.92 263.431 177.824 263.708 177.824C263.975 177.824 264.199 177.92 264.38 178.112C264.572 178.304 264.668 178.539 264.668 178.816C264.668 179.093 264.572 179.328 264.38 179.52C264.199 179.712 263.975 179.808 263.708 179.808ZM264.412 181.232V190H262.956V181.232H264.412ZM268.669 182.432V187.6C268.669 188.027 268.76 188.331 268.941 188.512C269.123 188.683 269.437 188.768 269.885 188.768H270.957V190H269.645C268.835 190 268.227 189.813 267.821 189.44C267.416 189.067 267.213 188.453 267.213 187.6V182.432H266.077V181.232H267.213V179.024H268.669V181.232H270.957V182.432H268.669ZM277.074 181.072C277.735 181.072 278.332 181.216 278.866 181.504C279.399 181.781 279.815 182.203 280.114 182.768C280.423 183.333 280.578 184.021 280.578 184.832V190H279.138V185.04C279.138 184.165 278.919 183.499 278.482 183.04C278.044 182.571 277.447 182.336 276.69 182.336C275.922 182.336 275.308 182.576 274.85 183.056C274.402 183.536 274.178 184.235 274.178 185.152V190H272.722V178.16H274.178V182.48C274.466 182.032 274.86 181.685 275.362 181.44C275.874 181.195 276.444 181.072 277.074 181.072ZM286.78 190.144C285.959 190.144 285.212 189.957 284.54 189.584C283.879 189.211 283.356 188.683 282.972 188C282.599 187.307 282.412 186.507 282.412 185.6C282.412 184.704 282.604 183.915 282.988 183.232C283.383 182.539 283.916 182.011 284.588 181.648C285.26 181.275 286.012 181.088 286.844 181.088C287.676 181.088 288.428 181.275 289.1 181.648C289.772 182.011 290.3 182.533 290.684 183.216C291.079 183.899 291.276 184.693 291.276 185.6C291.276 186.507 291.073 187.307 290.668 188C290.273 188.683 289.735 189.211 289.052 189.584C288.369 189.957 287.612 190.144 286.78 190.144ZM286.78 188.864C287.303 188.864 287.793 188.741 288.252 188.496C288.711 188.251 289.079 187.883 289.356 187.392C289.644 186.901 289.788 186.304 289.788 185.6C289.788 184.896 289.649 184.299 289.372 183.808C289.095 183.317 288.732 182.955 288.284 182.72C287.836 182.475 287.351 182.352 286.828 182.352C286.295 182.352 285.804 182.475 285.356 182.72C284.919 182.955 284.567 183.317 284.3 183.808C284.033 184.299 283.9 184.896 283.9 185.6C283.9 186.315 284.028 186.917 284.284 187.408C284.551 187.899 284.903 188.267 285.34 188.512C285.777 188.747 286.257 188.864 286.78 188.864ZM300.966 181.232V190H299.51V188.704C299.233 189.152 298.844 189.504 298.342 189.76C297.852 190.005 297.308 190.128 296.71 190.128C296.028 190.128 295.414 189.989 294.87 189.712C294.326 189.424 293.894 188.997 293.574 188.432C293.265 187.867 293.11 187.179 293.11 186.368V181.232H294.55V186.176C294.55 187.04 294.769 187.707 295.206 188.176C295.644 188.635 296.241 188.864 296.998 188.864C297.777 188.864 298.39 188.624 298.838 188.144C299.286 187.664 299.51 186.965 299.51 186.048V181.232H300.966ZM305.201 182.432V187.6C305.201 188.027 305.291 188.331 305.473 188.512C305.654 188.683 305.969 188.768 306.417 188.768H307.489V190H306.177C305.366 190 304.758 189.813 304.353 189.44C303.947 189.067 303.745 188.453 303.745 187.6V182.432H302.609V181.232H303.745V179.024H305.201V181.232H307.489V182.432H305.201ZM33.0214 209.584C33.0214 208.688 33.2027 207.904 33.5654 207.232C33.928 206.549 34.424 206.021 35.0534 205.648C35.6934 205.275 36.408 205.088 37.1974 205.088C37.88 205.088 38.5147 205.248 39.1014 205.568C39.688 205.877 40.136 206.288 40.4454 206.8V202.16H41.9174V214H40.4454V212.352C40.1574 212.875 39.7307 213.307 39.1654 213.648C38.6 213.979 37.9387 214.144 37.1814 214.144C36.4027 214.144 35.6934 213.952 35.0534 213.568C34.424 213.184 33.928 212.645 33.5654 211.952C33.2027 211.259 33.0214 210.469 33.0214 209.584ZM40.4454 209.6C40.4454 208.939 40.312 208.363 40.0454 207.872C39.7787 207.381 39.416 207.008 38.9574 206.752C38.5094 206.485 38.0134 206.352 37.4694 206.352C36.9254 206.352 36.4294 206.48 35.9814 206.736C35.5334 206.992 35.176 207.365 34.9094 207.856C34.6427 208.347 34.5094 208.923 34.5094 209.584C34.5094 210.256 34.6427 210.843 34.9094 211.344C35.176 211.835 35.5334 212.213 35.9814 212.48C36.4294 212.736 36.9254 212.864 37.4694 212.864C38.0134 212.864 38.5094 212.736 38.9574 212.48C39.416 212.213 39.7787 211.835 40.0454 211.344C40.312 210.843 40.4454 210.261 40.4454 209.6ZM45.1299 203.808C44.8525 203.808 44.6179 203.712 44.4259 203.52C44.2339 203.328 44.1379 203.093 44.1379 202.816C44.1379 202.539 44.2339 202.304 44.4259 202.112C44.6179 201.92 44.8525 201.824 45.1299 201.824C45.3965 201.824 45.6205 201.92 45.8019 202.112C45.9939 202.304 46.0899 202.539 46.0899 202.816C46.0899 203.093 45.9939 203.328 45.8019 203.52C45.6205 203.712 45.3965 203.808 45.1299 203.808ZM45.8339 205.232V214H44.3779V205.232H45.8339ZM51.4194 214.144C50.7474 214.144 50.1447 214.032 49.6114 213.808C49.078 213.573 48.6567 213.253 48.3474 212.848C48.038 212.432 47.8674 211.957 47.8354 211.424H49.3394C49.382 211.861 49.5847 212.219 49.9474 212.496C50.3207 212.773 50.806 212.912 51.4034 212.912C51.958 212.912 52.3954 212.789 52.7154 212.544C53.0354 212.299 53.1954 211.989 53.1954 211.616C53.1954 211.232 53.0247 210.949 52.6834 210.768C52.342 210.576 51.814 210.389 51.0994 210.208C50.4487 210.037 49.9154 209.867 49.4994 209.696C49.094 209.515 48.742 209.253 48.4434 208.912C48.1554 208.56 48.0114 208.101 48.0114 207.536C48.0114 207.088 48.1447 206.677 48.4114 206.304C48.678 205.931 49.0567 205.637 49.5474 205.424C50.038 205.2 50.598 205.088 51.2274 205.088C52.198 205.088 52.982 205.333 53.5794 205.824C54.1767 206.315 54.4967 206.987 54.5394 207.84H53.0834C53.0514 207.381 52.8647 207.013 52.5234 206.736C52.1927 206.459 51.7447 206.32 51.1794 206.32C50.6567 206.32 50.2407 206.432 49.9314 206.656C49.622 206.88 49.4674 207.173 49.4674 207.536C49.4674 207.824 49.558 208.064 49.7394 208.256C49.9314 208.437 50.166 208.587 50.4434 208.704C50.7314 208.811 51.126 208.933 51.6274 209.072C52.2567 209.243 52.7687 209.413 53.1634 209.584C53.558 209.744 53.894 209.989 54.1714 210.32C54.4594 210.651 54.6087 211.083 54.6194 211.616C54.6194 212.096 54.486 212.528 54.2194 212.912C53.9527 213.296 53.574 213.6 53.0834 213.824C52.6034 214.037 52.0487 214.144 51.4194 214.144ZM58.4507 206.432V211.6C58.4507 212.027 58.5414 212.331 58.7227 212.512C58.9041 212.683 59.2187 212.768 59.6667 212.768H60.7387V214H59.4267C58.6161 214 58.0081 213.813 57.6027 213.44C57.1974 213.067 56.9947 212.453 56.9947 211.6V206.432H55.8587V205.232H56.9947V203.024H58.4507V205.232H60.7387V206.432H58.4507ZM63.9589 206.656C64.2149 206.155 64.5775 205.765 65.0469 205.488C65.5269 205.211 66.1082 205.072 66.7909 205.072V206.576H66.4069C64.7749 206.576 63.9589 207.461 63.9589 209.232V214H62.5029V205.232H63.9589V206.656ZM67.9276 209.584C67.9276 208.688 68.109 207.904 68.4716 207.232C68.8343 206.549 69.3303 206.021 69.9596 205.648C70.5996 205.275 71.309 205.088 72.0876 205.088C72.8556 205.088 73.5223 205.253 74.0876 205.584C74.653 205.915 75.0743 206.331 75.3516 206.832V205.232H76.8236V214H75.3516V212.368C75.0636 212.88 74.6316 213.307 74.0556 213.648C73.4903 213.979 72.829 214.144 72.0716 214.144C71.293 214.144 70.589 213.952 69.9596 213.568C69.3303 213.184 68.8343 212.645 68.4716 211.952C68.109 211.259 67.9276 210.469 67.9276 209.584ZM75.3516 209.6C75.3516 208.939 75.2183 208.363 74.9516 207.872C74.685 207.381 74.3223 207.008 73.8636 206.752C73.4156 206.485 72.9196 206.352 72.3756 206.352C71.8316 206.352 71.3356 206.48 70.8876 206.736C70.4396 206.992 70.0823 207.365 69.8156 207.856C69.549 208.347 69.4156 208.923 69.4156 209.584C69.4156 210.256 69.549 210.843 69.8156 211.344C70.0823 211.835 70.4396 212.213 70.8876 212.48C71.3356 212.736 71.8316 212.864 72.3756 212.864C72.9196 212.864 73.4156 212.736 73.8636 212.48C74.3223 212.213 74.685 211.835 74.9516 211.344C75.2183 210.843 75.3516 210.261 75.3516 209.6ZM78.7401 209.6C78.7401 208.693 78.9215 207.904 79.2841 207.232C79.6468 206.549 80.1481 206.021 80.7881 205.648C81.4388 205.275 82.1801 205.088 83.0121 205.088C84.0895 205.088 84.9748 205.349 85.6681 205.872C86.3721 206.395 86.8361 207.12 87.0601 208.048H85.4921C85.3428 207.515 85.0495 207.093 84.6121 206.784C84.1855 206.475 83.6521 206.32 83.0121 206.32C82.1801 206.32 81.5081 206.608 80.9961 207.184C80.4841 207.749 80.2281 208.555 80.2281 209.6C80.2281 210.656 80.4841 211.472 80.9961 212.048C81.5081 212.624 82.1801 212.912 83.0121 212.912C83.6521 212.912 84.1855 212.763 84.6121 212.464C85.0388 212.165 85.3321 211.739 85.4921 211.184H87.0601C86.8255 212.08 86.3561 212.8 85.6521 213.344C84.9481 213.877 84.0681 214.144 83.0121 214.144C82.1801 214.144 81.4388 213.957 80.7881 213.584C80.1481 213.211 79.6468 212.683 79.2841 212C78.9215 211.317 78.7401 210.517 78.7401 209.6ZM90.7789 206.432V211.6C90.7789 212.027 90.8695 212.331 91.0509 212.512C91.2322 212.683 91.5469 212.768 91.9949 212.768H93.0669V214H91.7549C90.9442 214 90.3362 213.813 89.9309 213.44C89.5255 213.067 89.3229 212.453 89.3229 211.6V206.432H88.1869V205.232H89.3229V203.024H90.7789V205.232H93.0669V206.432H90.7789ZM95.583 203.808C95.3057 203.808 95.071 203.712 94.879 203.52C94.687 203.328 94.591 203.093 94.591 202.816C94.591 202.539 94.687 202.304 94.879 202.112C95.071 201.92 95.3057 201.824 95.583 201.824C95.8497 201.824 96.0737 201.92 96.255 202.112C96.447 202.304 96.543 202.539 96.543 202.816C96.543 203.093 96.447 203.328 96.255 203.52C96.0737 203.712 95.8497 203.808 95.583 203.808ZM96.287 205.232V214H94.831V205.232H96.287ZM102.592 214.144C101.771 214.144 101.024 213.957 100.352 213.584C99.6912 213.211 99.1685 212.683 98.7845 212C98.4112 211.307 98.2245 210.507 98.2245 209.6C98.2245 208.704 98.4165 207.915 98.8005 207.232C99.1952 206.539 99.7285 206.011 100.4 205.648C101.072 205.275 101.824 205.088 102.656 205.088C103.488 205.088 104.24 205.275 104.912 205.648C105.584 206.011 106.112 206.533 106.496 207.216C106.891 207.899 107.088 208.693 107.088 209.6C107.088 210.507 106.886 211.307 106.48 212C106.086 212.683 105.547 213.211 104.864 213.584C104.182 213.957 103.424 214.144 102.592 214.144ZM102.592 212.864C103.115 212.864 103.606 212.741 104.064 212.496C104.523 212.251 104.891 211.883 105.168 211.392C105.456 210.901 105.6 210.304 105.6 209.6C105.6 208.896 105.462 208.299 105.184 207.808C104.907 207.317 104.544 206.955 104.096 206.72C103.648 206.475 103.163 206.352 102.64 206.352C102.107 206.352 101.616 206.475 101.168 206.72C100.731 206.955 100.379 207.317 100.112 207.808C99.8458 208.299 99.7125 208.896 99.7125 209.6C99.7125 210.315 99.8405 210.917 100.096 211.408C100.363 211.899 100.715 212.267 101.152 212.512C101.59 212.747 102.07 212.864 102.592 212.864ZM113.275 205.072C114.342 205.072 115.206 205.397 115.867 206.048C116.528 206.688 116.859 207.616 116.859 208.832V214H115.419V209.04C115.419 208.165 115.2 207.499 114.763 207.04C114.326 206.571 113.728 206.336 112.971 206.336C112.203 206.336 111.59 206.576 111.131 207.056C110.683 207.536 110.459 208.235 110.459 209.152V214H109.003V205.232H110.459V206.48C110.747 206.032 111.136 205.685 111.627 205.44C112.128 205.195 112.678 205.072 113.275 205.072ZM122.341 214.144C121.669 214.144 121.067 214.032 120.533 213.808C120 213.573 119.579 213.253 119.269 212.848C118.96 212.432 118.789 211.957 118.757 211.424H120.261C120.304 211.861 120.507 212.219 120.869 212.496C121.243 212.773 121.728 212.912 122.325 212.912C122.88 212.912 123.317 212.789 123.637 212.544C123.957 212.299 124.117 211.989 124.117 211.616C124.117 211.232 123.947 210.949 123.605 210.768C123.264 210.576 122.736 210.389 122.021 210.208C121.371 210.037 120.837 209.867 120.421 209.696C120.016 209.515 119.664 209.253 119.365 208.912C119.077 208.56 118.933 208.101 118.933 207.536C118.933 207.088 119.067 206.677 119.333 206.304C119.6 205.931 119.979 205.637 120.469 205.424C120.96 205.2 121.52 205.088 122.149 205.088C123.12 205.088 123.904 205.333 124.501 205.824C125.099 206.315 125.419 206.987 125.461 207.84H124.005C123.973 207.381 123.787 207.013 123.445 206.736C123.115 206.459 122.667 206.32 122.101 206.32C121.579 206.32 121.163 206.432 120.853 206.656C120.544 206.88 120.389 207.173 120.389 207.536C120.389 207.824 120.48 208.064 120.661 208.256C120.853 208.437 121.088 208.587 121.365 208.704C121.653 208.811 122.048 208.933 122.549 209.072C123.179 209.243 123.691 209.413 124.085 209.584C124.48 209.744 124.816 209.989 125.093 210.32C125.381 210.651 125.531 211.083 125.541 211.616C125.541 212.096 125.408 212.528 125.141 212.912C124.875 213.296 124.496 213.6 124.005 213.824C123.525 214.037 122.971 214.144 122.341 214.144Z" fill="#495057"/>
<path opacity="0.3" fill-rule="evenodd" clip-rule="evenodd" d="M122.335 418.694C122.335 431.437 131.103 443.657 146.709 452.668C179.186 471.418 231.92 471.418 264.397 452.668C280.003 443.657 288.771 431.437 288.771 418.694H247.162C247.162 425.065 242.778 431.176 234.975 435.681C218.737 445.056 192.369 445.056 176.131 435.681C168.328 431.176 163.944 425.065 163.944 418.694H122.335Z" fill="#262725"/>
<path fill-rule="evenodd" clip-rule="evenodd" d="M146.481 338.122V403.61L185.798 411.472C187.858 408.038 191.242 404.918 195.693 402.348C205.431 396.726 219.356 394.25 232.884 395.734L240.654 372.134V306.647C213.596 303.677 185.746 308.63 166.271 319.874C157.368 325.014 150.601 331.254 146.481 338.122Z" fill="white"/>
<path fill-rule="evenodd" clip-rule="evenodd" d="M146.481 338.122V403.61L185.798 411.472C187.858 408.038 191.242 404.918 195.693 402.348C205.431 396.726 219.356 394.25 232.884 395.734L240.654 372.134V306.647C213.596 303.677 185.746 308.63 166.271 319.874C157.368 325.014 150.601 331.254 146.481 338.122Z" stroke="#262725" stroke-width="2" stroke-linecap="round" stroke-linejoin="round"/>
<path fill-rule="evenodd" clip-rule="evenodd" d="M240.654 306.647C213.596 303.677 185.746 308.63 166.271 319.874C157.368 325.014 150.601 331.254 146.481 338.122L185.798 345.985C187.858 342.55 191.242 339.431 195.693 336.861C205.431 331.239 219.356 328.762 232.884 330.247L240.654 306.647Z" fill="white"/>
<path fill-rule="evenodd" clip-rule="evenodd" d="M240.654 306.647C213.596 303.677 185.746 308.63 166.271 319.874C157.368 325.014 150.601 331.254 146.481 338.122L185.798 345.985C187.858 342.55 191.242 339.431 195.693 336.861C205.431 331.239 219.356 328.762 232.884 330.247L240.654 306.647Z" stroke="#262725" stroke-width="2" stroke-linecap="round" stroke-linejoin="round"/>
<path fill-rule="evenodd" clip-rule="evenodd" d="M146.481 403.609V338.121L185.798 345.984V411.471L146.481 403.609Z" fill="#039600"/>
<path fill-rule="evenodd" clip-rule="evenodd" d="M146.481 403.609V338.121L185.798 345.984V411.471L146.481 403.609Z" stroke="#262725" stroke-width="2" stroke-linecap="round" stroke-linejoin="round"/>
<path fill-rule="evenodd" clip-rule="evenodd" d="M240.659 372.134V306.646L232.889 330.247V395.734L240.659 372.134Z" fill="white"/>
<path fill-rule="evenodd" clip-rule="evenodd" d="M240.659 372.134V306.646L232.889 330.247V395.734L240.659 372.134Z" stroke="#262725" stroke-width="2" stroke-linecap="round" stroke-linejoin="round"/>
<path fill-rule="evenodd" clip-rule="evenodd" d="M304.917 364.808C300.98 357.123 293.775 350.128 283.96 344.461C274.145 338.794 262.03 334.635 248.719 332.362L225.116 378.435L304.917 364.808Z" fill="white"/>
<path fill-rule="evenodd" clip-rule="evenodd" d="M304.917 364.808C300.98 357.123 293.775 350.128 283.96 344.461C274.145 338.794 262.03 334.635 248.719 332.362L225.116 378.435L304.917 364.808Z" stroke="#262725" stroke-width="2" stroke-linecap="round" stroke-linejoin="round"/>
<path fill-rule="evenodd" clip-rule="evenodd" d="M304.916 406.061V364.808L225.105 378.441L225.116 419.688L304.916 406.061Z" fill="#00D42F"/>
<path fill-rule="evenodd" clip-rule="evenodd" d="M304.916 406.061V364.808L225.105 378.441L225.116 419.688L304.916 406.061Z" stroke="#262725" stroke-width="2" stroke-linecap="round" stroke-linejoin="round"/>
<path fill-rule="evenodd" clip-rule="evenodd" d="M141.898 394.043C141.898 406.785 150.665 419.006 166.272 428.016C198.749 446.767 251.482 446.767 283.959 428.016C299.566 419.006 308.333 406.785 308.333 394.043H266.725C266.725 400.414 262.341 406.524 254.538 411.03C238.299 420.405 211.932 420.405 195.693 411.03C187.89 406.524 183.507 400.414 183.507 394.043H141.898Z" fill="white"/>
<path fill-rule="evenodd" clip-rule="evenodd" d="M141.898 394.043C141.898 406.785 150.665 419.006 166.272 428.016C198.749 446.767 251.482 446.767 283.959 428.016C299.566 419.006 308.333 406.785 308.333 394.043H266.725C266.725 400.414 262.341 406.524 254.538 411.03C238.299 420.405 211.932 420.405 195.693 411.03C187.89 406.524 183.507 400.414 183.507 394.043H141.898Z" stroke="#262725" stroke-width="2" stroke-linecap="round" stroke-linejoin="round"/>
<path opacity="0.3" fill-rule="evenodd" clip-rule="evenodd" d="M159.156 399.136L146.207 406.612L159.156 414.088L164.242 413.807C164.242 413.807 167.022 409.109 172.104 406.612L159.156 399.136Z" fill="#262725"/>
<path opacity="0.3" fill-rule="evenodd" clip-rule="evenodd" d="M176.946 414.079L163.997 421.555L176.946 429.031L182.032 428.75C182.032 428.75 184.812 424.052 189.894 421.555L176.946 414.079Z" fill="#262725"/>
<path opacity="0.3" fill-rule="evenodd" clip-rule="evenodd" d="M201.675 421.212L188.726 428.688L201.675 436.164L206.761 435.883C206.761 435.883 209.541 431.184 214.623 428.688L201.675 421.212Z" fill="#262725"/>
<path fill-rule="evenodd" clip-rule="evenodd" d="M308.317 418.635H308.285C308.888 431.373 300.778 444.223 283.956 453.935C251.475 472.688 198.734 472.688 166.253 453.935C149.431 444.223 141.321 431.373 141.923 418.635H141.892V394.027C141.892 406.327 150.012 418.628 166.253 428.005C198.734 446.758 251.475 446.758 283.956 428.005C300.197 418.628 308.317 406.327 308.317 394.027V418.635Z" fill="#8FFC22"/>
<path fill-rule="evenodd" clip-rule="evenodd" d="M308.317 418.635H308.285C308.888 431.373 300.778 444.223 283.956 453.935C251.475 472.688 198.734 472.688 166.253 453.935C149.431 444.223 141.321 431.373 141.923 418.635H141.892V394.027C141.892 406.327 150.012 418.628 166.253 428.005C198.734 446.758 251.475 446.758 283.956 428.005C300.197 418.628 308.317 406.327 308.317 394.027V418.635Z" stroke="#262725" stroke-width="2" stroke-linecap="round" stroke-linejoin="round"/>
<path fill-rule="evenodd" clip-rule="evenodd" d="M164.24 383.19L151.291 390.666V406.331L164.24 413.807L177.189 406.331V390.666L164.24 383.19Z" fill="#039600"/>
<path fill-rule="evenodd" clip-rule="evenodd" d="M164.24 383.19L151.291 390.666V406.331L164.24 413.807L177.189 406.331V390.666L164.24 383.19Z" stroke="#262725" stroke-width="2" stroke-linecap="round" stroke-linejoin="round"/>
<path fill-rule="evenodd" clip-rule="evenodd" d="M177.19 390.665L164.242 398.141V413.806L177.19 406.33V390.665Z" fill="white"/>
<path fill-rule="evenodd" clip-rule="evenodd" d="M177.19 390.665L164.242 398.141V413.806L177.19 406.33V390.665Z" stroke="#262725" stroke-width="2" stroke-linecap="round" stroke-linejoin="round"/>
<path fill-rule="evenodd" clip-rule="evenodd" d="M164.24 383.19L151.291 390.666L164.24 398.142L177.189 390.666L164.24 383.19Z" fill="white"/>
<path fill-rule="evenodd" clip-rule="evenodd" d="M164.24 383.19L151.291 390.666L164.24 398.142L177.189 390.666L164.24 383.19Z" stroke="#262725" stroke-width="2" stroke-linecap="round" stroke-linejoin="round"/>
<path fill-rule="evenodd" clip-rule="evenodd" d="M182.1 383.471L169.151 390.947V421.354L182.1 428.83L195.049 421.354V390.947L182.1 383.471Z" fill="#00D52F"/>
<path fill-rule="evenodd" clip-rule="evenodd" d="M182.1 383.471L169.151 390.947V421.354L182.1 428.83L195.049 421.354V390.947L182.1 383.471Z" stroke="#262725" stroke-width="2" stroke-linecap="round" stroke-linejoin="round"/>
<path fill-rule="evenodd" clip-rule="evenodd" d="M195.05 390.946L182.102 398.422V428.829L195.05 421.353V390.946Z" fill="white"/>
<path fill-rule="evenodd" clip-rule="evenodd" d="M195.05 390.946L182.102 398.422V428.829L195.05 421.353V390.946Z" stroke="#262725" stroke-width="2" stroke-linecap="round" stroke-linejoin="round"/>
<path fill-rule="evenodd" clip-rule="evenodd" d="M182.1 383.471L169.151 390.947L182.1 398.423L195.049 390.947L182.1 383.471Z" fill="white"/>
<path fill-rule="evenodd" clip-rule="evenodd" d="M182.1 383.471L169.151 390.947L182.1 398.423L195.049 390.947L182.1 383.471Z" stroke="#262725" stroke-width="2" stroke-linecap="round" stroke-linejoin="round"/>
<path fill-rule="evenodd" clip-rule="evenodd" d="M206.665 369.289L193.717 376.765V428.435L206.665 435.911L219.614 428.435V376.765L206.665 369.289Z" fill="#8FFC22"/>
<path fill-rule="evenodd" clip-rule="evenodd" d="M206.665 369.289L193.717 376.765V428.435L206.665 435.911L219.614 428.435V376.765L206.665 369.289Z" stroke="#262725" stroke-width="2" stroke-linecap="round" stroke-linejoin="round"/>
<path fill-rule="evenodd" clip-rule="evenodd" d="M219.61 376.766L206.661 384.242V435.912L219.61 428.436V376.766Z" fill="white"/>
<path fill-rule="evenodd" clip-rule="evenodd" d="M219.61 376.766L206.661 384.242V435.912L219.61 428.436V376.766Z" stroke="#262725" stroke-width="2" stroke-linecap="round" stroke-linejoin="round"/>
<path fill-rule="evenodd" clip-rule="evenodd" d="M206.665 369.289L193.717 376.765L206.665 384.241L219.614 376.765L206.665 369.289Z" fill="white"/>
<path fill-rule="evenodd" clip-rule="evenodd" d="M206.665 369.289L193.717 376.765L206.665 384.241L219.614 376.765L206.665 369.289Z" stroke="#262725" stroke-width="2" stroke-linecap="round" stroke-linejoin="round"/>
<path fill-rule="evenodd" clip-rule="evenodd" d="M208.951 313.113C213.45 310.516 220.754 310.516 225.253 313.113C229.751 315.71 229.751 319.928 225.253 322.525C220.754 325.122 213.45 325.122 208.951 322.525C204.452 319.928 204.452 315.71 208.951 313.113Z" fill="#262725"/>
<path fill-rule="evenodd" clip-rule="evenodd" d="M217.097 269.78C226.095 269.78 233.399 277.085 233.399 286.082C233.399 295.079 226.095 302.384 217.097 302.384C208.1 302.384 200.796 295.079 200.796 286.082C200.796 277.085 208.1 269.78 217.097 269.78Z" fill="#8FFC22"/>
<path fill-rule="evenodd" clip-rule="evenodd" d="M217.097 269.78C226.095 269.78 233.399 277.085 233.399 286.082C233.399 295.079 226.095 302.384 217.097 302.384C208.1 302.384 200.796 295.079 200.796 286.082C200.796 277.085 208.1 269.78 217.097 269.78Z" stroke="#262725" stroke-width="2" stroke-linecap="round" stroke-linejoin="round"/>
</svg>
