<svg width="786" height="302" viewBox="0 0 786 302" fill="none" xmlns="http://www.w3.org/2000/svg">
<rect x="0.5" y="0.5" width="785" height="300.301" rx="19.5" fill="white"/>
<rect x="0.5" y="0.5" width="785" height="300.301" rx="19.5" stroke="#556AEB"/>
<rect x="32" y="68.6506" width="48" height="48" rx="8" fill="#212529"/>
<path d="M57.7528 87.0142V98.6506H55.9915V88.7756H55.9233L53.1392 90.5938V88.9119L56.0426 87.0142H57.7528Z" fill="white"/>
<path d="M45.872 144.083C45.872 144.979 45.656 145.819 45.224 146.603C44.808 147.387 44.144 148.019 43.232 148.499C42.336 148.979 41.2 149.219 39.824 149.219H37.016V155.651H33.656V138.899H39.824C41.12 138.899 42.224 139.123 43.136 139.571C44.048 140.019 44.728 140.635 45.176 141.419C45.64 142.203 45.872 143.091 45.872 144.083ZM39.68 146.507C40.608 146.507 41.296 146.299 41.744 145.883C42.192 145.451 42.416 144.851 42.416 144.083C42.416 142.451 41.504 141.635 39.68 141.635H37.016V146.507H39.68ZM60.8096 142.355V155.651H57.4256V153.971C56.9936 154.547 56.4256 155.003 55.7216 155.339C55.0336 155.659 54.2816 155.819 53.4656 155.819C52.4256 155.819 51.5056 155.603 50.7056 155.171C49.9056 154.723 49.2736 154.075 48.8096 153.227C48.3616 152.363 48.1376 151.339 48.1376 150.155V142.355H51.4976V149.675C51.4976 150.731 51.7616 151.547 52.2896 152.123C52.8176 152.683 53.5376 152.963 54.4496 152.963C55.3776 152.963 56.1056 152.683 56.6336 152.123C57.1616 151.547 57.4256 150.731 57.4256 149.675V142.355H60.8096ZM69.2128 155.867C68.1248 155.867 67.1488 155.675 66.2848 155.291C65.4208 154.891 64.7328 154.355 64.2208 153.683C63.7248 153.011 63.4528 152.267 63.4048 151.451H66.7888C66.8528 151.963 67.1008 152.387 67.5328 152.723C67.9808 153.059 68.5328 153.227 69.1888 153.227C69.8288 153.227 70.3248 153.099 70.6768 152.843C71.0448 152.587 71.2288 152.259 71.2288 151.859C71.2288 151.427 71.0048 151.107 70.5568 150.899C70.1248 150.675 69.4288 150.435 68.4688 150.179C67.4768 149.939 66.6608 149.691 66.0208 149.435C65.3968 149.179 64.8528 148.787 64.3888 148.259C63.9408 147.731 63.7168 147.019 63.7168 146.123C63.7168 145.387 63.9248 144.715 64.3408 144.107C64.7728 143.499 65.3808 143.019 66.1648 142.667C66.9648 142.315 67.9008 142.139 68.9728 142.139C70.5568 142.139 71.8208 142.539 72.7648 143.339C73.7088 144.123 74.2288 145.187 74.3248 146.531H71.1088C71.0608 146.003 70.8368 145.587 70.4368 145.283C70.0528 144.963 69.5328 144.803 68.8768 144.803C68.2688 144.803 67.7968 144.915 67.4608 145.139C67.1408 145.363 66.9808 145.675 66.9808 146.075C66.9808 146.523 67.2048 146.867 67.6528 147.107C68.1008 147.331 68.7968 147.563 69.7408 147.803C70.7008 148.043 71.4928 148.291 72.1168 148.547C72.7408 148.803 73.2768 149.203 73.7248 149.747C74.1888 150.275 74.4288 150.979 74.4448 151.859C74.4448 152.627 74.2288 153.315 73.7968 153.923C73.3808 154.531 72.7728 155.011 71.9728 155.363C71.1888 155.699 70.2688 155.867 69.2128 155.867ZM84.6909 142.163C85.6989 142.163 86.5949 142.387 87.3789 142.835C88.1629 143.267 88.7709 143.915 89.2029 144.779C89.6509 145.627 89.8749 146.651 89.8749 147.851V155.651H86.5149V148.307C86.5149 147.251 86.2509 146.443 85.7229 145.883C85.1949 145.307 84.4749 145.019 83.5629 145.019C82.6349 145.019 81.8989 145.307 81.3549 145.883C80.8269 146.443 80.5629 147.251 80.5629 148.307V155.651H77.2029V137.891H80.5629V144.011C80.9949 143.435 81.5709 142.987 82.2909 142.667C83.0109 142.331 83.8109 142.163 84.6909 142.163ZM111.005 144.083C111.005 144.979 110.789 145.819 110.357 146.603C109.941 147.387 109.277 148.019 108.365 148.499C107.469 148.979 106.333 149.219 104.957 149.219H102.149V155.651H98.7888V138.899H104.957C106.253 138.899 107.357 139.123 108.269 139.571C109.181 140.019 109.861 140.635 110.309 141.419C110.773 142.203 111.005 143.091 111.005 144.083ZM104.813 146.507C105.741 146.507 106.429 146.299 106.877 145.883C107.325 145.451 107.549 144.851 107.549 144.083C107.549 142.451 106.637 141.635 104.813 141.635H102.149V146.507H104.813ZM115.094 140.771C114.502 140.771 114.006 140.587 113.606 140.219C113.222 139.835 113.03 139.363 113.03 138.803C113.03 138.243 113.222 137.779 113.606 137.411C114.006 137.027 114.502 136.835 115.094 136.835C115.686 136.835 116.174 137.027 116.558 137.411C116.958 137.779 117.158 138.243 117.158 138.803C117.158 139.363 116.958 139.835 116.558 140.219C116.174 140.587 115.686 140.771 115.094 140.771ZM116.75 142.355V155.651H113.39V142.355H116.75ZM127.438 142.163C129.022 142.163 130.302 142.667 131.278 143.675C132.254 144.667 132.742 146.059 132.742 147.851V155.651H129.382V148.307C129.382 147.251 129.118 146.443 128.59 145.883C128.062 145.307 127.342 145.019 126.43 145.019C125.502 145.019 124.766 145.307 124.222 145.883C123.694 146.443 123.43 147.251 123.43 148.307V155.651H120.07V142.355H123.43V144.011C123.878 143.435 124.446 142.987 125.134 142.667C125.838 142.331 126.606 142.163 127.438 142.163ZM141.025 155.867C139.937 155.867 138.961 155.675 138.097 155.291C137.233 154.891 136.545 154.355 136.033 153.683C135.537 153.011 135.265 152.267 135.217 151.451H138.601C138.665 151.963 138.913 152.387 139.345 152.723C139.793 153.059 140.345 153.227 141.001 153.227C141.641 153.227 142.137 153.099 142.489 152.843C142.857 152.587 143.041 152.259 143.041 151.859C143.041 151.427 142.817 151.107 142.369 150.899C141.937 150.675 141.241 150.435 140.281 150.179C139.289 149.939 138.473 149.691 137.833 149.435C137.209 149.179 136.665 148.787 136.201 148.259C135.753 147.731 135.529 147.019 135.529 146.123C135.529 145.387 135.737 144.715 136.153 144.107C136.585 143.499 137.193 143.019 137.977 142.667C138.777 142.315 139.713 142.139 140.785 142.139C142.369 142.139 143.633 142.539 144.577 143.339C145.521 144.123 146.041 145.187 146.137 146.531H142.921C142.873 146.003 142.649 145.587 142.249 145.283C141.865 144.963 141.345 144.803 140.689 144.803C140.081 144.803 139.609 144.915 139.273 145.139C138.953 145.363 138.793 145.675 138.793 146.075C138.793 146.523 139.017 146.867 139.465 147.107C139.913 147.331 140.609 147.563 141.553 147.803C142.513 148.043 143.305 148.291 143.929 148.547C144.553 148.803 145.089 149.203 145.537 149.747C146.001 150.275 146.241 150.979 146.257 151.859C146.257 152.627 146.041 153.315 145.609 153.923C145.193 154.531 144.585 155.011 143.785 155.363C143.001 155.699 142.081 155.867 141.025 155.867Z" fill="#212529"/>
<path d="M32.774 192.369C32.774 191.145 33.05 190.047 33.602 189.075C34.154 188.091 34.904 187.323 35.852 186.771C36.812 186.219 37.874 185.943 39.038 185.943C40.406 185.943 41.6 186.273 42.62 186.933C43.64 187.593 44.384 188.529 44.852 189.741H42.89C42.542 188.985 42.038 188.403 41.378 187.995C40.73 187.587 39.95 187.383 39.038 187.383C38.162 187.383 37.376 187.587 36.68 187.995C35.984 188.403 35.438 188.985 35.042 189.741C34.646 190.485 34.448 191.361 34.448 192.369C34.448 193.365 34.646 194.241 35.042 194.997C35.438 195.741 35.984 196.317 36.68 196.725C37.376 197.133 38.162 197.337 39.038 197.337C39.95 197.337 40.73 197.139 41.378 196.743C42.038 196.335 42.542 195.753 42.89 194.997H44.852C44.384 196.197 43.64 197.127 42.62 197.787C41.6 198.435 40.406 198.759 39.038 198.759C37.874 198.759 36.812 198.489 35.852 197.949C34.904 197.397 34.154 196.635 33.602 195.663C33.05 194.691 32.774 193.593 32.774 192.369ZM48.9283 190.389C49.2163 189.825 49.6243 189.387 50.1523 189.075C50.6923 188.763 51.3463 188.607 52.1143 188.607V190.299H51.6823C49.8463 190.299 48.9283 191.295 48.9283 193.287V198.651H47.2903V188.787H48.9283V190.389ZM63.0051 193.341C63.0051 193.653 62.9871 193.983 62.9511 194.331H55.0671C55.1271 195.303 55.4571 196.065 56.0571 196.617C56.6691 197.157 57.4071 197.427 58.2711 197.427C58.9791 197.427 59.5671 197.265 60.0351 196.941C60.5151 196.605 60.8511 196.161 61.0431 195.609H62.8071C62.5431 196.557 62.0151 197.331 61.2231 197.931C60.4311 198.519 59.4471 198.813 58.2711 198.813C57.3351 198.813 56.4951 198.603 55.7511 198.183C55.0191 197.763 54.4431 197.169 54.0231 196.401C53.6031 195.621 53.3931 194.721 53.3931 193.701C53.3931 192.681 53.5971 191.787 54.0051 191.019C54.4131 190.251 54.9831 189.663 55.7151 189.255C56.4591 188.835 57.3111 188.625 58.2711 188.625C59.2071 188.625 60.0351 188.829 60.7551 189.237C61.4751 189.645 62.0271 190.209 62.4111 190.929C62.8071 191.637 63.0051 192.441 63.0051 193.341ZM61.3131 192.999C61.3131 192.375 61.1751 191.841 60.8991 191.397C60.6231 190.941 60.2451 190.599 59.7651 190.371C59.2971 190.131 58.7751 190.011 58.1991 190.011C57.3711 190.011 56.6631 190.275 56.0751 190.803C55.4991 191.331 55.1691 192.063 55.0851 192.999H61.3131ZM64.5553 193.683C64.5553 192.675 64.7593 191.793 65.1673 191.037C65.5753 190.269 66.1333 189.675 66.8413 189.255C67.5613 188.835 68.3593 188.625 69.2353 188.625C70.0993 188.625 70.8493 188.811 71.4853 189.183C72.1213 189.555 72.5953 190.023 72.9073 190.587V188.787H74.5633V198.651H72.9073V196.815C72.5833 197.391 72.0973 197.871 71.4493 198.255C70.8133 198.627 70.0693 198.813 69.2173 198.813C68.3413 198.813 67.5493 198.597 66.8413 198.165C66.1333 197.733 65.5753 197.127 65.1673 196.347C64.7593 195.567 64.5553 194.679 64.5553 193.683ZM72.9073 193.701C72.9073 192.957 72.7573 192.309 72.4573 191.757C72.1573 191.205 71.7493 190.785 71.2333 190.497C70.7293 190.197 70.1713 190.047 69.5593 190.047C68.9473 190.047 68.3893 190.191 67.8853 190.479C67.3813 190.767 66.9793 191.187 66.6793 191.739C66.3793 192.291 66.2293 192.939 66.2293 193.683C66.2293 194.439 66.3793 195.099 66.6793 195.663C66.9793 196.215 67.3813 196.641 67.8853 196.941C68.3893 197.229 68.9473 197.373 69.5593 197.373C70.1713 197.373 70.7293 197.229 71.2333 196.941C71.7493 196.641 72.1573 196.215 72.4573 195.663C72.7573 195.099 72.9073 194.445 72.9073 193.701ZM79.3293 190.137V195.951C79.3293 196.431 79.4313 196.773 79.6353 196.977C79.8393 197.169 80.1933 197.265 80.6973 197.265H81.9033V198.651H80.4273C79.5153 198.651 78.8313 198.441 78.3753 198.021C77.9193 197.601 77.6913 196.911 77.6913 195.951V190.137H76.4133V188.787H77.6913V186.303H79.3293V188.787H81.9033V190.137H79.3293ZM92.888 193.341C92.888 193.653 92.87 193.983 92.834 194.331H84.95C85.01 195.303 85.34 196.065 85.94 196.617C86.552 197.157 87.29 197.427 88.154 197.427C88.862 197.427 89.45 197.265 89.918 196.941C90.398 196.605 90.734 196.161 90.926 195.609H92.69C92.426 196.557 91.898 197.331 91.106 197.931C90.314 198.519 89.33 198.813 88.154 198.813C87.218 198.813 86.378 198.603 85.634 198.183C84.902 197.763 84.326 197.169 83.906 196.401C83.486 195.621 83.276 194.721 83.276 193.701C83.276 192.681 83.48 191.787 83.888 191.019C84.296 190.251 84.866 189.663 85.598 189.255C86.342 188.835 87.194 188.625 88.154 188.625C89.09 188.625 89.918 188.829 90.638 189.237C91.358 189.645 91.91 190.209 92.294 190.929C92.69 191.637 92.888 192.441 92.888 193.341ZM91.196 192.999C91.196 192.375 91.058 191.841 90.782 191.397C90.506 190.941 90.128 190.599 89.648 190.371C89.18 190.131 88.658 190.011 88.082 190.011C87.254 190.011 86.546 190.275 85.958 190.803C85.382 191.331 85.052 192.063 84.968 192.999H91.196ZM101.847 190.137V195.951C101.847 196.431 101.949 196.773 102.153 196.977C102.357 197.169 102.711 197.265 103.215 197.265H104.421V198.651H102.945C102.033 198.651 101.349 198.441 100.893 198.021C100.437 197.601 100.209 196.911 100.209 195.951V190.137H98.9309V188.787H100.209V186.303H101.847V188.787H104.421V190.137H101.847ZM105.794 193.683C105.794 192.675 105.998 191.793 106.406 191.037C106.814 190.269 107.372 189.675 108.08 189.255C108.8 188.835 109.598 188.625 110.474 188.625C111.338 188.625 112.088 188.811 112.724 189.183C113.36 189.555 113.834 190.023 114.146 190.587V188.787H115.802V198.651H114.146V196.815C113.822 197.391 113.336 197.871 112.688 198.255C112.052 198.627 111.308 198.813 110.456 198.813C109.58 198.813 108.788 198.597 108.08 198.165C107.372 197.733 106.814 197.127 106.406 196.347C105.998 195.567 105.794 194.679 105.794 193.683ZM114.146 193.701C114.146 192.957 113.996 192.309 113.696 191.757C113.396 191.205 112.988 190.785 112.472 190.497C111.968 190.197 111.41 190.047 110.798 190.047C110.186 190.047 109.628 190.191 109.124 190.479C108.62 190.767 108.218 191.187 107.918 191.739C107.618 192.291 107.468 192.939 107.468 193.683C107.468 194.439 107.618 195.099 107.918 195.663C108.218 196.215 108.62 196.641 109.124 196.941C109.628 197.229 110.186 197.373 110.798 197.373C111.41 197.373 111.968 197.229 112.472 196.941C112.988 196.641 113.396 196.215 113.696 195.663C113.996 195.099 114.146 194.445 114.146 193.701ZM120.208 190.623C120.544 190.035 121.036 189.555 121.684 189.183C122.332 188.811 123.07 188.625 123.898 188.625C124.786 188.625 125.584 188.835 126.292 189.255C127 189.675 127.558 190.269 127.966 191.037C128.374 191.793 128.578 192.675 128.578 193.683C128.578 194.679 128.374 195.567 127.966 196.347C127.558 197.127 126.994 197.733 126.274 198.165C125.566 198.597 124.774 198.813 123.898 198.813C123.046 198.813 122.296 198.627 121.648 198.255C121.012 197.883 120.532 197.409 120.208 196.833V198.651H118.57V185.331H120.208V190.623ZM126.904 193.683C126.904 192.939 126.754 192.291 126.454 191.739C126.154 191.187 125.746 190.767 125.23 190.479C124.726 190.191 124.168 190.047 123.556 190.047C122.956 190.047 122.398 190.197 121.882 190.497C121.378 190.785 120.97 191.211 120.658 191.775C120.358 192.327 120.208 192.969 120.208 193.701C120.208 194.445 120.358 195.099 120.658 195.663C120.97 196.215 121.378 196.641 121.882 196.941C122.398 197.229 122.956 197.373 123.556 197.373C124.168 197.373 124.726 197.229 125.23 196.941C125.746 196.641 126.154 196.215 126.454 195.663C126.754 195.099 126.904 194.439 126.904 193.683ZM134.226 198.813C133.47 198.813 132.792 198.687 132.192 198.435C131.592 198.171 131.118 197.811 130.77 197.355C130.422 196.887 130.23 196.353 130.194 195.753H131.886C131.934 196.245 132.162 196.647 132.57 196.959C132.99 197.271 133.536 197.427 134.208 197.427C134.832 197.427 135.324 197.289 135.684 197.013C136.044 196.737 136.224 196.389 136.224 195.969C136.224 195.537 136.032 195.219 135.648 195.015C135.264 194.799 134.67 194.589 133.866 194.385C133.134 194.193 132.534 194.001 132.066 193.809C131.61 193.605 131.214 193.311 130.878 192.927C130.554 192.531 130.392 192.015 130.392 191.379C130.392 190.875 130.542 190.413 130.842 189.993C131.142 189.573 131.568 189.243 132.12 189.003C132.672 188.751 133.302 188.625 134.01 188.625C135.102 188.625 135.984 188.901 136.656 189.453C137.328 190.005 137.688 190.761 137.736 191.721H136.098C136.062 191.205 135.852 190.791 135.468 190.479C135.096 190.167 134.592 190.011 133.956 190.011C133.368 190.011 132.9 190.137 132.552 190.389C132.204 190.641 132.03 190.971 132.03 191.379C132.03 191.703 132.132 191.973 132.336 192.189C132.552 192.393 132.816 192.561 133.128 192.693C133.452 192.813 133.896 192.951 134.46 193.107C135.168 193.299 135.744 193.491 136.188 193.683C136.632 193.863 137.01 194.139 137.322 194.511C137.646 194.883 137.814 195.369 137.826 195.969C137.826 196.509 137.676 196.995 137.376 197.427C137.076 197.859 136.65 198.201 136.098 198.453C135.558 198.693 134.934 198.813 134.226 198.813ZM146.575 190.623C146.911 190.035 147.403 189.555 148.051 189.183C148.699 188.811 149.437 188.625 150.265 188.625C151.153 188.625 151.951 188.835 152.659 189.255C153.367 189.675 153.925 190.269 154.333 191.037C154.741 191.793 154.945 192.675 154.945 193.683C154.945 194.679 154.741 195.567 154.333 196.347C153.925 197.127 153.361 197.733 152.641 198.165C151.933 198.597 151.141 198.813 150.265 198.813C149.413 198.813 148.663 198.627 148.015 198.255C147.379 197.883 146.899 197.409 146.575 196.833V198.651H144.937V185.331H146.575V190.623ZM153.271 193.683C153.271 192.939 153.121 192.291 152.821 191.739C152.521 191.187 152.113 190.767 151.597 190.479C151.093 190.191 150.535 190.047 149.923 190.047C149.323 190.047 148.765 190.197 148.249 190.497C147.745 190.785 147.337 191.211 147.025 191.775C146.725 192.327 146.575 192.969 146.575 193.701C146.575 194.445 146.725 195.099 147.025 195.663C147.337 196.215 147.745 196.641 148.249 196.941C148.765 197.229 149.323 197.373 149.923 197.373C150.535 197.373 151.093 197.229 151.597 196.941C152.113 196.641 152.521 196.215 152.821 195.663C153.121 195.099 153.271 194.439 153.271 193.683ZM165.597 188.787L159.657 203.295H157.965L159.909 198.543L155.931 188.787H157.749L160.845 196.779L163.905 188.787H165.597ZM171.43 193.701C171.43 192.681 171.634 191.793 172.042 191.037C172.45 190.269 173.014 189.675 173.734 189.255C174.466 188.835 175.3 188.625 176.236 188.625C177.448 188.625 178.444 188.919 179.224 189.507C180.016 190.095 180.538 190.911 180.79 191.955H179.026C178.858 191.355 178.528 190.881 178.036 190.533C177.556 190.185 176.956 190.011 176.236 190.011C175.3 190.011 174.544 190.335 173.968 190.983C173.392 191.619 173.104 192.525 173.104 193.701C173.104 194.889 173.392 195.807 173.968 196.455C174.544 197.103 175.3 197.427 176.236 197.427C176.956 197.427 177.556 197.259 178.036 196.923C178.516 196.587 178.846 196.107 179.026 195.483H180.79C180.526 196.491 179.998 197.301 179.206 197.913C178.414 198.513 177.424 198.813 176.236 198.813C175.3 198.813 174.466 198.603 173.734 198.183C173.014 197.763 172.45 197.169 172.042 196.401C171.634 195.633 171.43 194.733 171.43 193.701ZM184.614 185.331V198.651H182.976V185.331H184.614ZM188.252 187.185C187.94 187.185 187.676 187.077 187.46 186.861C187.244 186.645 187.136 186.381 187.136 186.069C187.136 185.757 187.244 185.493 187.46 185.277C187.676 185.061 187.94 184.953 188.252 184.953C188.552 184.953 188.804 185.061 189.008 185.277C189.224 185.493 189.332 185.757 189.332 186.069C189.332 186.381 189.224 186.645 189.008 186.861C188.804 187.077 188.552 187.185 188.252 187.185ZM189.044 188.787V198.651H187.406V188.787H189.044ZM191.223 193.701C191.223 192.681 191.427 191.793 191.835 191.037C192.243 190.269 192.807 189.675 193.527 189.255C194.259 188.835 195.093 188.625 196.029 188.625C197.241 188.625 198.237 188.919 199.017 189.507C199.809 190.095 200.331 190.911 200.583 191.955H198.819C198.651 191.355 198.321 190.881 197.829 190.533C197.349 190.185 196.749 190.011 196.029 190.011C195.093 190.011 194.337 190.335 193.761 190.983C193.185 191.619 192.897 192.525 192.897 193.701C192.897 194.889 193.185 195.807 193.761 196.455C194.337 197.103 195.093 197.427 196.029 197.427C196.749 197.427 197.349 197.259 197.829 196.923C198.309 196.587 198.639 196.107 198.819 195.483H200.583C200.319 196.491 199.791 197.301 198.999 197.913C198.207 198.513 197.217 198.813 196.029 198.813C195.093 198.813 194.259 198.603 193.527 198.183C192.807 197.763 192.243 197.169 191.835 196.401C191.427 195.633 191.223 194.733 191.223 193.701ZM208.277 198.651L204.407 194.295V198.651H202.769V185.331H204.407V193.161L208.205 188.787H210.491L205.847 193.701L210.509 198.651H208.277ZM212.878 187.185C212.566 187.185 212.302 187.077 212.086 186.861C211.87 186.645 211.762 186.381 211.762 186.069C211.762 185.757 211.87 185.493 212.086 185.277C212.302 185.061 212.566 184.953 212.878 184.953C213.178 184.953 213.43 185.061 213.634 185.277C213.85 185.493 213.958 185.757 213.958 186.069C213.958 186.381 213.85 186.645 213.634 186.861C213.43 187.077 213.178 187.185 212.878 187.185ZM213.67 188.787V198.651H212.032V188.787H213.67ZM221.268 188.607C222.468 188.607 223.44 188.973 224.184 189.705C224.928 190.425 225.3 191.469 225.3 192.837V198.651H223.68V193.071C223.68 192.087 223.434 191.337 222.942 190.821C222.45 190.293 221.778 190.029 220.926 190.029C220.062 190.029 219.372 190.299 218.856 190.839C218.352 191.379 218.1 192.165 218.1 193.197V198.651H216.462V188.787H218.1V190.191C218.424 189.687 218.862 189.297 219.414 189.021C219.978 188.745 220.596 188.607 221.268 188.607ZM232.044 188.625C232.896 188.625 233.64 188.811 234.276 189.183C234.924 189.555 235.404 190.023 235.716 190.587V188.787H237.372V198.867C237.372 199.767 237.18 200.565 236.796 201.261C236.412 201.969 235.86 202.521 235.14 202.917C234.432 203.313 233.604 203.511 232.656 203.511C231.36 203.511 230.28 203.205 229.416 202.593C228.552 201.981 228.042 201.147 227.886 200.091H229.506C229.686 200.691 230.058 201.171 230.622 201.531C231.186 201.903 231.864 202.089 232.656 202.089C233.556 202.089 234.288 201.807 234.852 201.243C235.428 200.679 235.716 199.887 235.716 198.867V196.797C235.392 197.373 234.912 197.853 234.276 198.237C233.64 198.621 232.896 198.813 232.044 198.813C231.168 198.813 230.37 198.597 229.65 198.165C228.942 197.733 228.384 197.127 227.976 196.347C227.568 195.567 227.364 194.679 227.364 193.683C227.364 192.675 227.568 191.793 227.976 191.037C228.384 190.269 228.942 189.675 229.65 189.255C230.37 188.835 231.168 188.625 232.044 188.625ZM235.716 193.701C235.716 192.957 235.566 192.309 235.266 191.757C234.966 191.205 234.558 190.785 234.042 190.497C233.538 190.197 232.98 190.047 232.368 190.047C231.756 190.047 231.198 190.191 230.694 190.479C230.19 190.767 229.788 191.187 229.488 191.739C229.188 192.291 229.038 192.939 229.038 193.683C229.038 194.439 229.188 195.099 229.488 195.663C229.788 196.215 230.19 196.641 230.694 196.941C231.198 197.229 231.756 197.373 232.368 197.373C232.98 197.373 233.538 197.229 234.042 196.941C234.558 196.641 234.966 196.215 235.266 195.663C235.566 195.099 235.716 194.445 235.716 193.701ZM249.241 198.813C248.317 198.813 247.477 198.603 246.721 198.183C245.977 197.763 245.389 197.169 244.957 196.401C244.537 195.621 244.327 194.721 244.327 193.701C244.327 192.693 244.543 191.805 244.975 191.037C245.419 190.257 246.019 189.663 246.775 189.255C247.531 188.835 248.377 188.625 249.313 188.625C250.249 188.625 251.095 188.835 251.851 189.255C252.607 189.663 253.201 190.251 253.633 191.019C254.077 191.787 254.299 192.681 254.299 193.701C254.299 194.721 254.071 195.621 253.615 196.401C253.171 197.169 252.565 197.763 251.797 198.183C251.029 198.603 250.177 198.813 249.241 198.813ZM249.241 197.373C249.829 197.373 250.381 197.235 250.897 196.959C251.413 196.683 251.827 196.269 252.139 195.717C252.463 195.165 252.625 194.493 252.625 193.701C252.625 192.909 252.469 192.237 252.157 191.685C251.845 191.133 251.437 190.725 250.933 190.461C250.429 190.185 249.883 190.047 249.295 190.047C248.695 190.047 248.143 190.185 247.639 190.461C247.147 190.725 246.751 191.133 246.451 191.685C246.151 192.237 246.001 192.909 246.001 193.701C246.001 194.505 246.145 195.183 246.433 195.735C246.733 196.287 247.129 196.701 247.621 196.977C248.113 197.241 248.653 197.373 249.241 197.373ZM261.258 188.607C262.458 188.607 263.43 188.973 264.174 189.705C264.918 190.425 265.29 191.469 265.29 192.837V198.651H263.67V193.071C263.67 192.087 263.424 191.337 262.932 190.821C262.44 190.293 261.768 190.029 260.916 190.029C260.052 190.029 259.362 190.299 258.846 190.839C258.342 191.379 258.09 192.165 258.09 193.197V198.651H256.452V188.787H258.09V190.191C258.414 189.687 258.852 189.297 259.404 189.021C259.968 188.745 260.586 188.607 261.258 188.607ZM274.403 190.605C274.727 190.041 275.207 189.573 275.843 189.201C276.491 188.817 277.241 188.625 278.093 188.625C278.969 188.625 279.761 188.835 280.469 189.255C281.189 189.675 281.753 190.269 282.161 191.037C282.569 191.793 282.773 192.675 282.773 193.683C282.773 194.679 282.569 195.567 282.161 196.347C281.753 197.127 281.189 197.733 280.469 198.165C279.761 198.597 278.969 198.813 278.093 198.813C277.253 198.813 276.509 198.627 275.861 198.255C275.225 197.871 274.739 197.397 274.403 196.833V203.331H272.765V188.787H274.403V190.605ZM281.099 193.683C281.099 192.939 280.949 192.291 280.649 191.739C280.349 191.187 279.941 190.767 279.425 190.479C278.921 190.191 278.363 190.047 277.751 190.047C277.151 190.047 276.593 190.197 276.077 190.497C275.573 190.785 275.165 191.211 274.853 191.775C274.553 192.327 274.403 192.969 274.403 193.701C274.403 194.445 274.553 195.099 274.853 195.663C275.165 196.215 275.573 196.641 276.077 196.941C276.593 197.229 277.151 197.373 277.751 197.373C278.363 197.373 278.921 197.229 279.425 196.941C279.941 196.641 280.349 196.215 280.649 195.663C280.949 195.099 281.099 194.439 281.099 193.683ZM293.677 188.787V198.651H292.039V197.193C291.727 197.697 291.289 198.093 290.725 198.381C290.173 198.657 289.561 198.795 288.889 198.795C288.121 198.795 287.431 198.639 286.819 198.327C286.207 198.003 285.721 197.523 285.361 196.887C285.013 196.251 284.839 195.477 284.839 194.565V188.787H286.459V194.349C286.459 195.321 286.705 196.071 287.197 196.599C287.689 197.115 288.361 197.373 289.213 197.373C290.089 197.373 290.779 197.103 291.283 196.563C291.787 196.023 292.039 195.237 292.039 194.205V188.787H293.677ZM299.935 198.813C299.179 198.813 298.501 198.687 297.901 198.435C297.301 198.171 296.827 197.811 296.479 197.355C296.131 196.887 295.939 196.353 295.903 195.753H297.595C297.643 196.245 297.871 196.647 298.279 196.959C298.699 197.271 299.245 197.427 299.917 197.427C300.541 197.427 301.033 197.289 301.393 197.013C301.753 196.737 301.933 196.389 301.933 195.969C301.933 195.537 301.741 195.219 301.357 195.015C300.973 194.799 300.379 194.589 299.575 194.385C298.843 194.193 298.243 194.001 297.775 193.809C297.319 193.605 296.923 193.311 296.587 192.927C296.263 192.531 296.101 192.015 296.101 191.379C296.101 190.875 296.251 190.413 296.551 189.993C296.851 189.573 297.277 189.243 297.829 189.003C298.381 188.751 299.011 188.625 299.719 188.625C300.811 188.625 301.693 188.901 302.365 189.453C303.037 190.005 303.397 190.761 303.445 191.721H301.807C301.771 191.205 301.561 190.791 301.177 190.479C300.805 190.167 300.301 190.011 299.665 190.011C299.077 190.011 298.609 190.137 298.261 190.389C297.913 190.641 297.739 190.971 297.739 191.379C297.739 191.703 297.841 191.973 298.045 192.189C298.261 192.393 298.525 192.561 298.837 192.693C299.161 192.813 299.605 192.951 300.169 193.107C300.877 193.299 301.453 193.491 301.897 193.683C302.341 193.863 302.719 194.139 303.031 194.511C303.355 194.883 303.523 195.369 303.535 195.969C303.535 196.509 303.385 196.995 303.085 197.427C302.785 197.859 302.359 198.201 301.807 198.453C301.267 198.693 300.643 198.813 299.935 198.813ZM310.743 188.607C311.487 188.607 312.159 188.769 312.759 189.093C313.359 189.405 313.827 189.879 314.163 190.515C314.511 191.151 314.685 191.925 314.685 192.837V198.651H313.065V193.071C313.065 192.087 312.819 191.337 312.327 190.821C311.835 190.293 311.163 190.029 310.311 190.029C309.447 190.029 308.757 190.299 308.241 190.839C307.737 191.379 307.485 192.165 307.485 193.197V198.651H305.847V185.331H307.485V190.191C307.809 189.687 308.253 189.297 308.817 189.021C309.393 188.745 310.035 188.607 310.743 188.607ZM323.797 190.605C324.121 190.041 324.601 189.573 325.237 189.201C325.885 188.817 326.635 188.625 327.487 188.625C328.363 188.625 329.155 188.835 329.863 189.255C330.583 189.675 331.147 190.269 331.555 191.037C331.963 191.793 332.167 192.675 332.167 193.683C332.167 194.679 331.963 195.567 331.555 196.347C331.147 197.127 330.583 197.733 329.863 198.165C329.155 198.597 328.363 198.813 327.487 198.813C326.647 198.813 325.903 198.627 325.255 198.255C324.619 197.871 324.133 197.397 323.797 196.833V203.331H322.159V188.787H323.797V190.605ZM330.493 193.683C330.493 192.939 330.343 192.291 330.043 191.739C329.743 191.187 329.335 190.767 328.819 190.479C328.315 190.191 327.757 190.047 327.145 190.047C326.545 190.047 325.987 190.197 325.471 190.497C324.967 190.785 324.559 191.211 324.247 191.775C323.947 192.327 323.797 192.969 323.797 193.701C323.797 194.445 323.947 195.099 324.247 195.663C324.559 196.215 324.967 196.641 325.471 196.941C325.987 197.229 326.545 197.373 327.145 197.373C327.757 197.373 328.315 197.229 328.819 196.941C329.335 196.641 329.743 196.215 330.043 195.663C330.343 195.099 330.493 194.439 330.493 193.683ZM335.17 187.185C334.858 187.185 334.594 187.077 334.378 186.861C334.162 186.645 334.054 186.381 334.054 186.069C334.054 185.757 334.162 185.493 334.378 185.277C334.594 185.061 334.858 184.953 335.17 184.953C335.47 184.953 335.722 185.061 335.926 185.277C336.142 185.493 336.25 185.757 336.25 186.069C336.25 186.381 336.142 186.645 335.926 186.861C335.722 187.077 335.47 187.185 335.17 187.185ZM335.962 188.787V198.651H334.324V188.787H335.962ZM343.559 188.607C344.759 188.607 345.731 188.973 346.475 189.705C347.219 190.425 347.591 191.469 347.591 192.837V198.651H345.971V193.071C345.971 192.087 345.725 191.337 345.233 190.821C344.741 190.293 344.069 190.029 343.217 190.029C342.353 190.029 341.663 190.299 341.147 190.839C340.643 191.379 340.391 192.165 340.391 193.197V198.651H338.753V188.787H340.391V190.191C340.715 189.687 341.153 189.297 341.705 189.021C342.269 188.745 342.887 188.607 343.559 188.607ZM353.759 198.813C353.003 198.813 352.325 198.687 351.725 198.435C351.125 198.171 350.651 197.811 350.303 197.355C349.955 196.887 349.763 196.353 349.727 195.753H351.419C351.467 196.245 351.695 196.647 352.103 196.959C352.523 197.271 353.069 197.427 353.741 197.427C354.365 197.427 354.857 197.289 355.217 197.013C355.577 196.737 355.757 196.389 355.757 195.969C355.757 195.537 355.565 195.219 355.181 195.015C354.797 194.799 354.203 194.589 353.399 194.385C352.667 194.193 352.067 194.001 351.599 193.809C351.143 193.605 350.747 193.311 350.411 192.927C350.087 192.531 349.925 192.015 349.925 191.379C349.925 190.875 350.075 190.413 350.375 189.993C350.675 189.573 351.101 189.243 351.653 189.003C352.205 188.751 352.835 188.625 353.543 188.625C354.635 188.625 355.517 188.901 356.189 189.453C356.861 190.005 357.221 190.761 357.269 191.721H355.631C355.595 191.205 355.385 190.791 355.001 190.479C354.629 190.167 354.125 190.011 353.489 190.011C352.901 190.011 352.433 190.137 352.085 190.389C351.737 190.641 351.563 190.971 351.563 191.379C351.563 191.703 351.665 191.973 351.869 192.189C352.085 192.393 352.349 192.561 352.661 192.693C352.985 192.813 353.429 192.951 353.993 193.107C354.701 193.299 355.277 193.491 355.721 193.683C356.165 193.863 356.543 194.139 356.855 194.511C357.179 194.883 357.347 195.369 357.359 195.969C357.359 196.509 357.209 196.995 356.909 197.427C356.609 197.859 356.183 198.201 355.631 198.453C355.091 198.693 354.467 198.813 353.759 198.813ZM365.316 187.185C365.004 187.185 364.74 187.077 364.524 186.861C364.308 186.645 364.2 186.381 364.2 186.069C364.2 185.757 364.308 185.493 364.524 185.277C364.74 185.061 365.004 184.953 365.316 184.953C365.616 184.953 365.868 185.061 366.072 185.277C366.288 185.493 366.396 185.757 366.396 186.069C366.396 186.381 366.288 186.645 366.072 186.861C365.868 187.077 365.616 187.185 365.316 187.185ZM366.108 188.787V198.651H364.47V188.787H366.108ZM368.288 193.701C368.288 192.681 368.492 191.793 368.9 191.037C369.308 190.269 369.872 189.675 370.592 189.255C371.324 188.835 372.158 188.625 373.094 188.625C374.306 188.625 375.302 188.919 376.082 189.507C376.874 190.095 377.396 190.911 377.648 191.955H375.884C375.716 191.355 375.386 190.881 374.894 190.533C374.414 190.185 373.814 190.011 373.094 190.011C372.158 190.011 371.402 190.335 370.826 190.983C370.25 191.619 369.962 192.525 369.962 193.701C369.962 194.889 370.25 195.807 370.826 196.455C371.402 197.103 372.158 197.427 373.094 197.427C373.814 197.427 374.414 197.259 374.894 196.923C375.374 196.587 375.704 196.107 375.884 195.483H377.648C377.384 196.491 376.856 197.301 376.064 197.913C375.272 198.513 374.282 198.813 373.094 198.813C372.158 198.813 371.324 198.603 370.592 198.183C369.872 197.763 369.308 197.169 368.9 196.401C368.492 195.633 368.288 194.733 368.288 193.701ZM384.135 198.813C383.211 198.813 382.371 198.603 381.615 198.183C380.871 197.763 380.283 197.169 379.851 196.401C379.431 195.621 379.221 194.721 379.221 193.701C379.221 192.693 379.437 191.805 379.869 191.037C380.313 190.257 380.913 189.663 381.669 189.255C382.425 188.835 383.271 188.625 384.207 188.625C385.143 188.625 385.989 188.835 386.745 189.255C387.501 189.663 388.095 190.251 388.527 191.019C388.971 191.787 389.193 192.681 389.193 193.701C389.193 194.721 388.965 195.621 388.509 196.401C388.065 197.169 387.459 197.763 386.691 198.183C385.923 198.603 385.071 198.813 384.135 198.813ZM384.135 197.373C384.723 197.373 385.275 197.235 385.791 196.959C386.307 196.683 386.721 196.269 387.033 195.717C387.357 195.165 387.519 194.493 387.519 193.701C387.519 192.909 387.363 192.237 387.051 191.685C386.739 191.133 386.331 190.725 385.827 190.461C385.323 190.185 384.777 190.047 384.189 190.047C383.589 190.047 383.037 190.185 382.533 190.461C382.041 190.725 381.645 191.133 381.345 191.685C381.045 192.237 380.895 192.909 380.895 193.701C380.895 194.505 381.039 195.183 381.327 195.735C381.627 196.287 382.023 196.701 382.515 196.977C383.007 197.241 383.547 197.373 384.135 197.373ZM396.153 188.607C397.353 188.607 398.325 188.973 399.069 189.705C399.813 190.425 400.185 191.469 400.185 192.837V198.651H398.565V193.071C398.565 192.087 398.319 191.337 397.827 190.821C397.335 190.293 396.663 190.029 395.811 190.029C394.947 190.029 394.257 190.299 393.741 190.839C393.237 191.379 392.985 192.165 392.985 193.197V198.651H391.347V188.787H392.985V190.191C393.309 189.687 393.747 189.297 394.299 189.021C394.863 188.745 395.481 188.607 396.153 188.607ZM406.353 198.813C405.597 198.813 404.919 198.687 404.319 198.435C403.719 198.171 403.245 197.811 402.897 197.355C402.549 196.887 402.357 196.353 402.321 195.753H404.013C404.061 196.245 404.289 196.647 404.697 196.959C405.117 197.271 405.663 197.427 406.335 197.427C406.959 197.427 407.451 197.289 407.811 197.013C408.171 196.737 408.351 196.389 408.351 195.969C408.351 195.537 408.159 195.219 407.775 195.015C407.391 194.799 406.797 194.589 405.993 194.385C405.261 194.193 404.661 194.001 404.193 193.809C403.737 193.605 403.341 193.311 403.005 192.927C402.681 192.531 402.519 192.015 402.519 191.379C402.519 190.875 402.669 190.413 402.969 189.993C403.269 189.573 403.695 189.243 404.247 189.003C404.799 188.751 405.429 188.625 406.137 188.625C407.229 188.625 408.111 188.901 408.783 189.453C409.455 190.005 409.815 190.761 409.863 191.721H408.225C408.189 191.205 407.979 190.791 407.595 190.479C407.223 190.167 406.719 190.011 406.083 190.011C405.495 190.011 405.027 190.137 404.679 190.389C404.331 190.641 404.157 190.971 404.157 191.379C404.157 191.703 404.259 191.973 404.463 192.189C404.679 192.393 404.943 192.561 405.255 192.693C405.579 192.813 406.023 192.951 406.587 193.107C407.295 193.299 407.871 193.491 408.315 193.683C408.759 193.863 409.137 194.139 409.449 194.511C409.773 194.883 409.941 195.369 409.953 195.969C409.953 196.509 409.803 196.995 409.503 197.427C409.203 197.859 408.777 198.201 408.225 198.453C407.685 198.693 407.061 198.813 406.353 198.813ZM421.078 190.137H419.008V198.651H417.37V190.137H416.092V188.787H417.37V188.085C417.37 186.981 417.652 186.177 418.216 185.673C418.792 185.157 419.71 184.899 420.97 184.899V186.267C420.25 186.267 419.74 186.411 419.44 186.699C419.152 186.975 419.008 187.437 419.008 188.085V188.787H421.078V190.137ZM427.29 198.813C426.366 198.813 425.526 198.603 424.77 198.183C424.026 197.763 423.438 197.169 423.006 196.401C422.586 195.621 422.376 194.721 422.376 193.701C422.376 192.693 422.592 191.805 423.024 191.037C423.468 190.257 424.068 189.663 424.824 189.255C425.58 188.835 426.426 188.625 427.362 188.625C428.298 188.625 429.144 188.835 429.9 189.255C430.656 189.663 431.25 190.251 431.682 191.019C432.126 191.787 432.348 192.681 432.348 193.701C432.348 194.721 432.12 195.621 431.664 196.401C431.22 197.169 430.614 197.763 429.846 198.183C429.078 198.603 428.226 198.813 427.29 198.813ZM427.29 197.373C427.878 197.373 428.43 197.235 428.946 196.959C429.462 196.683 429.876 196.269 430.188 195.717C430.512 195.165 430.674 194.493 430.674 193.701C430.674 192.909 430.518 192.237 430.206 191.685C429.894 191.133 429.486 190.725 428.982 190.461C428.478 190.185 427.932 190.047 427.344 190.047C426.744 190.047 426.192 190.185 425.688 190.461C425.196 190.725 424.8 191.133 424.5 191.685C424.2 192.237 424.05 192.909 424.05 193.701C424.05 194.505 424.194 195.183 424.482 195.735C424.782 196.287 425.178 196.701 425.67 196.977C426.162 197.241 426.702 197.373 427.29 197.373ZM436.139 190.389C436.427 189.825 436.835 189.387 437.363 189.075C437.903 188.763 438.557 188.607 439.325 188.607V190.299H438.893C437.057 190.299 436.139 191.295 436.139 193.287V198.651H434.501V188.787H436.139V190.389ZM454.511 188.787L448.571 203.295H446.879L448.823 198.543L444.845 188.787H446.663L449.759 196.779L452.819 188.787H454.511ZM460.459 198.813C459.535 198.813 458.695 198.603 457.939 198.183C457.195 197.763 456.607 197.169 456.175 196.401C455.755 195.621 455.545 194.721 455.545 193.701C455.545 192.693 455.761 191.805 456.193 191.037C456.637 190.257 457.237 189.663 457.993 189.255C458.749 188.835 459.595 188.625 460.531 188.625C461.467 188.625 462.313 188.835 463.069 189.255C463.825 189.663 464.419 190.251 464.851 191.019C465.295 191.787 465.517 192.681 465.517 193.701C465.517 194.721 465.289 195.621 464.833 196.401C464.389 197.169 463.783 197.763 463.015 198.183C462.247 198.603 461.395 198.813 460.459 198.813ZM460.459 197.373C461.047 197.373 461.599 197.235 462.115 196.959C462.631 196.683 463.045 196.269 463.357 195.717C463.681 195.165 463.843 194.493 463.843 193.701C463.843 192.909 463.687 192.237 463.375 191.685C463.063 191.133 462.655 190.725 462.151 190.461C461.647 190.185 461.101 190.047 460.513 190.047C459.913 190.047 459.361 190.185 458.857 190.461C458.365 190.725 457.969 191.133 457.669 191.685C457.369 192.237 457.219 192.909 457.219 193.701C457.219 194.505 457.363 195.183 457.651 195.735C457.951 196.287 458.347 196.701 458.839 196.977C459.331 197.241 459.871 197.373 460.459 197.373ZM476.419 188.787V198.651H474.781V197.193C474.469 197.697 474.031 198.093 473.467 198.381C472.915 198.657 472.303 198.795 471.631 198.795C470.863 198.795 470.173 198.639 469.561 198.327C468.949 198.003 468.463 197.523 468.103 196.887C467.755 196.251 467.581 195.477 467.581 194.565V188.787H469.201V194.349C469.201 195.321 469.447 196.071 469.939 196.599C470.431 197.115 471.103 197.373 471.955 197.373C472.831 197.373 473.521 197.103 474.025 196.563C474.529 196.023 474.781 195.237 474.781 194.205V188.787H476.419ZM485.982 190.137V195.951C485.982 196.431 486.084 196.773 486.288 196.977C486.492 197.169 486.846 197.265 487.35 197.265H488.556V198.651H487.08C486.168 198.651 485.484 198.441 485.028 198.021C484.572 197.601 484.344 196.911 484.344 195.951V190.137H483.066V188.787H484.344V186.303H485.982V188.787H488.556V190.137H485.982ZM494.842 198.813C493.918 198.813 493.078 198.603 492.322 198.183C491.578 197.763 490.99 197.169 490.558 196.401C490.138 195.621 489.928 194.721 489.928 193.701C489.928 192.693 490.144 191.805 490.576 191.037C491.02 190.257 491.62 189.663 492.376 189.255C493.132 188.835 493.978 188.625 494.914 188.625C495.85 188.625 496.696 188.835 497.452 189.255C498.208 189.663 498.802 190.251 499.234 191.019C499.678 191.787 499.9 192.681 499.9 193.701C499.9 194.721 499.672 195.621 499.216 196.401C498.772 197.169 498.166 197.763 497.398 198.183C496.63 198.603 495.778 198.813 494.842 198.813ZM494.842 197.373C495.43 197.373 495.982 197.235 496.498 196.959C497.014 196.683 497.428 196.269 497.74 195.717C498.064 195.165 498.226 194.493 498.226 193.701C498.226 192.909 498.07 192.237 497.758 191.685C497.446 191.133 497.038 190.725 496.534 190.461C496.03 190.185 495.484 190.047 494.896 190.047C494.296 190.047 493.744 190.185 493.24 190.461C492.748 190.725 492.352 191.133 492.052 191.685C491.752 192.237 491.602 192.909 491.602 193.701C491.602 194.505 491.746 195.183 492.034 195.735C492.334 196.287 492.73 196.701 493.222 196.977C493.714 197.241 494.254 197.373 494.842 197.373ZM510.867 190.137H508.797V198.651H507.159V190.137H505.881V188.787H507.159V188.085C507.159 186.981 507.441 186.177 508.005 185.673C508.581 185.157 509.499 184.899 510.759 184.899V186.267C510.039 186.267 509.529 186.411 509.229 186.699C508.941 186.975 508.797 187.437 508.797 188.085V188.787H510.867V190.137ZM517.079 198.813C516.155 198.813 515.315 198.603 514.559 198.183C513.815 197.763 513.227 197.169 512.795 196.401C512.375 195.621 512.165 194.721 512.165 193.701C512.165 192.693 512.381 191.805 512.813 191.037C513.257 190.257 513.857 189.663 514.613 189.255C515.369 188.835 516.215 188.625 517.151 188.625C518.087 188.625 518.933 188.835 519.689 189.255C520.445 189.663 521.039 190.251 521.471 191.019C521.915 191.787 522.137 192.681 522.137 193.701C522.137 194.721 521.909 195.621 521.453 196.401C521.009 197.169 520.403 197.763 519.635 198.183C518.867 198.603 518.015 198.813 517.079 198.813ZM517.079 197.373C517.667 197.373 518.219 197.235 518.735 196.959C519.251 196.683 519.665 196.269 519.977 195.717C520.301 195.165 520.463 194.493 520.463 193.701C520.463 192.909 520.307 192.237 519.995 191.685C519.683 191.133 519.275 190.725 518.771 190.461C518.267 190.185 517.721 190.047 517.133 190.047C516.533 190.047 515.981 190.185 515.477 190.461C514.985 190.725 514.589 191.133 514.289 191.685C513.989 192.237 513.839 192.909 513.839 193.701C513.839 194.505 513.983 195.183 514.271 195.735C514.571 196.287 514.967 196.701 515.459 196.977C515.951 197.241 516.491 197.373 517.079 197.373ZM523.678 193.701C523.678 192.681 523.882 191.793 524.29 191.037C524.698 190.269 525.262 189.675 525.982 189.255C526.714 188.835 527.548 188.625 528.484 188.625C529.696 188.625 530.692 188.919 531.472 189.507C532.264 190.095 532.786 190.911 533.038 191.955H531.274C531.106 191.355 530.776 190.881 530.284 190.533C529.804 190.185 529.204 190.011 528.484 190.011C527.548 190.011 526.792 190.335 526.216 190.983C525.64 191.619 525.352 192.525 525.352 193.701C525.352 194.889 525.64 195.807 526.216 196.455C526.792 197.103 527.548 197.427 528.484 197.427C529.204 197.427 529.804 197.259 530.284 196.923C530.764 196.587 531.094 196.107 531.274 195.483H533.038C532.774 196.491 532.246 197.301 531.454 197.913C530.662 198.513 529.672 198.813 528.484 198.813C527.548 198.813 526.714 198.603 525.982 198.183C525.262 197.763 524.698 197.169 524.29 196.401C523.882 195.633 523.678 194.733 523.678 193.701ZM543.972 188.787V198.651H542.334V197.193C542.022 197.697 541.584 198.093 541.02 198.381C540.468 198.657 539.856 198.795 539.184 198.795C538.416 198.795 537.726 198.639 537.114 198.327C536.502 198.003 536.016 197.523 535.656 196.887C535.308 196.251 535.134 195.477 535.134 194.565V188.787H536.754V194.349C536.754 195.321 537 196.071 537.492 196.599C537.984 197.115 538.656 197.373 539.508 197.373C540.384 197.373 541.074 197.103 541.578 196.563C542.082 196.023 542.334 195.237 542.334 194.205V188.787H543.972ZM550.23 198.813C549.474 198.813 548.796 198.687 548.196 198.435C547.596 198.171 547.122 197.811 546.774 197.355C546.426 196.887 546.234 196.353 546.198 195.753H547.89C547.938 196.245 548.166 196.647 548.574 196.959C548.994 197.271 549.54 197.427 550.212 197.427C550.836 197.427 551.328 197.289 551.688 197.013C552.048 196.737 552.228 196.389 552.228 195.969C552.228 195.537 552.036 195.219 551.652 195.015C551.268 194.799 550.674 194.589 549.87 194.385C549.138 194.193 548.538 194.001 548.07 193.809C547.614 193.605 547.218 193.311 546.882 192.927C546.558 192.531 546.396 192.015 546.396 191.379C546.396 190.875 546.546 190.413 546.846 189.993C547.146 189.573 547.572 189.243 548.124 189.003C548.676 188.751 549.306 188.625 550.014 188.625C551.106 188.625 551.988 188.901 552.66 189.453C553.332 190.005 553.692 190.761 553.74 191.721H552.102C552.066 191.205 551.856 190.791 551.472 190.479C551.1 190.167 550.596 190.011 549.96 190.011C549.372 190.011 548.904 190.137 548.556 190.389C548.208 190.641 548.034 190.971 548.034 191.379C548.034 191.703 548.136 191.973 548.34 192.189C548.556 192.393 548.82 192.561 549.132 192.693C549.456 192.813 549.9 192.951 550.464 193.107C551.172 193.299 551.748 193.491 552.192 193.683C552.636 193.863 553.014 194.139 553.326 194.511C553.65 194.883 553.818 195.369 553.83 195.969C553.83 196.509 553.68 196.995 553.38 197.427C553.08 197.859 552.654 198.201 552.102 198.453C551.562 198.693 550.938 198.813 550.23 198.813ZM37.688 225.813C36.764 225.813 35.924 225.603 35.168 225.183C34.424 224.763 33.836 224.169 33.404 223.401C32.984 222.621 32.774 221.721 32.774 220.701C32.774 219.693 32.99 218.805 33.422 218.037C33.866 217.257 34.466 216.663 35.222 216.255C35.978 215.835 36.824 215.625 37.76 215.625C38.696 215.625 39.542 215.835 40.298 216.255C41.054 216.663 41.648 217.251 42.08 218.019C42.524 218.787 42.746 219.681 42.746 220.701C42.746 221.721 42.518 222.621 42.062 223.401C41.618 224.169 41.012 224.763 40.244 225.183C39.476 225.603 38.624 225.813 37.688 225.813ZM37.688 224.373C38.276 224.373 38.828 224.235 39.344 223.959C39.86 223.683 40.274 223.269 40.586 222.717C40.91 222.165 41.072 221.493 41.072 220.701C41.072 219.909 40.916 219.237 40.604 218.685C40.292 218.133 39.884 217.725 39.38 217.461C38.876 217.185 38.33 217.047 37.742 217.047C37.142 217.047 36.59 217.185 36.086 217.461C35.594 217.725 35.198 218.133 34.898 218.685C34.598 219.237 34.448 219.909 34.448 220.701C34.448 221.505 34.592 222.183 34.88 222.735C35.18 223.287 35.576 223.701 36.068 223.977C36.56 224.241 37.1 224.373 37.688 224.373ZM49.7057 215.607C50.9057 215.607 51.8777 215.973 52.6217 216.705C53.3657 217.425 53.7377 218.469 53.7377 219.837V225.651H52.1177V220.071C52.1177 219.087 51.8717 218.337 51.3797 217.821C50.8877 217.293 50.2157 217.029 49.3637 217.029C48.4997 217.029 47.8097 217.299 47.2937 217.839C46.7897 218.379 46.5377 219.165 46.5377 220.197V225.651H44.8997V215.787H46.5377V217.191C46.8617 216.687 47.2997 216.297 47.8517 216.021C48.4157 215.745 49.0337 215.607 49.7057 215.607ZM69.7082 215.787L63.7682 230.295H62.0762L64.0202 225.543L60.0422 215.787H61.8602L64.9562 223.779L68.0162 215.787H69.7082ZM75.6568 225.813C74.7328 225.813 73.8928 225.603 73.1368 225.183C72.3928 224.763 71.8048 224.169 71.3728 223.401C70.9528 222.621 70.7428 221.721 70.7428 220.701C70.7428 219.693 70.9588 218.805 71.3908 218.037C71.8348 217.257 72.4348 216.663 73.1908 216.255C73.9468 215.835 74.7928 215.625 75.7288 215.625C76.6648 215.625 77.5108 215.835 78.2668 216.255C79.0228 216.663 79.6168 217.251 80.0488 218.019C80.4928 218.787 80.7148 219.681 80.7148 220.701C80.7148 221.721 80.4868 222.621 80.0308 223.401C79.5868 224.169 78.9808 224.763 78.2128 225.183C77.4448 225.603 76.5928 225.813 75.6568 225.813ZM75.6568 224.373C76.2448 224.373 76.7968 224.235 77.3128 223.959C77.8288 223.683 78.2428 223.269 78.5548 222.717C78.8788 222.165 79.0408 221.493 79.0408 220.701C79.0408 219.909 78.8848 219.237 78.5728 218.685C78.2608 218.133 77.8528 217.725 77.3488 217.461C76.8448 217.185 76.2988 217.047 75.7108 217.047C75.1108 217.047 74.5588 217.185 74.0548 217.461C73.5628 217.725 73.1668 218.133 72.8668 218.685C72.5668 219.237 72.4168 219.909 72.4168 220.701C72.4168 221.505 72.5608 222.183 72.8488 222.735C73.1488 223.287 73.5448 223.701 74.0368 223.977C74.5288 224.241 75.0688 224.373 75.6568 224.373ZM91.6164 215.787V225.651H89.9784V224.193C89.6664 224.697 89.2284 225.093 88.6644 225.381C88.1124 225.657 87.5004 225.795 86.8284 225.795C86.0604 225.795 85.3704 225.639 84.7584 225.327C84.1464 225.003 83.6604 224.523 83.3004 223.887C82.9524 223.251 82.7784 222.477 82.7784 221.565V215.787H84.3984V221.349C84.3984 222.321 84.6444 223.071 85.1364 223.599C85.6284 224.115 86.3004 224.373 87.1524 224.373C88.0284 224.373 88.7184 224.103 89.2224 223.563C89.7264 223.023 89.9784 222.237 89.9784 221.205V215.787H91.6164ZM96.0201 217.389C96.3081 216.825 96.7161 216.387 97.2441 216.075C97.7841 215.763 98.4381 215.607 99.2061 215.607V217.299H98.7741C96.9381 217.299 96.0201 218.295 96.0201 220.287V225.651H94.3821V215.787H96.0201V217.389ZM119.036 215.787L115.958 225.651H114.266L111.89 217.821L109.514 225.651H107.822L104.726 215.787H106.4L108.668 224.067L111.116 215.787H112.79L115.184 224.085L117.416 215.787H119.036ZM124.963 225.813C124.039 225.813 123.199 225.603 122.443 225.183C121.699 224.763 121.111 224.169 120.679 223.401C120.259 222.621 120.049 221.721 120.049 220.701C120.049 219.693 120.265 218.805 120.697 218.037C121.141 217.257 121.741 216.663 122.497 216.255C123.253 215.835 124.099 215.625 125.035 215.625C125.971 215.625 126.817 215.835 127.573 216.255C128.329 216.663 128.923 217.251 129.355 218.019C129.799 218.787 130.021 219.681 130.021 220.701C130.021 221.721 129.793 222.621 129.337 223.401C128.893 224.169 128.287 224.763 127.519 225.183C126.751 225.603 125.899 225.813 124.963 225.813ZM124.963 224.373C125.551 224.373 126.103 224.235 126.619 223.959C127.135 223.683 127.549 223.269 127.861 222.717C128.185 222.165 128.347 221.493 128.347 220.701C128.347 219.909 128.191 219.237 127.879 218.685C127.567 218.133 127.159 217.725 126.655 217.461C126.151 217.185 125.605 217.047 125.017 217.047C124.417 217.047 123.865 217.185 123.361 217.461C122.869 217.725 122.473 218.133 122.173 218.685C121.873 219.237 121.723 219.909 121.723 220.701C121.723 221.505 121.867 222.183 122.155 222.735C122.455 223.287 122.851 223.701 123.343 223.977C123.835 224.241 124.375 224.373 124.963 224.373ZM133.813 217.389C134.101 216.825 134.509 216.387 135.037 216.075C135.577 215.763 136.231 215.607 136.999 215.607V217.299H136.567C134.731 217.299 133.813 218.295 133.813 220.287V225.651H132.175V215.787H133.813V217.389ZM144.398 225.651L140.528 221.295V225.651H138.89V212.331H140.528V220.161L144.326 215.787H146.612L141.968 220.701L146.63 225.651H144.398ZM166.092 215.787L163.014 225.651H161.322L158.946 217.821L156.57 225.651H154.878L151.782 215.787H153.456L155.724 224.067L158.172 215.787H159.846L162.24 224.085L164.472 215.787H166.092ZM168.564 214.185C168.252 214.185 167.988 214.077 167.772 213.861C167.556 213.645 167.448 213.381 167.448 213.069C167.448 212.757 167.556 212.493 167.772 212.277C167.988 212.061 168.252 211.953 168.564 211.953C168.864 211.953 169.116 212.061 169.32 212.277C169.536 212.493 169.644 212.757 169.644 213.069C169.644 213.381 169.536 213.645 169.32 213.861C169.116 214.077 168.864 214.185 168.564 214.185ZM169.356 215.787V225.651H167.718V215.787H169.356ZM174.146 217.137V222.951C174.146 223.431 174.248 223.773 174.452 223.977C174.656 224.169 175.01 224.265 175.514 224.265H176.72V225.651H175.244C174.332 225.651 173.648 225.441 173.192 225.021C172.736 224.601 172.508 223.911 172.508 222.951V217.137H171.23V215.787H172.508V213.303H174.146V215.787H176.72V217.137H174.146ZM183.6 215.607C184.344 215.607 185.016 215.769 185.616 216.093C186.216 216.405 186.684 216.879 187.02 217.515C187.368 218.151 187.542 218.925 187.542 219.837V225.651H185.922V220.071C185.922 219.087 185.676 218.337 185.184 217.821C184.692 217.293 184.02 217.029 183.168 217.029C182.304 217.029 181.614 217.299 181.098 217.839C180.594 218.379 180.342 219.165 180.342 220.197V225.651H178.704V212.331H180.342V217.191C180.666 216.687 181.11 216.297 181.674 216.021C182.25 215.745 182.892 215.607 183.6 215.607ZM199.031 217.137H196.961V225.651H195.323V217.137H194.045V215.787H195.323V215.085C195.323 213.981 195.605 213.177 196.169 212.673C196.745 212.157 197.663 211.899 198.923 211.899V213.267C198.203 213.267 197.693 213.411 197.393 213.699C197.105 213.975 196.961 214.437 196.961 215.085V215.787H199.031V217.137ZM209.689 215.787V225.651H208.051V224.193C207.739 224.697 207.301 225.093 206.737 225.381C206.185 225.657 205.573 225.795 204.901 225.795C204.133 225.795 203.443 225.639 202.831 225.327C202.219 225.003 201.733 224.523 201.373 223.887C201.025 223.251 200.851 222.477 200.851 221.565V215.787H202.471V221.349C202.471 222.321 202.717 223.071 203.209 223.599C203.701 224.115 204.373 224.373 205.225 224.373C206.101 224.373 206.791 224.103 207.295 223.563C207.799 223.023 208.051 222.237 208.051 221.205V215.787H209.689ZM214.092 212.331V225.651H212.454V212.331H214.092ZM218.522 212.331V225.651H216.884V212.331H218.522ZM230.415 225.813C229.491 225.813 228.651 225.603 227.895 225.183C227.151 224.763 226.563 224.169 226.131 223.401C225.711 222.621 225.501 221.721 225.501 220.701C225.501 219.693 225.717 218.805 226.149 218.037C226.593 217.257 227.193 216.663 227.949 216.255C228.705 215.835 229.551 215.625 230.487 215.625C231.423 215.625 232.269 215.835 233.025 216.255C233.781 216.663 234.375 217.251 234.807 218.019C235.251 218.787 235.473 219.681 235.473 220.701C235.473 221.721 235.245 222.621 234.789 223.401C234.345 224.169 233.739 224.763 232.971 225.183C232.203 225.603 231.351 225.813 230.415 225.813ZM230.415 224.373C231.003 224.373 231.555 224.235 232.071 223.959C232.587 223.683 233.001 223.269 233.313 222.717C233.637 222.165 233.799 221.493 233.799 220.701C233.799 219.909 233.643 219.237 233.331 218.685C233.019 218.133 232.611 217.725 232.107 217.461C231.603 217.185 231.057 217.047 230.469 217.047C229.869 217.047 229.317 217.185 228.813 217.461C228.321 217.725 227.925 218.133 227.625 218.685C227.325 219.237 227.175 219.909 227.175 220.701C227.175 221.505 227.319 222.183 227.607 222.735C227.907 223.287 228.303 223.701 228.795 223.977C229.287 224.241 229.827 224.373 230.415 224.373ZM239.264 217.389C239.552 216.825 239.96 216.387 240.488 216.075C241.028 215.763 241.682 215.607 242.45 215.607V217.299H242.018C240.182 217.299 239.264 218.295 239.264 220.287V225.651H237.626V215.787H239.264V217.389ZM261.002 215.607C261.77 215.607 262.454 215.769 263.054 216.093C263.654 216.405 264.128 216.879 264.476 217.515C264.824 218.151 264.998 218.925 264.998 219.837V225.651H263.378V220.071C263.378 219.087 263.132 218.337 262.64 217.821C262.16 217.293 261.506 217.029 260.678 217.029C259.826 217.029 259.148 217.305 258.644 217.857C258.14 218.397 257.888 219.183 257.888 220.215V225.651H256.268V220.071C256.268 219.087 256.022 218.337 255.53 217.821C255.05 217.293 254.396 217.029 253.568 217.029C252.716 217.029 252.038 217.305 251.534 217.857C251.03 218.397 250.778 219.183 250.778 220.215V225.651H249.14V215.787H250.778V217.209C251.102 216.693 251.534 216.297 252.074 216.021C252.626 215.745 253.232 215.607 253.892 215.607C254.72 215.607 255.452 215.793 256.088 216.165C256.724 216.537 257.198 217.083 257.51 217.803C257.786 217.107 258.242 216.567 258.878 216.183C259.514 215.799 260.222 215.607 261.002 215.607ZM268.531 214.185C268.219 214.185 267.955 214.077 267.739 213.861C267.523 213.645 267.415 213.381 267.415 213.069C267.415 212.757 267.523 212.493 267.739 212.277C267.955 212.061 268.219 211.953 268.531 211.953C268.831 211.953 269.083 212.061 269.287 212.277C269.503 212.493 269.611 212.757 269.611 213.069C269.611 213.381 269.503 213.645 269.287 213.861C269.083 214.077 268.831 214.185 268.531 214.185ZM269.323 215.787V225.651H267.685V215.787H269.323ZM276.921 215.607C278.121 215.607 279.093 215.973 279.837 216.705C280.581 217.425 280.953 218.469 280.953 219.837V225.651H279.333V220.071C279.333 219.087 279.087 218.337 278.595 217.821C278.103 217.293 277.431 217.029 276.579 217.029C275.715 217.029 275.025 217.299 274.509 217.839C274.005 218.379 273.753 219.165 273.753 220.197V225.651H272.115V215.787H273.753V217.191C274.077 216.687 274.515 216.297 275.067 216.021C275.631 215.745 276.249 215.607 276.921 215.607ZM284.474 214.185C284.162 214.185 283.898 214.077 283.682 213.861C283.466 213.645 283.358 213.381 283.358 213.069C283.358 212.757 283.466 212.493 283.682 212.277C283.898 212.061 284.162 211.953 284.474 211.953C284.774 211.953 285.026 212.061 285.23 212.277C285.446 212.493 285.554 212.757 285.554 213.069C285.554 213.381 285.446 213.645 285.23 213.861C285.026 214.077 284.774 214.185 284.474 214.185ZM285.266 215.787V225.651H283.628V215.787H285.266ZM299.92 215.607C300.688 215.607 301.372 215.769 301.972 216.093C302.572 216.405 303.046 216.879 303.394 217.515C303.742 218.151 303.916 218.925 303.916 219.837V225.651H302.296V220.071C302.296 219.087 302.05 218.337 301.558 217.821C301.078 217.293 300.424 217.029 299.596 217.029C298.744 217.029 298.066 217.305 297.562 217.857C297.058 218.397 296.806 219.183 296.806 220.215V225.651H295.186V220.071C295.186 219.087 294.94 218.337 294.448 217.821C293.968 217.293 293.314 217.029 292.486 217.029C291.634 217.029 290.956 217.305 290.452 217.857C289.948 218.397 289.696 219.183 289.696 220.215V225.651H288.058V215.787H289.696V217.209C290.02 216.693 290.452 216.297 290.992 216.021C291.544 215.745 292.15 215.607 292.81 215.607C293.638 215.607 294.37 215.793 295.006 216.165C295.642 216.537 296.116 217.083 296.428 217.803C296.704 217.107 297.16 216.567 297.796 216.183C298.432 215.799 299.14 215.607 299.92 215.607ZM307.449 214.185C307.137 214.185 306.873 214.077 306.657 213.861C306.441 213.645 306.333 213.381 306.333 213.069C306.333 212.757 306.441 212.493 306.657 212.277C306.873 212.061 307.137 211.953 307.449 211.953C307.749 211.953 308.001 212.061 308.205 212.277C308.421 212.493 308.529 212.757 308.529 213.069C308.529 213.381 308.421 213.645 308.205 213.861C308.001 214.077 307.749 214.185 307.449 214.185ZM308.241 215.787V225.651H306.603V215.787H308.241ZM312.256 224.301H317.098V225.651H310.384V224.301L315.172 217.119H310.42V215.787H317.062V217.119L312.256 224.301ZM328.224 220.341C328.224 220.653 328.206 220.983 328.17 221.331H320.286C320.346 222.303 320.676 223.065 321.276 223.617C321.888 224.157 322.626 224.427 323.49 224.427C324.198 224.427 324.786 224.265 325.254 223.941C325.734 223.605 326.07 223.161 326.262 222.609H328.026C327.762 223.557 327.234 224.331 326.442 224.931C325.65 225.519 324.666 225.813 323.49 225.813C322.554 225.813 321.714 225.603 320.97 225.183C320.238 224.763 319.662 224.169 319.242 223.401C318.822 222.621 318.612 221.721 318.612 220.701C318.612 219.681 318.816 218.787 319.224 218.019C319.632 217.251 320.202 216.663 320.934 216.255C321.678 215.835 322.53 215.625 323.49 215.625C324.426 215.625 325.254 215.829 325.974 216.237C326.694 216.645 327.246 217.209 327.63 217.929C328.026 218.637 328.224 219.441 328.224 220.341ZM326.532 219.999C326.532 219.375 326.394 218.841 326.118 218.397C325.842 217.941 325.464 217.599 324.984 217.371C324.516 217.131 323.994 217.011 323.418 217.011C322.59 217.011 321.882 217.275 321.294 217.803C320.718 218.331 320.388 219.063 320.304 219.999H326.532ZM329.774 220.683C329.774 219.675 329.978 218.793 330.386 218.037C330.794 217.269 331.352 216.675 332.06 216.255C332.78 215.835 333.584 215.625 334.472 215.625C335.24 215.625 335.954 215.805 336.614 216.165C337.274 216.513 337.778 216.975 338.126 217.551V212.331H339.782V225.651H338.126V223.797C337.802 224.385 337.322 224.871 336.686 225.255C336.05 225.627 335.306 225.813 334.454 225.813C333.578 225.813 332.78 225.597 332.06 225.165C331.352 224.733 330.794 224.127 330.386 223.347C329.978 222.567 329.774 221.679 329.774 220.683ZM338.126 220.701C338.126 219.957 337.976 219.309 337.676 218.757C337.376 218.205 336.968 217.785 336.452 217.497C335.948 217.197 335.39 217.047 334.778 217.047C334.166 217.047 333.608 217.191 333.104 217.479C332.6 217.767 332.198 218.187 331.898 218.739C331.598 219.291 331.448 219.939 331.448 220.683C331.448 221.439 331.598 222.099 331.898 222.663C332.198 223.215 332.6 223.641 333.104 223.941C333.608 224.229 334.166 224.373 334.778 224.373C335.39 224.373 335.948 224.229 336.452 223.941C336.968 223.641 337.376 223.215 337.676 222.663C337.976 222.099 338.126 221.445 338.126 220.701ZM350.841 225.813C350.085 225.813 349.407 225.687 348.807 225.435C348.207 225.171 347.733 224.811 347.385 224.355C347.037 223.887 346.845 223.353 346.809 222.753H348.501C348.549 223.245 348.777 223.647 349.185 223.959C349.605 224.271 350.151 224.427 350.823 224.427C351.447 224.427 351.939 224.289 352.299 224.013C352.659 223.737 352.839 223.389 352.839 222.969C352.839 222.537 352.647 222.219 352.263 222.015C351.879 221.799 351.285 221.589 350.481 221.385C349.749 221.193 349.149 221.001 348.681 220.809C348.225 220.605 347.829 220.311 347.493 219.927C347.169 219.531 347.007 219.015 347.007 218.379C347.007 217.875 347.157 217.413 347.457 216.993C347.757 216.573 348.183 216.243 348.735 216.003C349.287 215.751 349.917 215.625 350.625 215.625C351.717 215.625 352.599 215.901 353.271 216.453C353.943 217.005 354.303 217.761 354.351 218.721H352.713C352.677 218.205 352.467 217.791 352.083 217.479C351.711 217.167 351.207 217.011 350.571 217.011C349.983 217.011 349.515 217.137 349.167 217.389C348.819 217.641 348.645 217.971 348.645 218.379C348.645 218.703 348.747 218.973 348.951 219.189C349.167 219.393 349.431 219.561 349.743 219.693C350.067 219.813 350.511 219.951 351.075 220.107C351.783 220.299 352.359 220.491 352.803 220.683C353.247 220.863 353.625 221.139 353.937 221.511C354.261 221.883 354.429 222.369 354.441 222.969C354.441 223.509 354.291 223.995 353.991 224.427C353.691 224.859 353.265 225.201 352.713 225.453C352.173 225.693 351.549 225.813 350.841 225.813ZM356.141 220.701C356.141 219.681 356.345 218.793 356.753 218.037C357.161 217.269 357.725 216.675 358.445 216.255C359.177 215.835 360.011 215.625 360.947 215.625C362.159 215.625 363.155 215.919 363.935 216.507C364.727 217.095 365.249 217.911 365.501 218.955H363.737C363.569 218.355 363.239 217.881 362.747 217.533C362.267 217.185 361.667 217.011 360.947 217.011C360.011 217.011 359.255 217.335 358.679 217.983C358.103 218.619 357.815 219.525 357.815 220.701C357.815 221.889 358.103 222.807 358.679 223.455C359.255 224.103 360.011 224.427 360.947 224.427C361.667 224.427 362.267 224.259 362.747 223.923C363.227 223.587 363.557 223.107 363.737 222.483H365.501C365.237 223.491 364.709 224.301 363.917 224.913C363.125 225.513 362.135 225.813 360.947 225.813C360.011 225.813 359.177 225.603 358.445 225.183C357.725 224.763 357.161 224.169 356.753 223.401C356.345 222.633 356.141 221.733 356.141 220.701ZM369.325 217.389C369.613 216.825 370.021 216.387 370.549 216.075C371.089 215.763 371.743 215.607 372.511 215.607V217.299H372.079C370.243 217.299 369.325 218.295 369.325 220.287V225.651H367.687V215.787H369.325V217.389ZM383.402 220.341C383.402 220.653 383.384 220.983 383.348 221.331H375.464C375.524 222.303 375.854 223.065 376.454 223.617C377.066 224.157 377.804 224.427 378.668 224.427C379.376 224.427 379.964 224.265 380.432 223.941C380.912 223.605 381.248 223.161 381.44 222.609H383.204C382.94 223.557 382.412 224.331 381.62 224.931C380.828 225.519 379.844 225.813 378.668 225.813C377.732 225.813 376.892 225.603 376.148 225.183C375.416 224.763 374.84 224.169 374.42 223.401C374 222.621 373.79 221.721 373.79 220.701C373.79 219.681 373.994 218.787 374.402 218.019C374.81 217.251 375.38 216.663 376.112 216.255C376.856 215.835 377.708 215.625 378.668 215.625C379.604 215.625 380.432 215.829 381.152 216.237C381.872 216.645 382.424 217.209 382.808 217.929C383.204 218.637 383.402 219.441 383.402 220.341ZM381.71 219.999C381.71 219.375 381.572 218.841 381.296 218.397C381.02 217.941 380.642 217.599 380.162 217.371C379.694 217.131 379.172 217.011 378.596 217.011C377.768 217.011 377.06 217.275 376.472 217.803C375.896 218.331 375.566 219.063 375.482 219.999H381.71ZM394.564 220.341C394.564 220.653 394.546 220.983 394.51 221.331H386.626C386.686 222.303 387.016 223.065 387.616 223.617C388.228 224.157 388.966 224.427 389.83 224.427C390.538 224.427 391.126 224.265 391.594 223.941C392.074 223.605 392.41 223.161 392.602 222.609H394.366C394.102 223.557 393.574 224.331 392.782 224.931C391.99 225.519 391.006 225.813 389.83 225.813C388.894 225.813 388.054 225.603 387.31 225.183C386.578 224.763 386.002 224.169 385.582 223.401C385.162 222.621 384.952 221.721 384.952 220.701C384.952 219.681 385.156 218.787 385.564 218.019C385.972 217.251 386.542 216.663 387.274 216.255C388.018 215.835 388.87 215.625 389.83 215.625C390.766 215.625 391.594 215.829 392.314 216.237C393.034 216.645 393.586 217.209 393.97 217.929C394.366 218.637 394.564 219.441 394.564 220.341ZM392.872 219.999C392.872 219.375 392.734 218.841 392.458 218.397C392.182 217.941 391.804 217.599 391.324 217.371C390.856 217.131 390.334 217.011 389.758 217.011C388.93 217.011 388.222 217.275 387.634 217.803C387.058 218.331 386.728 219.063 386.644 219.999H392.872ZM401.532 215.607C402.732 215.607 403.704 215.973 404.448 216.705C405.192 217.425 405.564 218.469 405.564 219.837V225.651H403.944V220.071C403.944 219.087 403.698 218.337 403.206 217.821C402.714 217.293 402.042 217.029 401.19 217.029C400.326 217.029 399.636 217.299 399.12 217.839C398.616 218.379 398.364 219.165 398.364 220.197V225.651H396.726V215.787H398.364V217.191C398.688 216.687 399.126 216.297 399.678 216.021C400.242 215.745 400.86 215.607 401.532 215.607Z" fill="#495057"/>
<ellipse cx="681.997" cy="230.293" rx="23.8317" ry="10.3993" fill="#ABACAB"/>
<mask id="path-7-inside-1_34516_9950" fill="white">
<path fill-rule="evenodd" clip-rule="evenodd" d="M644.847 173.442C644.76 173.341 644.675 173.238 644.59 173.134L644.586 173.128C640.203 167.726 639.236 160.134 642.787 152.977C648.161 142.147 661.859 136.386 673.358 140.12C680.957 142.588 685.707 148.589 686.502 155.5L686.503 155.507C686.518 155.64 686.532 155.773 686.544 155.906L697.831 228.581C695.413 232.449 684.782 232.449 682.365 228.581L644.847 173.442Z"/>
</mask>
<path fill-rule="evenodd" clip-rule="evenodd" d="M644.847 173.442C644.76 173.341 644.675 173.238 644.59 173.134L644.586 173.128C640.203 167.726 639.236 160.134 642.787 152.977C648.161 142.147 661.859 136.386 673.358 140.12C680.957 142.588 685.707 148.589 686.502 155.5L686.503 155.507C686.518 155.64 686.532 155.773 686.544 155.906L697.831 228.581C695.413 232.449 684.782 232.449 682.365 228.581L644.847 173.442Z" fill="white"/>
<path d="M644.847 173.442L645.674 172.88L645.643 172.835L645.608 172.793L644.847 173.442ZM644.59 173.134L645.366 172.503L645.359 172.494L644.59 173.134ZM644.586 173.128L643.81 173.759L643.817 173.768L644.586 173.128ZM642.787 152.977L643.683 153.421L643.683 153.421L642.787 152.977ZM673.358 140.12L673.049 141.071L673.049 141.071L673.358 140.12ZM686.502 155.5L687.497 155.398L687.495 155.386L686.502 155.5ZM686.503 155.507L685.508 155.609L685.509 155.619L686.503 155.507ZM686.544 155.906L685.548 155.996L685.551 156.028L685.556 156.06L686.544 155.906ZM682.365 228.581L683.213 228.051L683.203 228.034L683.192 228.018L682.365 228.581ZM697.831 228.581L698.679 229.111L698.876 228.796L698.819 228.428L697.831 228.581ZM645.608 172.793C645.527 172.699 645.447 172.602 645.366 172.503L643.814 173.764C643.903 173.873 643.994 173.983 644.087 174.092L645.608 172.793ZM645.359 172.494L645.355 172.489L643.817 173.768L643.821 173.773L645.359 172.494ZM645.363 172.498C641.237 167.414 640.297 160.244 643.683 153.421L641.891 152.532C638.174 160.025 639.169 168.039 643.81 173.759L645.363 172.498ZM643.683 153.421C648.836 143.036 662.022 137.49 673.049 141.071L673.666 139.169C661.696 135.282 647.485 141.258 641.891 152.532L643.683 153.421ZM673.049 141.071C680.293 143.423 684.76 149.11 685.508 155.614L687.495 155.386C686.653 148.068 681.621 141.752 673.666 139.169L673.049 141.071ZM685.507 155.603L685.508 155.609L687.497 155.404L687.497 155.398L685.507 155.603ZM685.509 155.619C685.523 155.747 685.537 155.873 685.548 155.996L687.54 155.817C687.527 155.673 687.512 155.532 687.496 155.394L685.509 155.619ZM683.192 228.018L645.674 172.88L644.02 174.005L681.538 229.143L683.192 228.018ZM685.556 156.06L696.842 228.735L698.819 228.428L687.532 155.753L685.556 156.06ZM696.983 228.051C696.547 228.748 695.669 229.368 694.402 229.813C693.154 230.253 691.639 230.482 690.098 230.482C688.557 230.482 687.041 230.252 685.793 229.813C684.526 229.368 683.648 228.748 683.213 228.051L681.517 229.111C682.29 230.348 683.647 231.179 685.13 231.7C686.63 232.228 688.376 232.482 690.098 232.482C691.819 232.482 693.566 232.228 695.066 231.7C696.548 231.179 697.906 230.348 698.679 229.111L696.983 228.051Z" fill="black" mask="url(#path-7-inside-1_34516_9950)"/>
<path fill-rule="evenodd" clip-rule="evenodd" d="M617.343 136.558C630.343 119.524 658.164 107.824 679.431 110.446C700.698 113.068 707.409 129.026 694.409 146.06C681.408 163.094 653.588 174.794 632.321 172.172C611.054 169.55 604.342 153.592 617.343 136.558Z" fill="#FF4D4D" stroke="#262725" stroke-linecap="round" stroke-linejoin="round"/>
<path d="M617.806 172.22L617.767 172.237L614.738 165.033C618.465 169.109 624.451 171.919 632.355 172.894C643.095 174.218 655.456 171.925 666.754 167.174C678.051 162.422 688.336 155.192 694.901 146.589L694.504 146.285L694.901 146.589C699.733 140.258 701.91 134.015 701.604 128.5L704.634 135.704L704.595 135.72L704.821 136.193C707.836 142.505 706.489 150.836 699.822 159.572C693.387 168.004 683.261 175.14 672.082 179.842C660.902 184.544 648.719 186.79 638.193 185.491C627.286 184.146 620.388 179.282 617.986 172.713L617.806 172.22Z" fill="#FF0D0D" stroke="black"/>
<path fill-rule="evenodd" clip-rule="evenodd" d="M622.403 90.758C626.566 85.3227 635.463 81.581 642.259 82.4076C645.658 82.821 647.892 84.2996 648.755 86.3546L673.631 125.005C676.263 128.378 675.935 133.259 672.092 138.323C665.703 146.743 652.004 152.505 641.518 151.182C636.396 150.536 632.982 148.318 631.574 145.237C631.272 144.574 631.062 143.872 630.947 143.137L630.942 143.139L620.678 98.1577L620.679 98.1574C619.816 96.1039 620.323 93.4749 622.403 90.758Z" fill="#D90000"/>
<path d="M642.259 82.4076L642.198 82.904L642.198 82.904L642.259 82.4076ZM622.403 90.758L622.8 91.0621L622.8 91.062L622.403 90.758ZM648.755 86.3546L648.294 86.5482L648.311 86.5885L648.335 86.6252L648.755 86.3546ZM673.631 125.005L673.211 125.276L673.223 125.295L673.237 125.313L673.631 125.005ZM672.092 138.323L671.694 138.021L671.694 138.021L672.092 138.323ZM641.518 151.182L641.58 150.686L641.58 150.686L641.518 151.182ZM631.574 145.237L632.029 145.029L631.574 145.237ZM630.947 143.137L631.441 143.06L631.343 142.428L630.754 142.676L630.947 143.137ZM630.942 143.139L630.455 143.25L630.587 143.831L631.136 143.6L630.942 143.139ZM620.678 98.1577L620.484 97.6968L620.097 97.8596L620.19 98.269L620.678 98.1577ZM620.679 98.1574L620.873 98.6183L621.333 98.4245L621.14 97.9638L620.679 98.1574ZM642.319 81.9113C638.814 81.4849 634.802 82.2375 631.149 83.7737C627.497 85.3099 624.153 87.6508 622.006 90.454L622.8 91.062C624.816 88.43 628.002 86.1824 631.537 84.6955C635.073 83.2086 638.907 82.5037 642.198 82.904L642.319 81.9113ZM649.216 86.161C648.258 83.881 645.821 82.3372 642.319 81.9113L642.198 82.904C645.494 83.3048 647.525 84.7183 648.294 86.5482L649.216 86.161ZM648.335 86.6252L673.211 125.276L674.051 124.735L649.175 86.084L648.335 86.6252ZM672.49 138.626C676.411 133.458 676.849 128.317 674.025 124.698L673.237 125.313C675.677 128.44 675.459 133.059 671.694 138.021L672.49 138.626ZM641.455 151.678C646.806 152.353 652.942 151.219 658.535 148.867C664.129 146.514 669.23 142.922 672.49 138.626L671.694 138.021C668.565 142.144 663.622 145.643 658.148 147.945C652.673 150.248 646.716 151.334 641.58 150.686L641.455 151.678ZM631.119 145.444C632.624 148.738 636.231 151.019 641.455 151.678L641.58 150.686C636.561 150.052 633.34 147.898 632.029 145.029L631.119 145.444ZM630.453 143.213C630.574 143.993 630.797 144.74 631.119 145.444L632.029 145.029C631.746 144.409 631.549 143.751 631.441 143.06L630.453 143.213ZM630.754 142.676L630.748 142.678L631.136 143.6L631.141 143.598L630.754 142.676ZM631.43 143.028L621.165 98.0465L620.19 98.269L630.455 143.25L631.43 143.028ZM620.872 98.6186L620.873 98.6183L620.485 97.6965L620.484 97.6968L620.872 98.6186ZM622.006 90.454C619.863 93.2533 619.261 96.0727 620.218 98.351L621.14 97.9638C620.372 96.1351 620.783 93.6964 622.8 91.0621L622.006 90.454Z" fill="black"/>
<path fill-rule="evenodd" clip-rule="evenodd" d="M657.124 89.1004C648.795 100.098 630.922 107.615 617.236 105.876C603.551 104.137 599.202 93.7956 607.531 82.7979C615.86 71.8001 633.733 64.2834 647.418 66.0226C661.104 67.7618 665.453 78.1027 657.124 89.1004Z" fill="white"/>
<path fill-rule="evenodd" clip-rule="evenodd" d="M657.124 89.1004C648.795 100.098 630.922 107.615 617.236 105.876C603.551 104.137 599.202 93.7956 607.531 82.7979C615.86 71.8001 633.733 64.2834 647.418 66.0226C661.104 67.7618 665.453 78.1027 657.124 89.1004Z" stroke="#262725" stroke-width="2" stroke-linecap="round" stroke-linejoin="round"/>
<path fill-rule="evenodd" clip-rule="evenodd" d="M597.406 70.6936C607.531 57.3673 629.234 48.2399 645.841 50.3236C662.447 52.4076 667.709 64.9185 657.584 78.2449C647.458 91.5713 625.755 100.699 609.149 98.6148C592.542 96.5311 587.281 84.0201 597.406 70.6936Z" fill="#FF4D4D"/>
<path fill-rule="evenodd" clip-rule="evenodd" d="M597.406 70.6936C607.531 57.3673 629.234 48.2399 645.841 50.3237C662.447 52.4076 667.709 64.9185 657.584 78.2449C647.458 91.5713 625.755 100.699 609.149 98.6148C592.542 96.5311 587.281 84.0201 597.406 70.6936Z" stroke="#262725" stroke-width="2" stroke-linecap="round" stroke-linejoin="round"/>
<path fill-rule="evenodd" clip-rule="evenodd" d="M666.019 70.253L666.006 70.2584C668.471 75.4263 667.371 82.1481 662.139 89.0789C652.037 102.462 630.334 111.589 613.704 109.449C605.092 108.34 599.517 104.426 597.548 99.0495L597.535 99.0549L593.252 88.8698C595.393 93.9608 600.875 97.6464 609.191 98.7165C625.821 100.857 647.524 91.7294 657.625 78.3465C662.676 71.6552 663.877 65.1589 661.735 60.0679L666.019 70.253Z" stroke="#262725" stroke-width="2" stroke-linecap="round" stroke-linejoin="round"/>
<path fill-rule="evenodd" clip-rule="evenodd" d="M666.019 70.253L666.006 70.2584C668.471 75.4263 667.371 82.1481 662.139 89.0789C652.037 102.462 630.334 111.589 613.704 109.449C605.092 108.34 599.517 104.426 597.548 99.0495L597.535 99.0549L593.252 88.8698C595.393 93.9608 600.875 97.6464 609.191 98.7165C625.821 100.857 647.524 91.7294 657.625 78.3465C662.676 71.6552 663.877 65.1589 661.735 60.0679L666.019 70.253Z" fill="#FF0D0D"/>
</svg>
