<svg width="346" height="500" viewBox="0 0 346 500" fill="none" xmlns="http://www.w3.org/2000/svg">
<rect x="1.16666" y="0.5" width="343.667" height="499" rx="7.5" fill="white"/>
<rect x="1.16666" y="0.5" width="343.667" height="499" rx="7.5" stroke="#556AEB"/>
<rect x="32.6667" y="32" width="48" height="48" rx="8" fill="#212529"/>
<path d="M52.8797 62V60.7273L56.8172 56.6477C57.2377 56.2045 57.5843 55.8163 57.857 55.483C58.1335 55.1458 58.34 54.8258 58.4763 54.5227C58.6127 54.2197 58.6809 53.8977 58.6809 53.5568C58.6809 53.1705 58.59 52.8371 58.4081 52.5568C58.2263 52.2727 57.9782 52.0549 57.6638 51.9034C57.3494 51.7481 56.9953 51.6705 56.6013 51.6705C56.1846 51.6705 55.821 51.7557 55.5104 51.9261C55.1998 52.0966 54.9612 52.3371 54.7945 52.6477C54.6278 52.9583 54.5445 53.322 54.5445 53.7386H52.8684C52.8684 53.0303 53.0312 52.411 53.357 51.8807C53.6828 51.3504 54.1297 50.9394 54.6979 50.6477C55.2661 50.3523 55.9119 50.2045 56.6354 50.2045C57.3665 50.2045 58.0104 50.3504 58.5672 50.642C59.1278 50.9299 59.5653 51.3239 59.8797 51.8239C60.1941 52.3201 60.3513 52.8807 60.3513 53.5057C60.3513 53.9375 60.2699 54.3598 60.107 54.7727C59.9479 55.1856 59.6695 55.6458 59.2718 56.1534C58.874 56.6572 58.321 57.2689 57.6127 57.9886L55.3002 60.4091V60.4943H60.5388V62H52.8797Z" fill="white"/>
<path d="M48.2187 105.248V122H44.8587V114.872H37.6827V122H34.3227V105.248H37.6827V112.136H44.8587V105.248H48.2187ZM64.4778 108.704V122H61.0938V120.32C60.6618 120.896 60.0938 121.352 59.3898 121.688C58.7018 122.008 57.9498 122.168 57.1338 122.168C56.0938 122.168 55.1738 121.952 54.3738 121.52C53.5738 121.072 52.9418 120.424 52.4778 119.576C52.0298 118.712 51.8058 117.688 51.8058 116.504V108.704H55.1658V116.024C55.1658 117.08 55.4298 117.896 55.9578 118.472C56.4858 119.032 57.2058 119.312 58.1178 119.312C59.0458 119.312 59.7738 119.032 60.3018 118.472C60.8298 117.896 61.0938 117.08 61.0938 116.024V108.704H64.4778ZM71.553 110.648C71.985 110.008 72.577 109.488 73.329 109.088C74.097 108.688 74.969 108.488 75.945 108.488C77.081 108.488 78.105 108.768 79.017 109.328C79.945 109.888 80.673 110.688 81.201 111.728C81.745 112.752 82.017 113.944 82.017 115.304C82.017 116.664 81.745 117.872 81.201 118.928C80.673 119.968 79.945 120.776 79.017 121.352C78.105 121.928 77.081 122.216 75.945 122.216C74.953 122.216 74.081 122.024 73.329 121.64C72.593 121.24 72.001 120.728 71.553 120.104V122H68.193V104.24H71.553V110.648ZM78.585 115.304C78.585 114.504 78.417 113.816 78.081 113.24C77.761 112.648 77.329 112.2 76.785 111.896C76.257 111.592 75.681 111.44 75.057 111.44C74.449 111.44 73.873 111.6 73.329 111.92C72.801 112.224 72.369 112.672 72.033 113.264C71.713 113.856 71.553 114.552 71.553 115.352C71.553 116.152 71.713 116.848 72.033 117.44C72.369 118.032 72.801 118.488 73.329 118.808C73.873 119.112 74.449 119.264 75.057 119.264C75.681 119.264 76.257 119.104 76.785 118.784C77.329 118.464 77.761 118.008 78.081 117.416C78.417 116.824 78.585 116.12 78.585 115.304ZM90.1613 113.6C90.1613 111.952 90.5293 110.48 91.2653 109.184C92.0173 107.872 93.0333 106.856 94.3133 106.136C95.6093 105.4 97.0573 105.032 98.6573 105.032C100.529 105.032 102.169 105.512 103.577 106.472C104.985 107.432 105.969 108.76 106.529 110.456H102.665C102.281 109.656 101.737 109.056 101.033 108.656C100.345 108.256 99.5453 108.056 98.6333 108.056C97.6573 108.056 96.7853 108.288 96.0173 108.752C95.2653 109.2 94.6733 109.84 94.2413 110.672C93.8253 111.504 93.6173 112.48 93.6173 113.6C93.6173 114.704 93.8253 115.68 94.2413 116.528C94.6733 117.36 95.2653 118.008 96.0173 118.472C96.7853 118.92 97.6573 119.144 98.6333 119.144C99.5453 119.144 100.345 118.944 101.033 118.544C101.737 118.128 102.281 117.52 102.665 116.72H106.529C105.969 118.432 104.985 119.768 103.577 120.728C102.185 121.672 100.545 122.144 98.6573 122.144C97.0573 122.144 95.6093 121.784 94.3133 121.064C93.0333 120.328 92.0173 119.312 91.2653 118.016C90.5293 116.72 90.1613 115.248 90.1613 113.6ZM115.703 122.216C114.423 122.216 113.271 121.936 112.247 121.376C111.223 120.8 110.415 119.992 109.823 118.952C109.247 117.912 108.959 116.712 108.959 115.352C108.959 113.992 109.255 112.792 109.847 111.752C110.455 110.712 111.279 109.912 112.319 109.352C113.359 108.776 114.519 108.488 115.799 108.488C117.079 108.488 118.239 108.776 119.279 109.352C120.319 109.912 121.135 110.712 121.727 111.752C122.335 112.792 122.639 113.992 122.639 115.352C122.639 116.712 122.327 117.912 121.703 118.952C121.095 119.992 120.263 120.8 119.207 121.376C118.167 121.936 116.999 122.216 115.703 122.216ZM115.703 119.288C116.311 119.288 116.879 119.144 117.407 118.856C117.951 118.552 118.383 118.104 118.703 117.512C119.023 116.92 119.183 116.2 119.183 115.352C119.183 114.088 118.847 113.12 118.175 112.448C117.519 111.76 116.711 111.416 115.751 111.416C114.791 111.416 113.983 111.76 113.327 112.448C112.687 113.12 112.367 114.088 112.367 115.352C112.367 116.616 112.679 117.592 113.303 118.28C113.943 118.952 114.743 119.288 115.703 119.288ZM132.872 108.512C134.456 108.512 135.736 109.016 136.712 110.024C137.688 111.016 138.176 112.408 138.176 114.2V122H134.816V114.656C134.816 113.6 134.552 112.792 134.024 112.232C133.496 111.656 132.776 111.368 131.864 111.368C130.936 111.368 130.2 111.656 129.656 112.232C129.128 112.792 128.864 113.6 128.864 114.656V122H125.504V108.704H128.864V110.36C129.312 109.784 129.88 109.336 130.568 109.016C131.272 108.68 132.04 108.512 132.872 108.512ZM149.139 108.512C150.723 108.512 152.003 109.016 152.979 110.024C153.955 111.016 154.443 112.408 154.443 114.2V122H151.083V114.656C151.083 113.6 150.819 112.792 150.291 112.232C149.763 111.656 149.043 111.368 148.131 111.368C147.203 111.368 146.467 111.656 145.923 112.232C145.395 112.792 145.131 113.6 145.131 114.656V122H141.771V108.704H145.131V110.36C145.579 109.784 146.147 109.336 146.835 109.016C147.539 108.68 148.307 108.512 149.139 108.512ZM170.398 115.064C170.398 115.544 170.366 115.976 170.302 116.36H160.582C160.662 117.32 160.998 118.072 161.59 118.616C162.182 119.16 162.91 119.432 163.774 119.432C165.022 119.432 165.91 118.896 166.438 117.824H170.062C169.678 119.104 168.942 120.16 167.854 120.992C166.766 121.808 165.43 122.216 163.846 122.216C162.566 122.216 161.414 121.936 160.39 121.376C159.382 120.8 158.59 119.992 158.014 118.952C157.454 117.912 157.174 116.712 157.174 115.352C157.174 113.976 157.454 112.768 158.014 111.728C158.574 110.688 159.358 109.888 160.366 109.328C161.374 108.768 162.534 108.488 163.846 108.488C165.11 108.488 166.238 108.76 167.23 109.304C168.238 109.848 169.014 110.624 169.558 111.632C170.118 112.624 170.398 113.768 170.398 115.064ZM166.918 114.104C166.902 113.24 166.59 112.552 165.982 112.04C165.374 111.512 164.63 111.248 163.75 111.248C162.918 111.248 162.214 111.504 161.638 112.016C161.078 112.512 160.734 113.208 160.606 114.104H166.918ZM172.387 115.352C172.387 113.976 172.667 112.776 173.227 111.752C173.787 110.712 174.563 109.912 175.555 109.352C176.547 108.776 177.683 108.488 178.963 108.488C180.611 108.488 181.971 108.904 183.043 109.736C184.131 110.552 184.859 111.704 185.227 113.192H181.603C181.411 112.616 181.083 112.168 180.619 111.848C180.171 111.512 179.611 111.344 178.939 111.344C177.979 111.344 177.219 111.696 176.659 112.4C176.099 113.088 175.819 114.072 175.819 115.352C175.819 116.616 176.099 117.6 176.659 118.304C177.219 118.992 177.979 119.336 178.939 119.336C180.299 119.336 181.187 118.728 181.603 117.512H185.227C184.859 118.952 184.131 120.096 183.043 120.944C181.955 121.792 180.595 122.216 178.963 122.216C177.683 122.216 176.547 121.936 175.555 121.376C174.563 120.8 173.787 120 173.227 118.976C172.667 117.936 172.387 116.728 172.387 115.352ZM192 111.464V117.896C192 118.344 192.104 118.672 192.312 118.88C192.536 119.072 192.904 119.168 193.416 119.168H194.976V122H192.864C190.032 122 188.616 120.624 188.616 117.872V111.464H187.032V108.704H188.616V105.416H192V108.704H194.976V111.464H192ZM199.497 107.12C198.905 107.12 198.409 106.936 198.009 106.568C197.625 106.184 197.433 105.712 197.433 105.152C197.433 104.592 197.625 104.128 198.009 103.76C198.409 103.376 198.905 103.184 199.497 103.184C200.089 103.184 200.577 103.376 200.961 103.76C201.361 104.128 201.561 104.592 201.561 105.152C201.561 105.712 201.361 106.184 200.961 106.568C200.577 106.936 200.089 107.12 199.497 107.12ZM201.153 108.704V122H197.793V108.704H201.153ZM210.777 122.216C209.497 122.216 208.345 121.936 207.321 121.376C206.297 120.8 205.489 119.992 204.897 118.952C204.321 117.912 204.033 116.712 204.033 115.352C204.033 113.992 204.329 112.792 204.921 111.752C205.529 110.712 206.353 109.912 207.393 109.352C208.433 108.776 209.593 108.488 210.873 108.488C212.153 108.488 213.313 108.776 214.353 109.352C215.393 109.912 216.209 110.712 216.801 111.752C217.409 112.792 217.713 113.992 217.713 115.352C217.713 116.712 217.401 117.912 216.777 118.952C216.169 119.992 215.337 120.8 214.281 121.376C213.241 121.936 212.073 122.216 210.777 122.216ZM210.777 119.288C211.385 119.288 211.953 119.144 212.481 118.856C213.025 118.552 213.457 118.104 213.777 117.512C214.097 116.92 214.257 116.2 214.257 115.352C214.257 114.088 213.921 113.12 213.249 112.448C212.593 111.76 211.785 111.416 210.825 111.416C209.865 111.416 209.057 111.76 208.401 112.448C207.761 113.12 207.441 114.088 207.441 115.352C207.441 116.616 207.753 117.592 208.377 118.28C209.017 118.952 209.817 119.288 210.777 119.288ZM227.945 108.512C229.529 108.512 230.809 109.016 231.785 110.024C232.761 111.016 233.249 112.408 233.249 114.2V122H229.889V114.656C229.889 113.6 229.625 112.792 229.097 112.232C228.569 111.656 227.849 111.368 226.937 111.368C226.009 111.368 225.273 111.656 224.729 112.232C224.201 112.792 223.937 113.6 223.937 114.656V122H220.577V108.704H223.937V110.36C224.385 109.784 224.953 109.336 225.641 109.016C226.345 108.68 227.113 108.512 227.945 108.512Z" fill="#212529"/>
<path d="M38.9547 166.112C37.92 166.112 36.976 165.872 36.1227 165.392C35.2693 164.901 34.592 164.224 34.0907 163.36C33.6 162.485 33.3547 161.504 33.3547 160.416C33.3547 159.328 33.6 158.352 34.0907 157.488C34.592 156.613 35.2693 155.936 36.1227 155.456C36.976 154.965 37.92 154.72 38.9547 154.72C40 154.72 40.9493 154.965 41.8027 155.456C42.656 155.936 43.328 156.608 43.8187 157.472C44.3093 158.336 44.5547 159.317 44.5547 160.416C44.5547 161.515 44.3093 162.496 43.8187 163.36C43.328 164.224 42.656 164.901 41.8027 165.392C40.9493 165.872 40 166.112 38.9547 166.112ZM38.9547 164.848C39.7333 164.848 40.432 164.667 41.0507 164.304C41.68 163.941 42.1707 163.424 42.5227 162.752C42.8853 162.08 43.0667 161.301 43.0667 160.416C43.0667 159.52 42.8853 158.741 42.5227 158.08C42.1707 157.408 41.6853 156.891 41.0667 156.528C40.448 156.165 39.744 155.984 38.9547 155.984C38.1653 155.984 37.4613 156.165 36.8427 156.528C36.224 156.891 35.7333 157.408 35.3707 158.08C35.0187 158.741 34.8427 159.52 34.8427 160.416C34.8427 161.301 35.0187 162.08 35.3707 162.752C35.7333 163.424 36.224 163.941 36.8427 164.304C37.472 164.667 38.176 164.848 38.9547 164.848ZM50.7488 157.072C51.8154 157.072 52.6794 157.397 53.3408 158.048C54.0021 158.688 54.3328 159.616 54.3328 160.832V166H52.8928V161.04C52.8928 160.165 52.6741 159.499 52.2368 159.04C51.7994 158.571 51.2021 158.336 50.4448 158.336C49.6768 158.336 49.0634 158.576 48.6048 159.056C48.1568 159.536 47.9328 160.235 47.9328 161.152V166H46.4768V157.232H47.9328V158.48C48.2208 158.032 48.6101 157.685 49.1008 157.44C49.6021 157.195 50.1514 157.072 50.7488 157.072ZM58.1672 158.864C58.4658 158.341 58.9032 157.915 59.4792 157.584C60.0552 157.253 60.7112 157.088 61.4472 157.088C62.2365 157.088 62.9458 157.275 63.5752 157.648C64.2045 158.021 64.7005 158.549 65.0632 159.232C65.4258 159.904 65.6072 160.688 65.6072 161.584C65.6072 162.469 65.4258 163.259 65.0632 163.952C64.7005 164.645 64.1992 165.184 63.5592 165.568C62.9298 165.952 62.2258 166.144 61.4472 166.144C60.6898 166.144 60.0232 165.979 59.4472 165.648C58.8818 165.317 58.4552 164.896 58.1672 164.384V166H56.7112V154.16H58.1672V158.864ZM64.1192 161.584C64.1192 160.923 63.9858 160.347 63.7192 159.856C63.4525 159.365 63.0898 158.992 62.6312 158.736C62.1832 158.48 61.6872 158.352 61.1432 158.352C60.6098 158.352 60.1138 158.485 59.6552 158.752C59.2072 159.008 58.8445 159.387 58.5672 159.888C58.3005 160.379 58.1672 160.949 58.1672 161.6C58.1672 162.261 58.3005 162.843 58.5672 163.344C58.8445 163.835 59.2072 164.213 59.6552 164.48C60.1138 164.736 60.6098 164.864 61.1432 164.864C61.6872 164.864 62.1832 164.736 62.6312 164.48C63.0898 164.213 63.4525 163.835 63.7192 163.344C63.9858 162.843 64.1192 162.256 64.1192 161.584ZM71.3477 166.144C70.5263 166.144 69.7797 165.957 69.1077 165.584C68.4463 165.211 67.9237 164.683 67.5397 164C67.1663 163.307 66.9797 162.507 66.9797 161.6C66.9797 160.704 67.1717 159.915 67.5557 159.232C67.9503 158.539 68.4837 158.011 69.1557 157.648C69.8277 157.275 70.5797 157.088 71.4117 157.088C72.2437 157.088 72.9957 157.275 73.6677 157.648C74.3397 158.011 74.8677 158.533 75.2517 159.216C75.6463 159.899 75.8437 160.693 75.8437 161.6C75.8437 162.507 75.641 163.307 75.2357 164C74.841 164.683 74.3023 165.211 73.6197 165.584C72.937 165.957 72.1797 166.144 71.3477 166.144ZM71.3477 164.864C71.8703 164.864 72.361 164.741 72.8197 164.496C73.2783 164.251 73.6463 163.883 73.9237 163.392C74.2117 162.901 74.3557 162.304 74.3557 161.6C74.3557 160.896 74.217 160.299 73.9397 159.808C73.6623 159.317 73.2997 158.955 72.8517 158.72C72.4037 158.475 71.9183 158.352 71.3957 158.352C70.8623 158.352 70.3717 158.475 69.9237 158.72C69.4863 158.955 69.1343 159.317 68.8677 159.808C68.601 160.299 68.4677 160.896 68.4677 161.6C68.4677 162.315 68.5957 162.917 68.8517 163.408C69.1183 163.899 69.4703 164.267 69.9077 164.512C70.345 164.747 70.825 164.864 71.3477 164.864ZM77.214 161.584C77.214 160.688 77.3954 159.904 77.758 159.232C78.1207 158.549 78.6167 158.021 79.246 157.648C79.886 157.275 80.5954 157.088 81.374 157.088C82.142 157.088 82.8087 157.253 83.374 157.584C83.9394 157.915 84.3607 158.331 84.638 158.832V157.232H86.11V166H84.638V164.368C84.35 164.88 83.918 165.307 83.342 165.648C82.7767 165.979 82.1154 166.144 81.358 166.144C80.5794 166.144 79.8754 165.952 79.246 165.568C78.6167 165.184 78.1207 164.645 77.758 163.952C77.3954 163.259 77.214 162.469 77.214 161.584ZM84.638 161.6C84.638 160.939 84.5047 160.363 84.238 159.872C83.9714 159.381 83.6087 159.008 83.15 158.752C82.702 158.485 82.206 158.352 81.662 158.352C81.118 158.352 80.622 158.48 80.174 158.736C79.726 158.992 79.3687 159.365 79.102 159.856C78.8354 160.347 78.702 160.923 78.702 161.584C78.702 162.256 78.8354 162.843 79.102 163.344C79.3687 163.835 79.726 164.213 80.174 164.48C80.622 164.736 81.118 164.864 81.662 164.864C82.206 164.864 82.702 164.736 83.15 164.48C83.6087 164.213 83.9714 163.835 84.238 163.344C84.5047 162.843 84.638 162.261 84.638 161.6ZM90.0265 158.656C90.2825 158.155 90.6452 157.765 91.1145 157.488C91.5945 157.211 92.1759 157.072 92.8585 157.072V158.576H92.4745C90.8425 158.576 90.0265 159.461 90.0265 161.232V166H88.5705V157.232H90.0265V158.656ZM93.9953 161.584C93.9953 160.688 94.1766 159.904 94.5393 159.232C94.9019 158.549 95.3979 158.021 96.0273 157.648C96.6673 157.275 97.3819 157.088 98.1713 157.088C98.8539 157.088 99.4886 157.248 100.075 157.568C100.662 157.877 101.11 158.288 101.419 158.8V154.16H102.891V166H101.419V164.352C101.131 164.875 100.705 165.307 100.139 165.648C99.5739 165.979 98.9126 166.144 98.1553 166.144C97.3766 166.144 96.6673 165.952 96.0273 165.568C95.3979 165.184 94.9019 164.645 94.5393 163.952C94.1766 163.259 93.9953 162.469 93.9953 161.584ZM101.419 161.6C101.419 160.939 101.286 160.363 101.019 159.872C100.753 159.381 100.39 159.008 99.9313 158.752C99.4833 158.485 98.9873 158.352 98.4433 158.352C97.8993 158.352 97.4033 158.48 96.9553 158.736C96.5073 158.992 96.1499 159.365 95.8833 159.856C95.6166 160.347 95.4833 160.923 95.4833 161.584C95.4833 162.256 95.6166 162.843 95.8833 163.344C96.1499 163.835 96.5073 164.213 96.9553 164.48C97.4033 164.736 97.8993 164.864 98.4433 164.864C98.9873 164.864 99.4833 164.736 99.9313 164.48C100.39 164.213 100.753 163.835 101.019 163.344C101.286 162.843 101.419 162.261 101.419 161.6ZM117.169 157.232L111.889 170.128H110.385L112.113 165.904L108.577 157.232H110.193L112.945 164.336L115.665 157.232H117.169ZM122.457 166.144C121.636 166.144 120.889 165.957 120.217 165.584C119.556 165.211 119.033 164.683 118.649 164C118.276 163.307 118.089 162.507 118.089 161.6C118.089 160.704 118.281 159.915 118.665 159.232C119.06 158.539 119.593 158.011 120.265 157.648C120.937 157.275 121.689 157.088 122.521 157.088C123.353 157.088 124.105 157.275 124.777 157.648C125.449 158.011 125.977 158.533 126.361 159.216C126.756 159.899 126.953 160.693 126.953 161.6C126.953 162.507 126.75 163.307 126.345 164C125.95 164.683 125.412 165.211 124.729 165.584C124.046 165.957 123.289 166.144 122.457 166.144ZM122.457 164.864C122.98 164.864 123.47 164.741 123.929 164.496C124.388 164.251 124.756 163.883 125.033 163.392C125.321 162.901 125.465 162.304 125.465 161.6C125.465 160.896 125.326 160.299 125.049 159.808C124.772 159.317 124.409 158.955 123.961 158.72C123.513 158.475 123.028 158.352 122.505 158.352C121.972 158.352 121.481 158.475 121.033 158.72C120.596 158.955 120.244 159.317 119.977 159.808C119.71 160.299 119.577 160.896 119.577 161.6C119.577 162.315 119.705 162.917 119.961 163.408C120.228 163.899 120.58 164.267 121.017 164.512C121.454 164.747 121.934 164.864 122.457 164.864ZM136.643 157.232V166H135.187V164.704C134.91 165.152 134.521 165.504 134.019 165.76C133.529 166.005 132.985 166.128 132.387 166.128C131.705 166.128 131.091 165.989 130.547 165.712C130.003 165.424 129.571 164.997 129.251 164.432C128.942 163.867 128.787 163.179 128.787 162.368V157.232H130.227V162.176C130.227 163.04 130.446 163.707 130.883 164.176C131.321 164.635 131.918 164.864 132.675 164.864C133.454 164.864 134.067 164.624 134.515 164.144C134.963 163.664 135.187 162.965 135.187 162.048V157.232H136.643ZM140.558 158.656C140.814 158.155 141.176 157.765 141.646 157.488C142.126 157.211 142.707 157.072 143.39 157.072V158.576H143.006C141.374 158.576 140.558 159.461 140.558 161.232V166H139.102V157.232H140.558V158.656ZM148.792 161.6C148.792 160.693 148.973 159.904 149.336 159.232C149.699 158.549 150.2 158.021 150.84 157.648C151.491 157.275 152.232 157.088 153.064 157.088C154.141 157.088 155.027 157.349 155.72 157.872C156.424 158.395 156.888 159.12 157.112 160.048H155.544C155.395 159.515 155.101 159.093 154.664 158.784C154.237 158.475 153.704 158.32 153.064 158.32C152.232 158.32 151.56 158.608 151.048 159.184C150.536 159.749 150.28 160.555 150.28 161.6C150.28 162.656 150.536 163.472 151.048 164.048C151.56 164.624 152.232 164.912 153.064 164.912C153.704 164.912 154.237 164.763 154.664 164.464C155.091 164.165 155.384 163.739 155.544 163.184H157.112C156.877 164.08 156.408 164.8 155.704 165.344C155 165.877 154.12 166.144 153.064 166.144C152.232 166.144 151.491 165.957 150.84 165.584C150.2 165.211 149.699 164.683 149.336 164C148.973 163.317 148.792 162.517 148.792 161.6ZM160.511 154.16V166H159.055V154.16H160.511ZM163.744 155.808C163.467 155.808 163.232 155.712 163.04 155.52C162.848 155.328 162.752 155.093 162.752 154.816C162.752 154.539 162.848 154.304 163.04 154.112C163.232 153.92 163.467 153.824 163.744 153.824C164.011 153.824 164.235 153.92 164.416 154.112C164.608 154.304 164.704 154.539 164.704 154.816C164.704 155.093 164.608 155.328 164.416 155.52C164.235 155.712 164.011 155.808 163.744 155.808ZM164.448 157.232V166H162.992V157.232H164.448ZM174.93 161.28C174.93 161.557 174.914 161.851 174.882 162.16H167.874C167.927 163.024 168.221 163.701 168.754 164.192C169.298 164.672 169.954 164.912 170.722 164.912C171.351 164.912 171.874 164.768 172.29 164.48C172.717 164.181 173.015 163.787 173.186 163.296H174.754C174.519 164.139 174.05 164.827 173.346 165.36C172.642 165.883 171.767 166.144 170.722 166.144C169.89 166.144 169.143 165.957 168.482 165.584C167.831 165.211 167.319 164.683 166.946 164C166.573 163.307 166.386 162.507 166.386 161.6C166.386 160.693 166.567 159.899 166.93 159.216C167.293 158.533 167.799 158.011 168.45 157.648C169.111 157.275 169.869 157.088 170.722 157.088C171.554 157.088 172.29 157.269 172.93 157.632C173.57 157.995 174.061 158.496 174.402 159.136C174.754 159.765 174.93 160.48 174.93 161.28ZM173.426 160.976C173.426 160.421 173.303 159.947 173.058 159.552C172.813 159.147 172.477 158.843 172.05 158.64C171.634 158.427 171.17 158.32 170.658 158.32C169.922 158.32 169.293 158.555 168.77 159.024C168.258 159.493 167.965 160.144 167.89 160.976H173.426ZM181.124 157.072C182.19 157.072 183.054 157.397 183.716 158.048C184.377 158.688 184.708 159.616 184.708 160.832V166H183.268V161.04C183.268 160.165 183.049 159.499 182.612 159.04C182.174 158.571 181.577 158.336 180.82 158.336C180.052 158.336 179.438 158.576 178.98 159.056C178.532 159.536 178.308 160.235 178.308 161.152V166H176.852V157.232H178.308V158.48C178.596 158.032 178.985 157.685 179.476 157.44C179.977 157.195 180.526 157.072 181.124 157.072ZM188.862 158.432V163.6C188.862 164.027 188.953 164.331 189.134 164.512C189.315 164.683 189.63 164.768 190.078 164.768H191.15V166H189.838C189.027 166 188.419 165.813 188.014 165.44C187.609 165.067 187.406 164.453 187.406 163.6V158.432H186.27V157.232H187.406V155.024H188.862V157.232H191.15V158.432H188.862ZM196.018 166.144C195.346 166.144 194.744 166.032 194.21 165.808C193.677 165.573 193.256 165.253 192.946 164.848C192.637 164.432 192.466 163.957 192.434 163.424H193.938C193.981 163.861 194.184 164.219 194.546 164.496C194.92 164.773 195.405 164.912 196.002 164.912C196.557 164.912 196.994 164.789 197.314 164.544C197.634 164.299 197.794 163.989 197.794 163.616C197.794 163.232 197.624 162.949 197.282 162.768C196.941 162.576 196.413 162.389 195.698 162.208C195.048 162.037 194.514 161.867 194.098 161.696C193.693 161.515 193.341 161.253 193.042 160.912C192.754 160.56 192.61 160.101 192.61 159.536C192.61 159.088 192.744 158.677 193.01 158.304C193.277 157.931 193.656 157.637 194.146 157.424C194.637 157.2 195.197 157.088 195.826 157.088C196.797 157.088 197.581 157.333 198.178 157.824C198.776 158.315 199.096 158.987 199.138 159.84H197.682C197.65 159.381 197.464 159.013 197.122 158.736C196.792 158.459 196.344 158.32 195.778 158.32C195.256 158.32 194.84 158.432 194.53 158.656C194.221 158.88 194.066 159.173 194.066 159.536C194.066 159.824 194.157 160.064 194.338 160.256C194.53 160.437 194.765 160.587 195.042 160.704C195.33 160.811 195.725 160.933 196.226 161.072C196.856 161.243 197.368 161.413 197.762 161.584C198.157 161.744 198.493 161.989 198.77 162.32C199.058 162.651 199.208 163.083 199.218 163.616C199.218 164.096 199.085 164.528 198.818 164.912C198.552 165.296 198.173 165.6 197.682 165.824C197.202 166.037 196.648 166.144 196.018 166.144ZM204.995 161.584C204.995 160.688 205.177 159.904 205.539 159.232C205.902 158.549 206.398 158.021 207.027 157.648C207.667 157.275 208.377 157.088 209.155 157.088C209.923 157.088 210.59 157.253 211.155 157.584C211.721 157.915 212.142 158.331 212.419 158.832V157.232H213.891V166H212.419V164.368C212.131 164.88 211.699 165.307 211.123 165.648C210.558 165.979 209.897 166.144 209.139 166.144C208.361 166.144 207.657 165.952 207.027 165.568C206.398 165.184 205.902 164.645 205.539 163.952C205.177 163.259 204.995 162.469 204.995 161.584ZM212.419 161.6C212.419 160.939 212.286 160.363 212.019 159.872C211.753 159.381 211.39 159.008 210.931 158.752C210.483 158.485 209.987 158.352 209.443 158.352C208.899 158.352 208.403 158.48 207.955 158.736C207.507 158.992 207.15 159.365 206.883 159.856C206.617 160.347 206.483 160.923 206.483 161.584C206.483 162.256 206.617 162.843 206.883 163.344C207.15 163.835 207.507 164.213 207.955 164.48C208.403 164.736 208.899 164.864 209.443 164.864C209.987 164.864 210.483 164.736 210.931 164.48C211.39 164.213 211.753 163.835 212.019 163.344C212.286 162.843 212.419 162.261 212.419 161.6ZM220.624 157.072C221.69 157.072 222.554 157.397 223.216 158.048C223.877 158.688 224.208 159.616 224.208 160.832V166H222.768V161.04C222.768 160.165 222.549 159.499 222.112 159.04C221.674 158.571 221.077 158.336 220.32 158.336C219.552 158.336 218.938 158.576 218.48 159.056C218.032 159.536 217.808 160.235 217.808 161.152V166H216.352V157.232H217.808V158.48C218.096 158.032 218.485 157.685 218.976 157.44C219.477 157.195 220.026 157.072 220.624 157.072ZM226.042 161.584C226.042 160.688 226.223 159.904 226.586 159.232C226.949 158.549 227.445 158.021 228.074 157.648C228.714 157.275 229.429 157.088 230.218 157.088C230.901 157.088 231.535 157.248 232.122 157.568C232.709 157.877 233.157 158.288 233.466 158.8V154.16H234.938V166H233.466V164.352C233.178 164.875 232.751 165.307 232.186 165.648C231.621 165.979 230.959 166.144 230.202 166.144C229.423 166.144 228.714 165.952 228.074 165.568C227.445 165.184 226.949 164.645 226.586 163.952C226.223 163.259 226.042 162.469 226.042 161.584ZM233.466 161.6C233.466 160.939 233.333 160.363 233.066 159.872C232.799 159.381 232.437 159.008 231.978 158.752C231.53 158.485 231.034 158.352 230.49 158.352C229.946 158.352 229.45 158.48 229.002 158.736C228.554 158.992 228.197 159.365 227.93 159.856C227.663 160.347 227.53 160.923 227.53 161.584C227.53 162.256 227.663 162.843 227.93 163.344C228.197 163.835 228.554 164.213 229.002 164.48C229.45 164.736 229.946 164.864 230.49 164.864C231.034 164.864 231.53 164.736 231.978 164.48C232.437 164.213 232.799 163.835 233.066 163.344C233.333 162.843 233.466 162.261 233.466 161.6ZM249.216 157.232L243.936 170.128H242.432L244.16 165.904L240.624 157.232H242.24L244.992 164.336L247.712 157.232H249.216ZM254.504 166.144C253.683 166.144 252.936 165.957 252.264 165.584C251.603 165.211 251.08 164.683 250.696 164C250.323 163.307 250.136 162.507 250.136 161.6C250.136 160.704 250.328 159.915 250.712 159.232C251.107 158.539 251.64 158.011 252.312 157.648C252.984 157.275 253.736 157.088 254.568 157.088C255.4 157.088 256.152 157.275 256.824 157.648C257.496 158.011 258.024 158.533 258.408 159.216C258.803 159.899 259 160.693 259 161.6C259 162.507 258.797 163.307 258.392 164C257.997 164.683 257.459 165.211 256.776 165.584C256.093 165.957 255.336 166.144 254.504 166.144ZM254.504 164.864C255.027 164.864 255.517 164.741 255.976 164.496C256.435 164.251 256.803 163.883 257.08 163.392C257.368 162.901 257.512 162.304 257.512 161.6C257.512 160.896 257.373 160.299 257.096 159.808C256.819 159.317 256.456 158.955 256.008 158.72C255.56 158.475 255.075 158.352 254.552 158.352C254.019 158.352 253.528 158.475 253.08 158.72C252.643 158.955 252.291 159.317 252.024 159.808C251.757 160.299 251.624 160.896 251.624 161.6C251.624 162.315 251.752 162.917 252.008 163.408C252.275 163.899 252.627 164.267 253.064 164.512C253.501 164.747 253.981 164.864 254.504 164.864ZM268.69 157.232V166H267.234V164.704C266.957 165.152 266.568 165.504 266.066 165.76C265.576 166.005 265.032 166.128 264.434 166.128C263.752 166.128 263.138 165.989 262.594 165.712C262.05 165.424 261.618 164.997 261.298 164.432C260.989 163.867 260.834 163.179 260.834 162.368V157.232H262.274V162.176C262.274 163.04 262.493 163.707 262.93 164.176C263.368 164.635 263.965 164.864 264.722 164.864C265.501 164.864 266.114 164.624 266.562 164.144C267.01 163.664 267.234 162.965 267.234 162.048V157.232H268.69ZM272.605 158.656C272.861 158.155 273.223 157.765 273.693 157.488C274.173 157.211 274.754 157.072 275.437 157.072V158.576H275.053C273.421 158.576 272.605 159.461 272.605 161.232V166H271.149V157.232H272.605V158.656ZM35.6747 182.432V187.6C35.6747 188.027 35.7653 188.331 35.9467 188.512C36.128 188.683 36.4427 188.768 36.8907 188.768H37.9627V190H36.6507C35.84 190 35.232 189.813 34.8267 189.44C34.4213 189.067 34.2187 188.453 34.2187 187.6V182.432H33.0827V181.232H34.2187V179.024H35.6747V181.232H37.9627V182.432H35.6747ZM47.7268 185.28C47.7268 185.557 47.7108 185.851 47.6788 186.16H40.6708C40.7241 187.024 41.0174 187.701 41.5508 188.192C42.0948 188.672 42.7508 188.912 43.5188 188.912C44.1481 188.912 44.6708 188.768 45.0868 188.48C45.5134 188.181 45.8121 187.787 45.9828 187.296H47.5508C47.3161 188.139 46.8468 188.827 46.1428 189.36C45.4388 189.883 44.5641 190.144 43.5188 190.144C42.6868 190.144 41.9401 189.957 41.2788 189.584C40.6281 189.211 40.1161 188.683 39.7428 188C39.3694 187.307 39.1828 186.507 39.1828 185.6C39.1828 184.693 39.3641 183.899 39.7268 183.216C40.0894 182.533 40.5961 182.011 41.2468 181.648C41.9081 181.275 42.6654 181.088 43.5188 181.088C44.3508 181.088 45.0868 181.269 45.7268 181.632C46.3668 181.995 46.8574 182.496 47.1988 183.136C47.5508 183.765 47.7268 184.48 47.7268 185.28ZM46.2228 184.976C46.2228 184.421 46.1001 183.947 45.8548 183.552C45.6094 183.147 45.2734 182.843 44.8468 182.64C44.4308 182.427 43.9668 182.32 43.4548 182.32C42.7188 182.32 42.0894 182.555 41.5668 183.024C41.0548 183.493 40.7614 184.144 40.6868 184.976H46.2228ZM49.1047 185.584C49.1047 184.688 49.286 183.904 49.6487 183.232C50.0113 182.549 50.5073 182.021 51.1367 181.648C51.7767 181.275 52.486 181.088 53.2647 181.088C54.0327 181.088 54.6993 181.253 55.2647 181.584C55.83 181.915 56.2513 182.331 56.5287 182.832V181.232H58.0007V190H56.5287V188.368C56.2407 188.88 55.8087 189.307 55.2327 189.648C54.6673 189.979 54.006 190.144 53.2487 190.144C52.47 190.144 51.766 189.952 51.1367 189.568C50.5073 189.184 50.0113 188.645 49.6487 187.952C49.286 187.259 49.1047 186.469 49.1047 185.584ZM56.5287 185.6C56.5287 184.939 56.3953 184.363 56.1287 183.872C55.862 183.381 55.4993 183.008 55.0407 182.752C54.5927 182.485 54.0967 182.352 53.5527 182.352C53.0087 182.352 52.5127 182.48 52.0647 182.736C51.6167 182.992 51.2593 183.365 50.9927 183.856C50.726 184.347 50.5927 184.923 50.5927 185.584C50.5927 186.256 50.726 186.843 50.9927 187.344C51.2593 187.835 51.6167 188.213 52.0647 188.48C52.5127 188.736 53.0087 188.864 53.5527 188.864C54.0967 188.864 54.5927 188.736 55.0407 188.48C55.4993 188.213 55.862 187.835 56.1287 187.344C56.3953 186.843 56.5287 186.261 56.5287 185.6ZM71.0052 181.072C71.6878 181.072 72.2958 181.216 72.8292 181.504C73.3625 181.781 73.7838 182.203 74.0932 182.768C74.4025 183.333 74.5572 184.021 74.5572 184.832V190H73.1172V185.04C73.1172 184.165 72.8985 183.499 72.4612 183.04C72.0345 182.571 71.4532 182.336 70.7172 182.336C69.9598 182.336 69.3572 182.581 68.9092 183.072C68.4612 183.552 68.2372 184.251 68.2372 185.168V190H66.7972V185.04C66.7972 184.165 66.5785 183.499 66.1412 183.04C65.7145 182.571 65.1332 182.336 64.3972 182.336C63.6398 182.336 63.0372 182.581 62.5892 183.072C62.1412 183.552 61.9172 184.251 61.9172 185.168V190H60.4612V181.232H61.9172V182.496C62.2052 182.037 62.5892 181.685 63.0692 181.44C63.5598 181.195 64.0985 181.072 64.6852 181.072C65.4212 181.072 66.0718 181.237 66.6372 181.568C67.2025 181.899 67.6238 182.384 67.9012 183.024C68.1465 182.405 68.5518 181.925 69.1172 181.584C69.6825 181.243 70.3118 181.072 71.0052 181.072ZM87.4895 181.072C88.1722 181.072 88.7802 181.216 89.3135 181.504C89.8469 181.781 90.2682 182.203 90.5775 182.768C90.8869 183.333 91.0415 184.021 91.0415 184.832V190H89.6015V185.04C89.6015 184.165 89.3829 183.499 88.9455 183.04C88.5189 182.571 87.9375 182.336 87.2015 182.336C86.4442 182.336 85.8415 182.581 85.3935 183.072C84.9455 183.552 84.7215 184.251 84.7215 185.168V190H83.2815V185.04C83.2815 184.165 83.0629 183.499 82.6255 183.04C82.1989 182.571 81.6175 182.336 80.8815 182.336C80.1242 182.336 79.5215 182.581 79.0735 183.072C78.6255 183.552 78.4015 184.251 78.4015 185.168V190H76.9455V181.232H78.4015V182.496C78.6895 182.037 79.0735 181.685 79.5535 181.44C80.0442 181.195 80.5829 181.072 81.1695 181.072C81.9055 181.072 82.5562 181.237 83.1215 181.568C83.6869 181.899 84.1082 182.384 84.3855 183.024C84.6309 182.405 85.0362 181.925 85.6015 181.584C86.1669 181.243 86.7962 181.072 87.4895 181.072ZM92.8859 185.584C92.8859 184.688 93.0672 183.904 93.4299 183.232C93.7926 182.549 94.2886 182.021 94.9179 181.648C95.5579 181.275 96.2672 181.088 97.0459 181.088C97.8139 181.088 98.4806 181.253 99.0459 181.584C99.6112 181.915 100.033 182.331 100.31 182.832V181.232H101.782V190H100.31V188.368C100.022 188.88 99.5899 189.307 99.0139 189.648C98.4486 189.979 97.7872 190.144 97.0299 190.144C96.2512 190.144 95.5472 189.952 94.9179 189.568C94.2886 189.184 93.7926 188.645 93.4299 187.952C93.0672 187.259 92.8859 186.469 92.8859 185.584ZM100.31 185.6C100.31 184.939 100.177 184.363 99.9099 183.872C99.6432 183.381 99.2806 183.008 98.8219 182.752C98.3739 182.485 97.8779 182.352 97.3339 182.352C96.7899 182.352 96.2939 182.48 95.8459 182.736C95.3979 182.992 95.0406 183.365 94.7739 183.856C94.5072 184.347 94.3739 184.923 94.3739 185.584C94.3739 186.256 94.5072 186.843 94.7739 187.344C95.0406 187.835 95.3979 188.213 95.8459 188.48C96.2939 188.736 96.7899 188.864 97.3339 188.864C97.8779 188.864 98.3739 188.736 98.8219 188.48C99.2806 188.213 99.6432 187.835 99.9099 187.344C100.177 186.843 100.31 186.261 100.31 185.6ZM106.018 182.432V187.6C106.018 188.027 106.109 188.331 106.29 188.512C106.472 188.683 106.786 188.768 107.234 188.768H108.306V190H106.994C106.184 190 105.576 189.813 105.17 189.44C104.765 189.067 104.562 188.453 104.562 187.6V182.432H103.426V181.232H104.562V179.024H106.018V181.232H108.306V182.432H106.018ZM118.071 185.28C118.071 185.557 118.055 185.851 118.023 186.16H111.015C111.068 187.024 111.361 187.701 111.895 188.192C112.439 188.672 113.095 188.912 113.863 188.912C114.492 188.912 115.015 188.768 115.431 188.48C115.857 188.181 116.156 187.787 116.327 187.296H117.895C117.66 188.139 117.191 188.827 116.487 189.36C115.783 189.883 114.908 190.144 113.863 190.144C113.031 190.144 112.284 189.957 111.623 189.584C110.972 189.211 110.46 188.683 110.087 188C109.713 187.307 109.527 186.507 109.527 185.6C109.527 184.693 109.708 183.899 110.071 183.216C110.433 182.533 110.94 182.011 111.591 181.648C112.252 181.275 113.009 181.088 113.863 181.088C114.695 181.088 115.431 181.269 116.071 181.632C116.711 181.995 117.201 182.496 117.543 183.136C117.895 183.765 118.071 184.48 118.071 185.28ZM116.567 184.976C116.567 184.421 116.444 183.947 116.199 183.552C115.953 183.147 115.617 182.843 115.191 182.64C114.775 182.427 114.311 182.32 113.799 182.32C113.063 182.32 112.433 182.555 111.911 183.024C111.399 183.493 111.105 184.144 111.031 184.976H116.567ZM123.096 190.144C122.424 190.144 121.822 190.032 121.288 189.808C120.755 189.573 120.334 189.253 120.024 188.848C119.715 188.432 119.544 187.957 119.512 187.424H121.016C121.059 187.861 121.262 188.219 121.624 188.496C121.998 188.773 122.483 188.912 123.08 188.912C123.635 188.912 124.072 188.789 124.392 188.544C124.712 188.299 124.872 187.989 124.872 187.616C124.872 187.232 124.702 186.949 124.36 186.768C124.019 186.576 123.491 186.389 122.776 186.208C122.126 186.037 121.592 185.867 121.176 185.696C120.771 185.515 120.419 185.253 120.12 184.912C119.832 184.56 119.688 184.101 119.688 183.536C119.688 183.088 119.822 182.677 120.088 182.304C120.355 181.931 120.734 181.637 121.224 181.424C121.715 181.2 122.275 181.088 122.904 181.088C123.875 181.088 124.659 181.333 125.256 181.824C125.854 182.315 126.174 182.987 126.216 183.84H124.76C124.728 183.381 124.542 183.013 124.2 182.736C123.87 182.459 123.422 182.32 122.856 182.32C122.334 182.32 121.918 182.432 121.608 182.656C121.299 182.88 121.144 183.173 121.144 183.536C121.144 183.824 121.235 184.064 121.416 184.256C121.608 184.437 121.843 184.587 122.12 184.704C122.408 184.811 122.803 184.933 123.304 185.072C123.934 185.243 124.446 185.413 124.84 185.584C125.235 185.744 125.571 185.989 125.848 186.32C126.136 186.651 126.286 187.083 126.296 187.616C126.296 188.096 126.163 188.528 125.896 188.912C125.63 189.296 125.251 189.6 124.76 189.824C124.28 190.037 123.726 190.144 123.096 190.144ZM140.617 185.28C140.617 185.557 140.601 185.851 140.569 186.16H133.561C133.615 187.024 133.908 187.701 134.441 188.192C134.985 188.672 135.641 188.912 136.409 188.912C137.039 188.912 137.561 188.768 137.977 188.48C138.404 188.181 138.703 187.787 138.873 187.296H140.441C140.207 188.139 139.737 188.827 139.033 189.36C138.329 189.883 137.455 190.144 136.409 190.144C135.577 190.144 134.831 189.957 134.169 189.584C133.519 189.211 133.007 188.683 132.633 188C132.26 187.307 132.073 186.507 132.073 185.6C132.073 184.693 132.255 183.899 132.617 183.216C132.98 182.533 133.487 182.011 134.137 181.648C134.799 181.275 135.556 181.088 136.409 181.088C137.241 181.088 137.977 181.269 138.617 181.632C139.257 181.995 139.748 182.496 140.089 183.136C140.441 183.765 140.617 184.48 140.617 185.28ZM139.113 184.976C139.113 184.421 138.991 183.947 138.745 183.552C138.5 183.147 138.164 182.843 137.737 182.64C137.321 182.427 136.857 182.32 136.345 182.32C135.609 182.32 134.98 182.555 134.457 183.024C133.945 183.493 133.652 184.144 133.577 184.976H139.113ZM141.995 185.584C141.995 184.688 142.177 183.904 142.539 183.232C142.902 182.549 143.398 182.021 144.027 181.648C144.667 181.275 145.377 181.088 146.155 181.088C146.923 181.088 147.59 181.253 148.155 181.584C148.721 181.915 149.142 182.331 149.419 182.832V181.232H150.891V190H149.419V188.368C149.131 188.88 148.699 189.307 148.123 189.648C147.558 189.979 146.897 190.144 146.139 190.144C145.361 190.144 144.657 189.952 144.027 189.568C143.398 189.184 142.902 188.645 142.539 187.952C142.177 187.259 141.995 186.469 141.995 185.584ZM149.419 185.6C149.419 184.939 149.286 184.363 149.019 183.872C148.753 183.381 148.39 183.008 147.931 182.752C147.483 182.485 146.987 182.352 146.443 182.352C145.899 182.352 145.403 182.48 144.955 182.736C144.507 182.992 144.15 183.365 143.883 183.856C143.617 184.347 143.483 184.923 143.483 185.584C143.483 186.256 143.617 186.843 143.883 187.344C144.15 187.835 144.507 188.213 144.955 188.48C145.403 188.736 145.899 188.864 146.443 188.864C146.987 188.864 147.483 188.736 147.931 188.48C148.39 188.213 148.753 187.835 149.019 187.344C149.286 186.843 149.419 186.261 149.419 185.6ZM156.456 190.144C155.784 190.144 155.181 190.032 154.648 189.808C154.114 189.573 153.693 189.253 153.384 188.848C153.074 188.432 152.904 187.957 152.872 187.424H154.376C154.418 187.861 154.621 188.219 154.984 188.496C155.357 188.773 155.842 188.912 156.44 188.912C156.994 188.912 157.432 188.789 157.752 188.544C158.072 188.299 158.232 187.989 158.232 187.616C158.232 187.232 158.061 186.949 157.72 186.768C157.378 186.576 156.85 186.389 156.136 186.208C155.485 186.037 154.952 185.867 154.536 185.696C154.13 185.515 153.778 185.253 153.48 184.912C153.192 184.56 153.048 184.101 153.048 183.536C153.048 183.088 153.181 182.677 153.448 182.304C153.714 181.931 154.093 181.637 154.584 181.424C155.074 181.2 155.634 181.088 156.264 181.088C157.234 181.088 158.018 181.333 158.616 181.824C159.213 182.315 159.533 182.987 159.576 183.84H158.12C158.088 183.381 157.901 183.013 157.56 182.736C157.229 182.459 156.781 182.32 156.216 182.32C155.693 182.32 155.277 182.432 154.968 182.656C154.658 182.88 154.504 183.173 154.504 183.536C154.504 183.824 154.594 184.064 154.776 184.256C154.968 184.437 155.202 184.587 155.48 184.704C155.768 184.811 156.162 184.933 156.664 185.072C157.293 185.243 157.805 185.413 158.2 185.584C158.594 185.744 158.93 185.989 159.208 186.32C159.496 186.651 159.645 187.083 159.656 187.616C159.656 188.096 159.522 188.528 159.256 188.912C158.989 189.296 158.61 189.6 158.12 189.824C157.64 190.037 157.085 190.144 156.456 190.144ZM162.463 179.808C162.186 179.808 161.951 179.712 161.759 179.52C161.567 179.328 161.471 179.093 161.471 178.816C161.471 178.539 161.567 178.304 161.759 178.112C161.951 177.92 162.186 177.824 162.463 177.824C162.73 177.824 162.954 177.92 163.135 178.112C163.327 178.304 163.423 178.539 163.423 178.816C163.423 179.093 163.327 179.328 163.135 179.52C162.954 179.712 162.73 179.808 162.463 179.808ZM163.167 181.232V190H161.711V181.232H163.167ZM167.105 178.16V190H165.649V178.16H167.105ZM177.138 181.232L171.858 194.128H170.354L172.082 189.904L168.546 181.232H170.162L172.914 188.336L175.634 181.232H177.138ZM183.619 179.808C183.342 179.808 183.107 179.712 182.915 179.52C182.723 179.328 182.627 179.093 182.627 178.816C182.627 178.539 182.723 178.304 182.915 178.112C183.107 177.92 183.342 177.824 183.619 177.824C183.886 177.824 184.11 177.92 184.291 178.112C184.483 178.304 184.579 178.539 184.579 178.816C184.579 179.093 184.483 179.328 184.291 179.52C184.11 179.712 183.886 179.808 183.619 179.808ZM184.323 181.232V190H182.867V181.232H184.323ZM191.077 181.072C192.144 181.072 193.008 181.397 193.669 182.048C194.33 182.688 194.661 183.616 194.661 184.832V190H193.221V185.04C193.221 184.165 193.002 183.499 192.565 183.04C192.128 182.571 191.53 182.336 190.773 182.336C190.005 182.336 189.392 182.576 188.933 183.056C188.485 183.536 188.261 184.235 188.261 185.152V190H186.805V181.232H188.261V182.48C188.549 182.032 188.938 181.685 189.429 181.44C189.93 181.195 190.48 181.072 191.077 181.072ZM205.129 190.144C204.308 190.144 203.561 189.957 202.889 189.584C202.228 189.211 201.705 188.683 201.321 188C200.948 187.307 200.761 186.507 200.761 185.6C200.761 184.704 200.953 183.915 201.337 183.232C201.732 182.539 202.265 182.011 202.937 181.648C203.609 181.275 204.361 181.088 205.193 181.088C206.025 181.088 206.777 181.275 207.449 181.648C208.121 182.011 208.649 182.533 209.033 183.216C209.428 183.899 209.625 184.693 209.625 185.6C209.625 186.507 209.422 187.307 209.017 188C208.622 188.683 208.084 189.211 207.401 189.584C206.718 189.957 205.961 190.144 205.129 190.144ZM205.129 188.864C205.652 188.864 206.142 188.741 206.601 188.496C207.06 188.251 207.428 187.883 207.705 187.392C207.993 186.901 208.137 186.304 208.137 185.6C208.137 184.896 207.998 184.299 207.721 183.808C207.444 183.317 207.081 182.955 206.633 182.72C206.185 182.475 205.7 182.352 205.177 182.352C204.644 182.352 204.153 182.475 203.705 182.72C203.268 182.955 202.916 183.317 202.649 183.808C202.382 184.299 202.249 184.896 202.249 185.6C202.249 186.315 202.377 186.917 202.633 187.408C202.9 187.899 203.252 188.267 203.689 188.512C204.126 188.747 204.606 188.864 205.129 188.864ZM215.811 181.072C216.878 181.072 217.742 181.397 218.403 182.048C219.065 182.688 219.395 183.616 219.395 184.832V190H217.955V185.04C217.955 184.165 217.737 183.499 217.299 183.04C216.862 182.571 216.265 182.336 215.507 182.336C214.739 182.336 214.126 182.576 213.667 183.056C213.219 183.536 212.995 184.235 212.995 185.152V190H211.539V181.232H212.995V182.48C213.283 182.032 213.673 181.685 214.163 181.44C214.665 181.195 215.214 181.072 215.811 181.072ZM229.774 185.28C229.774 185.557 229.758 185.851 229.726 186.16H222.718C222.771 187.024 223.064 187.701 223.598 188.192C224.142 188.672 224.798 188.912 225.566 188.912C226.195 188.912 226.718 188.768 227.134 188.48C227.56 188.181 227.859 187.787 228.03 187.296H229.598C229.363 188.139 228.894 188.827 228.19 189.36C227.486 189.883 226.611 190.144 225.566 190.144C224.734 190.144 223.987 189.957 223.326 189.584C222.675 189.211 222.163 188.683 221.79 188C221.416 187.307 221.23 186.507 221.23 185.6C221.23 184.693 221.411 183.899 221.774 183.216C222.136 182.533 222.643 182.011 223.294 181.648C223.955 181.275 224.712 181.088 225.566 181.088C226.398 181.088 227.134 181.269 227.774 181.632C228.414 181.995 228.904 182.496 229.246 183.136C229.598 183.765 229.774 184.48 229.774 185.28ZM228.27 184.976C228.27 184.421 228.147 183.947 227.902 183.552C227.656 183.147 227.32 182.843 226.894 182.64C226.478 182.427 226.014 182.32 225.502 182.32C224.766 182.32 224.136 182.555 223.614 183.024C223.102 183.493 222.808 184.144 222.734 184.976H228.27ZM237.417 182.848C237.705 182.347 238.132 181.931 238.697 181.6C239.273 181.259 239.94 181.088 240.697 181.088C241.476 181.088 242.18 181.275 242.809 181.648C243.449 182.021 243.95 182.549 244.313 183.232C244.676 183.904 244.857 184.688 244.857 185.584C244.857 186.469 244.676 187.259 244.313 187.952C243.95 188.645 243.449 189.184 242.809 189.568C242.18 189.952 241.476 190.144 240.697 190.144C239.95 190.144 239.289 189.979 238.713 189.648C238.148 189.307 237.716 188.885 237.417 188.384V194.16H235.961V181.232H237.417V182.848ZM243.369 185.584C243.369 184.923 243.236 184.347 242.969 183.856C242.702 183.365 242.34 182.992 241.881 182.736C241.433 182.48 240.937 182.352 240.393 182.352C239.86 182.352 239.364 182.485 238.905 182.752C238.457 183.008 238.094 183.387 237.817 183.888C237.55 184.379 237.417 184.949 237.417 185.6C237.417 186.261 237.55 186.843 237.817 187.344C238.094 187.835 238.457 188.213 238.905 188.48C239.364 188.736 239.86 188.864 240.393 188.864C240.937 188.864 241.433 188.736 241.881 188.48C242.34 188.213 242.702 187.835 242.969 187.344C243.236 186.843 243.369 186.256 243.369 185.584ZM248.23 178.16V190H246.774V178.16H248.23ZM250.167 185.584C250.167 184.688 250.348 183.904 250.711 183.232C251.074 182.549 251.57 182.021 252.199 181.648C252.839 181.275 253.548 181.088 254.327 181.088C255.095 181.088 255.762 181.253 256.327 181.584C256.892 181.915 257.314 182.331 257.591 182.832V181.232H259.063V190H257.591V188.368C257.303 188.88 256.871 189.307 256.295 189.648C255.73 189.979 255.068 190.144 254.311 190.144C253.532 190.144 252.828 189.952 252.199 189.568C251.57 189.184 251.074 188.645 250.711 187.952C250.348 187.259 250.167 186.469 250.167 185.584ZM257.591 185.6C257.591 184.939 257.458 184.363 257.191 183.872C256.924 183.381 256.562 183.008 256.103 182.752C255.655 182.485 255.159 182.352 254.615 182.352C254.071 182.352 253.575 182.48 253.127 182.736C252.679 182.992 252.322 183.365 252.055 183.856C251.788 184.347 251.655 184.923 251.655 185.584C251.655 186.256 251.788 186.843 252.055 187.344C252.322 187.835 252.679 188.213 253.127 188.48C253.575 188.736 254.071 188.864 254.615 188.864C255.159 188.864 255.655 188.736 256.103 188.48C256.562 188.213 256.924 187.835 257.191 187.344C257.458 186.843 257.591 186.261 257.591 185.6ZM263.3 182.432V187.6C263.3 188.027 263.39 188.331 263.572 188.512C263.753 188.683 264.068 188.768 264.516 188.768H265.588V190H264.276C263.465 190 262.857 189.813 262.452 189.44C262.046 189.067 261.844 188.453 261.844 187.6V182.432H260.708V181.232H261.844V179.024H263.3V181.232H265.588V182.432H263.3ZM270.92 182.432H269.08V190H267.624V182.432H266.488V181.232H267.624V180.608C267.624 179.627 267.874 178.912 268.376 178.464C268.888 178.005 269.704 177.776 270.824 177.776V178.992C270.184 178.992 269.73 179.12 269.464 179.376C269.208 179.621 269.08 180.032 269.08 180.608V181.232H270.92V182.432ZM276.441 190.144C275.62 190.144 274.873 189.957 274.201 189.584C273.54 189.211 273.017 188.683 272.633 188C272.26 187.307 272.073 186.507 272.073 185.6C272.073 184.704 272.265 183.915 272.649 183.232C273.044 182.539 273.577 182.011 274.249 181.648C274.921 181.275 275.673 181.088 276.505 181.088C277.337 181.088 278.089 181.275 278.761 181.648C279.433 182.011 279.961 182.533 280.345 183.216C280.74 183.899 280.937 184.693 280.937 185.6C280.937 186.507 280.735 187.307 280.329 188C279.935 188.683 279.396 189.211 278.713 189.584C278.031 189.957 277.273 190.144 276.441 190.144ZM276.441 188.864C276.964 188.864 277.455 188.741 277.913 188.496C278.372 188.251 278.74 187.883 279.017 187.392C279.305 186.901 279.449 186.304 279.449 185.6C279.449 184.896 279.311 184.299 279.033 183.808C278.756 183.317 278.393 182.955 277.945 182.72C277.497 182.475 277.012 182.352 276.489 182.352C275.956 182.352 275.465 182.475 275.017 182.72C274.58 182.955 274.228 183.317 273.961 183.808C273.695 184.299 273.561 184.896 273.561 185.6C273.561 186.315 273.689 186.917 273.945 187.408C274.212 187.899 274.564 188.267 275.001 188.512C275.439 188.747 275.919 188.864 276.441 188.864ZM284.308 182.656C284.564 182.155 284.926 181.765 285.396 181.488C285.876 181.211 286.457 181.072 287.14 181.072V182.576H286.756C285.124 182.576 284.308 183.461 284.308 185.232V190H282.852V181.232H284.308V182.656ZM299.365 181.072C300.047 181.072 300.655 181.216 301.189 181.504C301.722 181.781 302.143 182.203 302.453 182.768C302.762 183.333 302.917 184.021 302.917 184.832V190H301.477V185.04C301.477 184.165 301.258 183.499 300.821 183.04C300.394 182.571 299.813 182.336 299.077 182.336C298.319 182.336 297.717 182.581 297.269 183.072C296.821 183.552 296.597 184.251 296.597 185.168V190H295.157V185.04C295.157 184.165 294.938 183.499 294.501 183.04C294.074 182.571 293.493 182.336 292.757 182.336C291.999 182.336 291.397 182.581 290.949 183.072C290.501 183.552 290.277 184.251 290.277 185.168V190H288.821V181.232H290.277V182.496C290.565 182.037 290.949 181.685 291.429 181.44C291.919 181.195 292.458 181.072 293.045 181.072C293.781 181.072 294.431 181.237 294.997 181.568C295.562 181.899 295.983 182.384 296.261 183.024C296.506 182.405 296.911 181.925 297.477 181.584C298.042 181.243 298.671 181.072 299.365 181.072ZM37.4667 206.432H35.6267V214H34.1707V206.432H33.0347V205.232H34.1707V204.608C34.1707 203.627 34.4213 202.912 34.9227 202.464C35.4347 202.005 36.2507 201.776 37.3707 201.776V202.992C36.7307 202.992 36.2773 203.12 36.0107 203.376C35.7547 203.621 35.6267 204.032 35.6267 204.608V205.232H37.4667V206.432ZM42.9883 214.144C42.1669 214.144 41.4203 213.957 40.7483 213.584C40.0869 213.211 39.5643 212.683 39.1803 212C38.8069 211.307 38.6203 210.507 38.6203 209.6C38.6203 208.704 38.8123 207.915 39.1963 207.232C39.5909 206.539 40.1243 206.011 40.7963 205.648C41.4683 205.275 42.2203 205.088 43.0523 205.088C43.8843 205.088 44.6363 205.275 45.3083 205.648C45.9803 206.011 46.5083 206.533 46.8923 207.216C47.2869 207.899 47.4843 208.693 47.4843 209.6C47.4843 210.507 47.2816 211.307 46.8763 212C46.4816 212.683 45.9429 213.211 45.2603 213.584C44.5776 213.957 43.8203 214.144 42.9883 214.144ZM42.9883 212.864C43.5109 212.864 44.0016 212.741 44.4603 212.496C44.9189 212.251 45.2869 211.883 45.5643 211.392C45.8523 210.901 45.9963 210.304 45.9963 209.6C45.9963 208.896 45.8576 208.299 45.5803 207.808C45.3029 207.317 44.9403 206.955 44.4923 206.72C44.0443 206.475 43.5589 206.352 43.0363 206.352C42.5029 206.352 42.0123 206.475 41.5643 206.72C41.1269 206.955 40.7749 207.317 40.5083 207.808C40.2416 208.299 40.1083 208.896 40.1083 209.6C40.1083 210.315 40.2363 210.917 40.4923 211.408C40.7589 211.899 41.1109 212.267 41.5483 212.512C41.9856 212.747 42.4656 212.864 42.9883 212.864ZM50.8547 206.656C51.1107 206.155 51.4733 205.765 51.9427 205.488C52.4227 205.211 53.004 205.072 53.6867 205.072V206.576H53.3027C51.6707 206.576 50.8547 207.461 50.8547 209.232V214H49.3987V205.232H50.8547V206.656ZM67.185 205.232L61.905 218.128H60.401L62.129 213.904L58.593 205.232H60.209L62.961 212.336L65.681 205.232H67.185ZM72.4727 214.144C71.6513 214.144 70.9047 213.957 70.2327 213.584C69.5713 213.211 69.0487 212.683 68.6647 212C68.2913 211.307 68.1047 210.507 68.1047 209.6C68.1047 208.704 68.2967 207.915 68.6807 207.232C69.0753 206.539 69.6087 206.011 70.2807 205.648C70.9527 205.275 71.7047 205.088 72.5367 205.088C73.3687 205.088 74.1207 205.275 74.7927 205.648C75.4647 206.011 75.9927 206.533 76.3767 207.216C76.7713 207.899 76.9687 208.693 76.9687 209.6C76.9687 210.507 76.766 211.307 76.3607 212C75.966 212.683 75.4273 213.211 74.7447 213.584C74.062 213.957 73.3047 214.144 72.4727 214.144ZM72.4727 212.864C72.9953 212.864 73.486 212.741 73.9447 212.496C74.4033 212.251 74.7713 211.883 75.0487 211.392C75.3367 210.901 75.4807 210.304 75.4807 209.6C75.4807 208.896 75.342 208.299 75.0647 207.808C74.7873 207.317 74.4247 206.955 73.9767 206.72C73.5287 206.475 73.0433 206.352 72.5207 206.352C71.9873 206.352 71.4967 206.475 71.0487 206.72C70.6113 206.955 70.2593 207.317 69.9927 207.808C69.726 208.299 69.5927 208.896 69.5927 209.6C69.5927 210.315 69.7207 210.917 69.9767 211.408C70.2433 211.899 70.5953 212.267 71.0327 212.512C71.47 212.747 71.95 212.864 72.4727 212.864ZM86.659 205.232V214H85.203V212.704C84.9257 213.152 84.5364 213.504 84.035 213.76C83.5444 214.005 83.0004 214.128 82.403 214.128C81.7204 214.128 81.107 213.989 80.563 213.712C80.019 213.424 79.587 212.997 79.267 212.432C78.9577 211.867 78.803 211.179 78.803 210.368V205.232H80.243V210.176C80.243 211.04 80.4617 211.707 80.899 212.176C81.3364 212.635 81.9337 212.864 82.691 212.864C83.4697 212.864 84.083 212.624 84.531 212.144C84.979 211.664 85.203 210.965 85.203 210.048V205.232H86.659ZM90.5734 206.656C90.8294 206.155 91.1921 205.765 91.6614 205.488C92.1414 205.211 92.7227 205.072 93.4054 205.072V206.576H93.0214C91.3894 206.576 90.5734 207.461 90.5734 209.232V214H89.1174V205.232H90.5734V206.656ZM103.176 214.144C102.354 214.144 101.608 213.957 100.936 213.584C100.274 213.211 99.7518 212.683 99.3678 212C98.9944 211.307 98.8078 210.507 98.8078 209.6C98.8078 208.704 98.9998 207.915 99.3838 207.232C99.7784 206.539 100.312 206.011 100.984 205.648C101.656 205.275 102.408 205.088 103.24 205.088C104.072 205.088 104.824 205.275 105.496 205.648C106.168 206.011 106.696 206.533 107.08 207.216C107.474 207.899 107.672 208.693 107.672 209.6C107.672 210.507 107.469 211.307 107.064 212C106.669 212.683 106.13 213.211 105.448 213.584C104.765 213.957 104.008 214.144 103.176 214.144ZM103.176 212.864C103.698 212.864 104.189 212.741 104.648 212.496C105.106 212.251 105.474 211.883 105.752 211.392C106.04 210.901 106.184 210.304 106.184 209.6C106.184 208.896 106.045 208.299 105.768 207.808C105.49 207.317 105.128 206.955 104.68 206.72C104.232 206.475 103.746 206.352 103.224 206.352C102.69 206.352 102.2 206.475 101.752 206.72C101.314 206.955 100.962 207.317 100.696 207.808C100.429 208.299 100.296 208.896 100.296 209.6C100.296 210.315 100.424 210.917 100.68 211.408C100.946 211.899 101.298 212.267 101.736 212.512C102.173 212.747 102.653 212.864 103.176 212.864ZM113.858 205.072C114.925 205.072 115.789 205.397 116.45 206.048C117.111 206.688 117.442 207.616 117.442 208.832V214H116.002V209.04C116.002 208.165 115.783 207.499 115.346 207.04C114.909 206.571 114.311 206.336 113.554 206.336C112.786 206.336 112.173 206.576 111.714 207.056C111.266 207.536 111.042 208.235 111.042 209.152V214H109.586V205.232H111.042V206.48C111.33 206.032 111.719 205.685 112.21 205.44C112.711 205.195 113.261 205.072 113.858 205.072ZM125.901 207.52V208.752H119.517V207.52H125.901ZM132.249 205.088C133.006 205.088 133.668 205.253 134.233 205.584C134.809 205.915 135.236 206.331 135.513 206.832V205.232H136.985V214.192C136.985 214.992 136.814 215.701 136.473 216.32C136.132 216.949 135.641 217.44 135.001 217.792C134.372 218.144 133.636 218.32 132.793 218.32C131.641 218.32 130.681 218.048 129.913 217.504C129.145 216.96 128.692 216.219 128.553 215.28H129.993C130.153 215.813 130.484 216.24 130.985 216.56C131.486 216.891 132.089 217.056 132.793 217.056C133.593 217.056 134.244 216.805 134.745 216.304C135.257 215.803 135.513 215.099 135.513 214.192V212.352C135.225 212.864 134.798 213.291 134.233 213.632C133.668 213.973 133.006 214.144 132.249 214.144C131.47 214.144 130.761 213.952 130.121 213.568C129.492 213.184 128.996 212.645 128.633 211.952C128.27 211.259 128.089 210.469 128.089 209.584C128.089 208.688 128.27 207.904 128.633 207.232C128.996 206.549 129.492 206.021 130.121 205.648C130.761 205.275 131.47 205.088 132.249 205.088ZM135.513 209.6C135.513 208.939 135.38 208.363 135.113 207.872C134.846 207.381 134.484 207.008 134.025 206.752C133.577 206.485 133.081 206.352 132.537 206.352C131.993 206.352 131.497 206.48 131.049 206.736C130.601 206.992 130.244 207.365 129.977 207.856C129.71 208.347 129.577 208.923 129.577 209.584C129.577 210.256 129.71 210.843 129.977 211.344C130.244 211.835 130.601 212.213 131.049 212.48C131.497 212.736 131.993 212.864 132.537 212.864C133.081 212.864 133.577 212.736 134.025 212.48C134.484 212.213 134.846 211.835 135.113 211.344C135.38 210.843 135.513 210.261 135.513 209.6ZM143.27 214.144C142.448 214.144 141.702 213.957 141.03 213.584C140.368 213.211 139.846 212.683 139.462 212C139.088 211.307 138.902 210.507 138.902 209.6C138.902 208.704 139.094 207.915 139.478 207.232C139.872 206.539 140.406 206.011 141.078 205.648C141.75 205.275 142.502 205.088 143.334 205.088C144.166 205.088 144.918 205.275 145.59 205.648C146.262 206.011 146.79 206.533 147.174 207.216C147.568 207.899 147.766 208.693 147.766 209.6C147.766 210.507 147.563 211.307 147.158 212C146.763 212.683 146.224 213.211 145.542 213.584C144.859 213.957 144.102 214.144 143.27 214.144ZM143.27 212.864C143.792 212.864 144.283 212.741 144.742 212.496C145.2 212.251 145.568 211.883 145.846 211.392C146.134 210.901 146.278 210.304 146.278 209.6C146.278 208.896 146.139 208.299 145.862 207.808C145.584 207.317 145.222 206.955 144.774 206.72C144.326 206.475 143.84 206.352 143.318 206.352C142.784 206.352 142.294 206.475 141.846 206.72C141.408 206.955 141.056 207.317 140.79 207.808C140.523 208.299 140.39 208.896 140.39 209.6C140.39 210.315 140.518 210.917 140.774 211.408C141.04 211.899 141.392 212.267 141.83 212.512C142.267 212.747 142.747 212.864 143.27 212.864ZM150.432 203.808C150.155 203.808 149.92 203.712 149.728 203.52C149.536 203.328 149.44 203.093 149.44 202.816C149.44 202.539 149.536 202.304 149.728 202.112C149.92 201.92 150.155 201.824 150.432 201.824C150.699 201.824 150.923 201.92 151.104 202.112C151.296 202.304 151.392 202.539 151.392 202.816C151.392 203.093 151.296 203.328 151.104 203.52C150.923 203.712 150.699 203.808 150.432 203.808ZM151.136 205.232V214H149.68V205.232H151.136ZM157.889 205.072C158.956 205.072 159.82 205.397 160.481 206.048C161.143 206.688 161.473 207.616 161.473 208.832V214H160.033V209.04C160.033 208.165 159.815 207.499 159.377 207.04C158.94 206.571 158.343 206.336 157.585 206.336C156.817 206.336 156.204 206.576 155.745 207.056C155.297 207.536 155.073 208.235 155.073 209.152V214H153.617V205.232H155.073V206.48C155.361 206.032 155.751 205.685 156.241 205.44C156.743 205.195 157.292 205.072 157.889 205.072ZM167.468 205.088C168.225 205.088 168.886 205.253 169.452 205.584C170.028 205.915 170.454 206.331 170.732 206.832V205.232H172.204V214.192C172.204 214.992 172.033 215.701 171.692 216.32C171.35 216.949 170.86 217.44 170.22 217.792C169.59 218.144 168.854 218.32 168.012 218.32C166.86 218.32 165.9 218.048 165.132 217.504C164.364 216.96 163.91 216.219 163.772 215.28H165.212C165.372 215.813 165.702 216.24 166.204 216.56C166.705 216.891 167.308 217.056 168.012 217.056C168.812 217.056 169.462 216.805 169.964 216.304C170.476 215.803 170.732 215.099 170.732 214.192V212.352C170.444 212.864 170.017 213.291 169.452 213.632C168.886 213.973 168.225 214.144 167.468 214.144C166.689 214.144 165.98 213.952 165.34 213.568C164.71 213.184 164.214 212.645 163.852 211.952C163.489 211.259 163.308 210.469 163.308 209.584C163.308 208.688 163.489 207.904 163.852 207.232C164.214 206.549 164.71 206.021 165.34 205.648C165.98 205.275 166.689 205.088 167.468 205.088ZM170.732 209.6C170.732 208.939 170.598 208.363 170.332 207.872C170.065 207.381 169.702 207.008 169.244 206.752C168.796 206.485 168.3 206.352 167.756 206.352C167.212 206.352 166.716 206.48 166.268 206.736C165.82 206.992 165.462 207.365 165.196 207.856C164.929 208.347 164.796 208.923 164.796 209.584C164.796 210.256 164.929 210.843 165.196 211.344C165.462 211.835 165.82 212.213 166.268 212.48C166.716 212.736 167.212 212.864 167.756 212.864C168.3 212.864 168.796 212.736 169.244 212.48C169.702 212.213 170.065 211.835 170.332 211.344C170.598 210.843 170.732 210.261 170.732 209.6ZM180.386 206.848C180.674 206.347 181.101 205.931 181.666 205.6C182.242 205.259 182.909 205.088 183.666 205.088C184.445 205.088 185.149 205.275 185.778 205.648C186.418 206.021 186.919 206.549 187.282 207.232C187.645 207.904 187.826 208.688 187.826 209.584C187.826 210.469 187.645 211.259 187.282 211.952C186.919 212.645 186.418 213.184 185.778 213.568C185.149 213.952 184.445 214.144 183.666 214.144C182.919 214.144 182.258 213.979 181.682 213.648C181.117 213.307 180.685 212.885 180.386 212.384V218.16H178.93V205.232H180.386V206.848ZM186.338 209.584C186.338 208.923 186.205 208.347 185.938 207.856C185.671 207.365 185.309 206.992 184.85 206.736C184.402 206.48 183.906 206.352 183.362 206.352C182.829 206.352 182.333 206.485 181.874 206.752C181.426 207.008 181.063 207.387 180.786 207.888C180.519 208.379 180.386 208.949 180.386 209.6C180.386 210.261 180.519 210.843 180.786 211.344C181.063 211.835 181.426 212.213 181.874 212.48C182.333 212.736 182.829 212.864 183.362 212.864C183.906 212.864 184.402 212.736 184.85 212.48C185.309 212.213 185.671 211.835 185.938 211.344C186.205 210.843 186.338 210.256 186.338 209.584ZM191.198 206.656C191.454 206.155 191.817 205.765 192.286 205.488C192.766 205.211 193.348 205.072 194.03 205.072V206.576H193.646C192.014 206.576 191.198 207.461 191.198 209.232V214H189.742V205.232H191.198V206.656ZM199.535 214.144C198.714 214.144 197.967 213.957 197.295 213.584C196.634 213.211 196.111 212.683 195.727 212C195.354 211.307 195.167 210.507 195.167 209.6C195.167 208.704 195.359 207.915 195.743 207.232C196.138 206.539 196.671 206.011 197.343 205.648C198.015 205.275 198.767 205.088 199.599 205.088C200.431 205.088 201.183 205.275 201.855 205.648C202.527 206.011 203.055 206.533 203.439 207.216C203.834 207.899 204.031 208.693 204.031 209.6C204.031 210.507 203.828 211.307 203.423 212C203.028 212.683 202.49 213.211 201.807 213.584C201.124 213.957 200.367 214.144 199.535 214.144ZM199.535 212.864C200.058 212.864 200.548 212.741 201.007 212.496C201.466 212.251 201.834 211.883 202.111 211.392C202.399 210.901 202.543 210.304 202.543 209.6C202.543 208.896 202.404 208.299 202.127 207.808C201.85 207.317 201.487 206.955 201.039 206.72C200.591 206.475 200.106 206.352 199.583 206.352C199.05 206.352 198.559 206.475 198.111 206.72C197.674 206.955 197.322 207.317 197.055 207.808C196.788 208.299 196.655 208.896 196.655 209.6C196.655 210.315 196.783 210.917 197.039 211.408C197.306 211.899 197.658 212.267 198.095 212.512C198.532 212.747 199.012 212.864 199.535 212.864ZM206.73 203.808C206.452 203.808 206.218 203.712 206.026 203.52C205.844 203.328 205.754 203.093 205.754 202.816C205.754 202.539 205.844 202.304 206.026 202.112C206.218 201.92 206.452 201.824 206.73 201.824C207.007 201.824 207.236 201.92 207.418 202.112C207.61 202.304 207.706 202.539 207.706 202.816C207.706 203.093 207.61 203.328 207.418 203.52C207.236 203.712 207.007 203.808 206.73 203.808ZM207.45 215.904C207.45 216.683 207.252 217.253 206.858 217.616C206.463 217.979 205.887 218.16 205.13 218.16H204.282V216.928H204.89C205.295 216.928 205.578 216.848 205.738 216.688C205.908 216.528 205.994 216.256 205.994 215.872V205.232H207.45V215.904ZM217.914 209.28C217.914 209.557 217.898 209.851 217.866 210.16H210.858C210.912 211.024 211.205 211.701 211.738 212.192C212.282 212.672 212.938 212.912 213.706 212.912C214.336 212.912 214.858 212.768 215.274 212.48C215.701 212.181 216 211.787 216.17 211.296H217.738C217.504 212.139 217.034 212.827 216.33 213.36C215.626 213.883 214.752 214.144 213.706 214.144C212.874 214.144 212.128 213.957 211.466 213.584C210.816 213.211 210.304 212.683 209.93 212C209.557 211.307 209.37 210.507 209.37 209.6C209.37 208.693 209.552 207.899 209.914 207.216C210.277 206.533 210.784 206.011 211.434 205.648C212.096 205.275 212.853 205.088 213.706 205.088C214.538 205.088 215.274 205.269 215.914 205.632C216.554 205.995 217.045 206.496 217.386 207.136C217.738 207.765 217.914 208.48 217.914 209.28ZM216.41 208.976C216.41 208.421 216.288 207.947 216.042 207.552C215.797 207.147 215.461 206.843 215.034 206.64C214.618 206.427 214.154 206.32 213.642 206.32C212.906 206.32 212.277 206.555 211.754 207.024C211.242 207.493 210.949 208.144 210.874 208.976H216.41ZM219.292 209.6C219.292 208.693 219.473 207.904 219.836 207.232C220.199 206.549 220.7 206.021 221.34 205.648C221.991 205.275 222.732 205.088 223.564 205.088C224.641 205.088 225.527 205.349 226.22 205.872C226.924 206.395 227.388 207.12 227.612 208.048H226.044C225.895 207.515 225.601 207.093 225.164 206.784C224.737 206.475 224.204 206.32 223.564 206.32C222.732 206.32 222.06 206.608 221.548 207.184C221.036 207.749 220.78 208.555 220.78 209.6C220.78 210.656 221.036 211.472 221.548 212.048C222.06 212.624 222.732 212.912 223.564 212.912C224.204 212.912 224.737 212.763 225.164 212.464C225.591 212.165 225.884 211.739 226.044 211.184H227.612C227.377 212.08 226.908 212.8 226.204 213.344C225.5 213.877 224.62 214.144 223.564 214.144C222.732 214.144 221.991 213.957 221.34 213.584C220.7 213.211 220.199 212.683 219.836 212C219.473 211.317 219.292 210.517 219.292 209.6ZM231.331 206.432V211.6C231.331 212.027 231.422 212.331 231.603 212.512C231.784 212.683 232.099 212.768 232.547 212.768H233.619V214H232.307C231.496 214 230.888 213.813 230.483 213.44C230.078 213.067 229.875 212.453 229.875 211.6V206.432H228.739V205.232H229.875V203.024H231.331V205.232H233.619V206.432H231.331ZM238.487 214.144C237.815 214.144 237.212 214.032 236.679 213.808C236.146 213.573 235.724 213.253 235.415 212.848C235.106 212.432 234.935 211.957 234.903 211.424H236.407C236.45 211.861 236.652 212.219 237.015 212.496C237.388 212.773 237.874 212.912 238.471 212.912C239.026 212.912 239.463 212.789 239.783 212.544C240.103 212.299 240.263 211.989 240.263 211.616C240.263 211.232 240.092 210.949 239.751 210.768C239.41 210.576 238.882 210.389 238.167 210.208C237.516 210.037 236.983 209.867 236.567 209.696C236.162 209.515 235.81 209.253 235.511 208.912C235.223 208.56 235.079 208.101 235.079 207.536C235.079 207.088 235.212 206.677 235.479 206.304C235.746 205.931 236.124 205.637 236.615 205.424C237.106 205.2 237.666 205.088 238.295 205.088C239.266 205.088 240.05 205.333 240.647 205.824C241.244 206.315 241.564 206.987 241.607 207.84H240.151C240.119 207.381 239.932 207.013 239.591 206.736C239.26 206.459 238.812 206.32 238.247 206.32C237.724 206.32 237.308 206.432 236.999 206.656C236.69 206.88 236.535 207.173 236.535 207.536C236.535 207.824 236.626 208.064 236.807 208.256C236.999 208.437 237.234 208.587 237.511 208.704C237.799 208.811 238.194 208.933 238.695 209.072C239.324 209.243 239.836 209.413 240.231 209.584C240.626 209.744 240.962 209.989 241.239 210.32C241.527 210.651 241.676 211.083 241.687 211.616C241.687 212.096 241.554 212.528 241.287 212.912C241.02 213.296 240.642 213.6 240.151 213.824C239.671 214.037 239.116 214.144 238.487 214.144Z" fill="#495057"/>
<path fill-rule="evenodd" clip-rule="evenodd" d="M127.828 412.8C129.596 427.09 142.741 437.229 157.164 435.427C171.587 433.625 181.86 420.561 180.091 406.271C178.323 391.981 165.178 381.842 150.755 383.644C136.333 385.446 126.059 398.51 127.828 412.8Z" fill="#262725"/>
<path fill-rule="evenodd" clip-rule="evenodd" d="M200.875 359.333L160.932 388.368C159.266 389.596 158.397 391.949 158.724 395.13C159.376 401.454 164.513 408.668 170.189 411.229C172.969 412.484 175.366 412.392 177.013 411.226L217.126 382.067C215.478 383.3 213.04 383.423 210.203 382.143C204.527 379.581 199.39 372.366 198.738 366.042C198.415 362.907 199.254 360.576 200.875 359.333Z" fill="white"/>
<path fill-rule="evenodd" clip-rule="evenodd" d="M200.875 359.333L160.932 388.368C159.266 389.596 158.397 391.949 158.724 395.13C159.376 401.454 164.513 408.668 170.189 411.229C172.969 412.484 175.366 412.392 177.013 411.226L217.126 382.067C215.478 383.3 213.04 383.423 210.203 382.143C204.527 379.581 199.39 372.366 198.738 366.042C198.415 362.907 199.254 360.576 200.875 359.333Z" stroke="#262725" stroke-width="2" stroke-linecap="round" stroke-linejoin="round"/>
<path fill-rule="evenodd" clip-rule="evenodd" d="M198.747 366.014C199.399 372.336 204.534 379.549 210.209 382.109C215.883 384.67 219.961 381.616 219.31 375.294C218.659 368.971 213.523 361.759 207.849 359.199C202.174 356.638 198.096 359.691 198.747 366.014Z" fill="#262725"/>
<path fill-rule="evenodd" clip-rule="evenodd" d="M198.747 366.014C199.399 372.336 204.534 379.549 210.209 382.109C215.883 384.67 219.961 381.616 219.31 375.294C218.659 368.971 213.523 361.759 207.849 359.199C202.174 356.638 198.096 359.691 198.747 366.014Z" stroke="#262725" stroke-width="2" stroke-linecap="round" stroke-linejoin="round"/>
<path fill-rule="evenodd" clip-rule="evenodd" d="M242.188 461.485C256.224 465.081 270.505 456.571 274.06 442.493C277.615 428.415 269.107 414.066 255.071 410.47C241.037 406.874 226.755 415.384 223.2 429.462C219.645 443.54 228.153 457.889 242.188 461.485Z" fill="#262725"/>
<path fill-rule="evenodd" clip-rule="evenodd" d="M216.164 368.781L230.008 422.115C230.603 424.346 232.678 426.207 236.087 427.162C242.864 429.059 252.363 426.657 257.285 421.8C259.697 419.421 260.566 416.893 260.028 414.707L246.123 361.146C246.73 363.361 245.875 365.945 243.415 368.372C238.493 373.229 228.993 375.631 222.216 373.734C218.856 372.793 216.792 370.971 216.164 368.781Z" fill="white"/>
<path fill-rule="evenodd" clip-rule="evenodd" d="M216.164 368.781L230.008 422.115C230.603 424.346 232.678 426.207 236.087 427.162C242.864 429.059 252.363 426.657 257.285 421.8C259.697 419.421 260.566 416.893 260.028 414.707L246.123 361.146C246.73 363.361 245.875 365.945 243.415 368.372C238.493 373.229 228.993 375.631 222.216 373.734C218.856 372.793 216.792 370.971 216.164 368.781Z" stroke="#262725" stroke-width="2" stroke-linecap="round" stroke-linejoin="round"/>
<path fill-rule="evenodd" clip-rule="evenodd" d="M222.24 373.741C229.019 375.638 238.52 373.236 243.444 368.378C248.367 363.521 246.861 358.036 240.082 356.138C233.303 354.24 223.802 356.643 218.878 361.501C213.955 366.358 215.461 371.843 222.24 373.741Z" fill="#262725"/>
<path fill-rule="evenodd" clip-rule="evenodd" d="M222.24 373.741C229.019 375.638 238.52 373.236 243.444 368.378C248.367 363.521 246.861 358.036 240.082 356.138C233.303 354.24 223.802 356.643 218.878 361.501C213.955 366.358 215.461 371.843 222.24 373.741Z" stroke="#262725" stroke-width="2" stroke-linecap="round" stroke-linejoin="round"/>
<path fill-rule="evenodd" clip-rule="evenodd" d="M298.273 395.314C304.009 390.585 304.849 382.07 300.147 376.311C295.445 370.553 286.971 369.716 281.234 374.446C275.498 379.175 274.658 387.69 279.36 393.449C284.062 399.207 292.536 400.043 298.273 395.314Z" fill="#262725"/>
<path fill-rule="evenodd" clip-rule="evenodd" d="M252.291 377.927L278.392 388.397C279.489 388.829 280.884 388.534 282.311 387.409C285.149 385.173 287.048 380.5 286.549 376.981C286.305 375.257 285.531 374.127 284.47 373.686L258.257 363.171C259.351 363.593 260.152 364.733 260.401 366.492C260.9 370.012 259 374.685 256.163 376.921C254.756 378.029 253.381 378.332 252.291 377.927Z" fill="white"/>
<path fill-rule="evenodd" clip-rule="evenodd" d="M252.291 377.927L278.392 388.397C279.489 388.829 280.884 388.534 282.311 387.409C285.149 385.173 287.048 380.5 286.549 376.981C286.305 375.257 285.531 374.127 284.47 373.686L258.257 363.171C259.351 363.593 260.152 364.733 260.401 366.492C260.9 370.012 259 374.685 256.163 376.921C254.756 378.029 253.381 378.332 252.291 377.927Z" stroke="#262725" stroke-width="2" stroke-linecap="round" stroke-linejoin="round"/>
<path fill-rule="evenodd" clip-rule="evenodd" d="M256.164 376.914C259.002 374.678 260.902 370.004 260.403 366.484C259.905 362.964 257.196 361.922 254.358 364.158C251.519 366.395 249.62 371.068 250.118 374.588C250.617 378.108 253.326 379.151 256.164 376.914Z" fill="#262725"/>
<path fill-rule="evenodd" clip-rule="evenodd" d="M256.164 376.914C259.002 374.678 260.902 370.004 260.403 366.484C259.905 362.964 257.196 361.922 254.358 364.158C251.519 366.395 249.62 371.068 250.118 374.588C250.617 378.108 253.326 379.151 256.164 376.914Z" stroke="#262725" stroke-width="2" stroke-linecap="round" stroke-linejoin="round"/>
<path d="M182.148 359.49C182.148 382.54 200.773 401.25 223.708 401.25C246.643 401.25 265.268 382.54 265.268 359.49C265.268 336.44 246.643 317.73 223.708 317.73C200.773 317.73 182.148 336.44 182.148 359.49Z" fill="#6033ED" stroke="black"/>
<path fill-rule="evenodd" clip-rule="evenodd" d="M249.53 283.344L224.719 326.683C223.691 328.506 223.857 331.035 225.462 333.828C228.653 339.381 236.331 343.889 242.598 343.889C245.668 343.889 247.833 342.808 248.869 341.051L273.785 297.526C272.775 299.346 270.585 300.472 267.452 300.472C261.185 300.472 253.507 295.963 250.316 290.41C248.734 287.657 248.55 285.162 249.53 283.344Z" fill="white"/>
<path fill-rule="evenodd" clip-rule="evenodd" d="M249.53 283.344L224.719 326.683C223.691 328.506 223.857 331.035 225.462 333.828C228.653 339.381 236.331 343.889 242.598 343.889C245.668 343.889 247.833 342.808 248.869 341.051L273.784 297.526C272.775 299.346 270.585 300.472 267.452 300.472C261.185 300.472 253.507 295.963 250.316 290.41C248.734 287.657 248.55 285.162 249.53 283.344Z" stroke="#262725" stroke-width="2" stroke-linecap="round" stroke-linejoin="round"/>
<path fill-rule="evenodd" clip-rule="evenodd" d="M250.316 290.41C253.507 295.963 261.185 300.472 267.452 300.472C273.719 300.472 276.217 295.963 273.026 290.41C269.834 284.857 262.156 280.348 255.889 280.348C249.622 280.348 247.125 284.857 250.316 290.41Z" fill="#262725"/>
<path fill-rule="evenodd" clip-rule="evenodd" d="M250.316 290.41C253.507 295.963 261.185 300.472 267.452 300.472C273.719 300.472 276.217 295.963 273.026 290.41C269.834 284.857 262.156 280.348 255.889 280.348C249.622 280.348 247.125 284.857 250.316 290.41Z" stroke="#262725" stroke-width="2" stroke-linecap="round" stroke-linejoin="round"/>
<path fill-rule="evenodd" clip-rule="evenodd" d="M239.34 273.878C239.34 290.921 253.111 304.757 270.073 304.757C287.034 304.757 300.805 290.921 300.805 273.878C300.805 256.836 287.034 243 270.073 243C253.111 243 239.34 256.836 239.34 273.878Z" fill="#262725"/>
<path fill-rule="evenodd" clip-rule="evenodd" d="M168.506 320.639L193.678 344.162C194.74 345.141 196.458 345.426 198.578 344.782C202.791 343.5 207 339.03 207.972 334.804C208.448 332.734 208.06 331.105 207.044 330.131L181.764 306.508C182.826 307.474 183.241 309.128 182.755 311.24C181.783 315.465 177.573 319.936 173.36 321.217C171.271 321.852 169.571 321.585 168.506 320.639Z" fill="white"/>
<path fill-rule="evenodd" clip-rule="evenodd" d="M168.506 320.639L193.678 344.162C194.74 345.141 196.458 345.426 198.578 344.782C202.791 343.5 207 339.03 207.972 334.804C208.448 332.734 208.06 331.105 207.044 330.131L181.764 306.508C182.826 307.474 183.241 309.128 182.755 311.24C181.783 315.465 177.573 319.936 173.36 321.217C171.271 321.852 169.571 321.585 168.506 320.639Z" stroke="#262725" stroke-width="2" stroke-linecap="round" stroke-linejoin="round"/>
<path fill-rule="evenodd" clip-rule="evenodd" d="M173.386 321.227C177.601 319.945 181.813 315.472 182.786 311.245C183.758 307.017 181.125 304.626 176.91 305.907C172.694 307.189 168.483 311.662 167.511 315.889C166.538 320.117 169.171 322.509 173.386 321.227Z" fill="#262725"/>
<path fill-rule="evenodd" clip-rule="evenodd" d="M173.386 321.227C177.601 319.945 181.813 315.472 182.786 311.245C183.758 307.017 181.125 304.626 176.91 305.907C172.694 307.189 168.483 311.662 167.511 315.889C166.538 320.117 169.171 322.509 173.386 321.227Z" stroke="#262725" stroke-width="2" stroke-linecap="round" stroke-linejoin="round"/>
<path fill-rule="evenodd" clip-rule="evenodd" d="M160.624 326.051C172.033 328.718 183.436 321.592 186.072 310.148C188.708 298.703 181.585 287.247 170.176 284.58C158.768 281.913 147.366 289.039 144.73 300.483C142.094 311.928 149.216 323.384 160.624 326.051Z" fill="#262725"/>
</svg>
