<svg width="339" height="500" viewBox="0 0 339 500" fill="none" xmlns="http://www.w3.org/2000/svg">
<rect x="1" y="0.5" width="337" height="499" rx="7.5" fill="white"/>
<rect x="1" y="0.5" width="337" height="499" rx="7.5" stroke="#556AEB"/>
<rect x="32.5" y="32" width="48" height="48" rx="8" fill="#212529"/>
<path d="M56.5142 62.1591C55.7339 62.1591 55.0369 62.0246 54.4233 61.7557C53.8134 61.4867 53.3305 61.1136 52.9744 60.6364C52.6222 60.1553 52.4328 59.5985 52.4062 58.9659H54.1903C54.2131 59.3106 54.3286 59.6098 54.5369 59.8636C54.7491 60.1136 55.0256 60.3068 55.3665 60.4432C55.7074 60.5795 56.0862 60.6477 56.5028 60.6477C56.9612 60.6477 57.3665 60.5682 57.7188 60.4091C58.0748 60.25 58.3532 60.0284 58.554 59.7443C58.7547 59.4564 58.8551 59.125 58.8551 58.75C58.8551 58.3598 58.7547 58.017 58.554 57.7216C58.357 57.4223 58.0672 57.1875 57.6847 57.017C57.3059 56.8466 56.8475 56.7614 56.3097 56.7614H55.3267V55.3295H56.3097C56.7415 55.3295 57.1203 55.2519 57.446 55.0966C57.7756 54.9413 58.0331 54.7254 58.2188 54.4489C58.4044 54.1686 58.4972 53.8409 58.4972 53.4659C58.4972 53.1061 58.4157 52.7936 58.2528 52.5284C58.0938 52.2595 57.8665 52.0492 57.571 51.8977C57.2794 51.7462 56.9347 51.6705 56.5369 51.6705C56.1581 51.6705 55.804 51.7405 55.4744 51.8807C55.1487 52.017 54.8835 52.214 54.679 52.4716C54.4744 52.7254 54.3646 53.0303 54.3494 53.3864H52.6506C52.6695 52.7576 52.8551 52.2045 53.2074 51.7273C53.5634 51.25 54.0331 50.8769 54.6165 50.608C55.1998 50.339 55.8475 50.2045 56.5597 50.2045C57.3059 50.2045 57.9498 50.3504 58.4915 50.642C59.0369 50.9299 59.4574 51.3144 59.7528 51.7955C60.0521 52.2765 60.1998 52.803 60.196 53.375C60.1998 54.0265 60.018 54.5795 59.6506 55.0341C59.2869 55.4886 58.8021 55.7936 58.196 55.9489V56.0398C58.9688 56.1572 59.5672 56.464 59.9915 56.9602C60.4195 57.4564 60.6316 58.072 60.6278 58.8068C60.6316 59.447 60.4536 60.0208 60.0938 60.5284C59.7377 61.036 59.2509 61.4356 58.6335 61.7273C58.0161 62.0152 57.3097 62.1591 56.5142 62.1591Z" fill="white"/>
<path d="M38.7 118.14C37.7267 118.14 36.8467 117.973 36.06 117.64C35.2867 117.307 34.6733 116.827 34.22 116.2C33.7667 115.573 33.5333 114.833 33.52 113.98H36.52C36.56 114.553 36.76 115.007 37.12 115.34C37.4933 115.673 38 115.84 38.64 115.84C39.2933 115.84 39.8067 115.687 40.18 115.38C40.5533 115.06 40.74 114.647 40.74 114.14C40.74 113.727 40.6133 113.387 40.36 113.12C40.1067 112.853 39.7867 112.647 39.4 112.5C39.0267 112.34 38.5067 112.167 37.84 111.98C36.9333 111.713 36.1933 111.453 35.62 111.2C35.06 110.933 34.5733 110.54 34.16 110.02C33.76 109.487 33.56 108.78 33.56 107.9C33.56 107.073 33.7667 106.353 34.18 105.74C34.5933 105.127 35.1733 104.66 35.92 104.34C36.6667 104.007 37.52 103.84 38.48 103.84C39.92 103.84 41.0867 104.193 41.98 104.9C42.8867 105.593 43.3867 106.567 43.48 107.82H40.4C40.3733 107.34 40.1667 106.947 39.78 106.64C39.4067 106.32 38.9067 106.16 38.28 106.16C37.7333 106.16 37.2933 106.3 36.96 106.58C36.64 106.86 36.48 107.267 36.48 107.8C36.48 108.173 36.6 108.487 36.84 108.74C37.0933 108.98 37.4 109.18 37.76 109.34C38.1333 109.487 38.6533 109.66 39.32 109.86C40.2267 110.127 40.9667 110.393 41.54 110.66C42.1133 110.927 42.6067 111.327 43.02 111.86C43.4333 112.393 43.64 113.093 43.64 113.96C43.64 114.707 43.4467 115.4 43.06 116.04C42.6733 116.68 42.1067 117.193 41.36 117.58C40.6133 117.953 39.7267 118.14 38.7 118.14ZM56.6675 106.92L49.8075 123.24H46.8275L49.2275 117.72L44.7875 106.92H47.9275L50.7875 114.66L53.6875 106.92H56.6675ZM64.3169 106.76C65.6369 106.76 66.7035 107.18 67.5169 108.02C68.3302 108.847 68.7369 110.007 68.7369 111.5V118H65.9369V111.88C65.9369 111 65.7169 110.327 65.2769 109.86C64.8369 109.38 64.2369 109.14 63.4769 109.14C62.7035 109.14 62.0902 109.38 61.6369 109.86C61.1969 110.327 60.9769 111 60.9769 111.88V118H58.1769V106.92H60.9769V108.3C61.3502 107.82 61.8235 107.447 62.3969 107.18C62.9835 106.9 63.6235 106.76 64.3169 106.76ZM70.6795 112.46C70.6795 111.313 70.9129 110.313 71.3795 109.46C71.8462 108.593 72.4929 107.927 73.3195 107.46C74.1462 106.98 75.0929 106.74 76.1595 106.74C77.5329 106.74 78.6662 107.087 79.5595 107.78C80.4662 108.46 81.0729 109.42 81.3795 110.66H78.3595C78.1995 110.18 77.9262 109.807 77.5395 109.54C77.1662 109.26 76.6995 109.12 76.1395 109.12C75.3395 109.12 74.7062 109.413 74.2395 110C73.7729 110.573 73.5395 111.393 73.5395 112.46C73.5395 113.513 73.7729 114.333 74.2395 114.92C74.7062 115.493 75.3395 115.78 76.1395 115.78C77.2729 115.78 78.0129 115.273 78.3595 114.26H81.3795C81.0729 115.46 80.4662 116.413 79.5595 117.12C78.6529 117.827 77.5195 118.18 76.1595 118.18C75.0929 118.18 74.1462 117.947 73.3195 117.48C72.4929 117 71.8462 116.333 71.3795 115.48C70.9129 114.613 70.6795 113.607 70.6795 112.46ZM89.6708 106.76C90.5108 106.76 91.2574 106.947 91.9108 107.32C92.5641 107.68 93.0708 108.22 93.4308 108.94C93.8041 109.647 93.9908 110.5 93.9908 111.5V118H91.1908V111.88C91.1908 111 90.9708 110.327 90.5308 109.86C90.0908 109.38 89.4908 109.14 88.7308 109.14C87.9574 109.14 87.3441 109.38 86.8908 109.86C86.4508 110.327 86.2308 111 86.2308 111.88V118H83.4308V103.2H86.2308V108.3C86.5908 107.82 87.0708 107.447 87.6708 107.18C88.2708 106.9 88.9374 106.76 89.6708 106.76ZM99.4534 108.64C99.8134 108.053 100.28 107.593 100.853 107.26C101.44 106.927 102.107 106.76 102.853 106.76V109.7H102.113C101.233 109.7 100.567 109.907 100.113 110.32C99.6734 110.733 99.4534 111.453 99.4534 112.48V118H96.6534V106.92H99.4534V108.64ZM109.659 118.18C108.593 118.18 107.633 117.947 106.779 117.48C105.926 117 105.253 116.327 104.759 115.46C104.279 114.593 104.039 113.593 104.039 112.46C104.039 111.327 104.286 110.327 104.779 109.46C105.286 108.593 105.973 107.927 106.839 107.46C107.706 106.98 108.673 106.74 109.739 106.74C110.806 106.74 111.773 106.98 112.639 107.46C113.506 107.927 114.186 108.593 114.679 109.46C115.186 110.327 115.439 111.327 115.439 112.46C115.439 113.593 115.179 114.593 114.659 115.46C114.153 116.327 113.459 117 112.579 117.48C111.713 117.947 110.739 118.18 109.659 118.18ZM109.659 115.74C110.166 115.74 110.639 115.62 111.079 115.38C111.533 115.127 111.893 114.753 112.159 114.26C112.426 113.767 112.559 113.167 112.559 112.46C112.559 111.407 112.279 110.6 111.719 110.04C111.173 109.467 110.499 109.18 109.699 109.18C108.899 109.18 108.226 109.467 107.679 110.04C107.146 110.6 106.879 111.407 106.879 112.46C106.879 113.513 107.139 114.327 107.659 114.9C108.193 115.46 108.859 115.74 109.659 115.74ZM123.633 106.76C124.953 106.76 126.02 107.18 126.833 108.02C127.647 108.847 128.053 110.007 128.053 111.5V118H125.253V111.88C125.253 111 125.033 110.327 124.593 109.86C124.153 109.38 123.553 109.14 122.793 109.14C122.02 109.14 121.407 109.38 120.953 109.86C120.513 110.327 120.293 111 120.293 111.88V118H117.493V106.92H120.293V108.3C120.667 107.82 121.14 107.447 121.713 107.18C122.3 106.9 122.94 106.76 123.633 106.76ZM132.136 105.6C131.643 105.6 131.229 105.447 130.896 105.14C130.576 104.82 130.416 104.427 130.416 103.96C130.416 103.493 130.576 103.107 130.896 102.8C131.229 102.48 131.643 102.32 132.136 102.32C132.629 102.32 133.036 102.48 133.356 102.8C133.689 103.107 133.856 103.493 133.856 103.96C133.856 104.427 133.689 104.82 133.356 105.14C133.036 105.447 132.629 105.6 132.136 105.6ZM133.516 106.92V118H130.716V106.92H133.516ZM138.842 115.7H143.782V118H135.662V115.74L140.502 109.22H135.682V106.92H143.722V109.18L138.842 115.7ZM156.25 112.22C156.25 112.62 156.224 112.98 156.17 113.3H148.07C148.137 114.1 148.417 114.727 148.91 115.18C149.404 115.633 150.01 115.86 150.73 115.86C151.77 115.86 152.51 115.413 152.95 114.52H155.97C155.65 115.587 155.037 116.467 154.13 117.16C153.224 117.84 152.11 118.18 150.79 118.18C149.724 118.18 148.764 117.947 147.91 117.48C147.07 117 146.41 116.327 145.93 115.46C145.464 114.593 145.23 113.593 145.23 112.46C145.23 111.313 145.464 110.307 145.93 109.44C146.397 108.573 147.05 107.907 147.89 107.44C148.73 106.973 149.697 106.74 150.79 106.74C151.844 106.74 152.784 106.967 153.61 107.42C154.45 107.873 155.097 108.52 155.55 109.36C156.017 110.187 156.25 111.14 156.25 112.22ZM153.35 111.42C153.337 110.7 153.077 110.127 152.57 109.7C152.064 109.26 151.444 109.04 150.71 109.04C150.017 109.04 149.43 109.253 148.95 109.68C148.484 110.093 148.197 110.673 148.09 111.42H153.35Z" fill="#212529"/>
<path d="M37.268 160.112C36.532 160.112 35.8707 159.984 35.284 159.728C34.708 159.461 34.2547 159.099 33.924 158.64C33.5933 158.171 33.4227 157.632 33.412 157.024H34.964C35.0173 157.547 35.2307 157.989 35.604 158.352C35.988 158.704 36.5427 158.88 37.268 158.88C37.9613 158.88 38.5053 158.709 38.9 158.368C39.3053 158.016 39.508 157.568 39.508 157.024C39.508 156.597 39.3907 156.251 39.156 155.984C38.9213 155.717 38.628 155.515 38.276 155.376C37.924 155.237 37.4493 155.088 36.852 154.928C36.116 154.736 35.524 154.544 35.076 154.352C34.6387 154.16 34.26 153.861 33.94 153.456C33.6307 153.04 33.476 152.485 33.476 151.792C33.476 151.184 33.6307 150.645 33.94 150.176C34.2493 149.707 34.6813 149.344 35.236 149.088C35.8013 148.832 36.4467 148.704 37.172 148.704C38.2173 148.704 39.0707 148.965 39.732 149.488C40.404 150.011 40.7827 150.704 40.868 151.568H39.268C39.2147 151.141 38.9907 150.768 38.596 150.448C38.2013 150.117 37.6787 149.952 37.028 149.952C36.42 149.952 35.924 150.112 35.54 150.432C35.156 150.741 34.964 151.179 34.964 151.744C34.964 152.149 35.076 152.48 35.3 152.736C35.5347 152.992 35.8173 153.189 36.148 153.328C36.4893 153.456 36.964 153.605 37.572 153.776C38.308 153.979 38.9 154.181 39.348 154.384C39.796 154.576 40.18 154.88 40.5 155.296C40.82 155.701 40.98 156.256 40.98 156.96C40.98 157.504 40.836 158.016 40.548 158.496C40.26 158.976 39.8333 159.365 39.268 159.664C38.7027 159.963 38.036 160.112 37.268 160.112ZM50.6746 151.232L45.3946 164.128H43.8906L45.6186 159.904L42.0826 151.232H43.6986L46.4506 158.336L49.1706 151.232H50.6746ZM56.4103 151.072C57.4769 151.072 58.3409 151.397 59.0023 152.048C59.6636 152.688 59.9943 153.616 59.9943 154.832V160H58.5543V155.04C58.5543 154.165 58.3356 153.499 57.8983 153.04C57.4609 152.571 56.8636 152.336 56.1063 152.336C55.3383 152.336 54.7249 152.576 54.2663 153.056C53.8183 153.536 53.5943 154.235 53.5943 155.152V160H52.1383V151.232H53.5943V152.48C53.8823 152.032 54.2716 151.685 54.7623 151.44C55.2636 151.195 55.8129 151.072 56.4103 151.072ZM61.8286 155.6C61.8286 154.693 62.01 153.904 62.3726 153.232C62.7353 152.549 63.2366 152.021 63.8766 151.648C64.5273 151.275 65.2686 151.088 66.1006 151.088C67.178 151.088 68.0633 151.349 68.7566 151.872C69.4606 152.395 69.9246 153.12 70.1486 154.048H68.5806C68.4313 153.515 68.138 153.093 67.7006 152.784C67.274 152.475 66.7406 152.32 66.1006 152.32C65.2686 152.32 64.5966 152.608 64.0846 153.184C63.5726 153.749 63.3166 154.555 63.3166 155.6C63.3166 156.656 63.5726 157.472 64.0846 158.048C64.5966 158.624 65.2686 158.912 66.1006 158.912C66.7406 158.912 67.274 158.763 67.7006 158.464C68.1273 158.165 68.4206 157.739 68.5806 157.184H70.1486C69.914 158.08 69.4446 158.8 68.7406 159.344C68.0366 159.877 67.1566 160.144 66.1006 160.144C65.2686 160.144 64.5273 159.957 63.8766 159.584C63.2366 159.211 62.7353 158.683 62.3726 158C62.01 157.317 61.8286 156.517 61.8286 155.6ZM76.4434 151.072C77.1047 151.072 77.702 151.216 78.2354 151.504C78.7687 151.781 79.1847 152.203 79.4834 152.768C79.7927 153.333 79.9474 154.021 79.9474 154.832V160H78.5074V155.04C78.5074 154.165 78.2887 153.499 77.8514 153.04C77.414 152.571 76.8167 152.336 76.0594 152.336C75.2914 152.336 74.678 152.576 74.2194 153.056C73.7714 153.536 73.5474 154.235 73.5474 155.152V160H72.0914V148.16H73.5474V152.48C73.8354 152.032 74.23 151.685 74.7314 151.44C75.2434 151.195 75.814 151.072 76.4434 151.072ZM83.7818 152.656C84.0378 152.155 84.4004 151.765 84.8698 151.488C85.3498 151.211 85.9311 151.072 86.6138 151.072V152.576H86.2298C84.5978 152.576 83.7818 153.461 83.7818 155.232V160H82.3258V151.232H83.7818V152.656ZM92.1185 160.144C91.2972 160.144 90.5505 159.957 89.8785 159.584C89.2172 159.211 88.6945 158.683 88.3105 158C87.9372 157.307 87.7505 156.507 87.7505 155.6C87.7505 154.704 87.9425 153.915 88.3265 153.232C88.7212 152.539 89.2545 152.011 89.9265 151.648C90.5985 151.275 91.3505 151.088 92.1825 151.088C93.0145 151.088 93.7665 151.275 94.4385 151.648C95.1105 152.011 95.6385 152.533 96.0225 153.216C96.4172 153.899 96.6145 154.693 96.6145 155.6C96.6145 156.507 96.4118 157.307 96.0065 158C95.6118 158.683 95.0732 159.211 94.3905 159.584C93.7078 159.957 92.9505 160.144 92.1185 160.144ZM92.1185 158.864C92.6412 158.864 93.1318 158.741 93.5905 158.496C94.0492 158.251 94.4172 157.883 94.6945 157.392C94.9825 156.901 95.1265 156.304 95.1265 155.6C95.1265 154.896 94.9878 154.299 94.7105 153.808C94.4332 153.317 94.0705 152.955 93.6225 152.72C93.1745 152.475 92.6892 152.352 92.1665 152.352C91.6332 152.352 91.1425 152.475 90.6945 152.72C90.2572 152.955 89.9052 153.317 89.6385 153.808C89.3718 154.299 89.2385 154.896 89.2385 155.6C89.2385 156.315 89.3665 156.917 89.6225 157.408C89.8892 157.899 90.2412 158.267 90.6785 158.512C91.1158 158.747 91.5958 158.864 92.1185 158.864ZM102.801 151.072C103.868 151.072 104.732 151.397 105.393 152.048C106.054 152.688 106.385 153.616 106.385 154.832V160H104.945V155.04C104.945 154.165 104.726 153.499 104.289 153.04C103.852 152.571 103.254 152.336 102.497 152.336C101.729 152.336 101.116 152.576 100.657 153.056C100.209 153.536 99.9849 154.235 99.9849 155.152V160H98.5289V151.232H99.9849V152.48C100.273 152.032 100.662 151.685 101.153 151.44C101.654 151.195 102.204 151.072 102.801 151.072ZM109.515 149.808C109.238 149.808 109.003 149.712 108.811 149.52C108.619 149.328 108.523 149.093 108.523 148.816C108.523 148.539 108.619 148.304 108.811 148.112C109.003 147.92 109.238 147.824 109.515 147.824C109.782 147.824 110.006 147.92 110.187 148.112C110.379 148.304 110.475 148.539 110.475 148.816C110.475 149.093 110.379 149.328 110.187 149.52C110.006 149.712 109.782 149.808 109.515 149.808ZM110.219 151.232V160H108.763V151.232H110.219ZM113.789 158.8H118.093V160H112.125V158.8L116.381 152.416H112.157V151.232H118.061V152.416L113.789 158.8ZM127.982 155.28C127.982 155.557 127.966 155.851 127.934 156.16H120.926C120.979 157.024 121.273 157.701 121.806 158.192C122.35 158.672 123.006 158.912 123.774 158.912C124.403 158.912 124.926 158.768 125.342 158.48C125.769 158.181 126.067 157.787 126.238 157.296H127.806C127.571 158.139 127.102 158.827 126.398 159.36C125.694 159.883 124.819 160.144 123.774 160.144C122.942 160.144 122.195 159.957 121.534 159.584C120.883 159.211 120.371 158.683 119.998 158C119.625 157.307 119.438 156.507 119.438 155.6C119.438 154.693 119.619 153.899 119.982 153.216C120.345 152.533 120.851 152.011 121.502 151.648C122.163 151.275 122.921 151.088 123.774 151.088C124.606 151.088 125.342 151.269 125.982 151.632C126.622 151.995 127.113 152.496 127.454 153.136C127.806 153.765 127.982 154.48 127.982 155.28ZM126.478 154.976C126.478 154.421 126.355 153.947 126.11 153.552C125.865 153.147 125.529 152.843 125.102 152.64C124.686 152.427 124.222 152.32 123.71 152.32C122.974 152.32 122.345 152.555 121.822 153.024C121.31 153.493 121.017 154.144 120.942 154.976H126.478ZM133.626 155.584C133.626 154.688 133.807 153.904 134.17 153.232C134.532 152.549 135.028 152.021 135.658 151.648C136.298 151.275 137.007 151.088 137.786 151.088C138.554 151.088 139.22 151.253 139.786 151.584C140.351 151.915 140.772 152.331 141.05 152.832V151.232H142.522V160H141.05V158.368C140.762 158.88 140.33 159.307 139.754 159.648C139.188 159.979 138.527 160.144 137.77 160.144C136.991 160.144 136.287 159.952 135.658 159.568C135.028 159.184 134.532 158.645 134.17 157.952C133.807 157.259 133.626 156.469 133.626 155.584ZM141.05 155.6C141.05 154.939 140.916 154.363 140.65 153.872C140.383 153.381 140.02 153.008 139.562 152.752C139.114 152.485 138.618 152.352 138.074 152.352C137.53 152.352 137.034 152.48 136.586 152.736C136.138 152.992 135.78 153.365 135.514 153.856C135.247 154.347 135.114 154.923 135.114 155.584C135.114 156.256 135.247 156.843 135.514 157.344C135.78 157.835 136.138 158.213 136.586 158.48C137.034 158.736 137.53 158.864 138.074 158.864C138.618 158.864 139.114 158.736 139.562 158.48C140.02 158.213 140.383 157.835 140.65 157.344C140.916 156.843 141.05 156.261 141.05 155.6ZM146.438 148.16V160H144.982V148.16H146.438ZM150.376 148.16V160H148.92V148.16H150.376ZM164.675 151.232L159.395 164.128H157.891L159.619 159.904L156.083 151.232H157.699L160.451 158.336L163.171 151.232H164.675ZM169.962 160.144C169.141 160.144 168.394 159.957 167.722 159.584C167.061 159.211 166.538 158.683 166.154 158C165.781 157.307 165.594 156.507 165.594 155.6C165.594 154.704 165.786 153.915 166.17 153.232C166.565 152.539 167.098 152.011 167.77 151.648C168.442 151.275 169.194 151.088 170.026 151.088C170.858 151.088 171.61 151.275 172.282 151.648C172.954 152.011 173.482 152.533 173.866 153.216C174.261 153.899 174.458 154.693 174.458 155.6C174.458 156.507 174.256 157.307 173.85 158C173.456 158.683 172.917 159.211 172.234 159.584C171.552 159.957 170.794 160.144 169.962 160.144ZM169.962 158.864C170.485 158.864 170.976 158.741 171.434 158.496C171.893 158.251 172.261 157.883 172.538 157.392C172.826 156.901 172.97 156.304 172.97 155.6C172.97 154.896 172.832 154.299 172.554 153.808C172.277 153.317 171.914 152.955 171.466 152.72C171.018 152.475 170.533 152.352 170.01 152.352C169.477 152.352 168.986 152.475 168.538 152.72C168.101 152.955 167.749 153.317 167.482 153.808C167.216 154.299 167.082 154.896 167.082 155.6C167.082 156.315 167.21 156.917 167.466 157.408C167.733 157.899 168.085 158.267 168.522 158.512C168.96 158.747 169.44 158.864 169.962 158.864ZM184.149 151.232V160H182.693V158.704C182.415 159.152 182.026 159.504 181.525 159.76C181.034 160.005 180.49 160.128 179.893 160.128C179.21 160.128 178.597 159.989 178.053 159.712C177.509 159.424 177.077 158.997 176.757 158.432C176.447 157.867 176.293 157.179 176.293 156.368V151.232H177.733V156.176C177.733 157.04 177.951 157.707 178.389 158.176C178.826 158.635 179.423 158.864 180.181 158.864C180.959 158.864 181.573 158.624 182.021 158.144C182.469 157.664 182.693 156.965 182.693 156.048V151.232H184.149ZM188.063 152.656C188.319 152.155 188.682 151.765 189.151 151.488C189.631 151.211 190.212 151.072 190.895 151.072V152.576H190.511C188.879 152.576 188.063 153.461 188.063 155.232V160H186.607V151.232H188.063V152.656ZM198.617 152.432V157.6C198.617 158.027 198.708 158.331 198.889 158.512C199.071 158.683 199.385 158.768 199.833 158.768H200.905V160H199.593C198.783 160 198.175 159.813 197.769 159.44C197.364 159.067 197.161 158.453 197.161 157.6V152.432H196.025V151.232H197.161V149.024H198.617V151.232H200.905V152.432H198.617ZM206.494 160.144C205.672 160.144 204.926 159.957 204.254 159.584C203.592 159.211 203.07 158.683 202.686 158C202.312 157.307 202.126 156.507 202.126 155.6C202.126 154.704 202.318 153.915 202.702 153.232C203.096 152.539 203.63 152.011 204.302 151.648C204.974 151.275 205.726 151.088 206.558 151.088C207.39 151.088 208.142 151.275 208.814 151.648C209.486 152.011 210.014 152.533 210.398 153.216C210.792 153.899 210.99 154.693 210.99 155.6C210.99 156.507 210.787 157.307 210.382 158C209.987 158.683 209.448 159.211 208.766 159.584C208.083 159.957 207.326 160.144 206.494 160.144ZM206.494 158.864C207.016 158.864 207.507 158.741 207.966 158.496C208.424 158.251 208.792 157.883 209.07 157.392C209.358 156.901 209.502 156.304 209.502 155.6C209.502 154.896 209.363 154.299 209.086 153.808C208.808 153.317 208.446 152.955 207.998 152.72C207.55 152.475 207.064 152.352 206.542 152.352C206.008 152.352 205.518 152.475 205.07 152.72C204.632 152.955 204.28 153.317 204.014 153.808C203.747 154.299 203.614 154.896 203.614 155.6C203.614 156.315 203.742 156.917 203.998 157.408C204.264 157.899 204.616 158.267 205.054 158.512C205.491 158.747 205.971 158.864 206.494 158.864ZM216.728 160.144C215.907 160.144 215.16 159.957 214.488 159.584C213.827 159.211 213.304 158.683 212.92 158C212.547 157.307 212.36 156.507 212.36 155.6C212.36 154.704 212.552 153.915 212.936 153.232C213.331 152.539 213.864 152.011 214.536 151.648C215.208 151.275 215.96 151.088 216.792 151.088C217.624 151.088 218.376 151.275 219.048 151.648C219.72 152.011 220.248 152.533 220.632 153.216C221.027 153.899 221.224 154.693 221.224 155.6C221.224 156.507 221.021 157.307 220.616 158C220.221 158.683 219.683 159.211 219 159.584C218.317 159.957 217.56 160.144 216.728 160.144ZM216.728 158.864C217.251 158.864 217.741 158.741 218.2 158.496C218.659 158.251 219.027 157.883 219.304 157.392C219.592 156.901 219.736 156.304 219.736 155.6C219.736 154.896 219.597 154.299 219.32 153.808C219.043 153.317 218.68 152.955 218.232 152.72C217.784 152.475 217.299 152.352 216.776 152.352C216.243 152.352 215.752 152.475 215.304 152.72C214.867 152.955 214.515 153.317 214.248 153.808C213.981 154.299 213.848 154.896 213.848 155.6C213.848 156.315 213.976 156.917 214.232 157.408C214.499 157.899 214.851 158.267 215.288 158.512C215.725 158.747 216.205 158.864 216.728 158.864ZM224.594 148.16V160H223.138V148.16H224.594ZM230.18 160.144C229.508 160.144 228.905 160.032 228.372 159.808C227.838 159.573 227.417 159.253 227.108 158.848C226.798 158.432 226.628 157.957 226.596 157.424H228.1C228.142 157.861 228.345 158.219 228.708 158.496C229.081 158.773 229.566 158.912 230.164 158.912C230.718 158.912 231.156 158.789 231.476 158.544C231.796 158.299 231.956 157.989 231.956 157.616C231.956 157.232 231.785 156.949 231.444 156.768C231.102 156.576 230.574 156.389 229.86 156.208C229.209 156.037 228.676 155.867 228.26 155.696C227.854 155.515 227.502 155.253 227.204 154.912C226.916 154.56 226.772 154.101 226.772 153.536C226.772 153.088 226.905 152.677 227.172 152.304C227.438 151.931 227.817 151.637 228.308 151.424C228.798 151.2 229.358 151.088 229.988 151.088C230.958 151.088 231.742 151.333 232.34 151.824C232.937 152.315 233.257 152.987 233.3 153.84H231.844C231.812 153.381 231.625 153.013 231.284 152.736C230.953 152.459 230.505 152.32 229.94 152.32C229.417 152.32 229.001 152.432 228.692 152.656C228.382 152.88 228.228 153.173 228.228 153.536C228.228 153.824 228.318 154.064 228.5 154.256C228.692 154.437 228.926 154.587 229.204 154.704C229.492 154.811 229.886 154.933 230.388 155.072C231.017 155.243 231.529 155.413 231.924 155.584C232.318 155.744 232.654 155.989 232.932 156.32C233.22 156.651 233.369 157.083 233.38 157.616C233.38 158.096 233.246 158.528 232.98 158.912C232.713 159.296 232.334 159.6 231.844 159.824C231.364 160.037 230.809 160.144 230.18 160.144ZM240.453 149.808C240.175 149.808 239.941 149.712 239.749 149.52C239.557 149.328 239.461 149.093 239.461 148.816C239.461 148.539 239.557 148.304 239.749 148.112C239.941 147.92 240.175 147.824 240.453 147.824C240.719 147.824 240.943 147.92 241.125 148.112C241.317 148.304 241.413 148.539 241.413 148.816C241.413 149.093 241.317 149.328 241.125 149.52C240.943 149.712 240.719 149.808 240.453 149.808ZM241.157 151.232V160H239.701V151.232H241.157ZM247.91 151.072C248.977 151.072 249.841 151.397 250.502 152.048C251.164 152.688 251.494 153.616 251.494 154.832V160H250.054V155.04C250.054 154.165 249.836 153.499 249.398 153.04C248.961 152.571 248.364 152.336 247.606 152.336C246.838 152.336 246.225 152.576 245.766 153.056C245.318 153.536 245.094 154.235 245.094 155.152V160H243.638V151.232H245.094V152.48C245.382 152.032 245.772 151.685 246.262 151.44C246.764 151.195 247.313 151.072 247.91 151.072ZM261.674 160.112C260.938 160.112 260.277 159.984 259.69 159.728C259.114 159.461 258.661 159.099 258.33 158.64C258 158.171 257.829 157.632 257.818 157.024H259.37C259.424 157.547 259.637 157.989 260.01 158.352C260.394 158.704 260.949 158.88 261.674 158.88C262.368 158.88 262.912 158.709 263.306 158.368C263.712 158.016 263.914 157.568 263.914 157.024C263.914 156.597 263.797 156.251 263.562 155.984C263.328 155.717 263.034 155.515 262.682 155.376C262.33 155.237 261.856 155.088 261.258 154.928C260.522 154.736 259.93 154.544 259.482 154.352C259.045 154.16 258.666 153.861 258.346 153.456C258.037 153.04 257.882 152.485 257.882 151.792C257.882 151.184 258.037 150.645 258.346 150.176C258.656 149.707 259.088 149.344 259.642 149.088C260.208 148.832 260.853 148.704 261.578 148.704C262.624 148.704 263.477 148.965 264.138 149.488C264.81 150.011 265.189 150.704 265.274 151.568H263.674C263.621 151.141 263.397 150.768 263.002 150.448C262.608 150.117 262.085 149.952 261.434 149.952C260.826 149.952 260.33 150.112 259.946 150.432C259.562 150.741 259.37 151.179 259.37 151.744C259.37 152.149 259.482 152.48 259.706 152.736C259.941 152.992 260.224 153.189 260.554 153.328C260.896 153.456 261.37 153.605 261.978 153.776C262.714 153.979 263.306 154.181 263.754 154.384C264.202 154.576 264.586 154.88 264.906 155.296C265.226 155.701 265.386 156.256 265.386 156.96C265.386 157.504 265.242 158.016 264.954 158.496C264.666 158.976 264.24 159.365 263.674 159.664C263.109 159.963 262.442 160.112 261.674 160.112ZM275.081 151.232L269.801 164.128H268.297L270.025 159.904L266.489 151.232H268.105L270.857 158.336L273.577 151.232H275.081ZM280.817 151.072C281.883 151.072 282.747 151.397 283.409 152.048C284.07 152.688 284.401 153.616 284.401 154.832V160H282.961V155.04C282.961 154.165 282.742 153.499 282.305 153.04C281.867 152.571 281.27 152.336 280.513 152.336C279.745 152.336 279.131 152.576 278.673 153.056C278.225 153.536 278.001 154.235 278.001 155.152V160H276.545V151.232H278.001V152.48C278.289 152.032 278.678 151.685 279.169 151.44C279.67 151.195 280.219 151.072 280.817 151.072ZM294.779 155.28C294.779 155.557 294.763 155.851 294.731 156.16H287.723C287.776 157.024 288.07 157.701 288.603 158.192C289.147 158.672 289.803 158.912 290.571 158.912C291.2 158.912 291.723 158.768 292.139 158.48C292.566 158.181 292.864 157.787 293.035 157.296H294.603C294.368 158.139 293.899 158.827 293.195 159.36C292.491 159.883 291.616 160.144 290.571 160.144C289.739 160.144 288.992 159.957 288.331 159.584C287.68 159.211 287.168 158.683 286.795 158C286.422 157.307 286.235 156.507 286.235 155.6C286.235 154.693 286.416 153.899 286.779 153.216C287.142 152.533 287.648 152.011 288.299 151.648C288.96 151.275 289.718 151.088 290.571 151.088C291.403 151.088 292.139 151.269 292.779 151.632C293.419 151.995 293.91 152.496 294.251 153.136C294.603 153.765 294.779 154.48 294.779 155.28ZM293.275 154.976C293.275 154.421 293.152 153.947 292.907 153.552C292.662 153.147 292.326 152.843 291.899 152.64C291.483 152.427 291.019 152.32 290.507 152.32C289.771 152.32 289.142 152.555 288.619 153.024C288.107 153.493 287.814 154.144 287.739 154.976H293.275ZM35.508 176.432V181.6C35.508 182.027 35.5987 182.331 35.78 182.512C35.9613 182.683 36.276 182.768 36.724 182.768H37.796V184H36.484C35.6733 184 35.0653 183.813 34.66 183.44C34.2547 183.067 34.052 182.453 34.052 181.6V176.432H32.916V175.232H34.052V173.024H35.508V175.232H37.796V176.432H35.508ZM43.3841 184.144C42.5628 184.144 41.8161 183.957 41.1441 183.584C40.4828 183.211 39.9601 182.683 39.5761 182C39.2028 181.307 39.0161 180.507 39.0161 179.6C39.0161 178.704 39.2081 177.915 39.5921 177.232C39.9868 176.539 40.5201 176.011 41.1921 175.648C41.8641 175.275 42.6161 175.088 43.4481 175.088C44.2801 175.088 45.0321 175.275 45.7041 175.648C46.3761 176.011 46.9041 176.533 47.2881 177.216C47.6828 177.899 47.8801 178.693 47.8801 179.6C47.8801 180.507 47.6775 181.307 47.2721 182C46.8775 182.683 46.3388 183.211 45.6561 183.584C44.9735 183.957 44.2161 184.144 43.3841 184.144ZM43.3841 182.864C43.9068 182.864 44.3975 182.741 44.8561 182.496C45.3148 182.251 45.6828 181.883 45.9601 181.392C46.2481 180.901 46.3921 180.304 46.3921 179.6C46.3921 178.896 46.2535 178.299 45.9761 177.808C45.6988 177.317 45.3361 176.955 44.8881 176.72C44.4401 176.475 43.9548 176.352 43.4321 176.352C42.8988 176.352 42.4081 176.475 41.9601 176.72C41.5228 176.955 41.1708 177.317 40.9041 177.808C40.6375 178.299 40.5041 178.896 40.5041 179.6C40.5041 180.315 40.6321 180.917 40.8881 181.408C41.1548 181.899 41.5068 182.267 41.9441 182.512C42.3815 182.747 42.8615 182.864 43.3841 182.864ZM53.5161 179.6C53.5161 178.693 53.6975 177.904 54.0601 177.232C54.4228 176.549 54.9241 176.021 55.5641 175.648C56.2148 175.275 56.9561 175.088 57.7881 175.088C58.8655 175.088 59.7508 175.349 60.4441 175.872C61.1481 176.395 61.6121 177.12 61.8361 178.048H60.2681C60.1188 177.515 59.8255 177.093 59.3881 176.784C58.9615 176.475 58.4281 176.32 57.7881 176.32C56.9561 176.32 56.2841 176.608 55.7721 177.184C55.2601 177.749 55.0041 178.555 55.0041 179.6C55.0041 180.656 55.2601 181.472 55.7721 182.048C56.2841 182.624 56.9561 182.912 57.7881 182.912C58.4281 182.912 58.9615 182.763 59.3881 182.464C59.8148 182.165 60.1081 181.739 60.2681 181.184H61.8361C61.6015 182.08 61.1321 182.8 60.4281 183.344C59.7241 183.877 58.8441 184.144 57.7881 184.144C56.9561 184.144 56.2148 183.957 55.5641 183.584C54.9241 183.211 54.4228 182.683 54.0601 182C53.6975 181.317 53.5161 180.517 53.5161 179.6ZM71.7789 179.28C71.7789 179.557 71.7629 179.851 71.7309 180.16H64.7229C64.7762 181.024 65.0695 181.701 65.6029 182.192C66.1469 182.672 66.8029 182.912 67.5709 182.912C68.2002 182.912 68.7229 182.768 69.1389 182.48C69.5655 182.181 69.8642 181.787 70.0349 181.296H71.6029C71.3682 182.139 70.8989 182.827 70.1949 183.36C69.4909 183.883 68.6162 184.144 67.5709 184.144C66.7389 184.144 65.9922 183.957 65.3309 183.584C64.6802 183.211 64.1682 182.683 63.7949 182C63.4215 181.307 63.2349 180.507 63.2349 179.6C63.2349 178.693 63.4162 177.899 63.7789 177.216C64.1415 176.533 64.6482 176.011 65.2989 175.648C65.9602 175.275 66.7175 175.088 67.5709 175.088C68.4029 175.088 69.1389 175.269 69.7789 175.632C70.4189 175.995 70.9095 176.496 71.2509 177.136C71.6029 177.765 71.7789 178.48 71.7789 179.28ZM70.2749 178.976C70.2749 178.421 70.1522 177.947 69.9069 177.552C69.6615 177.147 69.3255 176.843 68.8989 176.64C68.4829 176.427 68.0189 176.32 67.5069 176.32C66.7709 176.32 66.1415 176.555 65.6189 177.024C65.1069 177.493 64.8135 178.144 64.7389 178.976H70.2749ZM77.9728 175.072C79.0394 175.072 79.9034 175.397 80.5648 176.048C81.2261 176.688 81.5568 177.616 81.5568 178.832V184H80.1168V179.04C80.1168 178.165 79.8981 177.499 79.4608 177.04C79.0234 176.571 78.4261 176.336 77.6688 176.336C76.9008 176.336 76.2874 176.576 75.8288 177.056C75.3808 177.536 75.1568 178.235 75.1568 179.152V184H73.7008V175.232H75.1568V176.48C75.4448 176.032 75.8341 175.685 76.3248 175.44C76.8261 175.195 77.3754 175.072 77.9728 175.072ZM85.7111 176.432V181.6C85.7111 182.027 85.8018 182.331 85.9831 182.512C86.1645 182.683 86.4791 182.768 86.9271 182.768H87.9991V184H86.6871C85.8765 184 85.2685 183.813 84.8631 183.44C84.4578 183.067 84.2551 182.453 84.2551 181.6V176.432H83.1191V175.232H84.2551V173.024H85.7111V175.232H87.9991V176.432H85.7111ZM91.2193 176.656C91.4753 176.155 91.8379 175.765 92.3073 175.488C92.7873 175.211 93.3686 175.072 94.0513 175.072V176.576H93.6673C92.0353 176.576 91.2193 177.461 91.2193 179.232V184H89.7633V175.232H91.2193V176.656ZM95.188 179.584C95.188 178.688 95.3693 177.904 95.732 177.232C96.0947 176.549 96.5907 176.021 97.22 175.648C97.86 175.275 98.5693 175.088 99.348 175.088C100.116 175.088 100.783 175.253 101.348 175.584C101.913 175.915 102.335 176.331 102.612 176.832V175.232H104.084V184H102.612V182.368C102.324 182.88 101.892 183.307 101.316 183.648C100.751 183.979 100.089 184.144 99.332 184.144C98.5533 184.144 97.8493 183.952 97.22 183.568C96.5907 183.184 96.0947 182.645 95.732 181.952C95.3693 181.259 95.188 180.469 95.188 179.584ZM102.612 179.6C102.612 178.939 102.479 178.363 102.212 177.872C101.945 177.381 101.583 177.008 101.124 176.752C100.676 176.485 100.18 176.352 99.636 176.352C99.092 176.352 98.596 176.48 98.148 176.736C97.7 176.992 97.3427 177.365 97.076 177.856C96.8093 178.347 96.676 178.923 96.676 179.584C96.676 180.256 96.8093 180.843 97.076 181.344C97.3427 181.835 97.7 182.213 98.148 182.48C98.596 182.736 99.092 182.864 99.636 182.864C100.18 182.864 100.676 182.736 101.124 182.48C101.583 182.213 101.945 181.835 102.212 181.344C102.479 180.843 102.612 180.261 102.612 179.6ZM108.001 172.16V184H106.545V172.16H108.001ZM111.234 173.808C110.957 173.808 110.722 173.712 110.53 173.52C110.338 173.328 110.242 173.093 110.242 172.816C110.242 172.539 110.338 172.304 110.53 172.112C110.722 171.92 110.957 171.824 111.234 171.824C111.501 171.824 111.725 171.92 111.906 172.112C112.098 172.304 112.194 172.539 112.194 172.816C112.194 173.093 112.098 173.328 111.906 173.52C111.725 173.712 111.501 173.808 111.234 173.808ZM111.938 175.232V184H110.482V175.232H111.938ZM115.508 182.8H119.812V184H113.844V182.8L118.1 176.416H113.876V175.232H119.78V176.416L115.508 182.8ZM129.701 179.28C129.701 179.557 129.685 179.851 129.653 180.16H122.645C122.698 181.024 122.991 181.701 123.525 182.192C124.069 182.672 124.725 182.912 125.493 182.912C126.122 182.912 126.645 182.768 127.061 182.48C127.487 182.181 127.786 181.787 127.957 181.296H129.525C129.29 182.139 128.821 182.827 128.117 183.36C127.413 183.883 126.538 184.144 125.493 184.144C124.661 184.144 123.914 183.957 123.253 183.584C122.602 183.211 122.09 182.683 121.717 182C121.343 181.307 121.157 180.507 121.157 179.6C121.157 178.693 121.338 177.899 121.701 177.216C122.063 176.533 122.57 176.011 123.221 175.648C123.882 175.275 124.639 175.088 125.493 175.088C126.325 175.088 127.061 175.269 127.701 175.632C128.341 175.995 128.831 176.496 129.173 177.136C129.525 177.765 129.701 178.48 129.701 179.28ZM128.197 178.976C128.197 178.421 128.074 177.947 127.829 177.552C127.583 177.147 127.247 176.843 126.821 176.64C126.405 176.427 125.941 176.32 125.429 176.32C124.693 176.32 124.063 176.555 123.541 177.024C123.029 177.493 122.735 178.144 122.661 178.976H128.197ZM143.44 175.232L138.16 188.128H136.656L138.384 183.904L134.848 175.232H136.464L139.216 182.336L141.936 175.232H143.44ZM148.728 184.144C147.907 184.144 147.16 183.957 146.488 183.584C145.827 183.211 145.304 182.683 144.92 182C144.547 181.307 144.36 180.507 144.36 179.6C144.36 178.704 144.552 177.915 144.936 177.232C145.331 176.539 145.864 176.011 146.536 175.648C147.208 175.275 147.96 175.088 148.792 175.088C149.624 175.088 150.376 175.275 151.048 175.648C151.72 176.011 152.248 176.533 152.632 177.216C153.027 177.899 153.224 178.693 153.224 179.6C153.224 180.507 153.021 181.307 152.616 182C152.221 182.683 151.683 183.211 151 183.584C150.317 183.957 149.56 184.144 148.728 184.144ZM148.728 182.864C149.251 182.864 149.741 182.741 150.2 182.496C150.659 182.251 151.027 181.883 151.304 181.392C151.592 180.901 151.736 180.304 151.736 179.6C151.736 178.896 151.597 178.299 151.32 177.808C151.043 177.317 150.68 176.955 150.232 176.72C149.784 176.475 149.299 176.352 148.776 176.352C148.243 176.352 147.752 176.475 147.304 176.72C146.867 176.955 146.515 177.317 146.248 177.808C145.981 178.299 145.848 178.896 145.848 179.6C145.848 180.315 145.976 180.917 146.232 181.408C146.499 181.899 146.851 182.267 147.288 182.512C147.725 182.747 148.205 182.864 148.728 182.864ZM162.914 175.232V184H161.458V182.704C161.181 183.152 160.792 183.504 160.29 183.76C159.8 184.005 159.256 184.128 158.658 184.128C157.976 184.128 157.362 183.989 156.818 183.712C156.274 183.424 155.842 182.997 155.522 182.432C155.213 181.867 155.058 181.179 155.058 180.368V175.232H156.498V180.176C156.498 181.04 156.717 181.707 157.154 182.176C157.592 182.635 158.189 182.864 158.946 182.864C159.725 182.864 160.338 182.624 160.786 182.144C161.234 181.664 161.458 180.965 161.458 180.048V175.232H162.914ZM166.829 176.656C167.085 176.155 167.447 175.765 167.917 175.488C168.397 175.211 168.978 175.072 169.661 175.072V176.576H169.277C167.645 176.576 166.829 177.461 166.829 179.232V184H165.373V175.232H166.829V176.656ZM187.287 175.232L184.551 184H183.047L180.935 177.04L178.823 184H177.319L174.567 175.232H176.055L178.071 182.592L180.247 175.232H181.735L183.863 182.608L185.847 175.232H187.287ZM192.556 184.144C191.735 184.144 190.988 183.957 190.316 183.584C189.655 183.211 189.132 182.683 188.748 182C188.375 181.307 188.188 180.507 188.188 179.6C188.188 178.704 188.38 177.915 188.764 177.232C189.159 176.539 189.692 176.011 190.364 175.648C191.036 175.275 191.788 175.088 192.62 175.088C193.452 175.088 194.204 175.275 194.876 175.648C195.548 176.011 196.076 176.533 196.46 177.216C196.855 177.899 197.052 178.693 197.052 179.6C197.052 180.507 196.849 181.307 196.444 182C196.049 182.683 195.511 183.211 194.828 183.584C194.145 183.957 193.388 184.144 192.556 184.144ZM192.556 182.864C193.079 182.864 193.569 182.741 194.028 182.496C194.487 182.251 194.855 181.883 195.132 181.392C195.42 180.901 195.564 180.304 195.564 179.6C195.564 178.896 195.425 178.299 195.148 177.808C194.871 177.317 194.508 176.955 194.06 176.72C193.612 176.475 193.127 176.352 192.604 176.352C192.071 176.352 191.58 176.475 191.132 176.72C190.695 176.955 190.343 177.317 190.076 177.808C189.809 178.299 189.676 178.896 189.676 179.6C189.676 180.315 189.804 180.917 190.06 181.408C190.327 181.899 190.679 182.267 191.116 182.512C191.553 182.747 192.033 182.864 192.556 182.864ZM200.422 176.656C200.678 176.155 201.041 175.765 201.51 175.488C201.99 175.211 202.572 175.072 203.254 175.072V176.576H202.87C201.238 176.576 200.422 177.461 200.422 179.232V184H198.966V175.232H200.422V176.656ZM209.831 184L206.391 180.128V184H204.935V172.16H206.391V179.12L209.767 175.232H211.799L207.671 179.6L211.815 184H209.831ZM216.738 176.432H214.898V184H213.442V176.432H212.306V175.232H213.442V174.608C213.442 173.627 213.692 172.912 214.194 172.464C214.706 172.005 215.522 171.776 216.641 171.776V172.992C216.002 172.992 215.548 173.12 215.282 173.376C215.026 173.621 214.898 174.032 214.898 174.608V175.232H216.738V176.432ZM219.891 172.16V184H218.435V172.16H219.891ZM226.197 184.144C225.375 184.144 224.629 183.957 223.957 183.584C223.295 183.211 222.773 182.683 222.389 182C222.015 181.307 221.829 180.507 221.829 179.6C221.829 178.704 222.021 177.915 222.405 177.232C222.799 176.539 223.333 176.011 224.005 175.648C224.677 175.275 225.429 175.088 226.261 175.088C227.093 175.088 227.845 175.275 228.517 175.648C229.189 176.011 229.717 176.533 230.101 177.216C230.495 177.899 230.693 178.693 230.693 179.6C230.693 180.507 230.49 181.307 230.085 182C229.69 182.683 229.151 183.211 228.469 183.584C227.786 183.957 227.029 184.144 226.197 184.144ZM226.197 182.864C226.719 182.864 227.21 182.741 227.669 182.496C228.127 182.251 228.495 181.883 228.773 181.392C229.061 180.901 229.205 180.304 229.205 179.6C229.205 178.896 229.066 178.299 228.789 177.808C228.511 177.317 228.149 176.955 227.701 176.72C227.253 176.475 226.767 176.352 226.245 176.352C225.711 176.352 225.221 176.475 224.773 176.72C224.335 176.955 223.983 177.317 223.717 177.808C223.45 178.299 223.317 178.896 223.317 179.6C223.317 180.315 223.445 180.917 223.701 181.408C223.967 181.899 224.319 182.267 224.757 182.512C225.194 182.747 225.674 182.864 226.197 182.864ZM244.287 175.232L241.551 184H240.047L237.935 177.04L235.823 184H234.319L231.567 175.232H233.055L235.071 182.592L237.247 175.232H238.735L240.863 182.608L242.847 175.232H244.287ZM261.678 175.232L258.942 184H257.438L255.326 177.04L253.214 184H251.71L248.958 175.232H250.446L252.462 182.592L254.638 175.232H256.126L258.254 182.608L260.238 175.232H261.678ZM263.875 173.808C263.597 173.808 263.363 173.712 263.171 173.52C262.979 173.328 262.883 173.093 262.883 172.816C262.883 172.539 262.979 172.304 263.171 172.112C263.363 171.92 263.597 171.824 263.875 171.824C264.141 171.824 264.365 171.92 264.547 172.112C264.739 172.304 264.835 172.539 264.835 172.816C264.835 173.093 264.739 173.328 264.547 173.52C264.365 173.712 264.141 173.808 263.875 173.808ZM264.579 175.232V184H263.123V175.232H264.579ZM268.836 176.432V181.6C268.836 182.027 268.927 182.331 269.108 182.512C269.289 182.683 269.604 182.768 270.052 182.768H271.124V184H269.812C269.001 184 268.393 183.813 267.988 183.44C267.583 183.067 267.38 182.453 267.38 181.6V176.432H266.244V175.232H267.38V173.024H268.836V175.232H271.124V176.432H268.836ZM277.24 175.072C277.902 175.072 278.499 175.216 279.032 175.504C279.566 175.781 279.982 176.203 280.28 176.768C280.59 177.333 280.744 178.021 280.744 178.832V184H279.304V179.04C279.304 178.165 279.086 177.499 278.648 177.04C278.211 176.571 277.614 176.336 276.856 176.336C276.088 176.336 275.475 176.576 275.016 177.056C274.568 177.536 274.344 178.235 274.344 179.152V184H272.888V172.16H274.344V176.48C274.632 176.032 275.027 175.685 275.528 175.44C276.04 175.195 276.611 175.072 277.24 175.072ZM286.947 184.144C286.125 184.144 285.379 183.957 284.707 183.584C284.045 183.211 283.523 182.683 283.139 182C282.765 181.307 282.579 180.507 282.579 179.6C282.579 178.704 282.771 177.915 283.155 177.232C283.549 176.539 284.083 176.011 284.755 175.648C285.427 175.275 286.179 175.088 287.011 175.088C287.843 175.088 288.595 175.275 289.267 175.648C289.939 176.011 290.467 176.533 290.851 177.216C291.245 177.899 291.443 178.693 291.443 179.6C291.443 180.507 291.24 181.307 290.835 182C290.44 182.683 289.901 183.211 289.219 183.584C288.536 183.957 287.779 184.144 286.947 184.144ZM286.947 182.864C287.469 182.864 287.96 182.741 288.419 182.496C288.877 182.251 289.245 181.883 289.523 181.392C289.811 180.901 289.955 180.304 289.955 179.6C289.955 178.896 289.816 178.299 289.539 177.808C289.261 177.317 288.899 176.955 288.451 176.72C288.003 176.475 287.517 176.352 286.995 176.352C286.461 176.352 285.971 176.475 285.523 176.72C285.085 176.955 284.733 177.317 284.467 177.808C284.2 178.299 284.067 178.896 284.067 179.6C284.067 180.315 284.195 180.917 284.451 181.408C284.717 181.899 285.069 182.267 285.507 182.512C285.944 182.747 286.424 182.864 286.947 182.864ZM301.133 175.232V184H299.677V182.704C299.4 183.152 299.01 183.504 298.509 183.76C298.018 184.005 297.474 184.128 296.877 184.128C296.194 184.128 295.581 183.989 295.037 183.712C294.493 183.424 294.061 182.997 293.741 182.432C293.432 181.867 293.277 181.179 293.277 180.368V175.232H294.717V180.176C294.717 181.04 294.936 181.707 295.373 182.176C295.81 182.635 296.408 182.864 297.165 182.864C297.944 182.864 298.557 182.624 299.005 182.144C299.453 181.664 299.677 180.965 299.677 180.048V175.232H301.133ZM305.367 176.432V181.6C305.367 182.027 305.458 182.331 305.639 182.512C305.821 182.683 306.135 182.768 306.583 182.768H307.655V184H306.343C305.533 184 304.925 183.813 304.519 183.44C304.114 183.067 303.911 182.453 303.911 181.6V176.432H302.775V175.232H303.911V173.024H305.367V175.232H307.655V176.432H305.367ZM33.188 203.584C33.188 202.688 33.3693 201.904 33.732 201.232C34.0947 200.549 34.5907 200.021 35.22 199.648C35.86 199.275 36.5747 199.088 37.364 199.088C38.0467 199.088 38.6813 199.248 39.268 199.568C39.8547 199.877 40.3027 200.288 40.612 200.8V196.16H42.084V208H40.612V206.352C40.324 206.875 39.8973 207.307 39.332 207.648C38.7667 207.979 38.1053 208.144 37.348 208.144C36.5693 208.144 35.86 207.952 35.22 207.568C34.5907 207.184 34.0947 206.645 33.732 205.952C33.3693 205.259 33.188 204.469 33.188 203.584ZM40.612 203.6C40.612 202.939 40.4787 202.363 40.212 201.872C39.9453 201.381 39.5827 201.008 39.124 200.752C38.676 200.485 38.18 200.352 37.636 200.352C37.092 200.352 36.596 200.48 36.148 200.736C35.7 200.992 35.3427 201.365 35.076 201.856C34.8093 202.347 34.676 202.923 34.676 203.584C34.676 204.256 34.8093 204.843 35.076 205.344C35.3427 205.835 35.7 206.213 36.148 206.48C36.596 206.736 37.092 206.864 37.636 206.864C38.18 206.864 38.676 206.736 39.124 206.48C39.5827 206.213 39.9453 205.835 40.212 205.344C40.4787 204.843 40.612 204.261 40.612 203.6ZM45.2965 197.808C45.0192 197.808 44.7845 197.712 44.5925 197.52C44.4005 197.328 44.3045 197.093 44.3045 196.816C44.3045 196.539 44.4005 196.304 44.5925 196.112C44.7845 195.92 45.0192 195.824 45.2965 195.824C45.5632 195.824 45.7872 195.92 45.9685 196.112C46.1605 196.304 46.2565 196.539 46.2565 196.816C46.2565 197.093 46.1605 197.328 45.9685 197.52C45.7872 197.712 45.5632 197.808 45.2965 197.808ZM46.0005 199.232V208H44.5445V199.232H46.0005ZM51.586 208.144C50.914 208.144 50.3113 208.032 49.778 207.808C49.2447 207.573 48.8233 207.253 48.514 206.848C48.2047 206.432 48.034 205.957 48.002 205.424H49.506C49.5487 205.861 49.7513 206.219 50.114 206.496C50.4873 206.773 50.9727 206.912 51.57 206.912C52.1247 206.912 52.562 206.789 52.882 206.544C53.202 206.299 53.362 205.989 53.362 205.616C53.362 205.232 53.1913 204.949 52.85 204.768C52.5087 204.576 51.9807 204.389 51.266 204.208C50.6153 204.037 50.082 203.867 49.666 203.696C49.2607 203.515 48.9087 203.253 48.61 202.912C48.322 202.56 48.178 202.101 48.178 201.536C48.178 201.088 48.3113 200.677 48.578 200.304C48.8447 199.931 49.2233 199.637 49.714 199.424C50.2047 199.2 50.7647 199.088 51.394 199.088C52.3647 199.088 53.1487 199.333 53.746 199.824C54.3433 200.315 54.6633 200.987 54.706 201.84H53.25C53.218 201.381 53.0313 201.013 52.69 200.736C52.3593 200.459 51.9113 200.32 51.346 200.32C50.8233 200.32 50.4073 200.432 50.098 200.656C49.7887 200.88 49.634 201.173 49.634 201.536C49.634 201.824 49.7247 202.064 49.906 202.256C50.098 202.437 50.3327 202.587 50.61 202.704C50.898 202.811 51.2927 202.933 51.794 203.072C52.4233 203.243 52.9353 203.413 53.33 203.584C53.7247 203.744 54.0607 203.989 54.338 204.32C54.626 204.651 54.7753 205.083 54.786 205.616C54.786 206.096 54.6527 206.528 54.386 206.912C54.1193 207.296 53.7407 207.6 53.25 207.824C52.77 208.037 52.2153 208.144 51.586 208.144ZM58.6174 200.432V205.6C58.6174 206.027 58.708 206.331 58.8894 206.512C59.0707 206.683 59.3854 206.768 59.8334 206.768H60.9054V208H59.5934C58.7827 208 58.1747 207.813 57.7694 207.44C57.364 207.067 57.1614 206.453 57.1614 205.6V200.432H56.0254V199.232H57.1614V197.024H58.6174V199.232H60.9054V200.432H58.6174ZM64.1255 200.656C64.3815 200.155 64.7442 199.765 65.2135 199.488C65.6935 199.211 66.2748 199.072 66.9575 199.072V200.576H66.5735C64.9415 200.576 64.1255 201.461 64.1255 203.232V208H62.6695V199.232H64.1255V200.656ZM68.0943 203.584C68.0943 202.688 68.2756 201.904 68.6383 201.232C69.0009 200.549 69.4969 200.021 70.1263 199.648C70.7663 199.275 71.4756 199.088 72.2543 199.088C73.0223 199.088 73.6889 199.253 74.2543 199.584C74.8196 199.915 75.2409 200.331 75.5183 200.832V199.232H76.9903V208H75.5183V206.368C75.2303 206.88 74.7983 207.307 74.2223 207.648C73.6569 207.979 72.9956 208.144 72.2383 208.144C71.4596 208.144 70.7556 207.952 70.1263 207.568C69.4969 207.184 69.0009 206.645 68.6383 205.952C68.2756 205.259 68.0943 204.469 68.0943 203.584ZM75.5183 203.6C75.5183 202.939 75.3849 202.363 75.1183 201.872C74.8516 201.381 74.4889 201.008 74.0303 200.752C73.5823 200.485 73.0863 200.352 72.5423 200.352C71.9983 200.352 71.5023 200.48 71.0543 200.736C70.6063 200.992 70.2489 201.365 69.9823 201.856C69.7156 202.347 69.5823 202.923 69.5823 203.584C69.5823 204.256 69.7156 204.843 69.9823 205.344C70.2489 205.835 70.6063 206.213 71.0543 206.48C71.5023 206.736 71.9983 206.864 72.5423 206.864C73.0863 206.864 73.5823 206.736 74.0303 206.48C74.4889 206.213 74.8516 205.835 75.1183 205.344C75.3849 204.843 75.5183 204.261 75.5183 203.6ZM78.9068 203.6C78.9068 202.693 79.0881 201.904 79.4508 201.232C79.8134 200.549 80.3148 200.021 80.9548 199.648C81.6054 199.275 82.3468 199.088 83.1788 199.088C84.2561 199.088 85.1414 199.349 85.8348 199.872C86.5388 200.395 87.0028 201.12 87.2268 202.048H85.6588C85.5094 201.515 85.2161 201.093 84.7788 200.784C84.3521 200.475 83.8188 200.32 83.1788 200.32C82.3468 200.32 81.6748 200.608 81.1628 201.184C80.6508 201.749 80.3948 202.555 80.3948 203.6C80.3948 204.656 80.6508 205.472 81.1628 206.048C81.6748 206.624 82.3468 206.912 83.1788 206.912C83.8188 206.912 84.3521 206.763 84.7788 206.464C85.2054 206.165 85.4988 205.739 85.6588 205.184H87.2268C86.9921 206.08 86.5228 206.8 85.8188 207.344C85.1148 207.877 84.2348 208.144 83.1788 208.144C82.3468 208.144 81.6054 207.957 80.9548 207.584C80.3148 207.211 79.8134 206.683 79.4508 206C79.0881 205.317 78.9068 204.517 78.9068 203.6ZM90.9455 200.432V205.6C90.9455 206.027 91.0362 206.331 91.2175 206.512C91.3988 206.683 91.7135 206.768 92.1615 206.768H93.2335V208H91.9215C91.1108 208 90.5028 207.813 90.0975 207.44C89.6922 207.067 89.4895 206.453 89.4895 205.6V200.432H88.3535V199.232H89.4895V197.024H90.9455V199.232H93.2335V200.432H90.9455ZM95.7496 197.808C95.4723 197.808 95.2376 197.712 95.0456 197.52C94.8536 197.328 94.7576 197.093 94.7576 196.816C94.7576 196.539 94.8536 196.304 95.0456 196.112C95.2376 195.92 95.4723 195.824 95.7496 195.824C96.0163 195.824 96.2403 195.92 96.4216 196.112C96.6136 196.304 96.7096 196.539 96.7096 196.816C96.7096 197.093 96.6136 197.328 96.4216 197.52C96.2403 197.712 96.0163 197.808 95.7496 197.808ZM96.4536 199.232V208H94.9976V199.232H96.4536ZM102.759 208.144C101.938 208.144 101.191 207.957 100.519 207.584C99.8578 207.211 99.3351 206.683 98.9511 206C98.5778 205.307 98.3911 204.507 98.3911 203.6C98.3911 202.704 98.5831 201.915 98.9671 201.232C99.3618 200.539 99.8951 200.011 100.567 199.648C101.239 199.275 101.991 199.088 102.823 199.088C103.655 199.088 104.407 199.275 105.079 199.648C105.751 200.011 106.279 200.533 106.663 201.216C107.058 201.899 107.255 202.693 107.255 203.6C107.255 204.507 107.052 205.307 106.647 206C106.252 206.683 105.714 207.211 105.031 207.584C104.348 207.957 103.591 208.144 102.759 208.144ZM102.759 206.864C103.282 206.864 103.772 206.741 104.231 206.496C104.69 206.251 105.058 205.883 105.335 205.392C105.623 204.901 105.767 204.304 105.767 203.6C105.767 202.896 105.628 202.299 105.351 201.808C105.074 201.317 104.711 200.955 104.263 200.72C103.815 200.475 103.33 200.352 102.807 200.352C102.274 200.352 101.783 200.475 101.335 200.72C100.898 200.955 100.546 201.317 100.279 201.808C100.012 202.299 99.8791 202.896 99.8791 203.6C99.8791 204.315 100.007 204.917 100.263 205.408C100.53 205.899 100.882 206.267 101.319 206.512C101.756 206.747 102.236 206.864 102.759 206.864ZM113.442 199.072C114.508 199.072 115.372 199.397 116.034 200.048C116.695 200.688 117.026 201.616 117.026 202.832V208H115.586V203.04C115.586 202.165 115.367 201.499 114.93 201.04C114.492 200.571 113.895 200.336 113.138 200.336C112.37 200.336 111.756 200.576 111.298 201.056C110.85 201.536 110.626 202.235 110.626 203.152V208H109.17V199.232H110.626V200.48C110.914 200.032 111.303 199.685 111.794 199.44C112.295 199.195 112.844 199.072 113.442 199.072ZM122.508 208.144C121.836 208.144 121.233 208.032 120.7 207.808C120.167 207.573 119.745 207.253 119.436 206.848C119.127 206.432 118.956 205.957 118.924 205.424H120.428C120.471 205.861 120.673 206.219 121.036 206.496C121.409 206.773 121.895 206.912 122.492 206.912C123.047 206.912 123.484 206.789 123.804 206.544C124.124 206.299 124.284 205.989 124.284 205.616C124.284 205.232 124.113 204.949 123.772 204.768C123.431 204.576 122.903 204.389 122.188 204.208C121.537 204.037 121.004 203.867 120.588 203.696C120.183 203.515 119.831 203.253 119.532 202.912C119.244 202.56 119.1 202.101 119.1 201.536C119.1 201.088 119.233 200.677 119.5 200.304C119.767 199.931 120.145 199.637 120.636 199.424C121.127 199.2 121.687 199.088 122.316 199.088C123.287 199.088 124.071 199.333 124.668 199.824C125.265 200.315 125.585 200.987 125.628 201.84H124.172C124.14 201.381 123.953 201.013 123.612 200.736C123.281 200.459 122.833 200.32 122.268 200.32C121.745 200.32 121.329 200.432 121.02 200.656C120.711 200.88 120.556 201.173 120.556 201.536C120.556 201.824 120.647 202.064 120.828 202.256C121.02 202.437 121.255 202.587 121.532 202.704C121.82 202.811 122.215 202.933 122.716 203.072C123.345 203.243 123.857 203.413 124.252 203.584C124.647 203.744 124.983 203.989 125.26 204.32C125.548 204.651 125.697 205.083 125.708 205.616C125.708 206.096 125.575 206.528 125.308 206.912C125.041 207.296 124.663 207.6 124.172 207.824C123.692 208.037 123.137 208.144 122.508 208.144Z" fill="#495057"/>
<path opacity="0.3" fill-rule="evenodd" clip-rule="evenodd" d="M122.502 418.694C122.502 431.437 131.269 443.657 146.876 452.668C179.353 471.418 232.086 471.418 264.563 452.668C280.17 443.657 288.937 431.437 288.937 418.694H247.329C247.329 425.065 242.945 431.176 235.142 435.681C218.903 445.056 192.536 445.056 176.297 435.681C168.494 431.176 164.111 425.065 164.111 418.694H122.502Z" fill="#262725"/>
<path fill-rule="evenodd" clip-rule="evenodd" d="M146.647 338.122V403.61L185.964 411.472C188.025 408.038 191.408 404.918 195.86 402.348C205.598 396.726 219.522 394.25 233.051 395.734L240.821 372.134V306.647C213.763 303.677 185.913 308.63 166.438 319.874C157.535 325.014 150.768 331.254 146.647 338.122Z" fill="white"/>
<path fill-rule="evenodd" clip-rule="evenodd" d="M146.647 338.122V403.61L185.964 411.472C188.025 408.038 191.408 404.918 195.86 402.348C205.598 396.726 219.522 394.25 233.051 395.734L240.821 372.134V306.647C213.763 303.677 185.913 308.63 166.438 319.874C157.535 325.014 150.768 331.254 146.647 338.122Z" stroke="#262725" stroke-width="2" stroke-linecap="round" stroke-linejoin="round"/>
<path fill-rule="evenodd" clip-rule="evenodd" d="M240.821 306.647C213.763 303.677 185.913 308.63 166.438 319.874C157.535 325.014 150.768 331.254 146.647 338.122L185.964 345.985C188.025 342.55 191.408 339.431 195.86 336.861C205.598 331.239 219.522 328.762 233.051 330.247L240.821 306.647Z" fill="white"/>
<path fill-rule="evenodd" clip-rule="evenodd" d="M240.821 306.647C213.763 303.677 185.913 308.63 166.438 319.874C157.535 325.014 150.768 331.254 146.647 338.122L185.964 345.985C188.025 342.55 191.408 339.431 195.86 336.861C205.598 331.239 219.522 328.762 233.051 330.247L240.821 306.647Z" stroke="#262725" stroke-width="2" stroke-linecap="round" stroke-linejoin="round"/>
<path fill-rule="evenodd" clip-rule="evenodd" d="M146.647 403.609V338.121L185.964 345.984V411.471L146.647 403.609Z" fill="#039600"/>
<path fill-rule="evenodd" clip-rule="evenodd" d="M146.647 403.609V338.121L185.964 345.984V411.471L146.647 403.609Z" stroke="#262725" stroke-width="2" stroke-linecap="round" stroke-linejoin="round"/>
<path fill-rule="evenodd" clip-rule="evenodd" d="M240.825 372.134V306.646L233.055 330.247V395.734L240.825 372.134Z" fill="white"/>
<path fill-rule="evenodd" clip-rule="evenodd" d="M240.825 372.134V306.646L233.055 330.247V395.734L240.825 372.134Z" stroke="#262725" stroke-width="2" stroke-linecap="round" stroke-linejoin="round"/>
<path fill-rule="evenodd" clip-rule="evenodd" d="M305.084 364.808C301.146 357.123 293.942 350.128 284.127 344.461C274.311 338.794 262.196 334.635 248.885 332.362L225.283 378.435L305.084 364.808Z" fill="white"/>
<path fill-rule="evenodd" clip-rule="evenodd" d="M305.084 364.808C301.146 357.123 293.942 350.128 284.127 344.461C274.311 338.794 262.196 334.635 248.885 332.362L225.283 378.435L305.084 364.808Z" stroke="#262725" stroke-width="2" stroke-linecap="round" stroke-linejoin="round"/>
<path fill-rule="evenodd" clip-rule="evenodd" d="M305.083 406.061V364.808L225.271 378.441L225.282 419.688L305.083 406.061Z" fill="#00D42F"/>
<path fill-rule="evenodd" clip-rule="evenodd" d="M305.083 406.061V364.808L225.271 378.441L225.282 419.688L305.083 406.061Z" stroke="#262725" stroke-width="2" stroke-linecap="round" stroke-linejoin="round"/>
<path fill-rule="evenodd" clip-rule="evenodd" d="M142.064 394.043C142.064 406.785 150.832 419.006 166.438 428.016C198.915 446.767 251.649 446.767 284.126 428.016C299.732 419.006 308.5 406.785 308.5 394.043H266.891C266.891 400.414 262.507 406.524 254.704 411.03C238.466 420.405 212.099 420.405 195.86 411.03C188.057 406.524 183.673 400.414 183.673 394.043H142.064Z" fill="white"/>
<path fill-rule="evenodd" clip-rule="evenodd" d="M142.064 394.043C142.064 406.785 150.832 419.006 166.438 428.016C198.915 446.767 251.649 446.767 284.126 428.016C299.732 419.006 308.5 406.785 308.5 394.043H266.891C266.891 400.414 262.507 406.524 254.704 411.03C238.466 420.405 212.099 420.405 195.86 411.03C188.057 406.524 183.673 400.414 183.673 394.043H142.064Z" stroke="#262725" stroke-width="2" stroke-linecap="round" stroke-linejoin="round"/>
<path opacity="0.3" fill-rule="evenodd" clip-rule="evenodd" d="M159.322 399.136L146.373 406.612L159.322 414.088L164.409 413.807C164.409 413.807 167.188 409.109 172.271 406.612L159.322 399.136Z" fill="#262725"/>
<path opacity="0.3" fill-rule="evenodd" clip-rule="evenodd" d="M177.112 414.079L164.163 421.555L177.112 429.031L182.199 428.75C182.199 428.75 184.978 424.052 190.061 421.555L177.112 414.079Z" fill="#262725"/>
<path opacity="0.3" fill-rule="evenodd" clip-rule="evenodd" d="M201.841 421.212L188.892 428.688L201.841 436.164L206.928 435.883C206.928 435.883 209.708 431.184 214.79 428.688L201.841 421.212Z" fill="#262725"/>
<path fill-rule="evenodd" clip-rule="evenodd" d="M308.483 418.635H308.452C309.054 431.373 300.945 444.223 284.122 453.935C251.641 472.688 198.9 472.688 166.419 453.935C149.597 444.223 141.488 431.373 142.09 418.635H142.059V394.027C142.059 406.328 150.179 418.628 166.419 428.005C198.9 446.758 251.641 446.758 284.122 428.005C300.363 418.628 308.483 406.328 308.483 394.027V418.635Z" fill="#8FFC22"/>
<path fill-rule="evenodd" clip-rule="evenodd" d="M308.483 418.635H308.452C309.054 431.373 300.945 444.223 284.122 453.935C251.641 472.688 198.9 472.688 166.419 453.935C149.597 444.223 141.488 431.373 142.09 418.635H142.059V394.027C142.059 406.328 150.179 418.628 166.419 428.005C198.9 446.758 251.641 446.758 284.122 428.005C300.363 418.628 308.483 406.328 308.483 394.027V418.635Z" stroke="#262725" stroke-width="2" stroke-linecap="round" stroke-linejoin="round"/>
<path fill-rule="evenodd" clip-rule="evenodd" d="M164.407 383.19L151.458 390.666V406.331L164.407 413.807L177.355 406.331V390.666L164.407 383.19Z" fill="#039600"/>
<path fill-rule="evenodd" clip-rule="evenodd" d="M164.407 383.19L151.458 390.666V406.331L164.407 413.807L177.355 406.331V390.666L164.407 383.19Z" stroke="#262725" stroke-width="2" stroke-linecap="round" stroke-linejoin="round"/>
<path fill-rule="evenodd" clip-rule="evenodd" d="M177.357 390.665L164.408 398.141V413.806L177.357 406.33V390.665Z" fill="white"/>
<path fill-rule="evenodd" clip-rule="evenodd" d="M177.357 390.665L164.408 398.141V413.806L177.357 406.33V390.665Z" stroke="#262725" stroke-width="2" stroke-linecap="round" stroke-linejoin="round"/>
<path fill-rule="evenodd" clip-rule="evenodd" d="M164.407 383.19L151.458 390.666L164.407 398.142L177.355 390.666L164.407 383.19Z" fill="white"/>
<path fill-rule="evenodd" clip-rule="evenodd" d="M164.407 383.19L151.458 390.666L164.407 398.142L177.355 390.666L164.407 383.19Z" stroke="#262725" stroke-width="2" stroke-linecap="round" stroke-linejoin="round"/>
<path fill-rule="evenodd" clip-rule="evenodd" d="M182.267 383.471L169.318 390.947V421.354L182.267 428.83L195.215 421.354V390.947L182.267 383.471Z" fill="#00D52F"/>
<path fill-rule="evenodd" clip-rule="evenodd" d="M182.267 383.471L169.318 390.947V421.354L182.267 428.83L195.215 421.354V390.947L182.267 383.471Z" stroke="#262725" stroke-width="2" stroke-linecap="round" stroke-linejoin="round"/>
<path fill-rule="evenodd" clip-rule="evenodd" d="M195.217 390.946L182.268 398.422V428.829L195.217 421.353V390.946Z" fill="white"/>
<path fill-rule="evenodd" clip-rule="evenodd" d="M195.217 390.946L182.268 398.422V428.829L195.217 421.353V390.946Z" stroke="#262725" stroke-width="2" stroke-linecap="round" stroke-linejoin="round"/>
<path fill-rule="evenodd" clip-rule="evenodd" d="M182.267 383.471L169.318 390.947L182.267 398.423L195.215 390.947L182.267 383.471Z" fill="white"/>
<path fill-rule="evenodd" clip-rule="evenodd" d="M182.267 383.471L169.318 390.947L182.267 398.423L195.215 390.947L182.267 383.471Z" stroke="#262725" stroke-width="2" stroke-linecap="round" stroke-linejoin="round"/>
<path fill-rule="evenodd" clip-rule="evenodd" d="M206.832 369.289L193.884 376.765V428.435L206.832 435.911L219.781 428.435V376.765L206.832 369.289Z" fill="#8FFC22"/>
<path fill-rule="evenodd" clip-rule="evenodd" d="M206.832 369.289L193.884 376.765V428.435L206.832 435.911L219.781 428.435V376.765L206.832 369.289Z" stroke="#262725" stroke-width="2" stroke-linecap="round" stroke-linejoin="round"/>
<path fill-rule="evenodd" clip-rule="evenodd" d="M219.777 376.766L206.828 384.242V435.912L219.777 428.436V376.766Z" fill="white"/>
<path fill-rule="evenodd" clip-rule="evenodd" d="M219.777 376.766L206.828 384.242V435.912L219.777 428.436V376.766Z" stroke="#262725" stroke-width="2" stroke-linecap="round" stroke-linejoin="round"/>
<path fill-rule="evenodd" clip-rule="evenodd" d="M206.832 369.289L193.884 376.765L206.832 384.241L219.781 376.765L206.832 369.289Z" fill="white"/>
<path fill-rule="evenodd" clip-rule="evenodd" d="M206.832 369.289L193.884 376.765L206.832 384.241L219.781 376.765L206.832 369.289Z" stroke="#262725" stroke-width="2" stroke-linecap="round" stroke-linejoin="round"/>
<path fill-rule="evenodd" clip-rule="evenodd" d="M209.118 313.113C213.616 310.516 220.921 310.516 225.419 313.113C229.918 315.71 229.918 319.928 225.419 322.525C220.921 325.122 213.616 325.122 209.118 322.525C204.619 319.928 204.619 315.71 209.118 313.113Z" fill="#262725"/>
<path fill-rule="evenodd" clip-rule="evenodd" d="M217.264 269.78C226.261 269.78 233.566 277.085 233.566 286.082C233.566 295.079 226.261 302.384 217.264 302.384C208.267 302.384 200.962 295.079 200.962 286.082C200.962 277.085 208.267 269.78 217.264 269.78Z" fill="#8FFC22"/>
<path fill-rule="evenodd" clip-rule="evenodd" d="M217.264 269.78C226.261 269.78 233.566 277.085 233.566 286.082C233.566 295.079 226.261 302.384 217.264 302.384C208.267 302.384 200.962 295.079 200.962 286.082C200.962 277.085 208.267 269.78 217.264 269.78Z" stroke="#262725" stroke-width="2" stroke-linecap="round" stroke-linejoin="round"/>
</svg>
